<svg width="18" height="19" viewBox="0 0 18 19" fill="none" xmlns="http://www.w3.org/2000/svg">
<path d="M9 0.5L11.2639 2.53256L14.2901 2.21885L14.9269 5.19389L17.5595 6.71885L16.326 9.5L17.5595 12.2812L14.9269 13.8061L14.2901 16.7812L11.2639 16.4674L9 18.5L6.73614 16.4674L3.70993 16.7812L3.07314 13.8061L0.440492 12.2812L1.674 9.5L0.440492 6.71885L3.07314 5.19389L3.70993 2.21885L6.73614 2.53256L9 0.5Z" fill="#F2B705"/>
<path d="M12.1385 6.44474L12.1385 6.44475L7.52491 11.1565L5.86149 9.45773C5.86148 9.45773 5.86148 9.45773 5.86148 9.45773C5.60721 9.19804 5.1928 9.19811 4.93855 9.45771L4.93855 9.45772C4.68715 9.71444 4.68716 10.1285 4.93854 10.3852L4.93854 10.3852L7.06341 12.5553C7.31768 12.815 7.73231 12.8148 7.98638 12.5553L13.0615 7.37229C13.3129 7.11556 13.3128 6.70147 13.0615 6.44476C12.8072 6.18507 12.3928 6.1851 12.1385 6.44474Z" fill="white" stroke="white" stroke-width="0.5"/>
</svg>
