<svg width="195" height="25" viewBox="0 0 195 25" fill="none" xmlns="http://www.w3.org/2000/svg">
<rect width="25" height="25" rx="12.5" fill="#F2B705"/>
<path d="M20 7.76174L9.71429 18.5L5 13.5783L6.20857 12.3166L9.71429 15.9676L18.7914 6.5L20 7.76174Z" fill="black"/>
<rect x="25" y="11.5" width="60" height="2" fill="#F2B705"/>
<rect x="85" width="25" height="25" rx="12.5" fill="#F2B705"/>
<path d="M105 7.76174L94.7143 18.5L90 13.5783L91.2086 12.3166L94.7143 15.9676L103.791 6.5L105 7.76174Z" fill="black"/>
<rect x="110" y="11.5" width="60" height="2" fill="#F2B705"/>
<rect x="171" y="1" width="23" height="23" rx="11.5" fill="#F2B705"/>
<path d="M182.122 18.14C181.431 18.14 180.754 18.042 180.092 17.846C179.438 17.6407 178.888 17.3607 178.44 17.006L179.224 15.592C179.578 15.8813 180.008 16.1147 180.512 16.292C181.016 16.4693 181.543 16.558 182.094 16.558C182.747 16.558 183.256 16.4273 183.62 16.166C183.984 15.8953 184.166 15.5313 184.166 15.074C184.166 14.626 183.998 14.2713 183.662 14.01C183.326 13.7487 182.784 13.618 182.038 13.618H181.142V12.372L183.942 9.04L184.18 9.726H178.916V8.2H185.594V9.418L182.794 12.75L181.842 12.19H182.388C183.592 12.19 184.492 12.4607 185.09 13.002C185.696 13.534 186 14.22 186 15.06C186 15.6107 185.86 16.1193 185.58 16.586C185.3 17.0527 184.87 17.4307 184.292 17.72C183.722 18 182.999 18.14 182.122 18.14Z" fill="black"/>
<rect x="171" y="1" width="23" height="23" rx="11.5" stroke="#F2B705" stroke-width="2"/>
</svg>
