<svg width="195" height="25" viewBox="0 0 195 25" fill="none" xmlns="http://www.w3.org/2000/svg">
<rect width="25" height="25" rx="12.5" fill="#F2B705"/>
<path d="M20 7.76174L9.71429 18.5L5 13.5783L6.20857 12.3166L9.71429 15.9676L18.7914 6.5L20 7.76174Z" fill="black"/>
<rect x="25" y="11.5" width="60" height="2" fill="#F2B705"/>
<rect x="86" y="1" width="23" height="23" rx="11.5" fill="#F2B705"/>
<path d="M93.9158 18V16.782L97.8078 13.086C98.1344 12.778 98.3771 12.5073 98.5358 12.274C98.6944 12.0407 98.7971 11.826 98.8438 11.63C98.8998 11.4247 98.9278 11.2333 98.9278 11.056C98.9278 10.608 98.7738 10.2627 98.4658 10.02C98.1578 9.768 97.7051 9.642 97.1078 9.642C96.6318 9.642 96.1978 9.726 95.8058 9.894C95.4231 10.062 95.0918 10.3187 94.8118 10.664L93.5378 9.684C93.9204 9.17067 94.4338 8.774 95.0778 8.494C95.7311 8.20467 96.4591 8.06 97.2618 8.06C97.9711 8.06 98.5871 8.17667 99.1098 8.41C99.6418 8.634 100.048 8.956 100.328 9.376C100.617 9.796 100.762 10.2953 100.762 10.874C100.762 11.1913 100.72 11.5087 100.636 11.826C100.552 12.134 100.393 12.4607 100.16 12.806C99.9264 13.1513 99.5858 13.5387 99.1378 13.968L95.7918 17.146L95.4138 16.46H101.14V18H93.9158Z" fill="black"/>
<rect x="86" y="1" width="23" height="23" rx="11.5" stroke="#F2B705" stroke-width="2"/>
<rect x="110" y="11.5" width="60" height="2" fill="#F2B705"/>
<path d="M182.122 18.14C181.431 18.14 180.754 18.042 180.092 17.846C179.438 17.6407 178.888 17.3607 178.44 17.006L179.224 15.592C179.578 15.8813 180.008 16.1147 180.512 16.292C181.016 16.4693 181.543 16.558 182.094 16.558C182.747 16.558 183.256 16.4273 183.62 16.166C183.984 15.8953 184.166 15.5313 184.166 15.074C184.166 14.626 183.998 14.2713 183.662 14.01C183.326 13.7487 182.784 13.618 182.038 13.618H181.142V12.372L183.942 9.04L184.18 9.726H178.916V8.2H185.594V9.418L182.794 12.75L181.842 12.19H182.388C183.592 12.19 184.492 12.4607 185.09 13.002C185.696 13.534 186 14.22 186 15.06C186 15.6107 185.86 16.1193 185.58 16.586C185.3 17.0527 184.87 17.4307 184.292 17.72C183.722 18 182.999 18.14 182.122 18.14Z" fill="black"/>
<rect x="171" y="1" width="23" height="23" rx="11.5" stroke="#F2B705" stroke-width="2"/>
</svg>
