<svg width="201" height="180" viewBox="0 0 201 180" fill="none" xmlns="http://www.w3.org/2000/svg">
<g clip-path="url(#clip0_3771_808)">
<path d="M221.5 158.164H-20.5V158.261H221.5V158.164Z" fill="#EBEBEB"/>
<path d="M197.251 165.942H181.23V166.039H197.251V165.942Z" fill="#EBEBEB"/>
<path d="M125.377 166.039H121.166V166.135H125.377V166.039Z" fill="#EBEBEB"/>
<path d="M180.698 161.498H150.98V161.594H180.698V161.498Z" fill="#EBEBEB"/>
<path d="M88.4964 164.348H82.3496V164.444H88.4964V164.348Z" fill="#EBEBEB"/>
<path d="M77.9948 164.348H60.1836V164.444H77.9948V164.348Z" fill="#EBEBEB"/>
<path d="M17.2038 162.271H4.91016V162.367H17.2038V162.271Z" fill="#EBEBEB"/>
<path d="M56.359 162.271H20.1074V162.367H56.359V162.271Z" fill="#EBEBEB"/>
<path d="M94.2075 136.618H0.747082C-0.753318 136.618 -2.01172 135.362 -2.01172 133.865V2.75362C-2.01172 1.25604 -0.753318 0 0.747082 0H94.2075C95.7079 0 96.9663 1.25604 96.9663 2.75362V133.865C96.9663 135.411 95.7563 136.618 94.2075 136.618ZM0.747082 0.0966184C-0.704918 0.0966184 -1.91492 1.25604 -1.91492 2.75362V133.865C-1.91492 135.314 -0.753318 136.522 0.747082 136.522H94.2075C95.6595 136.522 96.8695 135.362 96.8695 133.865V2.75362C96.8695 1.30435 95.7079 0.0966184 94.2075 0.0966184H0.747082Z" fill="#EBEBEB"/>
<path d="M198.897 136.618H105.437C103.936 136.618 102.678 135.362 102.678 133.865V2.75362C102.678 1.25604 103.936 0 105.437 0H198.897C200.397 0 201.656 1.25604 201.656 2.75362V133.865C201.656 135.411 200.446 136.618 198.897 136.618ZM105.437 0.0966184C103.985 0.0966184 102.775 1.25604 102.775 2.75362V133.865C102.775 135.314 103.936 136.522 105.437 136.522H198.897C200.349 136.522 201.559 135.362 201.559 133.865V2.75362C201.559 1.30435 200.397 0.0966184 198.897 0.0966184H105.437Z" fill="#EBEBEB"/>
<path d="M36.8549 32.3672H36.1289V158.164H36.8549V32.3672Z" fill="#F0F0F0"/>
<path d="M164.922 32.3672H36.8555V158.164H164.922V32.3672Z" fill="#F5F5F5"/>
<path d="M98.0156 158.183L98.0156 35.2361L42.5008 35.2361L42.5008 158.183H98.0156Z" fill="#FAFAFA"/>
<path d="M50.2617 158.164L68.0729 35.2657H72.8161L55.0049 158.164H50.2617Z" fill="white"/>
<path d="M57.9082 158.164L75.671 35.2657H86.2706L68.5078 158.164H57.9082Z" fill="white"/>
<path d="M159.178 158.198L159.178 35.2511L103.663 35.2511L103.663 158.198H159.178Z" fill="#FAFAFA"/>
<path d="M112.746 158.164L130.557 35.2657H141.254L123.442 158.164H112.746Z" fill="white"/>
<path d="M126.346 158.164L144.157 35.2657H154.757L136.945 158.164H126.346Z" fill="white"/>
<path d="M28.3842 36.2319H4.47461V77.6329H28.3842V36.2319Z" fill="#E6E6E6"/>
<path d="M29.8354 36.2319H5.92578V77.6329H29.8354V36.2319Z" fill="#F5F5F5"/>
<path d="M27.2246 74.7115L27.2246 39.2043H8.5906L8.5906 74.7115H27.2246Z" fill="#FAFAFA"/>
<path d="M13.4277 74.686L19.0421 39.1788H22.3333L16.7189 74.686H13.4277Z" fill="white"/>
<path d="M27.2383 74.6986L27.2383 39.1914H26.1251L26.1251 74.6986H27.2383Z" fill="#E6E6E6"/>
<path d="M28.7707 64.058H7.03906V68.0193H28.7707V64.058Z" fill="#F5F5F5"/>
<path d="M195.074 36.2319H171.164V77.6329H195.074V36.2319Z" fill="#E6E6E6"/>
<path d="M196.525 36.2319H172.615V77.6329H196.525V36.2319Z" fill="#F5F5F5"/>
<path d="M193.896 74.6803V39.1731H175.262V74.6803H193.896Z" fill="#FAFAFA"/>
<path d="M180.117 74.686L185.732 39.1788H189.023L183.408 74.686H180.117Z" fill="white"/>
<path d="M193.91 74.7157V39.2084H192.797V74.7157H193.91Z" fill="#E6E6E6"/>
<path d="M195.413 64.058H173.682V68.0193H195.413V64.058Z" fill="#F5F5F5"/>
<path d="M111.535 24.5411L111.1 25.2174H89.4648V12.2705L111.535 24.5411Z" fill="#EBEBEB"/>
<path d="M90.2876 24.5411H111.535L110.712 12.2705H89.4648L90.2876 24.5411Z" fill="#FAFAFA"/>
<path d="M75.3321 24.5411L74.8481 25.2174H53.2617V12.2705L75.3321 24.5411Z" fill="#EBEBEB"/>
<path d="M54.0845 24.5411H75.3321L74.4609 12.2705H53.2617L54.0845 24.5411Z" fill="#FAFAFA"/>
<path d="M147.738 24.5411L147.303 25.2174H125.668V12.2705L147.738 24.5411Z" fill="#EBEBEB"/>
<path d="M126.539 24.5411H147.738L146.916 12.2705H125.668L126.539 24.5411Z" fill="#FAFAFA"/>
<path d="M100.5 180C152.331 180 194.348 177.556 194.348 174.541C194.348 171.526 152.331 169.082 100.5 169.082C48.6693 169.082 6.65234 171.526 6.65234 174.541C6.65234 177.556 48.6693 180 100.5 180Z" fill="#F5F5F5"/>
<path d="M23.0603 84.2512C22.3343 84.2512 21.7051 84.8309 21.7051 85.6039V174.541H24.4155V85.6039C24.4155 84.8309 23.7863 84.2512 23.0603 84.2512Z" fill="#263238"/>
<path d="M177.941 84.2512C177.215 84.2512 176.586 84.8309 176.586 85.6039V174.541H179.296V85.6039C179.296 84.8309 178.667 84.2512 177.941 84.2512Z" fill="#263238"/>
<path d="M146.77 100.29C148.368 102.319 144.544 103.623 142.318 104.541C139.607 105.266 137.042 94.8309 119.037 91.6425C121.699 87.8261 124.264 86.8599 124.264 86.8599C127.604 86.2802 139.801 91.5459 146.77 100.29Z" fill="#F2B705"/>
<path d="M132.735 87.971C131.718 89.8068 148.949 100 142.318 104.541C142.318 104.541 149.578 103.043 150.304 98.5024C150.062 93.43 135.59 85.1208 139.414 82.657" fill="#C29204"/>
<path opacity="0.2" d="M132.735 87.971C131.718 89.8068 148.949 100 142.318 104.541C142.318 104.541 149.578 103.043 150.304 98.5024C150.062 93.43 135.59 85.1208 139.414 82.657" fill="#C29204"/>
<path d="M176.585 88.9855C171.309 85.7005 151.562 81.3527 139.365 82.6087C135.493 83.43 132.734 87.971 132.734 87.971C148.803 87.6329 171.019 92.3672 176.585 98.0193C176.585 92.5604 176.585 88.9855 176.585 88.9855Z" fill="#F2B705"/>
<path d="M54.9557 89.6618C53.3585 87.6329 56.2625 86.9565 58.4889 86.0387C61.1993 85.314 67.2977 95.0242 83.8021 95.1208C81.1401 98.9372 78.5749 99.9034 78.5749 99.9034C75.1869 100.483 61.9253 98.4058 54.9557 89.6618Z" fill="#F2B705"/>
<path d="M68.9915 101.981C70.0079 100.145 51.8095 90.5797 58.4887 86.0387C58.4887 86.0387 52.1483 86.9082 51.4707 91.4976C51.7127 96.5701 66.1843 104.879 62.3607 107.343" fill="#C29204"/>
<path opacity="0.2" d="M68.9915 101.981C70.0079 100.145 51.8095 90.5797 58.4887 86.0387C58.4887 86.0387 52.1483 86.9082 51.4707 91.4976C51.7127 96.5701 66.1843 104.879 62.3607 107.343" fill="#C29204"/>
<path d="M24.416 99.0821C29.6916 102.367 50.1648 108.599 62.3616 107.343C66.2336 106.522 68.9924 101.981 68.9924 101.981C52.9236 102.319 29.982 94.6377 24.416 88.9855C24.416 94.4444 24.416 99.0821 24.416 99.0821Z" fill="#F2B705"/>
<path d="M113.857 167.971L117.536 167.005L116.132 158.213L112.502 159.227L113.857 167.971Z" fill="#FFC3BD"/>
<path d="M86.7539 170.435H90.5775L91.5455 161.643H87.7219L86.7539 170.435Z" fill="#FFC3BD"/>
<path d="M90.917 170H86.2706C86.1254 170 85.9802 170.097 85.9318 170.242L85.1574 173.623C85.0606 173.961 85.351 174.3 85.7382 174.3C87.2386 174.251 88.3034 174.203 90.191 174.203C91.3526 174.203 94.8374 174.3 96.4346 174.3C97.9834 174.3 98.2254 172.705 97.5962 172.56C94.6438 171.932 92.4658 171.014 91.4978 170.193C91.3526 170.048 91.1106 170 90.917 170Z" fill="#263238"/>
<path d="M117.392 166.57L113.375 167.681C113.23 167.729 113.133 167.874 113.133 168.019L113.326 171.498C113.326 171.836 113.714 172.126 114.052 171.981C115.504 171.546 117.537 170.918 119.376 170.386C121.506 169.807 123.345 169.42 125.862 168.744C127.362 168.309 127.362 166.715 126.685 166.715C123.636 166.86 121.264 167.44 118.36 166.618C118.021 166.522 117.682 166.473 117.392 166.57Z" fill="#263238"/>
<path d="M106.889 51.6908C107.083 51.8841 107.325 52.1256 107.567 52.3189L108.293 52.9469C108.777 53.3817 109.309 53.7681 109.841 54.2029C110.906 55.0242 111.923 55.7488 113.036 56.4251C114.101 57.1015 115.214 57.6812 116.327 58.116C117.44 58.5507 118.505 58.8406 119.473 58.8889C119.715 58.8889 119.957 58.8889 120.151 58.8889C119.812 58.9855 119.812 59.0338 119.909 58.9855C120.102 58.8889 120.489 58.4541 120.828 58.0193C121.554 57.1015 122.232 55.9421 122.861 54.7343C124.119 52.3672 125.329 49.8068 126.491 47.2947L129.201 48.116C128.669 50.9662 127.895 53.7681 126.878 56.5218C126.346 57.9227 125.765 59.2754 124.894 60.7247C124.458 61.4493 123.974 62.1739 123.055 62.9469C122.571 63.3334 121.99 63.7681 120.925 63.9614C120.393 64.058 119.957 64.1063 119.473 64.1063C117.585 64.2029 115.891 63.8164 114.343 63.285C112.794 62.7536 111.342 62.0773 110.035 61.3044C108.68 60.5314 107.421 59.6619 106.211 58.744C105.631 58.2609 105.05 57.8261 104.469 57.2947C104.179 57.0532 103.888 56.8116 103.598 56.5218C103.307 56.2319 103.065 56.0387 102.727 55.7005L106.889 51.6908Z" fill="#FFC3BD"/>
<path d="M100.597 54.5894C101.129 58.1642 112.068 63.3333 112.068 63.3333L116.424 55.8454C116.424 55.8454 112.068 52.9469 108.051 50.5314C105.292 48.9372 100.016 50.6763 100.597 54.5894Z" fill="#F2B705"/>
<path opacity="0.5" d="M100.597 54.5894C101.129 58.1642 112.068 63.3333 112.068 63.3333L116.424 55.8454C116.424 55.8454 112.068 52.9469 108.051 50.5314C105.292 48.9372 100.016 50.6763 100.597 54.5894Z" fill="white"/>
<path d="M126.441 47.9227L127.216 43.9131L130.701 46.2319C130.701 46.2319 130.459 48.0193 128.813 48.9855L126.441 47.9227Z" fill="#FFC3BD"/>
<path d="M127.943 41.256L130.992 43.3816L130.702 46.2319L127.217 43.913L127.943 41.256Z" fill="#FFC3BD"/>
<path d="M126.635 33.9131L127.119 40.0966V40.2899L127.361 43.7198C127.168 43.5266 126.974 43.43 126.732 43.4783C126.151 43.5266 125.764 44.2512 125.813 45.1208C125.861 45.9904 126.393 46.6667 126.974 46.6184C127.555 46.5701 127.942 45.8454 127.894 44.9759C127.894 44.8792 127.894 44.8309 127.845 44.7343C127.797 44.1063 127.652 42.3672 128.233 41.3044C128.233 41.2561 128.281 41.2561 128.281 41.2077C128.426 41.0145 128.571 40.8213 128.765 40.6763C128.62 38.6474 128.087 34.9759 126.635 33.9131ZM127.313 44.058C127.361 44.1063 127.41 44.2029 127.458 44.2995C127.555 44.4928 127.652 44.7343 127.652 45.0242C127.7 45.3623 127.603 45.7488 127.458 45.9903C127.41 46.1353 127.216 46.3285 126.974 46.3768C126.732 46.3768 126.539 46.1836 126.442 46.087C126.248 45.8454 126.151 45.5073 126.103 45.1208C126.055 44.7826 126.151 44.3961 126.297 44.1546C126.345 44.0097 126.539 43.8164 126.781 43.7681C127.023 43.7198 127.216 43.9131 127.313 44.058Z" fill="#F2B705"/>
<path d="M129.926 41.8841C129.781 42.0773 129.733 42.2705 129.781 42.5604L122.279 36.1353C122.279 37.9227 124.893 40.5314 126.49 41.8841C127.797 41.401 129.684 43.0435 130.265 43.5266C130.314 43.5749 130.362 43.6232 130.41 43.6715C131.088 44.2512 131.911 44.3478 132.298 43.9131C132.685 43.4783 132.443 42.657 131.766 42.0773C131.136 41.5459 130.265 41.4493 129.926 41.8841ZM132.153 43.1884C132.201 43.3334 132.25 43.5749 132.104 43.7681C131.959 43.9614 131.669 43.9614 131.524 43.9131C131.233 43.8648 130.895 43.7198 130.604 43.4783C130.411 43.285 130.265 43.0918 130.12 42.8986C130.072 42.802 130.023 42.7536 130.023 42.657C129.975 42.5121 129.926 42.2705 130.072 42.0773C130.217 41.8841 130.507 41.8841 130.652 41.9324C130.943 41.9807 131.282 42.1256 131.572 42.3672C131.863 42.5604 132.104 42.8986 132.153 43.1884Z" fill="#F2B705"/>
<path opacity="0.3" d="M127.894 41.2077C128.039 41.3044 128.039 41.4976 127.942 41.6425C127.845 41.7875 127.652 41.7875 127.506 41.6908C127.361 41.5942 127.361 41.401 127.458 41.2561C127.603 41.1111 127.797 41.0628 127.894 41.2077Z" fill="black"/>
<path opacity="0.2" d="M116.134 158.213L116.86 162.754L113.182 163.768L112.504 159.227L116.134 158.213Z" fill="black"/>
<path opacity="0.2" d="M87.7223 161.643H91.5459L91.0619 166.184H87.2383L87.7223 161.643Z" fill="black"/>
<path d="M85.4961 51.3527C86.6577 55.5556 87.4321 59.8068 87.9161 63.8647C88.2549 66.8116 88.4969 69.6135 88.6421 72.1739C88.9809 78.1642 88.8357 82.7053 88.9809 84.2512C91.9333 84.058 103.162 83.285 109.309 82.8502C112.068 61.256 106.792 50.0966 106.792 50.0966C106.792 50.0966 104.566 49.6618 101.952 49.5169C101.613 49.5169 101.274 49.4686 100.887 49.4686C98.5641 49.4203 94.8373 49.7585 92.2721 50.0483C91.7397 50.0966 91.1589 50.1932 90.6265 50.2899C87.8677 50.7246 85.4961 51.3527 85.4961 51.3527Z" fill="#F2B705"/>
<path opacity="0.5" d="M85.4961 51.3527C86.6577 55.5556 87.4321 59.8068 87.9161 63.8647C88.2549 66.8116 88.4969 69.6135 88.6421 72.1739C88.9809 78.1642 88.8357 82.7053 88.9809 84.2512C91.9333 84.058 103.162 83.285 109.309 82.8502C112.068 61.256 106.792 50.0966 106.792 50.0966C106.792 50.0966 104.566 49.6618 101.952 49.5169C101.613 49.5169 101.274 49.4686 100.887 49.4686C98.5641 49.4203 94.8373 49.7585 92.2721 50.0483C91.7397 50.0966 91.1589 50.1932 90.6265 50.2899C87.8677 50.7246 85.4961 51.3527 85.4961 51.3527Z" fill="#F2B705"/>
<path d="M94.2733 63.0961L94.002 57.6217L95.0499 57.5697L97.572 61.3176L97.0167 61.3451L99.1166 57.3681L100.157 57.3166L100.444 62.7902L99.2551 62.8492L99.0662 59.1973L99.2852 59.1865L97.6075 62.3507L97.0366 62.379L95.0151 59.3981L95.281 59.385L95.4621 63.0372L94.2733 63.0961Z" fill="#533E00"/>
<path d="M101.221 62.7517L100.947 57.2318L103.279 57.1162C103.761 57.0923 104.18 57.1532 104.537 57.2989C104.894 57.4393 105.175 57.6546 105.379 57.9449C105.584 58.2351 105.697 58.5879 105.717 59.0032C105.738 59.4132 105.66 59.7728 105.485 60.0819C105.31 60.3909 105.052 60.6356 104.712 60.8158C104.371 60.9908 103.959 61.0903 103.477 61.1142L101.838 61.1954L102.363 60.5923L102.467 62.6899L101.221 62.7517ZM102.37 60.7343L101.786 60.1546L103.356 60.0767C103.741 60.0577 104.024 59.9593 104.205 59.7817C104.387 59.604 104.47 59.3654 104.455 59.0658C104.44 58.7609 104.334 58.529 104.135 58.3702C103.937 58.2114 103.646 58.1415 103.261 58.1606L101.691 58.2384L102.215 57.6037L102.37 60.7343Z" fill="#533E00"/>
<path opacity="0.2" d="M90.6268 56.8599C90.6268 60.2416 89.7072 63.1401 88.11 65.6522C88.0616 65.0725 87.9648 64.4928 87.9164 63.9131C87.626 61.6908 87.2872 59.4203 86.8516 57.1015L90.6268 56.8599Z" fill="black"/>
<path d="M92.3674 40.2899C93.0934 43.0435 94.013 48.0676 92.1738 50.0483C93.7226 51.401 95.9006 52.5121 98.9982 52.2222C101.37 51.9807 101.37 50.3382 100.789 49.4203C97.643 48.8889 97.5462 46.6184 97.9334 44.3961L92.3674 40.2899Z" fill="#FFC3BD"/>
<path opacity="0.2" d="M94.6905 41.9807L98.0301 44.4444C97.9333 44.9759 97.8849 45.5073 97.8849 45.9903C96.6749 45.8937 94.9809 44.7343 94.7389 43.4783C94.5937 42.8502 94.5937 42.2705 94.6905 41.9807Z" fill="black"/>
<path d="M102.63 31.2077C103.452 33.3333 103.259 39.5652 100.5 38.2609C97.7411 36.9565 98.3703 32.2705 98.3703 32.2705C98.3703 32.2705 100.742 26.2319 102.63 31.2077Z" fill="#263238"/>
<path d="M91.7878 36.1353C92.2718 39.8551 92.3686 42.0773 94.4014 43.8647C97.4506 46.57 102 44.5411 102.629 40.7246C103.21 37.2947 102.291 31.7391 98.5154 30.5314C94.7886 29.3237 91.2554 32.4155 91.7878 36.1353Z" fill="#FFC3BD"/>
<path d="M94.4977 37.8261C95.3689 34.7343 95.0785 31.5942 92.3197 30.628C89.5609 29.6619 87.6249 30.9662 87.2377 32.8986C86.8989 34.8309 93.2393 42.3189 94.4977 37.8261Z" fill="#263238"/>
<path d="M92.8516 32.657C98.0304 33.1401 104.516 33.5749 104.177 29.1788C103.838 24.8309 97.7884 24.8792 96.6752 26.1353C96.6752 26.1353 98.6596 27.4879 96.5784 27.2464C92.6096 26.8599 86.4628 27.343 88.302 31.5459C89.6572 34.6377 92.8516 32.657 92.8516 32.657Z" fill="#263238"/>
<path d="M90.3836 40.3865C90.9644 41.2077 91.884 41.6908 92.7068 41.7874C93.9652 41.9807 94.4008 40.8213 93.9168 39.7101C93.4812 38.744 92.3196 37.4396 91.1096 37.7778C89.9964 38.1159 89.6576 39.4203 90.3836 40.3865Z" fill="#FFC3BD"/>
<path d="M118.02 161.498L111.825 163.188C111.825 163.188 107.372 139.372 106.259 127.585C105.92 124.01 104.952 118.986 103.79 113.672C102.29 106.957 100.402 99.6618 98.8537 93.9614C97.2081 87.971 95.998 83.7198 95.998 83.7198L109.356 82.8019C109.356 82.8019 117.439 114.3 117.826 125.894C118.165 137.971 118.02 161.498 118.02 161.498Z" fill="#78A1FE"/>
<path opacity="0.2" d="M103.741 113.72C102.241 107.005 100.353 99.7102 98.8047 94.0097L100.208 91.0145C103.499 94.9758 104.371 107.101 103.741 113.72Z" fill="black"/>
<path d="M102.048 83.3333C102.048 83.3333 100.596 115.845 98.999 126.86C97.2566 138.937 92.7554 165.266 92.7554 165.266H85.7858C85.7858 165.266 85.689 140.29 87.867 128.599C90.3354 115.314 88.9318 84.2512 88.9318 84.2512L102.048 83.3333Z" fill="#78A1FE"/>
<path d="M93.6264 165.459H85.3984V162.995L94.5944 162.85L93.6264 165.459Z" fill="#407BFF"/>
<path d="M118.843 161.449L111.437 163.478L110.76 161.111L118.988 158.696L118.843 161.449Z" fill="#407BFF"/>
<path d="M97.5469 36.7633C97.5469 37.0532 97.7405 37.2947 97.9341 37.2947C98.1277 37.2947 98.2729 37.0048 98.2729 36.715C98.2729 36.4251 98.0793 36.1836 97.8857 36.1836C97.6921 36.2319 97.5469 36.4734 97.5469 36.7633Z" fill="#263238"/>
<path d="M101.033 36.5218C101.033 36.8116 101.226 37.0532 101.42 37.0532C101.614 37.0532 101.759 36.7633 101.759 36.4734C101.759 36.1836 101.565 35.942 101.372 35.942C101.13 35.9904 100.984 36.2319 101.033 36.5218Z" fill="#263238"/>
<path d="M99.918 36.7633C99.918 36.7633 100.741 38.4541 101.564 39.2754C101.08 39.8068 100.112 39.6619 100.112 39.6619L99.918 36.7633Z" fill="#ED847E"/>
<path d="M96.3864 35.7488C96.4348 35.7488 96.5316 35.7488 96.58 35.6522C97.0156 34.9759 97.6932 34.9759 97.6932 34.9759C97.79 34.9759 97.8868 34.8792 97.8868 34.7826C97.8868 34.686 97.79 34.5894 97.6932 34.5894C97.6448 34.5894 96.822 34.5894 96.2896 35.4106C96.2412 35.5073 96.2412 35.6039 96.338 35.6522C96.338 35.7488 96.3864 35.7488 96.3864 35.7488Z" fill="#263238"/>
<path d="M98.7562 41.1594C97.2074 41.1111 96.5298 40 96.5298 39.9517C96.4814 39.9034 96.5298 39.8551 96.5782 39.8068C96.6266 39.7585 96.675 39.8068 96.7234 39.8551C96.7234 39.8551 97.3526 40.9179 98.8046 40.9662C98.853 40.9662 98.9014 41.0145 98.9014 41.0628C98.853 41.1111 98.853 41.1594 98.7562 41.1594Z" fill="#263238"/>
<path d="M102.388 35.2657C102.436 35.2657 102.485 35.2657 102.485 35.2657C102.582 35.2174 102.582 35.1208 102.533 35.0242C102.049 34.1546 101.226 34.1063 101.178 34.1063C101.081 34.1063 100.984 34.1546 100.984 34.2995C100.984 34.3961 101.081 34.4928 101.13 34.4928C101.178 34.4928 101.807 34.5411 102.194 35.2174C102.291 35.2174 102.34 35.2657 102.388 35.2657Z" fill="#263238"/>
<path d="M92.1742 170.628C92.4646 170.628 92.755 170.58 92.9002 170.435C93.0454 170.338 93.0938 170.145 93.0938 169.952C93.0938 169.807 92.997 169.71 92.9486 169.71C92.513 169.517 91.303 170.242 91.1578 170.338C91.1094 170.338 91.1094 170.386 91.1094 170.435C91.1094 170.483 91.1578 170.483 91.1578 170.531C91.3998 170.58 91.787 170.628 92.1742 170.628ZM92.7066 169.855C92.755 169.855 92.8034 169.855 92.8034 169.855C92.8518 169.855 92.8518 169.903 92.8518 169.952C92.8518 170.097 92.8034 170.193 92.7066 170.29C92.513 170.483 91.9806 170.483 91.3514 170.338C91.8354 170.145 92.4162 169.855 92.7066 169.855Z" fill="#407BFF"/>
<path d="M91.1573 170.531C91.2057 170.531 91.2057 170.531 91.1573 170.531C91.5929 170.29 92.3673 169.469 92.2705 169.034C92.2705 168.937 92.2221 168.841 91.9801 168.792C91.8349 168.792 91.6897 168.792 91.5929 168.889C91.1573 169.227 91.0605 170.338 91.0605 170.387C91.0605 170.435 91.0605 170.435 91.1089 170.483C91.1573 170.531 91.1573 170.531 91.1573 170.531ZM91.9317 168.986C91.9801 168.986 91.9801 168.986 91.9317 168.986C92.0769 168.986 92.0769 169.034 92.1253 169.082C92.1737 169.324 91.6897 169.952 91.3025 170.242C91.3509 169.903 91.4477 169.275 91.7381 169.034C91.7865 168.986 91.8833 168.986 91.9317 168.986Z" fill="#407BFF"/>
<path d="M117.876 166.957C118.505 166.908 119.618 166.763 119.909 166.28C120.005 166.135 120.005 165.99 119.957 165.797C119.909 165.701 119.86 165.652 119.763 165.604C119.231 165.507 117.973 166.618 117.827 166.763C117.779 166.812 117.779 166.812 117.827 166.86C117.827 166.957 117.827 166.957 117.876 166.957ZM119.667 165.845C119.715 165.845 119.715 165.845 119.667 165.845C119.715 165.845 119.763 165.894 119.763 165.942C119.812 166.039 119.812 166.135 119.715 166.232C119.521 166.473 118.941 166.715 118.118 166.763C118.65 166.329 119.376 165.797 119.667 165.845Z" fill="#407BFF"/>
<path d="M117.876 166.957H117.924C118.311 166.618 118.989 165.604 118.795 165.217C118.747 165.121 118.65 165.024 118.408 165.072C118.215 165.121 118.069 165.217 117.973 165.362C117.634 165.894 117.779 166.908 117.779 166.908C117.827 166.908 117.827 166.957 117.876 166.957ZM118.553 165.217C118.602 165.217 118.65 165.266 118.65 165.266C118.747 165.507 118.311 166.28 117.973 166.667C117.924 166.377 117.924 165.749 118.166 165.411C118.263 165.314 118.36 165.217 118.505 165.217C118.505 165.217 118.505 165.217 118.553 165.217Z" fill="#407BFF"/>
<path d="M89.1739 57.2947L87.8187 58.744C87.3347 59.2271 86.8991 59.7102 86.4635 60.2416C85.5439 61.256 84.6727 62.2705 83.8015 63.285C82.9303 64.2995 82.1075 65.3623 81.3815 66.4251C80.9943 66.9565 80.6555 67.4879 80.3167 68.0676L79.8327 68.8889L79.7843 68.9855C79.7843 69.0338 79.7843 68.9372 79.7843 68.9372C79.7843 68.8889 79.7843 68.8889 79.7843 68.8406C79.7843 68.7923 79.7843 68.7923 79.7843 68.7923C79.7359 68.8889 79.7843 69.372 79.9779 69.9034C80.1231 70.4348 80.3651 70.9662 80.6555 71.5459C81.1879 72.7053 81.8655 73.8647 82.5915 74.9759C84.0435 77.2464 85.6407 79.5652 87.2863 81.7875L85.2051 83.7198C83.0271 81.7875 80.9943 79.7585 79.1067 77.4879C78.1871 76.3285 77.2675 75.1691 76.4447 73.8164C76.0575 73.1401 75.6703 72.4638 75.2831 71.6425C74.9443 70.8213 74.6055 69.9517 74.6055 68.6474C74.6055 68.3092 74.6539 67.9227 74.7507 67.5845C74.7991 67.3913 74.8475 67.1981 74.9443 66.9565L75.0895 66.6667L75.1379 66.5217L75.6703 65.4589C76.0091 64.7826 76.3963 64.1063 76.7835 63.4783C77.5579 62.1739 78.4291 60.9662 79.3003 59.7585C80.1715 58.5507 81.1395 57.4396 82.1075 56.3285C82.5915 55.7971 83.0755 55.2657 83.6079 54.7343C84.1403 54.2029 84.6243 53.6715 85.2051 53.1401L89.1739 57.2947Z" fill="#FFC3BD"/>
<path d="M85.9308 81.256L89.8028 81.1594L87.9152 85.6522C87.9152 85.6522 84.624 85.0242 84.7208 83.2367L85.9308 81.256Z" fill="#FFC3BD"/>
<path d="M92.3688 82.9952L90.6264 86.6184L87.916 85.6039L89.8036 81.1111L92.3688 82.9952Z" fill="#FFC3BD"/>
<path d="M86.512 51.1594C82.882 51.3044 77.2676 58.8406 77.2676 58.8406L83.1724 66.8599C83.1724 66.8599 87.3832 62.5121 89.9968 58.599C92.804 54.3961 90.9164 50.9662 86.512 51.1594Z" fill="#F2B705"/>
<path opacity="0.5" d="M86.512 51.1594C82.882 51.3044 77.2676 58.8406 77.2676 58.8406L83.1724 66.8599C83.1724 66.8599 87.3832 62.5121 89.9968 58.599C92.804 54.3961 90.9164 50.9662 86.512 51.1594Z" fill="white"/>
</g>
<defs>
<clipPath id="clip0_3771_808">
<rect width="242" height="180" fill="white" transform="translate(-20.5)"/>
</clipPath>
</defs>
</svg>
