<svg width="201" height="200" viewBox="0 0 201 200" fill="none" xmlns="http://www.w3.org/2000/svg">
<g clip-path="url(#clip0_3646_33430)">
<rect width="200" height="200" transform="translate(0.5)" fill="white"/>
<path d="M-18.5 167.407H220.5V167.55H-18.5" fill="#E0E0E0"/>
<path d="M162.041 172.471H145.597V172.566H162.041V172.471Z" fill="#E0E0E0"/>
<path d="M34.6057 172.566H25.3325V172.662H34.6057V172.566Z" fill="#E0E0E0"/>
<path d="M101.478 172.28H82.7405V172.375H101.478V172.28Z" fill="#E0E0E0"/>
<path d="M82.2146 170.56H73.8496V170.655H82.2146V170.56Z" fill="#E0E0E0"/>
<path d="M184.459 170.608H159.125V170.703H184.459V170.608Z" fill="#E0E0E0"/>
<path d="M94.7859 146.1H2.48412C1.00232 146.1 -0.240479 144.858 -0.240479 143.377V13.723C-0.240479 12.2421 1.00232 11 2.48412 11H94.7859C96.2677 11 97.5105 12.2421 97.5105 13.723V143.377C97.5105 144.906 96.3155 146.1 94.7859 146.1ZM2.48412 11.0955C1.05012 11.0955 -0.144878 12.2421 -0.144878 13.723V143.377C-0.144878 144.811 1.00232 146.005 2.48412 146.005H94.7859C96.2199 146.005 97.4149 144.858 97.4149 143.377V13.723C97.4149 12.2899 96.2677 11.0955 94.7859 11.0955H2.48412V11.0955Z" fill="#E0E0E0"/>
<path d="M198.177 146.1H105.875C104.394 146.1 103.151 144.858 103.151 143.377V13.723C103.151 12.2421 104.394 11 105.875 11H198.177C199.659 11 200.902 12.2421 200.902 13.723V143.377C200.902 144.906 199.707 146.1 198.177 146.1ZM105.875 11.0955C104.441 11.0955 103.246 12.2421 103.246 13.723V143.377C103.246 144.811 104.394 146.005 105.875 146.005H198.177C199.611 146.005 200.806 144.858 200.806 143.377V13.723C200.806 12.2899 199.659 11.0955 198.177 11.0955H105.875V11.0955Z" fill="#E0E0E0"/>
<path d="M191.485 107.644C185.606 98.7101 190.96 89.0601 190.099 79.1234C189.191 69.1867 179.727 66.9892 181.543 58.5813C183.598 48.7879 178.101 39.4245 171.84 39.4245C165.578 39.4245 160.033 48.8357 162.136 58.5813C163.905 67.037 154.44 69.1867 153.58 79.1234C152.672 89.0601 158.073 98.7101 152.194 107.644C146.314 116.577 147.844 128.425 151.19 134.301C152.098 135.925 153.198 137.358 154.345 138.6C163.761 148.776 180.061 148.776 189.478 138.6C190.673 137.31 191.724 135.877 192.633 134.301C195.835 128.425 197.365 116.577 191.485 107.644Z" fill="#E0E0E0"/>
<path d="M174.755 167.407H168.828V117.389C168.828 115.765 170.167 114.427 171.792 114.427C173.417 114.427 174.755 115.765 174.755 117.389V167.407Z" fill="#F0F0F0"/>
<path d="M134.412 167.407H126.334V117.389C126.334 115.144 128.15 113.328 130.397 113.328C132.644 113.328 134.46 115.144 134.46 117.389V167.407H134.412Z" fill="#E0E0E0"/>
<path d="M130.349 153.935C144.13 153.935 155.301 142.77 155.301 128.998C155.301 115.225 144.13 104.061 130.349 104.061C116.569 104.061 105.398 115.225 105.398 128.998C105.398 142.77 116.569 153.935 130.349 153.935Z" fill="#F0F0F0"/>
<path d="M159.682 121.535C160.993 116.26 157.778 110.922 152.5 109.612C147.222 108.301 141.881 111.515 140.569 116.79C139.258 122.065 142.474 127.403 147.752 128.713C153.029 130.024 158.371 126.81 159.682 121.535Z" fill="#F0F0F0"/>
<path d="M115.988 114.271C116.506 111.094 114.349 108.099 111.17 107.581C107.991 107.064 104.994 109.22 104.476 112.397C103.958 115.574 106.116 118.569 109.294 119.086C112.473 119.604 115.47 117.448 115.988 114.271Z" fill="#F0F0F0"/>
<path d="M116.535 114.379C118.779 114.379 120.598 112.561 120.598 110.319C120.598 108.076 118.779 106.258 116.535 106.258C114.291 106.258 112.472 108.076 112.472 110.319C112.472 112.561 114.291 114.379 116.535 114.379Z" fill="#F0F0F0"/>
<path d="M79.012 137.549C74.8534 138.17 71.2684 139.651 68.1614 141.705C68.1136 137.931 67.4444 134.348 65.6758 131.434C62.9512 134.062 60.8002 137.501 58.9838 141.132C58.3146 134.253 56.4982 127.565 52.483 123.313C46.4602 127.087 43.3532 133.393 41.9192 140.033C39.5292 135.781 36.231 131.816 31.6422 128.95C27.9616 132.82 26.8144 138.17 26.91 143.664C22.7514 138.791 18.1148 135.017 13.5738 134.587C12.4744 142.279 14.8166 149.54 17.828 155.273C21.7954 162.773 29.6346 167.407 38.143 167.407H57.7888C66.1538 167.407 73.993 162.964 77.9126 155.559C80.3982 150.878 81.5932 144.858 79.012 137.549Z" fill="#E0E0E0"/>
<path d="M73.4194 38.3258C75.8572 31.2077 73.8974 26.1438 67.9702 26.1438C64.2418 26.1438 59.653 28.1502 55.1598 31.3988C54.634 29.5356 53.2 28.4369 50.9056 28.4369C46.8426 28.4369 41.2978 31.8765 36.9002 36.7015C35.8486 35.6027 34.319 34.9817 32.3592 34.8384C28.4874 34.5995 23.803 36.606 19.74 39.8067C19.4054 39.2812 18.784 38.9468 17.9236 38.899C15.677 38.7557 12.6656 40.7622 11.1838 43.3419C11.0882 43.4852 10.9926 43.6763 10.9448 43.8196H15.5814H19.262H32.0724H38.382H43.3054H50.81H52.1962H70.886H74.5666C74.7578 41.5265 74.3754 39.6634 73.4194 38.3258Z" fill="#F0F0F0"/>
<path d="M73.6106 81.4642C74.8056 77.9769 73.8496 75.5405 70.9338 75.5405C69.1174 75.5405 66.8708 76.4959 64.672 78.0724C64.433 77.1647 63.716 76.6392 62.6166 76.6392C60.6568 76.6392 57.9322 78.3113 55.7812 80.6521C55.2554 80.1266 54.5384 79.7922 53.5346 79.7444C51.6226 79.6489 49.3282 80.6043 47.3684 82.1808C47.1772 81.942 46.8904 81.7509 46.508 81.7509C45.4086 81.7031 43.9268 82.6586 43.2098 83.9006C43.162 83.9962 43.1142 84.044 43.0664 84.1395H45.313H47.1294H53.3912H56.4504H58.8404H62.521H63.1902H72.32H74.1364C74.2798 83.0407 74.0886 82.0853 73.6106 81.4642Z" fill="#F0F0F0"/>
<path d="M145.358 55.1894C145.119 55.1417 144.88 55.1417 144.641 55.1417C144.88 51.6543 143.542 49.4567 140.722 49.4567C138.666 49.4567 136.181 50.6033 133.6 52.5619C134.317 45.826 131.974 41.4787 126.669 41.4787C122.414 41.4787 116.965 44.3451 111.612 48.979C111.134 46.3515 109.556 44.775 106.927 44.775C102.291 44.775 95.6464 49.6478 90.3884 56.5748C89.2412 55.0461 87.5204 54.0907 85.2738 53.9473C80.8284 53.6129 75.3314 56.4315 70.4558 61.0177C70.0734 60.2533 69.4042 59.7756 68.4482 59.68C66.0104 59.4889 62.6644 62.0209 60.7524 65.4127H66.3928H70.2168H84.9392H91.8224H97.9886H106.736H123.227H129.632H131.927H141.056H149.278C151.333 60.2533 149.66 55.8105 145.358 55.1894Z" fill="#F0F0F0"/>
<path d="M101 189C152.188 189 193.684 186.583 193.684 183.602C193.684 180.62 152.188 178.203 101 178.203C49.812 178.203 8.31592 180.62 8.31592 183.602C8.31592 186.583 49.812 189 101 189Z" fill="#F5F5F5"/>
<path d="M4.87427 56.6704L113.81 72.3398L128.437 87.1015L4.87427 56.6704Z" fill="#407BFF"/>
<path opacity="0.6" d="M4.87427 56.6704L113.81 72.3398L128.437 87.1015L4.87427 56.6704Z" fill="#F2B705"/>
<path d="M4.87427 56.6704L113.81 72.3398L108.744 93.6941L4.87427 56.6704Z" fill="#F2B705"/>
<path opacity="0.2" d="M4.87427 56.6704L113.81 72.3398L108.744 93.6941L4.87427 56.6704Z" fill="black"/>
<path d="M106.545 31.9721L112.854 61.591C113.189 63.2153 112.185 64.7917 110.56 65.1262L54.1083 77.1648C52.4831 77.4992 50.9057 76.496 50.5711 74.8717L44.2615 45.2528C44.0703 44.3929 44.2615 43.5808 44.7395 42.912C45.1697 42.3387 45.7911 41.861 46.5559 41.7177L103.008 29.679C103.772 29.5357 104.537 29.679 105.159 30.0612C105.828 30.4434 106.354 31.16 106.545 31.9721Z" fill="#F2B705"/>
<path opacity="0.4" d="M106.545 31.9721L112.854 61.591C113.189 63.2153 112.185 64.7917 110.56 65.1262L54.1083 77.1648C52.4831 77.4992 50.9057 76.496 50.5711 74.8717L44.2615 45.2528C44.0703 44.3929 44.2615 43.5808 44.7395 42.912C45.1697 42.3387 45.7911 41.861 46.5559 41.7177L103.008 29.679C103.772 29.5357 104.537 29.679 105.159 30.0612C105.828 30.4434 106.354 31.16 106.545 31.9721Z" fill="black"/>
<path d="M105.159 30.0612L86.2777 53.1831C82.6927 57.5781 76.4787 58.9157 71.4119 56.336L44.7395 42.912C45.1697 42.3387 45.7911 41.861 46.5559 41.7177L103.008 29.679C103.773 29.5357 104.537 29.679 105.159 30.0612Z" fill="#F2B705"/>
<path d="M4.87427 56.6704L94.7383 78.0247L108.744 93.6941L4.87427 56.6704Z" fill="#407BFF"/>
<path opacity="0.6" d="M4.87427 56.6704L94.7383 78.0247L108.744 93.6941L4.87427 56.6704Z" fill="#F2B705"/>
<path d="M37.6401 77.2351L37.3984 77.6472L47.379 83.4913L47.6206 83.0791L37.6401 77.2351Z" fill="#F2B705"/>
<path d="M52.0378 85.7006L51.7962 86.1128L55.3842 88.2138L55.6259 87.8016L52.0378 85.7006Z" fill="#F2B705"/>
<path d="M4.87427 56.6704L94.7383 78.0247L77.2435 99.0923L4.87427 56.6704Z" fill="#F2B705"/>
<path d="M64.0001 85.9587L66.8417 80.0491L67.9729 80.5931L68.4834 85.9733L67.884 85.6851L72.3629 82.704L73.4857 83.2439L70.661 89.1616L69.3778 88.5446L71.2651 84.598L71.5015 84.7116L67.9307 87.0795L67.3144 86.7832L66.892 82.4952L67.1791 82.6332L65.2833 86.5757L64.0001 85.9587Z" fill="#533E00"/>
<path d="M71.4991 89.5645L74.3643 83.6059L76.8811 84.8161C77.4016 85.0664 77.8078 85.37 78.0998 85.727C78.3945 86.0783 78.5665 86.465 78.6158 86.8869C78.6652 87.3089 78.5821 87.7441 78.3665 88.1924C78.1537 88.635 77.867 88.9688 77.5066 89.1938C77.1462 89.4187 76.7354 89.5286 76.2743 89.5235C75.8159 89.5127 75.3264 89.3821 74.8059 89.1318L73.0366 88.2811L73.9335 87.9473L72.8447 90.2115L71.4991 89.5645ZM73.8598 88.1005L73.5769 87.1575L75.2714 87.9723C75.6867 88.172 76.0405 88.2303 76.3327 88.1472C76.6249 88.0641 76.8488 87.8608 77.0043 87.5374C77.1626 87.2082 77.1829 86.9036 77.0653 86.6235C76.9478 86.3434 76.6813 86.1035 76.266 85.9038L74.5715 85.089L75.4848 84.7211L73.8598 88.1005Z" fill="#533E00"/>
<path d="M125.091 106.688C124.996 106.688 124.852 106.688 124.757 106.64L110.082 100.812C109.604 100.621 109.365 100.048 109.556 99.57C109.747 99.0923 110.321 98.8535 110.799 99.0445L125.426 104.825C125.904 105.016 126.143 105.589 125.952 106.067C125.808 106.449 125.474 106.688 125.091 106.688Z" fill="#F2B705"/>
<path opacity="0.3" d="M125.091 106.688C124.996 106.688 124.852 106.688 124.757 106.64L110.082 100.812C109.604 100.621 109.365 100.048 109.556 99.57C109.747 99.0923 110.321 98.8535 110.799 99.0445L125.426 104.825C125.904 105.016 126.143 105.589 125.952 106.067C125.808 106.449 125.474 106.688 125.091 106.688Z" fill="#F2B705"/>
<path d="M124.231 98.2802C124.135 98.2802 123.992 98.2802 123.896 98.2324L116.009 95.1272C115.531 94.9361 115.292 94.3629 115.483 93.8851C115.675 93.4074 116.248 93.1685 116.726 93.3596L124.613 96.4648C125.091 96.6559 125.33 97.2292 125.139 97.7069C124.948 98.0891 124.613 98.2802 124.231 98.2802Z" fill="#F2B705"/>
<path opacity="0.5" d="M124.231 98.2802C124.135 98.2802 123.992 98.2802 123.896 98.2324L116.009 95.1272C115.531 94.9361 115.292 94.3629 115.483 93.8851C115.675 93.4074 116.248 93.1685 116.726 93.3596L124.613 96.4648C125.091 96.6559 125.33 97.2292 125.139 97.7069C124.948 98.0891 124.613 98.2802 124.231 98.2802Z" fill="white"/>
<path d="M107.788 106.545C107.692 106.545 107.549 106.545 107.453 106.497L93.1609 100.812C92.6829 100.621 92.4439 100.048 92.6351 99.57C92.8263 99.0923 93.3999 98.8535 93.8779 99.0445L108.17 104.682C108.648 104.873 108.887 105.446 108.696 105.924C108.505 106.306 108.17 106.545 107.788 106.545Z" fill="#F2B705"/>
<path opacity="0.3" d="M107.788 106.545C107.692 106.545 107.549 106.545 107.453 106.497L93.1609 100.812C92.6829 100.621 92.4439 100.048 92.6351 99.57C92.8263 99.0923 93.3999 98.8535 93.8779 99.0445L108.17 104.682C108.648 104.873 108.887 105.446 108.696 105.924C108.505 106.306 108.17 106.545 107.788 106.545Z" fill="#F2B705"/>
<path d="M159.459 63.5019C160.702 65.9861 161.897 68.4225 162.996 71.0022C164.096 73.5341 165.147 76.1138 166.008 78.7891L166.342 79.7923C166.39 79.9834 166.486 80.27 166.534 80.4611C166.581 80.7 166.629 80.8911 166.629 81.13C166.773 81.9421 166.773 82.7064 166.773 83.4708C166.773 84.9517 166.677 86.3372 166.581 87.7226C166.295 90.4934 165.864 93.2164 165.291 95.9394L162.662 95.6528C162.614 92.9775 162.614 90.2545 162.518 87.5792C162.471 86.2416 162.375 84.9517 162.279 83.7097C162.232 83.0886 162.088 82.4676 161.993 81.9899C161.945 81.8465 161.945 81.751 161.897 81.6554C161.849 81.5599 161.849 81.5121 161.801 81.3688L161.419 80.4611C160.415 78.0247 159.316 75.5884 158.169 73.1997L154.679 65.9383L159.459 63.5019Z" fill="#E4897B"/>
<path d="M162.71 94.8406L161.467 97.1337L165.387 98.2325C165.387 98.2325 166.151 96.3694 165.243 94.9362L162.71 94.8406Z" fill="#E4897B"/>
<path d="M159.985 100.43L163.618 100.717L165.434 98.1847L161.515 97.1337L159.985 100.43Z" fill="#E4897B"/>
<path d="M143.016 46.9727C142.968 47.2593 142.777 47.4504 142.586 47.4026C142.395 47.3549 142.299 47.116 142.347 46.8294C142.395 46.5427 142.586 46.3516 142.777 46.3994C142.968 46.4472 143.064 46.6861 143.016 46.9727Z" fill="#263238"/>
<path d="M142.777 47.4504C142.777 47.4504 141.821 48.9314 140.961 49.5524C141.343 50.1257 142.251 50.0779 142.251 50.0779L142.777 47.4504Z" fill="#DE5753"/>
<path d="M144.354 45.6351C144.307 45.6351 144.259 45.6351 144.211 45.5873C143.733 45.0618 143.112 45.1573 143.112 45.1573C143.016 45.1573 142.92 45.1096 142.92 45.014C142.92 44.9185 142.968 44.8229 143.064 44.8229C143.112 44.8229 143.876 44.6796 144.498 45.3962C144.546 45.444 144.546 45.5873 144.498 45.6351C144.402 45.6351 144.354 45.6351 144.354 45.6351Z" fill="#263238"/>
<path d="M150.903 50.89C150.377 53.4697 149.899 58.1514 151.716 59.8712C151.716 59.8712 150.999 62.4987 146.219 62.4987C140.961 62.4987 143.733 59.8712 143.733 59.8712C146.601 59.2024 146.505 57.0527 146.027 55.0462L150.903 50.89Z" fill="#E4897B"/>
<path d="M152.433 61.4955C152.815 60.2534 153.245 58.8202 152.385 58.3425C151.429 57.8648 146.219 57.3393 144.45 58.2947C142.681 59.2024 143.159 61.7821 143.159 61.7821L152.433 61.4955Z" fill="#263238"/>
<path d="M163.427 180.64C163.044 180.64 162.71 180.592 162.566 180.401C162.519 180.305 162.471 180.21 162.566 180.019C162.614 179.923 162.71 179.876 162.805 179.828C163.331 179.732 164.287 180.353 164.335 180.401C164.383 180.401 164.383 180.449 164.383 180.497C164.383 180.544 164.335 180.544 164.335 180.544C164.192 180.592 163.809 180.64 163.427 180.64ZM162.997 179.971C162.949 179.971 162.949 179.971 162.901 179.971C162.853 179.971 162.758 180.019 162.758 180.067C162.662 180.21 162.71 180.258 162.758 180.258C162.901 180.449 163.618 180.449 164.144 180.353C163.809 180.21 163.331 179.971 162.997 179.971Z" fill="#407BFF"/>
<path d="M164.335 180.544C163.952 180.353 163.235 179.589 163.283 179.159C163.283 179.111 163.331 178.968 163.57 178.92C163.713 178.92 163.809 178.92 163.905 179.016C164.335 179.35 164.383 180.353 164.383 180.401C164.43 180.449 164.43 180.497 164.335 180.544C164.383 180.544 164.383 180.544 164.335 180.544ZM163.618 179.111C163.474 179.111 163.474 179.159 163.474 179.207C163.427 179.446 163.857 180.019 164.239 180.306C164.191 180.019 164.096 179.398 163.809 179.207C163.761 179.111 163.713 179.111 163.618 179.111Z" fill="#407BFF"/>
<path d="M142.347 180.64C141.917 180.64 141.439 180.592 141.295 180.353C141.248 180.305 141.2 180.162 141.295 179.971C141.343 179.876 141.439 179.828 141.582 179.78C142.156 179.637 143.399 180.305 143.446 180.353C143.494 180.353 143.494 180.401 143.494 180.449C143.494 180.497 143.446 180.497 143.446 180.497C143.207 180.592 142.777 180.64 142.347 180.64ZM141.821 179.923C141.773 179.923 141.726 179.923 141.678 179.923C141.582 179.923 141.534 179.971 141.534 180.019C141.487 180.114 141.487 180.162 141.534 180.21C141.678 180.449 142.586 180.449 143.255 180.353C142.825 180.258 142.204 179.923 141.821 179.923Z" fill="#407BFF"/>
<path d="M143.399 180.544C142.921 180.353 142.108 179.589 142.156 179.207C142.156 179.111 142.251 179.016 142.443 178.968C142.634 178.968 142.777 179.016 142.921 179.111C143.351 179.493 143.446 180.401 143.446 180.449C143.446 180.497 143.446 180.497 143.399 180.544C143.446 180.544 143.446 180.544 143.399 180.544ZM142.586 179.111H142.538C142.395 179.111 142.395 179.207 142.395 179.207C142.347 179.446 142.921 180.019 143.351 180.305C143.303 180.019 143.16 179.446 142.873 179.207C142.777 179.159 142.682 179.111 142.586 179.111Z" fill="#407BFF"/>
<path d="M147.27 180.449H143.781L143.398 172.328H146.936L147.27 180.449Z" fill="#E4897B"/>
<path d="M168.35 180.449H164.861L163.092 172.328H166.582L168.35 180.449Z" fill="#E4897B"/>
<path d="M164.622 180.019H168.589C168.733 180.019 168.876 180.114 168.876 180.258L169.593 183.363C169.689 183.697 169.402 183.984 169.067 183.984C167.681 183.984 167.012 183.888 165.291 183.888C164.239 183.888 162.041 183.984 160.559 183.984C159.125 183.984 158.886 182.551 159.507 182.407C162.232 181.834 163.236 181.022 164.096 180.21C164.192 180.114 164.383 180.019 164.622 180.019Z" fill="#263238"/>
<path d="M143.781 180.019H147.605C147.748 180.019 147.892 180.114 147.892 180.258L148.609 183.363C148.704 183.697 148.417 183.984 148.083 183.984C146.697 183.984 144.689 183.888 142.968 183.888C140.913 183.888 139.192 183.984 136.802 183.984C135.368 183.984 134.938 182.551 135.559 182.407C138.284 181.786 140.531 181.739 142.921 180.258C143.207 180.162 143.494 180.019 143.781 180.019Z" fill="#263238"/>
<path d="M142.108 66.0339C139.144 65.795 136.276 65.4128 133.361 64.8873C131.927 64.6007 130.445 64.3141 129.011 63.8841C127.577 63.5019 126.095 63.072 124.613 62.451C124.231 62.3076 123.896 62.1165 123.514 61.9732C123.036 61.7344 122.653 61.4955 122.319 61.2566C121.65 60.7789 121.028 60.349 120.455 59.8712C119.307 58.9158 118.208 57.9603 117.109 56.9571C114.958 54.9985 112.95 52.9442 110.99 50.7945L112.759 48.8358L119.69 53.8041C120.837 54.6163 121.984 55.4284 123.131 56.1928C123.705 56.5749 124.279 56.9094 124.804 57.2438C125.091 57.3871 125.33 57.5304 125.474 57.5782C125.76 57.6737 126.047 57.817 126.334 57.9126C128.772 58.7247 131.496 59.2502 134.221 59.6802C136.946 60.1101 139.766 60.4445 142.49 60.7311L142.108 66.0339Z" fill="#E4897B"/>
<path d="M157.977 60.6356C161.276 61.4 164.574 71.0022 164.574 71.0022L157.786 75.875C157.786 75.875 155.874 71.3844 154.01 67.4671C152.146 63.4064 154.631 59.8712 157.977 60.6356Z" fill="#F2B705"/>
<path d="M156.066 65.8906L154.727 68.9002C156.113 71.9099 157.404 74.8718 157.739 75.6839C157.691 72.1487 157.022 67.7059 156.066 65.8906Z" fill="#407BFF"/>
<path opacity="0.6" d="M156.066 65.8906L154.727 68.9002C156.113 71.9099 157.404 74.8718 157.739 75.6839C157.691 72.1487 157.022 67.7059 156.066 65.8906Z" fill="#916E03"/>
<path d="M138.332 60.8267C138.332 60.8267 134.603 65.0307 138.141 91.1622C143.781 91.1622 154.154 91.1622 156.926 91.1622C157.069 88.2958 155.253 74.203 158.025 60.6356C158.025 60.6356 154.823 59.9668 151.716 59.8235C149.326 59.7279 145.836 59.6324 143.733 59.8235C140.913 60.1101 138.332 60.8267 138.332 60.8267Z" fill="#F2B705"/>
<path d="M136.945 65.8906C136.802 66.8938 136.706 68.0403 136.659 69.4257C138.188 68.948 140.148 68.1836 141.869 66.9893L136.945 65.8906Z" fill="#407BFF"/>
<path opacity="0.6" d="M136.945 65.8906C136.802 66.8938 136.706 68.0403 136.659 69.4257C138.188 68.948 140.148 68.1836 141.869 66.9893L136.945 65.8906Z" fill="#916E03"/>
<path d="M144.976 66.4161C142.443 68.6614 132.883 68.4225 132.883 68.4225L132.548 59.1546C132.548 59.1546 137.997 59.9668 142.347 59.8712C147.701 59.7757 147.701 63.9797 144.976 66.4161Z" fill="#F2B705"/>
<path d="M112.854 48.8836L110.464 46.065L107.883 48.9314C107.883 48.9314 109.461 51.6066 111.994 51.1767L112.854 48.8836Z" fill="#E4897B"/>
<path d="M107.023 42.7687L106.115 46.4472L107.835 48.9313L110.417 46.065L107.023 42.7687Z" fill="#E4897B"/>
<path d="M143.446 172.328L143.59 176.531H147.127L146.936 172.328H143.446Z" fill="#CE6F64"/>
<path d="M166.582 172.328H163.092L164 176.531H167.538L166.582 172.328Z" fill="#CE6F64"/>
<path d="M145.55 43.4853C142.395 42.0521 141.391 35.6984 150.473 37.2749C150.473 37.2749 149.087 38.8036 151.859 39.7591C154.632 40.6667 152.337 46.6383 145.55 43.4853Z" fill="#263238"/>
<path d="M152.385 48.2625C151.477 51.6066 151.142 53.6608 149.039 55.0462C145.932 57.1482 142.012 54.7118 141.917 51.1767C141.821 47.9759 143.303 43.0076 146.936 42.3388C150.473 41.6699 153.293 44.9185 152.385 48.2625Z" fill="#E4897B"/>
<path d="M150.33 38.9469C152.481 40.1412 155.396 40.8578 155.11 42.5776C154.775 44.6318 156.878 43.342 156.352 46.4472C156.018 48.4536 152.289 54.5685 149.66 54.2819C145.693 53.8519 146.219 47.7848 146.219 44.6318C146.219 42.7687 146.123 36.6061 150.33 38.9469Z" fill="#263238"/>
<path d="M145.741 41.67C144.785 41.9088 143.494 47.4026 147.223 47.9281C151.477 48.4536 145.741 41.67 145.741 41.67Z" fill="#263238"/>
<path d="M145.836 43.6286C144.641 43.7242 142.012 42.3388 142.347 40.189C142.347 40.189 144.02 42.6732 145.836 43.6286Z" fill="#263238"/>
<path d="M147.557 48.3103C147.175 49.1224 146.506 49.7913 145.836 50.1734C144.833 50.6989 144.259 49.9346 144.498 48.9314C144.689 48.0237 145.454 46.6383 146.506 46.5427C147.557 46.3994 147.987 47.3549 147.557 48.3103Z" fill="#E4897B"/>
<path d="M152.815 44.4408C153.532 44.0586 155.157 43.2464 155.587 40.9534C155.587 40.9534 157.165 45.3484 152.815 44.4408Z" fill="#263238"/>
<path d="M156.83 44.393C156.496 44.2019 155.683 43.7242 154.536 44.1541C154.536 44.1541 156.018 42.2432 156.83 44.393Z" fill="#263238"/>
<path d="M144.785 91.1622C144.785 91.1622 148.752 117.962 150.951 128.042C153.341 139.03 162.375 175.719 162.375 175.719H168.828C168.828 175.719 162.853 139.938 161.515 129.046C160.033 117.198 156.926 91.1622 156.926 91.1622H144.785Z" fill="#407BFF"/>
<path opacity="0.5" d="M144.785 91.1622C144.785 91.1622 148.752 117.962 150.951 128.042C153.341 139.03 162.375 175.719 162.375 175.719H168.828C168.828 175.719 162.853 139.938 161.515 129.046C160.033 117.198 156.926 91.1622 156.926 91.1622H144.785Z" fill="white"/>
<path d="M161.324 173.331C161.276 173.331 161.993 175.815 161.993 175.815H169.211L169.067 173.617L161.324 173.331Z" fill="#407BFF"/>
<path opacity="0.1" d="M161.324 173.331C161.276 173.331 161.993 175.815 161.993 175.815H169.211L169.067 173.617L161.324 173.331Z" fill="black"/>
<path d="M147.27 100.717C151.859 101.624 151.381 118.775 150.855 127.613C149.517 121.354 147.605 109.363 146.266 100.812C146.553 100.717 146.888 100.669 147.27 100.717Z" fill="#407BFF"/>
<path opacity="0.4" d="M147.27 100.717C151.859 101.624 151.381 118.775 150.855 127.613C149.517 121.354 147.605 109.363 146.266 100.812C146.553 100.717 146.888 100.669 147.27 100.717Z" fill="white"/>
<path d="M138.093 91.1622C138.093 91.1622 137.615 117.389 137.997 128.09C138.379 139.221 142.299 175.672 142.299 175.672H148.226C148.226 175.672 148.465 139.89 148.704 128.95C148.991 117.055 150.425 91.1622 150.425 91.1622H138.093V91.1622Z" fill="#407BFF"/>
<path opacity="0.5" d="M138.093 91.1622C138.093 91.1622 137.615 117.389 137.997 128.09C138.379 139.221 142.299 175.672 142.299 175.672H148.226C148.226 175.672 148.465 139.89 148.704 128.95C148.991 117.055 150.425 91.1622 150.425 91.1622H138.093V91.1622Z" fill="white"/>
<path d="M143.542 171.42C143.494 171.42 143.494 171.42 143.494 171.372C142.442 161.292 139.957 136.88 139.67 128.138C139.335 119.205 139.622 99.1402 139.718 93.2164C139.718 93.1686 139.766 93.1686 139.766 93.1686C139.813 93.1686 139.813 93.2164 139.813 93.2164C139.718 99.1402 139.431 119.205 139.766 128.138C140.1 136.88 142.538 161.292 143.59 171.372C143.59 171.372 143.59 171.42 143.542 171.42Z" fill="#407BFF"/>
<path opacity="0.4" d="M143.542 171.42C143.494 171.42 143.494 171.42 143.494 171.372C142.442 161.292 139.957 136.88 139.67 128.138C139.335 119.205 139.622 99.1402 139.718 93.2164C139.718 93.1686 139.766 93.1686 139.766 93.1686C139.813 93.1686 139.813 93.2164 139.813 93.2164C139.718 99.1402 139.431 119.205 139.766 128.138C140.1 136.88 142.538 161.292 143.59 171.372C143.59 171.372 143.59 171.42 143.542 171.42Z" fill="white"/>
<path d="M141.152 173.331C141.104 173.331 141.487 175.815 141.487 175.815H148.704L148.896 173.617L141.152 173.331Z" fill="#407BFF"/>
<path opacity="0.1" d="M141.152 173.331C141.104 173.331 141.487 175.815 141.487 175.815H148.704L148.896 173.617L141.152 173.331Z" fill="black"/>
</g>
<defs>
<clipPath id="clip0_3646_33430">
<rect width="200" height="200" fill="white" transform="translate(0.5)"/>
</clipPath>
</defs>
</svg>
