<svg width="201" height="200" viewBox="0 0 201 200" fill="none" xmlns="http://www.w3.org/2000/svg">
<g clip-path="url(#clip0_3646_34832)">
<rect width="200" height="200" transform="translate(0.5)" fill="white"/>
<g clip-path="url(#clip1_3646_34832)">
<path d="M221.5 165.164H-20.5V165.261H221.5V165.164Z" fill="#EBEBEB"/>
<path d="M197.251 172.942H181.23V173.039H197.251V172.942Z" fill="#EBEBEB"/>
<path d="M125.377 173.039H121.166V173.135H125.377V173.039Z" fill="#EBEBEB"/>
<path d="M180.698 168.498H150.98V168.594H180.698V168.498Z" fill="#EBEBEB"/>
<path d="M88.4964 171.348H82.3496V171.444H88.4964V171.348Z" fill="#EBEBEB"/>
<path d="M77.9948 171.348H60.1836V171.444H77.9948V171.348Z" fill="#EBEBEB"/>
<path d="M17.2038 169.271H4.91016V169.367H17.2038V169.271Z" fill="#EBEBEB"/>
<path d="M56.359 169.271H20.1074V169.367H56.359V169.271Z" fill="#EBEBEB"/>
<path d="M94.2075 143.618H0.747082C-0.753318 143.618 -2.01172 142.362 -2.01172 140.865V9.75362C-2.01172 8.25604 -0.753318 7 0.747082 7H94.2075C95.7079 7 96.9663 8.25604 96.9663 9.75362V140.865C96.9663 142.411 95.7563 143.618 94.2075 143.618ZM0.747082 7.09662C-0.704918 7.09662 -1.91492 8.25604 -1.91492 9.75362V140.865C-1.91492 142.314 -0.753318 143.522 0.747082 143.522H94.2075C95.6595 143.522 96.8695 142.362 96.8695 140.865V9.75362C96.8695 8.30435 95.7079 7.09662 94.2075 7.09662H0.747082V7.09662Z" fill="#EBEBEB"/>
<path d="M198.897 143.618H105.437C103.936 143.618 102.678 142.362 102.678 140.865V9.75362C102.678 8.25604 103.936 7 105.437 7H198.897C200.397 7 201.656 8.25604 201.656 9.75362V140.865C201.656 142.411 200.446 143.618 198.897 143.618ZM105.437 7.09662C103.985 7.09662 102.775 8.25604 102.775 9.75362V140.865C102.775 142.314 103.936 143.522 105.437 143.522H198.897C200.349 143.522 201.559 142.362 201.559 140.865V9.75362C201.559 8.30435 200.397 7.09662 198.897 7.09662H105.437V7.09662Z" fill="#EBEBEB"/>
<path d="M36.8549 39.3672H36.1289V165.164H36.8549V39.3672Z" fill="#F0F0F0"/>
<path d="M164.922 39.3672H36.8555V165.164H164.922V39.3672Z" fill="#F5F5F5"/>
<path d="M98.0156 165.183L98.0156 42.2361L42.5008 42.2361L42.5008 165.183H98.0156Z" fill="#FAFAFA"/>
<path d="M50.2617 165.164L68.0729 42.2657H72.8161L55.0049 165.164H50.2617Z" fill="white"/>
<path d="M57.9082 165.164L75.671 42.2657H86.2706L68.5078 165.164H57.9082Z" fill="white"/>
<path d="M159.178 165.198L159.178 42.2511L103.663 42.2511L103.663 165.198H159.178Z" fill="#FAFAFA"/>
<path d="M112.746 165.164L130.557 42.2657H141.254L123.442 165.164H112.746Z" fill="white"/>
<path d="M126.346 165.164L144.157 42.2657H154.757L136.945 165.164H126.346Z" fill="white"/>
<path d="M28.3842 43.2319H4.47461V84.6329H28.3842V43.2319Z" fill="#E6E6E6"/>
<path d="M29.8354 43.2319H5.92578V84.6329H29.8354V43.2319Z" fill="#F5F5F5"/>
<path d="M27.2246 81.7115L27.2246 46.2043H8.5906L8.5906 81.7115H27.2246Z" fill="#FAFAFA"/>
<path d="M13.4277 81.686L19.0421 46.1788H22.3333L16.7189 81.686H13.4277Z" fill="white"/>
<path d="M27.2383 81.6986L27.2383 46.1914H26.1251L26.1251 81.6986H27.2383Z" fill="#E6E6E6"/>
<path d="M28.7707 71.058H7.03906V75.0193H28.7707V71.058Z" fill="#F5F5F5"/>
<path d="M195.074 43.2319H171.164V84.6329H195.074V43.2319Z" fill="#E6E6E6"/>
<path d="M196.525 43.2319H172.615V84.6329H196.525V43.2319Z" fill="#F5F5F5"/>
<path d="M193.896 81.6803V46.1731H175.262V81.6803H193.896Z" fill="#FAFAFA"/>
<path d="M180.117 81.686L185.732 46.1788H189.023L183.408 81.686H180.117Z" fill="white"/>
<path d="M193.91 81.7157V46.2084H192.797V81.7157H193.91Z" fill="#E6E6E6"/>
<path d="M195.413 71.058H173.682V75.0193H195.413V71.058Z" fill="#F5F5F5"/>
<path d="M111.535 31.5411L111.1 32.2174H89.4648V19.2705L111.535 31.5411Z" fill="#EBEBEB"/>
<path d="M90.2876 31.5411H111.535L110.712 19.2705H89.4648L90.2876 31.5411Z" fill="#FAFAFA"/>
<path d="M75.3321 31.5411L74.8481 32.2174H53.2617V19.2705L75.3321 31.5411Z" fill="#EBEBEB"/>
<path d="M54.0845 31.5411H75.3321L74.4609 19.2705H53.2617L54.0845 31.5411Z" fill="#FAFAFA"/>
<path d="M147.738 31.5411L147.303 32.2174H125.668V19.2705L147.738 31.5411Z" fill="#EBEBEB"/>
<path d="M126.539 31.5411H147.738L146.916 19.2705H125.668L126.539 31.5411Z" fill="#FAFAFA"/>
<path d="M100.5 187C152.331 187 194.348 184.556 194.348 181.541C194.348 178.526 152.331 176.082 100.5 176.082C48.6693 176.082 6.65234 178.526 6.65234 181.541C6.65234 184.556 48.6693 187 100.5 187Z" fill="#F5F5F5"/>
<path d="M23.0603 91.2512C22.3343 91.2512 21.7051 91.8309 21.7051 92.6039V181.541H24.4155V92.6039C24.4155 91.8309 23.7863 91.2512 23.0603 91.2512Z" fill="#263238"/>
<path d="M177.941 91.2512C177.215 91.2512 176.586 91.8309 176.586 92.6039V181.541H179.296V92.6039C179.296 91.8309 178.667 91.2512 177.941 91.2512Z" fill="#263238"/>
<path d="M146.77 107.29C148.368 109.319 144.544 110.623 142.318 111.541C139.607 112.266 137.042 101.831 119.037 98.6425C121.699 94.8261 124.264 93.8599 124.264 93.8599C127.604 93.2802 139.801 98.5459 146.77 107.29Z" fill="#F2B705"/>
<path d="M132.735 94.971C131.718 96.8068 148.949 107 142.318 111.541C142.318 111.541 149.578 110.043 150.304 105.502C150.062 100.43 135.59 92.1208 139.414 89.657" fill="#C29204"/>
<path opacity="0.2" d="M132.735 94.971C131.718 96.8068 148.949 107 142.318 111.541C142.318 111.541 149.578 110.043 150.304 105.502C150.062 100.43 135.59 92.1208 139.414 89.657" fill="#C29204"/>
<path d="M176.585 95.9855C171.309 92.7005 151.562 88.3527 139.365 89.6087C135.493 90.43 132.734 94.971 132.734 94.971C148.803 94.6329 171.019 99.3672 176.585 105.019C176.585 99.5604 176.585 95.9855 176.585 95.9855Z" fill="#F2B705"/>
<path d="M54.9557 96.6618C53.3585 94.6329 56.2625 93.9565 58.4889 93.0387C61.1993 92.314 67.2977 102.024 83.8021 102.121C81.1401 105.937 78.5749 106.903 78.5749 106.903C75.1869 107.483 61.9253 105.406 54.9557 96.6618Z" fill="#F2B705"/>
<path d="M68.9915 108.981C70.0079 107.145 51.8095 97.5797 58.4887 93.0387C58.4887 93.0387 52.1483 93.9082 51.4707 98.4976C51.7127 103.57 66.1843 111.879 62.3607 114.343" fill="#C29204"/>
<path opacity="0.2" d="M68.9915 108.981C70.0079 107.145 51.8095 97.5797 58.4887 93.0387C58.4887 93.0387 52.1483 93.9082 51.4707 98.4976C51.7127 103.57 66.1843 111.879 62.3607 114.343" fill="#C29204"/>
<path d="M24.416 106.082C29.6916 109.367 50.1648 115.599 62.3616 114.343C66.2336 113.522 68.9924 108.981 68.9924 108.981C52.9236 109.319 29.982 101.638 24.416 95.9855C24.416 101.444 24.416 106.082 24.416 106.082Z" fill="#F2B705"/>
<path d="M113.857 174.971L117.536 174.005L116.132 165.213L112.502 166.227L113.857 174.971Z" fill="#FFC3BD"/>
<path d="M86.7539 177.435H90.5775L91.5455 168.643H87.7219L86.7539 177.435Z" fill="#FFC3BD"/>
<path d="M90.917 177H86.2706C86.1254 177 85.9802 177.097 85.9318 177.242L85.1574 180.623C85.0606 180.961 85.351 181.3 85.7382 181.3C87.2386 181.251 88.3034 181.203 90.191 181.203C91.3526 181.203 94.8374 181.3 96.4346 181.3C97.9834 181.3 98.2254 179.705 97.5962 179.56C94.6438 178.932 92.4658 178.014 91.4978 177.193C91.3526 177.048 91.1106 177 90.917 177Z" fill="#263238"/>
<path d="M117.392 173.57L113.375 174.681C113.23 174.729 113.133 174.874 113.133 175.019L113.326 178.498C113.326 178.836 113.714 179.126 114.052 178.981C115.504 178.546 117.537 177.918 119.376 177.386C121.506 176.807 123.345 176.42 125.862 175.744C127.362 175.309 127.362 173.715 126.685 173.715C123.636 173.86 121.264 174.44 118.36 173.618C118.021 173.522 117.682 173.473 117.392 173.57Z" fill="#263238"/>
<path d="M106.889 58.6908C107.083 58.8841 107.325 59.1256 107.567 59.3189L108.293 59.9469C108.777 60.3817 109.309 60.7681 109.841 61.2029C110.906 62.0242 111.923 62.7488 113.036 63.4251C114.101 64.1015 115.214 64.6812 116.327 65.116C117.44 65.5507 118.505 65.8406 119.473 65.8889C119.715 65.8889 119.957 65.8889 120.151 65.8889C119.812 65.9855 119.812 66.0338 119.909 65.9855C120.102 65.8889 120.489 65.4541 120.828 65.0193C121.554 64.1015 122.232 62.9421 122.861 61.7343C124.119 59.3672 125.329 56.8068 126.491 54.2947L129.201 55.116C128.669 57.9662 127.895 60.7681 126.878 63.5218C126.346 64.9227 125.765 66.2754 124.894 67.7247C124.458 68.4493 123.974 69.1739 123.055 69.9469C122.571 70.3334 121.99 70.7681 120.925 70.9614C120.393 71.058 119.957 71.1063 119.473 71.1063C117.585 71.2029 115.891 70.8164 114.343 70.285C112.794 69.7536 111.342 69.0773 110.035 68.3044C108.68 67.5314 107.421 66.6619 106.211 65.744C105.631 65.2609 105.05 64.8261 104.469 64.2947C104.179 64.0532 103.888 63.8116 103.598 63.5218C103.307 63.2319 103.065 63.0387 102.727 62.7005L106.889 58.6908Z" fill="#FFC3BD"/>
<path d="M100.597 61.5894C101.129 65.1642 112.068 70.3333 112.068 70.3333L116.424 62.8454C116.424 62.8454 112.068 59.9469 108.051 57.5314C105.292 55.9372 100.016 57.6763 100.597 61.5894Z" fill="#F2B705"/>
<path opacity="0.5" d="M100.597 61.5894C101.129 65.1642 112.068 70.3333 112.068 70.3333L116.424 62.8454C116.424 62.8454 112.068 59.9469 108.051 57.5314C105.292 55.9372 100.016 57.6763 100.597 61.5894Z" fill="white"/>
<path d="M126.441 54.9227L127.216 50.9131L130.701 53.2319C130.701 53.2319 130.459 55.0193 128.813 55.9855L126.441 54.9227Z" fill="#FFC3BD"/>
<path d="M127.943 48.256L130.992 50.3816L130.702 53.2319L127.217 50.913L127.943 48.256Z" fill="#FFC3BD"/>
<path d="M126.635 40.9131L127.119 47.0966V47.2899L127.361 50.7198C127.168 50.5266 126.974 50.43 126.732 50.4783C126.151 50.5266 125.764 51.2512 125.813 52.1208C125.861 52.9904 126.393 53.6667 126.974 53.6184C127.555 53.5701 127.942 52.8454 127.894 51.9759C127.894 51.8792 127.894 51.8309 127.845 51.7343C127.797 51.1063 127.652 49.3672 128.233 48.3044C128.233 48.2561 128.281 48.2561 128.281 48.2077C128.426 48.0145 128.571 47.8213 128.765 47.6763C128.62 45.6474 128.087 41.9759 126.635 40.9131ZM127.313 51.058C127.361 51.1063 127.41 51.2029 127.458 51.2995C127.555 51.4928 127.652 51.7343 127.652 52.0242C127.7 52.3623 127.603 52.7488 127.458 52.9903C127.41 53.1353 127.216 53.3285 126.974 53.3768C126.732 53.3768 126.539 53.1836 126.442 53.087C126.248 52.8454 126.151 52.5073 126.103 52.1208C126.055 51.7826 126.151 51.3961 126.297 51.1546C126.345 51.0097 126.539 50.8164 126.781 50.7681C127.023 50.7198 127.216 50.9131 127.313 51.058Z" fill="#F2B705"/>
<path d="M129.926 48.8841C129.781 49.0773 129.733 49.2705 129.781 49.5604L122.279 43.1353C122.279 44.9227 124.893 47.5314 126.49 48.8841C127.797 48.401 129.684 50.0435 130.265 50.5266C130.314 50.5749 130.362 50.6232 130.41 50.6715C131.088 51.2512 131.911 51.3478 132.298 50.9131C132.685 50.4783 132.443 49.657 131.766 49.0773C131.136 48.5459 130.265 48.4493 129.926 48.8841ZM132.153 50.1884C132.201 50.3334 132.25 50.5749 132.104 50.7681C131.959 50.9614 131.669 50.9614 131.524 50.9131C131.233 50.8648 130.895 50.7198 130.604 50.4783C130.411 50.285 130.265 50.0918 130.12 49.8986C130.072 49.802 130.023 49.7536 130.023 49.657C129.975 49.5121 129.926 49.2705 130.072 49.0773C130.217 48.8841 130.507 48.8841 130.652 48.9324C130.943 48.9807 131.282 49.1256 131.572 49.3672C131.863 49.5604 132.104 49.8986 132.153 50.1884Z" fill="#F2B705"/>
<path opacity="0.3" d="M127.894 48.2077C128.039 48.3044 128.039 48.4976 127.942 48.6425C127.845 48.7875 127.652 48.7875 127.506 48.6908C127.361 48.5942 127.361 48.401 127.458 48.2561C127.603 48.1111 127.797 48.0628 127.894 48.2077Z" fill="black"/>
<path opacity="0.2" d="M116.134 165.213L116.86 169.754L113.182 170.768L112.504 166.227L116.134 165.213Z" fill="black"/>
<path opacity="0.2" d="M87.7223 168.643H91.5459L91.0619 173.184H87.2383L87.7223 168.643Z" fill="black"/>
<path d="M85.4961 58.3527C86.6577 62.5556 87.4321 66.8068 87.9161 70.8647C88.2549 73.8116 88.4969 76.6135 88.6421 79.1739C88.9809 85.1642 88.8357 89.7053 88.9809 91.2512C91.9333 91.058 103.162 90.285 109.309 89.8502C112.068 68.256 106.792 57.0966 106.792 57.0966C106.792 57.0966 104.566 56.6618 101.952 56.5169C101.613 56.5169 101.274 56.4686 100.887 56.4686C98.5641 56.4203 94.8373 56.7585 92.2721 57.0483C91.7397 57.0966 91.1589 57.1932 90.6265 57.2899C87.8677 57.7246 85.4961 58.3527 85.4961 58.3527Z" fill="#F2B705"/>
<path opacity="0.5" d="M85.4961 58.3527C86.6577 62.5556 87.4321 66.8068 87.9161 70.8647C88.2549 73.8116 88.4969 76.6135 88.6421 79.1739C88.9809 85.1642 88.8357 89.7053 88.9809 91.2512C91.9333 91.058 103.162 90.285 109.309 89.8502C112.068 68.256 106.792 57.0966 106.792 57.0966C106.792 57.0966 104.566 56.6618 101.952 56.5169C101.613 56.5169 101.274 56.4686 100.887 56.4686C98.5641 56.4203 94.8373 56.7585 92.2721 57.0483C91.7397 57.0966 91.1589 57.1932 90.6265 57.2899C87.8677 57.7246 85.4961 58.3527 85.4961 58.3527Z" fill="#F2B705"/>
<path d="M94.2733 70.0961L94.002 64.6217L95.0499 64.5697L97.572 68.3176L97.0167 68.3451L99.1166 64.3681L100.157 64.3166L100.444 69.7902L99.2551 69.8492L99.0662 66.1973L99.2852 66.1865L97.6075 69.3507L97.0366 69.379L95.0151 66.3981L95.281 66.385L95.4621 70.0372L94.2733 70.0961Z" fill="#533E00"/>
<path d="M101.221 69.7517L100.947 64.2318L103.279 64.1162C103.761 64.0923 104.18 64.1532 104.537 64.2989C104.894 64.4393 105.175 64.6546 105.379 64.9449C105.584 65.2351 105.697 65.5879 105.717 66.0032C105.738 66.4132 105.66 66.7728 105.485 67.0819C105.31 67.3909 105.052 67.6356 104.712 67.8158C104.371 67.9908 103.959 68.0903 103.477 68.1142L101.838 68.1954L102.363 67.5923L102.467 69.6899L101.221 69.7517ZM102.37 67.7343L101.786 67.1546L103.356 67.0767C103.741 67.0577 104.024 66.9593 104.205 66.7817C104.387 66.604 104.47 66.3654 104.455 66.0658C104.44 65.7609 104.334 65.529 104.135 65.3702C103.937 65.2114 103.646 65.1415 103.261 65.1606L101.691 65.2384L102.215 64.6037L102.37 67.7343Z" fill="#533E00"/>
<path opacity="0.2" d="M90.6268 63.8599C90.6268 67.2416 89.7072 70.1401 88.11 72.6522C88.0616 72.0725 87.9648 71.4928 87.9164 70.9131C87.626 68.6908 87.2872 66.4203 86.8516 64.1015L90.6268 63.8599Z" fill="black"/>
<path d="M92.3674 47.2899C93.0934 50.0435 94.013 55.0676 92.1738 57.0483C93.7226 58.401 95.9006 59.5121 98.9982 59.2222C101.37 58.9807 101.37 57.3382 100.789 56.4203C97.643 55.8889 97.5462 53.6184 97.9334 51.3961L92.3674 47.2899Z" fill="#FFC3BD"/>
<path opacity="0.2" d="M94.6905 48.9807L98.0301 51.4444C97.9333 51.9759 97.8849 52.5073 97.8849 52.9903C96.6749 52.8937 94.9809 51.7343 94.7389 50.4783C94.5937 49.8502 94.5937 49.2705 94.6905 48.9807Z" fill="black"/>
<path d="M102.63 38.2077C103.452 40.3333 103.259 46.5652 100.5 45.2609C97.7411 43.9565 98.3703 39.2705 98.3703 39.2705C98.3703 39.2705 100.742 33.2319 102.63 38.2077Z" fill="#263238"/>
<path d="M91.7878 43.1353C92.2718 46.8551 92.3686 49.0773 94.4014 50.8647C97.4506 53.57 102 51.5411 102.629 47.7246C103.21 44.2947 102.291 38.7391 98.5154 37.5314C94.7886 36.3237 91.2554 39.4155 91.7878 43.1353Z" fill="#FFC3BD"/>
<path d="M94.4977 44.8261C95.3689 41.7343 95.0785 38.5942 92.3197 37.628C89.5609 36.6619 87.6249 37.9662 87.2377 39.8986C86.8989 41.8309 93.2393 49.3189 94.4977 44.8261Z" fill="#263238"/>
<path d="M92.8516 39.657C98.0304 40.1401 104.516 40.5749 104.177 36.1788C103.838 31.8309 97.7884 31.8792 96.6752 33.1353C96.6752 33.1353 98.6596 34.4879 96.5784 34.2464C92.6096 33.8599 86.4628 34.343 88.302 38.5459C89.6572 41.6377 92.8516 39.657 92.8516 39.657Z" fill="#263238"/>
<path d="M90.3836 47.3865C90.9644 48.2077 91.884 48.6908 92.7068 48.7874C93.9652 48.9807 94.4008 47.8213 93.9168 46.7101C93.4812 45.744 92.3196 44.4396 91.1096 44.7778C89.9964 45.1159 89.6576 46.4203 90.3836 47.3865Z" fill="#FFC3BD"/>
<path d="M118.02 168.498L111.825 170.188C111.825 170.188 107.372 146.372 106.259 134.585C105.92 131.01 104.952 125.986 103.79 120.672C102.29 113.957 100.402 106.662 98.8537 100.961C97.2081 94.971 95.998 90.7198 95.998 90.7198L109.356 89.8019C109.356 89.8019 117.439 121.3 117.826 132.894C118.165 144.971 118.02 168.498 118.02 168.498Z" fill="#78A1FE"/>
<path opacity="0.2" d="M103.741 120.72C102.241 114.005 100.353 106.71 98.8047 101.01L100.208 98.0145C103.499 101.976 104.371 114.101 103.741 120.72Z" fill="black"/>
<path d="M102.048 90.3333C102.048 90.3333 100.596 122.845 98.999 133.86C97.2566 145.937 92.7554 172.266 92.7554 172.266H85.7858C85.7858 172.266 85.689 147.29 87.867 135.599C90.3354 122.314 88.9318 91.2512 88.9318 91.2512L102.048 90.3333Z" fill="#78A1FE"/>
<path d="M93.6264 172.459H85.3984V169.995L94.5944 169.85L93.6264 172.459Z" fill="#407BFF"/>
<path d="M118.843 168.449L111.437 170.478L110.76 168.111L118.988 165.696L118.843 168.449Z" fill="#407BFF"/>
<path d="M97.5469 43.7633C97.5469 44.0532 97.7405 44.2947 97.9341 44.2947C98.1277 44.2947 98.2729 44.0048 98.2729 43.715C98.2729 43.4251 98.0793 43.1836 97.8857 43.1836C97.6921 43.2319 97.5469 43.4734 97.5469 43.7633Z" fill="#263238"/>
<path d="M101.033 43.5218C101.033 43.8116 101.226 44.0532 101.42 44.0532C101.614 44.0532 101.759 43.7633 101.759 43.4734C101.759 43.1836 101.565 42.942 101.372 42.942C101.13 42.9904 100.984 43.2319 101.033 43.5218Z" fill="#263238"/>
<path d="M99.918 43.7633C99.918 43.7633 100.741 45.4541 101.564 46.2754C101.08 46.8068 100.112 46.6619 100.112 46.6619L99.918 43.7633Z" fill="#ED847E"/>
<path d="M96.3864 42.7488C96.4348 42.7488 96.5316 42.7488 96.58 42.6522C97.0156 41.9759 97.6932 41.9759 97.6932 41.9759C97.79 41.9759 97.8868 41.8792 97.8868 41.7826C97.8868 41.686 97.79 41.5894 97.6932 41.5894C97.6448 41.5894 96.822 41.5894 96.2896 42.4106C96.2412 42.5073 96.2412 42.6039 96.338 42.6522C96.338 42.7488 96.3864 42.7488 96.3864 42.7488Z" fill="#263238"/>
<path d="M98.7562 48.1594C97.2074 48.1111 96.5298 47 96.5298 46.9517C96.4814 46.9034 96.5298 46.8551 96.5782 46.8068C96.6266 46.7585 96.675 46.8068 96.7234 46.8551C96.7234 46.8551 97.3526 47.9179 98.8046 47.9662C98.853 47.9662 98.9014 48.0145 98.9014 48.0628C98.853 48.1111 98.853 48.1594 98.7562 48.1594Z" fill="#263238"/>
<path d="M102.388 42.2657C102.436 42.2657 102.485 42.2657 102.485 42.2657C102.582 42.2174 102.582 42.1208 102.533 42.0242C102.049 41.1546 101.226 41.1063 101.178 41.1063C101.081 41.1063 100.984 41.1546 100.984 41.2995C100.984 41.3961 101.081 41.4928 101.13 41.4928C101.178 41.4928 101.807 41.5411 102.194 42.2174C102.291 42.2174 102.34 42.2657 102.388 42.2657Z" fill="#263238"/>
<path d="M92.1742 177.628C92.4646 177.628 92.755 177.58 92.9002 177.435C93.0454 177.338 93.0938 177.145 93.0938 176.952C93.0938 176.807 92.997 176.71 92.9486 176.71C92.513 176.517 91.303 177.242 91.1578 177.338C91.1094 177.338 91.1094 177.386 91.1094 177.435C91.1094 177.483 91.1578 177.483 91.1578 177.531C91.3998 177.58 91.787 177.628 92.1742 177.628ZM92.7066 176.855C92.755 176.855 92.8034 176.855 92.8034 176.855C92.8518 176.855 92.8518 176.903 92.8518 176.952C92.8518 177.097 92.8034 177.193 92.7066 177.29C92.513 177.483 91.9806 177.483 91.3514 177.338C91.8354 177.145 92.4162 176.855 92.7066 176.855Z" fill="#407BFF"/>
<path d="M91.1573 177.531C91.2057 177.531 91.2057 177.531 91.1573 177.531C91.5929 177.29 92.3673 176.469 92.2705 176.034C92.2705 175.937 92.2221 175.841 91.9801 175.792C91.8349 175.792 91.6897 175.792 91.5929 175.889C91.1573 176.227 91.0605 177.338 91.0605 177.387C91.0605 177.435 91.0605 177.435 91.1089 177.483C91.1573 177.531 91.1573 177.531 91.1573 177.531ZM91.9317 175.986C91.9801 175.986 91.9801 175.986 91.9317 175.986C92.0769 175.986 92.0769 176.034 92.1253 176.082C92.1737 176.324 91.6897 176.952 91.3025 177.242C91.3509 176.903 91.4477 176.275 91.7381 176.034C91.7865 175.986 91.8833 175.986 91.9317 175.986Z" fill="#407BFF"/>
<path d="M117.876 173.957C118.505 173.908 119.618 173.763 119.909 173.28C120.005 173.135 120.005 172.99 119.957 172.797C119.909 172.701 119.86 172.652 119.763 172.604C119.231 172.507 117.973 173.618 117.827 173.763C117.779 173.812 117.779 173.812 117.827 173.86C117.827 173.957 117.827 173.957 117.876 173.957ZM119.667 172.845C119.715 172.845 119.715 172.845 119.667 172.845C119.715 172.845 119.763 172.894 119.763 172.942C119.812 173.039 119.812 173.135 119.715 173.232C119.521 173.473 118.941 173.715 118.118 173.763C118.65 173.329 119.376 172.797 119.667 172.845Z" fill="#407BFF"/>
<path d="M117.876 173.957H117.924C118.311 173.618 118.989 172.604 118.795 172.217C118.747 172.121 118.65 172.024 118.408 172.072C118.215 172.121 118.069 172.217 117.973 172.362C117.634 172.894 117.779 173.908 117.779 173.908C117.827 173.908 117.827 173.957 117.876 173.957ZM118.553 172.217C118.602 172.217 118.65 172.266 118.65 172.266C118.747 172.507 118.311 173.28 117.973 173.667C117.924 173.377 117.924 172.749 118.166 172.411C118.263 172.314 118.36 172.217 118.505 172.217C118.505 172.217 118.505 172.217 118.553 172.217Z" fill="#407BFF"/>
<path d="M89.1739 64.2947L87.8187 65.744C87.3347 66.2271 86.8991 66.7102 86.4635 67.2416C85.5439 68.256 84.6727 69.2705 83.8015 70.285C82.9303 71.2995 82.1075 72.3623 81.3815 73.4251C80.9943 73.9565 80.6555 74.4879 80.3167 75.0676L79.8327 75.8889L79.7843 75.9855C79.7843 76.0338 79.7843 75.9372 79.7843 75.9372C79.7843 75.8889 79.7843 75.8889 79.7843 75.8406C79.7843 75.7923 79.7843 75.7923 79.7843 75.7923C79.7359 75.8889 79.7843 76.372 79.9779 76.9034C80.1231 77.4348 80.3651 77.9662 80.6555 78.5459C81.1879 79.7053 81.8655 80.8647 82.5915 81.9759C84.0435 84.2464 85.6407 86.5652 87.2863 88.7875L85.2051 90.7198C83.0271 88.7875 80.9943 86.7585 79.1067 84.4879C78.1871 83.3285 77.2675 82.1691 76.4447 80.8164C76.0575 80.1401 75.6703 79.4638 75.2831 78.6425C74.9443 77.8213 74.6055 76.9517 74.6055 75.6474C74.6055 75.3092 74.6539 74.9227 74.7507 74.5845C74.7991 74.3913 74.8475 74.1981 74.9443 73.9565L75.0895 73.6667L75.1379 73.5217L75.6703 72.4589C76.0091 71.7826 76.3963 71.1063 76.7835 70.4783C77.5579 69.1739 78.4291 67.9662 79.3003 66.7585C80.1715 65.5507 81.1395 64.4396 82.1075 63.3285C82.5915 62.7971 83.0755 62.2657 83.6079 61.7343C84.1403 61.2029 84.6243 60.6715 85.2051 60.1401L89.1739 64.2947Z" fill="#FFC3BD"/>
<path d="M85.9308 88.256L89.8028 88.1594L87.9152 92.6522C87.9152 92.6522 84.624 92.0242 84.7208 90.2367L85.9308 88.256Z" fill="#FFC3BD"/>
<path d="M92.3688 89.9952L90.6264 93.6184L87.916 92.6039L89.8036 88.1111L92.3688 89.9952Z" fill="#FFC3BD"/>
<path d="M86.512 58.1594C82.882 58.3044 77.2676 65.8406 77.2676 65.8406L83.1724 73.8599C83.1724 73.8599 87.3832 69.5121 89.9968 65.599C92.804 61.3961 90.9164 57.9662 86.512 58.1594Z" fill="#F2B705"/>
<path opacity="0.5" d="M86.512 58.1594C82.882 58.3044 77.2676 65.8406 77.2676 65.8406L83.1724 73.8599C83.1724 73.8599 87.3832 69.5121 89.9968 65.599C92.804 61.3961 90.9164 57.9662 86.512 58.1594Z" fill="white"/>
</g>
</g>
<defs>
<clipPath id="clip0_3646_34832">
<rect width="200" height="200" fill="white" transform="translate(0.5)"/>
</clipPath>
<clipPath id="clip1_3646_34832">
<rect width="242" height="180" fill="white" transform="translate(-20.5 7)"/>
</clipPath>
</defs>
</svg>
