<svg width="201" height="200" viewBox="0 0 201 200" fill="none" xmlns="http://www.w3.org/2000/svg">
<g clip-path="url(#clip0_3646_34425)">
<rect width="200" height="200" transform="translate(0.5)" fill="white"/>
<g clip-path="url(#clip1_3646_34425)">
<path d="M226.5 170.315H-25.5V170.415H226.5V170.315Z" fill="#EBEBEB"/>
<path d="M201.25 178.395H184.567V178.496H201.25V178.395Z" fill="#EBEBEB"/>
<path d="M141.425 179.801H137.04V179.901H141.425V179.801Z" fill="#EBEBEB"/>
<path d="M184.064 173.778H174.387V173.878H184.064V173.778Z" fill="#EBEBEB"/>
<path d="M22.7328 174.581H0.959961V174.681H22.7328V174.581Z" fill="#EBEBEB"/>
<path d="M30.394 174.581H27.2188V174.681H30.394V174.581Z" fill="#EBEBEB"/>
<path d="M88.0012 176.739H40.7764V176.84H88.0012V176.739Z" fill="#EBEBEB"/>
<path d="M93.9481 147.931H-3.37427C-4.93667 147.931 -6.24707 146.626 -6.24707 145.071V8.86071C-6.24707 7.30488 -4.93667 6 -3.37427 6H93.9481C95.5105 6 96.8209 7.30488 96.8209 8.86071V145.071C96.8209 146.677 95.5609 147.931 93.9481 147.931ZM-3.37427 6.10038C-4.88627 6.10038 -6.14627 7.30488 -6.14627 8.86071V145.071C-6.14627 146.576 -4.93667 147.831 -3.37427 147.831H93.9481C95.4601 147.831 96.7201 146.626 96.7201 145.071V8.86071C96.7201 7.35507 95.5105 6.10038 93.9481 6.10038H-3.37427Z" fill="#EBEBEB"/>
<path d="M202.963 147.931H105.64C104.078 147.931 102.768 146.626 102.768 145.071V8.86071C102.768 7.30488 104.078 6 105.64 6H202.963C204.525 6 205.836 7.30488 205.836 8.86071V145.071C205.836 146.677 204.576 147.931 202.963 147.931ZM105.64 6.10038C104.128 6.10038 102.868 7.30488 102.868 8.86071V145.071C102.868 146.576 104.078 147.831 105.64 147.831H202.963C204.475 147.831 205.735 146.626 205.735 145.071V8.86071C205.735 7.35507 204.525 6.10038 202.963 6.10038H105.64Z" fill="#EBEBEB"/>
<path d="M136.082 22.9133H9.27539V95.234H136.082V22.9133Z" fill="#E6E6E6"/>
<path d="M137.997 22.9133H10.1826V95.234H137.997V22.9133Z" fill="#F0F0F0"/>
<path d="M135.312 92.3049V25.8562L12.7901 25.8562L12.7901 92.3049L135.312 92.3049Z" fill="#FAFAFA"/>
<path d="M27.8223 92.2729L43.3455 25.8242H63.6567L48.1335 92.2729H27.8223Z" fill="white"/>
<path d="M51.46 92.2729L66.9328 25.8242H76.1056L60.6328 92.2729H51.46Z" fill="white"/>
<path d="M87.8486 92.2729L103.321 25.8242H118.996L103.523 92.2729H87.8486Z" fill="white"/>
<path d="M135.32 92.297V25.8482H134.968V92.297H135.32Z" fill="#E6E6E6"/>
<path d="M77.8702 22.9133H70.2598V95.234H77.8702V22.9133Z" fill="#F0F0F0"/>
<path d="M70.252 92.2993L70.252 25.8506H69.8992L69.8992 92.2993H70.252Z" fill="#E6E6E6"/>
<path d="M74.1905 22.9133H73.9385V95.234H74.1905V22.9133Z" fill="#E6E6E6"/>
<path d="M90.3192 123.54H79.584V170.365H90.3192V123.54Z" fill="#E6E6E6"/>
<path d="M85.6828 170.315H90.3196V162.586H80.7939L85.6828 170.315Z" fill="#F5F5F5"/>
<path d="M6.90708 123.54H-3.82812V170.365H6.90708V123.54Z" fill="#E6E6E6"/>
<path d="M90.319 123.54H2.875V167.705H90.319V123.54Z" fill="#F5F5F5"/>
<path d="M7.5118 170.315H2.875V162.586H12.4006L7.5118 170.315Z" fill="#F5F5F5"/>
<path d="M86.7407 127.254H6.50391V143.515H86.7407V127.254Z" fill="#F0F0F0"/>
<path d="M46.622 140.152C44.0012 140.152 41.834 137.994 41.834 135.384C41.834 132.775 43.9508 130.616 46.622 130.616C49.2428 130.616 51.41 132.775 51.41 135.384C51.3596 137.994 49.2428 140.152 46.622 140.152ZM46.622 131.118C44.2532 131.118 42.338 133.025 42.338 135.384C42.338 137.743 44.2532 139.65 46.622 139.65C48.9908 139.65 50.906 137.743 50.906 135.384C50.8556 133.025 48.9404 131.118 46.622 131.118Z" fill="white"/>
<path d="M86.7407 147.429H6.50391V163.69H86.7407V147.429Z" fill="#F0F0F0"/>
<path d="M46.622 160.328C44.0012 160.328 41.834 158.17 41.834 155.56C41.834 152.95 44.0012 150.792 46.622 150.792C49.2428 150.792 51.41 152.95 51.41 155.56C51.41 158.17 49.2428 160.328 46.622 160.328ZM46.622 151.344C44.2532 151.344 42.338 153.251 42.338 155.61C42.338 157.969 44.2532 159.876 46.622 159.876C48.9908 159.876 50.906 157.969 50.906 155.61C50.906 153.251 48.9404 151.344 46.622 151.344Z" fill="white"/>
<path d="M101.234 170.352H136.968V135.672H101.234V170.352Z" fill="#E6E6E6"/>
<path d="M183.911 135.635H136.938V170.315H183.911V135.635Z" fill="#F0F0F0"/>
<path opacity="0.7" d="M101.262 138.472H183.918V132.7H101.262V138.472Z" fill="#E6E6E6"/>
<path d="M99.3827 135.658H136.931V132.345H99.3827V135.658Z" fill="#E6E6E6"/>
<path d="M185.675 132.323H136.938V135.635H185.675V132.323Z" fill="#F0F0F0"/>
<path d="M199.601 163.108C202.514 156.845 199.778 149.417 193.488 146.516C187.199 143.615 179.739 146.341 176.826 152.603C173.913 158.866 176.65 166.294 182.939 169.195C189.228 172.096 196.688 169.371 199.601 163.108Z" fill="#E6E6E6"/>
<path opacity="0.7" d="M185.323 148.634C184.265 148.835 183.307 148.584 183.257 148.032C183.156 147.53 183.962 146.928 185.021 146.727C186.079 146.526 187.037 146.777 187.087 147.329C187.188 147.881 186.381 148.433 185.323 148.634Z" fill="#E6E6E6"/>
<path opacity="0.7" d="M180.53 151.712C181.288 150.939 181.597 150.014 181.219 149.645C180.841 149.277 179.919 149.606 179.16 150.379C178.401 151.152 178.093 152.077 178.471 152.445C178.849 152.813 179.771 152.485 180.53 151.712Z" fill="#E6E6E6"/>
<path opacity="0.7" d="M184.768 153.201C183.912 153.853 182.904 153.954 182.5 153.402C182.097 152.9 182.45 151.946 183.307 151.294C184.164 150.641 185.172 150.541 185.575 151.093C185.978 151.595 185.625 152.549 184.768 153.201Z" fill="#E6E6E6"/>
<path d="M191.472 31.4954H155.335V86.6519H191.472V31.4954Z" fill="#E6E6E6"/>
<path d="M194.546 31.4954H156.191V86.6519H194.546V31.4954Z" fill="#F5F5F5"/>
<path d="M192.087 84.2014V33.9131L158.621 33.9131V84.2014H192.087Z" fill="white"/>
<path d="M186.189 60.4625V57.6519L164.517 57.6519V60.4625L186.189 60.4625Z" fill="#F5F5F5"/>
<path d="M186.203 53.3492V50.5387L164.531 50.5387V53.3492L186.203 53.3492Z" fill="#F5F5F5"/>
<path d="M186.166 46.236V43.4255L164.494 43.4255V46.236L186.166 46.236Z" fill="#F5F5F5"/>
<path d="M186.177 67.5757V64.7652H164.505V67.5757H186.177Z" fill="#F5F5F5"/>
<path d="M186.163 74.689V71.8784H164.491V74.689H186.163Z" fill="#F5F5F5"/>
<path d="M100.5 193C154.472 193 198.226 190.461 198.226 187.329C198.226 184.197 154.472 181.658 100.5 181.658C46.5277 181.658 2.77441 184.197 2.77441 187.329C2.77441 190.461 46.5277 193 100.5 193Z" fill="#F5F5F5"/>
<path d="M81.2468 182.962L85.0268 181.908L83.6156 172.824L79.7852 173.878L81.2468 182.962Z" fill="#FFC3BD"/>
<path d="M48.7393 183.063H52.6705L53.6785 173.929H49.6969L48.7393 183.063Z" fill="#FFC3BD"/>
<path d="M53.023 182.611H48.1846C48.0334 182.611 47.8822 182.711 47.8318 182.862L47.0254 186.375C46.9246 186.726 47.227 187.078 47.6302 187.078C49.1926 187.028 50.3014 186.977 52.267 186.977C53.4766 186.977 57.1054 187.078 58.7686 187.078C60.3814 187.078 60.6334 185.422 59.9782 185.271C56.9038 184.619 54.6358 183.665 53.6278 182.812C53.4766 182.661 53.2246 182.611 53.023 182.611Z" fill="#263238"/>
<path d="M84.8756 181.457L80.6924 182.611C80.5412 182.661 80.4404 182.812 80.4404 182.962L80.642 186.576C80.642 186.927 81.0452 187.228 81.398 187.078C82.91 186.626 85.0268 185.974 86.942 185.422C89.1596 184.819 91.0748 184.418 93.6956 183.715C95.258 183.264 95.258 181.607 94.5524 181.607C91.3772 181.758 88.9076 182.36 85.8836 181.507C85.5812 181.407 85.2284 181.407 84.8756 181.457Z" fill="#263238"/>
<path d="M70.4108 59.5002C70.562 59.701 70.814 59.9519 71.0156 60.2029L71.6708 60.9055C72.074 61.3572 72.5276 61.8591 72.9812 62.3108C73.8884 63.2141 74.7956 64.1175 75.7532 64.9205C77.6684 66.5265 79.7348 67.9318 81.7004 68.5341C81.9524 68.6344 82.2044 68.6846 82.4564 68.7348L82.8092 68.785C83.0108 68.8352 82.8092 68.785 82.8092 68.8352C82.7588 68.8352 82.8596 68.8854 83.0108 68.785C83.162 68.7348 83.3636 68.6344 83.6156 68.5341C84.0692 68.2831 84.5732 67.982 85.0268 67.6307C85.5308 67.2794 86.0348 66.8779 86.4884 66.4764C88.454 64.8202 90.4196 62.913 92.3348 61.0059L94.7036 62.7625C93.2924 65.2217 91.6796 67.5303 89.7644 69.7386C88.7564 70.8427 87.7484 71.8966 86.3372 72.9004C85.9844 73.1513 85.5812 73.4023 85.1276 73.603C84.674 73.8038 84.1196 74.0547 83.3636 74.1551C83.0108 74.2053 82.4564 74.2053 82.3052 74.1551L81.65 74.1049C81.1964 74.0547 80.7932 73.9543 80.3396 73.854C79.4828 73.6532 78.6764 73.4023 77.9708 73.1012C77.2148 72.8 76.5092 72.4487 75.8036 72.0472C74.4428 71.2944 73.1828 70.391 71.9732 69.4876C70.814 68.5341 69.7052 67.5805 68.6468 66.5265C68.1428 66.0247 67.6388 65.4726 67.1348 64.9205C66.8828 64.6696 66.6308 64.3685 66.4292 64.0673C66.1772 63.7662 65.9756 63.5153 65.7236 63.164L70.4108 59.5002Z" fill="#FFC3BD"/>
<path d="M71.7715 71.5453L73.3339 73.1011L80.4403 67.4299L77.8699 65.4726L71.7715 71.5453Z" fill="#263238"/>
<path d="M63.4561 61.2066C63.1537 64.9707 71.6713 72.6495 71.6713 72.6495L79.1809 66.1752C79.1809 66.1752 76.0057 62.8127 72.4777 59.5003C70.0585 57.1414 63.8089 57.1414 63.4561 61.2066Z" fill="#263238"/>
<path d="M91.9824 62.3108L93.0912 58.9984L97.5264 60.1527C97.5264 60.1527 96.1152 61.8089 94.5024 63.0134L91.9824 62.3108Z" fill="#FFC3BD"/>
<path d="M94.8548 57.5429L98.534 58.8478L97.526 60.1025L93.0908 58.9984L94.8548 57.5429Z" fill="#FFC3BD"/>
<path opacity="0.2" d="M83.6156 172.824L84.3716 177.492L80.5412 178.546L79.7852 173.878L83.6156 172.824Z" fill="black"/>
<path opacity="0.2" d="M49.6964 173.929H53.678L53.174 178.646H49.1924L49.6964 173.929Z" fill="black"/>
<path d="M47.3779 59.3497C48.5875 63.716 49.3939 68.1326 49.8979 72.3483C50.2507 75.4098 50.5027 78.3207 50.6539 80.9807C51.0067 87.204 50.8555 91.9216 51.0067 93.5276C54.0811 93.3269 65.7739 92.5239 72.1747 92.0722C75.0475 69.6382 69.5539 58.0448 69.5539 58.0448C69.5539 58.0448 67.2355 57.5931 64.5139 57.4426C64.1611 57.4426 63.8083 57.3924 63.4051 57.3924C60.9859 57.3422 57.1051 57.6935 54.4339 57.9946C53.8795 58.0448 53.2747 58.1452 52.7203 58.2456C49.8475 58.6972 47.3779 59.3497 47.3779 59.3497Z" fill="#F2B705"/>
<path opacity="0.5" d="M47.3779 59.3497C48.5875 63.716 49.3939 68.1326 49.8979 72.3483C50.2507 75.4098 50.5027 78.3207 50.6539 80.9807C51.0067 87.204 50.8555 91.9216 51.0067 93.5276C54.0811 93.3269 65.7739 92.5239 72.1747 92.0722C75.0475 69.6382 69.5539 58.0448 69.5539 58.0448C69.5539 58.0448 67.2355 57.5931 64.5139 57.4426C64.1611 57.4426 63.8083 57.3924 63.4051 57.3924C60.9859 57.3422 57.1051 57.6935 54.4339 57.9946C53.8795 58.0448 53.2747 58.1452 52.7203 58.2456C49.8475 58.6972 47.3779 59.3497 47.3779 59.3497Z" fill="#F2B705"/>
<path d="M54.3835 57.9946C57.0547 57.6935 60.9859 57.3422 63.3547 57.3924C63.7075 57.3924 64.1107 57.3924 64.4635 57.4426C64.5139 57.4426 64.5643 57.4426 64.5643 57.4426C65.2195 58.7474 66.0259 62.7123 63.1027 63.1138C59.1211 63.6658 54.5851 60.2029 52.6699 58.2957C53.2243 58.1452 53.8291 58.0448 54.3835 57.9946Z" fill="#263238"/>
<path opacity="0.2" d="M52.7203 65.0711C52.7203 68.5843 51.7627 71.5955 50.0995 74.2053C50.0491 73.603 49.9483 73.0008 49.8979 72.3985C49.5955 70.0899 49.2427 67.7311 48.7891 65.322L52.7203 65.0711Z" fill="black"/>
<path d="M54.5854 47.8567C55.3414 50.7174 56.299 55.9369 54.3838 57.9946C55.9966 59.3999 58.2646 60.5542 61.4902 60.2531C63.9598 60.0021 63.9598 58.2957 63.355 57.3422C60.079 56.7901 59.9782 54.4313 60.3814 52.1226L54.5854 47.8567Z" fill="#FFC3BD"/>
<path opacity="0.2" d="M56.9544 49.6133L60.432 52.1728C60.3312 52.7249 60.2808 53.277 60.2808 53.7788C59.0208 53.6785 57.2568 52.474 57.0048 51.1691C56.904 50.5166 56.8536 49.9144 56.9544 49.6133Z" fill="black"/>
<path d="M69.1008 32.8505C70.5624 35.912 64.8168 43.3899 60.0792 42.5869C57.8112 42.1854 54.7368 41.3824 52.2168 40.6798C49.9488 40.0274 49.092 37.0161 51.2592 36.6146C58.668 35.3097 66.6816 27.7313 69.1008 32.8505Z" fill="#263238"/>
<path d="M53.9298 43.5405C54.4338 47.405 54.5346 49.7136 56.6514 51.5706C59.8266 54.3811 64.5642 52.2732 65.2194 48.3084C65.8242 44.745 64.8666 38.9734 60.9354 37.7187C57.0546 36.464 53.4258 39.6761 53.9298 43.5405Z" fill="#FFC3BD"/>
<path d="M61.4901 48.5091C59.8773 48.6095 59.0708 47.5555 59.0204 47.5054C58.97 47.4552 59.0204 47.405 59.0204 47.3548C59.0708 47.3046 59.1212 47.3548 59.1716 47.3548C59.1716 47.3548 59.978 48.3585 61.4396 48.2582C61.49 48.2582 61.5404 48.3084 61.5404 48.3586C61.5908 48.4589 61.5405 48.5091 61.4901 48.5091Z" fill="#263238"/>
<path d="M56.6518 45.2971C58.1134 42.085 58.4662 38.8228 55.7446 37.8191C53.023 36.8153 50.755 38.1704 49.999 40.1779C49.2934 42.1854 54.4846 49.9645 56.6518 45.2971Z" fill="#263238"/>
<path d="M53.5771 39.1742C56.2987 41.1315 65.5724 41.2319 64.262 37.7689C63.3044 35.1591 56.8531 35.2595 53.5771 39.1742Z" fill="#263238"/>
<path d="M52.468 47.957C53.0728 48.8102 54.0304 49.3121 54.8872 49.4125C56.1976 49.6132 56.6512 48.4087 56.1472 47.2544C55.6936 46.2506 54.484 44.8956 53.224 45.2469C52.0648 45.5982 51.7624 46.9533 52.468 47.957Z" fill="#FFC3BD"/>
<path d="M85.5305 176.237L79.0793 177.994C79.0793 177.994 70.9649 152.549 68.9993 138.596C68.4953 134.882 67.6384 129.663 66.4288 124.142C64.8664 117.166 62.9009 109.588 61.2881 103.666C59.5745 97.4423 58.3145 93.0257 58.3145 93.0257L72.2248 92.0722C72.2248 92.0722 79.7344 124.744 80.5408 136.739C81.2968 149.236 85.5305 176.237 85.5305 176.237Z" fill="#407BFF"/>
<path opacity="0.3" d="M85.5305 176.237L79.0793 177.994C79.0793 177.994 70.9649 152.549 68.9993 138.596C68.4953 134.882 67.6384 129.663 66.4288 124.142C64.8664 117.166 62.9009 109.588 61.2881 103.666C59.5745 97.4423 58.3145 93.0257 58.3145 93.0257L72.2248 92.0722C72.2248 92.0722 79.7344 124.744 80.5408 136.739C81.2968 149.236 85.5305 176.237 85.5305 176.237Z" fill="#FAFAFA"/>
<path opacity="0.2" d="M66.3791 124.142C64.8167 117.166 62.8511 109.588 61.2383 103.666L62.6999 100.554C66.1271 104.669 67.0847 117.266 66.3791 124.142Z" fill="black"/>
<path d="M64.6655 92.5741C64.6655 92.5741 63.1535 126.351 61.4903 137.793C59.6759 150.34 54.9887 177.693 54.9887 177.693H47.7311C47.7311 177.693 47.6303 151.746 49.8983 139.6C52.4687 125.798 51.0071 93.5276 51.0071 93.5276L64.6655 92.5741Z" fill="#407BFF"/>
<path opacity="0.3" d="M64.6655 92.5741C64.6655 92.5741 63.1535 126.351 61.4903 137.793C59.6759 150.34 54.9887 177.693 54.9887 177.693H47.7311C47.7311 177.693 47.6303 151.746 49.8983 139.6C52.4687 125.798 51.0071 93.5276 51.0071 93.5276L64.6655 92.5741Z" fill="#FAFAFA"/>
<path d="M55.8457 177.893H47.3281V175.334L56.8537 175.183L55.8457 177.893Z" fill="#407BFF"/>
<path d="M85.9846 176.287L78.6766 178.295L77.6182 175.786L85.9846 173.477V176.287Z" fill="#407BFF"/>
<path d="M59.9277 44.193C59.9277 44.4941 60.1293 44.745 60.3309 44.745C60.5325 44.745 60.6837 44.4439 60.6837 44.1428C60.6837 43.8416 60.4821 43.5907 60.2805 43.5907C60.0789 43.6409 59.9277 43.8918 59.9277 44.193Z" fill="#263238"/>
<path d="M63.5565 43.942C63.5565 44.2431 63.7581 44.4941 63.9597 44.4941C64.1613 44.4941 64.3125 44.1929 64.3125 43.8918C64.3125 43.5907 64.1109 43.3398 63.9093 43.3398C63.6573 43.3899 63.5061 43.6409 63.5565 43.942Z" fill="#263238"/>
<path d="M62.3975 44.193C62.3975 44.193 63.2543 45.9495 64.1111 46.8027C63.6071 47.3548 62.5487 47.1039 62.5487 47.1039L62.3975 44.193Z" fill="#ED847E"/>
<path d="M58.7179 43.139C58.7683 43.139 58.8691 43.139 58.9195 43.0386C59.3731 42.336 60.0787 42.336 60.0787 42.336C60.1795 42.336 60.2803 42.2356 60.2803 42.1353C60.2803 42.0349 60.1795 41.9345 60.0787 41.9345C60.0283 41.9345 59.1715 41.9345 58.6171 42.7877C58.5667 42.8881 58.5667 42.9885 58.6675 43.0386C58.6675 43.139 58.7179 43.139 58.7179 43.139Z" fill="#263238"/>
<path d="M65.0182 42.6371C65.0686 42.6371 65.119 42.6371 65.119 42.6371C65.2198 42.5869 65.2198 42.4866 65.1694 42.3862C64.6654 41.4828 63.8086 41.4326 63.7582 41.4326C63.6574 41.4326 63.5566 41.4828 63.5566 41.6334C63.5566 41.7337 63.6574 41.8341 63.7078 41.8341C63.7582 41.8341 64.4134 41.8843 64.8166 42.5869C64.867 42.5869 64.9174 42.6371 65.0182 42.6371Z" fill="#263238"/>
<path d="M54.3334 183.264C54.6358 183.264 54.9382 183.213 55.0894 183.063C55.2406 182.962 55.291 182.762 55.291 182.561C55.291 182.41 55.1902 182.31 55.1398 182.31C54.6862 182.109 53.4262 182.862 53.275 182.962C53.2246 182.962 53.2246 183.013 53.2246 183.063C53.2246 183.113 53.275 183.113 53.275 183.163C53.5774 183.213 53.9302 183.264 54.3334 183.264ZM54.8878 182.461C54.9382 182.461 54.9886 182.461 54.9886 182.461C55.039 182.461 55.039 182.511 55.039 182.561C55.039 182.711 54.9886 182.812 54.8878 182.912C54.6862 183.113 54.1318 183.113 53.4766 182.962C53.9806 182.762 54.5854 182.461 54.8878 182.461Z" fill="#407BFF"/>
<path d="M53.3254 183.163C53.779 182.912 54.5854 182.059 54.4846 181.607C54.4846 181.507 54.4342 181.407 54.1822 181.356C54.031 181.356 53.8798 181.356 53.779 181.457C53.3254 181.808 53.2246 182.962 53.2246 183.013C53.2246 183.063 53.2246 183.063 53.275 183.113C53.275 183.163 53.275 183.163 53.3254 183.163ZM54.0814 181.557C54.1318 181.557 54.1318 181.557 54.0814 181.557C54.2326 181.557 54.2326 181.607 54.283 181.658C54.3334 181.908 53.8294 182.561 53.4262 182.862C53.4766 182.511 53.5774 181.858 53.8798 181.607C53.9302 181.557 54.031 181.557 54.0814 181.557Z" fill="#407BFF"/>
<path d="M85.43 181.908C86.0852 181.858 87.2444 181.708 87.5468 181.206C87.6476 181.055 87.6476 180.905 87.5972 180.704C87.5468 180.604 87.4964 180.553 87.3956 180.503C86.8412 180.403 85.5308 181.557 85.3796 181.708C85.3292 181.758 85.3292 181.758 85.3796 181.808C85.3292 181.858 85.3796 181.908 85.43 181.908ZM87.2948 180.704C87.3452 180.704 87.3956 180.754 87.3956 180.804C87.446 180.905 87.446 181.005 87.3452 181.105C87.1436 181.356 86.5388 181.607 85.682 181.657C86.2364 181.206 86.9924 180.654 87.2948 180.704Z" fill="#407BFF"/>
<path d="M85.4299 181.908H85.4803C85.8835 181.557 86.5891 180.503 86.3875 180.102C86.3371 180.001 86.2363 179.901 85.9843 179.951C85.7827 180.001 85.6315 180.102 85.5307 180.252C85.1779 180.804 85.3291 181.858 85.3291 181.858C85.3291 181.858 85.3795 181.858 85.4299 181.908C85.3795 181.908 85.3795 181.908 85.4299 181.908ZM86.1355 180.102C86.1859 180.102 86.2363 180.152 86.2363 180.152C86.3371 180.403 85.8835 181.206 85.5307 181.607C85.4803 181.306 85.4803 180.654 85.7323 180.302C85.8331 180.202 85.9339 180.102 86.0851 180.102C86.0347 180.051 86.0851 180.051 86.1355 180.102Z" fill="#407BFF"/>
<path d="M47.2773 92.2227C47.2269 91.3696 46.6221 90.6669 45.8661 90.5665L34.0725 89.2617C33.1653 89.1613 32.3589 89.9141 32.2581 90.9681L28.7805 121.482C28.6797 122.536 29.2845 123.44 30.1917 123.54L67.6389 127.756C68.5461 127.856 69.3525 127.103 69.4533 126.049L72.3765 100.403C72.4773 99.3494 71.8725 98.446 70.9653 98.3457L50.6037 96.037C48.8397 95.8865 47.4789 94.2804 47.2773 92.2227Z" fill="#263238"/>
<path d="M52.2667 98.9479C52.3171 98.1951 51.8131 97.5929 51.0571 97.4925L39.2635 96.1876C38.3563 96.0872 37.3987 96.7397 37.1467 97.643L29.6875 121.834C29.3851 122.737 29.8891 123.54 30.7963 123.64L68.2435 127.856C69.1507 127.957 70.1083 127.304 70.3603 126.401L76.5091 106.476C76.8115 105.573 76.3075 104.77 75.4003 104.669L55.0387 102.361C53.2747 102.11 52.1155 100.704 52.2667 98.9479Z" fill="#F2B705"/>
<path d="M41.6869 117.292L43.2461 106.488L45.3143 106.786L48.8134 115.075L47.7175 114.916L53.3402 107.944L55.393 108.241L53.8646 119.049L51.5186 118.711L52.5434 111.501L52.9755 111.563L48.4885 117.107L47.3618 116.945L44.5484 110.347L45.0731 110.422L44.0329 117.63L41.6869 117.292Z" fill="#533E00"/>
<path d="M55.3966 119.27L56.9688 108.377L61.57 109.041C62.5217 109.178 63.3185 109.457 63.9605 109.878C64.604 110.289 65.0704 110.817 65.3596 111.462C65.6489 112.108 65.7343 112.84 65.616 113.66C65.4993 114.469 65.2109 115.142 64.751 115.68C64.291 116.217 63.6937 116.597 62.9588 116.819C62.2255 117.031 61.383 117.068 60.4313 116.931L57.1968 116.464L58.4541 115.486L57.8567 119.625L55.3966 119.27ZM58.4137 115.766L57.4932 114.41L60.5911 114.857C61.3504 114.967 61.9413 114.882 62.3638 114.604C62.7863 114.326 63.0402 113.892 63.1256 113.3C63.2124 112.699 63.0925 112.205 62.7658 111.819C62.4392 111.433 61.8962 111.185 61.1369 111.075L58.039 110.628L59.3053 109.588L58.4137 115.766Z" fill="#533E00"/>
<path d="M51.6113 65.1715L50.5025 66.7775C50.1497 67.3296 49.7465 67.8817 49.3937 68.4337C48.6881 69.5379 47.9825 70.642 47.2769 71.7963C46.6217 72.9004 45.9665 74.0548 45.3617 75.2091C44.8073 76.3634 44.2529 77.5177 43.7993 78.672L43.7489 78.7724V78.8226C43.7489 78.8728 43.7489 78.8728 43.6985 78.923C43.6985 79.0234 43.6481 79.0735 43.6481 79.1739C43.5977 79.3747 43.5977 79.6256 43.5473 79.9267C43.4969 80.4788 43.4969 81.0811 43.5473 81.6833C43.5977 82.938 43.7489 84.2429 43.9505 85.5478C44.3537 88.1576 44.8073 90.8677 45.3617 93.5277L42.5393 94.4812C41.3297 91.8715 40.3721 89.2617 39.5657 86.5013C39.1625 85.1463 38.8097 83.741 38.5577 82.2354C38.4569 81.4826 38.3561 80.7297 38.3057 79.8766C38.3057 79.475 38.3057 79.0234 38.3561 78.5717C38.3561 78.3207 38.4065 78.0698 38.4569 77.8189L38.5577 77.4173L38.6081 77.2166L38.6585 77.066C39.5153 74.105 40.7249 71.445 42.0857 68.9356C42.7913 67.6809 43.4969 66.4262 44.3033 65.2217C44.7065 64.6194 45.1097 64.0172 45.5129 63.4149C45.9161 62.8127 46.3193 62.2606 46.8233 61.6584L51.6113 65.1715Z" fill="#FFC3BD"/>
<path d="M41.1789 68.6847L39.9189 70.4914L46.6725 76.514L48.1845 73.7034L41.1789 68.6847Z" fill="#263238"/>
<path d="M47.3781 59.3497C43.6485 60.1025 40.4229 69.1363 40.4229 69.1363L48.1844 75.4098C48.1844 75.4098 50.7045 70.7925 52.7709 66.376C54.9381 61.6082 51.8637 58.4463 47.3781 59.3497Z" fill="#263238"/>
<path d="M45.0088 92.6744L47.68 95.6857L42.8416 97.1412C42.8416 97.1412 41.128 94.0797 42.64 93.0258L45.0088 92.6744Z" fill="#FFC3BD"/>
<path d="M47.9322 98.9479L43.8498 100.002L42.8418 97.1412L47.6802 95.6857L47.9322 98.9479Z" fill="#FFC3BD"/>
<path d="M138.703 45.2971C138.451 44.4439 137.695 43.942 136.939 43.9922L125.146 45.3473C124.239 45.4477 123.634 46.4012 123.735 47.405L127.263 77.9192C127.363 78.9732 128.22 79.726 129.077 79.6256L166.474 75.3596C167.381 75.2593 167.986 74.3057 167.885 73.3019L164.911 47.7061C164.811 46.6522 163.954 45.8993 163.097 45.9997L142.735 48.3084C141.022 48.4589 139.308 47.2544 138.703 45.2971Z" fill="#263238"/>
<path d="M144.348 34.1554C146.918 45.3975 148.632 56.9407 149.338 68.6846C140.064 69.7888 130.74 70.642 121.466 71.2944C120.761 58.3961 118.694 45.799 115.469 33.7037C122.021 31.9471 128.573 30.04 135.074 28.0325C138.199 29.9898 141.274 32.0475 144.348 34.1554Z" fill="#FFF3D0"/>
<path opacity="0.7" d="M144.348 34.1554C146.918 45.3975 148.632 56.9407 149.338 68.6846C140.064 69.7888 130.74 70.642 121.466 71.2944C120.761 58.3961 118.694 45.799 115.469 33.7037C122.021 31.9471 128.573 30.04 135.074 28.0325C138.199 29.9898 141.274 32.0475 144.348 34.1554Z" fill="#F2B705"/>
<path d="M142.785 39.9772C135.528 41.7839 128.22 43.4401 120.912 44.9458C120.609 44.996 120.307 44.7952 120.206 44.4941C120.156 44.193 120.357 43.8416 120.66 43.7915C127.968 42.2356 135.225 40.5292 142.483 38.6723C142.785 38.5719 143.088 38.8229 143.188 39.1742C143.289 39.5255 143.088 39.927 142.785 39.9772Z" fill="white"/>
<path d="M143.542 44.0424C136.234 45.6986 128.926 47.2544 121.567 48.6095C121.265 48.6597 120.962 48.4589 120.912 48.1076C120.862 47.8065 121.063 47.4552 121.366 47.405C128.674 45.9997 135.982 44.3937 143.29 42.6873C143.592 42.6371 143.894 42.8379 143.995 43.1892C144.096 43.6409 143.894 43.9922 143.542 44.0424Z" fill="white"/>
<path d="M144.247 48.1578C136.889 49.7136 129.581 51.0687 122.222 52.3234C121.92 52.3736 121.618 52.1728 121.567 51.8215C121.517 51.5204 121.718 51.1691 122.071 51.1189C129.43 49.814 136.788 48.4088 144.096 46.8027C144.398 46.7526 144.701 46.9533 144.802 47.3548C144.802 47.7563 144.6 48.1076 144.247 48.1578Z" fill="white"/>
<path d="M144.902 52.2732C137.543 53.6785 130.185 54.9332 122.776 56.0373C122.474 56.0875 122.171 55.8366 122.121 55.5354C122.071 55.2343 122.272 54.883 122.625 54.8328C129.983 53.6785 137.392 52.3736 144.7 50.9683C145.003 50.9182 145.305 51.1691 145.355 51.5204C145.406 51.8717 145.204 52.223 144.902 52.2732Z" fill="white"/>
<path d="M136.637 57.8943C132.202 58.5969 127.716 59.1991 123.281 59.8014C122.978 59.8516 122.676 59.6006 122.626 59.2995C122.575 58.9482 122.827 58.6471 123.13 58.6471C127.565 58.0448 132.05 57.3924 136.486 56.6897C136.788 56.6396 137.09 56.8905 137.141 57.2418C137.191 57.4927 136.939 57.8441 136.637 57.8943Z" fill="white"/>
<path d="M144.348 34.1554C141.929 34.858 139.51 35.5105 137.04 36.1629C136.436 33.4528 135.73 30.7426 135.024 28.0827C138.2 29.9898 141.274 32.0475 144.348 34.1554Z" fill="#F2B705"/>
<path d="M145.053 50.6672C144.952 49.9144 144.348 49.4125 143.592 49.5129L131.798 50.868C130.891 50.9683 130.135 51.8215 130.034 52.7751L128.22 78.0196C128.169 78.9732 128.824 79.6256 129.732 79.5252L167.128 75.2593C168.036 75.1589 168.792 74.3057 168.892 73.3521L170.404 52.5743C170.455 51.6208 169.8 50.9683 168.892 51.0687L148.531 53.3773C146.767 53.5781 145.305 52.474 145.053 50.6672Z" fill="#F2B705"/>
<path d="M116.427 70.2907C115.368 80.6796 114.108 91.0182 112.546 101.307C103.323 99.8513 94.15 98.4461 84.9268 97.091C86.7412 84.7448 88.2532 72.2982 89.362 59.8014C96.1156 60.4036 102.92 61.0561 109.673 61.7085C111.941 64.5191 114.159 67.3798 116.427 70.2907Z" fill="#FFF3D0"/>
<path opacity="0.7" d="M116.427 70.2907C115.368 80.6796 114.108 91.0182 112.546 101.307C103.323 99.8513 94.15 98.4461 84.9268 97.091C86.7412 84.7448 88.2532 72.2982 89.362 59.8014C96.1156 60.4036 102.92 61.0561 109.673 61.7085C111.941 64.5191 114.159 67.3798 116.427 70.2907Z" fill="#F2B705"/>
<path d="M113.151 74.657C105.742 73.8038 98.3333 72.9506 90.9245 72.1476C90.6221 72.0974 90.3701 71.8465 90.4205 71.4952C90.4709 71.1941 90.7229 70.9431 91.0757 70.9933C98.4845 71.7963 105.893 72.5993 113.302 73.4525C113.605 73.5027 113.857 73.8038 113.806 74.105C113.756 74.4563 113.504 74.7072 113.151 74.657Z" fill="white"/>
<path d="M112.748 78.4211C105.339 77.5177 97.93 76.6143 90.5212 75.7612C90.2188 75.711 89.9668 75.4098 90.0172 75.1087C90.0676 74.8076 90.3196 74.5566 90.6724 74.6068C98.0812 75.46 105.49 76.3132 112.899 77.2166C113.201 77.2668 113.453 77.5679 113.403 77.869C113.352 78.2204 113.05 78.4713 112.748 78.4211Z" fill="white"/>
<path d="M112.293 82.1852C104.885 81.2316 97.4759 80.3283 90.0671 79.4249C89.7647 79.3747 89.5127 79.0736 89.5631 78.7724C89.6135 78.4713 89.9159 78.2204 90.2183 78.2706C97.6271 79.1238 105.036 80.0773 112.445 80.9807C112.747 81.0309 112.999 81.332 112.949 81.6331C112.898 81.9845 112.646 82.2354 112.293 82.1852Z" fill="white"/>
<path d="M111.84 85.9493C104.431 84.9455 97.0222 83.992 89.6638 83.0384C89.3614 82.9882 89.1094 82.6871 89.1598 82.386C89.2102 82.0848 89.5126 81.8339 89.815 81.8841C97.2238 82.7875 104.633 83.741 111.991 84.7448C112.293 84.795 112.545 85.0961 112.495 85.3972C112.445 85.7485 112.142 85.9493 111.84 85.9493Z" fill="white"/>
<path d="M102.567 88.4587C98.1314 87.8564 93.6458 87.2542 89.2106 86.6519C88.9082 86.6017 88.6562 86.3006 88.7066 85.9995C88.757 85.6984 89.0594 85.4474 89.3618 85.4976C93.797 86.0999 98.2826 86.6519 102.718 87.2542C103.02 87.3044 103.272 87.6055 103.222 87.9066C103.171 88.2579 102.869 88.5089 102.567 88.4587Z" fill="white"/>
<path d="M116.427 70.2907C113.957 69.9895 111.437 69.7386 108.968 69.4877C109.22 66.9281 109.472 64.3183 109.724 61.7587C111.941 64.5191 114.159 67.3798 116.427 70.2907Z" fill="#F2B705"/>
</g>
</g>
<defs>
<clipPath id="clip0_3646_34425">
<rect width="200" height="200" fill="white" transform="translate(0.5)"/>
</clipPath>
<clipPath id="clip1_3646_34425">
<rect width="252" height="187" fill="white" transform="translate(-25.5 6)"/>
</clipPath>
</defs>
</svg>
