<svg width="201" height="187" viewBox="0 0 201 187" fill="none" xmlns="http://www.w3.org/2000/svg">
<g clip-path="url(#clip0_3771_934)">
<path d="M226.5 164.315H-25.5V164.415H226.5V164.315Z" fill="#EBEBEB"/>
<path d="M201.25 172.395H184.567V172.496H201.25V172.395Z" fill="#EBEBEB"/>
<path d="M141.425 173.801H137.04V173.901H141.425V173.801Z" fill="#EBEBEB"/>
<path d="M184.064 167.778H174.387V167.878H184.064V167.778Z" fill="#EBEBEB"/>
<path d="M22.7328 168.581H0.959961V168.681H22.7328V168.581Z" fill="#EBEBEB"/>
<path d="M30.394 168.581H27.2188V168.681H30.394V168.581Z" fill="#EBEBEB"/>
<path d="M88.0012 170.739H40.7764V170.84H88.0012V170.739Z" fill="#EBEBEB"/>
<path d="M93.9481 141.931H-3.37427C-4.93667 141.931 -6.24707 140.626 -6.24707 139.071V2.86071C-6.24707 1.30488 -4.93667 0 -3.37427 0H93.9481C95.5105 0 96.8209 1.30488 96.8209 2.86071V139.071C96.8209 140.677 95.5609 141.931 93.9481 141.931ZM-3.37427 0.100376C-4.88627 0.100376 -6.14627 1.30488 -6.14627 2.86071V139.071C-6.14627 140.576 -4.93667 141.831 -3.37427 141.831H93.9481C95.4601 141.831 96.7201 140.626 96.7201 139.071V2.86071C96.7201 1.35507 95.5105 0.100376 93.9481 0.100376H-3.37427Z" fill="#EBEBEB"/>
<path d="M202.963 141.931H105.64C104.078 141.931 102.768 140.626 102.768 139.071V2.86071C102.768 1.30488 104.078 0 105.64 0H202.963C204.525 0 205.836 1.30488 205.836 2.86071V139.071C205.836 140.677 204.576 141.931 202.963 141.931ZM105.64 0.100376C104.128 0.100376 102.868 1.30488 102.868 2.86071V139.071C102.868 140.576 104.078 141.831 105.64 141.831H202.963C204.475 141.831 205.735 140.626 205.735 139.071V2.86071C205.735 1.35507 204.525 0.100376 202.963 0.100376H105.64Z" fill="#EBEBEB"/>
<path d="M136.082 16.9133H9.27539V89.234H136.082V16.9133Z" fill="#E6E6E6"/>
<path d="M137.997 16.9133H10.1826V89.234H137.997V16.9133Z" fill="#F0F0F0"/>
<path d="M135.312 86.3049V19.8562L12.7901 19.8562L12.7901 86.3049L135.312 86.3049Z" fill="#FAFAFA"/>
<path d="M27.8223 86.2729L43.3455 19.8242H63.6567L48.1335 86.2729H27.8223Z" fill="white"/>
<path d="M51.46 86.2729L66.9328 19.8242H76.1056L60.6328 86.2729H51.46Z" fill="white"/>
<path d="M87.8486 86.2729L103.321 19.8242H118.996L103.523 86.2729H87.8486Z" fill="white"/>
<path d="M135.32 86.297V19.8482H134.968V86.297H135.32Z" fill="#E6E6E6"/>
<path d="M77.8702 16.9133H70.2598V89.234H77.8702V16.9133Z" fill="#F0F0F0"/>
<path d="M70.252 86.2993L70.252 19.8506H69.8992L69.8992 86.2993H70.252Z" fill="#E6E6E6"/>
<path d="M74.1905 16.9133H73.9385V89.234H74.1905V16.9133Z" fill="#E6E6E6"/>
<path d="M90.3192 117.54H79.584V164.365H90.3192V117.54Z" fill="#E6E6E6"/>
<path d="M85.6828 164.315H90.3196V156.586H80.7939L85.6828 164.315Z" fill="#F5F5F5"/>
<path d="M6.90708 117.54H-3.82812V164.365H6.90708V117.54Z" fill="#E6E6E6"/>
<path d="M90.319 117.54H2.875V161.705H90.319V117.54Z" fill="#F5F5F5"/>
<path d="M7.5118 164.315H2.875V156.586H12.4006L7.5118 164.315Z" fill="#F5F5F5"/>
<path d="M86.7407 121.254H6.50391V137.515H86.7407V121.254Z" fill="#F0F0F0"/>
<path d="M46.622 134.152C44.0012 134.152 41.834 131.994 41.834 129.384C41.834 126.775 43.9508 124.616 46.622 124.616C49.2428 124.616 51.41 126.775 51.41 129.384C51.3596 131.994 49.2428 134.152 46.622 134.152ZM46.622 125.118C44.2532 125.118 42.338 127.025 42.338 129.384C42.338 131.743 44.2532 133.65 46.622 133.65C48.9908 133.65 50.906 131.743 50.906 129.384C50.8556 127.025 48.9404 125.118 46.622 125.118Z" fill="white"/>
<path d="M86.7407 141.429H6.50391V157.69H86.7407V141.429Z" fill="#F0F0F0"/>
<path d="M46.622 154.328C44.0012 154.328 41.834 152.17 41.834 149.56C41.834 146.95 44.0012 144.792 46.622 144.792C49.2428 144.792 51.41 146.95 51.41 149.56C51.41 152.17 49.2428 154.328 46.622 154.328ZM46.622 145.344C44.2532 145.344 42.338 147.251 42.338 149.61C42.338 151.969 44.2532 153.876 46.622 153.876C48.9908 153.876 50.906 151.969 50.906 149.61C50.906 147.251 48.9404 145.344 46.622 145.344Z" fill="white"/>
<path d="M101.234 164.352H136.968V129.672H101.234V164.352Z" fill="#E6E6E6"/>
<path d="M183.911 129.635H136.938V164.315H183.911V129.635Z" fill="#F0F0F0"/>
<path opacity="0.7" d="M101.262 132.472H183.918V126.7L101.262 126.7V132.472Z" fill="#E6E6E6"/>
<path d="M99.3827 129.658H136.931V126.345H99.3827V129.658Z" fill="#E6E6E6"/>
<path d="M185.675 126.323H136.938V129.635H185.675V126.323Z" fill="#F0F0F0"/>
<path d="M199.601 157.108C202.514 150.845 199.778 143.417 193.488 140.516C187.199 137.615 179.739 140.341 176.826 146.603C173.913 152.866 176.65 160.294 182.939 163.195C189.228 166.096 196.688 163.371 199.601 157.108Z" fill="#E6E6E6"/>
<path opacity="0.7" d="M185.323 142.634C184.265 142.835 183.307 142.584 183.257 142.032C183.156 141.53 183.962 140.928 185.021 140.727C186.079 140.526 187.037 140.777 187.087 141.329C187.188 141.881 186.381 142.433 185.323 142.634Z" fill="#E6E6E6"/>
<path opacity="0.7" d="M180.53 145.712C181.288 144.939 181.597 144.014 181.219 143.645C180.841 143.277 179.919 143.606 179.16 144.379C178.401 145.152 178.093 146.077 178.471 146.445C178.849 146.813 179.771 146.485 180.53 145.712Z" fill="#E6E6E6"/>
<path opacity="0.7" d="M184.768 147.201C183.912 147.853 182.904 147.954 182.5 147.402C182.097 146.9 182.45 145.946 183.307 145.294C184.164 144.641 185.172 144.541 185.575 145.093C185.978 145.595 185.625 146.549 184.768 147.201Z" fill="#E6E6E6"/>
<path d="M191.472 25.4954H155.335V80.6519H191.472V25.4954Z" fill="#E6E6E6"/>
<path d="M194.546 25.4954H156.191V80.6519H194.546V25.4954Z" fill="#F5F5F5"/>
<path d="M192.087 78.2014V27.9131L158.621 27.9131V78.2014H192.087Z" fill="white"/>
<path d="M186.189 54.4625V51.6519L164.517 51.6519V54.4625L186.189 54.4625Z" fill="#F5F5F5"/>
<path d="M186.203 47.3492V44.5387L164.531 44.5387V47.3492L186.203 47.3492Z" fill="#F5F5F5"/>
<path d="M186.166 40.236V37.4255L164.494 37.4255V40.236L186.166 40.236Z" fill="#F5F5F5"/>
<path d="M186.177 61.5757V58.7652L164.505 58.7652V61.5757L186.177 61.5757Z" fill="#F5F5F5"/>
<path d="M186.163 68.689V65.8784H164.491V68.689H186.163Z" fill="#F5F5F5"/>
<path d="M100.5 187C154.472 187 198.226 184.461 198.226 181.329C198.226 178.197 154.472 175.658 100.5 175.658C46.5277 175.658 2.77441 178.197 2.77441 181.329C2.77441 184.461 46.5277 187 100.5 187Z" fill="#F5F5F5"/>
<path d="M81.2468 176.962L85.0268 175.908L83.6156 166.824L79.7852 167.878L81.2468 176.962Z" fill="#FFC3BD"/>
<path d="M48.7393 177.063H52.6705L53.6785 167.929H49.6969L48.7393 177.063Z" fill="#FFC3BD"/>
<path d="M53.023 176.611H48.1846C48.0334 176.611 47.8822 176.711 47.8318 176.862L47.0254 180.375C46.9246 180.726 47.227 181.078 47.6302 181.078C49.1926 181.028 50.3014 180.977 52.267 180.977C53.4766 180.977 57.1054 181.078 58.7686 181.078C60.3814 181.078 60.6334 179.422 59.9782 179.271C56.9038 178.619 54.6358 177.665 53.6278 176.812C53.4766 176.661 53.2246 176.611 53.023 176.611Z" fill="#263238"/>
<path d="M84.8756 175.457L80.6924 176.611C80.5412 176.661 80.4404 176.812 80.4404 176.962L80.642 180.576C80.642 180.927 81.0452 181.228 81.398 181.078C82.91 180.626 85.0268 179.974 86.942 179.422C89.1596 178.819 91.0748 178.418 93.6956 177.715C95.258 177.264 95.258 175.607 94.5524 175.607C91.3772 175.758 88.9076 176.36 85.8836 175.507C85.5812 175.407 85.2284 175.407 84.8756 175.457Z" fill="#263238"/>
<path d="M70.4108 53.5002C70.562 53.701 70.814 53.9519 71.0156 54.2029L71.6708 54.9055C72.074 55.3572 72.5276 55.8591 72.9812 56.3108C73.8884 57.2141 74.7956 58.1175 75.7532 58.9205C77.6684 60.5265 79.7348 61.9318 81.7004 62.5341C81.9524 62.6344 82.2044 62.6846 82.4564 62.7348L82.8092 62.785C83.0108 62.8352 82.8092 62.785 82.8092 62.8352C82.7588 62.8352 82.8596 62.8854 83.0108 62.785C83.162 62.7348 83.3636 62.6344 83.6156 62.5341C84.0692 62.2831 84.5732 61.982 85.0268 61.6307C85.5308 61.2794 86.0348 60.8779 86.4884 60.4764C88.454 58.8202 90.4196 56.913 92.3348 55.0059L94.7036 56.7625C93.2924 59.2217 91.6796 61.5303 89.7644 63.7386C88.7564 64.8427 87.7484 65.8966 86.3372 66.9004C85.9844 67.1513 85.5812 67.4023 85.1276 67.603C84.674 67.8038 84.1196 68.0547 83.3636 68.1551C83.0108 68.2053 82.4564 68.2053 82.3052 68.1551L81.65 68.1049C81.1964 68.0547 80.7932 67.9543 80.3396 67.854C79.4828 67.6532 78.6764 67.4023 77.9708 67.1012C77.2148 66.8 76.5092 66.4487 75.8036 66.0472C74.4428 65.2944 73.1828 64.391 71.9732 63.4876C70.814 62.5341 69.7052 61.5805 68.6468 60.5265C68.1428 60.0247 67.6388 59.4726 67.1348 58.9205C66.8828 58.6696 66.6308 58.3685 66.4292 58.0673C66.1772 57.7662 65.9756 57.5153 65.7236 57.164L70.4108 53.5002Z" fill="#FFC3BD"/>
<path d="M71.7715 65.5453L73.3339 67.1011L80.4403 61.4299L77.8699 59.4726L71.7715 65.5453Z" fill="#263238"/>
<path d="M63.4561 55.2066C63.1537 58.9707 71.6713 66.6495 71.6713 66.6495L79.1809 60.1752C79.1809 60.1752 76.0057 56.8127 72.4777 53.5003C70.0585 51.1414 63.8089 51.1414 63.4561 55.2066Z" fill="#263238"/>
<path d="M91.9824 56.3108L93.0912 52.9984L97.5264 54.1527C97.5264 54.1527 96.1152 55.8089 94.5024 57.0134L91.9824 56.3108Z" fill="#FFC3BD"/>
<path d="M94.8548 51.5429L98.534 52.8478L97.526 54.1025L93.0908 52.9984L94.8548 51.5429Z" fill="#FFC3BD"/>
<path opacity="0.2" d="M83.6156 166.824L84.3716 171.492L80.5412 172.546L79.7852 167.878L83.6156 166.824Z" fill="black"/>
<path opacity="0.2" d="M49.6964 167.929H53.678L53.174 172.646H49.1924L49.6964 167.929Z" fill="black"/>
<path d="M47.3779 53.3497C48.5875 57.716 49.3939 62.1326 49.8979 66.3483C50.2507 69.4098 50.5027 72.3207 50.6539 74.9807C51.0067 81.204 50.8555 85.9216 51.0067 87.5276C54.0811 87.3269 65.7739 86.5239 72.1747 86.0722C75.0475 63.6382 69.5539 52.0448 69.5539 52.0448C69.5539 52.0448 67.2355 51.5931 64.5139 51.4426C64.1611 51.4426 63.8083 51.3924 63.4051 51.3924C60.9859 51.3422 57.1051 51.6935 54.4339 51.9946C53.8795 52.0448 53.2747 52.1452 52.7203 52.2456C49.8475 52.6972 47.3779 53.3497 47.3779 53.3497Z" fill="#F2B705"/>
<path opacity="0.5" d="M47.3779 53.3497C48.5875 57.716 49.3939 62.1326 49.8979 66.3483C50.2507 69.4098 50.5027 72.3207 50.6539 74.9807C51.0067 81.204 50.8555 85.9216 51.0067 87.5276C54.0811 87.3269 65.7739 86.5239 72.1747 86.0722C75.0475 63.6382 69.5539 52.0448 69.5539 52.0448C69.5539 52.0448 67.2355 51.5931 64.5139 51.4426C64.1611 51.4426 63.8083 51.3924 63.4051 51.3924C60.9859 51.3422 57.1051 51.6935 54.4339 51.9946C53.8795 52.0448 53.2747 52.1452 52.7203 52.2456C49.8475 52.6972 47.3779 53.3497 47.3779 53.3497Z" fill="#F2B705"/>
<path d="M54.3835 51.9946C57.0547 51.6935 60.9859 51.3422 63.3547 51.3924C63.7075 51.3924 64.1107 51.3924 64.4635 51.4426C64.5139 51.4426 64.5643 51.4426 64.5643 51.4426C65.2195 52.7474 66.0259 56.7123 63.1027 57.1138C59.1211 57.6658 54.5851 54.2029 52.6699 52.2957C53.2243 52.1452 53.8291 52.0448 54.3835 51.9946Z" fill="#263238"/>
<path opacity="0.2" d="M52.7203 59.0711C52.7203 62.5843 51.7627 65.5955 50.0995 68.2053C50.0491 67.603 49.9483 67.0008 49.8979 66.3985C49.5955 64.0899 49.2427 61.7311 48.7891 59.322L52.7203 59.0711Z" fill="black"/>
<path d="M54.5854 41.8567C55.3414 44.7174 56.299 49.9369 54.3838 51.9946C55.9966 53.3999 58.2646 54.5542 61.4902 54.2531C63.9598 54.0021 63.9598 52.2957 63.355 51.3422C60.079 50.7901 59.9782 48.4313 60.3814 46.1226L54.5854 41.8567Z" fill="#FFC3BD"/>
<path opacity="0.2" d="M56.9544 43.6133L60.432 46.1728C60.3312 46.7249 60.2808 47.277 60.2808 47.7788C59.0208 47.6785 57.2568 46.474 57.0048 45.1691C56.904 44.5166 56.8536 43.9144 56.9544 43.6133Z" fill="black"/>
<path d="M69.1008 26.8505C70.5624 29.912 64.8168 37.3899 60.0792 36.5869C57.8112 36.1854 54.7368 35.3824 52.2168 34.6798C49.9488 34.0274 49.092 31.0161 51.2592 30.6146C58.668 29.3097 66.6816 21.7313 69.1008 26.8505Z" fill="#263238"/>
<path d="M53.9298 37.5405C54.4338 41.405 54.5346 43.7136 56.6514 45.5706C59.8266 48.3811 64.5642 46.2732 65.2194 42.3084C65.8242 38.745 64.8666 32.9734 60.9354 31.7187C57.0546 30.464 53.4258 33.6761 53.9298 37.5405Z" fill="#FFC3BD"/>
<path d="M61.4901 42.5091C59.8773 42.6095 59.0708 41.5555 59.0204 41.5054C58.97 41.4552 59.0204 41.405 59.0204 41.3548C59.0708 41.3046 59.1212 41.3548 59.1716 41.3548C59.1716 41.3548 59.978 42.3585 61.4396 42.2582C61.49 42.2582 61.5404 42.3084 61.5404 42.3586C61.5908 42.4589 61.5405 42.5091 61.4901 42.5091Z" fill="#263238"/>
<path d="M56.6518 39.2971C58.1134 36.085 58.4662 32.8228 55.7446 31.8191C53.023 30.8153 50.755 32.1704 49.999 34.1779C49.2934 36.1854 54.4846 43.9645 56.6518 39.2971Z" fill="#263238"/>
<path d="M53.5771 33.1742C56.2987 35.1315 65.5724 35.2319 64.262 31.7689C63.3044 29.1591 56.8531 29.2595 53.5771 33.1742Z" fill="#263238"/>
<path d="M52.468 41.957C53.0728 42.8102 54.0304 43.3121 54.8872 43.4125C56.1976 43.6132 56.6512 42.4087 56.1472 41.2544C55.6936 40.2506 54.484 38.8956 53.224 39.2469C52.0648 39.5982 51.7624 40.9533 52.468 41.957Z" fill="#FFC3BD"/>
<path d="M85.5305 170.237L79.0793 171.994C79.0793 171.994 70.9649 146.549 68.9993 132.596C68.4953 128.882 67.6384 123.663 66.4288 118.142C64.8664 111.166 62.9009 103.588 61.2881 97.6656C59.5745 91.4423 58.3145 87.0257 58.3145 87.0257L72.2248 86.0722C72.2248 86.0722 79.7344 118.744 80.5408 130.739C81.2968 143.236 85.5305 170.237 85.5305 170.237Z" fill="#407BFF"/>
<path opacity="0.3" d="M85.5305 170.237L79.0793 171.994C79.0793 171.994 70.9649 146.549 68.9993 132.596C68.4953 128.882 67.6384 123.663 66.4288 118.142C64.8664 111.166 62.9009 103.588 61.2881 97.6656C59.5745 91.4423 58.3145 87.0257 58.3145 87.0257L72.2248 86.0722C72.2248 86.0722 79.7344 118.744 80.5408 130.739C81.2968 143.236 85.5305 170.237 85.5305 170.237Z" fill="#FAFAFA"/>
<path opacity="0.2" d="M66.3791 118.142C64.8167 111.166 62.8511 103.588 61.2383 97.6656L62.6999 94.5539C66.1271 98.6693 67.0847 111.266 66.3791 118.142Z" fill="black"/>
<path d="M64.6655 86.5741C64.6655 86.5741 63.1535 120.351 61.4903 131.793C59.6759 144.34 54.9887 171.693 54.9887 171.693H47.7311C47.7311 171.693 47.6303 145.746 49.8983 133.6C52.4687 119.798 51.0071 87.5276 51.0071 87.5276L64.6655 86.5741Z" fill="#407BFF"/>
<path opacity="0.3" d="M64.6655 86.5741C64.6655 86.5741 63.1535 120.351 61.4903 131.793C59.6759 144.34 54.9887 171.693 54.9887 171.693H47.7311C47.7311 171.693 47.6303 145.746 49.8983 133.6C52.4687 119.798 51.0071 87.5276 51.0071 87.5276L64.6655 86.5741Z" fill="#FAFAFA"/>
<path d="M55.8457 171.893H47.3281V169.334L56.8537 169.183L55.8457 171.893Z" fill="#407BFF"/>
<path d="M85.9846 170.287L78.6766 172.295L77.6182 169.786L85.9846 167.477V170.287Z" fill="#407BFF"/>
<path d="M59.9277 38.193C59.9277 38.4941 60.1293 38.745 60.3309 38.745C60.5325 38.745 60.6837 38.4439 60.6837 38.1428C60.6837 37.8416 60.4821 37.5907 60.2805 37.5907C60.0789 37.6409 59.9277 37.8918 59.9277 38.193Z" fill="#263238"/>
<path d="M63.5565 37.942C63.5565 38.2431 63.7581 38.4941 63.9597 38.4941C64.1613 38.4941 64.3125 38.1929 64.3125 37.8918C64.3125 37.5907 64.1109 37.3398 63.9093 37.3398C63.6573 37.3899 63.5061 37.6409 63.5565 37.942Z" fill="#263238"/>
<path d="M62.3975 38.193C62.3975 38.193 63.2543 39.9495 64.1111 40.8027C63.6071 41.3548 62.5487 41.1039 62.5487 41.1039L62.3975 38.193Z" fill="#ED847E"/>
<path d="M58.7179 37.139C58.7683 37.139 58.8691 37.139 58.9195 37.0386C59.3731 36.336 60.0787 36.336 60.0787 36.336C60.1795 36.336 60.2803 36.2356 60.2803 36.1353C60.2803 36.0349 60.1795 35.9345 60.0787 35.9345C60.0283 35.9345 59.1715 35.9345 58.6171 36.7877C58.5667 36.8881 58.5667 36.9885 58.6675 37.0386C58.6675 37.139 58.7179 37.139 58.7179 37.139Z" fill="#263238"/>
<path d="M65.0182 36.6371C65.0686 36.6371 65.119 36.6371 65.119 36.6371C65.2198 36.5869 65.2198 36.4866 65.1694 36.3862C64.6654 35.4828 63.8086 35.4326 63.7582 35.4326C63.6574 35.4326 63.5566 35.4828 63.5566 35.6334C63.5566 35.7337 63.6574 35.8341 63.7078 35.8341C63.7582 35.8341 64.4134 35.8843 64.8166 36.5869C64.867 36.5869 64.9174 36.6371 65.0182 36.6371Z" fill="#263238"/>
<path d="M54.3334 177.264C54.6358 177.264 54.9382 177.213 55.0894 177.063C55.2406 176.962 55.291 176.762 55.291 176.561C55.291 176.41 55.1902 176.31 55.1398 176.31C54.6862 176.109 53.4262 176.862 53.275 176.962C53.2246 176.962 53.2246 177.013 53.2246 177.063C53.2246 177.113 53.275 177.113 53.275 177.163C53.5774 177.213 53.9302 177.264 54.3334 177.264ZM54.8878 176.461C54.9382 176.461 54.9886 176.461 54.9886 176.461C55.039 176.461 55.039 176.511 55.039 176.561C55.039 176.711 54.9886 176.812 54.8878 176.912C54.6862 177.113 54.1318 177.113 53.4766 176.962C53.9806 176.762 54.5854 176.461 54.8878 176.461Z" fill="#407BFF"/>
<path d="M53.3254 177.163C53.779 176.912 54.5854 176.059 54.4846 175.607C54.4846 175.507 54.4342 175.407 54.1822 175.356C54.031 175.356 53.8798 175.356 53.779 175.457C53.3254 175.808 53.2246 176.962 53.2246 177.013C53.2246 177.063 53.2246 177.063 53.275 177.113C53.275 177.163 53.275 177.163 53.3254 177.163ZM54.0814 175.557C54.1318 175.557 54.1318 175.557 54.0814 175.557C54.2326 175.557 54.2326 175.607 54.283 175.658C54.3334 175.908 53.8294 176.561 53.4262 176.862C53.4766 176.511 53.5774 175.858 53.8798 175.607C53.9302 175.557 54.031 175.557 54.0814 175.557Z" fill="#407BFF"/>
<path d="M85.43 175.908C86.0852 175.858 87.2444 175.708 87.5468 175.206C87.6476 175.055 87.6476 174.905 87.5972 174.704C87.5468 174.604 87.4964 174.553 87.3956 174.503C86.8412 174.403 85.5308 175.557 85.3796 175.708C85.3292 175.758 85.3292 175.758 85.3796 175.808C85.3292 175.858 85.3796 175.908 85.43 175.908ZM87.2948 174.704C87.3452 174.704 87.3956 174.754 87.3956 174.804C87.446 174.905 87.446 175.005 87.3452 175.105C87.1436 175.356 86.5388 175.607 85.682 175.657C86.2364 175.206 86.9924 174.654 87.2948 174.704Z" fill="#407BFF"/>
<path d="M85.4299 175.908H85.4803C85.8835 175.557 86.5891 174.503 86.3875 174.102C86.3371 174.001 86.2363 173.901 85.9843 173.951C85.7827 174.001 85.6315 174.102 85.5307 174.252C85.1779 174.804 85.3291 175.858 85.3291 175.858C85.3291 175.858 85.3795 175.858 85.4299 175.908C85.3795 175.908 85.3795 175.908 85.4299 175.908ZM86.1355 174.102C86.1859 174.102 86.2363 174.152 86.2363 174.152C86.3371 174.403 85.8835 175.206 85.5307 175.607C85.4803 175.306 85.4803 174.654 85.7323 174.302C85.8331 174.202 85.9339 174.102 86.0851 174.102C86.0347 174.051 86.0851 174.051 86.1355 174.102Z" fill="#407BFF"/>
<path d="M47.2773 86.2227C47.2269 85.3696 46.6221 84.6669 45.8661 84.5665L34.0725 83.2617C33.1653 83.1613 32.3589 83.9141 32.2581 84.9681L28.7805 115.482C28.6797 116.536 29.2845 117.44 30.1917 117.54L67.6389 121.756C68.5461 121.856 69.3525 121.103 69.4533 120.049L72.3765 94.4034C72.4773 93.3494 71.8725 92.446 70.9653 92.3457L50.6037 90.037C48.8397 89.8865 47.4789 88.2804 47.2773 86.2227Z" fill="#263238"/>
<path d="M52.2667 92.9479C52.3171 92.1951 51.8131 91.5929 51.0571 91.4925L39.2635 90.1876C38.3563 90.0872 37.3987 90.7397 37.1467 91.643L29.6875 115.834C29.3851 116.737 29.8891 117.54 30.7963 117.64L68.2435 121.856C69.1507 121.957 70.1083 121.304 70.3603 120.401L76.5091 100.476C76.8115 99.5727 76.3075 98.7697 75.4003 98.6693L55.0387 96.3607C53.2747 96.1098 52.1155 94.7045 52.2667 92.9479Z" fill="#F2B705"/>
<path d="M41.6869 111.292L43.2461 100.488L45.3143 100.786L48.8134 109.075L47.7175 108.916L53.3402 101.944L55.393 102.241L53.8646 113.049L51.5186 112.711L52.5434 105.501L52.9755 105.563L48.4885 111.107L47.3618 110.945L44.5484 104.347L45.0731 104.422L44.0329 111.63L41.6869 111.292Z" fill="#533E00"/>
<path d="M55.3966 113.27L56.9688 102.377L61.57 103.041C62.5217 103.178 63.3185 103.457 63.9605 103.878C64.604 104.289 65.0704 104.817 65.3596 105.462C65.6489 106.108 65.7343 106.84 65.616 107.66C65.4993 108.469 65.2109 109.142 64.751 109.68C64.291 110.217 63.6937 110.597 62.9588 110.819C62.2255 111.031 61.383 111.068 60.4313 110.931L57.1968 110.464L58.4541 109.486L57.8567 113.625L55.3966 113.27ZM58.4137 109.766L57.4932 108.41L60.5911 108.857C61.3504 108.967 61.9413 108.882 62.3638 108.604C62.7863 108.326 63.0402 107.892 63.1256 107.3C63.2124 106.699 63.0925 106.205 62.7658 105.819C62.4392 105.433 61.8962 105.185 61.1369 105.075L58.039 104.628L59.3053 103.588L58.4137 109.766Z" fill="#533E00"/>
<path d="M51.6113 59.1715L50.5025 60.7775C50.1497 61.3296 49.7465 61.8817 49.3937 62.4337C48.6881 63.5379 47.9825 64.642 47.2769 65.7963C46.6217 66.9004 45.9665 68.0548 45.3617 69.2091C44.8073 70.3634 44.2529 71.5177 43.7993 72.672L43.7489 72.7724V72.8226C43.7489 72.8728 43.7489 72.8728 43.6985 72.923C43.6985 73.0234 43.6481 73.0735 43.6481 73.1739C43.5977 73.3747 43.5977 73.6256 43.5473 73.9267C43.4969 74.4788 43.4969 75.0811 43.5473 75.6833C43.5977 76.938 43.7489 78.2429 43.9505 79.5478C44.3537 82.1576 44.8073 84.8677 45.3617 87.5277L42.5393 88.4812C41.3297 85.8715 40.3721 83.2617 39.5657 80.5013C39.1625 79.1463 38.8097 77.741 38.5577 76.2354C38.4569 75.4826 38.3561 74.7297 38.3057 73.8766C38.3057 73.475 38.3057 73.0234 38.3561 72.5717C38.3561 72.3207 38.4065 72.0698 38.4569 71.8189L38.5577 71.4173L38.6081 71.2166L38.6585 71.066C39.5153 68.105 40.7249 65.445 42.0857 62.9356C42.7913 61.6809 43.4969 60.4262 44.3033 59.2217C44.7065 58.6194 45.1097 58.0172 45.5129 57.4149C45.9161 56.8127 46.3193 56.2606 46.8233 55.6584L51.6113 59.1715Z" fill="#FFC3BD"/>
<path d="M41.1789 62.6847L39.9189 64.4914L46.6725 70.514L48.1845 67.7034L41.1789 62.6847Z" fill="#263238"/>
<path d="M47.3781 53.3497C43.6485 54.1025 40.4229 63.1363 40.4229 63.1363L48.1844 69.4098C48.1844 69.4098 50.7045 64.7925 52.7709 60.376C54.9381 55.6082 51.8637 52.4463 47.3781 53.3497Z" fill="#263238"/>
<path d="M45.0088 86.6744L47.68 89.6857L42.8416 91.1412C42.8416 91.1412 41.128 88.0797 42.64 87.0258L45.0088 86.6744Z" fill="#FFC3BD"/>
<path d="M47.9322 92.9479L43.8498 94.0019L42.8418 91.1412L47.6802 89.6857L47.9322 92.9479Z" fill="#FFC3BD"/>
<path d="M138.703 39.2971C138.451 38.4439 137.695 37.942 136.939 37.9922L125.146 39.3473C124.239 39.4477 123.634 40.4012 123.735 41.405L127.263 71.9192C127.363 72.9732 128.22 73.726 129.077 73.6256L166.474 69.3596C167.381 69.2593 167.986 68.3057 167.885 67.3019L164.911 41.7061C164.811 40.6522 163.954 39.8993 163.097 39.9997L142.735 42.3084C141.022 42.4589 139.308 41.2544 138.703 39.2971Z" fill="#263238"/>
<path d="M144.348 28.1554C146.918 39.3975 148.632 50.9407 149.338 62.6846C140.064 63.7888 130.74 64.642 121.466 65.2944C120.761 52.3961 118.694 39.799 115.469 27.7037C122.021 25.9471 128.573 24.04 135.074 22.0325C138.199 23.9898 141.274 26.0475 144.348 28.1554Z" fill="#FFF3D0"/>
<path opacity="0.7" d="M144.348 28.1554C146.918 39.3975 148.632 50.9407 149.338 62.6846C140.064 63.7888 130.74 64.642 121.466 65.2944C120.761 52.3961 118.694 39.799 115.469 27.7037C122.021 25.9471 128.573 24.04 135.074 22.0325C138.199 23.9898 141.274 26.0475 144.348 28.1554Z" fill="#F2B705"/>
<path d="M142.785 33.9772C135.528 35.7839 128.22 37.4401 120.912 38.9458C120.609 38.996 120.307 38.7952 120.206 38.4941C120.156 38.193 120.357 37.8416 120.66 37.7915C127.968 36.2356 135.225 34.5292 142.483 32.6723C142.785 32.5719 143.088 32.8229 143.188 33.1742C143.289 33.5255 143.088 33.927 142.785 33.9772Z" fill="white"/>
<path d="M143.542 38.0424C136.234 39.6986 128.926 41.2544 121.567 42.6095C121.265 42.6597 120.962 42.4589 120.912 42.1076C120.862 41.8065 121.063 41.4552 121.366 41.405C128.674 39.9997 135.982 38.3937 143.29 36.6873C143.592 36.6371 143.894 36.8379 143.995 37.1892C144.096 37.6409 143.894 37.9922 143.542 38.0424Z" fill="white"/>
<path d="M144.247 42.1578C136.889 43.7136 129.581 45.0687 122.222 46.3234C121.92 46.3736 121.618 46.1728 121.567 45.8215C121.517 45.5204 121.718 45.1691 122.071 45.1189C129.43 43.814 136.788 42.4088 144.096 40.8027C144.398 40.7526 144.701 40.9533 144.802 41.3548C144.802 41.7563 144.6 42.1076 144.247 42.1578Z" fill="white"/>
<path d="M144.902 46.2732C137.543 47.6785 130.185 48.9332 122.776 50.0373C122.474 50.0875 122.171 49.8366 122.121 49.5354C122.071 49.2343 122.272 48.883 122.625 48.8328C129.983 47.6785 137.392 46.3736 144.7 44.9683C145.003 44.9182 145.305 45.1691 145.355 45.5204C145.406 45.8717 145.204 46.223 144.902 46.2732Z" fill="white"/>
<path d="M136.637 51.8943C132.202 52.5969 127.716 53.1991 123.281 53.8014C122.978 53.8516 122.676 53.6006 122.626 53.2995C122.575 52.9482 122.827 52.6471 123.13 52.6471C127.565 52.0448 132.05 51.3924 136.486 50.6897C136.788 50.6396 137.09 50.8905 137.141 51.2418C137.191 51.4927 136.939 51.8441 136.637 51.8943Z" fill="white"/>
<path d="M144.348 28.1554C141.929 28.858 139.51 29.5105 137.04 30.1629C136.436 27.4528 135.73 24.7426 135.024 22.0827C138.2 23.9898 141.274 26.0475 144.348 28.1554Z" fill="#F2B705"/>
<path d="M145.053 44.6672C144.952 43.9144 144.348 43.4125 143.592 43.5129L131.798 44.868C130.891 44.9683 130.135 45.8215 130.034 46.7751L128.22 72.0196C128.169 72.9732 128.824 73.6256 129.732 73.5252L167.128 69.2593C168.036 69.1589 168.792 68.3057 168.892 67.3521L170.404 46.5743C170.455 45.6208 169.8 44.9683 168.892 45.0687L148.531 47.3773C146.767 47.5781 145.305 46.474 145.053 44.6672Z" fill="#F2B705"/>
<path d="M116.427 64.2907C115.368 74.6796 114.108 85.0182 112.546 95.3068C103.323 93.8513 94.15 92.4461 84.9268 91.091C86.7412 78.7448 88.2532 66.2982 89.362 53.8014C96.1156 54.4036 102.92 55.0561 109.673 55.7085C111.941 58.5191 114.159 61.3798 116.427 64.2907Z" fill="#FFF3D0"/>
<path opacity="0.7" d="M116.427 64.2907C115.368 74.6796 114.108 85.0182 112.546 95.3068C103.323 93.8513 94.15 92.4461 84.9268 91.091C86.7412 78.7448 88.2532 66.2982 89.362 53.8014C96.1156 54.4036 102.92 55.0561 109.673 55.7085C111.941 58.5191 114.159 61.3798 116.427 64.2907Z" fill="#F2B705"/>
<path d="M113.151 68.657C105.742 67.8038 98.3333 66.9506 90.9245 66.1476C90.6221 66.0974 90.3701 65.8465 90.4205 65.4952C90.4709 65.1941 90.7229 64.9431 91.0757 64.9933C98.4845 65.7963 105.893 66.5993 113.302 67.4525C113.605 67.5027 113.857 67.8038 113.806 68.105C113.756 68.4563 113.504 68.7072 113.151 68.657Z" fill="white"/>
<path d="M112.748 72.4211C105.339 71.5177 97.93 70.6143 90.5212 69.7612C90.2188 69.711 89.9668 69.4098 90.0172 69.1087C90.0676 68.8076 90.3196 68.5566 90.6724 68.6068C98.0812 69.46 105.49 70.3132 112.899 71.2166C113.201 71.2668 113.453 71.5679 113.403 71.869C113.352 72.2204 113.05 72.4713 112.748 72.4211Z" fill="white"/>
<path d="M112.293 76.1852C104.885 75.2316 97.4759 74.3283 90.0671 73.4249C89.7647 73.3747 89.5127 73.0736 89.5631 72.7724C89.6135 72.4713 89.9159 72.2204 90.2183 72.2706C97.6271 73.1238 105.036 74.0773 112.445 74.9807C112.747 75.0309 112.999 75.332 112.949 75.6331C112.898 75.9845 112.646 76.2354 112.293 76.1852Z" fill="white"/>
<path d="M111.84 79.9493C104.431 78.9455 97.0222 77.992 89.6638 77.0384C89.3614 76.9882 89.1094 76.6871 89.1598 76.386C89.2102 76.0848 89.5126 75.8339 89.815 75.8841C97.2238 76.7875 104.633 77.741 111.991 78.7448C112.293 78.795 112.545 79.0961 112.495 79.3972C112.445 79.7485 112.142 79.9493 111.84 79.9493Z" fill="white"/>
<path d="M102.567 82.4587C98.1314 81.8564 93.6458 81.2542 89.2106 80.6519C88.9082 80.6017 88.6562 80.3006 88.7066 79.9995C88.757 79.6984 89.0594 79.4474 89.3618 79.4976C93.797 80.0999 98.2826 80.6519 102.718 81.2542C103.02 81.3044 103.272 81.6055 103.222 81.9066C103.171 82.2579 102.869 82.5089 102.567 82.4587Z" fill="white"/>
<path d="M116.427 64.2907C113.957 63.9895 111.437 63.7386 108.968 63.4877C109.22 60.9281 109.472 58.3183 109.724 55.7587C111.941 58.5191 114.159 61.3798 116.427 64.2907Z" fill="#F2B705"/>
</g>
<defs>
<clipPath id="clip0_3771_934">
<rect width="252" height="187" fill="white" transform="translate(-25.5)"/>
</clipPath>
</defs>
</svg>
