<svg width="201" height="200" viewBox="0 0 201 200" fill="none" xmlns="http://www.w3.org/2000/svg">
<g clip-path="url(#clip0_3647_35398)">
<rect width="200" height="200" transform="translate(0.5)" fill="white"/>
<g clip-path="url(#clip1_3647_35398)">
<path d="M224.5 170.558H-23.5V170.657H224.5V170.558Z" fill="#EBEBEB"/>
<path d="M18.9567 175.324H2.53906V175.424H18.9567V175.324Z" fill="#EBEBEB"/>
<path d="M84.5284 173.984H61.3652V174.083H84.5284V173.984Z" fill="#EBEBEB"/>
<path d="M41.9724 179.147H32.4492V179.247H41.9724V179.147Z" fill="#EBEBEB"/>
<path d="M146.38 177.012H131.4V177.112H146.38V177.012Z" fill="#EBEBEB"/>
<path d="M160.368 177.012H150.795V177.112H160.368V177.012Z" fill="#EBEBEB"/>
<path d="M199.65 179.098H170.584V179.197H199.65V179.098Z" fill="#EBEBEB"/>
<path d="M94.0521 148.413H-1.72553C-3.26313 148.413 -4.55273 147.122 -4.55273 145.583V10.8301C-4.55273 9.29093 -3.26313 8 -1.72553 8H94.0521C95.5897 8 96.8793 9.29093 96.8793 10.8301V145.583C96.8793 147.172 95.6393 148.413 94.0521 148.413ZM-1.72553 8.0993C-3.21353 8.0993 -4.45353 9.29093 -4.45353 10.8301V145.583C-4.45353 147.073 -3.26313 148.314 -1.72553 148.314H94.0521C95.5401 148.314 96.7801 147.122 96.7801 145.583V10.8301C96.7801 9.34058 95.5897 8.0993 94.0521 8.0993H-1.72553Z" fill="#EBEBEB"/>
<path d="M201.337 148.413H105.56C104.022 148.413 102.732 147.122 102.732 145.583V10.8301C102.732 9.29093 104.022 8 105.56 8H201.337C202.875 8 204.164 9.29093 204.164 10.8301V145.583C204.164 147.172 202.924 148.413 201.337 148.413ZM105.56 8.0993C104.072 8.0993 102.832 9.29093 102.832 10.8301V145.583C102.832 147.073 104.022 148.314 105.56 148.314H201.337C202.825 148.314 204.065 147.122 204.065 145.583V10.8301C204.065 9.34058 202.875 8.0993 201.337 8.0993H105.56Z" fill="#EBEBEB"/>
<path d="M20.9157 102.461L138.914 102.461V28.5301L20.9157 28.5301L20.9157 102.461Z" fill="#F0F0F0"/>
<path d="M136.607 98.9863V32.007L23.2218 32.007L23.2218 98.9863L136.607 98.9863Z" fill="#FAFAFA"/>
<path d="M121.68 99.0105L110.024 32.0311H101.443L113.099 99.0105H121.68Z" fill="white"/>
<path d="M111.116 99.0105L99.5094 32.0311H95.6406L107.297 99.0105H111.116Z" fill="white"/>
<path d="M92.3657 99.0105L80.7097 32.0311H72.1289L83.7849 99.0105H92.3657Z" fill="white"/>
<path d="M70.7408 99.0105L59.0848 32.0311H55.2656L66.872 99.0105H70.7408Z" fill="white"/>
<path d="M106.826 99.0092L106.826 32.0298H106.231L106.231 99.0092H106.826Z" fill="#E0E0E0"/>
<path d="M136.617 98.9774V31.998H136.022V98.9774H136.617Z" fill="#E0E0E0"/>
<path d="M109.117 98.9999L109.117 32.0206H106.786L106.786 98.9999H109.117Z" fill="#F0F0F0"/>
<path d="M78.1973 99.0182L78.1973 32.0389H77.6021L77.6021 99.0182H78.1973Z" fill="#E0E0E0"/>
<path d="M80.4883 99.0089L80.4883 32.0296H78.1571L78.1571 99.0089H80.4883Z" fill="#F0F0F0"/>
<path d="M49.5566 98.9913L49.5566 32.0119H48.9614L48.9614 98.9913H49.5566Z" fill="#E0E0E0"/>
<path d="M51.8477 98.982L51.8477 32.0026H49.5165L49.5165 98.982H51.8477Z" fill="#F0F0F0"/>
<path d="M20.9141 102.489L20.9141 28.5589H20.3189L20.3189 102.489H20.9141Z" fill="#E0E0E0"/>
<path d="M8.8893 23.4911H144.148C144.595 23.4911 144.942 23.1436 144.942 22.6967C144.942 22.2499 144.595 21.9023 144.148 21.9023H8.8893C8.4429 21.9023 8.0957 22.2499 8.0957 22.6967C8.1453 23.1436 8.4925 23.4911 8.8893 23.4911Z" fill="#E0E0E0"/>
<g opacity="0.6">
<path d="M90.9374 155.346H142.273L142.273 20.4442H90.9374L90.9374 155.346Z" fill="#F5F5F5"/>
<path d="M122.127 156.407H126.442L125.252 21.5547H123.317L122.127 156.407Z" fill="#E6E6E6"/>
<path d="M131.65 156.407H133.734L133.138 21.5547H132.196L131.65 156.407Z" fill="#E6E6E6"/>
<path d="M109.678 156.407H111.761L111.166 21.5547H110.223L109.678 156.407Z" fill="#E6E6E6"/>
<path d="M99.1113 156.407H101.195L100.599 21.5547H99.6569L99.1113 156.407Z" fill="#E6E6E6"/>
</g>
<g opacity="0.6">
<path d="M11.5521 155.345H37.1953L37.1953 20.443H11.5521L11.5521 155.345Z" fill="#F5F5F5"/>
<path d="M27.1406 156.407H29.323L28.6782 21.5547H27.7358L27.1406 156.407Z" fill="#E6E6E6"/>
<path d="M31.9023 156.407H32.9439L32.6463 21.5547H32.1999L31.9023 156.407Z" fill="#E6E6E6"/>
<path d="M20.9414 156.407H21.9334L21.6854 21.5547H21.1894L20.9414 156.407Z" fill="#E6E6E6"/>
<path d="M15.6348 156.407H16.6764L16.3788 21.5547H15.9324L15.6348 156.407Z" fill="#E6E6E6"/>
</g>
<path d="M189.631 41.2662H155.605V83.8172H189.631V41.2662Z" fill="#E6E6E6"/>
<path d="M191.119 41.2662H156.102V83.8172H191.119V41.2662Z" fill="#F5F5F5"/>
<path d="M188.451 80.807V44.3134L158.79 44.3134V80.807H188.451Z" fill="#FAFAFA"/>
<path d="M188.459 80.7981V44.3045H188.161V80.7981H188.459Z" fill="#E6E6E6"/>
<path d="M183.408 60.137C185.074 58.4695 185.074 55.7659 183.408 54.0984C181.742 52.4309 179.041 52.4309 177.376 54.0984C175.71 55.7659 175.71 58.4695 177.376 60.137C179.041 61.8045 181.742 61.8045 183.408 60.137Z" fill="#F0F0F0"/>
<path d="M179.733 69.7421C183.142 66.3295 183.142 60.7966 179.733 57.384C176.324 53.9714 170.797 53.9714 167.388 57.384C163.978 60.7966 163.978 66.3295 167.388 69.7421C170.797 73.1547 176.324 73.1547 179.733 69.7421Z" fill="white"/>
<path d="M171.269 58.1373C171.81 55.8422 170.391 53.5424 168.098 53.0005C165.805 52.4585 163.508 53.8797 162.967 56.1748C162.425 58.4698 163.845 60.7696 166.138 61.3116C168.43 61.8535 170.728 60.4323 171.269 58.1373Z" fill="#F0F0F0"/>
<path d="M154.614 119.914H149.951V167.38H154.614V119.914Z" fill="#F0F0F0"/>
<path d="M198.311 117.083H148.811V119.914H198.311V117.083Z" fill="#F0F0F0"/>
<path d="M195.286 167.38H151.836V170.558H195.286V167.38Z" fill="#F0F0F0"/>
<path d="M197.22 119.914H154.613V167.38H197.22V119.914Z" fill="#FAFAFA"/>
<path d="M158.478 139.752H193.297V125.204H158.478V139.752Z" fill="#F0F0F0"/>
<path d="M158.478 161.205H193.297V146.658H158.478V161.205Z" fill="#F0F0F0"/>
<path d="M179.86 126.616H171.924C171.428 126.616 171.031 126.219 171.031 125.723V125.276C171.031 124.779 171.428 124.382 171.924 124.382H179.86C180.356 124.382 180.753 124.779 180.753 125.276V125.723C180.753 126.219 180.356 126.616 179.86 126.616Z" fill="#FAFAFA"/>
<path d="M179.86 148.016H171.924C171.428 148.016 171.031 147.619 171.031 147.122V146.676C171.031 146.179 171.428 145.782 171.924 145.782H179.86C180.356 145.782 180.753 146.179 180.753 146.676V147.122C180.753 147.619 180.356 148.016 179.86 148.016Z" fill="#FAFAFA"/>
<path d="M71.5198 170.469C77.3604 169.52 81.3267 164.011 80.3788 158.164C79.4309 152.318 73.9277 148.347 68.0871 149.296C62.2465 150.245 58.2801 155.754 59.228 161.601C60.1759 167.447 65.6791 171.418 71.5198 170.469Z" fill="#EBEBEB"/>
<path d="M55.5194 170.385C62.7931 169.203 67.7327 162.343 66.5522 155.061C65.3717 147.78 58.5182 142.835 51.2445 144.017C43.9708 145.199 39.0312 152.059 40.2117 159.341C41.3922 166.622 48.2457 171.567 55.5194 170.385Z" fill="#F5F5F5"/>
<path d="M100.501 193C153.616 193 196.675 190.488 196.675 187.389C196.675 184.291 153.616 181.779 100.501 181.779C47.3849 181.779 4.32617 184.291 4.32617 187.389C4.32617 190.488 47.3849 193 100.501 193Z" fill="#F5F5F5"/>
<path d="M39.2942 78.8025C36.0206 78.8025 34.483 75.4758 34.4334 75.3765C34.2846 75.029 34.4334 74.6814 34.731 74.5325C35.0782 74.3835 35.4254 74.5325 35.5742 74.8304C35.5742 74.88 36.8638 77.5612 39.3934 77.5115C39.7406 77.5115 40.0382 77.8094 40.0382 78.157C40.0382 78.5046 39.7406 78.8025 39.3934 78.8025C39.3934 78.8025 39.3438 78.8025 39.2942 78.8025Z" fill="#F2B705"/>
<path d="M82.1471 32.9249C81.6511 32.9249 81.3535 32.8752 81.3039 32.8752C80.9567 32.8256 80.7087 32.478 80.7583 32.1304C80.8079 31.7829 81.1551 31.5346 81.5023 31.5843C81.5519 31.5843 84.5279 31.9815 85.8175 29.8961C86.0159 29.5982 86.4127 29.4989 86.7103 29.6975C87.0079 29.8961 87.1071 30.2933 86.9087 30.5913C85.6191 32.6269 83.3871 32.9249 82.1471 32.9249Z" fill="#F2B705"/>
<path opacity="0.6" d="M82.1471 32.9249C81.6511 32.9249 81.3535 32.8752 81.3039 32.8752C80.9567 32.8256 80.7087 32.478 80.7583 32.1304C80.8079 31.7829 81.1551 31.5346 81.5023 31.5843C81.5519 31.5843 84.5279 31.9815 85.8175 29.8961C86.0159 29.5982 86.4127 29.4989 86.7103 29.6975C87.0079 29.8961 87.1071 30.2933 86.9087 30.5913C85.6191 32.6269 83.3871 32.9249 82.1471 32.9249Z" fill="#F2B705"/>
<path d="M8.54139 57.8001C6.65659 57.8001 5.11899 56.7574 5.01979 56.7077C4.72219 56.5091 4.67259 56.1119 4.87099 55.814C5.06939 55.5161 5.46619 55.4665 5.76379 55.6651C5.81339 55.6651 8.29339 57.3532 10.3766 56.0126C10.6742 55.814 11.071 55.9133 11.2694 56.2112C11.4678 56.5091 11.3686 56.9063 11.071 57.1049C10.2278 57.6015 9.33499 57.8001 8.54139 57.8001Z" fill="#F2B705"/>
<path opacity="0.6" d="M8.54139 57.8001C6.65659 57.8001 5.11899 56.7574 5.01979 56.7077C4.72219 56.5091 4.67259 56.1119 4.87099 55.814C5.06939 55.5161 5.46619 55.4665 5.76379 55.6651C5.81339 55.6651 8.29339 57.3532 10.3766 56.0126C10.6742 55.814 11.071 55.9133 11.2694 56.2112C11.4678 56.5091 11.3686 56.9063 11.071 57.1049C10.2278 57.6015 9.33499 57.8001 8.54139 57.8001Z" fill="#F2B705"/>
<path d="M178.67 40.4222C176.785 40.4222 175.248 39.3795 175.149 39.3298C174.851 39.1312 174.802 38.734 175 38.4361C175.198 38.1382 175.595 38.0886 175.893 38.2872C175.942 38.2872 178.422 39.9753 180.505 38.6347C180.803 38.4361 181.2 38.5354 181.398 38.8333C181.597 39.1312 181.498 39.5284 181.2 39.727C180.357 40.2236 179.513 40.4222 178.67 40.4222Z" fill="#F2B705"/>
<path opacity="0.6" d="M178.67 40.4222C176.785 40.4222 175.248 39.3795 175.149 39.3298C174.851 39.1312 174.802 38.734 175 38.4361C175.198 38.1382 175.595 38.0886 175.893 38.2872C175.942 38.2872 178.422 39.9753 180.505 38.6347C180.803 38.4361 181.2 38.5354 181.398 38.8333C181.597 39.1312 181.498 39.5284 181.2 39.727C180.357 40.2236 179.513 40.4222 178.67 40.4222Z" fill="#F2B705"/>
<path d="M98.912 91.6621C95.8864 91.6621 94.2 88.7327 94.1504 88.5837C94.0016 88.2858 94.1008 87.8886 94.3984 87.69C94.696 87.5411 95.0928 87.6404 95.2912 87.9383C95.2912 87.9879 96.7792 90.5698 99.2592 90.3215C99.6064 90.2719 99.9536 90.5698 99.9536 90.9173C100.003 91.2649 99.7056 91.6124 99.3584 91.6124C99.2592 91.6621 99.0608 91.6621 98.912 91.6621Z" fill="#F2B705"/>
<path opacity="0.6" d="M98.912 91.6621C95.8864 91.6621 94.2 88.7327 94.1504 88.5837C94.0016 88.2858 94.1008 87.8886 94.3984 87.69C94.696 87.5411 95.0928 87.6404 95.2912 87.9383C95.2912 87.9879 96.7792 90.5698 99.2592 90.3215C99.6064 90.2719 99.9536 90.5698 99.9536 90.9173C100.003 91.2649 99.7056 91.6124 99.3584 91.6124C99.2592 91.6621 99.0608 91.6621 98.912 91.6621Z" fill="#F2B705"/>
<path d="M15.6844 104.969C15.3868 104.969 15.1388 104.77 15.0396 104.472C14.9404 104.125 15.1884 103.777 15.5356 103.678C15.5852 103.678 18.462 102.933 18.8588 100.45C18.9084 100.103 19.2556 99.8545 19.6028 99.9042C19.95 99.9538 20.198 100.301 20.1484 100.649C19.6028 103.976 15.982 104.919 15.8332 104.969C15.7836 104.919 15.734 104.969 15.6844 104.969Z" fill="#F2B705"/>
<path opacity="0.6" d="M15.6844 104.969C15.3868 104.969 15.1388 104.77 15.0396 104.472C14.9404 104.125 15.1884 103.777 15.5356 103.678C15.5852 103.678 18.462 102.933 18.8588 100.45C18.9084 100.103 19.2556 99.8545 19.6028 99.9042C19.95 99.9538 20.198 100.301 20.1484 100.649C19.6028 103.976 15.982 104.919 15.8332 104.969C15.7836 104.919 15.734 104.969 15.6844 104.969Z" fill="#F2B705"/>
<path d="M160.516 59.6868C160.219 59.6868 159.971 59.4882 159.872 59.1903C159.772 58.8427 160.02 58.4952 160.368 58.3959C160.417 58.3959 163.294 57.6511 163.691 55.1685C163.74 54.821 164.088 54.5727 164.435 54.6224C164.782 54.672 165.03 55.0196 164.98 55.3672C164.435 58.6938 160.814 59.6371 160.665 59.6868C160.616 59.6868 160.566 59.6868 160.516 59.6868Z" fill="#F2B705"/>
<path opacity="0.6" d="M160.516 59.6868C160.219 59.6868 159.971 59.4882 159.872 59.1903C159.772 58.8427 160.02 58.4952 160.368 58.3959C160.417 58.3959 163.294 57.6511 163.691 55.1685C163.74 54.821 164.088 54.5727 164.435 54.6224C164.782 54.672 165.03 55.0196 164.98 55.3672C164.435 58.6938 160.814 59.6371 160.665 59.6868C160.616 59.6868 160.566 59.6868 160.516 59.6868Z" fill="#F2B705"/>
<path d="M187.152 84.4627C187.102 84.4627 187.053 84.4627 187.053 84.4627C186.904 84.4131 183.234 83.7676 182.44 80.4906C182.341 80.1431 182.589 79.7955 182.936 79.6962C183.283 79.5969 183.63 79.8452 183.73 80.1927C184.275 82.6256 187.251 83.1718 187.301 83.1718C187.648 83.2214 187.896 83.569 187.846 83.9165C187.747 84.2144 187.499 84.4627 187.152 84.4627Z" fill="#F2B705"/>
<path d="M175.544 108.395C174.552 108.395 173.411 108.146 172.419 107.302C172.122 107.054 172.122 106.657 172.32 106.408C172.568 106.111 172.965 106.111 173.262 106.309C175.197 107.898 177.875 106.557 177.925 106.557C178.222 106.408 178.619 106.508 178.818 106.855C178.966 107.153 178.867 107.55 178.52 107.749C178.421 107.749 177.131 108.395 175.544 108.395Z" fill="#F2B705"/>
<path d="M145.091 26.9171C144.991 26.9171 144.892 26.8674 144.793 26.8178C144.644 26.7185 141.42 24.8814 141.817 21.5051C141.867 21.1575 142.164 20.9093 142.561 20.9093C142.908 20.9589 143.156 21.2568 143.156 21.6541C142.859 24.1366 145.487 25.6758 145.487 25.6758C145.785 25.8744 145.884 26.2716 145.735 26.5695C145.537 26.7681 145.339 26.9171 145.091 26.9171Z" fill="#F2B705"/>
<path d="M15.5858 29.5486C15.2386 29.5486 14.9906 29.3003 14.941 28.9528C14.8914 28.6052 15.189 28.2577 15.5362 28.2577C18.0162 28.0591 19.0082 25.1793 19.0082 25.1793C19.1074 24.8317 19.5042 24.6331 19.8514 24.7821C20.1986 24.8814 20.397 25.2786 20.2482 25.6261C20.1986 25.7751 19.0082 29.35 15.6354 29.5982C15.6354 29.5486 15.5858 29.5486 15.5858 29.5486Z" fill="#F2B705"/>
<path d="M63.9933 49.2104C62.2077 50.0545 60.6701 53.9769 61.1661 59.6868C61.6621 65.3967 49.9069 61.3749 48.3197 67.7799C45.4429 79.299 64.8365 86.2501 73.0701 79.299C78.1789 75.029 82.9901 60.8784 82.2957 53.1328C81.5021 44.8411 68.6557 39.2802 63.9933 49.2104Z" fill="#263238"/>
<path d="M82.5938 63.7582C82.7922 63.7085 83.1394 63.6092 83.3874 63.5099L84.2306 63.212C84.7762 63.0134 85.3714 62.8148 85.917 62.5665C87.0578 62.1197 88.149 61.5735 89.1906 61.0274C91.2738 59.8357 93.2082 58.4455 94.6962 56.7077C96.085 55.0196 97.1266 52.7853 97.8706 50.4517C98.2674 49.2601 98.6146 48.0684 98.9122 46.8271C99.2098 45.6355 99.4578 44.3446 99.6562 43.153L101.69 43.3019C101.69 46.0327 101.392 48.6146 100.797 51.2957C100.499 52.6363 100.103 53.9273 99.6066 55.2182C99.061 56.5091 98.4658 57.8 97.5234 59.0413C95.7378 61.3749 93.5554 63.1624 91.125 64.5526C89.9346 65.2477 88.6946 65.8932 87.4546 66.4393C86.8098 66.6876 86.165 66.9358 85.5202 67.1841C85.173 67.2834 84.8754 67.4324 84.5282 67.5317C84.181 67.631 83.8834 67.7303 83.4866 67.8296L82.5938 63.7582Z" fill="#7F3E3B"/>
<path d="M101.739 43.8977L102.582 40.869L99.209 41.1173C99.209 41.1173 98.961 43.1033 100.151 44.2949L101.739 43.8977Z" fill="#7F3E3B"/>
<path d="M103.078 37.3438L100.003 38.1382L99.209 41.1669L102.582 40.869L103.078 37.3438Z" fill="#7F3E3B"/>
<path d="M78.7747 64.503C80.3123 63.1127 84.2307 62.0204 84.2307 62.0204L88.5459 68.5247C88.5459 68.5247 83.6355 71.8017 81.5523 71.0569C79.4195 70.2625 77.3363 65.8435 78.7747 64.503Z" fill="#F2B705"/>
<path d="M64.6387 156.308L67.3171 159.287L75.0051 153.776L72.3267 150.846L64.6387 156.308Z" fill="#7F3E3B"/>
<path d="M49.5605 167.926L53.1317 169.714L58.4389 161.968L54.8677 160.181L49.5605 167.926Z" fill="#7F3E3B"/>
<path d="M53.726 169.267L50.9485 165.692C50.8493 165.543 50.7004 165.543 50.5516 165.593L47.4268 167.38C47.0796 167.579 47.03 168.025 47.278 168.323C48.27 169.565 48.8156 170.061 50.006 171.65C50.75 172.593 52.2876 174.828 53.2796 176.168C54.2716 177.459 55.6604 176.565 55.3628 175.92C53.974 173.04 53.8749 171.302 53.9245 169.912C53.9741 169.714 53.8748 169.465 53.726 169.267Z" fill="#263238"/>
<path d="M68.1112 159.337L66.276 154.967C66.2264 154.818 66.028 154.719 65.8792 154.719L62.0104 155.216C61.6136 155.265 61.3656 155.662 61.5144 156.06C62.1592 157.599 62.556 158.294 63.3992 160.23C63.8952 161.422 65.036 164.55 65.7304 166.188C66.3752 167.777 68.1608 167.43 68.012 166.735C67.4168 163.507 67.6152 161.372 68.1112 160.131C68.26 159.833 68.2104 159.535 68.1112 159.337Z" fill="#263238"/>
<path opacity="0.2" d="M75.0045 153.776L71.0365 156.606L68.0605 153.925L72.3261 150.846L75.0045 153.776Z" fill="black"/>
<path opacity="0.2" d="M54.8171 160.181L58.4379 161.968L55.7099 165.99L52.1387 164.202L54.8171 160.181Z" fill="black"/>
<path d="M84.1808 64.9995C84.1808 64.9995 84.28 64.8009 82.1472 88.5341C75.6992 88.9809 69.0528 89.4278 65.928 89.6761C65.7296 83.0725 66.2256 78.3556 63.1504 64.7512C63.1504 64.7512 66.5728 64.0064 70.0448 63.8575C72.7728 63.7582 75.0048 63.6589 77.4352 63.9071C80.6096 64.2547 84.1808 64.9995 84.1808 64.9995Z" fill="#F2B705"/>
<path d="M70.5014 76.4837L70.916 71.0182L71.9623 71.0976L73.9964 75.1312L73.442 75.0891L76.0223 71.4056L77.0607 71.4844L76.6617 76.9511L75.4749 76.861L75.7437 73.2142L75.9624 73.2308L73.9025 76.1606L73.3326 76.1174L71.6993 72.9073L71.9648 72.9275L71.6881 76.5737L70.5014 76.4837Z" fill="#533E00"/>
<path d="M77.078 77.0098L77.4961 71.499L79.8237 71.6756C80.3052 71.7121 80.7138 71.825 81.0497 72.0141C81.386 72.1979 81.6376 72.4466 81.8044 72.7602C81.9712 73.0737 82.0388 73.4378 82.0074 73.8524C81.9763 74.2618 81.8547 74.6089 81.6425 74.8937C81.4303 75.1784 81.1439 75.389 80.7833 75.5252C80.4231 75.6563 80.0023 75.7035 79.5209 75.667L77.8847 75.5429L78.4814 75.0101L78.3225 77.1042L77.078 77.0098ZM78.4706 75.1518L77.9635 74.5037L79.5306 74.6226C79.9147 74.6517 80.2079 74.5895 80.4101 74.4359C80.6124 74.2824 80.7248 74.056 80.7475 73.7568C80.7706 73.4524 80.6938 73.2091 80.517 73.0267C80.3403 72.8444 80.0599 72.7387 79.6758 72.7095L78.1086 72.5906L78.7077 72.0264L78.4706 75.1518Z" fill="#533E00"/>
<path d="M64.3414 68.7233C63.151 68.1771 62.0598 67.5813 60.9686 66.9358C59.8774 66.2904 58.8358 65.6449 57.7942 64.9001C55.711 63.4603 53.7766 61.8714 51.991 60.0343L51.3462 59.3392L51.1974 59.1406C51.0982 59.0413 50.999 58.8924 50.9494 58.7931C50.8006 58.5448 50.6518 58.3462 50.5526 58.0979C50.1558 57.1546 50.1062 56.3602 50.0566 55.665C50.0566 54.2252 50.3046 52.9342 50.6022 51.693C51.247 49.2104 52.0902 46.9265 53.231 44.6425L55.1158 45.3873C54.8182 46.5292 54.5702 47.6712 54.3222 48.8132C54.0742 49.9552 53.8758 51.0971 53.727 52.2391C53.5782 53.3811 53.5286 54.5231 53.5782 55.4664C53.6278 55.9133 53.727 56.3602 53.8758 56.5588C53.9254 56.6084 53.9254 56.6084 53.9254 56.6581L54.0742 56.807L54.6694 57.4028C56.3062 58.942 58.191 60.3322 60.1254 61.5735C61.0678 62.219 62.1094 62.8148 63.1014 63.4106C64.0934 64.0064 65.135 64.5526 66.127 65.0491L64.3414 68.7233Z" fill="#7F3E3B"/>
<path d="M69.4985 65.6946C67.6633 63.1127 64.0425 63.1624 64.0425 63.1624L59.6777 69.617C59.6777 69.617 64.5385 72.9436 66.6217 72.1989C68.8537 71.4044 70.6393 67.2834 69.4985 65.6946Z" fill="#F2B705"/>
<path d="M77.4349 63.9568L70.0445 63.9071C68.9037 64.354 68.2589 67.3331 75.7485 69.8156C80.9565 66.8366 78.1789 64.2547 77.4349 63.9568Z" fill="white"/>
<path d="M70.8385 55.6154C71.2849 57.9987 71.7313 62.3679 70.0449 63.9568C70.0449 63.9568 70.6897 66.3897 75.7489 69.8653C79.2705 66.2904 77.4353 64.0064 77.4353 64.0064C74.8065 63.361 74.8561 61.3749 75.3521 59.5378L70.8385 55.6154Z" fill="#7F3E3B"/>
<path d="M86.1143 79.1997C86.0647 79.1997 86.0647 79.1997 86.0151 79.1997C85.4695 79.15 85.0727 78.6535 85.1223 78.1073C85.3207 75.873 83.6343 74.2346 81.6999 72.2982C79.5175 70.0639 76.9879 67.5813 76.8887 63.6589C76.8887 63.1127 77.2855 62.6658 77.8311 62.6162C78.3767 62.6162 78.8231 63.0134 78.8727 63.5596C78.9719 66.6876 81.0551 68.8226 83.0887 70.8583C85.1719 72.9436 87.3047 75.1283 87.0567 78.2563C87.0567 78.8025 86.6599 79.1997 86.1143 79.1997Z" fill="#263238"/>
<path d="M71.118 84.6151C71.0188 84.6151 70.9692 84.6151 70.87 84.5655C70.3244 84.4165 70.0268 83.92 70.126 83.3739C71.0684 79.5011 69.8284 76.4227 68.4892 73.1954C67.2988 70.3156 66.0588 67.3366 66.654 63.8113C66.7532 63.2652 67.2492 62.9176 67.7948 63.0169C68.3404 63.1162 68.6876 63.6127 68.5884 64.1589C68.0924 67.0883 69.134 69.6702 70.2748 72.4506C71.614 75.6779 73.102 79.3521 72.0108 83.8704C71.9612 84.3172 71.5644 84.6151 71.118 84.6151Z" fill="#263238"/>
<path opacity="0.2" d="M74.4105 58.6938L72.377 58.942C72.4266 59.2399 72.6249 59.9847 72.9225 60.4315C73.3193 61.0274 74.2122 61.2756 75.0554 61.3253C75.0554 60.7295 75.1546 60.1336 75.3034 59.4882L74.4105 58.6938Z" fill="black"/>
<path d="M66.4248 53.2321C67.8632 56.956 68.4088 58.5448 70.9384 59.8357C74.7576 61.8218 78.9736 59.2399 78.676 55.1685C78.3784 51.4943 76.0472 46.0824 71.8808 45.7845C67.764 45.4369 64.9864 49.5083 66.4248 53.2321Z" fill="#7F3E3B"/>
<path d="M70.3912 45.2383C73.2184 46.9761 70.788 57.2042 66.0264 56.6581C61.2648 56.1119 66.2248 42.6565 70.3912 45.2383Z" fill="#263238"/>
<path d="M70.2926 45.2383C68.1598 46.6782 69.5982 49.1111 76.7902 47.6712C76.7902 47.6712 73.8142 42.9047 70.2926 45.2383Z" fill="#263238"/>
<path d="M66.92 56.807C67.2672 57.5518 67.912 58.098 68.5072 58.3462C69.4496 58.6938 70.0448 57.8497 69.8464 56.9063C69.6976 56.0623 68.9536 54.821 67.9616 54.8706C67.0192 54.9203 66.5728 55.963 66.92 56.807Z" fill="#7F3E3B"/>
<path d="M82.1467 88.5837C82.1467 88.5837 90.8267 116.935 91.5211 129.149C92.2651 141.859 73.4171 156.904 73.4171 156.904L68.7051 151.74C68.7051 151.74 84.0315 138.731 81.8987 129.298C79.0219 116.289 70.2427 89.3782 70.2427 89.3782L82.1467 88.5837Z" fill="#78A1FE"/>
<path opacity="0.2" d="M76.7408 97.8685C75.9472 95.3859 74.1616 97.0741 73.5664 99.7056C74.8064 103.678 76.1952 108.345 77.584 112.962C78.08 108.792 78.2784 102.734 76.7408 97.8685Z" fill="black"/>
<path d="M67.4648 151.492L73.4168 157.648L75.9464 156.209L69.6472 149.406L67.4648 151.492Z" fill="#407BFF"/>
<path d="M77.8327 88.8816C77.8327 88.8816 75.3527 116.686 72.8727 132.177C70.8391 144.689 57.199 165.146 57.199 165.146L52.1895 162.812C52.1895 162.812 61.3654 140.916 62.8039 132.426C67.3671 105.217 61.2166 97.372 65.879 89.7257L77.8327 88.8816Z" fill="#78A1FE"/>
<path d="M51.8906 162.812L57.545 165.593L59.3802 163.309L52.7834 160.181L51.8906 162.812Z" fill="#407BFF"/>
<path d="M65.631 88.7823L64.9862 90.2719C64.9366 90.3712 65.0854 90.4705 65.2838 90.4705L82.2966 89.2789C82.4454 89.2789 82.5446 89.1796 82.5446 89.0803L82.5942 87.6404C82.5942 87.5411 82.4454 87.4418 82.2966 87.4914L65.879 88.6334C65.7302 88.6334 65.631 88.683 65.631 88.7823Z" fill="white"/>
<path d="M67.9624 90.4705L67.516 90.5201C67.4168 90.5201 67.3672 90.4705 67.3672 90.4208L67.4168 88.5341C67.4168 88.4844 67.516 88.4348 67.5656 88.4348L68.012 88.3851C68.1112 88.3851 68.1608 88.4348 68.1608 88.4844L68.1112 90.3712C68.1112 90.3712 68.012 90.4208 67.9624 90.4705Z" fill="#263238"/>
<path d="M81.0561 89.5271L80.6097 89.5767C80.5105 89.5767 80.4609 89.5271 80.4609 89.4774L80.5105 87.5907C80.5105 87.541 80.6097 87.4914 80.6593 87.4914L81.1057 87.4417C81.2049 87.4417 81.2545 87.4914 81.2545 87.541L81.2049 89.4278C81.2049 89.4774 81.1553 89.5271 81.0561 89.5271Z" fill="#263238"/>
<path d="M74.5093 89.974L74.0629 90.0236C73.9637 90.0236 73.9141 89.974 73.9141 89.9243L73.9637 88.0376C73.9637 87.9879 74.0629 87.9383 74.1125 87.9383L74.5589 87.8886C74.6581 87.8886 74.7077 87.9383 74.7077 87.9879L74.6581 89.8747C74.6581 89.9243 74.5589 89.974 74.5093 89.974Z" fill="#263238"/>
<path d="M72.4265 51.7923C72.1785 51.8916 72.0793 52.2391 72.2281 52.5867L73.1209 52.2888C72.9225 51.9909 72.6249 51.7426 72.4265 51.7923Z" fill="#263238"/>
<path d="M76.1472 50.6006C75.8992 50.6999 75.8 51.0475 75.9488 51.3951L76.8416 51.0972C76.6928 50.7496 76.3952 50.551 76.1472 50.6006Z" fill="#263238"/>
<path d="M76.0469 50.6503L76.8405 50.1041C76.8901 50.1538 76.6421 50.9482 76.0469 50.6503Z" fill="#263238"/>
<path d="M75.2031 52.0902C75.2031 52.0902 76.1455 53.2321 76.9391 53.679C76.6415 54.1755 75.8975 54.2252 75.8975 54.2252L75.2031 52.0902Z" fill="#630F0F"/>
<path d="M75.2535 55.814C75.3031 55.814 75.3031 55.7644 75.3031 55.7147C75.3031 55.6651 75.2535 55.6154 75.2039 55.6651C73.8647 56.1119 72.9223 55.3671 72.9223 55.3671C72.8727 55.3175 72.8231 55.3175 72.7735 55.3671C72.7239 55.4168 72.7239 55.4664 72.7735 55.5161C72.8231 55.5161 73.7655 56.3105 75.2535 55.814C75.2535 55.8637 75.2535 55.814 75.2535 55.814Z" fill="#263238"/>
<path d="M71.1362 51.5937C71.1362 51.5937 71.1858 51.544 71.1858 51.4944C71.4834 50.6999 72.1282 50.5013 72.1282 50.5013C72.2274 50.4517 72.277 50.3524 72.277 50.2531C72.2274 50.1538 72.1282 50.1041 72.029 50.1041C71.9794 50.1041 71.1362 50.3524 70.789 51.3454C70.7394 51.4447 70.789 51.544 70.8882 51.5937C71.037 51.6433 71.0866 51.6433 71.1362 51.5937Z" fill="#263238"/>
<path d="M77.0883 49.1608C77.0883 49.1111 77.0883 49.1111 77.0883 49.1608C77.1875 49.0615 77.1875 48.9125 77.0883 48.8629C76.2451 48.2174 75.4515 48.4656 75.4019 48.4656C75.3027 48.5153 75.2531 48.6146 75.3027 48.7139C75.3523 48.8132 75.4515 48.8629 75.5507 48.8132C75.6003 48.8132 76.2451 48.6146 76.8899 49.1111C76.9395 49.2104 77.0387 49.2104 77.0883 49.1608Z" fill="#263238"/>
<path d="M57.2487 46.132C57.1495 46.132 57.0007 46.0824 56.9015 46.0327L41.8231 36.748C41.5255 36.5494 41.4263 36.1522 41.6247 35.8543C41.8231 35.5563 42.2199 35.457 42.5175 35.6556L57.5959 44.9404C57.8935 45.139 57.9927 45.5362 57.7943 45.8341C57.6455 46.0327 57.4471 46.132 57.2487 46.132Z" fill="#F2B705"/>
<path d="M45.1952 37.741C46.0384 37.6914 46.9312 37.6417 47.0304 36.8969C47.1296 36.1522 46.336 35.8543 45.5424 35.5564C45.4928 35.5564 45.3936 35.5067 45.344 35.4571C45.344 35.3577 45.2944 35.3081 45.2944 35.2584C45.344 35.2088 45.3936 35.1095 45.4432 35.0598C45.9888 34.464 46.584 33.8186 46.1376 33.2228C45.6912 32.6269 44.8976 32.9745 44.1536 33.3221C44.104 33.3717 44.0048 33.3717 43.9056 33.4214C43.856 33.3717 43.7568 33.3221 43.7072 33.3221C43.7072 33.2228 43.7072 33.1731 43.7072 33.0738C43.6576 32.2297 43.608 31.336 42.864 31.2367C42.12 31.1374 41.8224 31.9318 41.5248 32.7262C41.5248 32.7759 41.4752 32.8752 41.4256 32.9248C41.3264 32.9248 41.2768 32.9745 41.2272 32.9745C41.1776 32.9248 41.0784 32.8752 41.0288 32.8255C40.4336 32.2794 39.7888 31.6836 39.1936 32.1304C38.5984 32.5773 38.9456 33.3717 39.2928 34.1165C39.3424 34.1661 39.3424 34.2654 39.392 34.3647C39.3424 34.4144 39.2928 34.5137 39.2928 34.5633C39.1936 34.5633 39.144 34.5633 39.0448 34.5633C38.2016 34.613 37.3088 34.6626 37.2096 35.4074C37.1104 36.1522 37.904 36.4501 38.6976 36.748C38.7472 36.748 38.8464 36.7976 38.896 36.8473C38.896 36.9466 38.9456 36.9962 38.9456 37.0459C38.896 37.0955 38.8464 37.1948 38.7968 37.2445C38.2512 37.8403 37.656 38.4858 38.1024 39.0816C38.5488 39.6774 39.3424 39.3298 40.0864 38.9823C40.136 38.9326 40.2352 38.9326 40.3344 38.883C40.384 38.9326 40.4832 38.9823 40.5328 38.9823C40.5328 39.0816 40.5328 39.1312 40.5328 39.2305C40.5824 40.0746 40.632 40.9683 41.376 41.0676C42.12 41.1669 42.4176 40.3725 42.7152 39.5781C42.7152 39.5284 42.7648 39.4291 42.8144 39.3795C42.9136 39.3795 42.9632 39.3298 43.0128 39.3298C43.0624 39.3795 43.1616 39.4291 43.2112 39.4788C43.8064 40.025 44.4512 40.6208 45.0464 40.1739C45.6416 39.727 45.2944 38.9326 44.9472 38.1879C44.8976 38.1382 44.8976 38.0389 44.848 37.9396C44.8976 37.89 44.9472 37.7907 44.9472 37.741C45.0464 37.741 45.1456 37.741 45.1952 37.741Z" fill="#F2B705"/>
<path opacity="0.7" d="M45.1952 37.741C46.0384 37.6914 46.9312 37.6417 47.0304 36.8969C47.1296 36.1522 46.336 35.8543 45.5424 35.5564C45.4928 35.5564 45.3936 35.5067 45.344 35.4571C45.344 35.3577 45.2944 35.3081 45.2944 35.2584C45.344 35.2088 45.3936 35.1095 45.4432 35.0598C45.9888 34.464 46.584 33.8186 46.1376 33.2228C45.6912 32.6269 44.8976 32.9745 44.1536 33.3221C44.104 33.3717 44.0048 33.3717 43.9056 33.4214C43.856 33.3717 43.7568 33.3221 43.7072 33.3221C43.7072 33.2228 43.7072 33.1731 43.7072 33.0738C43.6576 32.2297 43.608 31.336 42.864 31.2367C42.12 31.1374 41.8224 31.9318 41.5248 32.7262C41.5248 32.7759 41.4752 32.8752 41.4256 32.9248C41.3264 32.9248 41.2768 32.9745 41.2272 32.9745C41.1776 32.9248 41.0784 32.8752 41.0288 32.8255C40.4336 32.2794 39.7888 31.6836 39.1936 32.1304C38.5984 32.5773 38.9456 33.3717 39.2928 34.1165C39.3424 34.1661 39.3424 34.2654 39.392 34.3647C39.3424 34.4144 39.2928 34.5137 39.2928 34.5633C39.1936 34.5633 39.144 34.5633 39.0448 34.5633C38.2016 34.613 37.3088 34.6626 37.2096 35.4074C37.1104 36.1522 37.904 36.4501 38.6976 36.748C38.7472 36.748 38.8464 36.7976 38.896 36.8473C38.896 36.9466 38.9456 36.9962 38.9456 37.0459C38.896 37.0955 38.8464 37.1948 38.7968 37.2445C38.2512 37.8403 37.656 38.4858 38.1024 39.0816C38.5488 39.6774 39.3424 39.3298 40.0864 38.9823C40.136 38.9326 40.2352 38.9326 40.3344 38.883C40.384 38.9326 40.4832 38.9823 40.5328 38.9823C40.5328 39.0816 40.5328 39.1312 40.5328 39.2305C40.5824 40.0746 40.632 40.9683 41.376 41.0676C42.12 41.1669 42.4176 40.3725 42.7152 39.5781C42.7152 39.5284 42.7648 39.4291 42.8144 39.3795C42.9136 39.3795 42.9632 39.3298 43.0128 39.3298C43.0624 39.3795 43.1616 39.4291 43.2112 39.4788C43.8064 40.025 44.4512 40.6208 45.0464 40.1739C45.6416 39.727 45.2944 38.9326 44.9472 38.1879C44.8976 38.1382 44.8976 38.0389 44.848 37.9396C44.8976 37.89 44.9472 37.7907 44.9472 37.741C45.0464 37.741 45.1456 37.741 45.1952 37.741Z" fill="#F2B705"/>
<path d="M52.7346 46.281L52.0898 42.3089L56.157 44.2949C56.157 44.2949 56.0578 45.0397 55.165 46.0327C54.7682 46.4796 54.0738 46.6782 53.4786 46.5292L52.7346 46.281Z" fill="#7F3E3B"/>
<path d="M54.3714 40.3725L56.4546 42.16L56.157 44.295L52.0898 42.3089L54.3714 40.3725Z" fill="#7F3E3B"/>
<path d="M55.0162 171.203C55.0658 171.153 55.1154 171.153 55.1154 171.104C55.2146 171.005 55.2146 170.856 55.2146 170.806C55.1154 170.309 53.7266 169.813 53.5778 169.763C53.5282 169.763 53.4786 169.763 53.4786 169.813C53.429 169.863 53.429 169.863 53.4786 169.912C53.677 170.409 54.173 171.203 54.669 171.302C54.7682 171.302 54.917 171.253 55.0162 171.203ZM53.7762 170.012C54.3218 170.21 55.0162 170.558 55.0658 170.806C55.0658 170.856 55.0658 170.905 55.0162 170.955C54.917 171.054 54.8178 171.104 54.669 171.104C54.421 171.054 54.0738 170.657 53.7762 170.012Z" fill="#407BFF"/>
<path d="M55.2649 169.863C55.3145 169.863 55.3145 169.813 55.3641 169.763C55.4137 169.714 55.5129 169.565 55.3641 169.366C55.2649 169.217 55.1657 169.167 55.0169 169.118C54.4217 169.018 53.5289 169.714 53.4793 169.763C53.4297 169.763 53.4297 169.813 53.4297 169.863C53.4297 169.912 53.4793 169.912 53.4793 169.962C53.9257 170.061 54.8681 170.111 55.2649 169.863ZM53.7769 169.763C54.0745 169.565 54.6201 169.217 54.9673 169.316C55.0665 169.316 55.1161 169.366 55.1657 169.465C55.2153 169.565 55.2153 169.614 55.1657 169.664C55.0169 169.863 54.2729 169.912 53.7769 169.763C53.7769 169.813 53.7769 169.763 53.7769 169.763Z" fill="#407BFF"/>
<path d="M68.2105 161.571C68.3593 161.918 68.5577 162.216 68.7561 162.365C68.9049 162.465 69.1033 162.465 69.2521 162.415C69.4009 162.365 69.4505 162.266 69.4505 162.216C69.5497 161.72 68.2601 160.479 68.0121 160.28C67.9625 160.23 67.9625 160.23 67.9129 160.28C67.8633 160.28 67.8633 160.33 67.8633 160.379C67.9129 160.677 68.0617 161.124 68.2105 161.571ZM69.2521 161.968C69.3017 162.067 69.3017 162.117 69.3017 162.167C69.3017 162.167 69.3017 162.216 69.2521 162.216C69.1033 162.266 69.0041 162.266 68.9049 162.167C68.6073 161.968 68.3097 161.372 68.1609 160.528C68.5577 161.025 69.1033 161.62 69.2521 161.968Z" fill="#407BFF"/>
<path d="M67.8633 160.33C67.8633 160.33 67.9129 160.33 67.8633 160.33C68.3097 160.776 69.5001 161.422 69.8969 161.223C69.9961 161.174 70.0457 161.074 69.9961 160.826C69.7481 159.932 68.0121 160.181 67.9129 160.23C67.8633 160.23 67.8633 160.28 67.8633 160.28V160.33ZM69.7977 160.776V160.826C69.8473 160.925 69.7977 160.975 69.7977 161.025C69.5497 161.174 68.6569 160.727 68.1609 160.33C68.6073 160.33 69.5993 160.28 69.7977 160.776Z" fill="#407BFF"/>
<path d="M72.3262 51.8916L73.1198 51.3454C73.1198 51.3454 72.8718 52.1895 72.3262 51.8916Z" fill="#263238"/>
<path d="M137.156 181.928H133.287L132.295 173.04H136.114L137.156 181.928Z" fill="#FFC3BD"/>
<path d="M170.238 165.394L167.312 167.926L160.715 161.869L163.641 159.337L170.238 165.394Z" fill="#FFC3BD"/>
<path d="M166.766 167.827L170.288 164.749C170.387 164.649 170.585 164.649 170.685 164.749L173.363 166.933C173.661 167.181 173.661 167.628 173.363 167.827C172.222 168.77 171.329 169.465 169.891 170.707C168.998 171.451 166.419 173.884 165.179 174.927C163.989 175.97 162.798 174.877 163.195 174.331C165.03 171.898 166.171 169.714 166.369 168.423C166.469 168.174 166.568 167.976 166.766 167.827Z" fill="#263238"/>
<path d="M133.335 181.481H137.551C137.7 181.481 137.849 181.58 137.899 181.729L138.643 185.155C138.742 185.503 138.444 185.85 138.097 185.85C136.559 185.85 134.377 185.751 132.492 185.751C130.26 185.751 128.971 185.801 126.342 185.801C124.755 185.801 124.308 184.212 125.003 184.063C128.028 183.417 129.863 183.417 132.443 181.779C132.691 181.63 132.988 181.481 133.335 181.481Z" fill="#263238"/>
<path d="M120.836 71.3548C120.043 71.0569 119.398 70.8086 118.704 70.4611C118.009 70.1632 117.315 69.8156 116.67 69.5177C115.331 68.8226 113.992 68.1275 112.702 67.2834C111.412 66.489 110.172 65.5953 108.932 64.6023C108.635 64.354 108.337 64.1057 108.04 63.8575L107.147 63.0631C106.849 62.8148 106.601 62.4673 106.304 62.219C106.155 62.07 106.055 61.9707 105.857 61.7721C105.708 61.5735 105.559 61.3749 105.411 61.226C104.815 60.4812 104.419 59.6868 104.022 58.8924C103.675 58.098 103.377 57.3532 103.129 56.5588C102.683 55.0196 102.385 53.5301 102.137 51.9909C101.74 48.9622 101.691 46.0327 101.939 43.004L104.816 42.9544C105.014 44.295 105.212 45.7348 105.51 47.0754C105.758 48.4656 106.055 49.8062 106.403 51.0972C106.75 52.3881 107.147 53.679 107.643 54.8706C108.139 56.0623 108.734 57.1049 109.379 57.8497L109.627 58.098C109.676 58.1973 109.875 58.2966 109.974 58.3959C110.222 58.5945 110.42 58.7931 110.668 58.9917C111.164 59.3889 111.66 59.7861 112.206 60.1337C113.297 60.8784 114.388 61.5735 115.579 62.2687C116.769 62.9141 117.96 63.5596 119.2 64.1554C119.795 64.4533 120.439 64.7512 121.035 65.0491C121.63 65.347 122.324 65.5953 122.87 65.8435L120.836 71.3548Z" fill="#FFC3BD"/>
<path d="M121.432 74.6318C118.258 72.745 115.232 70.0142 115.232 70.0142L116.77 62.1694C116.77 62.1694 121.482 63.5596 125.45 64.0561C130.311 64.6519 124.904 76.6675 121.432 74.6318Z" fill="#F2B705"/>
<path d="M104.915 43.6991L105.163 38.7837L101.096 40.0746C101.096 40.0746 100.154 43.5998 102.782 44.4936L104.915 43.6991Z" fill="#FFC3BD"/>
<path d="M104.667 36.1522L101.344 37.5921L101.096 40.1243L105.163 38.7837L104.667 36.1522Z" fill="#FFC3BD"/>
<path opacity="0.2" d="M132.295 173.04L132.791 177.608H136.66L136.114 173.04H132.295Z" fill="black"/>
<path opacity="0.2" d="M163.641 159.337L160.715 161.869L164.137 164.997L167.064 162.465L163.641 159.337Z" fill="black"/>
<path d="M140.28 63.9071C140.33 62.7652 139.437 61.7721 138.246 61.7721C127.285 61.5735 120.142 64.6519 119.646 64.8505C119.25 64.9995 119.002 65.347 118.952 65.7442C118.506 68.475 117.216 80.0437 123.565 98.0671C129.715 97.1734 140.925 95.5845 143.901 95.1377C143.603 92.109 139.784 78.306 140.28 63.9071Z" fill="#F2B705"/>
<path d="M122.773 80.0961L122.502 74.6216L123.55 74.5697L126.072 78.3176L125.517 78.3451L127.617 74.3681L128.657 74.3165L128.944 79.7902L127.755 79.8491L127.566 76.1973L127.785 76.1864L126.108 79.3507L125.537 79.379L123.515 76.3981L123.781 76.3849L123.962 80.0372L122.773 80.0961Z" fill="#533E00"/>
<path d="M129.721 79.7517L129.447 74.2318L131.779 74.1162C132.261 74.0923 132.68 74.1532 133.037 74.2989C133.394 74.4393 133.675 74.6546 133.879 74.9449C134.084 75.2351 134.197 75.5879 134.217 76.0032C134.238 76.4132 134.16 76.7728 133.985 77.0819C133.81 77.3909 133.552 77.6356 133.212 77.8158C132.871 77.9908 132.459 78.0903 131.977 78.1142L130.338 78.1954L130.863 77.5923L130.967 79.6899L129.721 79.7517ZM130.87 77.7343L130.286 77.1546L131.856 77.0767C132.241 77.0577 132.524 76.9593 132.705 76.7817C132.887 76.604 132.97 76.3654 132.955 76.0658C132.94 75.7609 132.834 75.529 132.635 75.3702C132.437 75.2114 132.146 75.1415 131.761 75.1606L130.191 75.2384L130.715 74.6037L130.87 77.7343Z" fill="#533E00"/>
<path d="M123.812 63.4603C122.621 65.0491 122.076 68.7729 126.044 71.5038C130.954 67.8296 133.484 63.9071 134.228 61.8218C129.913 62.07 126.341 62.7652 123.812 63.4603Z" fill="white"/>
<path d="M122.92 64.9498C122.374 64.9498 121.928 64.5029 121.928 63.9568C121.928 63.1127 122.622 62.4176 123.217 61.9707C125.251 60.4316 129.169 59.3392 134.129 60.7791C134.675 60.9281 134.973 61.4742 134.824 62.0204C134.675 62.5666 134.129 62.8645 133.584 62.7155C127.83 61.077 124.309 63.4106 123.912 64.1057C123.813 64.5526 123.416 64.9498 122.92 64.9498Z" fill="#263238"/>
<path d="M131.155 52.3881C131.006 55.2679 131.204 60.4316 133.387 62.0204C132.097 63.7582 130.361 65.7442 127.087 66.34C125.103 66.6876 124.409 65.9428 124.359 65.0491C124.26 64.1554 124.806 63.2617 125.55 62.8148C127.683 61.5735 127.236 59.5875 126.492 57.7008L131.155 52.3881Z" fill="#FFC3BD"/>
<path d="M122.622 87.7397C122.523 87.7397 122.424 87.7397 122.275 87.69C121.779 87.4914 121.481 86.9453 121.68 86.3991C122.027 85.4061 121.878 84.9592 121.58 84.2144L121.481 83.9165C121.382 83.6683 121.084 83.3207 120.836 83.0228C120.39 82.5263 119.894 81.9801 119.696 81.2354C119.497 80.441 119.745 79.6466 119.993 79.0507C120.092 78.7032 120.241 78.3556 120.192 78.157C120.142 77.9088 119.944 77.5116 119.745 77.164C119.398 76.5682 119.051 75.9227 119.051 75.1779C119.051 74.3339 119.497 73.6388 119.844 73.1423C119.993 72.894 120.241 72.5464 120.241 72.3975C120.291 72.1492 120.192 71.9506 120.092 71.6031C119.944 71.1066 119.745 70.5107 119.944 69.8156C120.142 68.9716 120.737 68.475 121.134 68.1275C121.332 67.9785 121.481 67.7799 121.531 67.6806C121.63 67.482 121.58 67.2834 121.531 66.9359C121.481 66.489 121.332 65.8435 121.729 65.2477C122.076 64.7016 122.027 64.5526 122.027 64.4533C121.977 64.354 121.928 64.1554 121.977 63.9071C122.027 63.361 122.473 62.9638 123.019 62.9638C123.515 63.0134 123.961 63.4106 123.961 63.9071V63.9568C124.11 64.503 124.16 65.1981 123.465 66.2904C123.465 66.3401 123.465 66.5387 123.515 66.638C123.564 67.0848 123.713 67.7303 123.366 68.4254C123.118 68.9716 122.721 69.3191 122.424 69.617C122.126 69.9149 121.928 70.0639 121.878 70.3121C121.828 70.4611 121.878 70.6597 122.027 70.9576C122.176 71.4045 122.374 71.9506 122.275 72.6457C122.176 73.2416 121.878 73.7877 121.58 74.2346C121.332 74.5821 121.134 74.9793 121.134 75.2276C121.134 75.4262 121.382 75.8234 121.58 76.2206C121.878 76.7171 122.225 77.3129 122.275 78.0081C122.324 78.6535 122.126 79.2493 121.977 79.7458C121.828 80.1431 121.68 80.5899 121.779 80.8878C121.828 81.1361 122.176 81.4836 122.424 81.7815C122.82 82.2284 123.267 82.7249 123.515 83.3704L123.614 83.6186C123.912 84.4627 124.259 85.4557 123.713 87.1439C123.366 87.4914 123.019 87.7397 122.622 87.7397Z" fill="#263238"/>
<path d="M140.082 63.7085C140.628 64.205 141.074 64.6022 141.521 65.0988C141.967 65.5456 142.414 66.0421 142.86 66.5386C143.753 67.482 144.596 68.475 145.39 69.5177C146.977 71.6031 148.465 73.8374 149.556 76.4192C149.804 77.0647 150.052 77.7598 150.3 78.4549C150.399 78.8025 150.498 79.15 150.598 79.5472L150.647 79.6962L150.697 79.9444C150.746 80.0934 150.746 80.2423 150.746 80.4409C150.746 80.7885 150.746 81.0864 150.697 81.434C150.598 82.0794 150.399 82.6752 150.151 83.1221C149.903 83.6186 149.606 84.0158 149.308 84.3634C148.713 85.0585 148.068 85.555 147.473 85.9522C146.233 86.7963 144.993 87.3424 143.753 87.7893C143.108 88.0376 142.513 88.1865 141.868 88.3851C141.223 88.5341 140.628 88.683 139.934 88.832L139.041 86.1012C139.537 85.8033 140.082 85.555 140.578 85.2571C141.074 84.9592 141.57 84.6613 142.066 84.3137C143.009 83.6683 143.951 83.0228 144.646 82.3277C144.993 81.9801 145.29 81.6326 145.439 81.3347C145.638 81.0368 145.588 80.8382 145.538 80.9375V80.9871C145.538 80.9871 145.538 80.9871 145.538 81.0368L145.489 80.9375C145.39 80.6892 145.34 80.4906 145.241 80.2423C145.042 79.7955 144.844 79.299 144.596 78.8025C144.1 77.8591 143.554 76.9157 142.91 75.9723C142.265 75.029 141.57 74.1353 140.826 73.2415C140.082 72.3478 139.338 71.4541 138.545 70.61C138.148 70.1632 137.751 69.766 137.354 69.3191C136.958 68.9219 136.511 68.475 136.164 68.1275L140.082 63.7085Z" fill="#FFC3BD"/>
<path d="M138.792 61.8218C141.024 62.1693 144.545 67.7799 144.545 67.7799L138.841 75.4262C138.841 75.4262 135.816 72.5464 134.923 69.9646C133.187 65.0988 134.377 61.1763 138.792 61.8218Z" fill="#F2B705"/>
<path d="M135.815 81.1361C135.468 81.1361 135.171 80.9871 134.972 80.6396C134.526 79.9445 134.526 79.1004 134.526 78.4549C134.526 78.1074 134.526 77.7102 134.427 77.5612C134.327 77.313 133.98 77.015 133.683 76.7668C133.187 76.3199 132.641 75.8234 132.393 75.1283C132.145 74.3339 132.343 73.5395 132.492 72.9437C132.591 72.6457 132.641 72.2982 132.641 72.0996C132.591 71.8513 132.343 71.5038 132.095 71.1562C131.699 70.61 131.302 70.0142 131.252 69.3191C131.203 68.4254 131.599 67.7303 131.947 67.1841C132.095 66.9855 132.244 66.638 132.244 66.5387C132.244 66.2408 132.095 65.8435 131.996 65.4463C131.798 64.8505 131.55 64.2051 131.699 63.5596C132.095 62.0701 132.691 61.4742 133.038 61.1763L133.087 61.1267C133.484 60.7295 134.079 60.7295 134.476 61.077C134.873 61.4742 134.873 62.0701 134.526 62.4673C134.476 62.5169 134.476 62.5169 134.427 62.5666C134.228 62.7652 133.881 63.1127 133.633 64.0065C133.633 64.1058 133.782 64.503 133.831 64.7512C134.03 65.2974 134.278 65.9428 134.228 66.638C134.179 67.2338 133.881 67.7303 133.633 68.1771C133.435 68.5247 133.187 68.9219 133.236 69.1702C133.236 69.3191 133.534 69.7163 133.732 70.0142C134.079 70.5107 134.476 71.0569 134.575 71.7024C134.675 72.2982 134.526 72.894 134.427 73.4402C134.327 73.8374 134.228 74.2842 134.278 74.5325C134.327 74.7311 134.724 75.0787 134.972 75.3269C135.419 75.7241 135.915 76.171 136.212 76.7668C136.46 77.3626 136.46 77.9584 136.46 78.5046C136.46 78.9514 136.46 79.3983 136.609 79.6466C136.907 80.0934 136.758 80.7389 136.262 80.9871C136.163 81.0864 135.964 81.1361 135.815 81.1361Z" fill="#263238"/>
<path opacity="0.2" d="M129.219 54.5231L126.441 57.6511C126.64 58.1476 126.838 58.6441 126.937 59.1406C128.078 58.7931 129.566 57.2539 129.467 56.0126C129.517 55.4168 129.368 54.821 129.219 54.5231Z" fill="black"/>
<path d="M123.466 44.2453C122.226 46.3803 123.02 49.409 123.02 49.409C124.16 50.1538 125.252 49.5083 125.252 49.5083L124.904 43.8481L123.466 44.2453Z" fill="#263238"/>
<path d="M133.088 49.6573C132.146 53.3811 131.799 55.5658 129.517 57.1546C126.144 59.4882 121.829 56.9063 121.631 52.9839C121.482 49.4587 123.02 43.9971 126.988 43.2026C130.906 42.4082 134.031 45.9335 133.088 49.6573Z" fill="#FFC3BD"/>
<path d="M122.276 53.9769C122.226 53.9769 122.176 53.9769 122.127 53.9769L113.744 52.1895C113.298 52.0902 112.901 51.8419 112.653 51.4447C112.405 51.0475 112.306 50.6007 112.405 50.1041C112.504 49.6573 112.752 49.2601 113.149 49.0118C113.546 48.7636 113.992 48.6643 114.488 48.7636C114.836 48.8629 115.084 49.1608 114.984 49.558C114.885 49.9055 114.588 50.1538 114.191 50.0545C114.092 50.0048 113.943 50.0545 113.844 50.1041C113.744 50.1538 113.695 50.2531 113.645 50.4021C113.596 50.5014 113.645 50.6503 113.695 50.7496C113.744 50.8489 113.844 50.8986 113.992 50.9482L122.375 52.7357C122.722 52.835 122.97 53.1329 122.871 53.5301C122.871 53.7783 122.573 53.9769 122.276 53.9769Z" fill="#F2B705"/>
<path d="M122.276 54.1259L121.234 53.9273L121.532 52.4377L122.574 52.6363C122.97 52.7357 123.268 53.1329 123.169 53.5301C123.07 53.9273 122.673 54.2252 122.276 54.1259Z" fill="white"/>
<path d="M130.807 47.6216C130.807 46.2313 129.765 45.1887 126.194 45.4369C123.317 45.6355 121.879 44.295 122.722 42.4082C125.053 43.6495 124.656 42.011 129.12 41.8124C133.584 41.6138 134.874 43.3516 135.37 45.9334C138.098 50.0048 133.386 51.693 133.386 51.693L131.551 53.2818C131.551 53.2818 130.311 53.6294 129.418 52.5867C129.418 52.6363 129.071 49.3594 130.807 47.6216Z" fill="#263238"/>
<path d="M126.044 41.1669L125.945 41.2166C125.498 41.4649 125.449 42.1103 125.895 42.4082L136.261 48.8132C136.658 49.0615 137.204 48.8132 137.303 48.3167C137.402 47.6712 137.105 47.0258 136.559 46.6782L127.73 41.2166C127.185 40.9187 126.589 40.869 126.044 41.1669Z" fill="#F2B705"/>
<path d="M127.928 41.8621L130.557 37.9893C130.705 37.741 131.003 37.6914 131.251 37.8403L138.542 42.2096C138.79 42.3586 138.889 42.7061 138.691 43.004L135.517 47.1747L127.928 41.8621Z" fill="#F2B705"/>
<path d="M127.928 41.8621L128.969 39.9753L137.153 45.3873L135.566 47.1747L127.928 41.8621Z" fill="#407BFF"/>
<path opacity="0.6" d="M127.928 41.8621L128.969 39.9753L137.153 45.3873L135.566 47.1747L127.928 41.8621Z" fill="#F2B705"/>
<path d="M133.584 54.1755C132.79 54.7217 131.848 54.8706 131.104 54.7217C129.963 54.5231 129.963 53.3811 130.757 52.537C131.451 51.7923 132.89 51.0475 133.782 51.693C134.675 52.3384 134.477 53.5797 133.584 54.1755Z" fill="#FFC3BD"/>
<path d="M131.352 176.764H137.85C137.85 176.764 136.808 153.577 135.42 141.71C134.973 138.086 135.469 133.121 135.519 127.56C135.568 120.559 135.916 112.962 136.213 107.004C136.56 100.699 136.808 96.1804 136.808 96.1804L123.516 98.0671C123.516 98.0671 122.176 131.035 124.26 142.604C126.442 154.57 131.352 176.764 131.352 176.764Z" fill="#78A1FE"/>
<path opacity="0.2" d="M135.518 127.51C135.567 120.509 135.914 112.913 136.212 106.955L134.228 104.323C131.798 108.891 133.484 121.105 135.518 127.51Z" fill="black"/>
<path d="M129.863 97.1237C129.863 97.1237 138.146 129.794 142.065 140.37C146.38 151.939 162.202 165.444 162.202 165.444L166.22 161.025C166.22 161.025 157.838 147.966 151.687 135.355C148.711 119.02 143.9 95.0384 143.9 95.0384L129.863 97.1237Z" fill="#78A1FE"/>
<path d="M161.657 166.139L167.956 160.727L166.319 158.84L159.227 164.798L161.657 166.139Z" fill="#407BFF"/>
<path d="M130.558 176.913L138.295 176.863V174.381L129.615 174.232L130.558 176.913Z" fill="#407BFF"/>
<path d="M127.385 48.9125C127.137 48.8132 126.839 49.0615 126.74 49.4587L127.633 49.7566C127.732 49.3594 127.633 49.0118 127.385 48.9125Z" fill="#263238"/>
<path d="M123.516 48.2174C123.268 48.2174 123.02 48.5153 123.02 48.9125L123.962 48.9622C123.962 48.5649 123.764 48.2174 123.516 48.2174Z" fill="#263238"/>
<path d="M124.854 49.3594C124.854 49.3594 123.813 50.9979 122.92 51.693C123.366 52.2888 124.309 52.2391 124.309 52.2391L124.854 49.3594Z" fill="#ED847E"/>
<path d="M128.624 48.5153C128.673 48.5153 128.673 48.5153 128.723 48.5153C128.822 48.4656 128.872 48.3663 128.822 48.267C128.525 47.3237 127.731 47.0754 127.681 47.0258C127.582 46.9761 127.483 47.0754 127.433 47.1747C127.384 47.274 127.483 47.3733 127.533 47.423C127.582 47.423 128.177 47.6216 128.425 48.416C128.525 48.4656 128.574 48.5153 128.624 48.5153Z" fill="#263238"/>
<path d="M122.375 47.6712C122.424 47.6712 122.474 47.6712 122.523 47.6216C123.069 47.0258 123.714 47.1251 123.763 47.1251C123.863 47.1251 123.962 47.0754 123.962 46.9761C123.962 46.8768 123.912 46.7775 123.813 46.7775C123.763 46.7775 122.97 46.6286 122.275 47.3733C122.226 47.4726 122.226 47.5719 122.275 47.6216C122.325 47.6712 122.325 47.6712 122.375 47.6712Z" fill="#263238"/>
<path d="M166.22 169.167C166.468 168.919 166.716 168.621 166.915 168.423C166.915 168.373 166.915 168.373 166.915 168.323C166.915 168.274 166.865 168.274 166.815 168.274C166.667 168.274 165.228 168.522 165.079 168.969C165.03 169.019 165.03 169.167 165.129 169.267C165.228 169.416 165.377 169.515 165.575 169.515C165.774 169.515 165.972 169.366 166.22 169.167ZM166.617 168.472C166.22 169.019 165.823 169.316 165.526 169.316C165.427 169.316 165.327 169.267 165.228 169.118C165.179 169.068 165.179 169.019 165.228 169.019C165.327 168.77 166.071 168.572 166.617 168.472Z" fill="#407BFF"/>
<path d="M166.866 168.423C166.866 168.423 166.915 168.423 166.866 168.423C166.915 168.323 166.915 168.323 166.866 168.274C166.816 168.224 166.072 167.43 165.526 167.43C165.378 167.43 165.278 167.479 165.179 167.579C165.03 167.728 165.08 167.877 165.13 167.976C165.278 168.373 166.419 168.522 166.866 168.423ZM165.328 167.728C165.378 167.678 165.477 167.678 165.526 167.678C165.874 167.678 166.37 168.125 166.618 168.323C166.122 168.323 165.378 168.174 165.229 167.926C165.229 167.877 165.229 167.827 165.328 167.728C165.278 167.728 165.328 167.728 165.328 167.728Z" fill="#407BFF"/>
<path d="M132.939 182.027C132.988 182.027 132.988 181.977 132.988 181.977C132.988 181.928 132.988 181.878 132.939 181.878C132.74 181.779 131.203 180.984 130.756 181.282C130.657 181.332 130.607 181.431 130.607 181.531C130.607 181.729 130.657 181.878 130.756 181.977C131.203 182.325 132.343 182.176 132.939 182.027ZM130.905 181.382C131.203 181.282 132.046 181.58 132.641 181.878C131.798 182.027 131.153 181.977 130.905 181.779C130.806 181.729 130.806 181.63 130.806 181.481C130.806 181.481 130.855 181.431 130.905 181.382C130.855 181.382 130.905 181.382 130.905 181.382Z" fill="#407BFF"/>
<path d="M132.938 182.027C132.938 182.027 132.987 182.027 132.938 182.027C132.987 181.977 132.987 181.977 132.987 181.928C132.987 181.878 132.888 180.835 132.392 180.438C132.243 180.339 132.094 180.24 131.896 180.289C131.648 180.339 131.598 180.438 131.549 180.538C131.499 180.984 132.392 181.779 132.888 182.027H132.938ZM131.846 180.488C131.846 180.488 131.896 180.488 131.946 180.488C132.094 180.488 132.194 180.488 132.293 180.587C132.59 180.835 132.739 181.481 132.789 181.779C132.293 181.481 131.698 180.835 131.747 180.587C131.747 180.587 131.747 180.538 131.846 180.488Z" fill="#407BFF"/>
<path d="M139.437 85.7536L135.717 86.9453L138.594 89.825C138.594 89.825 141.966 88.3851 140.875 86.8956L139.437 85.7536Z" fill="#FFC3BD"/>
<path d="M134.229 90.1726L136.857 91.7614L138.643 89.7754L135.766 86.8956L134.229 90.1726Z" fill="#FFC3BD"/>
</g>
</g>
<defs>
<clipPath id="clip0_3647_35398">
<rect width="200" height="200" fill="white" transform="translate(0.5)"/>
</clipPath>
<clipPath id="clip1_3647_35398">
<rect width="248" height="185" fill="white" transform="translate(-23.5 8)"/>
</clipPath>
</defs>
</svg>
