<svg width="12" height="20" viewBox="0 0 12 20" fill="none" xmlns="http://www.w3.org/2000/svg">
<path d="M7.9267 10.4286L0.444752 17.5872C0.238736 17.7838 0.125403 18.0467 0.125403 18.327C0.125403 18.6075 0.238736 18.8703 0.444752 19.0672L1.10036 19.6942C1.30605 19.8914 1.58101 20 1.87402 20C2.16703 20 2.44166 19.8914 2.64752 19.6942L11.556 11.1713C11.7626 10.9738 11.8758 10.7098 11.875 10.4291C11.8758 10.1472 11.7628 9.88354 11.556 9.68582L2.65581 1.17123C2.44996 0.97397 2.17532 0.865384 1.88215 0.865384C1.58914 0.865384 1.31451 0.97397 1.10849 1.17123L0.453047 1.79816C0.0265424 2.20621 0.0265423 2.87047 0.453046 3.27837L7.9267 10.4286Z" fill="black"/>
</svg>
