<svg width="12" height="20" viewBox="0 0 12 20" fill="none" xmlns="http://www.w3.org/2000/svg">
<path d="M4.5249 10.0042L11.2434 2.52195C11.4284 2.31642 11.5301 2.04163 11.5301 1.74862C11.5301 1.45545 11.4284 1.18081 11.2434 0.974959L10.6547 0.319675C10.47 0.113496 10.2231 0 9.95996 0C9.69685 0 9.45024 0.113496 9.2654 0.319675L1.26597 9.22797C1.08039 9.43447 0.978766 9.71041 0.979496 10.0037C0.978766 10.2984 1.08024 10.574 1.26597 10.7807L9.25795 19.6803C9.4428 19.8865 9.68941 20 9.95266 20C10.2158 20 10.4624 19.8865 10.6474 19.6803L11.2359 19.025C11.6189 18.5985 11.6189 17.9042 11.2359 17.4779L4.5249 10.0042Z" fill="black"/>
</svg>
