<svg width="217" height="426" viewBox="0 0 217 426" fill="none" xmlns="http://www.w3.org/2000/svg">
<path opacity="0.81" d="M319.004 319.004C377.547 260.461 377.547 165.544 319.004 107.001C260.461 48.4583 165.544 48.4584 107.001 107.001C48.4584 165.544 48.4584 260.461 107.001 319.004C165.544 377.547 260.461 377.547 319.004 319.004Z" stroke="#D7F0FB" stroke-width="1.0531" stroke-linecap="round" stroke-linejoin="round"/>
<path opacity="0.81" d="M213.01 357.181C292.641 357.181 357.194 292.628 357.194 212.997C357.194 133.367 292.641 68.8132 213.01 68.8132C133.38 68.8132 68.8262 133.367 68.8262 212.997C68.8262 292.628 133.38 357.181 213.01 357.181Z" stroke="#D7F0FB" stroke-width="1.1458" stroke-linecap="round" stroke-linejoin="round"/>
<path opacity="0.81" d="M310.906 310.906C364.977 256.836 364.977 169.17 310.906 115.099C256.836 61.0283 169.17 61.0283 115.099 115.099C61.0283 169.17 61.0283 256.836 115.099 310.906C169.17 364.977 256.836 364.977 310.906 310.906Z" stroke="#D7F0FB" stroke-width="1.2385" stroke-linecap="round" stroke-linejoin="round"/>
<path opacity="0.81" d="M213.01 345.729C286.316 345.729 345.742 286.303 345.742 212.997C345.742 139.692 286.316 80.2654 213.01 80.2654C139.704 80.2654 80.2783 139.692 80.2783 212.997C80.2783 286.303 139.704 345.729 213.01 345.729Z" stroke="#D7F0FB" stroke-width="1.3312" stroke-linecap="round" stroke-linejoin="round"/>
<path opacity="0.81" d="M213.01 340.003C283.154 340.003 340.016 283.141 340.016 212.997C340.016 142.854 283.154 85.9915 213.01 85.9915C142.867 85.9915 86.0042 142.854 86.0042 212.997C86.0042 283.141 142.867 340.003 213.01 340.003Z" stroke="#D7F0FB" stroke-width="1.4239" stroke-linecap="round" stroke-linejoin="round"/>
<path opacity="0.81" d="M213.01 334.277C279.991 334.277 334.29 279.978 334.29 212.997C334.29 146.016 279.991 91.7173 213.01 91.7173C146.029 91.7173 91.7302 146.016 91.7302 212.997C91.7302 279.978 146.029 334.277 213.01 334.277Z" stroke="#D7F0FB" stroke-width="1.5166" stroke-linecap="round" stroke-linejoin="round"/>
<path opacity="0.81" d="M213.01 328.551C276.829 328.551 328.564 276.816 328.564 212.997C328.564 149.179 276.829 97.4434 213.01 97.4434C149.191 97.4434 97.4561 149.179 97.4561 212.997C97.4561 276.816 149.191 328.551 213.01 328.551Z" stroke="#D7F0FB" stroke-width="1.6093" stroke-linecap="round" stroke-linejoin="round"/>
<path opacity="0.81" d="M213.01 322.825C273.666 322.825 322.838 273.654 322.838 212.997C322.838 152.341 273.666 103.169 213.01 103.169C152.354 103.169 103.182 152.341 103.182 212.997C103.182 273.654 152.354 322.825 213.01 322.825Z" stroke="#D7F0FB" stroke-width="1.702" stroke-linecap="round" stroke-linejoin="round"/>
<path opacity="0.81" d="M213.01 317.099C270.504 317.099 317.112 270.491 317.112 212.997C317.112 155.503 270.504 108.895 213.01 108.895C155.516 108.895 108.908 155.503 108.908 212.997C108.908 270.491 155.516 317.099 213.01 317.099Z" stroke="#D7F0FB" stroke-width="1.7948" stroke-linecap="round" stroke-linejoin="round"/>
<path opacity="0.81" d="M213.01 311.373C267.342 311.373 311.386 267.329 311.386 212.997C311.386 158.666 267.342 114.621 213.01 114.621C158.679 114.621 114.634 158.666 114.634 212.997C114.634 267.329 158.679 311.373 213.01 311.373Z" stroke="#D7F0FB" stroke-width="1.8875" stroke-linecap="round" stroke-linejoin="round"/>
<path opacity="0.81" d="M213.01 305.647C264.179 305.647 305.66 264.167 305.66 212.997C305.66 161.828 264.179 120.347 213.01 120.347C161.841 120.347 120.36 161.828 120.36 212.997C120.36 264.167 161.841 305.647 213.01 305.647Z" stroke="#D7F0FB" stroke-width="1.9802" stroke-linecap="round" stroke-linejoin="round"/>
<path opacity="0.81" d="M213.01 299.921C261.017 299.921 299.934 261.004 299.934 212.997C299.934 164.99 261.017 126.073 213.01 126.073C165.003 126.073 126.086 164.99 126.086 212.997C126.086 261.004 165.003 299.921 213.01 299.921Z" stroke="#D7F0FB" stroke-width="2.0729" stroke-linecap="round" stroke-linejoin="round"/>
<path opacity="0.81" d="M215.927 294.197C260.745 292.6 295.782 254.974 294.186 210.157C292.59 165.339 254.964 130.302 210.146 131.898C165.329 133.495 130.291 171.121 131.887 215.938C133.484 260.756 171.11 295.793 215.927 294.197Z" stroke="#D7F0FB" stroke-width="2.1656" stroke-linecap="round" stroke-linejoin="round"/>
<path opacity="0.81" d="M213.01 288.469C254.692 288.469 288.482 254.679 288.482 212.997C288.482 171.315 254.692 137.525 213.01 137.525C171.328 137.525 137.538 171.315 137.538 212.997C137.538 254.679 171.328 288.469 213.01 288.469Z" stroke="#D7F0FB" stroke-width="2.2583" stroke-linecap="round" stroke-linejoin="round"/>
<path opacity="0.81" d="M215.52 282.752C254.016 281.38 284.112 249.061 282.741 210.564C281.37 172.068 249.05 141.972 210.554 143.343C172.057 144.715 141.961 177.034 143.333 215.53C144.704 254.027 177.023 284.123 215.52 282.752Z" stroke="#D7F0FB" stroke-width="2.351" stroke-linecap="round" stroke-linejoin="round"/>
<path opacity="0.81" d="M213.01 277.018C248.368 277.018 277.031 248.355 277.031 212.997C277.031 177.639 248.368 148.976 213.01 148.976C177.652 148.976 148.989 177.639 148.989 212.997C148.989 248.355 177.652 277.018 213.01 277.018Z" stroke="#D7F0FB" stroke-width="2.4437" stroke-linecap="round" stroke-linejoin="round"/>
<path opacity="0.81" d="M215.112 271.307C247.288 270.161 272.443 243.148 271.297 210.972C270.151 178.796 243.138 153.641 210.961 154.787C178.785 155.933 153.631 182.946 154.777 215.123C155.923 247.299 182.936 272.453 215.112 271.307Z" stroke="#D7F0FB" stroke-width="2.5364" stroke-linecap="round" stroke-linejoin="round"/>
<path opacity="0.81" d="M213.01 265.566C242.043 265.566 265.579 242.03 265.579 212.997C265.579 183.964 242.043 160.428 213.01 160.428C183.977 160.428 160.441 183.964 160.441 212.997C160.441 242.03 183.977 265.566 213.01 265.566Z" stroke="#D7F0FB" stroke-width="2.6292" stroke-linecap="round" stroke-linejoin="round"/>
<path opacity="0.81" d="M214.704 259.862C240.559 258.941 260.773 237.235 259.852 211.38C258.931 185.525 237.224 165.312 211.369 166.233C185.514 167.154 165.301 188.86 166.222 214.715C167.143 240.57 188.849 260.783 214.704 259.862Z" stroke="#D7F0FB" stroke-width="2.7219" stroke-linecap="round" stroke-linejoin="round"/>
<path opacity="0.81" d="M213.01 254.114C235.718 254.114 254.127 235.706 254.127 212.997C254.127 190.289 235.718 171.88 213.01 171.88C190.302 171.88 171.893 190.289 171.893 212.997C171.893 235.706 190.302 254.114 213.01 254.114Z" stroke="#D7F0FB" stroke-width="2.8146" stroke-linecap="round" stroke-linejoin="round"/>
<path opacity="0.81" d="M214.297 248.417C233.831 247.721 249.102 231.322 248.407 211.787C247.711 192.253 231.311 176.982 211.777 177.678C192.243 178.373 176.971 194.773 177.667 214.307C178.363 233.841 194.763 249.113 214.297 248.417Z" stroke="#D7F0FB" stroke-width="2.9073" stroke-linecap="round" stroke-linejoin="round"/>
<path opacity="0.81" d="M213.01 242.662C229.394 242.662 242.675 229.381 242.675 212.997C242.675 196.614 229.394 183.332 213.01 183.332C196.627 183.332 183.345 196.614 183.345 212.997C183.345 229.381 196.627 242.662 213.01 242.662Z" stroke="#D7F0FB" stroke-width="3" stroke-linecap="round" stroke-linejoin="round"/>
</svg>
