<svg width="164" height="88" viewBox="0 0 164 88" fill="none" xmlns="http://www.w3.org/2000/svg">
<path d="M108.16 5.07999C108.16 7.33299 106.333 9.15997 104.08 9.15997C101.826 9.15997 100 7.33299 100 5.07999C100 2.82599 101.827 1 104.08 1C106.333 0.999 108.16 2.82599 108.16 5.07999Z" stroke="#FFD9D9" stroke-width="2" stroke-miterlimit="10" stroke-linecap="round" stroke-linejoin="round"/>
<path opacity="0.89" d="M81.898 170.796C126.577 170.796 162.796 134.577 162.796 89.898C162.796 45.2193 126.577 9 81.898 9C37.2193 9 1 45.2193 1 89.898C1 134.577 37.2193 170.796 81.898 170.796Z" stroke="#D9FFE6" stroke-width="0.8127" stroke-linecap="round" stroke-linejoin="round"/>
<path opacity="0.89" d="M81.8979 164.897C123.319 164.897 156.897 131.319 156.897 89.8979C156.897 48.4771 123.319 14.8989 81.8979 14.8989C40.4771 14.8989 6.89893 48.4771 6.89893 89.8979C6.89893 131.319 40.4771 164.897 81.8979 164.897Z" stroke="#D9FFE6" stroke-width="0.9493" stroke-linecap="round" stroke-linejoin="round"/>
<path opacity="0.89" d="M81.898 158.998C120.061 158.998 150.998 128.061 150.998 89.8979C150.998 51.735 120.061 20.7979 81.898 20.7979C43.7351 20.7979 12.798 51.735 12.798 89.8979C12.798 128.061 43.7351 158.998 81.898 158.998Z" stroke="#D9FFE6" stroke-width="1.0859" stroke-linecap="round" stroke-linejoin="round"/>
<path opacity="0.89" d="M81.898 153.099C116.803 153.099 145.099 124.803 145.099 89.898C145.099 54.9931 116.803 26.697 81.898 26.697C46.9931 26.697 18.697 54.9931 18.697 89.898C18.697 124.803 46.9931 153.099 81.898 153.099Z" stroke="#D9FFE6" stroke-width="1.2225" stroke-linecap="round" stroke-linejoin="round"/>
<path opacity="0.89" d="M81.8979 147.2C113.545 147.2 139.2 121.545 139.2 89.8979C139.2 58.2509 113.545 32.5959 81.8979 32.5959C50.2509 32.5959 24.5959 58.2509 24.5959 89.8979C24.5959 121.545 50.2509 147.2 81.8979 147.2Z" stroke="#D9FFE6" stroke-width="1.3591" stroke-linecap="round" stroke-linejoin="round"/>
<path opacity="0.89" d="M81.898 141.301C110.287 141.301 133.301 118.287 133.301 89.8981C133.301 61.509 110.287 38.4951 81.898 38.4951C53.5089 38.4951 30.495 61.509 30.495 89.8981C30.495 118.287 53.5089 141.301 81.898 141.301Z" stroke="#D9FFE6" stroke-width="1.4956" stroke-linecap="round" stroke-linejoin="round"/>
<path opacity="0.89" d="M81.898 135.401C107.029 135.401 127.401 115.029 127.401 89.898C127.401 64.7674 107.029 44.395 81.898 44.395C56.7674 44.395 36.395 64.7674 36.395 89.898C36.395 115.029 56.7674 135.401 81.898 135.401Z" stroke="#D9FFE6" stroke-width="1.6322" stroke-linecap="round" stroke-linejoin="round"/>
<path opacity="0.89" d="M81.8979 129.502C103.771 129.502 121.502 111.771 121.502 89.8979C121.502 68.0253 103.771 50.2939 81.8979 50.2939C60.0253 50.2939 42.2939 68.0253 42.2939 89.8979C42.2939 111.771 60.0253 129.502 81.8979 129.502Z" stroke="#D9FFE6" stroke-width="1.7688" stroke-linecap="round" stroke-linejoin="round"/>
<path opacity="0.89" d="M81.898 123.603C100.513 123.603 115.603 108.513 115.603 89.8979C115.603 71.2831 100.513 56.1929 81.898 56.1929C63.2833 56.1929 48.193 71.2831 48.193 89.8979C48.193 108.513 63.2833 123.603 81.898 123.603Z" stroke="#D9FFE6" stroke-width="1.9054" stroke-linecap="round" stroke-linejoin="round"/>
<path opacity="0.89" d="M81.898 117.704C97.2549 117.704 109.704 105.255 109.704 89.898C109.704 74.5412 97.2549 62.092 81.898 62.092C66.5412 62.092 54.092 74.5412 54.092 89.898C54.092 105.255 66.5412 117.704 81.898 117.704Z" stroke="#D9FFE6" stroke-width="2.042" stroke-linecap="round" stroke-linejoin="round"/>
<path opacity="0.89" d="M81.898 111.805C93.9969 111.805 103.805 101.997 103.805 89.898C103.805 77.7991 93.9969 67.991 81.898 67.991C69.7991 67.991 59.991 77.7991 59.991 89.898C59.991 101.997 69.7991 111.805 81.898 111.805Z" stroke="#D9FFE6" stroke-width="2.1786" stroke-linecap="round" stroke-linejoin="round"/>
<path opacity="0.89" d="M81.898 105.906C90.739 105.906 97.906 98.7391 97.906 89.8981C97.906 81.0572 90.739 73.8901 81.898 73.8901C73.057 73.8901 65.89 81.0572 65.89 89.8981C65.89 98.7391 73.057 105.906 81.898 105.906Z" stroke="#D9FFE6" stroke-width="2.3152" stroke-linecap="round" stroke-linejoin="round"/>
</svg>
