<svg width="205" height="386" viewBox="0 0 205 386" fill="none" xmlns="http://www.w3.org/2000/svg">
<path opacity="0.5" d="M78.5582 226.915C79.5391 226.915 80.3342 226.12 80.3342 225.139C80.3342 224.158 79.5391 223.363 78.5582 223.363C77.5774 223.363 76.7822 224.158 76.7822 225.139C76.7822 226.12 77.5774 226.915 78.5582 226.915Z" fill="#FFD9D9"/>
<path opacity="0.5" d="M78.5582 242.219C79.5391 242.219 80.3342 241.424 80.3342 240.443C80.3342 239.463 79.5391 238.667 78.5582 238.667C77.5774 238.667 76.7822 239.463 76.7822 240.443C76.7822 241.424 77.5774 242.219 78.5582 242.219Z" fill="#FFD9D9"/>
<path opacity="0.5" d="M78.5582 257.526C79.5391 257.526 80.3342 256.73 80.3342 255.75C80.3342 254.769 79.5391 253.974 78.5582 253.974C77.5774 253.974 76.7822 254.769 76.7822 255.75C76.7822 256.73 77.5774 257.526 78.5582 257.526Z" fill="#FFD9D9"/>
<path opacity="0.5" d="M78.5582 272.831C79.5391 272.831 80.3342 272.036 80.3342 271.055C80.3342 270.074 79.5391 269.279 78.5582 269.279C77.5774 269.279 76.7822 270.074 76.7822 271.055C76.7822 272.036 77.5774 272.831 78.5582 272.831Z" fill="#FFD9D9"/>
<path opacity="0.5" d="M78.5582 288.136C79.5391 288.136 80.3342 287.341 80.3342 286.36C80.3342 285.38 79.5391 284.584 78.5582 284.584C77.5774 284.584 76.7822 285.38 76.7822 286.36C76.7822 287.341 77.5774 288.136 78.5582 288.136Z" fill="#FFD9D9"/>
<path opacity="0.5" d="M78.5582 303.442C79.5391 303.442 80.3342 302.647 80.3342 301.666C80.3342 300.685 79.5391 299.89 78.5582 299.89C77.5774 299.89 76.7822 300.685 76.7822 301.666C76.7822 302.647 77.5774 303.442 78.5582 303.442Z" fill="#FFD9D9"/>
<path opacity="0.5" d="M78.5582 318.747C79.5391 318.747 80.3342 317.952 80.3342 316.971C80.3342 315.99 79.5391 315.195 78.5582 315.195C77.5774 315.195 76.7822 315.99 76.7822 316.971C76.7822 317.952 77.5774 318.747 78.5582 318.747Z" fill="#FFD9D9"/>
<path opacity="0.5" d="M78.5582 334.052C77.5772 334.052 76.7822 333.257 76.7822 332.276C76.7822 331.295 77.5772 330.5 78.5582 330.5C79.5392 330.5 80.3342 331.295 80.3342 332.276C80.3352 333.256 79.5392 334.052 78.5582 334.052Z" fill="#FFD9D9"/>
<path opacity="0.5" d="M63.2531 226.915C62.2721 226.915 61.4771 226.12 61.4771 225.139C61.4771 224.158 62.2721 223.363 63.2531 223.363C64.2341 223.363 65.0291 224.158 65.0291 225.139C65.0291 226.12 64.2341 226.915 63.2531 226.915Z" fill="#FFD9D9"/>
<path opacity="0.5" d="M63.2531 242.22C62.2721 242.22 61.4771 241.425 61.4771 240.444C61.4771 239.463 62.2721 238.668 63.2531 238.668C64.2341 238.668 65.0291 239.463 65.0291 240.444C65.0291 241.424 64.2341 242.22 63.2531 242.22Z" fill="#FFD9D9"/>
<path opacity="0.5" d="M63.2531 257.526C62.2721 257.526 61.4771 256.731 61.4771 255.75C61.4771 254.769 62.2721 253.974 63.2531 253.974C64.2341 253.974 65.0291 254.769 65.0291 255.75C65.0291 256.731 64.2341 257.526 63.2531 257.526Z" fill="#FFD9D9"/>
<path opacity="0.5" d="M63.2531 272.831C62.2721 272.831 61.4771 272.036 61.4771 271.055C61.4771 270.074 62.2721 269.279 63.2531 269.279C64.2341 269.279 65.0291 270.074 65.0291 271.055C65.0291 272.036 64.2341 272.831 63.2531 272.831Z" fill="#FFD9D9"/>
<path opacity="0.5" d="M63.2531 288.136C62.2721 288.136 61.4771 287.341 61.4771 286.36C61.4771 285.379 62.2721 284.584 63.2531 284.584C64.2341 284.584 65.0291 285.379 65.0291 286.36C65.0291 287.34 64.2341 288.136 63.2531 288.136Z" fill="#FFD9D9"/>
<path opacity="0.5" d="M63.2531 303.442C62.2721 303.442 61.4771 302.647 61.4771 301.666C61.4771 300.685 62.2721 299.89 63.2531 299.89C64.2341 299.89 65.0291 300.685 65.0291 301.666C65.0291 302.647 64.2341 303.442 63.2531 303.442Z" fill="#FFD9D9"/>
<path opacity="0.5" d="M63.2531 318.747C62.2721 318.747 61.4771 317.952 61.4771 316.971C61.4771 315.99 62.2721 315.195 63.2531 315.195C64.2341 315.195 65.0291 315.99 65.0291 316.971C65.0291 317.952 64.2341 318.747 63.2531 318.747Z" fill="#FFD9D9"/>
<path opacity="0.5" d="M63.2531 334.052C62.2721 334.052 61.4771 333.257 61.4771 332.276C61.4771 331.295 62.2721 330.5 63.2531 330.5C64.2341 330.5 65.0291 331.295 65.0291 332.276C65.0291 333.256 64.2341 334.052 63.2531 334.052Z" fill="#FFD9D9"/>
<path opacity="0.5" d="M47.9481 226.915C48.929 226.915 49.7241 226.12 49.7241 225.139C49.7241 224.158 48.929 223.363 47.9481 223.363C46.9673 223.363 46.1721 224.158 46.1721 225.139C46.1721 226.12 46.9673 226.915 47.9481 226.915Z" fill="#FFD9D9"/>
<path opacity="0.5" d="M47.9481 242.219C48.929 242.219 49.7241 241.424 49.7241 240.443C49.7241 239.463 48.929 238.667 47.9481 238.667C46.9673 238.667 46.1721 239.463 46.1721 240.443C46.1721 241.424 46.9673 242.219 47.9481 242.219Z" fill="#FFD9D9"/>
<path opacity="0.5" d="M47.9481 257.526C48.929 257.526 49.7241 256.73 49.7241 255.75C49.7241 254.769 48.929 253.974 47.9481 253.974C46.9673 253.974 46.1721 254.769 46.1721 255.75C46.1721 256.73 46.9673 257.526 47.9481 257.526Z" fill="#FFD9D9"/>
<path opacity="0.5" d="M47.9481 272.831C48.929 272.831 49.7241 272.036 49.7241 271.055C49.7241 270.074 48.929 269.279 47.9481 269.279C46.9673 269.279 46.1721 270.074 46.1721 271.055C46.1721 272.036 46.9673 272.831 47.9481 272.831Z" fill="#FFD9D9"/>
<path opacity="0.5" d="M47.9481 288.136C48.929 288.136 49.7241 287.341 49.7241 286.36C49.7241 285.38 48.929 284.584 47.9481 284.584C46.9673 284.584 46.1721 285.38 46.1721 286.36C46.1721 287.341 46.9673 288.136 47.9481 288.136Z" fill="#FFD9D9"/>
<path opacity="0.5" d="M47.9481 303.442C48.929 303.442 49.7241 302.647 49.7241 301.666C49.7241 300.685 48.929 299.89 47.9481 299.89C46.9673 299.89 46.1721 300.685 46.1721 301.666C46.1721 302.647 46.9673 303.442 47.9481 303.442Z" fill="#FFD9D9"/>
<path opacity="0.5" d="M47.9481 318.747C48.929 318.747 49.7241 317.952 49.7241 316.971C49.7241 315.99 48.929 315.195 47.9481 315.195C46.9673 315.195 46.1721 315.99 46.1721 316.971C46.1721 317.952 46.9673 318.747 47.9481 318.747Z" fill="#FFD9D9"/>
<path opacity="0.5" d="M47.9481 334.052C46.9671 334.052 46.1721 333.257 46.1721 332.276C46.1721 331.295 46.9671 330.5 47.9481 330.5C48.9291 330.5 49.7241 331.295 49.7241 332.276C49.7241 333.256 48.9291 334.052 47.9481 334.052Z" fill="#FFD9D9"/>
<path opacity="0.5" d="M32.6422 226.915C33.6231 226.915 34.4182 226.12 34.4182 225.139C34.4182 224.158 33.6231 223.363 32.6422 223.363C31.6614 223.363 30.8662 224.158 30.8662 225.139C30.8662 226.12 31.6614 226.915 32.6422 226.915Z" fill="#FFD9D9"/>
<path opacity="0.5" d="M32.6422 242.219C33.6231 242.219 34.4182 241.424 34.4182 240.443C34.4182 239.463 33.6231 238.667 32.6422 238.667C31.6614 238.667 30.8662 239.463 30.8662 240.443C30.8662 241.424 31.6614 242.219 32.6422 242.219Z" fill="#FFD9D9"/>
<path opacity="0.5" d="M32.6422 257.526C33.6231 257.526 34.4182 256.73 34.4182 255.75C34.4182 254.769 33.6231 253.974 32.6422 253.974C31.6614 253.974 30.8662 254.769 30.8662 255.75C30.8662 256.73 31.6614 257.526 32.6422 257.526Z" fill="#FFD9D9"/>
<path opacity="0.5" d="M32.6422 272.831C33.6231 272.831 34.4182 272.036 34.4182 271.055C34.4182 270.074 33.6231 269.279 32.6422 269.279C31.6614 269.279 30.8662 270.074 30.8662 271.055C30.8662 272.036 31.6614 272.831 32.6422 272.831Z" fill="#FFD9D9"/>
<path opacity="0.5" d="M32.6422 288.136C33.6231 288.136 34.4182 287.341 34.4182 286.36C34.4182 285.38 33.6231 284.584 32.6422 284.584C31.6614 284.584 30.8662 285.38 30.8662 286.36C30.8662 287.341 31.6614 288.136 32.6422 288.136Z" fill="#FFD9D9"/>
<path opacity="0.5" d="M32.6422 303.442C33.6231 303.442 34.4182 302.647 34.4182 301.666C34.4182 300.685 33.6231 299.89 32.6422 299.89C31.6614 299.89 30.8662 300.685 30.8662 301.666C30.8662 302.647 31.6614 303.442 32.6422 303.442Z" fill="#FFD9D9"/>
<path opacity="0.5" d="M32.6422 318.747C33.6231 318.747 34.4182 317.952 34.4182 316.971C34.4182 315.99 33.6231 315.195 32.6422 315.195C31.6614 315.195 30.8662 315.99 30.8662 316.971C30.8662 317.952 31.6614 318.747 32.6422 318.747Z" fill="#FFD9D9"/>
<path opacity="0.5" d="M32.6422 334.052C31.6612 334.052 30.8662 333.257 30.8662 332.276C30.8662 331.295 31.6612 330.5 32.6422 330.5C33.6232 330.5 34.4182 331.295 34.4182 332.276C34.4192 333.256 33.6232 334.052 32.6422 334.052Z" fill="#FFD9D9"/>
<path opacity="0.5" d="M17.337 226.915C18.3179 226.915 19.113 226.12 19.113 225.139C19.113 224.158 18.3179 223.363 17.337 223.363C16.3562 223.363 15.561 224.158 15.561 225.139C15.561 226.12 16.3562 226.915 17.337 226.915Z" fill="#FFD9D9"/>
<path opacity="0.5" d="M17.337 242.219C18.3179 242.219 19.113 241.424 19.113 240.443C19.113 239.463 18.3179 238.667 17.337 238.667C16.3562 238.667 15.561 239.463 15.561 240.443C15.561 241.424 16.3562 242.219 17.337 242.219Z" fill="#FFD9D9"/>
<path opacity="0.5" d="M17.337 257.526C18.3179 257.526 19.113 256.73 19.113 255.75C19.113 254.769 18.3179 253.974 17.337 253.974C16.3562 253.974 15.561 254.769 15.561 255.75C15.561 256.73 16.3562 257.526 17.337 257.526Z" fill="#FFD9D9"/>
<path opacity="0.5" d="M17.337 272.831C18.3179 272.831 19.113 272.036 19.113 271.055C19.113 270.074 18.3179 269.279 17.337 269.279C16.3562 269.279 15.561 270.074 15.561 271.055C15.561 272.036 16.3562 272.831 17.337 272.831Z" fill="#FFD9D9"/>
<path opacity="0.5" d="M17.337 288.136C18.3179 288.136 19.113 287.341 19.113 286.36C19.113 285.38 18.3179 284.584 17.337 284.584C16.3562 284.584 15.561 285.38 15.561 286.36C15.561 287.341 16.3562 288.136 17.337 288.136Z" fill="#FFD9D9"/>
<path opacity="0.5" d="M17.337 303.442C18.3179 303.442 19.113 302.647 19.113 301.666C19.113 300.685 18.3179 299.89 17.337 299.89C16.3562 299.89 15.561 300.685 15.561 301.666C15.561 302.647 16.3562 303.442 17.337 303.442Z" fill="#FFD9D9"/>
<path opacity="0.5" d="M17.337 318.747C18.3179 318.747 19.113 317.952 19.113 316.971C19.113 315.99 18.3179 315.195 17.337 315.195C16.3562 315.195 15.561 315.99 15.561 316.971C15.561 317.952 16.3562 318.747 17.337 318.747Z" fill="#FFD9D9"/>
<path opacity="0.5" d="M17.337 334.052C16.356 334.052 15.561 333.257 15.561 332.276C15.561 331.295 16.356 330.5 17.337 330.5C18.318 330.5 19.113 331.295 19.113 332.276C19.113 333.256 18.318 334.052 17.337 334.052Z" fill="#FFD9D9"/>
<path opacity="0.5" d="M2.0321 226.915C3.01296 226.915 3.80811 226.12 3.80811 225.139C3.80811 224.158 3.01296 223.363 2.0321 223.363C1.05125 223.363 0.256104 224.158 0.256104 225.139C0.256104 226.12 1.05125 226.915 2.0321 226.915Z" fill="#FFD9D9"/>
<path opacity="0.5" d="M2.0321 242.219C3.01296 242.219 3.80811 241.424 3.80811 240.443C3.80811 239.463 3.01296 238.667 2.0321 238.667C1.05125 238.667 0.256104 239.463 0.256104 240.443C0.256104 241.424 1.05125 242.219 2.0321 242.219Z" fill="#FFD9D9"/>
<path opacity="0.5" d="M2.0321 257.526C3.01296 257.526 3.80811 256.73 3.80811 255.75C3.80811 254.769 3.01296 253.974 2.0321 253.974C1.05125 253.974 0.256104 254.769 0.256104 255.75C0.256104 256.73 1.05125 257.526 2.0321 257.526Z" fill="#FFD9D9"/>
<path opacity="0.5" d="M2.0321 272.831C3.01296 272.831 3.80811 272.036 3.80811 271.055C3.80811 270.074 3.01296 269.279 2.0321 269.279C1.05125 269.279 0.256104 270.074 0.256104 271.055C0.256104 272.036 1.05125 272.831 2.0321 272.831Z" fill="#FFD9D9"/>
<path opacity="0.5" d="M2.0321 288.136C3.01296 288.136 3.80811 287.341 3.80811 286.36C3.80811 285.38 3.01296 284.584 2.0321 284.584C1.05125 284.584 0.256104 285.38 0.256104 286.36C0.256104 287.341 1.05125 288.136 2.0321 288.136Z" fill="#FFD9D9"/>
<path opacity="0.5" d="M2.0321 303.442C3.01296 303.442 3.80811 302.647 3.80811 301.666C3.80811 300.685 3.01296 299.89 2.0321 299.89C1.05125 299.89 0.256104 300.685 0.256104 301.666C0.256104 302.647 1.05125 303.442 2.0321 303.442Z" fill="#FFD9D9"/>
<path opacity="0.5" d="M2.0321 318.747C3.01296 318.747 3.80811 317.952 3.80811 316.971C3.80811 315.99 3.01296 315.195 2.0321 315.195C1.05125 315.195 0.256104 315.99 0.256104 316.971C0.256104 317.952 1.05125 318.747 2.0321 318.747Z" fill="#FFD9D9"/>
<path opacity="0.5" d="M2.0321 334.052C1.0511 334.052 0.256104 333.257 0.256104 332.276C0.256104 331.295 1.0511 330.5 2.0321 330.5C3.0131 330.5 3.80811 331.295 3.80811 332.276C3.80811 333.256 3.0131 334.052 2.0321 334.052Z" fill="#FFD9D9"/>
<path opacity="0.2" d="M199.976 35.9999L43 192.976L199.976 349.952L356.952 192.976L199.976 35.9999Z" stroke="#D9E3FF" stroke-width="50" stroke-miterlimit="10"/>
</svg>
