<svg width="99" height="263" viewBox="0 0 99 263" fill="none" xmlns="http://www.w3.org/2000/svg">
<path opacity="0.79" d="M32.6538 196.654C68.6727 160.635 68.6727 102.237 32.6539 66.2181C-3.36502 30.1992 -61.7632 30.1992 -97.7821 66.2181C-133.801 102.237 -133.801 160.635 -97.782 196.654C-61.7632 232.673 -3.36504 232.673 32.6538 196.654Z" stroke="#FFD9D9" stroke-width="0.5" stroke-miterlimit="10"/>
<path opacity="0.79" d="M28.0584 192.059C61.5393 158.578 61.5394 104.294 28.0585 70.8135C-5.42242 37.3326 -59.7057 37.3326 -93.1866 70.8135C-126.667 104.294 -126.667 158.578 -93.1866 192.059C-59.7057 225.539 -5.42244 225.539 28.0584 192.059Z" stroke="#FFD9D9" stroke-width="0.7273" stroke-miterlimit="10"/>
<path opacity="0.79" d="M-32.557 210.669C11.2033 210.669 46.678 175.194 46.678 131.434C46.678 87.6737 11.2033 52.199 -32.557 52.199C-76.3173 52.199 -111.792 87.6737 -111.792 131.434C-111.792 175.194 -76.3173 210.669 -32.557 210.669Z" stroke="#FFD9D9" stroke-width="0.9545" stroke-miterlimit="10"/>
<path opacity="0.79" d="M-32.557 204.17C7.61398 204.17 40.179 171.605 40.179 131.434C40.179 91.263 7.61398 58.698 -32.557 58.698C-72.728 58.698 -105.293 91.263 -105.293 131.434C-105.293 171.605 -72.728 204.17 -32.557 204.17Z" stroke="#FFD9D9" stroke-width="1.1818" stroke-miterlimit="10"/>
<path opacity="0.79" d="M-32.5571 197.671C4.02461 197.671 33.6799 168.016 33.6799 131.434C33.6799 94.8523 4.02461 65.197 -32.5571 65.197C-69.1388 65.197 -98.7941 94.8523 -98.7941 131.434C-98.7941 168.016 -69.1388 197.671 -32.5571 197.671Z" stroke="#FFD9D9" stroke-width="1.4091" stroke-miterlimit="10"/>
<path opacity="0.79" d="M-32.5571 191.172C0.435318 191.172 27.181 164.426 27.181 131.434C27.181 98.4417 0.435318 71.696 -32.5571 71.696C-65.5495 71.696 -92.295 98.4417 -92.295 131.434C-92.295 164.426 -65.5495 191.172 -32.5571 191.172Z" stroke="#FFD9D9" stroke-width="1.6364" stroke-miterlimit="10"/>
<path opacity="0.79" d="M-32.5571 184.673C-3.15404 184.673 20.6819 160.837 20.6819 131.434C20.6819 102.031 -3.15404 78.1948 -32.5571 78.1948C-61.9602 78.1948 -85.7961 102.031 -85.7961 131.434C-85.7961 160.837 -61.9602 184.673 -32.5571 184.673Z" stroke="#FFD9D9" stroke-width="1.8636" stroke-miterlimit="10"/>
<path opacity="0.79" d="M-32.5571 178.174C-6.74334 178.174 14.1829 157.248 14.1829 131.434C14.1829 105.62 -6.74334 84.6938 -32.5571 84.6938C-58.3709 84.6938 -79.2971 105.62 -79.2971 131.434C-79.2971 157.248 -58.3709 178.174 -32.5571 178.174Z" stroke="#FFD9D9" stroke-width="2.0909" stroke-miterlimit="10"/>
<path opacity="0.79" d="M-32.5571 171.675C-10.3326 171.675 7.6839 153.658 7.6839 131.434C7.6839 109.209 -10.3326 91.1929 -32.5571 91.1929C-54.7816 91.1929 -72.7981 109.209 -72.7981 131.434C-72.7981 153.658 -54.7816 171.675 -32.5571 171.675Z" stroke="#FFD9D9" stroke-width="2.3182" stroke-miterlimit="10"/>
<path opacity="0.79" d="M-32.5571 165.176C-13.9219 165.176 1.18494 150.069 1.18494 131.434C1.18494 112.799 -13.9219 97.6919 -32.5571 97.6919C-51.1923 97.6919 -66.2991 112.799 -66.2991 131.434C-66.2991 150.069 -51.1923 165.176 -32.5571 165.176Z" stroke="#FFD9D9" stroke-width="2.5454" stroke-miterlimit="10"/>
</svg>
