<svg width="153" height="401" viewBox="0 0 153 401" fill="none" xmlns="http://www.w3.org/2000/svg">
<path opacity="0.8" d="M52.0099 300.01C107.056 244.964 107.056 155.716 52.01 100.67C-3.03625 45.6239 -92.2838 45.6239 -147.33 100.67C-202.376 155.716 -202.376 244.964 -147.33 300.01C-92.2838 355.056 -3.03627 355.056 52.0099 300.01Z" stroke="#E1F1FF" stroke-width="0.5" stroke-miterlimit="10"/>
<path opacity="0.8" d="M46.9888 294.989C99.262 242.716 99.262 157.964 46.9888 105.691C-5.2843 53.4181 -90.0358 53.4181 -142.309 105.691C-194.582 157.964 -194.582 242.716 -142.309 294.989C-90.0358 347.262 -5.28431 347.262 46.9888 294.989Z" stroke="#E1F1FF" stroke-width="0.6563" stroke-miterlimit="10"/>
<path opacity="0.8" d="M-47.6555 327.092C22.3488 327.092 79.0984 270.342 79.0984 200.338C79.0984 130.333 22.3488 73.5837 -47.6555 73.5837C-117.66 73.5837 -174.41 130.333 -174.41 200.338C-174.41 270.342 -117.66 327.092 -47.6555 327.092Z" stroke="#E1F1FF" stroke-width="0.8125" stroke-miterlimit="10"/>
<path opacity="0.8" d="M-47.6555 319.991C18.427 319.991 71.9975 266.42 71.9975 200.338C71.9975 134.255 18.427 80.6848 -47.6555 80.6848C-113.738 80.6848 -167.308 134.255 -167.308 200.338C-167.308 266.42 -113.738 319.991 -47.6555 319.991Z" stroke="#E1F1FF" stroke-width="0.9688" stroke-miterlimit="10"/>
<path opacity="0.8" d="M31.9255 279.926C75.8794 235.972 75.8794 164.709 31.9255 120.755C-12.0284 76.8009 -83.2917 76.8009 -127.246 120.755C-171.199 164.709 -171.199 235.972 -127.246 279.926C-83.2917 323.88 -12.0284 323.88 31.9255 279.926Z" stroke="#E1F1FF" stroke-width="1.125" stroke-miterlimit="10"/>
<path opacity="0.8" d="M26.9044 274.904C68.0852 233.724 68.0852 166.956 26.9044 125.776C-14.2764 84.5949 -81.0436 84.5949 -122.224 125.776C-163.405 166.956 -163.405 233.724 -122.224 274.904C-81.0436 316.085 -14.2764 316.085 26.9044 274.904Z" stroke="#E1F1FF" stroke-width="1.2813" stroke-miterlimit="10"/>
<path opacity="0.8" d="M21.8833 269.884C60.291 231.476 60.291 169.205 21.8833 130.797C-16.5244 92.3893 -78.7956 92.3894 -117.203 130.797C-155.611 169.205 -155.611 231.476 -117.203 269.884C-78.7956 308.291 -16.5244 308.291 21.8833 269.884Z" stroke="#E1F1FF" stroke-width="1.4375" stroke-miterlimit="10"/>
<path opacity="0.8" d="M16.8621 264.862C52.4968 229.228 52.4967 171.453 16.8621 135.818C-18.7725 100.183 -76.5476 100.183 -112.182 135.818C-147.817 171.453 -147.817 229.228 -112.182 264.862C-76.5476 300.497 -18.7725 300.497 16.8621 264.862Z" stroke="#E1F1FF" stroke-width="1.5938" stroke-miterlimit="10"/>
<path opacity="0.8" d="M35.428 213.766C42.8312 167.888 11.6409 124.695 -34.2373 117.292C-80.1156 109.888 -123.309 141.079 -130.712 186.957C-138.115 232.835 -106.925 276.028 -61.0465 283.431C-15.1683 290.835 28.0248 259.644 35.428 213.766Z" stroke="#E1F1FF" stroke-width="1.75" stroke-miterlimit="10"/>
<path opacity="0.8" d="M-47.6555 277.384C-5.10422 277.384 29.3904 242.889 29.3904 200.338C29.3904 157.786 -5.10422 123.292 -47.6555 123.292C-90.2069 123.292 -124.702 157.786 -124.702 200.338C-124.702 242.889 -90.2069 277.384 -47.6555 277.384Z" stroke="#E1F1FF" stroke-width="1.9063" stroke-miterlimit="10"/>
<path opacity="0.8" d="M1.79816 249.798C29.1131 222.483 29.1131 178.197 1.79813 150.882C-25.5168 123.567 -69.8031 123.567 -97.1181 150.882C-124.433 178.197 -124.433 222.483 -97.1181 249.798C-69.8031 277.113 -25.5168 277.113 1.79816 249.798Z" stroke="#E1F1FF" stroke-width="2.0625" stroke-miterlimit="10"/>
<path opacity="0.8" d="M-3.22296 244.777C21.3189 220.235 21.3189 180.445 -3.22295 155.903C-27.7648 131.361 -67.5551 131.361 -92.0969 155.903C-116.639 180.445 -116.639 220.235 -92.0969 244.777C-67.5551 269.319 -27.7648 269.319 -3.22296 244.777Z" stroke="#E1F1FF" stroke-width="2.2188" stroke-miterlimit="10"/>
<path opacity="0.8" d="M-8.24409 239.756C13.5247 217.987 13.5247 182.693 -8.24409 160.924C-30.0129 139.155 -65.3071 139.155 -87.0758 160.924C-108.845 182.693 -108.845 217.987 -87.0758 239.756C-65.307 261.525 -30.0129 261.525 -8.24409 239.756Z" stroke="#E1F1FF" stroke-width="2.375" stroke-miterlimit="10"/>
<path opacity="0.8" d="M-13.2652 234.735C5.73051 215.739 5.7305 184.941 -13.2652 165.946C-32.2609 146.95 -63.059 146.95 -82.0547 165.946C-101.05 184.941 -101.05 215.739 -82.0547 234.735C-63.059 253.731 -32.2609 253.731 -13.2652 234.735Z" stroke="#E1F1FF" stroke-width="2.5313" stroke-miterlimit="10"/>
</svg>
