<svg width="154" height="324" viewBox="0 0 154 324" fill="none" xmlns="http://www.w3.org/2000/svg">
<path opacity="0.1" d="M-134.024 -64.0001L-291 92.9761L-95.5441 288.432L61.4321 131.456L-134.024 -64.0001Z" stroke="#B1C7FF" stroke-width="50" stroke-miterlimit="10"/>
<path opacity="0.5" d="M36.464 9.69202C36.464 10.673 35.669 11.468 34.688 11.468C33.707 11.468 32.912 10.673 32.912 9.69202C32.912 8.71102 33.707 7.91602 34.688 7.91602C35.669 7.91602 36.464 8.71102 36.464 9.69202Z" fill="#FFD9D9"/>
<path opacity="0.5" d="M49.993 11.468C50.9739 11.468 51.769 10.6729 51.769 9.69202C51.769 8.71116 50.9739 7.91602 49.993 7.91602C49.0122 7.91602 48.217 8.71116 48.217 9.69202C48.217 10.6729 49.0122 11.468 49.993 11.468Z" fill="#FFD9D9"/>
<path opacity="0.5" d="M65.299 11.468C66.2798 11.468 67.075 10.6729 67.075 9.69202C67.075 8.71116 66.2798 7.91602 65.299 7.91602C64.3181 7.91602 63.5229 8.71116 63.5229 9.69202C63.5229 10.6729 64.3181 11.468 65.299 11.468Z" fill="#FFD9D9"/>
<path opacity="0.5" d="M82.38 9.69202C82.38 10.673 81.585 11.468 80.604 11.468C79.623 11.468 78.828 10.673 78.828 9.69202C78.828 8.71102 79.623 7.91602 80.604 7.91602C81.585 7.91602 82.38 8.71102 82.38 9.69202Z" fill="#FFD9D9"/>
<path opacity="0.5" d="M95.9091 11.468C96.8899 11.468 97.6851 10.6729 97.6851 9.69202C97.6851 8.71116 96.8899 7.91602 95.9091 7.91602C94.9282 7.91602 94.1331 8.71116 94.1331 9.69202C94.1331 10.6729 94.9282 11.468 95.9091 11.468Z" fill="#FFD9D9"/>
<path opacity="0.5" d="M111.215 11.468C112.196 11.468 112.991 10.6729 112.991 9.69202C112.991 8.71116 112.196 7.91602 111.215 7.91602C110.234 7.91602 109.439 8.71116 109.439 9.69202C109.439 10.6729 110.234 11.468 111.215 11.468Z" fill="#FFD9D9"/>
<path opacity="0.5" d="M126.52 11.468C127.501 11.468 128.296 10.6729 128.296 9.69202C128.296 8.71116 127.501 7.91602 126.52 7.91602C125.539 7.91602 124.744 8.71116 124.744 9.69202C124.744 10.6729 125.539 11.468 126.52 11.468Z" fill="#FFD9D9"/>
<path opacity="0.5" d="M141.825 11.468C142.806 11.468 143.601 10.6729 143.601 9.69202C143.601 8.71116 142.806 7.91602 141.825 7.91602C140.844 7.91602 140.049 8.71116 140.049 9.69202C140.049 10.6729 140.844 11.468 141.825 11.468Z" fill="#FFD9D9"/>
<path opacity="0.5" d="M36.464 24.9982C36.464 25.9792 35.669 26.7742 34.688 26.7742C33.707 26.7742 32.912 25.9792 32.912 24.9982C32.912 24.0172 33.707 23.2222 34.688 23.2222C35.669 23.2222 36.464 24.0172 36.464 24.9982Z" fill="#FFD9D9"/>
<path opacity="0.5" d="M49.993 26.7742C50.9739 26.7742 51.769 25.979 51.769 24.9982C51.769 24.0173 50.9739 23.2222 49.993 23.2222C49.0122 23.2222 48.217 24.0173 48.217 24.9982C48.217 25.979 49.0122 26.7742 49.993 26.7742Z" fill="#FFD9D9"/>
<path opacity="0.5" d="M65.299 26.7742C66.2798 26.7742 67.075 25.979 67.075 24.9982C67.075 24.0173 66.2798 23.2222 65.299 23.2222C64.3181 23.2222 63.5229 24.0173 63.5229 24.9982C63.5229 25.979 64.3181 26.7742 65.299 26.7742Z" fill="#FFD9D9"/>
<path opacity="0.5" d="M82.38 24.9982C82.38 25.9792 81.585 26.7742 80.604 26.7742C79.623 26.7742 78.828 25.9792 78.828 24.9982C78.828 24.0172 79.623 23.2222 80.604 23.2222C81.585 23.2222 82.38 24.0172 82.38 24.9982Z" fill="#FFD9D9"/>
<path opacity="0.5" d="M95.9091 26.7742C96.8899 26.7742 97.6851 25.979 97.6851 24.9982C97.6851 24.0173 96.8899 23.2222 95.9091 23.2222C94.9282 23.2222 94.1331 24.0173 94.1331 24.9982C94.1331 25.979 94.9282 26.7742 95.9091 26.7742Z" fill="#FFD9D9"/>
<path opacity="0.5" d="M111.215 26.7742C112.196 26.7742 112.991 25.979 112.991 24.9982C112.991 24.0173 112.196 23.2222 111.215 23.2222C110.234 23.2222 109.439 24.0173 109.439 24.9982C109.439 25.979 110.234 26.7742 111.215 26.7742Z" fill="#FFD9D9"/>
<path opacity="0.5" d="M126.52 26.7742C127.501 26.7742 128.296 25.979 128.296 24.9982C128.296 24.0173 127.501 23.2222 126.52 23.2222C125.539 23.2222 124.744 24.0173 124.744 24.9982C124.744 25.979 125.539 26.7742 126.52 26.7742Z" fill="#FFD9D9"/>
<path opacity="0.5" d="M141.825 26.7742C142.806 26.7742 143.601 25.979 143.601 24.9982C143.601 24.0173 142.806 23.2222 141.825 23.2222C140.844 23.2222 140.049 24.0173 140.049 24.9982C140.049 25.979 140.844 26.7742 141.825 26.7742Z" fill="#FFD9D9"/>
<path opacity="0.5" d="M36.464 40.3033C36.464 41.2843 35.669 42.0793 34.688 42.0793C33.707 42.0793 32.912 41.2843 32.912 40.3033C32.912 39.3223 33.707 38.5273 34.688 38.5273C35.669 38.5273 36.464 39.3223 36.464 40.3033Z" fill="#FFD9D9"/>
<path opacity="0.5" d="M49.993 42.0793C50.9739 42.0793 51.769 41.2842 51.769 40.3033C51.769 39.3225 50.9739 38.5273 49.993 38.5273C49.0122 38.5273 48.217 39.3225 48.217 40.3033C48.217 41.2842 49.0122 42.0793 49.993 42.0793Z" fill="#FFD9D9"/>
<path opacity="0.5" d="M65.299 42.0793C66.2798 42.0793 67.075 41.2842 67.075 40.3033C67.075 39.3225 66.2798 38.5273 65.299 38.5273C64.3181 38.5273 63.5229 39.3225 63.5229 40.3033C63.5229 41.2842 64.3181 42.0793 65.299 42.0793Z" fill="#FFD9D9"/>
<path opacity="0.5" d="M82.38 40.3033C82.38 41.2843 81.585 42.0793 80.604 42.0793C79.623 42.0793 78.828 41.2843 78.828 40.3033C78.828 39.3223 79.623 38.5273 80.604 38.5273C81.585 38.5273 82.38 39.3223 82.38 40.3033Z" fill="#FFD9D9"/>
<path opacity="0.5" d="M95.9091 42.0793C96.8899 42.0793 97.6851 41.2842 97.6851 40.3033C97.6851 39.3225 96.8899 38.5273 95.9091 38.5273C94.9282 38.5273 94.1331 39.3225 94.1331 40.3033C94.1331 41.2842 94.9282 42.0793 95.9091 42.0793Z" fill="#FFD9D9"/>
<path opacity="0.5" d="M111.215 42.0793C112.196 42.0793 112.991 41.2842 112.991 40.3033C112.991 39.3225 112.196 38.5273 111.215 38.5273C110.234 38.5273 109.439 39.3225 109.439 40.3033C109.439 41.2842 110.234 42.0793 111.215 42.0793Z" fill="#FFD9D9"/>
<path opacity="0.5" d="M126.52 42.0793C127.501 42.0793 128.296 41.2842 128.296 40.3033C128.296 39.3225 127.501 38.5273 126.52 38.5273C125.539 38.5273 124.744 39.3225 124.744 40.3033C124.744 41.2842 125.539 42.0793 126.52 42.0793Z" fill="#FFD9D9"/>
<path opacity="0.5" d="M141.825 42.0793C142.806 42.0793 143.601 41.2842 143.601 40.3033C143.601 39.3225 142.806 38.5273 141.825 38.5273C140.844 38.5273 140.049 39.3225 140.049 40.3033C140.049 41.2842 140.844 42.0793 141.825 42.0793Z" fill="#FFD9D9"/>
<path d="M152.16 78.08C152.16 80.334 150.333 82.161 148.08 82.161C145.826 82.161 144 80.334 144 78.08C144 75.826 145.827 74 148.08 74C150.333 73.999 152.16 75.826 152.16 78.08Z" stroke="#FFD9D9" stroke-width="2" stroke-miterlimit="10" stroke-linecap="round" stroke-linejoin="round"/>
<path opacity="0.49" d="M78.6841 66.7979V73.9298" stroke="#FFD9D9" stroke-width="2" stroke-miterlimit="10" stroke-linecap="round" stroke-linejoin="round"/>
<path opacity="0.49" d="M82.25 70.3638H75.118" stroke="#FFD9D9" stroke-width="2" stroke-miterlimit="10" stroke-linecap="round" stroke-linejoin="round"/>
<path opacity="0.49" d="M57.125 66.7979V73.9298" stroke="#FFD9D9" stroke-width="2" stroke-miterlimit="10" stroke-linecap="round" stroke-linejoin="round"/>
<path opacity="0.49" d="M60.6911 70.3638H53.5591" stroke="#FFD9D9" stroke-width="2" stroke-miterlimit="10" stroke-linecap="round" stroke-linejoin="round"/>
<path opacity="0.49" d="M35.566 66.7979V73.9298" stroke="#FFD9D9" stroke-width="2" stroke-miterlimit="10" stroke-linecap="round" stroke-linejoin="round"/>
<path opacity="0.49" d="M39.132 70.3638H32" stroke="#FFD9D9" stroke-width="2" stroke-miterlimit="10" stroke-linecap="round" stroke-linejoin="round"/>
</svg>
