<svg width="205" height="273" viewBox="0 0 205 273" fill="none" xmlns="http://www.w3.org/2000/svg">
<path d="M59.7719 89.6205C59.6815 89.6205 59.5882 89.6033 59.4992 89.5659C59.1332 89.4152 58.9581 88.9961 59.1088 88.6286C59.2968 88.1722 59.4935 87.7229 59.6958 87.2837C59.8624 86.9234 60.2887 86.7655 60.649 86.9334C61.0092 87.0999 61.1657 87.5262 60.9992 87.8865C60.804 88.3071 60.6174 88.7363 60.4365 89.1755C60.3217 89.454 60.0533 89.6205 59.7719 89.6205Z" fill="#2E2E2E"/>
<path d="M61.967 85.2627C61.8392 85.2627 61.71 85.2282 61.5938 85.1579C61.255 84.9498 61.1488 84.5091 61.3555 84.1704C61.7703 83.4928 62.211 82.834 62.6675 82.2139C62.9014 81.8952 63.3521 81.8263 63.6708 82.0603C63.9909 82.2957 64.0598 82.745 63.8244 83.0636C63.3923 83.6522 62.9746 84.2766 62.5813 84.9182C62.4435 85.1407 62.2081 85.2627 61.967 85.2627ZM65.4636 80.7283C65.2828 80.7283 65.1033 80.6608 64.9641 80.5259C64.6799 80.2503 64.6727 79.7953 64.9483 79.511C65.4995 78.9441 66.0808 78.4015 66.6765 77.8962C66.9794 77.6393 67.433 77.6795 67.6885 77.9809C67.944 78.2838 67.9067 78.7359 67.6038 78.9929C67.044 79.4665 66.4971 79.9776 65.9789 80.5101C65.8382 80.6551 65.6502 80.7283 65.4636 80.7283Z" fill="#2E2E2E"/>
<ellipse cx="111.5" cy="177.604" rx="81.5" ry="82" fill="#F7F7F7"/>
<path d="M184.266 208.894C187.625 210.126 188.314 213.038 188.314 213.038L190.35 203.453L185.165 203.33L184.266 208.894Z" fill="#97C5EF"/>
<path d="M44.8032 208.606C41.444 209.837 40.7543 212.75 40.7543 212.75L38.7188 203.165L43.9034 203.042L44.8032 208.606Z" fill="#97C5EF"/>
<path d="M125.024 120.867L112.915 129.222L109.121 120.556C109.121 120.556 110.363 117.22 110.436 112.013C110.465 109.824 110.29 107.304 109.724 104.562L121.022 108.58C121.022 108.58 120.899 109.592 120.921 111.058C120.947 112.642 121.145 114.756 121.852 116.696C122.462 118.361 123.446 119.897 125.024 120.867Z" fill="#FFB27D"/>
<path d="M134.453 262.286C134.453 262.286 135.819 264.951 138.845 265.61C140.751 266.025 142.383 267.017 143.398 268.408C144.257 269.584 143.426 271.237 141.971 271.237H126.612C125.304 271.237 124.283 270.109 124.414 268.807C124.528 267.669 124.648 266.344 124.7 265.328C124.813 263.11 127.035 261.324 127.035 261.324L134.453 262.286Z" fill="#FD5742"/>
<path d="M134.821 262.79C134.821 262.79 131.136 264.967 124.901 263.653C124.901 263.653 114.301 236.547 113.674 223.792C113.645 223.28 113.637 222.792 113.645 222.328C113.859 210.331 102.782 179.092 105.77 172.691C108.757 166.289 132.899 175.568 132.899 175.568L133.378 197.336L134.821 262.79Z" fill="#0B163F"/>
<path d="M133.378 197.336L113.674 223.792C113.645 223.28 113.637 222.792 113.645 222.328C113.859 210.331 102.782 179.092 105.77 172.691C108.757 166.289 132.899 175.568 132.899 175.568L133.378 197.336Z" fill="#1B295B"/>
<path d="M94.902 262.272C94.902 262.272 96.2678 264.937 99.2939 265.597C101.2 266.012 102.832 267.004 103.848 268.395C104.706 269.57 103.876 271.224 102.42 271.224H87.0606C85.7526 271.224 84.732 270.095 84.8629 268.794C84.9773 267.656 85.0968 266.331 85.1488 265.315C85.2624 263.096 87.4841 261.311 87.4841 261.311L94.902 262.272Z" fill="#FD5742"/>
<path d="M118.779 176.084C118.779 176.084 97.4434 255.705 96.7898 263.497C96.7898 263.497 92.6281 265.631 85.8725 261.86C85.8725 261.86 84.1906 226.798 85.8725 216.422C88.6048 199.565 89.021 175.745 98.9989 169.096C108.977 162.447 118.779 176.084 118.779 176.084Z" fill="#0B163F"/>
<path d="M121.85 116.695C115.812 117.33 110.434 112.013 110.434 112.013L120.918 111.058C120.945 112.642 121.142 114.756 121.85 116.695Z" fill="#EA9C68"/>
<path d="M123.405 115.202C123.405 115.202 111.076 117.389 107.708 107.45C104.074 96.7239 109.626 89.5883 113.765 89.4186C122.02 89.0805 126.507 92.5887 127.67 96.0007C128.834 99.4127 130.202 114.055 123.405 115.202Z" fill="#FFB27D"/>
<path d="M109.373 110.674C109.373 110.674 108.509 106.715 108.862 104.513C108.862 104.513 106.045 100.237 107.962 99.3956C109.879 98.5539 110.672 101.011 111.131 100.58C111.59 100.148 112.9 92.3137 115.107 92.7474C117.314 93.1812 125.345 96.4179 129.216 93.6011C133.088 90.7843 125.33 77.8836 110.084 81.3562C94.8391 84.8287 96.2975 101.286 109.373 110.674Z" fill="#2C3A64"/>
<path d="M118.388 108.402C118.388 108.402 119.146 110.667 122.834 110.858C122.834 110.858 125.56 110.463 125.582 108.131C125.582 108.13 122.413 106.558 118.388 108.402Z" fill="white"/>
<path d="M167.338 272.603H55.5787C55.5032 272.603 55.4414 272.365 55.4414 272.075V271.794C55.4414 271.503 55.5032 271.266 55.5787 271.266H167.338C167.414 271.266 167.475 271.503 167.475 271.794V272.075C167.475 272.365 167.414 272.603 167.338 272.603Z" fill="#2E3552"/>
<path d="M51.8063 95.2081C51.8063 95.2081 53.441 97.4475 53.2657 100.002C53.1356 101.898 51.4456 103.816 51.332 103.891L53.9993 105.314C53.9993 105.314 55.9774 101.802 55.3106 98.8681C55.1062 97.9692 54.1606 96.5306 53.4659 95.8898C52.7004 95.1835 51.8063 95.2081 51.8063 95.2081Z" fill="#6BB7BF"/>
<path d="M46.3533 95.445L44.6641 91.7109C44.6641 91.7109 52.5472 91.9776 55.1591 98.4007C55.1591 98.4007 49.6429 94.467 46.3533 95.445Z" fill="#86D1CD"/>
<path d="M8.73691 136.647C8.73691 136.647 5.75464 135.023 4.61189 132.103C3.76378 129.935 4.6318 126.926 4.71791 126.783L1.01979 126.604C1.01979 126.604 0.666978 131.528 2.9406 134.428C3.63738 135.317 5.43759 136.415 6.54221 136.761C7.7597 137.143 8.73691 136.647 8.73691 136.647Z" fill="#6BB7BF"/>
<path d="M14.6503 133.531L18.475 136.783C18.475 136.783 9.6054 140.612 3.35156 134.866C3.35156 134.866 11.5192 136.336 14.6503 133.531Z" fill="#86D1CD"/>
<path d="M5.49186 187.992C5.49186 187.992 3.19031 186.254 2.59636 183.657C2.15558 181.73 3.26154 179.312 3.35184 179.202L0.267892 178.588C0.267892 178.588 -0.645605 182.68 0.901133 185.401C1.37519 186.235 2.74953 187.383 3.63427 187.812C4.60879 188.285 5.49186 187.992 5.49186 187.992Z" fill="#6BB7BF"/>
<path d="M10.8496 186.115L13.6549 189.325C13.6549 189.325 5.72477 191.431 1.19141 185.82C1.19157 185.82 7.86797 188.078 10.8496 186.115Z" fill="#86D1CD"/>
<path d="M166.001 172.243C166.001 172.243 165.799 169.227 171.461 167.767C173.998 167.113 179.648 168.276 176.067 173.835C172.341 179.617 169.019 177.53 169.019 177.53C169.019 177.53 176.79 171.448 173.68 168.666C170.249 165.597 168.93 171.679 168.93 171.679C168.93 171.679 167.548 171.606 166.001 172.243Z" fill="#F1A34F"/>
<path d="M168.01 177.879C168.01 177.879 165.893 176.732 166.732 174.188L169.775 174.715C169.775 174.715 168.605 177.47 171.468 177.804C171.467 177.803 168.713 178.457 168.01 177.879Z" fill="#DB7714"/>
<path d="M113.455 57.343C113.455 57.343 117.954 50.8622 124.856 55.4516L129.059 51.4322C129.059 51.4322 125.132 48.451 116.075 53.7975C110.149 57.2956 113.455 57.343 113.455 57.343Z" fill="#5685D8"/>
<path d="M109.014 63.6968C109.014 63.6968 108.124 56.2574 120.576 51.6162C120.576 51.6162 116.075 53.7977 114.687 61.213L109.014 63.6968Z" fill="#739AF0"/>
<path d="M31.6559 66.9434C31.6559 66.9434 26.1165 66.6628 26.2945 60.8393L22.3346 59.8223C22.3346 59.8223 22.0124 63.2731 28.5666 66.6955C32.8546 68.9348 31.6559 66.9434 31.6559 66.9434Z" fill="#5685D8"/>
<path d="M37.0977 67.2359C37.0977 67.2359 32.9868 70.5287 25.5938 64.8176C25.5938 64.8176 28.5669 66.695 33.5092 64.7715L37.0977 67.2359Z" fill="#739AF0"/>
<path d="M199.324 108.725C199.324 108.725 193.784 108.444 193.962 102.621L190.003 101.604C190.003 101.604 189.68 105.054 196.235 108.477C200.523 110.716 199.324 108.725 199.324 108.725Z" fill="#5685D8"/>
<path d="M204.766 109.017C204.766 109.017 200.655 112.31 193.262 106.599C193.262 106.599 196.235 108.476 201.177 106.553L204.766 109.017Z" fill="#739AF0"/>
<path d="M190.051 45.6835C190.051 45.6835 193.409 43.5627 193.762 41C193.762 41 197.032 41.1767 197.739 42.2371C197.739 42.2371 196.237 46.4788 194.469 47.2741C194.469 47.2741 190.493 47.5393 190.051 45.6835Z" fill="#F99746"/>
<path d="M158.164 148.138C158.164 148.138 162.235 145.567 162.664 142.46C162.664 142.46 166.628 142.674 167.485 143.96C167.485 143.96 165.663 149.102 163.521 150.067C163.521 150.067 158.7 150.388 158.164 148.138Z" fill="#97BDFF"/>
<path d="M46.7598 243.035C46.7598 243.035 43.9999 241.292 43.7095 239.186C43.7095 239.186 41.0225 239.331 40.4414 240.202C40.4414 240.202 41.6761 243.688 43.1284 244.342C43.1284 244.342 46.3966 244.56 46.7598 243.035Z" fill="#F99746"/>
<path d="M160.976 65.4346C160.976 65.4346 163.398 67.6438 165.515 67.3649C165.515 67.3649 166.09 70.0062 165.4 70.8008C165.4 70.8008 161.695 70.5323 160.676 69.2994C160.676 69.2994 159.595 66.1919 160.976 65.4346Z" fill="#86D1CD"/>
<path d="M147.324 69.1055C147.324 69.1055 147.209 70.2949 148.223 71.5301C149.236 72.7655 150.536 73.4131 150.71 72.6618C150.883 71.9104 150.132 66.9024 147.324 69.1055Z" fill="#FFB27D"/>
<path d="M90.6326 80.6922C88.5337 81.7614 86.1521 79.8876 86.5763 77.4955L91.0893 51.9544L71.9333 33.8326C70.1444 32.137 71.0742 29.0375 73.4721 28.7027L100.104 24.9445L111.98 1.57945C113.051 -0.526482 115.949 -0.526482 117.02 1.57945L128.896 24.9445L155.528 28.7027C157.926 29.0375 158.856 32.137 157.067 33.8326L137.911 51.9544L142.424 77.4955C142.848 79.8876 140.466 81.7614 138.367 80.6922L114.492 68.5102L90.6271 80.6922H90.6326Z" fill="#F2B705"/>
<path d="M130.148 115.188C130.148 115.188 132.41 98.9405 134.525 93.2091C134.525 93.2091 132.571 74.9645 132.524 73.7224C132.477 72.4804 136.126 73.0198 136.126 73.0198C136.126 73.0198 141.252 89.1821 141.286 94.6975C141.32 100.213 141.963 118.466 137.703 121.233C133.443 123.999 130.148 115.188 130.148 115.188Z" fill="#FFB27D"/>
<path d="M96.7555 121.965C96.7555 121.965 93.3891 105.216 90.9628 99.2235C90.9628 99.2235 92.7849 80.6715 92.8144 79.4033C92.8438 78.1352 88.8435 78.4676 88.8435 78.4676C88.8435 78.4676 83.4996 94.6981 83.5605 100.34C83.6212 105.982 85.4237 121.861 90.1541 124.948C94.8844 128.036 96.7555 121.965 96.7555 121.965Z" fill="#FFB27D"/>
<path d="M129.169 187.081C125.726 187.992 122.066 188.509 118.447 188.755L118.445 188.754C118.443 188.756 118.44 188.755 118.434 188.756C107.691 189.491 97.329 187.877 94.1801 187.321C93.5502 187.209 93.2106 187.141 93.2106 187.141C91.7346 186.718 90.7847 185.253 90.8574 183.654C90.8655 183.447 90.895 183.239 90.9374 183.03C90.9374 183.03 93.4277 164.401 93.9452 160.165C94.7746 153.372 90.9374 142.038 90.9374 142.038C90.9374 142.038 90.9374 136.037 90.4144 131.537C89.8227 126.446 89.2929 122.03 86.4145 119.037C83.835 116.355 96.4143 114.037 96.4143 114.037C96.4143 114.037 99.9144 119.038 101.914 119.038C105.414 119.038 109.413 119.038 109.413 119.038C111.165 121.119 113.317 124.01 117.413 123.538C120.493 123.18 122.382 122.419 122.413 120.537C127.799 121.24 125.319 120.928 130.913 115.538C134.323 118.7 140.117 113.287 140.915 117.038C142.478 118.195 134.28 126.538 132.75 140.923C132.75 140.923 132.958 140.538 132.413 143.038C129.842 149.214 134.28 179.809 134.28 179.809C134.382 183.195 132.242 186.266 129.169 187.081Z" fill="#FD5742"/>
</svg>
