<svg width="38" height="95" viewBox="0 0 38 95" fill="none" xmlns="http://www.w3.org/2000/svg">
<path d="M20.0989 75.4278C21.1793 77.0653 22.2598 78.5493 23.3237 79.8798C24.6036 81.4832 25.8669 82.8308 27.0305 83.8713C27.1801 84.0077 27.3131 84.1271 27.4627 84.2465C27.7453 84.4853 28.0279 84.7071 28.3104 84.9118C28.992 85.4235 29.6402 85.7988 30.2387 86.0376C30.8205 86.2764 31.369 86.3787 31.8344 86.3105C32.117 86.2764 32.383 86.1911 32.6157 86.0546C32.6489 86.0376 32.6656 86.0205 32.6988 86.0034C32.7321 85.9864 32.7487 85.9693 32.7653 85.9523C32.7819 85.9352 32.8152 85.9182 32.8318 85.9011C32.8484 85.884 32.8817 85.867 32.8983 85.8329C32.9814 85.8329 33.0479 85.8158 33.131 85.7988C33.1975 85.7817 33.2806 85.7646 33.3471 85.7476C33.4136 85.7305 33.4801 85.6964 33.5466 85.6623C33.6131 85.6282 33.6795 85.5941 33.746 85.56C34.4774 85.0994 34.8764 84.1101 34.9761 82.7284C35.0758 81.3468 34.8764 79.5557 34.3943 77.4918C33.9123 75.4278 33.1809 73.091 32.1835 70.5835C31.1862 68.0931 29.9561 65.4322 28.5099 62.72C27.9447 61.6795 27.3796 60.6731 26.7978 59.7009C26.8643 58.6433 26.8975 57.5687 26.8809 56.46C27.3131 57.1252 27.7453 57.8075 28.1608 58.5239C28.7592 59.5303 29.3577 60.5879 29.9395 61.6625C31.6682 64.8863 33.1144 68.0761 34.2281 71.0952C35.3418 74.1144 36.1563 76.963 36.6051 79.5046C37.0706 82.0461 37.1703 84.2636 36.9209 86.0205C36.655 87.7774 36.0233 89.0738 34.9595 89.739C33.9788 90.3531 32.7487 90.3702 31.3191 89.8755C29.8896 89.3808 28.2772 88.3574 26.5817 86.9075C24.8696 85.4406 23.0743 83.5301 21.2625 81.2785C20.182 79.9139 19.0849 78.4129 18.0211 76.8095C18.1707 76.7242 18.3369 76.656 18.4865 76.5707C19.035 76.1954 19.5836 75.8201 20.0989 75.4278Z" fill="#F29F05"/>
<path d="M9.34399 42.4048L2.26276 46.4815C1.71422 46.8056 1.2654 47.2832 0.916323 47.8973C0.567247 48.5113 0.317913 49.2789 0.16831 50.1659C0.0187063 51.0529 -0.031168 52.0764 0.0186996 53.1851C0.0685673 54.3109 0.201549 55.539 0.434265 56.8524L7.61524 52.7416C7.38252 51.4282 7.23293 50.2 7.18306 49.0913C7.13319 47.9655 7.18305 46.9591 7.31603 46.0721C7.46564 45.1852 7.69835 44.4176 8.03081 43.8035C8.36326 43.1894 8.81207 42.7118 9.34399 42.4048Z" fill="#CC8604"/>
<path d="M23.174 83.5132L15.9432 87.5558C17.1068 88.8521 18.2537 89.9779 19.3674 90.9161C20.4812 91.8542 21.545 92.6048 22.559 93.1506C23.573 93.6964 24.5038 94.0376 25.3682 94.14C26.216 94.2423 26.9972 94.1229 27.6455 93.7647L34.7933 89.7903C34.145 90.1485 33.3803 90.2679 32.5326 90.1485C31.6848 90.0291 30.754 89.6879 29.74 89.1421C28.7426 88.5963 27.6788 87.8287 26.5651 86.8905C25.4846 85.9524 24.3376 84.8095 23.174 83.5132Z" fill="#CC8604"/>
<path d="M19.5169 78.9246C20.132 79.7775 20.747 80.5792 21.3454 81.3468C21.9604 82.1144 22.5755 82.8308 23.1739 83.5131L15.9431 87.5557C15.328 86.8734 14.713 86.157 14.1146 85.4064C13.4996 84.6389 12.8845 83.8372 12.2695 83.0014C12.0368 82.6943 11.8207 82.3702 11.588 82.0461L18.8188 77.9524C19.0515 78.2935 19.2842 78.6176 19.5169 78.9246Z" fill="#B5771C"/>
<path d="M1.34827 60.8437C0.949328 59.445 0.650116 58.1145 0.434021 56.8523L7.615 52.7415C7.84772 54.0037 8.16355 55.3342 8.56249 56.7329C8.8617 57.7563 9.19416 58.831 9.57648 59.9056L2.36225 63.9823C1.96331 62.9247 1.64748 61.8672 1.34827 60.8437Z" fill="#B5771C"/>
<path d="M8.6791 77.5087C8.54611 77.2699 8.39651 77.0311 8.26353 76.7923C8.13055 76.5535 7.98095 76.3147 7.84797 76.0759C7.71498 75.8371 7.582 75.5812 7.4324 75.3424C7.29942 75.1036 7.16644 74.8478 7.03346 74.5919C6.16909 72.9885 5.38783 71.3851 4.67305 69.8158C3.95828 68.2466 3.32662 66.6943 2.77808 65.1933C2.62848 64.7839 2.47887 64.3916 2.34589 63.9822L9.5601 59.9055C9.69309 60.2978 9.84268 60.6902 9.99228 61.0825C10.5575 62.5835 11.1891 64.1357 11.9039 65.705C12.6187 67.2743 13.4165 68.8777 14.2809 70.4811C14.4139 70.7369 14.5469 70.9757 14.6799 71.2316C14.8128 71.4704 14.9458 71.7263 15.0954 71.9651C15.2284 72.2039 15.378 72.4427 15.511 72.6815C15.644 72.9203 15.7936 73.1591 15.9266 73.3979C16.5083 74.3872 17.1068 75.3424 17.7052 76.2465C18.0875 76.8264 18.4532 77.3722 18.8355 77.9181L11.6047 82.0118C11.2224 81.466 10.84 80.9031 10.4577 80.3232C9.8593 79.4533 9.26089 78.498 8.6791 77.5087Z" fill="#D29B24"/>
<path d="M7.14984 47.9996C7.16646 47.1808 7.23296 46.4473 7.34932 45.7821C7.66515 44.0934 8.37992 42.8823 9.49363 42.3194C10.225 41.9442 11.106 41.8759 12.0701 42.0977C13.0342 42.3024 14.0981 42.78 15.2284 43.4964C16.3588 44.2128 17.5556 45.168 18.769 46.3279C19.9991 47.4878 21.2458 48.8524 22.5091 50.4047C23.1408 51.1893 23.7724 52.0081 24.4207 52.861C25.0524 53.7309 25.684 54.6349 26.2991 55.5731C26.4819 55.8631 26.6814 56.1531 26.8642 56.443C26.8809 57.5518 26.8476 58.6264 26.7811 59.684C25.8503 58.1317 24.9194 56.6648 23.9719 55.3172C22.4426 53.1168 20.9134 51.2234 19.4672 49.7053C18.021 48.1872 16.658 47.0614 15.4611 46.4132C14.2643 45.765 13.2337 45.5774 12.4691 45.9697C12.3693 46.0209 12.2862 46.0721 12.2031 46.1403C12.12 46.2085 12.0369 46.2767 11.9704 46.345C11.9039 46.4303 11.8208 46.5156 11.7543 46.6009C11.6878 46.6861 11.6213 46.7885 11.5715 46.9079C11.1725 47.1126 10.8567 47.4708 10.6406 47.9484C9.56011 47.5049 8.2968 47.4878 7.14984 47.9996Z" fill="#FAED81"/>
<path d="M8.52936 56.6308C9.37711 56.7161 10.2747 56.5455 11.0726 56.085C11.5214 57.7907 12.1365 59.667 12.9177 61.6457C13.8985 64.1702 15.1452 66.8482 16.6079 69.5774C16.8407 70.0038 17.0568 70.4132 17.2895 70.8226C17.5222 71.232 17.7549 71.6414 17.9876 72.0337C18.2203 72.426 18.4531 72.8183 18.6858 73.2106C18.9185 73.6029 19.1512 73.9782 19.4005 74.3535C19.6333 74.7117 19.866 75.0699 20.0987 75.411C19.5834 75.8204 19.0515 76.1786 18.4697 76.5027C18.3201 76.588 18.1705 76.6733 18.0042 76.7415C17.2895 75.684 16.5913 74.5582 15.9098 73.4153C15.7768 73.1765 15.6272 72.9377 15.4942 72.6989C15.3613 72.4601 15.2117 72.2213 15.0787 71.9825C14.9457 71.7437 14.7961 71.4878 14.6631 71.249C14.5301 71.0102 14.3971 70.7544 14.2642 70.4985C12.4855 67.1723 11.0061 63.8802 9.87579 60.7758C9.34386 59.36 8.89506 57.9613 8.52936 56.6308Z" fill="#FAED81"/>
<path d="M8.52937 56.6306C8.09717 55.0783 7.76471 53.6114 7.53199 52.2297C7.26603 50.6775 7.14967 49.2617 7.16629 47.9995C8.31327 47.4707 9.55998 47.4877 10.6571 47.9654C10.4576 48.4088 10.3246 48.9376 10.2581 49.5858C10.1252 50.9334 10.2914 52.6903 10.7568 54.7372C10.8566 55.1807 10.9729 55.6241 11.0893 56.1017C10.2581 56.5452 9.37713 56.7158 8.52937 56.6306Z" fill="#FFFFB9"/>
<path d="M11.771 46.4303C8.3966 48.2554 10.2417 58.6434 15.8934 69.6114C21.5451 80.5793 28.859 87.9823 32.2334 86.1571C35.6078 84.332 33.7627 73.944 28.111 62.976C22.4593 52.0081 15.1454 44.6051 11.771 46.4303Z" fill="#FFFFB9"/>
<path d="M12.4858 45.9867C12.3861 46.0379 12.303 46.0891 12.2198 46.1573C12.1367 46.2255 12.0536 46.2938 11.9871 46.362C11.9206 46.4473 11.8375 46.5326 11.7876 46.6178C11.7212 46.7031 11.6713 46.8055 11.6048 46.9078C12.17 46.6178 12.8847 46.6519 13.6993 46.959C14.5138 47.266 15.428 47.846 16.4254 48.6477C17.4061 49.4664 18.47 50.5069 19.5671 51.7521C20.6642 52.9973 21.7945 54.4472 22.9082 56.0506C23.2905 56.5964 23.6729 57.1593 24.0552 57.7393C24.4375 58.3192 24.8198 58.9162 25.2022 59.5474C25.5845 60.1614 25.9502 60.7926 26.3325 61.4407C26.6982 62.0889 27.0805 62.7541 27.4296 63.4364C28.8093 66.0121 30.0061 68.5537 30.9536 70.9417C31.9177 73.3468 32.6491 75.5984 33.1478 77.5941C33.6299 79.6069 33.8792 81.3638 33.8459 82.7625C33.8127 84.1612 33.4969 85.2188 32.8818 85.7987C32.9649 85.7987 33.0314 85.7816 33.1146 85.7646C33.181 85.7475 33.2641 85.7305 33.3306 85.7134C33.3971 85.6964 33.4636 85.6623 33.5301 85.6281C33.5966 85.594 33.6631 85.5599 33.7296 85.5258C34.461 85.0652 34.8599 84.0759 34.9597 82.6943C35.0594 81.3126 34.8599 79.5216 34.3779 77.4576C33.8958 75.3937 33.1644 73.0568 32.1671 70.5494C31.1697 68.059 29.9396 65.398 28.4934 62.6859C27.0473 59.9908 25.5014 57.5005 23.9721 55.3001C22.4428 53.0996 20.9135 51.2063 19.4673 49.6882C18.0212 48.1701 16.6581 47.0443 15.4613 46.3961C14.281 45.765 13.2504 45.5944 12.4858 45.9867Z" fill="#AF731B"/>
<path d="M26.1995 65.0739C26.4488 64.0334 26.6317 62.9417 26.7813 61.8159C27.0639 62.3276 27.3465 62.8223 27.629 63.3511C29.0253 65.9609 30.2222 68.5195 31.1863 70.9417C32.1504 73.3639 32.8984 75.6325 33.3971 77.6624C33.8957 79.6922 34.1285 81.4662 34.0952 82.882C34.062 84.2978 33.7461 85.3553 33.1311 85.9353C33.1145 85.9523 33.0812 85.9694 33.0646 86.0035C33.048 86.0206 33.0147 86.0376 32.9981 86.0547C32.9815 86.0718 32.9483 86.0888 32.9316 86.1059C32.8984 86.1229 32.8818 86.14 32.8485 86.157C32.6158 86.3106 32.3498 86.3958 32.0673 86.4299C31.5852 86.4811 31.0533 86.3788 30.4549 86.14C29.8565 85.9012 29.2082 85.5259 28.51 85.0142C28.2274 84.8095 27.9449 84.5877 27.6623 84.3489C27.5127 84.2295 27.3797 84.0931 27.2301 83.9737C26.0499 82.9161 24.7866 81.5515 23.4734 79.931C22.3929 78.6005 21.3125 77.0824 20.2154 75.4449C22.5259 73.6197 24.2547 71.0099 25.4016 67.8202" fill="#F2B705"/>
<path d="M25.3848 67.8033C25.4181 68.7244 25.4679 69.7479 25.5677 70.8225C25.8669 73.5517 26.3656 76.7415 26.9972 80.1871L28.0777 78.3619C27.446 74.3193 27.0471 70.8907 26.9307 67.3599C26.9307 67.0528 26.9307 66.7458 26.9474 66.4217L26.216 65.04" fill="#ECC42E"/>
<path d="M25.3849 67.2574C25.3849 67.4279 25.4016 67.6156 25.4016 67.8032L26.1994 65.074C26.4488 64.0335 26.6316 62.9419 26.7812 61.8161C26.6981 61.6625 26.615 61.492 26.5153 61.3385C26.133 60.6903 25.7673 60.0421 25.3683 59.428C24.986 58.7969 24.6037 58.1999 24.2214 57.6029C23.839 57.0059 23.4401 56.443 23.0578 55.8972C21.9108 54.2767 20.7805 52.8098 19.6834 51.5475C18.5863 50.2853 17.5058 49.2277 16.5084 48.409C15.5111 47.5902 14.5802 47.0103 13.7491 46.7032C12.9179 46.3962 12.2032 46.3621 11.6214 46.6521C10.8401 47.0444 10.4079 47.9825 10.2583 49.3471C10.1253 50.7117 10.2916 52.4857 10.757 54.5496C11.2224 56.6306 11.9538 59.0016 12.9512 61.5431C13.9485 64.0847 15.2119 66.7968 16.6913 69.5601C16.924 69.9865 17.1567 70.413 17.3894 70.8224C17.6222 71.2317 17.8549 71.6411 18.0876 72.0505C18.3203 72.4599 18.553 72.8522 18.8024 73.2445C19.0351 73.6368 19.2844 74.0121 19.5171 74.4044C19.7499 74.7626 19.9826 75.1208 20.2153 75.479C22.5258 73.6539 24.2546 71.0441 25.4016 67.8544" fill="#F2C335"/>
<path d="M5.40436 11.5649V32.6479" stroke="#F2B705" stroke-miterlimit="10"/>
<path d="M25.3848 22.1064V43.1894" stroke="#F2B705" stroke-miterlimit="10"/>
<path d="M13.6661 0V21.0829" stroke="#F2B705" stroke-miterlimit="10"/>
</svg>
