<svg width="40" height="112" viewBox="0 0 40 112" fill="none" xmlns="http://www.w3.org/2000/svg">
<path d="M20.3483 87.351C21.3291 89.5856 22.3597 91.6495 23.3903 93.4917C24.637 95.7262 25.9169 97.6537 27.1303 99.1718C27.2799 99.3594 27.4295 99.5471 27.5791 99.7176C27.8783 100.076 28.1776 100.4 28.4768 100.707C29.2082 101.475 29.9229 102.072 30.6045 102.481C31.286 102.89 31.9176 103.129 32.4994 103.163C32.8485 103.18 33.1809 103.129 33.4968 103.01C33.53 102.993 33.5633 102.976 33.5965 102.959C33.6298 102.942 33.663 102.924 33.6963 102.907C33.7295 102.89 33.7627 102.873 33.796 102.856C33.8292 102.839 33.8625 102.822 33.8957 102.788C33.9955 102.805 34.0952 102.805 34.1783 102.805C34.278 102.805 34.3612 102.788 34.4609 102.788C34.5606 102.771 34.6437 102.754 34.7269 102.737C34.81 102.72 34.9097 102.686 34.9928 102.652C35.9902 102.242 36.6717 101.133 37.0873 99.4447C37.4862 97.7731 37.6026 95.5386 37.4363 92.8947C37.2701 90.2679 36.8379 87.2316 36.1231 83.9566C35.4084 80.6816 34.4443 77.1678 33.2142 73.5516C32.7321 72.1529 32.2501 70.8054 31.7348 69.492C32.034 68.2127 32.2833 66.8993 32.4828 65.5347C32.8817 66.4558 33.2641 67.3769 33.6298 68.3321C34.1617 69.6967 34.677 71.1124 35.1757 72.5453C36.6385 76.8608 37.7522 81.0739 38.5168 84.9971C39.2814 88.9374 39.6804 92.6047 39.7302 95.7944C39.7801 99.0012 39.4643 101.747 38.7994 103.846C38.1179 105.944 37.0706 107.393 35.6577 107.973C34.3445 108.519 32.8153 108.28 31.1696 107.376C29.524 106.455 27.762 104.869 25.9667 102.72C24.1715 100.57 22.343 97.8413 20.5977 94.6857C19.5338 92.7753 18.5032 90.7114 17.5225 88.511C17.7219 88.4427 17.938 88.3745 18.1375 88.3063C18.9022 88.0674 19.6336 87.7263 20.3483 87.351Z" fill="#F29F05"/>
<path d="M13.8488 44.623L4.3406 48.1198C3.6092 48.3927 2.96091 48.8874 2.41237 49.5697C1.86382 50.252 1.39838 51.139 1.03268 52.1966C0.666986 53.2541 0.401031 54.4823 0.234804 55.8639C0.0685778 57.2456 -0.014535 58.7807 0.00208759 60.4353L9.62659 56.9215C9.59334 55.2669 9.65985 53.7317 9.82608 52.3501C9.9923 50.9684 10.2416 49.7403 10.6073 48.6827C10.9564 47.6252 11.4052 46.7382 11.9538 46.0559C12.4857 45.3736 13.1174 44.8789 13.8488 44.623Z" fill="#CC8604"/>
<path d="M22.4759 97.9097L12.8015 101.338C13.9651 103.163 15.1453 104.801 16.3255 106.183C17.4891 107.564 18.6527 108.724 19.783 109.594C20.9133 110.481 21.9938 111.078 23.0244 111.402C24.055 111.709 25.0191 111.726 25.9001 111.419L35.4581 108.076C34.5938 108.383 33.6296 108.366 32.6157 108.042C31.6017 107.718 30.5212 107.104 29.4075 106.217C28.2938 105.33 27.1302 104.17 25.9666 102.771C24.8197 101.389 23.6395 99.7519 22.4759 97.9097Z" fill="#CC8604"/>
<path d="M18.9188 91.5302C19.5006 92.6901 20.0824 93.8159 20.6808 94.8734C21.2792 95.9481 21.8776 96.9545 22.4927 97.9097L12.8182 101.338C12.2032 100.383 11.6048 99.3766 11.0064 98.302C10.4079 97.2444 9.82614 96.1187 9.24434 94.9587C9.02825 94.5323 8.82877 94.0888 8.61267 93.6453L18.2871 90.1826C18.4866 90.6432 18.7027 91.0867 18.9188 91.5302Z" fill="#B5771C"/>
<path d="M0.334752 65.5006C0.135283 63.7096 0.0355434 62.0039 0.0189209 60.4176L9.64335 56.9038C9.6766 58.4901 9.79294 60.1958 9.99241 61.9868C10.142 63.3173 10.3415 64.6818 10.5908 66.0976L0.91655 69.5602C0.667212 68.1786 0.467732 66.814 0.334752 65.5006Z" fill="#B5771C"/>
<path d="M5.93644 87.4874C5.82008 87.1633 5.6871 86.8563 5.57074 86.5322C5.45439 86.2081 5.3214 85.884 5.20504 85.5599C5.08869 85.2358 4.97232 84.9118 4.85596 84.5706C4.7396 84.2465 4.62326 83.9054 4.5069 83.5813C3.77551 81.4321 3.12722 79.317 2.57868 77.236C2.03013 75.155 1.5647 73.1251 1.18239 71.1635C1.08265 70.6347 0.982893 70.106 0.89978 69.5942L10.5741 66.1316C10.6572 66.6433 10.757 67.155 10.8567 67.6668C11.239 69.6284 11.7045 71.6582 12.2696 73.7392C12.8348 75.8202 13.4664 77.9524 14.1978 80.1016C14.3142 80.4427 14.4306 80.7668 14.5469 81.108C14.6633 81.4321 14.7796 81.7732 14.896 82.0973C15.0124 82.4214 15.1287 82.7455 15.2617 83.0696C15.378 83.3937 15.511 83.7178 15.6274 84.0248C16.1427 85.3553 16.6746 86.6516 17.2232 87.8968C17.5722 88.6815 17.9213 89.432 18.2704 90.1825L8.59604 93.6451C8.23034 92.8946 7.88127 92.127 7.5322 91.3424C6.98365 90.0972 6.45174 88.8179 5.93644 87.4874Z" fill="#D29B24"/>
<path d="M10.0255 51.0188C10.2084 50.0295 10.4245 49.1255 10.7237 48.3408C11.4551 46.3281 12.5688 45.0147 14.0482 44.5541C15.0289 44.2641 16.1094 44.3665 17.2397 44.827C18.3867 45.2876 19.5835 46.0893 20.8302 47.2151C22.0603 48.3408 23.3402 49.7566 24.6036 51.4453C25.8669 53.1339 27.1302 55.0785 28.3769 57.2448C28.9919 58.3364 29.607 59.4793 30.2054 60.6733C30.8038 61.8673 31.4022 63.1125 31.9674 64.3918C32.1336 64.7841 32.3164 65.1764 32.4827 65.5858C32.2832 66.9504 32.0339 68.2638 31.7347 69.5431C30.9201 67.445 30.0558 65.4493 29.1748 63.5901C27.7452 60.571 26.2492 57.927 24.7864 55.7608C23.3236 53.5945 21.8774 51.9229 20.5476 50.8653C19.2178 49.8078 17.9878 49.3813 16.9738 49.6884C16.8574 49.7225 16.7244 49.7736 16.6247 49.8419C16.5083 49.893 16.392 49.9783 16.2922 50.0466C16.1925 50.1319 16.0762 50.2172 15.9764 50.3195C15.8767 50.4218 15.7769 50.5242 15.6772 50.6436C15.1453 50.8141 14.6965 51.1724 14.3308 51.7182C13.0674 50.8994 11.5382 50.6095 10.0255 51.0188Z" fill="#FAED81"/>
<path d="M9.97571 61.8672C11.0063 62.1572 12.12 62.1401 13.2005 61.7478C13.4 63.9312 13.7823 66.3533 14.3309 68.946C15.029 72.2381 16.0098 75.8031 17.2565 79.4534C17.456 80.0163 17.6388 80.5792 17.8383 81.1251C18.0377 81.6709 18.2372 82.2167 18.4367 82.7626C18.6362 83.3084 18.8523 83.8372 19.0517 84.3489C19.2678 84.8777 19.4673 85.3894 19.6834 85.9012C19.8995 86.3958 20.099 86.8734 20.3151 87.351C19.6003 87.7433 18.8689 88.0674 18.1042 88.3404C17.9048 88.4086 17.6887 88.4768 17.4892 88.545C16.8409 87.0952 16.2092 85.5771 15.5942 84.0248C15.4778 83.7007 15.3449 83.3766 15.2285 83.0696C15.1121 82.7455 14.9792 82.4214 14.8628 82.0973C14.7464 81.7732 14.6301 81.4491 14.5137 81.108C14.3974 80.7839 14.281 80.4428 14.1646 80.1016C12.652 75.6496 11.505 71.3 10.7404 67.2574C10.4245 65.381 10.1586 63.59 9.97571 61.8672Z" fill="#FAED81"/>
<path d="M9.97564 61.8673C9.75954 59.8716 9.64319 57.9952 9.64319 56.2724C9.64319 54.3108 9.77615 52.5539 10.0421 51.0187C11.5382 50.6264 13.0841 50.9164 14.3308 51.7181C13.9984 52.2127 13.7158 52.8439 13.5163 53.6115C13.0841 55.2319 12.9345 57.4153 13.0841 60.0251C13.1173 60.588 13.1672 61.168 13.2171 61.765C12.12 62.1402 10.9896 62.1573 9.97564 61.8673Z" fill="#FFFFB9"/>
<path d="M15.9931 50.0633C11.4884 51.5814 11.6546 64.6815 16.3588 79.3339C21.063 93.9691 28.5266 104.596 33.0313 103.078C37.536 101.56 37.3698 88.4596 32.6656 73.8072C27.9614 59.172 20.4978 48.5452 15.9931 50.0633Z" fill="#FFFFB9"/>
<path d="M16.9572 49.671C16.8408 49.7051 16.7078 49.7563 16.6081 49.8245C16.4917 49.8757 16.3754 49.961 16.2756 50.0292C16.1759 50.1145 16.0762 50.1998 15.9764 50.3021C15.8767 50.4045 15.7936 50.5068 15.6938 50.6262C16.4585 50.4045 17.3229 50.575 18.2537 51.1209C19.1846 51.6667 20.1986 52.5708 21.2458 53.7819C22.293 54.9929 23.3735 56.494 24.4706 58.268C25.5511 60.0249 26.6481 62.0377 27.6954 64.2551C28.0611 65.0057 28.4101 65.7733 28.7592 66.575C29.1083 67.3767 29.4574 68.1954 29.7898 69.0312C30.1223 69.867 30.4547 70.7199 30.7872 71.5898C31.1196 72.4598 31.4354 73.3468 31.7347 74.2679C32.9149 77.7135 33.8457 81.0738 34.5439 84.2124C35.242 87.3509 35.6908 90.2678 35.8737 92.8264C36.0732 95.385 36.0067 97.6025 35.6742 99.3082C35.3418 101.031 34.76 102.242 33.879 102.822C33.9787 102.839 34.0785 102.839 34.1616 102.839C34.2613 102.839 34.3444 102.822 34.4441 102.822C34.5439 102.805 34.627 102.788 34.7101 102.771C34.7932 102.754 34.8929 102.72 34.9761 102.686C35.9734 102.276 36.655 101.167 37.0705 99.4788C37.4695 97.8072 37.5858 95.5726 37.4196 92.9287C37.2534 90.3019 36.8212 87.2656 36.1064 83.9906C35.3916 80.7156 34.4275 77.2018 33.1975 73.5856C31.9674 69.9694 30.5877 66.592 29.1581 63.5728C27.7286 60.5537 26.2326 57.9098 24.7698 55.7435C23.307 53.5772 21.8608 51.9055 20.531 50.848C19.2012 49.7904 17.9878 49.3469 16.9572 49.671Z" fill="#AF731B"/>
<path d="M29.9062 75.9567C30.4215 74.7286 30.8703 73.4493 31.2693 72.0847C31.5186 72.767 31.768 73.4493 32.0007 74.1486C33.1809 77.6283 34.1284 81.0228 34.8265 84.1955C35.5247 87.3681 35.9735 90.319 36.173 92.8947C36.3724 95.4874 36.3059 97.7219 35.9735 99.4447C35.641 101.185 35.0426 102.396 34.1616 102.993C34.1284 103.01 34.0951 103.027 34.0619 103.061C34.0286 103.078 33.9954 103.095 33.9621 103.112C33.9289 103.129 33.8957 103.146 33.8624 103.163C33.8292 103.18 33.7959 103.197 33.7627 103.214C33.4468 103.351 33.1144 103.402 32.7487 103.368C32.1503 103.334 31.5186 103.095 30.8371 102.686C30.1556 102.259 29.4408 101.662 28.6928 100.895C28.3936 100.588 28.0944 100.246 27.7952 99.8882C27.6455 99.7006 27.4959 99.53 27.3297 99.3253C26.0996 97.7902 24.8197 95.8456 23.5564 93.5941C22.5091 91.7348 21.4786 89.6538 20.4812 87.4022C23.6894 85.6624 26.3324 82.8309 28.377 79.1465" fill="#F2B705"/>
<path d="M28.3604 79.1463C28.2108 80.2891 28.0779 81.5343 27.9615 82.8819C27.7787 86.2934 27.7288 90.3189 27.8119 94.6686L29.5074 92.6558C29.5573 87.5727 29.7567 83.2742 30.3219 78.9416C30.3884 78.5663 30.4549 78.1911 30.5214 77.7988L29.8897 75.9565" fill="#ECC42E"/>
<path d="M28.4602 78.481C28.427 78.7028 28.3937 78.9245 28.3605 79.1463L29.8897 75.9565C30.405 74.7284 30.8539 73.4491 31.2528 72.0845C31.1697 71.8798 31.1032 71.6581 31.0201 71.4534C30.6876 70.5664 30.3552 69.7135 30.0061 68.8606C29.657 68.0077 29.308 67.189 28.9589 66.3873C28.6098 65.5856 28.2441 64.8009 27.8784 64.0504C26.8146 61.8159 25.7175 59.786 24.6204 58.0121C23.5233 56.2381 22.4262 54.7029 21.3624 53.4918C20.2985 52.2637 19.2845 51.3596 18.337 50.8138C17.3895 50.268 16.5086 50.0803 15.7439 50.3021C14.7133 50.6262 13.9819 51.6837 13.5331 53.3042C13.1009 54.9417 12.9513 57.1421 13.0843 59.786C13.2173 62.4299 13.6495 65.4832 14.3642 68.8095C15.079 72.1357 16.0597 75.7348 17.3231 79.4192C17.5225 79.9821 17.722 80.545 17.9215 81.1079C18.1209 81.6708 18.3204 82.2166 18.5365 82.7625C18.736 83.3083 18.9521 83.8371 19.1682 84.3659C19.3843 84.8946 19.6004 85.4234 19.8164 85.9352C20.0325 86.4298 20.2486 86.9074 20.4481 87.4021C23.6563 85.6622 26.2993 82.8307 28.3439 79.1463" fill="#F2C335"/>
<path d="M24.521 15.2322V36.3152" stroke="#F2B705" stroke-miterlimit="10"/>
<path d="M14.5474 0V21.083" stroke="#F2B705" stroke-miterlimit="10"/>
</svg>
