<svg width="48" height="83" viewBox="0 0 48 83" fill="none" xmlns="http://www.w3.org/2000/svg">
<path d="M16.9869 63.1831C15.923 64.8377 14.8591 66.3729 13.7953 67.7204C12.5154 69.3579 11.2687 70.7225 10.1051 71.7971C9.95548 71.9336 9.8225 72.053 9.67289 72.1894C9.39031 72.4282 9.10772 72.667 8.84176 72.8717C8.16023 73.3835 7.51194 73.7758 6.91353 74.0316C6.31511 74.2704 5.78319 74.3898 5.30113 74.3387C5.01855 74.3046 4.7526 74.2193 4.51988 74.0828C4.48663 74.0657 4.47001 74.0487 4.43676 74.0316C4.40351 74.0146 4.38689 73.9975 4.37027 73.9805C4.35365 73.9634 4.3204 73.9463 4.30378 73.9293C4.28715 73.9122 4.25391 73.8952 4.23728 73.8611C4.15417 73.8611 4.08768 73.844 4.00457 73.8269C3.92146 73.8099 3.85497 73.7928 3.78848 73.7758C3.72199 73.7587 3.63888 73.7246 3.57239 73.6905C3.5059 73.6564 3.4394 73.6223 3.37291 73.5881C2.62489 73.1446 2.20933 72.1553 2.09298 70.7566C1.97662 69.3579 2.15946 67.5498 2.60827 65.4688C3.05708 63.3878 3.77186 61.0168 4.73597 58.4753C5.70008 55.9508 6.91354 53.2557 8.32646 50.5095C8.87501 49.4519 9.44017 48.4284 10.0053 47.4391C9.92223 46.3816 9.88898 45.2899 9.88898 44.1812C9.45679 44.8634 9.04123 45.5628 8.62566 46.2792C8.02724 47.3027 7.44546 48.3773 6.88029 49.4689C5.18478 52.744 3.77185 55.9678 2.69138 59.0211C1.61091 62.0744 0.829647 64.9571 0.397459 67.5157C-0.034729 70.0743 -0.117842 72.3259 0.164743 74.0828C0.447329 75.8568 1.11223 77.1361 2.17608 77.8013C3.17344 78.4154 4.42014 78.4154 5.84968 77.8866C7.27923 77.3578 8.89162 76.3173 10.5871 74.8163C12.2826 73.3152 14.0779 71.3707 15.8731 69.0679C16.9536 67.6692 18.0341 66.1511 19.0813 64.5136C18.9317 64.4283 18.7655 64.3601 18.6159 64.2748C18.0673 63.9507 17.5188 63.5925 16.9869 63.1831Z" fill="#F29F05"/>
<path d="M27.3761 29.7678L34.5737 33.7763C35.1388 34.0833 35.5876 34.5609 35.9533 35.175C36.319 35.7891 36.5684 36.5567 36.7346 37.4607C36.9008 38.3477 36.9673 39.3711 36.9341 40.4969C36.9008 41.6227 36.7845 42.8679 36.5684 44.1984L29.2711 40.1558C29.4872 38.8253 29.6201 37.5972 29.67 36.4714C29.7033 35.3456 29.6534 34.3221 29.4872 33.4352C29.3376 32.5482 29.0882 31.7806 28.7225 31.1665C28.3734 30.5354 27.9246 30.0749 27.3761 29.7678Z" fill="#CC8604"/>
<path d="M13.995 71.3877L21.3422 75.3621C20.1786 76.6755 19.0316 77.8354 17.9346 78.7906C16.8208 79.7458 15.757 80.5305 14.743 81.0934C13.729 81.6563 12.7816 82.0145 11.9172 82.1339C11.0528 82.2533 10.2716 82.1509 9.60667 81.7927L2.35925 77.8866C3.02415 78.2448 3.78879 78.3471 4.63654 78.2107C5.48429 78.0913 6.43177 77.7331 7.42913 77.1531C8.42648 76.5902 9.49031 75.8056 10.604 74.8333C11.7011 73.861 12.8481 72.7011 13.995 71.3877Z" fill="#CC8604"/>
<path d="M17.6355 66.7139C17.037 67.5668 16.422 68.4026 15.8236 69.1702C15.2252 69.9548 14.6101 70.6883 14.0117 71.3706L21.3589 75.345C21.9573 74.6627 22.5724 73.9293 23.1874 73.1446C23.8025 72.36 24.4009 71.5583 24.9993 70.6883C25.2154 70.3642 25.4481 70.0401 25.6642 69.716L18.3336 65.7075C18.0843 66.0487 17.8516 66.3898 17.6355 66.7139Z" fill="#B5771C"/>
<path d="M35.6709 48.2408C36.0532 46.825 36.3358 45.4775 36.5519 44.1981L29.2545 40.1555C29.0384 41.4178 28.7392 42.7824 28.3568 44.1981C28.0743 45.2387 27.7584 46.3133 27.3761 47.422L34.7067 51.4305C35.0891 50.3389 35.4049 49.2642 35.6709 48.2408Z" fill="#B5771C"/>
<path d="M28.5232 65.1275C28.6562 64.8887 28.7891 64.6499 28.9388 64.4111C29.0717 64.1723 29.2047 63.9165 29.3377 63.6776C29.4707 63.4388 29.6037 63.183 29.7366 62.9271C29.8696 62.6712 30.0026 62.4324 30.1356 62.1766C30.9833 60.5561 31.748 58.9357 32.4461 57.3323C33.1443 55.7459 33.7593 54.1766 34.2912 52.6414C34.4408 52.2321 34.5738 51.8227 34.7068 51.4133L27.3762 47.4048C27.2433 47.7971 27.1103 48.2065 26.9607 48.5988C26.4121 50.1169 25.7971 51.6862 25.0989 53.2896C24.4008 54.893 23.6195 56.5135 22.7718 58.151C22.6388 58.4069 22.5058 58.6627 22.3728 58.9015C22.2399 59.1574 22.1069 59.3962 21.9739 59.6521C21.8409 59.8909 21.7079 60.1467 21.5583 60.3855C21.4254 60.6244 21.2924 60.8632 21.1428 61.102C20.561 62.1084 19.9792 63.0636 19.3974 64.0017C19.0317 64.5817 18.6494 65.1446 18.2837 65.7075L25.6142 69.716C25.9966 69.1531 26.3623 68.5902 26.7446 68.0103C27.3596 67.0891 27.9414 66.1339 28.5232 65.1275Z" fill="#D29B24"/>
<path d="M29.6533 35.3796C29.6367 34.5608 29.5536 33.8103 29.4206 33.1451C29.0715 31.4393 28.3401 30.2453 27.2264 29.6995C26.4784 29.3413 25.5974 29.2901 24.6333 29.5118C23.6692 29.7336 22.6054 30.2282 21.475 30.9788C20.3447 31.7122 19.1645 32.7016 17.9344 33.8785C16.721 35.0726 15.4577 36.4713 14.211 38.0406C13.5793 38.8252 12.9477 39.6781 12.3326 40.548C11.701 41.435 11.0859 42.3391 10.4709 43.3113C10.288 43.6013 10.1052 43.9083 9.92236 44.1983C9.92236 45.3071 9.95561 46.3987 10.0387 47.4563C10.953 45.87 11.8838 44.386 12.8147 43.0214C14.3273 40.7868 15.84 38.8593 17.2862 37.3071C18.7323 35.7549 20.0787 34.595 21.2756 33.9297C22.4724 33.2474 23.503 33.0598 24.2842 33.4521C24.384 33.5033 24.4671 33.5545 24.5502 33.6227C24.6333 33.6909 24.7164 33.7591 24.7995 33.8274C24.8827 33.9127 24.9491 33.9979 25.0156 34.0832C25.0821 34.1685 25.1486 34.2709 25.2151 34.3903C25.614 34.595 25.9299 34.9532 26.1626 35.4308C27.2264 34.902 28.5064 34.8679 29.6533 35.3796Z" fill="#FAED81"/>
<path d="M28.39 44.0789C27.5256 44.1812 26.6446 44.0277 25.8135 43.5671C25.3813 45.2899 24.7829 47.1833 24.0349 49.1961C23.0708 51.7547 21.8573 54.4668 20.4112 57.2472C20.1951 57.6736 19.9624 58.1 19.7463 58.5094C19.5136 58.9188 19.2975 59.3282 19.0648 59.7375C18.832 60.1469 18.5993 60.5392 18.3666 60.9316C18.1339 61.3239 17.9012 61.7162 17.6685 62.0915C17.4357 62.4667 17.2197 62.8079 16.9869 63.1661C17.5022 63.5584 18.0508 63.9337 18.6326 64.2407C18.7822 64.326 18.9484 64.4113 19.098 64.4795C19.7961 63.4049 20.4777 62.262 21.1592 61.0851C21.2922 60.8463 21.4418 60.6075 21.5748 60.3687C21.7077 60.1299 21.8407 59.874 21.9903 59.6352C22.1233 59.3964 22.2563 59.1405 22.3893 58.8847C22.5223 58.6288 22.6552 58.39 22.7882 58.1341C24.5502 54.7568 25.9797 51.4135 27.0768 48.275C27.5921 46.8422 28.0243 45.4434 28.39 44.0789Z" fill="#FAED81"/>
<path d="M28.3899 44.0786C28.8055 42.5094 29.1213 41.0254 29.3374 39.6437C29.5701 38.0744 29.6865 36.6416 29.6532 35.3794C28.4896 34.8676 27.2263 34.9018 26.1292 35.3964C26.3453 35.8399 26.4783 36.3858 26.5614 37.0169C26.711 38.3644 26.5614 40.1384 26.1292 42.2023C26.0295 42.6458 25.9297 43.1064 25.8134 43.5669C26.6445 44.0275 27.5421 44.181 28.3899 44.0786Z" fill="#FFFFB9"/>
<path d="M24.9823 33.8613C28.4065 35.6524 26.6944 46.1427 21.1424 57.2641C15.5905 68.4026 8.32639 75.9591 4.90213 74.168C1.47787 72.377 3.19001 61.8867 8.74197 50.7652C14.2939 39.6267 21.558 32.0703 24.9823 33.8613Z" fill="#FFFFB9"/>
<path d="M24.2677 33.4179C24.3674 33.4691 24.4505 33.5202 24.5336 33.5885C24.6167 33.6567 24.6999 33.7249 24.7663 33.7932C24.8495 33.8784 24.9159 33.9467 24.9824 34.049C25.0489 34.1343 25.1154 34.2367 25.1653 34.339C24.5835 34.0661 23.8687 34.1002 23.0542 34.4072C22.2397 34.7313 21.3255 35.3113 20.3281 36.1471C19.3474 36.9829 18.2835 38.0575 17.2031 39.3198C16.1226 40.5991 15.0089 42.066 13.8952 43.7035C13.5129 44.2664 13.1305 44.8293 12.7648 45.4263C12.3825 46.0233 12.0168 46.6374 11.6345 47.2515C11.2688 47.8826 10.8865 48.5308 10.5208 49.179C10.1551 49.8442 9.78939 50.5094 9.44032 51.1917C8.07726 53.8015 6.91368 56.3772 5.98281 58.8164C5.05195 61.2386 4.33718 63.5242 3.87175 65.5541C3.40632 67.5839 3.19022 69.3579 3.24009 70.7737C3.28995 72.1894 3.62241 73.247 4.25406 73.8099C4.17095 73.8099 4.10446 73.7928 4.02135 73.7758C3.93824 73.7587 3.87175 73.7416 3.80526 73.7246C3.73877 73.7075 3.65565 73.6734 3.58916 73.6393C3.52267 73.6052 3.45618 73.5711 3.38969 73.537C2.64168 73.0935 2.22611 72.1041 2.10975 70.7054C1.99339 69.3067 2.17625 67.4986 2.62506 65.4176C3.07387 63.3366 3.78864 60.9656 4.75275 58.4241C5.71686 55.8996 6.9303 53.2045 8.34322 50.4583C9.77276 47.712 11.2854 45.1875 12.7981 42.953C14.3107 40.7185 15.8234 38.791 17.2696 37.2388C18.7157 35.6865 20.0622 34.5266 21.259 33.8614C22.4558 33.2303 23.4864 33.0256 24.2677 33.4179Z" fill="#AF731B"/>
<path d="M10.7036 52.8463C10.4376 51.8058 10.2381 50.7141 10.0719 49.5713C9.78934 50.083 9.50675 50.5947 9.24079 51.1235C7.86111 53.7674 6.69753 56.3601 5.75003 58.8164C4.80254 61.2727 4.08777 63.5754 3.62234 65.6223C3.1569 67.6692 2.92418 69.4602 2.99067 70.8931C3.04053 72.3259 3.37299 73.3834 4.00465 73.9634C4.02127 73.9805 4.05452 73.9975 4.07114 74.0316C4.08776 74.0487 4.12101 74.0657 4.13763 74.0828C4.15426 74.0999 4.18751 74.1169 4.22075 74.134C4.254 74.151 4.27061 74.1681 4.30386 74.1851C4.53658 74.3216 4.80254 74.4069 5.10175 74.441C5.58381 74.4922 6.13235 74.3898 6.73076 74.134C7.32918 73.8781 7.97747 73.4858 8.67562 72.9741C8.95821 72.7694 9.24079 72.5306 9.52337 72.2918C9.67297 72.1724 9.80596 72.0359 9.95556 71.8995C11.1358 70.8248 12.3825 69.4261 13.679 67.7886C14.7429 66.424 15.8234 64.8889 16.8872 63.2172C14.5268 61.4091 12.7482 58.8164 11.568 55.5926" fill="#F2B705"/>
<path d="M11.5514 55.5925C11.5348 56.5306 11.4849 57.5541 11.4184 58.6457C11.1525 61.409 10.7037 64.6329 10.1053 68.1126L8.99158 66.2875C9.57335 62.2107 9.92242 58.7481 10.0055 55.2001C10.0055 54.8931 9.98892 54.569 9.98892 54.262L10.7203 52.8633" fill="#ECC42E"/>
<path d="M11.5679 55.0467C11.5679 55.2172 11.5679 55.4049 11.5679 55.5925L10.7202 52.8463C10.4542 51.8057 10.2547 50.7141 10.0885 49.5712C10.1716 49.4177 10.2547 49.2471 10.3545 49.0936C10.7202 48.4284 11.1025 47.7802 11.4682 47.1491C11.8505 46.5179 12.2328 45.9039 12.5985 45.3069C12.9808 44.7098 13.3631 44.1299 13.7455 43.567C14.8758 41.9124 16.0061 40.4284 17.0866 39.1321C18.1837 37.8527 19.2476 36.7611 20.2449 35.9253C21.2423 35.0894 22.1731 34.4754 22.9876 34.1683C23.8188 33.8442 24.5335 33.8101 25.1153 34.1001C25.8966 34.4924 26.362 35.4306 26.5116 36.7952C26.6612 38.1598 26.5116 39.9508 26.0794 42.0489C25.6473 44.147 24.9325 46.552 23.9684 49.1277C23.0043 51.7034 21.7742 54.4667 20.3114 57.2641C20.0787 57.6906 19.8626 58.117 19.6299 58.5435C19.3972 58.9699 19.1644 59.3793 18.9484 59.7886C18.7156 60.198 18.4829 60.6074 18.2502 60.9997C18.0175 61.3921 17.7848 61.7844 17.552 62.1767C17.3193 62.552 17.0866 62.9102 16.8705 63.2684C14.5101 61.4603 12.7315 58.8675 11.5513 55.6437" fill="#F2C335"/>
<path d="M32.0806 0.47998V21.563" stroke="#F2B705" stroke-miterlimit="10"/>
<path d="M47.0078 24.4629V45.5459" stroke="#F2B705" stroke-miterlimit="10"/>
</svg>
