<svg width="36" height="60" viewBox="0 0 36 60" fill="none" xmlns="http://www.w3.org/2000/svg">
<g filter="url(#filter0_f)">
<path d="M14.043 50.5411C13.4972 50.6438 12.9606 50.7091 12.4421 50.7371C11.9236 50.7651 11.4233 50.7558 10.9503 50.7184C10.0043 50.6344 9.1492 50.3917 8.43969 50.009C7.73018 49.6263 7.14801 49.0943 6.75686 48.4222C6.71138 48.3662 6.65681 48.3102 6.61133 48.2542C6.56584 48.1982 6.52036 48.1422 6.47488 48.0768C6.4294 48.0208 6.39301 47.9555 6.34753 47.8995C6.31115 47.8341 6.26567 47.7781 6.22928 47.7128C5.76537 46.8914 5.60163 45.9486 5.70169 44.9312C5.80175 43.9137 6.16561 42.8403 6.74777 41.7482C7.33903 40.6654 8.1486 39.5826 9.15829 38.5559C10.168 37.5291 11.3596 36.5583 12.715 35.7182C13.8247 35.0275 14.9618 34.4674 16.0806 34.0474C16.3262 33.4593 16.6082 32.8713 16.9084 32.2832C16.4081 32.4326 15.9169 32.6099 15.4166 32.8059C14.8617 33.0299 14.3159 33.282 13.761 33.5527C13.2153 33.8327 12.6604 34.1407 12.1237 34.4768C10.5046 35.4849 9.08553 36.661 7.9121 37.9211C6.72958 39.1812 5.79265 40.5347 5.12862 41.8975C4.46459 43.2603 4.07345 44.6418 4.00978 45.9486C3.9461 47.2554 4.1917 48.4969 4.81025 49.589C5.38332 50.5971 6.22018 51.3905 7.23897 51.9599C8.26685 52.5293 9.49486 52.884 10.8411 52.996C12.1965 53.1173 13.6701 53.0053 15.1983 52.6693C16.217 52.4453 17.2631 52.1092 18.3092 51.6799C17.7452 51.0825 17.2358 50.4291 16.7719 49.729C15.8441 50.1024 14.9254 50.3731 14.043 50.5411Z" fill="#F29F05"/>
<path d="M8.43058 50.0087C7.72107 49.626 7.1389 49.0939 6.74776 48.4219C7.148 49.1033 7.72107 49.626 8.43058 50.0087C9.1401 50.3914 9.99516 50.6248 10.9412 50.7181C11.4142 50.7648 11.9145 50.7648 12.433 50.7368C11.9145 50.7648 11.4142 50.7554 10.9412 50.7181C9.99516 50.6341 9.1492 50.3914 8.43058 50.0087Z" fill="#F6DC34"/>
<path d="M14.0431 50.5411C13.4973 50.6438 12.9606 50.7092 12.4421 50.7372C12.9515 50.7092 13.4882 50.6438 14.0431 50.5411C14.9254 50.373 15.8441 50.1022 16.772 49.7473C15.8441 50.1022 14.9254 50.373 14.0431 50.5411Z" fill="#F6DC34"/>
<path d="M21.8659 46.8071C21.8387 46.835 21.8025 46.8536 21.7753 46.8815C21.8115 46.8629 21.8387 46.835 21.8659 46.8071Z" fill="#FBF1A4"/>
<path d="M22.9575 45.8737C23.1121 45.7337 23.2576 45.5937 23.4032 45.4443C23.767 45.0803 24.1036 44.7069 24.4128 44.3335C24.1036 44.7069 23.767 45.0803 23.4032 45.4443C23.2576 45.5937 23.103 45.7337 22.9575 45.8737Z" fill="#FBF1A4"/>
<path d="M26.8052 39.7878C26.8325 39.6664 26.8507 39.5451 26.878 39.4237C26.9962 38.6956 26.978 38.0049 26.8234 37.3608C26.978 38.0049 26.9871 38.6956 26.878 39.4237C26.8598 39.5451 26.8325 39.6664 26.8052 39.7878Z" fill="#FBF1A4"/>
<path d="M24.713 43.96C25.1042 43.456 25.4498 42.9426 25.75 42.4292C26.1866 41.6731 26.505 40.9264 26.7051 40.189C26.505 40.917 26.1776 41.6731 25.75 42.4292C25.4498 42.9426 25.1042 43.456 24.713 43.96Z" fill="#FBF1A4"/>
<path d="M26.8051 39.7878C26.7778 39.9279 26.7414 40.0587 26.705 40.1987C26.7414 40.0587 26.7778 39.9186 26.8051 39.7878Z" fill="#FBF1A4"/>
<path d="M22.9574 45.8735C22.6117 46.191 22.257 46.5085 21.875 46.8074C22.2479 46.5085 22.6117 46.2004 22.9574 45.8735Z" fill="#FBF1A4"/>
<path d="M17.4542 49.4771C17.2268 49.5799 16.9994 49.6639 16.772 49.7479C16.9994 49.6639 17.2268 49.5705 17.4542 49.4771C17.6634 49.3837 17.8817 49.2904 18.0909 49.1876C18.3001 49.0849 18.5184 48.9822 18.7277 48.8701C18.5184 48.9822 18.3001 49.0849 18.0909 49.1876C17.8817 49.2904 17.6634 49.3837 17.4542 49.4771Z" fill="#FBF1A4"/>
<path d="M19.3644 48.5153C19.5736 48.394 19.7919 48.2633 20.0012 48.1326C20.6288 47.7406 21.2201 47.3205 21.775 46.8818C21.2201 47.3205 20.6288 47.7406 20.0012 48.1326C19.7919 48.2633 19.5736 48.394 19.3644 48.5153Z" fill="#FBF1A4"/>
<path d="M28.679 34.9712L30.3528 37.9208C30.6711 38.4809 30.8985 39.0876 31.035 39.7224C31.1714 40.3571 31.2169 41.0198 31.1714 41.7106C31.1259 42.392 30.9986 43.1014 30.7894 43.8108C30.5802 44.5202 30.28 45.2483 29.9161 45.967L28.2151 43.0174C28.5881 42.2986 28.8883 41.5799 29.0975 40.8611C29.3067 40.1517 29.4431 39.4423 29.4886 38.7609C29.5341 38.0795 29.4886 37.4075 29.3613 36.7727C29.2248 36.1287 28.9974 35.5312 28.679 34.9712Z" fill="#CC8604"/>
<path d="M14.3614 52.8559L16.1261 55.7682C15.0891 55.9455 14.0885 56.0015 13.1334 55.9549C12.1874 55.9082 11.2869 55.7589 10.4773 55.4975C9.65863 55.2361 8.92182 54.8721 8.28508 54.396C7.64834 53.92 7.11166 53.3506 6.69323 52.6692L4.91035 49.7849C5.32878 50.4663 5.86547 51.0357 6.50221 51.5117C7.13895 51.9785 7.88485 52.3518 8.69442 52.6039C9.51309 52.8652 10.4136 53.0146 11.3596 53.0519C12.3147 53.0986 13.3244 53.0332 14.3614 52.8559Z" fill="#CC8604"/>
<path d="M28.7245 47.8899C29.1793 47.2552 29.5795 46.6111 29.9161 45.9577L28.2151 43.0081C27.8785 43.6615 27.4783 44.3055 27.0143 44.9403C26.5959 45.5283 26.1138 46.0977 25.5953 46.6578L27.3236 49.5794C27.8421 49.0287 28.306 48.4686 28.7245 47.8899Z" fill="#B5771C"/>
<path d="M18.4819 51.6234C18.018 51.8194 17.5541 51.9967 17.0902 52.1554C16.6263 52.3141 16.1715 52.4448 15.7167 52.5661C15.2618 52.6781 14.807 52.7808 14.3613 52.8555L16.126 55.7678C16.5717 55.6931 17.0174 55.5997 17.4722 55.4877C17.9271 55.3757 18.3819 55.2357 18.8458 55.0864C19.3097 54.9277 19.7645 54.7597 20.2284 54.5543C20.3285 54.517 20.4195 54.4703 20.5195 54.4236L18.7821 51.4927C18.6821 51.5393 18.582 51.586 18.4819 51.6234Z" fill="#B5771C"/>
<path d="M21.9841 53.705C22.1115 53.6396 22.2388 53.565 22.3571 53.4996C22.4844 53.425 22.6118 53.3596 22.73 53.2849C22.8574 53.2103 22.9756 53.1356 23.103 53.0609C23.8762 52.5755 24.6039 52.0528 25.2861 51.5021C25.9683 50.9514 26.596 50.3726 27.1599 49.7659C27.2145 49.7099 27.26 49.6539 27.3146 49.5979L25.5863 46.6763C25.5408 46.7229 25.4953 46.7789 25.4498 46.8256C24.8768 47.4323 24.24 48.0111 23.5578 48.5711C22.8756 49.1219 22.1388 49.6539 21.3656 50.1393C21.2382 50.214 21.1109 50.298 20.9926 50.3726C20.8744 50.4473 20.7379 50.522 20.6106 50.5873C20.4832 50.662 20.3559 50.7273 20.2285 50.7927C20.1012 50.858 19.9738 50.9327 19.8465 50.998C19.4826 51.1847 19.1279 51.3527 18.764 51.5114L20.5014 54.4424C20.8653 54.2837 21.2291 54.1064 21.593 53.9197C21.7385 53.8357 21.8568 53.7703 21.9841 53.705Z" fill="#D29B24"/>
<path d="M25.6864 46.5645C26.1503 46.0605 26.5687 45.5471 26.9507 45.0337C26.1776 44.8004 25.4862 44.3057 24.995 43.5869C24.9041 43.7083 24.8131 43.8389 24.713 43.9603C24.613 44.091 24.5129 44.2123 24.4129 44.3336C24.1036 44.707 23.767 45.0804 23.4032 45.4444C23.2576 45.5844 23.1121 45.7338 22.9574 45.8738C22.6118 46.1912 22.257 46.5085 21.875 46.8072C21.8477 46.8352 21.8113 46.8539 21.784 46.8819C21.2291 47.3206 20.6379 47.7407 20.0102 48.1327C19.801 48.2634 19.5918 48.3941 19.3735 48.5154C19.1643 48.6367 18.946 48.7487 18.7367 48.8608C18.5275 48.9728 18.3092 49.0754 18.1 49.1781C17.8908 49.2808 17.6725 49.3741 17.4633 49.4675C17.2358 49.5702 17.0084 49.6542 16.781 49.7382C17.2358 50.4383 17.7543 51.0916 18.3183 51.689C18.8368 51.4743 19.3644 51.2317 19.8829 50.961C20.0102 50.8956 20.1376 50.8303 20.2649 50.7556C20.3923 50.6903 20.5196 50.6156 20.647 50.5503C20.7743 50.4756 20.9017 50.4102 21.029 50.3356C21.1564 50.2609 21.2837 50.1862 21.402 50.1022C23.0393 49.0754 24.4947 47.8713 25.6864 46.5645Z" fill="#FAE855"/>
<path d="M29.4976 37.9676C29.4612 36.8195 29.1611 35.746 28.5698 34.7939C28.1332 34.0845 27.5601 33.4965 26.887 33.0204C26.2138 32.5444 25.4316 32.1803 24.5765 31.9377C23.7215 31.695 22.7845 31.5643 21.793 31.5456C20.8106 31.527 19.7645 31.6296 18.7003 31.835C18.1636 31.9377 17.6178 32.0777 17.072 32.2364C17.0175 32.255 16.972 32.2737 16.9174 32.283C16.6172 32.8618 16.3352 33.4498 16.0896 34.0472C16.3352 33.9539 16.5808 33.8699 16.8264 33.7859C18.1818 33.3378 19.4917 33.1044 20.7015 33.0671C21.9113 33.0298 23.0119 33.1978 23.9307 33.5805C24.8585 33.9632 25.6044 34.5513 26.0956 35.3447C26.1593 35.4473 26.2229 35.5593 26.2775 35.6714C26.3321 35.7834 26.3867 35.8954 26.4322 36.0167C26.4776 36.1287 26.514 36.2501 26.5504 36.3714C26.5868 36.4928 26.6141 36.6141 26.6414 36.7355C26.7232 36.9408 26.7869 37.1462 26.8415 37.3609C26.8779 37.5102 26.9052 37.6596 26.9234 37.8089C27.7784 37.5289 28.6971 37.5942 29.4976 37.9676Z" fill="#FAE855"/>
<path d="M28.4697 42.4854C29.1156 41.0946 29.4703 39.7038 29.4976 38.3877C29.4976 38.2477 29.4976 38.0983 29.4976 37.9583C28.6971 37.5943 27.7693 37.5289 26.9051 37.7996C26.9779 38.313 26.9597 38.8544 26.8688 39.4145C26.8506 39.5358 26.8233 39.6572 26.796 39.7785C26.7687 39.9185 26.7323 40.0492 26.6959 40.1892C26.4958 40.9173 26.1683 41.6734 25.7408 42.4294C25.5225 42.8121 25.2678 43.2042 24.9858 43.5869C25.477 44.3056 26.1774 44.791 26.9415 45.0337C27.5601 44.2029 28.0786 43.3442 28.4697 42.4854Z" fill="#FFFF6E"/>
<path d="M26.6234 36.7353C26.5961 36.6139 26.5688 36.4926 26.5324 36.3712C26.496 36.2499 26.4596 36.1285 26.4141 36.0165C26.3687 35.9045 26.3232 35.7832 26.2595 35.6712C26.2049 35.5591 26.1412 35.4471 26.0776 35.3445C25.5864 34.5417 24.8405 33.9537 23.9126 33.5803C23.6852 33.4869 23.4396 33.4029 23.1849 33.3376C23.1849 33.3376 23.1849 33.3376 23.1758 33.3376C22.7119 33.2069 22.2025 33.1322 21.6749 33.0949C21.493 33.0856 21.3111 33.0762 21.12 33.0669C20.9745 33.0669 20.8199 33.0669 20.6743 33.0669C20.5197 33.0669 20.3741 33.0762 20.2195 33.0856C19.9557 33.1042 19.6919 33.1322 19.4281 33.1696C19.319 33.1882 19.2007 33.2069 19.0825 33.2256C18.3457 33.3469 17.5816 33.5336 16.8084 33.7856C15.4621 34.2244 14.0704 34.8777 12.715 35.7178C11.3597 36.5673 10.1589 37.5287 9.15833 38.5555C8.14863 39.5822 7.33906 40.665 6.7478 41.7478C6.15653 42.8306 5.80177 43.9133 5.70171 44.9308C5.60165 45.9482 5.76539 46.9003 6.22931 47.7124C6.26569 47.7777 6.30207 47.8431 6.34756 47.8991C6.38394 47.9644 6.42942 48.0204 6.4749 48.0764C6.52039 48.1325 6.56587 48.1885 6.61135 48.2538C6.65683 48.3098 6.70231 48.3658 6.75689 48.4218C6.75689 48.4218 6.75689 48.4125 6.7478 48.4125C6.7478 48.4125 6.7478 48.4031 6.7387 48.4031C6.7387 48.4031 6.7387 48.3938 6.7296 48.3938C6.7296 48.3938 6.7296 48.3845 6.7205 48.3845C6.25659 47.5724 6.09286 46.639 6.19292 45.6308C6.29298 44.6321 6.64774 43.5586 7.2299 42.4852C7.81207 41.4118 8.61255 40.3383 9.60406 39.3302C10.5956 38.3128 11.7781 37.3607 13.1243 36.5206C13.4609 36.3059 13.8066 36.1099 14.1522 35.9232C14.4979 35.7365 14.8345 35.5592 15.1801 35.4005C15.3348 35.3258 15.4803 35.2605 15.6349 35.1951C15.826 35.1111 16.017 35.0271 16.208 34.9524C16.5537 34.8217 16.8902 34.6911 17.2268 34.5884C18.2274 34.2617 19.2007 34.0563 20.1285 33.9536C20.5925 33.907 21.0382 33.879 21.4748 33.8883C21.6931 33.8883 21.9023 33.907 22.1116 33.9163C22.3208 33.935 22.5209 33.963 22.721 33.991C23.0212 34.0377 23.3123 34.103 23.5852 34.187C24.0491 34.3177 24.4675 34.495 24.8496 34.7191C25.1588 34.8964 25.4317 35.1018 25.6773 35.3445C25.9229 35.5778 26.1412 35.8485 26.3232 36.1472C26.3505 36.1939 26.3778 36.2406 26.405 36.2872C26.405 36.2872 26.405 36.2872 26.405 36.2966C26.4323 36.3432 26.4505 36.3899 26.4778 36.4366C26.4869 36.4552 26.496 36.4832 26.5142 36.5019C26.5233 36.5299 26.5415 36.5579 26.5506 36.5766C26.587 36.6419 26.6052 36.6886 26.6234 36.7353Z" fill="#C28C21"/>
<path d="M14.4706 39.3956C14.6434 37.9115 14.9891 36.418 15.5166 34.9338C15.362 34.9992 15.2165 35.0645 15.0618 35.1392C14.7162 35.2979 14.3705 35.4752 14.0248 35.6619C13.6792 35.8486 13.3335 36.0539 12.9879 36.2686C11.6325 37.1087 10.4409 38.0795 9.44031 39.1063C8.43972 40.1331 7.63015 41.2252 7.04799 42.3173C6.46582 43.4094 6.11107 44.5015 6.02011 45.5283C5.92914 46.5551 6.10198 47.5165 6.58408 48.3566C6.98432 49.0473 7.57557 49.5887 8.29418 49.9808C9.02188 50.3728 9.88603 50.6155 10.8411 50.7182C11.3232 50.7648 11.8235 50.7742 12.3511 50.7462C12.8787 50.7182 13.4154 50.6528 13.9703 50.5502C14.8617 50.3821 15.7986 50.1208 16.7355 49.7567C16.6264 49.5887 16.5172 49.4207 16.4172 49.2434C15.0254 46.8911 14.3614 44.2495 14.3523 41.5052" fill="#F2B705"/>
<path d="M14.3523 41.5144C14.3614 44.2587 15.0254 46.9003 16.4172 49.2525C16.5172 49.4298 16.6264 49.5979 16.7355 49.7659C16.9629 49.6819 17.1904 49.5885 17.4269 49.4952C17.6452 49.4018 17.8544 49.3085 18.0727 49.2058C18.291 49.1031 18.5002 48.9911 18.7185 48.8791C18.9368 48.7671 19.1461 48.6458 19.3644 48.5244C19.5827 48.4031 19.7919 48.2724 20.0011 48.1417C20.6379 47.7497 21.2382 47.3203 21.7931 46.8816C21.8295 46.8536 21.8568 46.8349 21.8932 46.8069C22.2752 46.4989 22.6391 46.1815 22.9847 45.8641C23.1394 45.7241 23.2849 45.5748 23.4304 45.4348C23.7943 45.0707 24.14 44.688 24.4492 44.3053C24.5584 44.1746 24.6584 44.0533 24.7585 43.9226C25.1496 43.4092 25.5044 42.8865 25.7955 42.3731C26.2321 41.6077 26.5505 40.8423 26.7597 40.0956C26.7961 39.9556 26.8325 39.8155 26.8598 39.6755C26.887 39.5542 26.9052 39.4235 26.9234 39.3022C27.0417 38.5647 27.0235 37.8553 26.8598 37.2019C26.8052 36.9873 26.7415 36.7726 26.6505 36.5672C26.6323 36.5205 26.6051 36.4645 26.5869 36.4179C26.5687 36.3712 26.5414 36.3152 26.5141 36.2685C26.4868 36.2218 26.4595 36.1752 26.4322 36.1192C26.4049 36.0725 26.3776 36.0258 26.3504 35.9792C25.9774 35.3724 25.468 34.887 24.8495 34.523C24.2309 34.159 23.5032 33.9069 22.6845 33.7669C21.875 33.6363 20.9835 33.6176 20.0466 33.7109C19.1097 33.8043 18.1182 34.019 17.1176 34.3363C16.7719 34.4483 16.4354 34.5697 16.0897 34.7004C15.8987 34.775 15.6986 34.859 15.5075 34.943C14.989 36.4272 14.6343 37.9207 14.4615 39.4048" fill="#F2C335"/>
<path d="M9.59491 17.1987V28.7359" stroke="#F2B705" stroke-miterlimit="10"/>
<path d="M16.2624 4V15.5372" stroke="#F2B705" stroke-miterlimit="10"/>
</g>
<defs>
<filter id="filter0_f" x="0" y="0" width="35.1885" height="59.9706" filterUnits="userSpaceOnUse" color-interpolation-filters="sRGB">
<feFlood flood-opacity="0" result="BackgroundImageFix"/>
<feBlend mode="normal" in="SourceGraphic" in2="BackgroundImageFix" result="shape"/>
<feGaussianBlur stdDeviation="2" result="effect1_foregroundBlur"/>
</filter>
</defs>
</svg>
