<svg width="42" height="101" viewBox="0 0 42 101" fill="none" xmlns="http://www.w3.org/2000/svg">
<path d="M23.6055 83.0184C24.9187 84.4512 26.2153 85.7476 27.4786 86.8904C28.9912 88.255 30.454 89.3808 31.7672 90.2337C31.9334 90.336 32.0997 90.4384 32.2493 90.5407C32.5651 90.7283 32.8809 90.8989 33.1801 91.0524C33.9281 91.4447 34.6263 91.7006 35.2579 91.8371C35.873 91.9735 36.4215 91.9906 36.8703 91.8541C37.1363 91.7688 37.3856 91.6494 37.5851 91.4618C37.6017 91.4448 37.635 91.4277 37.6516 91.3936C37.6682 91.3765 37.7015 91.3424 37.7181 91.3254C37.7347 91.3083 37.7513 91.2742 37.7846 91.2571C37.8012 91.2401 37.8178 91.2059 37.8345 91.1889C37.9176 91.1718 37.9841 91.1548 38.0505 91.1207C38.117 91.0866 38.1835 91.0695 38.25 91.0354C38.3165 91.0013 38.383 90.9671 38.4495 90.916C38.516 90.8819 38.5658 90.8307 38.6323 90.7795C39.2806 90.2166 39.53 89.1761 39.4136 87.7774C39.2972 86.3958 38.8152 84.6559 38.0339 82.6943C37.2527 80.7327 36.1389 78.5494 34.7759 76.2296C33.4128 73.9268 31.7838 71.5046 29.9221 69.0654C29.2073 68.1273 28.4925 67.2232 27.7612 66.3704C27.6614 65.3299 27.5284 64.2552 27.329 63.1636C27.8609 63.7606 28.3928 64.3576 28.9081 64.9887C29.6561 65.8928 30.4042 66.8309 31.1522 67.8032C33.363 70.7029 35.2746 73.6198 36.8537 76.4001C38.4329 79.1975 39.6629 81.8756 40.5107 84.2977C41.3584 86.7369 41.8239 88.9032 41.8239 90.6772C41.8405 92.4511 41.4083 93.8328 40.4774 94.6686C39.6131 95.4362 38.383 95.6579 36.9036 95.4021C35.4242 95.1462 33.6622 94.3957 31.7672 93.2358C29.8556 92.0759 27.7778 90.4895 25.6501 88.545C24.3701 87.368 23.057 86.0717 21.7438 84.6559C21.8768 84.5536 22.0264 84.4512 22.1593 84.3318C22.6746 83.9395 23.1567 83.496 23.6055 83.0184Z" fill="#F29F05"/>
<path d="M7.86401 52.1792L1.49759 57.3646C0.998919 57.774 0.633226 58.3199 0.383889 58.9851C0.134552 59.6503 0.0181885 60.452 0.00156593 61.3561C-0.0150566 62.2601 0.101305 63.2665 0.317398 64.3752C0.53349 65.4669 0.86594 66.6609 1.29813 67.9232L7.74766 62.6865C7.31547 61.4243 6.9664 60.2473 6.7503 59.1557C6.53421 58.064 6.41785 57.0576 6.41785 56.1536C6.41785 55.2495 6.53421 54.4649 6.78355 53.7996C7.01626 53.1003 7.38196 52.5715 7.86401 52.1792Z" fill="#CC8604"/>
<path d="M27.8942 90.5068L21.3782 95.6923C22.7246 96.7839 24.0378 97.705 25.2845 98.4385C26.5312 99.189 27.6948 99.7519 28.7919 100.127C29.8723 100.502 30.8531 100.673 31.7175 100.639C32.5818 100.605 33.3132 100.366 33.9116 99.8884L40.3446 94.8053C39.7628 95.2658 39.0314 95.5046 38.167 95.5388C37.3193 95.5729 36.3385 95.3852 35.2581 94.9929C34.1776 94.6176 33.014 94.0377 31.7673 93.2872C30.5539 92.5196 29.2407 91.5985 27.8942 90.5068Z" fill="#CC8604"/>
<path d="M23.5724 86.5833C24.3038 87.3168 25.0352 88.0162 25.7666 88.6644C26.4813 89.3125 27.2127 89.9266 27.9109 90.5066L21.3948 95.692C20.6967 95.1291 19.9653 94.5151 19.2505 93.8669C18.5191 93.2187 17.7877 92.5193 17.0563 91.7859C16.7904 91.513 16.5078 91.24 16.2418 90.95L22.7413 85.7305C23.0238 86.0204 23.2898 86.2934 23.5724 86.5833Z" fill="#B5771C"/>
<path d="M2.84397 71.6923C2.24556 70.3789 1.73026 69.0996 1.3147 67.9056L7.76424 62.6689C8.1798 63.88 8.71172 65.1423 9.31013 66.4557C9.75894 67.428 10.2576 68.4173 10.8062 69.4237L4.30675 74.6432C3.75821 73.6369 3.27616 72.6475 2.84397 71.6923Z" fill="#B5771C"/>
<path d="M12.6512 86.9418C12.485 86.7371 12.3021 86.5154 12.1359 86.3107C11.9697 86.106 11.7868 85.8843 11.6206 85.6625C11.4544 85.4408 11.2715 85.219 11.1053 85.0143C10.9391 84.7926 10.7562 84.5709 10.59 84.3491C9.4929 82.8992 8.46229 81.4664 7.5148 80.0165C6.56731 78.5837 5.70294 77.1509 4.92168 75.7692C4.70559 75.3939 4.50611 75.0187 4.30664 74.6434L10.8061 69.4238C11.0055 69.782 11.205 70.1573 11.4045 70.5155C12.1858 71.9142 13.0668 73.33 14.0142 74.7799C14.9617 76.2127 15.9923 77.6626 17.0894 79.1125C17.2557 79.3342 17.4385 79.556 17.6047 79.7777C17.7709 79.9994 17.9538 80.2212 18.12 80.443C18.2863 80.6647 18.4691 80.8694 18.6353 81.0911C18.8016 81.3129 18.9844 81.5176 19.1506 81.7223C19.882 82.5922 20.6134 83.4451 21.3448 84.2468C21.8102 84.7585 22.2591 85.2361 22.7245 85.7137L16.225 90.9333C15.7596 90.4557 15.2942 89.961 14.8288 89.4493C14.114 88.6646 13.3826 87.8288 12.6512 86.9418Z" fill="#D29B24"/>
<path d="M6.56727 58.0633C6.45091 57.2616 6.40104 56.5111 6.41767 55.8288C6.46754 54.106 6.98284 52.7926 7.99681 52.0591C8.66172 51.5645 9.50947 51.3598 10.5068 51.411C11.4876 51.4621 12.6179 51.7521 13.848 52.2809C15.078 52.8097 16.3912 53.5602 17.7875 54.4983C19.1838 55.4365 20.63 56.5964 22.126 57.9098C22.874 58.5751 23.622 59.2744 24.3867 60.0249C25.1513 60.7755 25.8993 61.5601 26.664 62.3959C26.8967 62.6518 27.1294 62.9076 27.3621 63.1635C27.545 64.2552 27.6946 65.3298 27.7943 66.3703C26.6474 64.9887 25.4838 63.6923 24.3368 62.5153C22.4751 60.6049 20.6798 58.9674 19.0176 57.7222C17.3553 56.46 15.826 55.573 14.5461 55.1124C13.2662 54.6689 12.2189 54.6519 11.5208 55.1636C11.4377 55.2318 11.3546 55.3 11.2881 55.3683C11.2216 55.4365 11.1551 55.5218 11.0886 55.6241C11.0221 55.7094 10.9723 55.8118 10.9224 55.9141C10.8725 56.0165 10.8227 56.1359 10.7894 56.2382C10.4237 56.5111 10.1744 56.9034 10.0248 57.4152C8.86119 57.1764 7.61449 57.364 6.56727 58.0633Z" fill="#FAED81"/>
<path d="M9.26001 66.3534C10.1078 66.3022 10.9555 65.9781 11.6869 65.3982C12.4017 67.0187 13.2993 68.7585 14.3632 70.5837C15.7262 72.9035 17.3719 75.3598 19.2502 77.816C19.5328 78.1913 19.832 78.5665 20.1146 78.9418C20.3972 79.3171 20.6964 79.6753 20.9956 80.0335C21.2948 80.3917 21.5774 80.7328 21.8766 81.074C22.1758 81.4151 22.4584 81.7563 22.7576 82.0804C23.0402 82.4045 23.3228 82.7115 23.6053 83.0186C23.1565 83.4962 22.6911 83.9567 22.1758 84.3661C22.0428 84.4684 21.8932 84.5878 21.7602 84.6902C20.8959 83.752 20.0315 82.7797 19.1837 81.7392C19.0175 81.5345 18.8347 81.3128 18.6684 81.1081C18.5022 80.8864 18.3193 80.6817 18.1531 80.4599C17.9869 80.2382 17.804 80.0164 17.6378 79.7947C17.4716 79.5729 17.2887 79.3512 17.1225 79.1294C14.8452 76.1444 12.8837 73.1252 11.2713 70.2596C10.5067 68.912 9.8418 67.6157 9.26001 66.3534Z" fill="#FAED81"/>
<path d="M9.25995 66.3533C8.59506 64.9034 8.0299 63.5047 7.5811 62.1742C7.08243 60.6902 6.74998 59.3086 6.56714 58.0634C7.61434 57.3641 8.86101 57.1764 10.0079 57.4493C9.87496 57.9099 9.8251 58.4728 9.85834 59.1039C9.94145 60.4514 10.3736 62.1572 11.1383 64.1017C11.3045 64.5111 11.4873 64.9546 11.6702 65.381C10.972 65.978 10.1243 66.3021 9.25995 66.3533Z" fill="#FFFFB9"/>
<path d="M10.8724 55.7609C7.83043 58.1148 11.2547 68.0592 18.5354 77.9696C25.8161 87.88 34.194 93.9865 37.2359 91.6326C40.2778 89.2786 36.8536 79.3342 29.5729 69.4238C22.3088 59.5135 13.9309 53.4069 10.8724 55.7609Z" fill="#FFFFB9"/>
<path d="M11.5041 55.1979C11.421 55.2661 11.3379 55.3344 11.2714 55.4026C11.2049 55.4708 11.1384 55.5561 11.0719 55.6414C11.0054 55.7267 10.9556 55.829 10.9057 55.9314C10.8558 56.0337 10.806 56.1361 10.7727 56.2555C11.288 55.8802 12.0028 55.7949 12.8505 55.9655C13.6983 56.1361 14.6956 56.5455 15.8094 57.1936C16.9065 57.8418 18.1199 58.6947 19.3999 59.7522C20.6798 60.8098 22.0096 62.055 23.3727 63.4537C23.8381 63.9313 24.3035 64.426 24.769 64.9377C25.2344 65.4494 25.6998 65.9782 26.1819 66.524C26.6473 67.0699 27.1294 67.6328 27.5948 68.2127C28.0602 68.7927 28.5257 69.3897 28.9911 69.9867C30.7531 72.3065 32.3156 74.6093 33.6455 76.8267C34.9586 79.0442 36.0391 81.1423 36.837 83.0356C37.6349 84.9461 38.1502 86.6347 38.333 88.0335C38.5159 89.4322 38.3663 90.5068 37.851 91.1891C37.9341 91.172 38.0006 91.155 38.0671 91.1209C38.1336 91.0868 38.2001 91.0697 38.2665 91.0356C38.333 91.0015 38.3995 90.9673 38.466 90.9162C38.5325 90.882 38.5824 90.8309 38.6489 90.7797C39.2971 90.1997 39.5465 89.1763 39.4301 87.7776C39.3138 86.3959 38.8317 84.6561 38.0504 82.6945C37.2692 80.7329 36.1555 78.5495 34.7924 76.2297C33.4294 73.927 31.8003 71.5048 29.9386 69.0656C28.0935 66.6434 26.1819 64.426 24.3368 62.5156C22.4917 60.6051 20.6798 58.9676 19.0175 57.7224C17.3553 56.4602 15.826 55.5732 14.546 55.1126C13.2495 54.6862 12.2022 54.6862 11.5041 55.1979Z" fill="#AF731B"/>
<path d="M28.0104 71.7947C28.0935 70.7201 28.1101 69.6284 28.0769 68.4856C28.4426 68.9461 28.7916 69.3896 29.1573 69.8672C30.936 72.2041 32.5151 74.541 33.8449 76.7755C35.1747 79.01 36.2718 81.1251 37.0697 83.0526C37.8676 84.9801 38.3829 86.6859 38.5658 88.1016C38.7486 89.5174 38.599 90.6091 38.0837 91.2743C38.0671 91.2914 38.0505 91.3255 38.0172 91.3425C38.0006 91.3596 37.984 91.3937 37.9507 91.4108C37.9341 91.4278 37.9008 91.4619 37.8842 91.479C37.8676 91.496 37.8344 91.5131 37.8177 91.5472C37.6016 91.7349 37.3689 91.8542 37.0863 91.9395C36.6209 92.076 36.0724 92.0589 35.4573 91.9225C34.8257 91.786 34.1275 91.5131 33.3629 91.1208C33.0637 90.9673 32.7478 90.7967 32.4154 90.592C32.2491 90.4896 32.0829 90.3873 31.9167 90.285C30.5869 89.4321 29.1241 88.3063 27.5948 86.9076C26.3315 85.7648 25.0183 84.4513 23.6885 83.0014C25.6998 80.8181 26.9964 77.9695 27.6114 74.6263" fill="#F2B705"/>
<path d="M27.6445 74.6262C27.8108 75.5303 28.0268 76.5196 28.2928 77.5772C29.0076 80.2381 29.9883 83.2914 31.1519 86.6006L31.9331 84.6219C30.6864 80.7328 29.7556 77.4066 29.0907 73.961C29.0408 73.6539 28.9909 73.3469 28.9577 73.0399L28.0102 71.7947" fill="#ECC42E"/>
<path d="M27.545 74.0974C27.5783 74.2679 27.6115 74.4556 27.6448 74.6261L28.0105 71.7946C28.0936 70.72 28.1102 69.6283 28.077 68.4855C27.9606 68.349 27.8609 68.1955 27.7445 68.059C27.2791 67.4791 26.797 66.8991 26.315 66.3533C25.8329 65.8074 25.3675 65.2616 24.8854 64.7499C24.42 64.2381 23.9379 63.7264 23.4725 63.2488C22.0928 61.8331 20.7464 60.5708 19.4665 59.5132C18.1865 58.4557 16.9565 57.5857 15.8428 56.9376C14.729 56.2894 13.7151 55.8629 12.8673 55.6924C12.0029 55.5218 11.2882 55.6071 10.7729 55.9994C10.0747 56.5282 9.77551 57.5175 9.85862 58.8821C9.94174 60.2467 10.3739 61.9695 11.1552 63.9311C11.9364 65.9098 13.0335 68.1272 14.4132 70.4641C15.7929 72.818 17.4551 75.2914 19.3501 77.7647C19.6493 78.14 19.9319 78.5323 20.2311 78.8905C20.5303 79.2658 20.8129 79.624 21.1121 79.9822C21.4113 80.3404 21.6939 80.6986 21.9931 81.0397C22.2923 81.3809 22.5915 81.722 22.8741 82.0632C23.1567 82.3873 23.4393 82.6943 23.7218 83.0013C25.7332 80.818 27.0297 77.9694 27.6448 74.6261" fill="#F2C335"/>
<path d="M20.5304 0V21.083" stroke="#F2B705" stroke-miterlimit="10"/>
<path d="M34.111 26.6267V47.7097" stroke="#F2B705" stroke-miterlimit="10"/>
</svg>
