<svg width="1140" height="1033" viewBox="0 0 1140 1033" fill="none" xmlns="http://www.w3.org/2000/svg">
<path opacity="0.24" d="M522.683 1032.42C234.245 1032.42 0.419434 980.579 0.419434 916.626C0.419434 852.673 234.245 800.828 522.683 800.828C811.121 800.828 1044.95 852.673 1044.95 916.626C1044.95 980.579 811.121 1032.42 522.683 1032.42Z" fill="#840D07"/>
<path d="M435.751 721.281H589.477C591.49 721.281 593.504 722.959 593.84 724.973L616.999 847.483C617.671 850.168 615.321 852.853 612.636 852.853H415.277C412.592 852.853 410.242 850.504 410.913 847.483L431.388 724.973C431.723 722.959 433.737 721.281 435.751 721.281Z" fill="#DCEDF4"/>
<path opacity="0.9" d="M420.982 791.095L432.059 724.973C432.394 722.959 434.408 721.281 436.422 721.281H590.147C592.161 721.281 594.175 722.959 594.511 724.973L607.265 791.766C545.171 791.766 483.077 791.43 420.982 791.095Z" fill="#DCEDF4"/>
<path d="M149.447 760.215H878.803C893.236 760.215 904.647 748.468 904.647 734.37V220.834C904.647 206.401 892.9 194.989 878.803 194.989H149.447C135.014 194.989 123.602 206.737 123.602 220.834V734.37C123.602 748.468 135.014 760.215 149.447 760.215Z" fill="#1B193F"/>
<path d="M904.647 678.319V736.05C904.647 749.476 893.906 760.216 880.48 760.216H147.768C134.342 760.216 123.601 749.476 123.601 736.05V678.319H904.647Z" fill="#DCEDF4"/>
<path d="M148.774 225.87H879.473V647.104H148.774V225.87Z" fill="url(#paint0_linear)"/>
<path opacity="0.56" d="M186 268H343.208V360.003H186V268Z" fill="#A7DDFF"/>
<path d="M699.761 488.234C699.761 481.186 701.44 474.809 704.125 468.767L691.706 462.725C695.398 455.006 701.104 447.957 707.817 442.587L716.544 453.327C721.578 449.3 727.62 446.279 734.333 444.936L731.312 431.51C739.703 429.497 748.766 429.497 757.157 431.51L754.136 444.936C760.849 446.614 766.89 449.3 771.925 453.663L780.652 442.922C787.365 448.293 793.071 455.341 796.763 463.061L784.344 469.103C787.029 474.809 788.707 481.521 788.707 488.234H802.469C802.469 496.961 800.455 505.688 796.763 513.408L784.344 507.366C781.323 513.408 777.295 518.778 771.925 522.806L780.652 533.546C773.939 538.917 765.883 542.944 757.157 544.623L754.136 531.197C751.115 531.868 747.759 532.204 744.402 532.204C741.046 532.204 737.689 531.868 734.333 531.197L731.312 544.623C722.921 542.609 714.865 538.917 707.817 533.211L716.544 522.47C711.509 518.442 707.146 513.072 704.125 507.03L691.706 513.072C688.014 505.017 686 496.625 686 487.899V487.563L699.761 488.234ZM744.402 512.065C757.492 512.065 768.233 501.325 768.233 488.234C768.233 475.144 757.492 464.404 744.402 464.404C731.312 464.404 720.571 475.144 720.571 488.234C720.571 501.66 731.312 512.065 744.402 512.065Z" fill="#DFEFF5"/>
<path d="M642.719 586.711C639.027 583.019 636.342 578.656 634.999 573.957L625.266 577.313C623.252 571.272 622.58 564.559 623.252 557.846L633.657 559.188C634.328 554.154 636.006 549.455 638.691 545.091L629.965 539.385C633.321 534.015 638.356 528.98 643.726 525.624L649.096 534.351C653.46 531.666 658.159 529.987 663.193 529.652L662.186 519.247C668.564 518.575 675.277 519.247 681.654 521.596L678.297 531.33C682.996 533.008 687.024 535.693 690.716 539.05L698.1 531.666C702.799 536.365 706.156 542.071 708.505 548.112L698.772 551.469C700.45 556.168 701.121 561.202 700.45 566.237L710.855 567.244C710.184 573.621 707.834 579.998 704.478 585.704L695.751 579.998C694.408 582.012 693.066 584.026 691.052 585.704C689.374 587.383 687.36 589.061 685.01 590.403L690.381 599.13C685.01 602.487 678.633 604.836 671.92 605.507L670.913 595.102C665.879 595.774 660.844 595.102 656.145 593.424L652.788 603.158C646.411 601.144 641.041 597.452 636.342 592.753L642.719 586.711ZM678.969 575.635C686.017 568.587 686.017 557.51 678.969 550.462C671.92 543.413 660.844 543.413 653.795 550.462C646.747 557.51 646.747 568.587 653.795 575.635C660.844 582.348 671.92 582.348 678.969 575.635Z" fill="#DFEFF5"/>
<path opacity="0.56" d="M208 513.124H339.237V609.79H208V513.124Z" fill="#A7DDFF"/>
<path d="M228.138 495H359.375V591.666H228.138V495Z" fill="#A7DDFF"/>
<path d="M668.678 374.022H799.915C800.922 374.022 801.593 373.351 801.593 372.344V275.678C801.593 274.671 800.922 274 799.915 274H668.678C667.671 274 667 274.671 667 275.678V372.344C667 373.351 668.007 374.022 668.678 374.022ZM798.237 371.001H670.356V277.356H798.237V371.001Z" fill="#C3E8FF"/>
<path d="M328.161 541.319C334.203 541.319 339.237 536.284 339.237 530.242C339.237 524.201 334.203 519.166 328.161 519.166C322.119 519.166 317.085 524.201 317.085 530.242C317.085 536.284 322.119 541.319 328.161 541.319ZM328.161 523.865C331.853 523.865 334.538 526.886 334.538 530.242C334.538 533.934 331.517 536.62 328.161 536.62C324.469 536.62 321.784 533.599 321.784 530.242C321.784 526.886 324.805 523.865 328.161 523.865Z" fill="#DBF1FF"/>
<path d="M336.888 576.561C337.559 576.561 338.23 576.226 338.566 575.89C339.573 574.883 339.573 573.54 338.566 572.534L302.652 537.626C301.981 536.955 300.638 536.62 299.631 537.291L264.724 561.793L245.257 537.291C244.586 536.284 242.907 535.948 241.9 536.955C240.894 537.626 240.558 539.305 241.565 540.312L262.375 566.492C263.046 567.499 264.389 567.499 265.396 566.828L300.303 542.325L334.874 575.89C335.881 576.561 336.552 576.561 336.888 576.561Z" fill="#DBF1FF"/>
<path opacity="0.1" d="M351.168 194.654H443.806L813.351 760.216H714.672L351.168 194.654Z" fill="#A7DDFF"/>
<path opacity="0.1" d="M123.601 266.818V218.821C123.601 205.395 134.342 194.654 147.768 194.654H199.457L597.867 760.216H463.945L123.601 266.818Z" fill="#A7DDFF"/>
<path d="M204.312 287.204H362.19V379.43H204.312V287.204Z" fill="#A7DDFF"/>
<path d="M270.187 314.002H345.219C346.112 314.002 346.782 313.332 346.782 312.439C346.782 311.545 346.112 310.875 345.219 310.875H270.187C269.294 310.875 268.624 311.545 268.624 312.439C268.624 313.332 269.294 314.002 270.187 314.002Z" fill="#DBF1FF"/>
<path d="M706.563 302.126H781.595C782.488 302.126 783.158 301.456 783.158 300.563C783.158 299.67 782.488 299 781.595 299H706.563C705.67 299 705 299.67 705 300.563C705 301.456 705.67 302.126 706.563 302.126Z" fill="#DBF1FF"/>
<path d="M292.741 332.983H345.219C346.112 332.983 346.782 332.313 346.782 331.42C346.782 330.526 346.112 329.857 345.219 329.857H292.741C291.848 329.857 291.178 330.526 291.178 331.42C291.401 332.313 292.071 332.983 292.741 332.983Z" fill="#DBF1FF"/>
<path d="M729.117 321.108H781.595C782.488 321.108 783.158 320.438 783.158 319.544C783.158 318.651 782.488 317.981 781.595 317.981H729.117C728.224 317.981 727.554 318.651 727.554 319.544C727.777 320.438 728.447 321.108 729.117 321.108Z" fill="#DBF1FF"/>
<path d="M305.247 352.187H345.219C346.112 352.187 346.782 351.517 346.782 350.624C346.782 349.73 346.112 349.06 345.219 349.06H305.247C304.353 349.06 303.683 349.73 303.683 350.624C303.683 351.517 304.577 352.187 305.247 352.187Z" fill="#DBF1FF"/>
<path d="M660.632 548.759C663.317 548.424 665.667 550.102 666.002 552.787L675.4 624.279H753.27L743.872 554.13C743.536 551.444 745.215 549.095 747.9 548.759C750.585 548.424 752.934 550.102 753.27 552.787L811.001 990.468C811.337 993.153 809.658 995.503 806.973 995.838C806.637 995.838 806.637 995.838 806.302 995.838C803.952 995.838 801.938 994.16 801.603 991.81L793.883 933.408H716.013L723.398 990.468C723.733 993.153 722.055 995.503 719.37 995.838C719.034 995.838 719.034 995.838 718.699 995.838C716.349 995.838 714.335 994.16 714 991.81L656.269 554.13C656.269 551.444 657.947 549.095 660.632 548.759ZM676.407 633.342L685.134 698.793H763.004L754.277 633.342H676.407ZM695.203 773.977H773.073L764.346 708.526H686.477L695.203 773.977ZM704.937 848.826H782.807L774.08 783.375H696.21L704.937 848.826ZM792.876 923.675L784.149 858.224H706.28L715.006 923.675H792.876Z" fill="#323052"/>
<path d="M501.538 -97.6924H506.237V276.216H501.538V-97.6924Z" fill="#DCEDF4"/>
<path d="M499.525 294.676H508.251C512.615 294.676 515.971 291.32 515.971 286.956V271.852C515.971 267.489 512.615 264.133 508.251 264.133H499.525C495.161 264.133 491.805 267.489 491.805 271.852V286.956C491.805 291.32 495.161 294.676 499.525 294.676Z" fill="#FF7F16"/>
<path opacity="0.3" d="M494.154 265.811C501.538 272.524 508.587 278.901 515.971 285.278V287.292C515.971 291.32 512.615 294.677 508.587 294.677H498.853C494.826 294.677 491.469 291.32 491.469 287.292V271.181C491.805 269.168 492.812 267.154 494.154 265.811Z" fill="#FF7F16"/>
<path d="M186.366 832.715H307.869C310.219 832.715 312.232 833.722 313.575 835.736L343.447 879.705C346.468 884.404 343.112 890.446 337.741 890.446H156.829C151.459 890.446 148.102 884.404 151.123 879.705L180.995 835.736C181.667 833.722 184.016 832.715 186.366 832.715Z" fill="#FF7F16"/>
<path opacity="0.35" d="M186.366 832.715H307.869C310.219 832.715 312.232 833.722 313.575 835.736L343.447 879.705C346.468 884.404 343.112 890.446 337.741 890.446H156.829C151.459 890.446 148.102 884.404 151.123 879.705L180.995 835.736C181.667 833.722 184.016 832.715 186.366 832.715Z" fill="#FF7F16"/>
<path d="M230.334 726.986H263.563L302.498 859.902C302.498 859.902 281.688 872.321 246.781 872.321C211.538 872.321 191.064 859.902 191.064 859.902L230.334 726.986Z" fill="#FF9E4E"/>
<path d="M284.374 798.479L291.423 822.645C265.578 832.043 228.322 832.043 202.813 819.289L209.861 795.123C234.363 803.514 259.872 804.856 284.374 798.479Z" fill="#E8F3F8"/>
<path opacity="0.23" d="M246.445 726.986H263.563L302.498 859.902C302.498 859.902 281.688 872.321 246.781 872.321C241.411 872.321 236.376 871.985 231.677 871.649C237.383 823.316 243.76 775.319 246.445 726.986Z" fill="#FF9E4E"/>
<path opacity="0.8" d="M227.649 774.984C224.964 786.06 222.279 796.801 219.258 807.877C218.251 811.233 213.216 809.555 214.223 806.534C217.244 795.794 220.265 784.717 222.614 773.641C223.621 770.285 228.656 771.627 227.649 774.984Z" fill="#FFCEA6"/>
<path opacity="0.8" d="M224.965 765.249C225.637 762.564 225.972 759.879 226.644 757.194C227.315 753.838 232.35 755.18 231.678 758.537C231.007 761.222 230.671 763.907 230 766.592C229.329 769.613 224.294 768.27 224.965 765.249Z" fill="#FFCEA6"/>
<path d="M230.334 726.987C230.334 729.336 237.718 731.014 246.78 731.014C255.843 731.014 263.227 729 263.227 726.987C263.227 724.637 255.843 722.959 246.78 722.959C237.718 722.623 230.334 724.637 230.334 726.987Z" fill="#FF7F16"/>
<path opacity="0.52" d="M238.726 726.651C238.726 727.658 242.418 728.665 246.781 728.665C251.145 728.665 254.837 727.658 254.837 726.651C254.837 725.644 251.145 724.637 246.781 724.637C242.418 724.637 238.726 725.644 238.726 726.651Z" fill="#FF7F16"/>
<path opacity="0.55" d="M201.805 884.069C195.092 884.069 188.379 884.069 181.331 883.733C177.974 883.397 177.974 878.363 181.331 878.698C188.043 879.034 194.756 879.37 201.805 879.034C205.161 878.698 205.161 884.069 201.805 884.069Z" fill="#FFCEA6"/>
<path opacity="0.55" d="M171.597 884.068C169.583 884.068 167.569 884.068 165.22 884.068C161.863 884.068 161.863 879.034 165.22 879.034C167.234 879.034 169.247 879.034 171.597 879.034C174.953 879.034 174.953 884.068 171.597 884.068Z" fill="#FFCEA6"/>
<path d="M484.756 931.729H606.259C608.609 931.729 610.622 932.736 611.965 934.75L641.837 978.719C644.858 983.418 641.502 989.46 636.131 989.46H455.219C449.849 989.46 446.492 983.418 449.513 978.719L479.385 934.75C480.392 933.071 482.742 931.729 484.756 931.729Z" fill="#FF7F16"/>
<path opacity="0.35" d="M484.756 931.729H606.259C608.609 931.729 610.622 932.736 611.965 934.75L641.837 978.719C644.858 983.418 641.502 989.46 636.131 989.46H455.219C449.849 989.46 446.492 983.418 449.513 978.719L479.385 934.75C480.392 933.071 482.742 931.729 484.756 931.729Z" fill="#FF7F16"/>
<path d="M529.061 826.001H562.29L601.561 958.917C601.561 958.917 580.751 971.335 545.844 971.335C510.601 971.335 490.126 958.917 490.126 958.917L529.061 826.001Z" fill="#FF9E4E"/>
<path d="M583.099 897.83L590.147 921.996C564.303 931.394 527.046 931.394 501.537 918.64L508.586 894.473C533.088 902.864 558.597 904.207 583.099 897.83Z" fill="#E8F3F8"/>
<path opacity="0.23" d="M545.172 826.001H562.29L601.561 958.917C601.561 958.917 580.751 971.335 545.844 971.335C540.473 971.335 535.439 971 530.74 970.664C536.11 922.667 542.487 874.67 545.172 826.001Z" fill="#FF9E4E"/>
<path opacity="0.8" d="M526.376 873.999C523.69 885.075 521.005 895.815 517.984 906.892C516.977 910.248 511.943 908.57 512.95 905.549C515.971 894.808 518.991 883.732 521.341 872.656C522.012 869.635 527.047 870.978 526.376 873.999Z" fill="#FFCEA6"/>
<path opacity="0.8" d="M523.691 864.264C524.362 861.579 524.698 858.894 525.369 856.209C526.04 852.852 531.075 854.195 530.404 857.551C529.733 860.237 529.397 862.922 528.726 865.607C528.054 868.963 523.02 867.621 523.691 864.264Z" fill="#FFCEA6"/>
<path d="M529.06 826.001C529.06 828.351 536.445 830.029 545.507 830.029C554.569 830.029 561.954 828.015 561.954 826.001C561.954 823.652 554.569 821.973 545.507 821.973C536.445 821.973 529.06 823.987 529.06 826.001Z" fill="#FF7F16"/>
<path opacity="0.52" d="M537.452 826.001C537.452 827.008 541.144 828.015 545.507 828.015C549.87 828.015 553.562 827.008 553.562 826.001C553.562 824.995 549.87 823.988 545.507 823.988C541.144 823.988 537.452 824.995 537.452 826.001Z" fill="#FF7F16"/>
<path opacity="0.55" d="M500.531 983.083C493.818 983.083 487.105 983.083 480.056 982.748C476.7 982.412 476.7 977.377 480.056 977.713C486.769 978.048 493.482 978.384 500.531 978.048C503.887 978.048 503.887 983.083 500.531 983.083Z" fill="#FFCEA6"/>
<path opacity="0.55" d="M470.323 983.418C468.31 983.418 466.296 983.418 463.946 983.418C460.59 983.418 460.59 978.384 463.946 978.384C465.96 978.384 467.974 978.384 470.323 978.384C473.68 978.048 473.68 983.418 470.323 983.418Z" fill="#FFCEA6"/>
<path d="M859.672 932.737C857.323 936.093 839.533 934.079 838.191 938.442C836.513 942.806 862.693 945.155 866.049 940.792C868.063 938.442 867.392 935.086 869.741 930.723C871.084 927.702 864.035 926.024 859.672 932.737Z" fill="#1B193F"/>
<path d="M946.939 939.45C947.946 943.142 965.735 946.498 966.07 951.197C966.406 955.896 940.897 950.526 938.883 945.491C937.876 942.806 939.219 939.785 938.212 934.751C937.205 931.058 944.589 931.73 946.939 939.45Z" fill="#1B193F"/>
<path d="M958.016 798.478C960.03 805.863 966.072 874.334 948.618 935.757C947.611 939.785 936.199 938.107 936.199 935.757C936.199 933.408 930.829 846.476 917.739 842.112C904.649 837.749 872.427 932.736 869.742 935.086C867.057 937.771 857.994 933.408 857.994 930.722C857.994 928.037 862.693 855.538 886.86 789.416C888.538 784.717 956.002 791.094 958.016 798.478Z" fill="#242048"/>
<path d="M935.864 791.43C947.611 793.444 957.009 795.794 957.68 798.479C959.694 805.863 965.736 874.334 948.282 935.757C947.947 936.764 947.275 937.1 946.268 937.436C950.968 891.452 944.59 836.407 935.864 791.43Z" fill="#201B44"/>
<path d="M886.188 833.722C883.167 844.798 880.146 855.874 877.461 866.951C876.79 869.971 872.091 868.629 873.098 865.608C876.118 854.532 879.139 843.455 881.824 832.379C882.496 829.694 887.195 831.037 886.188 833.722Z" fill="#A59BCD"/>
<path d="M875.112 873.328C874.776 876.349 874.105 879.37 872.762 882.391C872.091 883.397 870.413 883.733 869.406 883.397C868.063 882.726 868.063 881.384 868.399 880.041C869.406 878.027 869.741 875.678 870.077 873.328C870.748 870.307 875.447 870.307 875.112 873.328Z" fill="#A59BCD"/>
<path d="M988.56 652.473C988.224 669.256 970.099 690.066 955.331 691.073C935.192 692.751 924.787 647.103 937.206 627.971C949.289 608.84 988.56 634.013 988.56 652.473Z" fill="#19143E"/>
<path d="M968.421 666.906C968.421 666.906 973.791 669.927 971.778 675.633C969.428 681.339 962.044 678.654 962.044 678.654C962.044 678.654 947.947 690.066 950.632 706.177C953.653 722.288 920.424 712.218 923.109 706.848C925.794 701.142 929.486 693.086 928.479 690.401C927.473 687.045 918.074 679.996 918.074 671.269C917.739 662.543 927.137 636.698 931.836 634.013C934.857 631.999 948.618 630.992 956.674 634.684C964.393 638.041 973.456 651.131 968.421 666.906Z" fill="#543011"/>
<path opacity="0.32" d="M927.136 696.778C935.192 696.778 943.583 695.771 951.638 693.757C950.296 697.449 949.624 701.813 950.631 706.512C953.652 722.622 920.423 712.553 923.108 707.183C924.451 703.826 926.129 700.134 927.136 696.778Z" fill="#543011"/>
<path d="M988.56 663.214C994.601 653.816 995.944 628.978 979.833 618.238C954.324 601.456 933.178 622.601 931.164 626.629C929.486 629.985 986.881 665.899 988.56 663.214Z" fill="#FF7F16"/>
<path opacity="0.35" d="M988.56 663.214C994.601 653.816 995.944 628.978 979.833 618.238C954.324 601.456 933.178 622.601 931.164 626.629C929.486 629.985 986.881 665.899 988.56 663.214Z" fill="#FF7F16"/>
<path opacity="0.35" d="M939.556 618.909C955.667 626.965 972.785 631.664 990.574 632.335C994.937 643.747 992.923 657.173 988.56 663.55C986.882 666.235 929.486 629.986 931.165 626.965C931.836 625.287 934.857 621.93 939.556 618.909Z" fill="#FF7F16"/>
<path d="M991.579 660.193C992.586 662.542 987.887 670.934 985.538 670.934C982.853 670.934 926.8 636.698 925.457 634.013C924.115 631.327 929.485 619.915 933.513 621.258C937.205 622.265 990.572 657.508 991.579 660.193Z" fill="#FF7F16"/>
<path opacity="0.14" d="M991.58 662.543C990.909 665.899 987.552 670.934 985.539 670.934C982.853 670.934 926.801 636.698 925.458 634.013C924.787 632.671 925.458 629.985 926.801 627.3C945.597 643.076 968.421 654.823 991.58 662.543Z" fill="#FF7F16"/>
<path opacity="0.67" d="M985.537 628.643C983.523 631.664 980.838 634.013 977.817 635.691C975.468 637.37 973.118 633.342 975.468 631.999C977.817 630.657 979.831 628.643 981.509 626.293C983.188 624.28 987.215 626.629 985.537 628.643Z" fill="#FFE5D0"/>
<path opacity="0.67" d="M975.469 622.936C973.455 624.279 972.112 626.293 971.105 628.307C970.77 629.314 969.091 629.649 968.085 628.978C967.078 628.307 966.742 626.964 967.413 625.957C968.756 622.936 970.77 620.923 973.119 618.909C974.126 618.237 975.469 618.909 976.14 619.58C976.811 620.922 976.476 622.265 975.469 622.936Z" fill="#FFE5D0"/>
<path opacity="0.67" d="M965.4 617.902C963.721 619.58 963.386 622.265 963.05 624.615C962.714 627.3 958.351 627.3 958.687 624.615C959.022 620.923 959.694 617.566 962.043 614.881C964.393 612.867 967.413 615.888 965.4 617.902Z" fill="#FFE5D0"/>
<path d="M1032.19 643.747C1035.89 639.048 1033.87 626.294 1028.17 625.287C1022.46 624.28 1020.45 634.013 1020.45 640.055C1020.45 646.432 1029.84 646.768 1032.19 643.747Z" fill="#FABE8C"/>
<path d="M925.123 701.142C918.746 701.142 873.434 718.931 869.742 730.007C866.05 741.084 886.86 782.368 891.559 787.067C896.258 791.766 899.95 781.025 899.95 776.998C899.95 772.97 893.572 750.817 894.915 742.762C896.258 734.707 913.375 737.056 913.375 737.056L925.123 701.142Z" fill="#FFE33C"/>
<path d="M949.625 705.841C946.268 708.19 930.829 711.211 925.123 701.142C924.116 699.463 908.34 714.232 902.634 731.685C896.928 749.474 883.503 787.738 885.181 792.773C886.859 797.807 900.956 803.513 918.745 805.863C936.534 808.212 960.03 804.184 960.03 801.499C960.03 798.479 958.687 750.481 962.044 744.104C965.4 737.727 994.601 728.329 1013.73 699.128C1033.2 669.927 1034.88 647.103 1034.88 644.418C1034.88 642.068 1017.09 637.033 1017.09 641.061C1017.09 645.424 1013.73 667.577 993.594 689.058C972.448 711.882 951.974 704.162 949.625 705.841Z" fill="#FFE33C"/>
<path opacity="0.62" d="M947.275 731.35C962.379 712.554 985.538 702.82 1001.99 685.366C1014.4 672.612 1023.13 657.508 1028.84 641.061C1032.19 642.068 1035.21 643.411 1035.21 644.418C1035.21 646.767 1033.2 669.927 1014.07 699.128C994.936 728.329 965.735 737.727 962.379 744.104C959.022 750.481 960.365 798.479 960.365 801.499C960.365 804.185 940.562 807.877 923.444 806.534C924.787 779.011 930.157 752.495 947.275 731.35Z" fill="#FFE33C"/>
<path opacity="0.85" d="M906.998 750.482C905.32 756.523 903.641 762.565 901.292 768.606C900.285 771.292 895.922 769.949 896.929 767.599C899.278 761.558 900.956 755.516 902.635 749.475C903.306 746.454 907.669 747.796 906.998 750.482Z" fill="#FFF9D8"/>
<path opacity="0.85" d="M899.278 775.655C898.942 776.997 898.271 778.004 897.935 779.347C896.928 782.032 892.565 780.689 893.572 778.34C893.907 776.997 894.579 775.99 894.914 774.648C895.921 771.627 899.949 772.969 899.278 775.655Z" fill="#FFF9D8"/>
<path opacity="0.85" d="M898.27 722.624C894.578 723.966 891.222 725.98 887.865 727.994C885.516 729.672 883.166 725.645 885.516 724.302C889.208 721.953 892.9 719.939 896.928 718.596C899.613 717.253 900.62 721.617 898.27 722.624Z" fill="#FFF9D8"/>
<path opacity="0.85" d="M883.166 730.343C882.159 732.021 881.152 733.364 880.146 735.042C878.467 737.392 874.775 735.042 876.453 732.693C877.46 731.015 878.467 729.672 879.474 727.994C881.153 725.644 884.845 727.994 883.166 730.343Z" fill="#FFF9D8"/>
<path opacity="0.85" d="M932.172 646.096C930.158 650.46 928.48 654.488 927.137 659.187C926.802 660.529 924.452 659.858 924.788 658.515C926.13 653.816 928.144 649.453 930.158 645.09C930.829 643.747 932.843 644.754 932.172 646.096Z" fill="#FCD4B3"/>
<path opacity="0.85" d="M925.458 663.214C925.123 664.221 924.787 664.892 924.787 665.899C924.451 667.242 922.102 666.906 922.437 665.228C922.773 663.885 923.109 662.878 923.444 661.872C924.116 660.529 926.129 661.872 925.458 663.214Z" fill="#FCD4B3"/>
<path d="M270.277 87.2479C258.529 85.9054 252.152 67.1093 254.166 52.3409C255.844 37.9082 264.235 23.8111 285.716 27.8388C307.198 31.8665 307.533 35.223 309.547 45.9636C310.89 56.7043 276.99 88.2549 270.277 87.2479Z" fill="#19143E"/>
<path d="M310.22 47.977C312.234 53.0117 311.227 74.8286 304.85 82.2128C298.472 89.597 290.752 83.891 291.759 91.9465C293.438 110.071 294.78 109.4 280.348 107.386C265.915 105.708 265.244 98.3237 265.579 95.3029C265.915 92.2821 269.607 77.1781 268.264 75.4999C266.922 73.8217 261.551 72.4791 262.223 66.4375C263.23 60.3959 269.607 63.4167 269.607 61.4028C269.607 59.3889 271.621 41.5998 285.047 40.5928C298.472 39.5859 307.535 41.2641 310.22 47.977Z" fill="#FABE8C"/>
<path opacity="0.28" d="M267.256 84.2268C274.976 88.9258 283.032 92.6179 291.758 94.9674C293.437 110.071 293.437 109.065 280.011 107.386C265.578 105.708 264.907 98.3239 265.242 95.3031C265.578 93.6248 266.585 88.5902 267.256 84.2268Z" fill="#FABE8C"/>
<path d="M293.437 297.361C293.101 301.725 309.883 311.794 308.205 316.829C306.527 321.863 282.696 306.424 282.361 300.382C282.361 297.026 285.046 294.676 286.053 289.306C287.06 284.942 294.108 288.299 293.437 297.361Z" fill="#19143E"/>
<path d="M273.299 260.44C269.942 262.454 270.949 279.572 266.586 280.915C262.223 282.257 261.551 257.084 265.915 254.063C268.264 252.385 271.285 253.056 275.984 251.042C279.005 249.364 280.347 256.413 273.299 260.44Z" fill="#19143E"/>
<path d="M328.344 163.438C334.05 166.795 358.217 201.031 351.168 225.868C341.435 260.775 294.444 265.81 275.648 263.796C272.963 263.461 272.292 252.384 273.97 249.028C275.648 245.671 316.597 246.343 313.912 221.169C310.891 195.66 288.738 181.563 291.759 177.2C294.78 172.501 324.317 161.089 328.344 163.438Z" fill="#242048"/>
<path opacity="0.37" d="M328.344 163.438C334.05 166.795 358.217 201.031 351.168 225.868C341.435 260.775 294.444 265.81 275.648 263.796C272.963 263.461 272.292 252.384 273.97 249.028C275.648 245.671 316.597 246.343 313.912 221.169C310.891 195.66 288.738 181.563 291.759 177.2C294.78 172.501 324.317 161.089 328.344 163.438Z" fill="#242048"/>
<path d="M302.164 170.823C307.535 175.186 325.995 199.688 330.358 234.26C334.722 269.167 298.808 296.69 296.458 299.039C294.109 301.389 284.375 294.005 282.697 292.326C281.019 290.648 304.178 256.748 298.472 239.295C291.088 217.142 265.243 219.491 256.181 209.422C247.118 199.688 249.804 180.557 251.818 177.2C254.503 172.166 296.458 166.124 302.164 170.823Z" fill="#242048"/>
<path d="M293.438 96.9817C295.787 97.653 308.542 105.708 312.905 121.819C316.597 134.91 322.303 155.384 328.009 166.125C332.708 174.851 254.503 188.948 250.14 181.564C246.783 175.858 248.126 142.294 249.804 126.183C251.147 110.072 255.846 96.6461 264.572 94.6322C266.922 94.2966 273.635 101.681 282.026 101.681C288.403 102.016 292.095 96.6461 293.438 96.9817Z" fill="#FFE442"/>
<path opacity="0.62" d="M251.482 117.121C262.894 122.491 267.928 130.211 274.306 141.958C278.669 150.349 283.704 158.069 289.41 165.453C293.102 169.817 297.129 174.18 301.157 178.208C279.676 182.907 252.489 185.928 250.139 181.9C246.783 176.194 248.125 142.63 249.804 126.519C250.139 123.162 250.475 120.141 251.482 117.121Z" fill="#FFE33C"/>
<path d="M314.582 157.398L345.126 174.851L292.094 206.066L264.236 189.955C262.893 189.284 262.893 187.606 264.236 186.599L314.582 157.398Z" fill="#DCEDF4"/>
<path d="M314.582 157.398L345.126 174.851L292.094 206.066L264.236 189.955C262.893 189.284 262.893 187.606 264.236 186.599L314.582 157.398Z" fill="#DCEDF4"/>
<path d="M255.509 99.6669C261.215 95.9748 266.921 104.366 266.921 109.401C266.921 120.477 263.229 145.986 271.956 158.74C280.347 171.159 293.101 183.914 296.122 186.599C299.479 189.955 298.472 200.36 293.773 200.36C288.738 200.36 256.852 180.222 247.789 159.412C238.727 138.937 249.132 103.695 255.509 99.6669Z" fill="#FFE54C"/>
<path d="M348.148 173.844V121.483C348.148 120.141 346.806 119.47 345.799 120.141L293.438 151.02C293.103 151.356 292.767 151.691 292.767 152.363V206.401L348.148 173.844Z" fill="#E5F2F7"/>
<path opacity="0.85" d="M304.85 130.21C303.508 125.846 302.836 121.483 301.829 117.12C301.494 114.434 305.521 113.092 306.193 116.113C306.864 120.476 307.871 124.839 309.214 129.203C309.885 131.552 305.857 132.895 304.85 130.21Z" fill="#FFF9D8"/>
<path opacity="0.85" d="M254.167 130.546C253.496 136.587 252.825 142.629 255.51 148.335C256.517 151.02 252.825 153.034 251.818 150.684C248.797 144.307 249.133 137.594 249.804 130.881C250.139 127.861 254.503 127.525 254.167 130.546Z" fill="#FFF9D8"/>
<path opacity="0.85" d="M258.194 156.055C259.201 157.733 259.872 159.747 260.879 161.425C262.222 164.111 258.53 166.124 257.187 163.775C256.18 162.097 255.509 160.083 254.502 158.405C252.824 155.719 256.851 153.37 258.194 156.055Z" fill="#FFF9D8"/>
<path opacity="0.85" d="M307.535 66.438C307.199 69.1232 306.528 71.4727 305.185 74.1579C304.514 75.5005 302.5 74.4935 303.171 72.8153C304.178 70.8014 304.849 68.7875 305.185 66.438C305.521 65.0955 307.87 64.7598 307.535 66.438Z" fill="#FCD4B3"/>
<path opacity="0.85" d="M305.857 61.4034C306.192 61.0678 306.192 60.3965 305.857 60.0608C305.521 58.7182 307.871 58.047 308.206 59.3895C308.542 60.3965 308.542 61.4034 307.871 62.746C307.535 64.0886 305.521 62.746 305.857 61.4034Z" fill="#FCD4B3"/>
<path d="M565 409V395.898H444V516.127H538.796L565 489.923V422.102H497.529M477.911 382.796C489.471 356.592 522.611 358.904 532.631 382.796" stroke="white" stroke-width="6.1656"/>
<rect x="462.801" y="417.72" width="8.05785" height="8.05785" fill="white"/>
<rect x="462.801" y="425.778" width="8.05785" height="8.05785" fill="white"/>
<rect x="470.861" y="417.72" width="8.05785" height="8.05785" fill="white"/>
<rect x="470.861" y="425.778" width="8.05785" height="8.05785" fill="white"/>
<rect x="462.801" y="455.323" width="72.5206" height="8.05785" fill="white"/>
<rect x="462.801" y="476.81" width="64.4628" height="8.05785" fill="white"/>
<path d="M491.434 342.046C488.413 346.074 486.399 351.779 488.413 357.485C489.302 359.856 490.714 361.899 492.562 363.5C490.061 364.685 488.742 365.42 486.607 366.905C484.748 364.917 483.312 362.541 482.371 359.835C479.351 352.115 481.7 346.073 485.728 340.703C485.728 340.703 488.077 336.34 490.762 337.682C493.448 338.689 492.105 341.039 491.434 342.046Z" fill="#DCEDF4"/>
<path d="M524.327 364.198C519.628 369.904 512.579 373.261 504.524 373.261C503.517 373.261 502.174 373.261 500.832 373.596C497.463 373.222 494.418 372.291 491.785 370.872C495.205 368.846 497.413 368.015 502.076 367.265C509.217 367.767 515.369 365.41 519.292 360.506C522.984 355.807 523.991 349.43 521.977 343.388C518.957 333.655 512.915 328.62 508.216 324.257C504.188 320.564 500.832 317.544 500.832 313.18V287H507.209V313.18C507.209 314.859 509.894 316.872 512.579 319.558C517.614 324.257 524.327 330.298 528.019 341.374C531.04 349.43 529.362 357.821 524.327 364.198Z" fill="#DCEDF4"/>
<path d="M288 63.5C284.39 64.6595 282.408 64.8156 279 63.5H288Z" stroke="black"/>
<path d="M295 63C298.205 63.4115 299.541 62.8944 301.5 61.5L295 63Z" stroke="black"/>
<path d="M281 15.5L218.5 55.5C270.27 57.3049 298.881 55.9116 349.5 49.5L281 15.5Z" fill="#FF7F16"/>
<defs>
<linearGradient id="paint0_linear" x1="1057.79" y1="853.445" x2="182.749" y2="182.486" gradientUnits="userSpaceOnUse">
<stop offset="0.00066075" stop-color="#5A43ED"/>
<stop offset="1" stop-color="#11A4FF"/>
</linearGradient>
</defs>
</svg>
