<svg width="1920" height="1375" viewBox="0 0 1920 1375" fill="none" xmlns="http://www.w3.org/2000/svg">
<path opacity="0.5" d="M1818.56 748.915C1819.54 748.915 1820.33 748.119 1820.33 747.139C1820.33 746.158 1819.54 745.363 1818.56 745.363C1817.58 745.363 1816.78 746.158 1816.78 747.139C1816.78 748.119 1817.58 748.915 1818.56 748.915Z" fill="#FFD9D9"/>
<path opacity="0.5" d="M1818.56 764.219C1819.54 764.219 1820.33 763.424 1820.33 762.443C1820.33 761.463 1819.54 760.667 1818.56 760.667C1817.58 760.667 1816.78 761.463 1816.78 762.443C1816.78 763.424 1817.58 764.219 1818.56 764.219Z" fill="#FFD9D9"/>
<path opacity="0.5" d="M1818.56 779.526C1819.54 779.526 1820.33 778.73 1820.33 777.75C1820.33 776.769 1819.54 775.974 1818.56 775.974C1817.58 775.974 1816.78 776.769 1816.78 777.75C1816.78 778.73 1817.58 779.526 1818.56 779.526Z" fill="#FFD9D9"/>
<path opacity="0.5" d="M1818.56 794.831C1819.54 794.831 1820.33 794.035 1820.33 793.055C1820.33 792.074 1819.54 791.279 1818.56 791.279C1817.58 791.279 1816.78 792.074 1816.78 793.055C1816.78 794.035 1817.58 794.831 1818.56 794.831Z" fill="#FFD9D9"/>
<path opacity="0.5" d="M1818.56 810.136C1819.54 810.136 1820.33 809.341 1820.33 808.36C1820.33 807.38 1819.54 806.584 1818.56 806.584C1817.58 806.584 1816.78 807.38 1816.78 808.36C1816.78 809.341 1817.58 810.136 1818.56 810.136Z" fill="#FFD9D9"/>
<path opacity="0.5" d="M1818.56 825.442C1819.54 825.442 1820.33 824.647 1820.33 823.666C1820.33 822.685 1819.54 821.89 1818.56 821.89C1817.58 821.89 1816.78 822.685 1816.78 823.666C1816.78 824.647 1817.58 825.442 1818.56 825.442Z" fill="#FFD9D9"/>
<path opacity="0.5" d="M1818.56 840.747C1819.54 840.747 1820.33 839.951 1820.33 838.971C1820.33 837.99 1819.54 837.195 1818.56 837.195C1817.58 837.195 1816.78 837.99 1816.78 838.971C1816.78 839.951 1817.58 840.747 1818.56 840.747Z" fill="#FFD9D9"/>
<path opacity="0.5" d="M1818.56 856.052C1817.58 856.052 1816.78 855.257 1816.78 854.276C1816.78 853.295 1817.58 852.5 1818.56 852.5C1819.54 852.5 1820.33 853.295 1820.33 854.276C1820.34 855.256 1819.54 856.052 1818.56 856.052Z" fill="#FFD9D9"/>
<path opacity="0.5" d="M1803.25 748.915C1802.27 748.915 1801.48 748.12 1801.48 747.139C1801.48 746.158 1802.27 745.363 1803.25 745.363C1804.23 745.363 1805.03 746.158 1805.03 747.139C1805.03 748.12 1804.23 748.915 1803.25 748.915Z" fill="#FFD9D9"/>
<path opacity="0.5" d="M1803.25 764.22C1802.27 764.22 1801.48 763.425 1801.48 762.444C1801.48 761.463 1802.27 760.668 1803.25 760.668C1804.23 760.668 1805.03 761.463 1805.03 762.444C1805.03 763.424 1804.23 764.22 1803.25 764.22Z" fill="#FFD9D9"/>
<path opacity="0.5" d="M1803.25 779.526C1802.27 779.526 1801.48 778.731 1801.48 777.75C1801.48 776.769 1802.27 775.974 1803.25 775.974C1804.23 775.974 1805.03 776.769 1805.03 777.75C1805.03 778.731 1804.23 779.526 1803.25 779.526Z" fill="#FFD9D9"/>
<path opacity="0.5" d="M1803.25 794.831C1802.27 794.831 1801.48 794.036 1801.48 793.055C1801.48 792.074 1802.27 791.279 1803.25 791.279C1804.23 791.279 1805.03 792.074 1805.03 793.055C1805.03 794.036 1804.23 794.831 1803.25 794.831Z" fill="#FFD9D9"/>
<path opacity="0.5" d="M1803.25 810.136C1802.27 810.136 1801.48 809.341 1801.48 808.36C1801.48 807.379 1802.27 806.584 1803.25 806.584C1804.23 806.584 1805.03 807.379 1805.03 808.36C1805.03 809.34 1804.23 810.136 1803.25 810.136Z" fill="#FFD9D9"/>
<path opacity="0.5" d="M1803.25 825.442C1802.27 825.442 1801.48 824.647 1801.48 823.666C1801.48 822.685 1802.27 821.89 1803.25 821.89C1804.23 821.89 1805.03 822.685 1805.03 823.666C1805.03 824.647 1804.23 825.442 1803.25 825.442Z" fill="#FFD9D9"/>
<path opacity="0.5" d="M1803.25 840.747C1802.27 840.747 1801.48 839.952 1801.48 838.971C1801.48 837.99 1802.27 837.195 1803.25 837.195C1804.23 837.195 1805.03 837.99 1805.03 838.971C1805.03 839.952 1804.23 840.747 1803.25 840.747Z" fill="#FFD9D9"/>
<path opacity="0.5" d="M1803.25 856.052C1802.27 856.052 1801.48 855.257 1801.48 854.276C1801.48 853.295 1802.27 852.5 1803.25 852.5C1804.23 852.5 1805.03 853.295 1805.03 854.276C1805.03 855.256 1804.23 856.052 1803.25 856.052Z" fill="#FFD9D9"/>
<path opacity="0.5" d="M1787.95 748.915C1788.93 748.915 1789.72 748.119 1789.72 747.139C1789.72 746.158 1788.93 745.363 1787.95 745.363C1786.97 745.363 1786.17 746.158 1786.17 747.139C1786.17 748.119 1786.97 748.915 1787.95 748.915Z" fill="#FFD9D9"/>
<path opacity="0.5" d="M1787.95 764.219C1788.93 764.219 1789.72 763.424 1789.72 762.443C1789.72 761.463 1788.93 760.667 1787.95 760.667C1786.97 760.667 1786.17 761.463 1786.17 762.443C1786.17 763.424 1786.97 764.219 1787.95 764.219Z" fill="#FFD9D9"/>
<path opacity="0.5" d="M1787.95 779.526C1788.93 779.526 1789.72 778.73 1789.72 777.75C1789.72 776.769 1788.93 775.974 1787.95 775.974C1786.97 775.974 1786.17 776.769 1786.17 777.75C1786.17 778.73 1786.97 779.526 1787.95 779.526Z" fill="#FFD9D9"/>
<path opacity="0.5" d="M1787.95 794.831C1788.93 794.831 1789.72 794.035 1789.72 793.055C1789.72 792.074 1788.93 791.279 1787.95 791.279C1786.97 791.279 1786.17 792.074 1786.17 793.055C1786.17 794.035 1786.97 794.831 1787.95 794.831Z" fill="#FFD9D9"/>
<path opacity="0.5" d="M1787.95 810.136C1788.93 810.136 1789.72 809.341 1789.72 808.36C1789.72 807.38 1788.93 806.584 1787.95 806.584C1786.97 806.584 1786.17 807.38 1786.17 808.36C1786.17 809.341 1786.97 810.136 1787.95 810.136Z" fill="#FFD9D9"/>
<path opacity="0.5" d="M1787.95 825.442C1788.93 825.442 1789.72 824.647 1789.72 823.666C1789.72 822.685 1788.93 821.89 1787.95 821.89C1786.97 821.89 1786.17 822.685 1786.17 823.666C1786.17 824.647 1786.97 825.442 1787.95 825.442Z" fill="#FFD9D9"/>
<path opacity="0.5" d="M1787.95 840.747C1788.93 840.747 1789.72 839.951 1789.72 838.971C1789.72 837.99 1788.93 837.195 1787.95 837.195C1786.97 837.195 1786.17 837.99 1786.17 838.971C1786.17 839.951 1786.97 840.747 1787.95 840.747Z" fill="#FFD9D9"/>
<path opacity="0.5" d="M1787.95 856.052C1786.97 856.052 1786.17 855.257 1786.17 854.276C1786.17 853.295 1786.97 852.5 1787.95 852.5C1788.93 852.5 1789.72 853.295 1789.72 854.276C1789.72 855.256 1788.93 856.052 1787.95 856.052Z" fill="#FFD9D9"/>
<path opacity="0.5" d="M1772.64 748.915C1773.62 748.915 1774.42 748.119 1774.42 747.139C1774.42 746.158 1773.62 745.363 1772.64 745.363C1771.66 745.363 1770.87 746.158 1770.87 747.139C1770.87 748.119 1771.66 748.915 1772.64 748.915Z" fill="#FFD9D9"/>
<path opacity="0.5" d="M1772.64 764.219C1773.62 764.219 1774.42 763.424 1774.42 762.443C1774.42 761.463 1773.62 760.667 1772.64 760.667C1771.66 760.667 1770.87 761.463 1770.87 762.443C1770.87 763.424 1771.66 764.219 1772.64 764.219Z" fill="#FFD9D9"/>
<path opacity="0.5" d="M1772.64 779.526C1773.62 779.526 1774.42 778.73 1774.42 777.75C1774.42 776.769 1773.62 775.974 1772.64 775.974C1771.66 775.974 1770.87 776.769 1770.87 777.75C1770.87 778.73 1771.66 779.526 1772.64 779.526Z" fill="#FFD9D9"/>
<path opacity="0.5" d="M1772.64 794.831C1773.62 794.831 1774.42 794.035 1774.42 793.055C1774.42 792.074 1773.62 791.279 1772.64 791.279C1771.66 791.279 1770.87 792.074 1770.87 793.055C1770.87 794.035 1771.66 794.831 1772.64 794.831Z" fill="#FFD9D9"/>
<path opacity="0.5" d="M1772.64 810.136C1773.62 810.136 1774.42 809.341 1774.42 808.36C1774.42 807.38 1773.62 806.584 1772.64 806.584C1771.66 806.584 1770.87 807.38 1770.87 808.36C1770.87 809.341 1771.66 810.136 1772.64 810.136Z" fill="#FFD9D9"/>
<path opacity="0.5" d="M1772.64 825.442C1773.62 825.442 1774.42 824.647 1774.42 823.666C1774.42 822.685 1773.62 821.89 1772.64 821.89C1771.66 821.89 1770.87 822.685 1770.87 823.666C1770.87 824.647 1771.66 825.442 1772.64 825.442Z" fill="#FFD9D9"/>
<path opacity="0.5" d="M1772.64 840.747C1773.62 840.747 1774.42 839.951 1774.42 838.971C1774.42 837.99 1773.62 837.195 1772.64 837.195C1771.66 837.195 1770.87 837.99 1770.87 838.971C1770.87 839.951 1771.66 840.747 1772.64 840.747Z" fill="#FFD9D9"/>
<path opacity="0.5" d="M1772.64 856.052C1771.66 856.052 1770.87 855.257 1770.87 854.276C1770.87 853.295 1771.66 852.5 1772.64 852.5C1773.62 852.5 1774.42 853.295 1774.42 854.276C1774.42 855.256 1773.62 856.052 1772.64 856.052Z" fill="#FFD9D9"/>
<path opacity="0.5" d="M1757.34 748.915C1758.32 748.915 1759.11 748.119 1759.11 747.139C1759.11 746.158 1758.32 745.363 1757.34 745.363C1756.36 745.363 1755.56 746.158 1755.56 747.139C1755.56 748.119 1756.36 748.915 1757.34 748.915Z" fill="#FFD9D9"/>
<path opacity="0.5" d="M1757.34 764.219C1758.32 764.219 1759.11 763.424 1759.11 762.443C1759.11 761.463 1758.32 760.667 1757.34 760.667C1756.36 760.667 1755.56 761.463 1755.56 762.443C1755.56 763.424 1756.36 764.219 1757.34 764.219Z" fill="#FFD9D9"/>
<path opacity="0.5" d="M1757.34 779.526C1758.32 779.526 1759.11 778.73 1759.11 777.75C1759.11 776.769 1758.32 775.974 1757.34 775.974C1756.36 775.974 1755.56 776.769 1755.56 777.75C1755.56 778.73 1756.36 779.526 1757.34 779.526Z" fill="#FFD9D9"/>
<path opacity="0.5" d="M1757.34 794.831C1758.32 794.831 1759.11 794.035 1759.11 793.055C1759.11 792.074 1758.32 791.279 1757.34 791.279C1756.36 791.279 1755.56 792.074 1755.56 793.055C1755.56 794.035 1756.36 794.831 1757.34 794.831Z" fill="#FFD9D9"/>
<path opacity="0.5" d="M1757.34 810.136C1758.32 810.136 1759.11 809.341 1759.11 808.36C1759.11 807.38 1758.32 806.584 1757.34 806.584C1756.36 806.584 1755.56 807.38 1755.56 808.36C1755.56 809.341 1756.36 810.136 1757.34 810.136Z" fill="#FFD9D9"/>
<path opacity="0.5" d="M1757.34 825.442C1758.32 825.442 1759.11 824.647 1759.11 823.666C1759.11 822.685 1758.32 821.89 1757.34 821.89C1756.36 821.89 1755.56 822.685 1755.56 823.666C1755.56 824.647 1756.36 825.442 1757.34 825.442Z" fill="#FFD9D9"/>
<path opacity="0.5" d="M1757.34 840.747C1758.32 840.747 1759.11 839.951 1759.11 838.971C1759.11 837.99 1758.32 837.195 1757.34 837.195C1756.36 837.195 1755.56 837.99 1755.56 838.971C1755.56 839.951 1756.36 840.747 1757.34 840.747Z" fill="#FFD9D9"/>
<path opacity="0.5" d="M1757.34 856.052C1756.36 856.052 1755.56 855.257 1755.56 854.276C1755.56 853.295 1756.36 852.5 1757.34 852.5C1758.32 852.5 1759.11 853.295 1759.11 854.276C1759.11 855.256 1758.32 856.052 1757.34 856.052Z" fill="#FFD9D9"/>
<path opacity="0.5" d="M1742.03 748.915C1743.01 748.915 1743.81 748.119 1743.81 747.139C1743.81 746.158 1743.01 745.363 1742.03 745.363C1741.05 745.363 1740.26 746.158 1740.26 747.139C1740.26 748.119 1741.05 748.915 1742.03 748.915Z" fill="#FFD9D9"/>
<path opacity="0.5" d="M1742.03 764.219C1743.01 764.219 1743.81 763.424 1743.81 762.443C1743.81 761.463 1743.01 760.667 1742.03 760.667C1741.05 760.667 1740.26 761.463 1740.26 762.443C1740.26 763.424 1741.05 764.219 1742.03 764.219Z" fill="#FFD9D9"/>
<path opacity="0.5" d="M1742.03 779.526C1743.01 779.526 1743.81 778.73 1743.81 777.75C1743.81 776.769 1743.01 775.974 1742.03 775.974C1741.05 775.974 1740.26 776.769 1740.26 777.75C1740.26 778.73 1741.05 779.526 1742.03 779.526Z" fill="#FFD9D9"/>
<path opacity="0.5" d="M1742.03 794.831C1743.01 794.831 1743.81 794.035 1743.81 793.055C1743.81 792.074 1743.01 791.279 1742.03 791.279C1741.05 791.279 1740.26 792.074 1740.26 793.055C1740.26 794.035 1741.05 794.831 1742.03 794.831Z" fill="#FFD9D9"/>
<path opacity="0.5" d="M1742.03 810.136C1743.01 810.136 1743.81 809.341 1743.81 808.36C1743.81 807.38 1743.01 806.584 1742.03 806.584C1741.05 806.584 1740.26 807.38 1740.26 808.36C1740.26 809.341 1741.05 810.136 1742.03 810.136Z" fill="#FFD9D9"/>
<path opacity="0.5" d="M1742.03 825.442C1743.01 825.442 1743.81 824.647 1743.81 823.666C1743.81 822.685 1743.01 821.89 1742.03 821.89C1741.05 821.89 1740.26 822.685 1740.26 823.666C1740.26 824.647 1741.05 825.442 1742.03 825.442Z" fill="#FFD9D9"/>
<path opacity="0.5" d="M1742.03 840.747C1743.01 840.747 1743.81 839.951 1743.81 838.971C1743.81 837.99 1743.01 837.195 1742.03 837.195C1741.05 837.195 1740.26 837.99 1740.26 838.971C1740.26 839.951 1741.05 840.747 1742.03 840.747Z" fill="#FFD9D9"/>
<path opacity="0.5" d="M1742.03 856.052C1741.05 856.052 1740.26 855.257 1740.26 854.276C1740.26 853.295 1741.05 852.5 1742.03 852.5C1743.01 852.5 1743.81 853.295 1743.81 854.276C1743.81 855.256 1743.01 856.052 1742.03 856.052Z" fill="#FFD9D9"/>
<path opacity="0.81" d="M2047 417.004C2105.55 358.461 2105.55 263.544 2047 205.001C1988.46 146.458 1893.54 146.458 1835 205.001C1776.46 263.544 1776.46 358.461 1835 417.004C1893.54 475.547 1988.46 475.547 2047 417.004Z" stroke="#D7F0FB" stroke-width="1.0531" stroke-linecap="round" stroke-linejoin="round"/>
<path opacity="0.81" d="M1941.01 455.181C2020.64 455.181 2085.19 390.628 2085.19 310.997C2085.19 231.367 2020.64 166.813 1941.01 166.813C1861.38 166.813 1796.83 231.367 1796.83 310.997C1796.83 390.628 1861.38 455.181 1941.01 455.181Z" stroke="#D7F0FB" stroke-width="1.1458" stroke-linecap="round" stroke-linejoin="round"/>
<path opacity="0.81" d="M2038.91 408.906C2092.98 354.836 2092.98 267.17 2038.91 213.099C1984.84 159.028 1897.17 159.028 1843.1 213.099C1789.03 267.17 1789.03 354.836 1843.1 408.906C1897.17 462.977 1984.84 462.977 2038.91 408.906Z" stroke="#D7F0FB" stroke-width="1.2385" stroke-linecap="round" stroke-linejoin="round"/>
<path opacity="0.81" d="M1941.01 443.729C2014.32 443.729 2073.74 384.303 2073.74 310.997C2073.74 237.692 2014.32 178.265 1941.01 178.265C1867.7 178.265 1808.28 237.692 1808.28 310.997C1808.28 384.303 1867.7 443.729 1941.01 443.729Z" stroke="#D7F0FB" stroke-width="1.3312" stroke-linecap="round" stroke-linejoin="round"/>
<path opacity="0.81" d="M1941.01 438.003C2011.15 438.003 2068.02 381.141 2068.02 310.997C2068.02 240.854 2011.15 183.991 1941.01 183.991C1870.87 183.991 1814 240.854 1814 310.997C1814 381.141 1870.87 438.003 1941.01 438.003Z" stroke="#D7F0FB" stroke-width="1.4239" stroke-linecap="round" stroke-linejoin="round"/>
<path opacity="0.81" d="M1941.01 432.277C2007.99 432.277 2062.29 377.978 2062.29 310.997C2062.29 244.016 2007.99 189.717 1941.01 189.717C1874.03 189.717 1819.73 244.016 1819.73 310.997C1819.73 377.978 1874.03 432.277 1941.01 432.277Z" stroke="#D7F0FB" stroke-width="1.5166" stroke-linecap="round" stroke-linejoin="round"/>
<path opacity="0.81" d="M1941.01 426.551C2004.83 426.551 2056.56 374.816 2056.56 310.997C2056.56 247.179 2004.83 195.443 1941.01 195.443C1877.19 195.443 1825.46 247.179 1825.46 310.997C1825.46 374.816 1877.19 426.551 1941.01 426.551Z" stroke="#D7F0FB" stroke-width="1.6093" stroke-linecap="round" stroke-linejoin="round"/>
<path opacity="0.81" d="M1941.01 420.825C2001.67 420.825 2050.84 371.654 2050.84 310.997C2050.84 250.341 2001.67 201.169 1941.01 201.169C1880.35 201.169 1831.18 250.341 1831.18 310.997C1831.18 371.654 1880.35 420.825 1941.01 420.825Z" stroke="#D7F0FB" stroke-width="1.702" stroke-linecap="round" stroke-linejoin="round"/>
<path opacity="0.81" d="M1941.01 415.099C1998.5 415.099 2045.11 368.491 2045.11 310.997C2045.11 253.503 1998.5 206.895 1941.01 206.895C1883.52 206.895 1836.91 253.503 1836.91 310.997C1836.91 368.491 1883.52 415.099 1941.01 415.099Z" stroke="#D7F0FB" stroke-width="1.7948" stroke-linecap="round" stroke-linejoin="round"/>
<path opacity="0.81" d="M1941.01 409.373C1995.34 409.373 2039.39 365.329 2039.39 310.997C2039.39 256.666 1995.34 212.621 1941.01 212.621C1886.68 212.621 1842.63 256.666 1842.63 310.997C1842.63 365.329 1886.68 409.373 1941.01 409.373Z" stroke="#D7F0FB" stroke-width="1.8875" stroke-linecap="round" stroke-linejoin="round"/>
<path opacity="0.81" d="M1941.01 403.647C1992.18 403.647 2033.66 362.167 2033.66 310.997C2033.66 259.828 1992.18 218.347 1941.01 218.347C1889.84 218.347 1848.36 259.828 1848.36 310.997C1848.36 362.167 1889.84 403.647 1941.01 403.647Z" stroke="#D7F0FB" stroke-width="1.9802" stroke-linecap="round" stroke-linejoin="round"/>
<path opacity="0.81" d="M1941.01 397.921C1989.02 397.921 2027.93 359.004 2027.93 310.997C2027.93 262.99 1989.02 224.073 1941.01 224.073C1893 224.073 1854.09 262.99 1854.09 310.997C1854.09 359.004 1893 397.921 1941.01 397.921Z" stroke="#D7F0FB" stroke-width="2.0729" stroke-linecap="round" stroke-linejoin="round"/>
<path opacity="0.81" d="M1943.93 392.197C1988.75 390.6 2023.78 352.974 2022.19 308.157C2020.59 263.339 1982.96 228.302 1938.15 229.898C1893.33 231.495 1858.29 269.121 1859.89 313.938C1861.48 358.756 1899.11 393.793 1943.93 392.197Z" stroke="#D7F0FB" stroke-width="2.1656" stroke-linecap="round" stroke-linejoin="round"/>
<path opacity="0.81" d="M1941.01 386.469C1982.69 386.469 2016.48 352.679 2016.48 310.997C2016.48 269.315 1982.69 235.525 1941.01 235.525C1899.33 235.525 1865.54 269.315 1865.54 310.997C1865.54 352.679 1899.33 386.469 1941.01 386.469Z" stroke="#D7F0FB" stroke-width="2.2583" stroke-linecap="round" stroke-linejoin="round"/>
<path opacity="0.81" d="M1943.52 380.752C1982.02 379.38 2012.11 347.061 2010.74 308.564C2009.37 270.068 1977.05 239.972 1938.55 241.343C1900.06 242.715 1869.96 275.034 1871.33 313.53C1872.7 352.027 1905.02 382.123 1943.52 380.752Z" stroke="#D7F0FB" stroke-width="2.351" stroke-linecap="round" stroke-linejoin="round"/>
<path opacity="0.81" d="M1941.01 375.018C1976.37 375.018 2005.03 346.355 2005.03 310.997C2005.03 275.639 1976.37 246.976 1941.01 246.976C1905.65 246.976 1876.99 275.639 1876.99 310.997C1876.99 346.355 1905.65 375.018 1941.01 375.018Z" stroke="#D7F0FB" stroke-width="2.4437" stroke-linecap="round" stroke-linejoin="round"/>
<path opacity="0.81" d="M1943.11 369.307C1975.29 368.161 2000.44 341.148 1999.3 308.972C1998.15 276.796 1971.14 251.641 1938.96 252.787C1906.79 253.933 1881.63 280.946 1882.78 313.123C1883.92 345.299 1910.94 370.453 1943.11 369.307Z" stroke="#D7F0FB" stroke-width="2.5364" stroke-linecap="round" stroke-linejoin="round"/>
<path opacity="0.81" d="M1941.01 363.566C1970.04 363.566 1993.58 340.03 1993.58 310.997C1993.58 281.964 1970.04 258.428 1941.01 258.428C1911.98 258.428 1888.44 281.964 1888.44 310.997C1888.44 340.03 1911.98 363.566 1941.01 363.566Z" stroke="#D7F0FB" stroke-width="2.6292" stroke-linecap="round" stroke-linejoin="round"/>
<path opacity="0.81" d="M1942.7 357.862C1968.56 356.941 1988.77 335.235 1987.85 309.38C1986.93 283.525 1965.22 263.312 1939.37 264.233C1913.51 265.154 1893.3 286.86 1894.22 312.715C1895.14 338.57 1916.85 358.783 1942.7 357.862Z" stroke="#D7F0FB" stroke-width="2.7219" stroke-linecap="round" stroke-linejoin="round"/>
<path opacity="0.81" d="M1941.01 352.114C1963.72 352.114 1982.13 333.706 1982.13 310.997C1982.13 288.289 1963.72 269.88 1941.01 269.88C1918.3 269.88 1899.89 288.289 1899.89 310.997C1899.89 333.706 1918.3 352.114 1941.01 352.114Z" stroke="#D7F0FB" stroke-width="2.8146" stroke-linecap="round" stroke-linejoin="round"/>
<path opacity="0.81" d="M1942.3 346.417C1961.83 345.721 1977.1 329.322 1976.41 309.787C1975.71 290.253 1959.31 274.982 1939.78 275.678C1920.24 276.373 1904.97 292.773 1905.67 312.307C1906.36 331.841 1922.76 347.113 1942.3 346.417Z" stroke="#D7F0FB" stroke-width="2.9073" stroke-linecap="round" stroke-linejoin="round"/>
<path opacity="0.81" d="M1941.01 340.662C1957.39 340.662 1970.68 327.381 1970.68 310.997C1970.68 294.614 1957.39 281.332 1941.01 281.332C1924.63 281.332 1911.35 294.614 1911.35 310.997C1911.35 327.381 1924.63 340.662 1941.01 340.662Z" stroke="#D7F0FB" stroke-width="3" stroke-linecap="round" stroke-linejoin="round"/>
<path opacity="0.81" d="M2071.07 872L1740 1203.07" stroke="#E8E8E8" stroke-width="2" stroke-miterlimit="10"/>
<path opacity="0.81" d="M2091.15 872L1760.07 1203.07" stroke="#E8E8E8" stroke-width="2" stroke-miterlimit="10"/>
<path opacity="0.81" d="M2111.22 872L1780.14 1203.07" stroke="#E8E8E8" stroke-width="2" stroke-miterlimit="10"/>
<path opacity="0.81" d="M2131.29 872L1800.22 1203.07" stroke="#E8E8E8" stroke-width="2" stroke-miterlimit="10"/>
<path opacity="0.81" d="M2151.36 872L1820.29 1203.07" stroke="#E8E8E8" stroke-width="2" stroke-miterlimit="10"/>
<path opacity="0.81" d="M2171.44 872L1840.36 1203.07" stroke="#E8E8E8" stroke-width="2" stroke-miterlimit="10"/>
<path opacity="0.81" d="M2191.51 872L1860.44 1203.07" stroke="#E8E8E8" stroke-width="2" stroke-miterlimit="10"/>
<path opacity="0.81" d="M2211.58 872L1880.51 1203.07" stroke="#E8E8E8" stroke-width="2" stroke-miterlimit="10"/>
<path opacity="0.81" d="M2231.65 872L1900.58 1203.07" stroke="#E8E8E8" stroke-width="2" stroke-miterlimit="10"/>
<path opacity="0.81" d="M2251.73 872L1920.65 1203.07" stroke="#E8E8E8" stroke-width="2" stroke-miterlimit="10"/>
<path opacity="0.5" d="M1629.51 -106L1515 8.51196L1629.51 123.024L1744.02 8.51196L1629.51 -106Z" stroke="#D9DFFF" stroke-width="50" stroke-miterlimit="10"/>
<path opacity="0.2" d="M1939.98 558L1783 714.976L1939.98 871.952L2096.95 714.976L1939.98 558Z" stroke="#D9E3FF" stroke-width="50" stroke-miterlimit="10"/>
<path opacity="0.5" d="M1532.98 1106L1376 1262.98L1532.98 1419.95L1689.95 1262.98L1532.98 1106Z" stroke="#D7FFE7" stroke-width="30" stroke-miterlimit="10"/>
<path opacity="0.5" d="M-50.0238 937L-207 1093.98L-50.0238 1250.95L106.952 1093.98L-50.0238 937Z" stroke="#E9E9E9" stroke-width="30" stroke-miterlimit="10"/>
<path opacity="0.1" d="M-109.024 28.9999L-266 185.976L-70.5441 381.432L86.4321 224.456L-109.024 28.9999Z" stroke="#B1C7FF" stroke-width="50" stroke-miterlimit="10"/>
<path opacity="0.49" d="M1874.55 817.796V824.928" stroke="#E8E8E8" stroke-width="2" stroke-miterlimit="10" stroke-linecap="round" stroke-linejoin="round"/>
<path opacity="0.49" d="M1878.12 821.362H1870.99" stroke="#E8E8E8" stroke-width="2" stroke-miterlimit="10" stroke-linecap="round" stroke-linejoin="round"/>
<path opacity="0.5" d="M61.4641 56.776C61.4641 57.757 60.6691 58.552 59.6881 58.552C58.7071 58.552 57.9121 57.757 57.9121 56.776C57.9121 55.795 58.7071 55 59.6881 55C60.6691 55 61.4641 55.795 61.4641 56.776Z" fill="#FFD9D9"/>
<path opacity="0.5" d="M74.9928 58.552C75.9737 58.552 76.7688 57.7569 76.7688 56.776C76.7688 55.7951 75.9737 55 74.9928 55C74.0119 55 73.2168 55.7951 73.2168 56.776C73.2168 57.7569 74.0119 58.552 74.9928 58.552Z" fill="#FFD9D9"/>
<path opacity="0.5" d="M90.2994 58.552C91.2803 58.552 92.0754 57.7569 92.0754 56.776C92.0754 55.7951 91.2803 55 90.2994 55C89.3186 55 88.5234 55.7951 88.5234 56.776C88.5234 57.7569 89.3186 58.552 90.2994 58.552Z" fill="#FFD9D9"/>
<path opacity="0.5" d="M107.38 56.776C107.38 57.757 106.585 58.552 105.604 58.552C104.623 58.552 103.828 57.757 103.828 56.776C103.828 55.795 104.623 55 105.604 55C106.585 55 107.38 55.795 107.38 56.776Z" fill="#FFD9D9"/>
<path opacity="0.5" d="M120.909 58.552C121.89 58.552 122.685 57.7569 122.685 56.776C122.685 55.7951 121.89 55 120.909 55C119.928 55 119.133 55.7951 119.133 56.776C119.133 57.7569 119.928 58.552 120.909 58.552Z" fill="#FFD9D9"/>
<path opacity="0.5" d="M136.215 58.552C137.196 58.552 137.991 57.7569 137.991 56.776C137.991 55.7951 137.196 55 136.215 55C135.235 55 134.439 55.7951 134.439 56.776C134.439 57.7569 135.235 58.552 136.215 58.552Z" fill="#FFD9D9"/>
<path opacity="0.5" d="M151.52 58.552C152.501 58.552 153.296 57.7569 153.296 56.776C153.296 55.7951 152.501 55 151.52 55C150.539 55 149.744 55.7951 149.744 56.776C149.744 57.7569 150.539 58.552 151.52 58.552Z" fill="#FFD9D9"/>
<path opacity="0.5" d="M166.825 58.552C167.806 58.552 168.601 57.7569 168.601 56.776C168.601 55.7951 167.806 55 166.825 55C165.844 55 165.049 55.7951 165.049 56.776C165.049 57.7569 165.844 58.552 166.825 58.552Z" fill="#FFD9D9"/>
<path opacity="0.5" d="M61.4641 72.0819C61.4641 73.0629 60.6691 73.8579 59.6881 73.8579C58.7071 73.8579 57.9121 73.0629 57.9121 72.0819C57.9121 71.1009 58.7071 70.3059 59.6881 70.3059C60.6691 70.3059 61.4641 71.1009 61.4641 72.0819Z" fill="#FFD9D9"/>
<path opacity="0.5" d="M74.9928 73.8579C75.9737 73.8579 76.7688 73.0628 76.7688 72.0819C76.7688 71.1011 75.9737 70.3059 74.9928 70.3059C74.0119 70.3059 73.2168 71.1011 73.2168 72.0819C73.2168 73.0628 74.0119 73.8579 74.9928 73.8579Z" fill="#FFD9D9"/>
<path opacity="0.5" d="M90.2994 73.8579C91.2803 73.8579 92.0754 73.0628 92.0754 72.0819C92.0754 71.1011 91.2803 70.3059 90.2994 70.3059C89.3186 70.3059 88.5234 71.1011 88.5234 72.0819C88.5234 73.0628 89.3186 73.8579 90.2994 73.8579Z" fill="#FFD9D9"/>
<path opacity="0.5" d="M107.38 72.0819C107.38 73.0629 106.585 73.8579 105.604 73.8579C104.623 73.8579 103.828 73.0629 103.828 72.0819C103.828 71.1009 104.623 70.3059 105.604 70.3059C106.585 70.3059 107.38 71.1009 107.38 72.0819Z" fill="#FFD9D9"/>
<path opacity="0.5" d="M120.909 73.8579C121.89 73.8579 122.685 73.0628 122.685 72.0819C122.685 71.1011 121.89 70.3059 120.909 70.3059C119.928 70.3059 119.133 71.1011 119.133 72.0819C119.133 73.0628 119.928 73.8579 120.909 73.8579Z" fill="#FFD9D9"/>
<path opacity="0.5" d="M136.215 73.8579C137.196 73.8579 137.991 73.0628 137.991 72.0819C137.991 71.1011 137.196 70.3059 136.215 70.3059C135.235 70.3059 134.439 71.1011 134.439 72.0819C134.439 73.0628 135.235 73.8579 136.215 73.8579Z" fill="#FFD9D9"/>
<path opacity="0.5" d="M151.52 73.8579C152.501 73.8579 153.296 73.0628 153.296 72.0819C153.296 71.1011 152.501 70.3059 151.52 70.3059C150.539 70.3059 149.744 71.1011 149.744 72.0819C149.744 73.0628 150.539 73.8579 151.52 73.8579Z" fill="#FFD9D9"/>
<path opacity="0.5" d="M166.825 73.8579C167.806 73.8579 168.601 73.0628 168.601 72.0819C168.601 71.1011 167.806 70.3059 166.825 70.3059C165.844 70.3059 165.049 71.1011 165.049 72.0819C165.049 73.0628 165.844 73.8579 166.825 73.8579Z" fill="#FFD9D9"/>
<path opacity="0.5" d="M61.4641 87.3871C61.4641 88.3681 60.6691 89.1631 59.6881 89.1631C58.7071 89.1631 57.9121 88.3681 57.9121 87.3871C57.9121 86.4061 58.7071 85.6111 59.6881 85.6111C60.6691 85.6111 61.4641 86.4061 61.4641 87.3871Z" fill="#FFD9D9"/>
<path opacity="0.5" d="M74.9928 89.1631C75.9737 89.1631 76.7688 88.3679 76.7688 87.3871C76.7688 86.4062 75.9737 85.6111 74.9928 85.6111C74.0119 85.6111 73.2168 86.4062 73.2168 87.3871C73.2168 88.3679 74.0119 89.1631 74.9928 89.1631Z" fill="#FFD9D9"/>
<path opacity="0.5" d="M90.2994 89.1631C91.2803 89.1631 92.0754 88.3679 92.0754 87.3871C92.0754 86.4062 91.2803 85.6111 90.2994 85.6111C89.3186 85.6111 88.5234 86.4062 88.5234 87.3871C88.5234 88.3679 89.3186 89.1631 90.2994 89.1631Z" fill="#FFD9D9"/>
<path opacity="0.5" d="M107.38 87.3871C107.38 88.3681 106.585 89.1631 105.604 89.1631C104.623 89.1631 103.828 88.3681 103.828 87.3871C103.828 86.4061 104.623 85.6111 105.604 85.6111C106.585 85.6111 107.38 86.4061 107.38 87.3871Z" fill="#FFD9D9"/>
<path opacity="0.5" d="M120.909 89.1631C121.89 89.1631 122.685 88.3679 122.685 87.3871C122.685 86.4062 121.89 85.6111 120.909 85.6111C119.928 85.6111 119.133 86.4062 119.133 87.3871C119.133 88.3679 119.928 89.1631 120.909 89.1631Z" fill="#FFD9D9"/>
<path opacity="0.5" d="M136.215 89.1631C137.196 89.1631 137.991 88.3679 137.991 87.3871C137.991 86.4062 137.196 85.6111 136.215 85.6111C135.235 85.6111 134.439 86.4062 134.439 87.3871C134.439 88.3679 135.235 89.1631 136.215 89.1631Z" fill="#FFD9D9"/>
<path opacity="0.5" d="M151.52 89.1631C152.501 89.1631 153.296 88.3679 153.296 87.3871C153.296 86.4062 152.501 85.6111 151.52 85.6111C150.539 85.6111 149.744 86.4062 149.744 87.3871C149.744 88.3679 150.539 89.1631 151.52 89.1631Z" fill="#FFD9D9"/>
<path opacity="0.5" d="M166.825 89.1631C167.806 89.1631 168.601 88.3679 168.601 87.3871C168.601 86.4062 167.806 85.6111 166.825 85.6111C165.844 85.6111 165.049 86.4062 165.049 87.3871C165.049 88.3679 165.844 89.1631 166.825 89.1631Z" fill="#FFD9D9"/>
<path opacity="0.5" d="M61.4641 102.692C61.4641 103.673 60.6691 104.468 59.6881 104.468C58.7071 104.468 57.9121 103.673 57.9121 102.692C57.9121 101.711 58.7071 100.916 59.6881 100.916C60.6691 100.916 61.4641 101.711 61.4641 102.692Z" fill="#FFD9D9"/>
<path opacity="0.5" d="M74.9928 104.468C75.9737 104.468 76.7688 103.673 76.7688 102.692C76.7688 101.711 75.9737 100.916 74.9928 100.916C74.0119 100.916 73.2168 101.711 73.2168 102.692C73.2168 103.673 74.0119 104.468 74.9928 104.468Z" fill="#FFD9D9"/>
<path opacity="0.5" d="M90.2994 104.468C91.2803 104.468 92.0754 103.673 92.0754 102.692C92.0754 101.711 91.2803 100.916 90.2994 100.916C89.3186 100.916 88.5234 101.711 88.5234 102.692C88.5234 103.673 89.3186 104.468 90.2994 104.468Z" fill="#FFD9D9"/>
<path opacity="0.5" d="M107.38 102.692C107.38 103.673 106.585 104.468 105.604 104.468C104.623 104.468 103.828 103.673 103.828 102.692C103.828 101.711 104.623 100.916 105.604 100.916C106.585 100.916 107.38 101.711 107.38 102.692Z" fill="#FFD9D9"/>
<path opacity="0.5" d="M120.909 104.468C121.89 104.468 122.685 103.673 122.685 102.692C122.685 101.711 121.89 100.916 120.909 100.916C119.928 100.916 119.133 101.711 119.133 102.692C119.133 103.673 119.928 104.468 120.909 104.468Z" fill="#FFD9D9"/>
<path opacity="0.5" d="M136.215 104.468C137.196 104.468 137.991 103.673 137.991 102.692C137.991 101.711 137.196 100.916 136.215 100.916C135.235 100.916 134.439 101.711 134.439 102.692C134.439 103.673 135.235 104.468 136.215 104.468Z" fill="#FFD9D9"/>
<path opacity="0.5" d="M151.52 104.468C152.501 104.468 153.296 103.673 153.296 102.692C153.296 101.711 152.501 100.916 151.52 100.916C150.539 100.916 149.744 101.711 149.744 102.692C149.744 103.673 150.539 104.468 151.52 104.468Z" fill="#FFD9D9"/>
<path opacity="0.5" d="M166.825 104.468C167.806 104.468 168.601 103.673 168.601 102.692C168.601 101.711 167.806 100.916 166.825 100.916C165.844 100.916 165.049 101.711 165.049 102.692C165.049 103.673 165.844 104.468 166.825 104.468Z" fill="#FFD9D9"/>
<path opacity="0.5" d="M61.4641 117.998C61.4641 118.979 60.6691 119.774 59.6881 119.774C58.7071 119.774 57.9121 118.979 57.9121 117.998C57.9121 117.017 58.7071 116.222 59.6881 116.222C60.6691 116.222 61.4641 117.017 61.4641 117.998Z" fill="#FFD9D9"/>
<path opacity="0.5" d="M74.9928 119.774C75.9737 119.774 76.7688 118.979 76.7688 117.998C76.7688 117.017 75.9737 116.222 74.9928 116.222C74.0119 116.222 73.2168 117.017 73.2168 117.998C73.2168 118.979 74.0119 119.774 74.9928 119.774Z" fill="#FFD9D9"/>
<path opacity="0.5" d="M90.2994 119.774C91.2803 119.774 92.0754 118.979 92.0754 117.998C92.0754 117.017 91.2803 116.222 90.2994 116.222C89.3186 116.222 88.5234 117.017 88.5234 117.998C88.5234 118.979 89.3186 119.774 90.2994 119.774Z" fill="#FFD9D9"/>
<path opacity="0.5" d="M107.38 117.998C107.38 118.979 106.585 119.774 105.604 119.774C104.623 119.774 103.828 118.979 103.828 117.998C103.828 117.017 104.623 116.222 105.604 116.222C106.585 116.222 107.38 117.017 107.38 117.998Z" fill="#FFD9D9"/>
<path opacity="0.5" d="M120.909 119.774C121.89 119.774 122.685 118.979 122.685 117.998C122.685 117.017 121.89 116.222 120.909 116.222C119.928 116.222 119.133 117.017 119.133 117.998C119.133 118.979 119.928 119.774 120.909 119.774Z" fill="#FFD9D9"/>
<path opacity="0.5" d="M136.215 119.774C137.196 119.774 137.991 118.979 137.991 117.998C137.991 117.017 137.196 116.222 136.215 116.222C135.235 116.222 134.439 117.017 134.439 117.998C134.439 118.979 135.235 119.774 136.215 119.774Z" fill="#FFD9D9"/>
<path opacity="0.5" d="M151.52 119.774C152.501 119.774 153.296 118.979 153.296 117.998C153.296 117.017 152.501 116.222 151.52 116.222C150.539 116.222 149.744 117.017 149.744 117.998C149.744 118.979 150.539 119.774 151.52 119.774Z" fill="#FFD9D9"/>
<path opacity="0.5" d="M166.825 119.774C167.806 119.774 168.601 118.979 168.601 117.998C168.601 117.017 167.806 116.222 166.825 116.222C165.844 116.222 165.049 117.017 165.049 117.998C165.049 118.979 165.844 119.774 166.825 119.774Z" fill="#FFD9D9"/>
<path opacity="0.5" d="M61.4641 133.303C61.4641 134.284 60.6691 135.079 59.6881 135.079C58.7071 135.079 57.9121 134.284 57.9121 133.303C57.9121 132.322 58.7071 131.527 59.6881 131.527C60.6691 131.527 61.4641 132.322 61.4641 133.303Z" fill="#FFD9D9"/>
<path opacity="0.5" d="M74.9928 135.079C75.9737 135.079 76.7688 134.284 76.7688 133.303C76.7688 132.322 75.9737 131.527 74.9928 131.527C74.0119 131.527 73.2168 132.322 73.2168 133.303C73.2168 134.284 74.0119 135.079 74.9928 135.079Z" fill="#FFD9D9"/>
<path opacity="0.5" d="M90.2994 135.079C91.2803 135.079 92.0754 134.284 92.0754 133.303C92.0754 132.322 91.2803 131.527 90.2994 131.527C89.3186 131.527 88.5234 132.322 88.5234 133.303C88.5234 134.284 89.3186 135.079 90.2994 135.079Z" fill="#FFD9D9"/>
<path opacity="0.5" d="M107.38 133.303C107.38 134.284 106.585 135.079 105.604 135.079C104.623 135.079 103.828 134.284 103.828 133.303C103.828 132.322 104.623 131.527 105.604 131.527C106.585 131.527 107.38 132.322 107.38 133.303Z" fill="#FFD9D9"/>
<path opacity="0.5" d="M120.909 135.079C121.89 135.079 122.685 134.284 122.685 133.303C122.685 132.322 121.89 131.527 120.909 131.527C119.928 131.527 119.133 132.322 119.133 133.303C119.133 134.284 119.928 135.079 120.909 135.079Z" fill="#FFD9D9"/>
<path opacity="0.5" d="M136.215 135.079C137.196 135.079 137.991 134.284 137.991 133.303C137.991 132.322 137.196 131.527 136.215 131.527C135.235 131.527 134.439 132.322 134.439 133.303C134.439 134.284 135.235 135.079 136.215 135.079Z" fill="#FFD9D9"/>
<path opacity="0.5" d="M151.52 135.079C152.501 135.079 153.296 134.284 153.296 133.303C153.296 132.322 152.501 131.527 151.52 131.527C150.539 131.527 149.744 132.322 149.744 133.303C149.744 134.284 150.539 135.079 151.52 135.079Z" fill="#FFD9D9"/>
<path opacity="0.5" d="M166.825 135.079C167.806 135.079 168.601 134.284 168.601 133.303C168.601 132.322 167.806 131.527 166.825 131.527C165.844 131.527 165.049 132.322 165.049 133.303C165.049 134.284 165.844 135.079 166.825 135.079Z" fill="#FFD9D9"/>
<path d="M177.16 171.08C177.16 173.334 175.333 175.161 173.08 175.161C170.826 175.161 169 173.334 169 171.08C169 168.826 170.827 167 173.08 167C175.333 166.999 177.16 168.826 177.16 171.08Z" stroke="#FFD9D9" stroke-width="2" stroke-miterlimit="10" stroke-linecap="round" stroke-linejoin="round"/>
<path opacity="0.49" d="M103.684 159.798V166.93" stroke="#FFD9D9" stroke-width="2" stroke-miterlimit="10" stroke-linecap="round" stroke-linejoin="round"/>
<path opacity="0.49" d="M107.25 163.364H100.118" stroke="#FFD9D9" stroke-width="2" stroke-miterlimit="10" stroke-linecap="round" stroke-linejoin="round"/>
<path opacity="0.49" d="M82.125 159.798V166.93" stroke="#FFD9D9" stroke-width="2" stroke-miterlimit="10" stroke-linecap="round" stroke-linejoin="round"/>
<path opacity="0.49" d="M85.6906 163.364H78.5586" stroke="#FFD9D9" stroke-width="2" stroke-miterlimit="10" stroke-linecap="round" stroke-linejoin="round"/>
<path opacity="0.49" d="M60.5664 159.798V166.93" stroke="#FFD9D9" stroke-width="2" stroke-miterlimit="10" stroke-linecap="round" stroke-linejoin="round"/>
<path opacity="0.49" d="M64.132 163.364H57" stroke="#FFD9D9" stroke-width="2" stroke-miterlimit="10" stroke-linecap="round" stroke-linejoin="round"/>
<path d="M193.16 1090.08C193.16 1092.33 191.333 1094.16 189.08 1094.16C186.826 1094.16 185 1092.33 185 1090.08C185 1087.83 186.827 1086 189.08 1086C191.333 1086 193.16 1087.83 193.16 1090.08Z" stroke="#FFD9D9" stroke-width="2" stroke-miterlimit="10" stroke-linecap="round" stroke-linejoin="round"/>
<path opacity="0.8" d="M77.0099 588.01C132.056 532.964 132.056 443.716 77.01 388.67C21.9637 333.624 -67.2838 333.624 -122.33 388.67C-177.376 443.716 -177.376 532.964 -122.33 588.01C-67.2838 643.056 21.9637 643.056 77.0099 588.01Z" stroke="#E1F1FF" stroke-width="0.5" stroke-miterlimit="10"/>
<path opacity="0.8" d="M71.9886 582.989C124.262 530.716 124.262 445.964 71.9886 393.691C19.7155 341.418 -65.036 341.418 -117.309 393.691C-169.582 445.964 -169.582 530.716 -117.309 582.989C-65.036 635.262 19.7154 635.262 71.9886 582.989Z" stroke="#E1F1FF" stroke-width="0.6563" stroke-miterlimit="10"/>
<path opacity="0.8" d="M-22.6552 615.091C47.3491 615.091 104.099 558.342 104.099 488.337C104.099 418.333 47.3491 361.583 -22.6552 361.583C-92.6595 361.583 -149.409 418.333 -149.409 488.337C-149.409 558.342 -92.6595 615.091 -22.6552 615.091Z" stroke="#E1F1FF" stroke-width="0.8125" stroke-miterlimit="10"/>
<path opacity="0.8" d="M-22.6556 607.991C43.4269 607.991 96.9974 554.42 96.9974 488.338C96.9974 422.255 43.4269 368.685 -22.6556 368.685C-88.7381 368.685 -142.309 422.255 -142.309 488.338C-142.309 554.42 -88.7381 607.991 -22.6556 607.991Z" stroke="#E1F1FF" stroke-width="0.9688" stroke-miterlimit="10"/>
<path opacity="0.8" d="M56.9255 567.926C100.879 523.972 100.879 452.708 56.9255 408.755C12.9716 364.801 -58.2917 364.801 -102.246 408.755C-146.199 452.708 -146.199 523.972 -102.246 567.926C-58.2917 611.879 12.9716 611.879 56.9255 567.926Z" stroke="#E1F1FF" stroke-width="1.125" stroke-miterlimit="10"/>
<path opacity="0.8" d="M51.9041 562.904C93.0849 521.723 93.0849 454.956 51.9041 413.775C10.7234 372.595 -56.0439 372.595 -97.2247 413.775C-138.405 454.956 -138.405 521.723 -97.2247 562.904C-56.0439 604.085 10.7233 604.085 51.9041 562.904Z" stroke="#E1F1FF" stroke-width="1.2813" stroke-miterlimit="10"/>
<path opacity="0.8" d="M46.8838 557.883C85.2914 519.476 85.2914 457.204 46.8838 418.797C8.47606 380.389 -53.7951 380.389 -92.2028 418.797C-130.611 457.204 -130.611 519.476 -92.2028 557.883C-53.7951 596.291 8.47606 596.291 46.8838 557.883Z" stroke="#E1F1FF" stroke-width="1.4375" stroke-miterlimit="10"/>
<path opacity="0.8" d="M41.8624 552.862C77.497 517.227 77.497 459.452 41.8624 423.818C6.22777 388.183 -51.5473 388.183 -87.1819 423.818C-122.817 459.452 -122.817 517.227 -87.1819 552.862C-51.5473 588.497 6.22778 588.497 41.8624 552.862Z" stroke="#E1F1FF" stroke-width="1.5938" stroke-miterlimit="10"/>
<path opacity="0.8" d="M60.4283 501.766C67.8314 455.888 36.6412 412.695 -9.23706 405.291C-55.1153 397.888 -98.3084 429.078 -105.712 474.957C-113.115 520.835 -81.9245 564.028 -36.0463 571.431C9.83196 578.834 53.0251 547.644 60.4283 501.766Z" stroke="#E1F1FF" stroke-width="1.75" stroke-miterlimit="10"/>
<path opacity="0.8" d="M-22.6552 565.383C19.8961 565.383 54.3908 530.889 54.3908 488.337C54.3908 445.786 19.8961 411.292 -22.6552 411.292C-65.2065 411.292 -99.7012 445.786 -99.7012 488.337C-99.7012 530.889 -65.2065 565.383 -22.6552 565.383Z" stroke="#E1F1FF" stroke-width="1.9063" stroke-miterlimit="10"/>
<path opacity="0.8" d="M26.7982 537.798C54.1131 510.483 54.1131 466.197 26.7981 438.882C-0.516825 411.567 -44.8031 411.567 -72.1181 438.882C-99.433 466.197 -99.433 510.483 -72.1181 537.798C-44.8031 565.113 -0.516804 565.113 26.7982 537.798Z" stroke="#E1F1FF" stroke-width="2.0625" stroke-miterlimit="10"/>
<path opacity="0.8" d="M21.7768 532.777C46.3187 508.235 46.3187 468.445 21.7768 443.903C-2.76507 419.361 -42.5553 419.361 -67.0972 443.903C-91.6391 468.445 -91.6391 508.235 -67.0972 532.777C-42.5553 557.319 -2.76508 557.319 21.7768 532.777Z" stroke="#E1F1FF" stroke-width="2.2188" stroke-miterlimit="10"/>
<path opacity="0.8" d="M16.7554 527.756C38.5242 505.987 38.5242 470.693 16.7554 448.924C-5.01336 427.155 -40.3075 427.155 -62.0763 448.924C-83.8451 470.693 -83.8451 505.987 -62.0763 527.756C-40.3075 549.525 -5.01336 549.525 16.7554 527.756Z" stroke="#E1F1FF" stroke-width="2.375" stroke-miterlimit="10"/>
<path opacity="0.8" d="M11.7351 522.735C30.7308 503.739 30.7307 472.941 11.735 453.945C-7.26066 434.95 -38.0588 434.95 -57.0545 453.945C-76.0502 472.941 -76.0502 503.739 -57.0545 522.735C-38.0588 541.731 -7.26065 541.731 11.7351 522.735Z" stroke="#E1F1FF" stroke-width="2.5313" stroke-miterlimit="10"/>
<path opacity="0.8" d="M18.5805 493.204C21.2693 470.419 4.97885 449.769 -17.8053 447.081C-40.5895 444.392 -61.2394 460.682 -63.9283 483.466C-66.6171 506.251 -50.3267 526.9 -27.5425 529.589C-4.75836 532.278 15.8916 515.988 18.5805 493.204Z" stroke="#E1F1FF" stroke-width="2.6875" stroke-miterlimit="10"/>
<path opacity="0.8" d="M-22.6557 522.777C-3.63501 522.777 11.7843 507.358 11.7843 488.337C11.7843 469.317 -3.63501 453.897 -22.6557 453.897C-41.6764 453.897 -57.0957 469.317 -57.0957 488.337C-57.0957 507.358 -41.6764 522.777 -22.6557 522.777Z" stroke="#E1F1FF" stroke-width="2.8438" stroke-miterlimit="10"/>
<path opacity="0.8" d="M4.61222 490.538C5.81108 475.488 -5.41798 462.315 -20.4686 461.116C-35.5192 459.917 -48.692 471.146 -49.8908 486.197C-51.0897 501.247 -39.8606 514.42 -24.81 515.619C-9.75941 516.818 3.41337 505.589 4.61222 490.538Z" stroke="#E1F1FF" stroke-width="3" stroke-miterlimit="10"/>
<path opacity="0.89" d="M166.898 1255.8C211.577 1255.8 247.796 1219.58 247.796 1174.9C247.796 1130.22 211.577 1094 166.898 1094C122.219 1094 86 1130.22 86 1174.9C86 1219.58 122.219 1255.8 166.898 1255.8Z" stroke="#D9FFE6" stroke-width="0.8127" stroke-linecap="round" stroke-linejoin="round"/>
<path opacity="0.89" d="M166.898 1249.9C208.319 1249.9 241.897 1216.32 241.897 1174.9C241.897 1133.48 208.319 1099.9 166.898 1099.9C125.478 1099.9 91.8994 1133.48 91.8994 1174.9C91.8994 1216.32 125.478 1249.9 166.898 1249.9Z" stroke="#D9FFE6" stroke-width="0.9493" stroke-linecap="round" stroke-linejoin="round"/>
<path opacity="0.89" d="M166.898 1244C205.061 1244 235.998 1213.06 235.998 1174.9C235.998 1136.73 205.061 1105.8 166.898 1105.8C128.735 1105.8 97.7979 1136.73 97.7979 1174.9C97.7979 1213.06 128.735 1244 166.898 1244Z" stroke="#D9FFE6" stroke-width="1.0859" stroke-linecap="round" stroke-linejoin="round"/>
<path opacity="0.89" d="M166.898 1238.1C201.803 1238.1 230.099 1209.8 230.099 1174.9C230.099 1139.99 201.803 1111.7 166.898 1111.7C131.993 1111.7 103.697 1139.99 103.697 1174.9C103.697 1209.8 131.993 1238.1 166.898 1238.1Z" stroke="#D9FFE6" stroke-width="1.2225" stroke-linecap="round" stroke-linejoin="round"/>
<path opacity="0.89" d="M166.898 1232.2C198.545 1232.2 224.2 1206.54 224.2 1174.9C224.2 1143.25 198.545 1117.6 166.898 1117.6C135.251 1117.6 109.596 1143.25 109.596 1174.9C109.596 1206.54 135.251 1232.2 166.898 1232.2Z" stroke="#D9FFE6" stroke-width="1.3591" stroke-linecap="round" stroke-linejoin="round"/>
<path opacity="0.89" d="M166.898 1226.3C195.287 1226.3 218.301 1203.29 218.301 1174.9C218.301 1146.51 195.287 1123.5 166.898 1123.5C138.509 1123.5 115.495 1146.51 115.495 1174.9C115.495 1203.29 138.509 1226.3 166.898 1226.3Z" stroke="#D9FFE6" stroke-width="1.4956" stroke-linecap="round" stroke-linejoin="round"/>
<path opacity="0.89" d="M166.898 1220.4C192.028 1220.4 212.401 1200.03 212.401 1174.9C212.401 1149.77 192.028 1129.4 166.898 1129.4C141.767 1129.4 121.395 1149.77 121.395 1174.9C121.395 1200.03 141.767 1220.4 166.898 1220.4Z" stroke="#D9FFE6" stroke-width="1.6322" stroke-linecap="round" stroke-linejoin="round"/>
<path opacity="0.89" d="M166.898 1214.5C188.771 1214.5 206.502 1196.77 206.502 1174.9C206.502 1153.03 188.771 1135.29 166.898 1135.29C145.025 1135.29 127.294 1153.03 127.294 1174.9C127.294 1196.77 145.025 1214.5 166.898 1214.5Z" stroke="#D9FFE6" stroke-width="1.7688" stroke-linecap="round" stroke-linejoin="round"/>
<path opacity="0.89" d="M166.898 1208.6C185.513 1208.6 200.603 1193.51 200.603 1174.9C200.603 1156.28 185.513 1141.19 166.898 1141.19C148.284 1141.19 133.193 1156.28 133.193 1174.9C133.193 1193.51 148.284 1208.6 166.898 1208.6Z" stroke="#D9FFE6" stroke-width="1.9054" stroke-linecap="round" stroke-linejoin="round"/>
<path opacity="0.89" d="M166.898 1202.7C182.255 1202.7 194.704 1190.25 194.704 1174.9C194.704 1159.54 182.255 1147.09 166.898 1147.09C151.541 1147.09 139.092 1159.54 139.092 1174.9C139.092 1190.25 151.541 1202.7 166.898 1202.7Z" stroke="#D9FFE6" stroke-width="2.042" stroke-linecap="round" stroke-linejoin="round"/>
<path opacity="0.89" d="M166.898 1196.8C178.997 1196.8 188.805 1187 188.805 1174.9C188.805 1162.8 178.997 1152.99 166.898 1152.99C154.799 1152.99 144.991 1162.8 144.991 1174.9C144.991 1187 154.799 1196.8 166.898 1196.8Z" stroke="#D9FFE6" stroke-width="2.1786" stroke-linecap="round" stroke-linejoin="round"/>
<path opacity="0.89" d="M166.898 1190.91C175.739 1190.91 182.906 1183.74 182.906 1174.9C182.906 1166.06 175.739 1158.89 166.898 1158.89C158.057 1158.89 150.89 1166.06 150.89 1174.9C150.89 1183.74 158.057 1190.91 166.898 1190.91Z" stroke="#D9FFE6" stroke-width="2.3152" stroke-linecap="round" stroke-linejoin="round"/>
<path opacity="0.79" d="M57.6538 937.654C93.6727 901.635 93.6727 843.237 57.6539 807.218C21.635 771.199 -36.7632 771.199 -72.7821 807.218C-108.801 843.237 -108.801 901.635 -72.782 937.654C-36.7632 973.673 21.635 973.673 57.6538 937.654Z" stroke="#FFD9D9" stroke-width="0.5" stroke-miterlimit="10"/>
<path opacity="0.79" d="M53.058 933.059C86.5388 899.578 86.5389 845.294 53.058 811.814C19.5771 778.333 -34.7062 778.333 -68.1871 811.814C-101.668 845.294 -101.668 899.578 -68.1871 933.059C-34.7062 966.539 19.5771 966.539 53.058 933.059Z" stroke="#FFD9D9" stroke-width="0.7273" stroke-miterlimit="10"/>
<path opacity="0.79" d="M-7.55701 951.669C36.2033 951.669 71.678 916.195 71.678 872.434C71.678 828.674 36.2033 793.199 -7.55701 793.199C-51.3173 793.199 -86.792 828.674 -86.792 872.434C-86.792 916.195 -51.3173 951.669 -7.55701 951.669Z" stroke="#FFD9D9" stroke-width="0.9545" stroke-miterlimit="10"/>
<path opacity="0.79" d="M-7.55701 945.17C32.614 945.17 65.179 912.605 65.179 872.434C65.179 832.263 32.614 799.698 -7.55701 799.698C-47.728 799.698 -80.293 832.263 -80.293 872.434C-80.293 912.605 -47.728 945.17 -7.55701 945.17Z" stroke="#FFD9D9" stroke-width="1.1818" stroke-miterlimit="10"/>
<path opacity="0.79" d="M-7.55695 938.671C29.0247 938.671 58.6801 909.016 58.6801 872.434C58.6801 835.853 29.0247 806.197 -7.55695 806.197C-44.1386 806.197 -73.7939 835.853 -73.7939 872.434C-73.7939 909.016 -44.1386 938.671 -7.55695 938.671Z" stroke="#FFD9D9" stroke-width="1.4091" stroke-miterlimit="10"/>
<path opacity="0.79" d="M-7.55695 932.172C25.4354 932.172 52.1811 905.427 52.1811 872.434C52.1811 839.442 25.4354 812.696 -7.55695 812.696C-40.5493 812.696 -67.2949 839.442 -67.2949 872.434C-67.2949 905.427 -40.5493 932.172 -7.55695 932.172Z" stroke="#FFD9D9" stroke-width="1.6364" stroke-miterlimit="10"/>
<path opacity="0.79" d="M-7.55688 925.673C21.8462 925.673 45.6821 901.837 45.6821 872.434C45.6821 843.031 21.8462 819.195 -7.55688 819.195C-36.96 819.195 -60.7959 843.031 -60.7959 872.434C-60.7959 901.837 -36.96 925.673 -7.55688 925.673Z" stroke="#FFD9D9" stroke-width="1.8636" stroke-miterlimit="10"/>
<path opacity="0.79" d="M-7.55688 919.174C18.2569 919.174 39.1831 898.248 39.1831 872.434C39.1831 846.62 18.2569 825.694 -7.55688 825.694C-33.3707 825.694 -54.2969 846.62 -54.2969 872.434C-54.2969 898.248 -33.3707 919.174 -7.55688 919.174Z" stroke="#FFD9D9" stroke-width="2.0909" stroke-miterlimit="10"/>
<path opacity="0.79" d="M-7.55688 912.675C14.6676 912.675 32.6841 894.659 32.6841 872.434C32.6841 850.21 14.6676 832.193 -7.55688 832.193C-29.7814 832.193 -47.7979 850.21 -47.7979 872.434C-47.7979 894.659 -29.7814 912.675 -7.55688 912.675Z" stroke="#FFD9D9" stroke-width="2.3182" stroke-miterlimit="10"/>
<path opacity="0.79" d="M-7.55682 906.176C11.0784 906.176 26.1852 891.069 26.1852 872.434C26.1852 853.799 11.0784 838.692 -7.55682 838.692C-26.192 838.692 -41.2988 853.799 -41.2988 872.434C-41.2988 891.069 -26.192 906.176 -7.55682 906.176Z" stroke="#FFD9D9" stroke-width="2.5454" stroke-miterlimit="10"/>
<path opacity="0.79" d="M-7.55682 899.677C7.48907 899.677 19.6862 887.48 19.6862 872.434C19.6862 857.388 7.48907 845.191 -7.55682 845.191C-22.6027 845.191 -34.7998 857.388 -34.7998 872.434C-34.7998 887.48 -22.6027 899.677 -7.55682 899.677Z" stroke="#FFD9D9" stroke-width="2.7727" stroke-miterlimit="10"/>
<path opacity="0.79" d="M-7.55676 893.178C3.89983 893.178 13.1873 883.891 13.1873 872.434C13.1873 860.978 3.89983 851.69 -7.55676 851.69C-19.0134 851.69 -28.3008 860.978 -28.3008 872.434C-28.3008 883.891 -19.0134 893.178 -7.55676 893.178Z" stroke="#FFD9D9" stroke-width="3" stroke-miterlimit="10"/>
</svg>
