<?xml version="1.0" standalone="no"?>
<!DOCTYPE svg PUBLIC "-//W3C//DTD SVG 20010904//EN"
 "http://www.w3.org/TR/2001/REC-SVG-20010904/DTD/svg10.dtd">
<svg version="1.0" xmlns="http://www.w3.org/2000/svg"
 width="700.000000pt" height="700.000000pt" viewBox="0 0 700.000000 700.000000"
 preserveAspectRatio="xMidYMid meet">
<metadata>
Created by potrace 1.11, written by Peter Selinger 2001-2013
</metadata>
<g transform="translate(0.000000,700.000000) scale(0.100000,-0.100000)"
fill="#000000" stroke="none">
<path d="M3737 6764 c-1 -1 -33 -5 -72 -8 -221 -18 -436 -93 -635 -222 -109
-70 -138 -94 -234 -184 -133 -127 -266 -311 -356 -497 -82 -167 -98 -138 121
-225 182 -73 189 -75 195 -54 11 35 89 188 126 246 80 125 199 255 308 337
115 87 302 168 437 190 26 4 111 8 188 7 149 0 225 -15 364 -70 241 -95 450
-285 593 -539 25 -44 53 -102 63 -128 10 -26 22 -50 26 -53 6 -3 150 49 361
131 15 6 14 12 -10 68 -166 392 -450 695 -805 862 -156 73 -296 113 -461 131
-58 6 -205 12 -209 8z"/>
<path d="M1112 2716 l3 -2271 1688 -1 1689 0 916 915 917 916 1 498 2 497
-1066 -2 -1066 -3 -1 -197 c0 -124 4 -199 10 -201 6 -2 394 -3 863 -2 l852 0
1 -25 c0 -14 2 -106 3 -205 l2 -180 -801 -803 -801 -803 -1375 0 c-756 0
-1388 0 -1404 0 l-31 1 0 1865 c0 1273 4 1865 11 1866 5 0 995 1 2198 1 1534
1 2191 -2 2195 -9 4 -6 6 -145 5 -310 -1 -164 0 -307 2 -318 4 -19 11 -20 197
-18 106 0 196 2 199 2 3 1 6 238 5 529 l-1 527 -2608 1 -2607 1 2 -2271z"/>
<path d="M2235 3340 c-2 -8 -4 -246 -3 -527 l1 -513 528 0 529 0 -2 527 -3
528 -523 0 c-456 0 -523 -2 -527 -15z"/>
</g>
</svg>
