<svg width="25" height="19" viewBox="0 0 25 19" fill="none" xmlns="http://www.w3.org/2000/svg">
<path d="M15.4459 6.51438C15.2428 6.30854 14.9125 6.30854 14.7094 6.51438C14.5063 6.72023 14.5063 7.05591 14.7094 7.26071C15.299 7.85819 15.625 8.65306 15.625 9.49963C15.625 11.2456 14.2229 12.6664 12.5 12.6664C11.6646 12.6664 10.8803 12.3371 10.2907 11.7385C10.0875 11.5327 9.75732 11.5327 9.55419 11.7385C9.35107 11.9434 9.35107 12.279 9.55419 12.4849C10.3396 13.2829 11.3865 13.722 12.5 13.722C14.7979 13.722 16.6667 11.8283 16.6667 9.49968C16.6667 8.37116 16.2334 7.31029 15.4459 6.51438Z" fill="#828282"/>
<path d="M13.2261 5.35004C12.9896 5.30784 12.7479 5.27721 12.5 5.27721C10.2021 5.27721 8.3334 7.17095 8.3334 9.49958C8.3334 9.7508 8.36362 9.99573 8.4063 10.2353C8.45107 10.4908 8.6709 10.6713 8.91777 10.6713C8.94799 10.6713 8.97817 10.6692 9.00942 10.6628C9.29169 10.6122 9.48129 10.3377 9.43129 10.0516C9.39902 9.87217 9.37504 9.68959 9.37504 9.49958C9.37504 7.75364 10.7771 6.33279 12.5 6.33279C12.6875 6.33279 12.8678 6.35708 13.0448 6.38875C13.3219 6.44575 13.5979 6.24729 13.6479 5.96124C13.6979 5.67519 13.5084 5.40071 13.2261 5.35004Z" fill="#828282"/>
<path d="M24.876 9.15866C24.7583 9.01719 21.9406 5.68469 18.0542 3.64423C17.8021 3.51019 17.4844 3.61153 17.3521 3.8712C17.2198 4.12984 17.3198 4.4486 17.576 4.58269C20.5698 6.15342 22.9614 8.60452 23.7792 9.49968C22.5375 10.8624 17.651 15.8333 12.5 15.8333C10.7521 15.8333 8.99067 15.4057 7.26255 14.5612C7.0063 14.4335 6.69278 14.5444 6.56778 14.8072C6.44175 15.069 6.55113 15.3846 6.8105 15.5113C8.68027 16.4265 10.5949 16.8888 12.5001 16.8888C18.9178 16.8888 24.6365 10.1288 24.8771 9.8406C25.0417 9.64421 25.0406 9.35604 24.876 9.15866Z" fill="#828282"/>
<path d="M15.9178 2.71844C14.7324 2.31413 13.5824 2.11042 12.5 2.11042C6.08233 2.11042 0.363595 8.87048 0.122971 9.15866C-0.0291283 9.3402 -0.0416283 9.60413 0.0938205 9.80151C0.165695 9.90602 1.88757 12.3835 4.87193 14.3923C4.96046 14.4525 5.05943 14.481 5.15943 14.481C5.32716 14.481 5.49278 14.3987 5.59278 14.2435C5.75215 14.0018 5.68653 13.6735 5.44693 13.513C3.25529 12.0362 1.75529 10.2533 1.19382 9.52813C2.39279 8.20862 7.31153 3.16605 12.5 3.16605C13.4698 3.16605 14.5084 3.35185 15.5854 3.71811C15.8583 3.81732 16.1542 3.66427 16.2448 3.38664C16.3365 3.11009 16.1907 2.81137 15.9178 2.71844Z" fill="#828282"/>
<path d="M21.7219 0.154381C21.5188 -0.0514603 21.1885 -0.0514603 20.9854 0.154381L3.27716 18.0995C3.07404 18.3054 3.07404 18.64 3.27716 18.8459C3.37926 18.9482 3.51256 19 3.64591 19C3.77926 19 3.91256 18.9483 4.01363 18.8459L21.7219 0.900704C21.925 0.694863 21.925 0.360222 21.7219 0.154381Z" fill="#828282"/>
</svg>
