<svg width="19" height="19" viewBox="0 0 19 19" fill="none" xmlns="http://www.w3.org/2000/svg">
<path d="M18.4137 0.584818L18.4144 0.585429C18.4977 0.668776 18.5226 0.793765 18.4785 0.901828L11.3535 18.3183L11.3535 18.3183C11.3084 18.4286 11.2003 18.5 11.0832 18.5C11.0761 18.5 11.0653 18.4996 11.0493 18.4983C10.9215 18.4828 10.8196 18.3864 10.797 18.2611L10.7969 18.2605L9.31091 10.0913L9.24896 9.75074L8.90841 9.68883L0.739685 8.20377C0.73966 8.20376 0.739635 8.20376 0.73961 8.20375C0.611674 8.18031 0.515151 8.07577 0.501776 7.9472L0.501654 7.94605C0.488063 7.8183 0.560399 7.69593 0.681119 7.64612C0.681236 7.64607 0.681354 7.64602 0.681471 7.64597L18.0958 0.521965C18.096 0.521882 18.0962 0.5218 18.0964 0.521717C18.2079 0.47686 18.3323 0.503094 18.4137 0.584818Z" stroke="#828282"/>
</svg>
