<svg width="66" height="48" viewBox="0 0 66 48" fill="none" xmlns="http://www.w3.org/2000/svg">
<path fill-rule="evenodd" clip-rule="evenodd" d="M33.0739 22.7088C34.8776 23.4046 36.6022 24.3154 38.2161 25.4332C39.3843 26.2415 39.6703 27.8367 38.8561 28.996C38.0414 30.1552 36.4346 30.4397 35.2669 29.6308C32.0069 27.3738 28.174 26.1805 24.1829 26.1805C15.6051 26.1805 7.83442 31.6729 5.2865 39.5373C5.03171 40.3251 5.16666 41.1604 5.65761 41.8293C6.14857 42.4981 6.90791 42.8816 7.74127 42.8816H30.1685C31.592 42.8816 32.7461 44.0273 32.7461 45.4405C32.7461 46.8542 31.592 48 30.1685 48H7.74127C5.24169 48 2.96367 46.8497 1.49131 44.8442C0.0189565 42.8381 -0.386394 40.3326 0.378989 37.9701C2.68722 30.8456 8.3571 25.2592 15.3498 22.6583C12.7344 20.2713 11.0923 16.8485 11.0923 13.0513C11.0923 5.85478 16.9903 0 24.2393 0C29.7596 0 34.4954 3.39529 36.4406 8.19279C37.3249 10.4494 37.4731 11.7409 37.342 14.1156C37.065 17.5109 35.4733 20.5437 33.0739 22.7088ZM32.2305 13.0513C32.2305 8.67719 28.6458 5.11793 24.2393 5.11793C19.8328 5.11793 16.2481 8.67719 16.2481 13.0513C16.2481 17.4259 19.8328 20.9846 24.2393 20.9846C28.6458 20.9846 32.2305 17.4259 32.2305 13.0513ZM63.4219 38.403C64.8459 38.403 66 37.2572 66 35.844C66 34.4303 64.8459 33.2846 63.4219 33.2846H56.333V26.247C56.333 24.8338 55.1789 23.6881 53.7554 23.6881C52.3314 23.6881 51.1773 24.8338 51.1773 26.247V33.2846H44.0884C42.6649 33.2846 41.5108 34.4303 41.5108 35.844C41.5108 37.2572 42.6649 38.403 44.0884 38.403H51.1773V45.4405C51.1773 46.8542 52.3314 48 53.7554 48C55.1789 48 56.333 46.8542 56.333 45.4405V38.403H63.4219Z" fill="#B8B8B8"/>
</svg>
