<svg width="71" height="86" viewBox="0 0 71 86" fill="none" xmlns="http://www.w3.org/2000/svg">
<path d="M34.9631 41.4266C40.5948 41.4266 45.4708 39.3854 49.456 35.3581C53.4399 31.3314 55.4604 26.4046 55.4604 20.7126C55.4604 15.0227 53.4406 10.0952 49.4554 6.06721C45.4702 2.04121 40.5942 0 34.9631 0C29.3307 0 24.4553 2.04121 20.4708 6.06787C16.4862 10.0945 14.4657 15.022 14.4657 20.7126C14.4657 26.4046 16.4862 31.3321 20.4708 35.3587C24.4566 39.3847 29.3326 41.4266 34.9631 41.4266ZM23.9976 9.6313C27.055 6.5416 30.6415 5.03972 34.9631 5.03972C39.2839 5.03972 42.8711 6.5416 45.9292 9.6313C48.9866 12.7217 50.4734 16.3468 50.4734 20.7126C50.4734 25.0798 48.9866 28.7043 45.9292 31.7946C42.8711 34.885 39.2839 36.3869 34.9631 36.3869C30.6428 36.3869 27.0563 34.8844 23.9976 31.7946C20.9395 28.7049 19.4527 25.0798 19.4527 20.7126C19.4527 16.3468 20.9395 12.7217 23.9976 9.6313Z" fill="#AEAEAE"/>
<path d="M70.8279 66.1298C70.713 64.4541 70.4806 62.6261 70.1384 60.6958C69.793 58.751 69.3483 56.9125 68.8159 55.2322C68.2653 53.4954 67.518 51.7803 66.5928 50.1367C65.6338 48.4308 64.5067 46.9453 63.2419 45.7229C61.9193 44.4441 60.3001 43.416 58.4276 42.666C56.5616 41.92 54.4937 41.5421 52.2816 41.5421C51.4129 41.5421 50.5727 41.9023 48.9502 42.9698C47.9517 43.6279 46.7836 44.389 45.4799 45.2308C44.3651 45.9486 42.8549 46.6212 40.9896 47.2301C39.1697 47.8252 37.3218 48.127 35.4974 48.127C33.6743 48.127 31.8264 47.8252 30.0052 47.2301C28.1419 46.6218 26.631 45.9493 25.5182 45.2315C24.2268 44.3976 23.0581 43.6364 22.0446 42.9692C20.4234 41.9016 19.5832 41.5414 18.7145 41.5414C16.5018 41.5414 14.4345 41.92 12.5692 42.6667C10.698 43.4153 9.07806 44.4435 7.7542 45.7236C6.48943 46.9466 5.3623 48.4314 4.40398 50.1367C3.48007 51.7803 2.73212 53.4948 2.18154 55.2328C1.64979 56.9132 1.20504 58.751 0.85963 60.6958C0.516817 62.6235 0.285028 64.4521 0.170108 66.1318C0.0571355 67.7741 0 69.4833 0 71.2102C0 75.6994 1.41216 79.3337 4.19687 82.014C6.94716 84.6589 10.5857 86 15.0117 86H55.9883C60.413 86 64.0515 84.6589 66.8025 82.014C69.5878 79.3357 71 75.7001 71 71.2096C70.9994 69.4767 70.9416 67.7675 70.8279 66.1298ZM63.364 78.3627C61.5467 80.1106 59.134 80.9603 55.9876 80.9603H15.0117C11.8647 80.9603 9.45204 80.1106 7.63539 78.3633C5.85315 76.6489 4.98702 74.3085 4.98702 71.2102C4.98702 69.5988 5.03961 68.0077 5.1448 66.4802C5.24738 64.9816 5.45709 63.3354 5.76809 61.5861C6.0752 59.8586 6.46606 58.2373 6.93093 56.7695C7.37698 55.3621 7.98534 53.9685 8.73979 52.6261C9.45983 51.3466 10.2883 50.2489 11.2025 49.3644C12.0575 48.5371 13.1353 47.8599 14.4053 47.3521C15.5798 46.8823 16.8998 46.6251 18.3327 46.5864C18.5074 46.6802 18.8184 46.8593 19.3222 47.1913C20.3474 47.8665 21.5291 48.6368 22.8354 49.4799C24.3079 50.4287 26.2051 51.2856 28.4717 52.025C30.7889 52.7822 33.1522 53.1667 35.4981 53.1667C37.8439 53.1667 40.2078 52.7822 42.5238 52.0257C44.7923 51.2849 46.6888 50.4287 48.1633 49.4786C49.5002 48.6151 50.6487 47.8672 51.6739 47.1913C52.1777 46.86 52.4887 46.6802 52.6634 46.5864C54.097 46.6251 55.4169 46.8823 56.5921 47.3521C57.8614 47.8599 58.9392 48.5377 59.7943 49.3644C60.7085 50.2482 61.5369 51.3459 62.257 52.6267C63.0121 53.9685 63.6211 55.3628 64.0665 56.7688C64.532 58.2386 64.9235 59.8592 65.23 61.5855C65.5403 63.338 65.7507 64.9849 65.8533 66.4809V66.4822C65.9591 68.0037 66.0123 69.5942 66.013 71.2102C66.0123 74.3091 65.1462 76.6489 63.364 78.3627Z" fill="#AEAEAE"/>
</svg>
