<svg width="18" height="22" viewBox="0 0 18 22" fill="none" xmlns="http://www.w3.org/2000/svg">
<path d="M16.7037 3.0535H12.6656V1.29536C12.6656 1.21702 12.6344 1.1419 12.5788 1.08651C12.5233 1.03112 12.4479 1 12.3693 1H5.63069C5.55212 1.00004 5.47678 1.03118 5.42122 1.08656C5.36567 1.14194 5.33444 1.21704 5.33439 1.29536V3.0535H1.2963C1.21771 3.0535 1.14235 3.08462 1.08678 3.14001C1.03122 3.1954 1 3.27053 1 3.34886V5.48236C1.00004 5.56068 1.03128 5.63578 1.08683 5.69116C1.14239 5.74654 1.21773 5.77768 1.2963 5.77772H2.01113L2.82044 20.7205C2.82456 20.796 2.85753 20.867 2.91258 20.919C2.96763 20.971 3.04057 21 3.1164 21H14.8836C14.9594 21 15.0324 20.971 15.0874 20.919C15.1424 20.867 15.1754 20.796 15.1794 20.7205L15.9889 5.77772H16.7037C16.7823 5.77772 16.8576 5.7466 16.9132 5.69121C16.9688 5.63582 17 5.5607 17 5.48236V3.34886C17 3.31007 16.9924 3.27165 16.9775 3.23581C16.9626 3.19996 16.9408 3.16739 16.9133 3.13996C16.8857 3.11253 16.8531 3.09078 16.8171 3.07594C16.7812 3.0611 16.7426 3.05348 16.7037 3.0535ZM5.92698 1.59072H12.073V3.0535H5.92698V1.59072ZM14.6029 20.4093H3.39712L2.60457 5.77772H15.3956L14.6029 20.4093ZM16.4074 5.187H1.59259V3.64422H5.63069C5.63069 3.64422 5.63441 3.64422 5.63644 3.64422H12.3693C12.3693 3.64422 12.3732 3.64422 12.3751 3.64422H16.4074V5.187Z" fill="#777777"/>
<path d="M6.06531 16.4952C6.14388 16.4951 6.21922 16.464 6.27478 16.4086C6.33033 16.3533 6.36156 16.2782 6.36161 16.1998V9.08726C6.36161 9.00892 6.33039 8.9338 6.27483 8.87841C6.21926 8.82302 6.14389 8.7919 6.06531 8.7919C5.98673 8.7919 5.91137 8.82302 5.8558 8.87841C5.80023 8.9338 5.76902 9.00892 5.76902 9.08726V16.1998C5.76902 16.2782 5.80023 16.3533 5.8558 16.4087C5.91137 16.4641 5.98673 16.4952 6.06531 16.4952Z" fill="#777777"/>
<path d="M9 16.4952C9.07857 16.4951 9.15391 16.464 9.20946 16.4086C9.26502 16.3533 9.29625 16.2782 9.2963 16.1998V9.08726C9.2963 9.00892 9.26508 8.9338 9.20951 8.87841C9.15395 8.82302 9.07858 8.7919 9 8.7919C8.92142 8.7919 8.84605 8.82302 8.79049 8.87841C8.73492 8.9338 8.7037 9.00892 8.7037 9.08726V16.1998C8.70375 16.2782 8.73498 16.3533 8.79054 16.4086C8.84609 16.464 8.92143 16.4951 9 16.4952Z" fill="#777777"/>
<path d="M11.9347 16.4952C12.0133 16.4952 12.0886 16.4641 12.1442 16.4087C12.1998 16.3533 12.231 16.2782 12.231 16.1998V9.08726C12.231 9.00892 12.1998 8.9338 12.1442 8.87841C12.0886 8.82302 12.0133 8.7919 11.9347 8.7919C11.8561 8.7919 11.7807 8.82302 11.7252 8.87841C11.6696 8.9338 11.6384 9.00892 11.6384 9.08726V16.1998C11.6384 16.2782 11.6696 16.3533 11.7252 16.4087C11.7807 16.4641 11.8561 16.4952 11.9347 16.4952Z" fill="#777777"/>
<path d="M16.7037 3.0535H12.6656V1.29536C12.6656 1.21702 12.6344 1.1419 12.5788 1.08651C12.5233 1.03112 12.4479 1 12.3693 1H5.63069C5.55212 1.00004 5.47678 1.03118 5.42122 1.08656C5.36567 1.14194 5.33444 1.21704 5.33439 1.29536V3.0535H1.2963C1.21771 3.0535 1.14235 3.08462 1.08678 3.14001C1.03122 3.1954 1 3.27053 1 3.34886V5.48236C1.00004 5.56068 1.03128 5.63578 1.08683 5.69116C1.14239 5.74654 1.21773 5.77768 1.2963 5.77772H2.01113L2.82044 20.7205C2.82456 20.796 2.85753 20.867 2.91258 20.919C2.96763 20.971 3.04057 21 3.1164 21H14.8836C14.9594 21 15.0324 20.971 15.0874 20.919C15.1424 20.867 15.1754 20.796 15.1794 20.7205L15.9889 5.77772H16.7037C16.7823 5.77772 16.8576 5.7466 16.9132 5.69121C16.9688 5.63582 17 5.5607 17 5.48236V3.34886C17 3.31007 16.9924 3.27165 16.9775 3.23581C16.9626 3.19996 16.9408 3.16739 16.9133 3.13996C16.8857 3.11253 16.8531 3.09078 16.8171 3.07594C16.7812 3.0611 16.7426 3.05348 16.7037 3.0535ZM5.92698 1.59072H12.073V3.0535H5.92698V1.59072ZM14.6029 20.4093H3.39712L2.60457 5.77772H15.3956L14.6029 20.4093ZM16.4074 5.187H1.59259V3.64422H5.63069C5.63069 3.64422 5.63441 3.64422 5.63644 3.64422H12.3693C12.3693 3.64422 12.3732 3.64422 12.3751 3.64422H16.4074V5.187Z" stroke="#777777" stroke-width="0.5"/>
<path d="M6.06531 16.4952C6.14388 16.4951 6.21922 16.464 6.27478 16.4086C6.33033 16.3533 6.36156 16.2782 6.36161 16.1998V9.08726C6.36161 9.00892 6.33039 8.9338 6.27483 8.87841C6.21926 8.82302 6.14389 8.7919 6.06531 8.7919C5.98673 8.7919 5.91137 8.82302 5.8558 8.87841C5.80023 8.9338 5.76902 9.00892 5.76902 9.08726V16.1998C5.76902 16.2782 5.80023 16.3533 5.8558 16.4087C5.91137 16.4641 5.98673 16.4952 6.06531 16.4952Z" stroke="#777777" stroke-width="0.5"/>
<path d="M9 16.4952C9.07857 16.4951 9.15391 16.464 9.20946 16.4086C9.26502 16.3533 9.29625 16.2782 9.2963 16.1998V9.08726C9.2963 9.00892 9.26508 8.9338 9.20951 8.87841C9.15395 8.82302 9.07858 8.7919 9 8.7919C8.92142 8.7919 8.84605 8.82302 8.79049 8.87841C8.73492 8.9338 8.7037 9.00892 8.7037 9.08726V16.1998C8.70375 16.2782 8.73498 16.3533 8.79054 16.4086C8.84609 16.464 8.92143 16.4951 9 16.4952Z" stroke="#777777" stroke-width="0.5"/>
<path d="M11.9347 16.4952C12.0133 16.4952 12.0886 16.4641 12.1442 16.4087C12.1998 16.3533 12.231 16.2782 12.231 16.1998V9.08726C12.231 9.00892 12.1998 8.9338 12.1442 8.87841C12.0886 8.82302 12.0133 8.7919 11.9347 8.7919C11.8561 8.7919 11.7807 8.82302 11.7252 8.87841C11.6696 8.9338 11.6384 9.00892 11.6384 9.08726V16.1998C11.6384 16.2782 11.6696 16.3533 11.7252 16.4087C11.7807 16.4641 11.8561 16.4952 11.9347 16.4952Z" stroke="#777777" stroke-width="0.5"/>
</svg>
