<svg width="33" height="28" viewBox="0 0 33 28" fill="none" xmlns="http://www.w3.org/2000/svg">
<path d="M26.1017 4.18535C25.5627 3.62071 24.8184 3.28706 23.9715 3.28706H19.711V3.23573C19.711 2.59409 19.4544 1.97812 19.0181 1.56748C18.5817 1.13117 17.9914 0.874512 17.3498 0.874512H9.65019C8.98289 0.874512 8.39259 1.13117 7.95627 1.56748C7.51996 2.00379 7.26331 2.59409 7.26331 3.23573V3.28706H3.02852C2.18156 3.28706 1.43726 3.62071 0.898289 4.18535C0.359316 4.72432 0 5.49428 0 6.31558V19.0969C0 19.9439 0.33365 20.6882 0.898289 21.2272C1.43726 21.7661 2.20722 22.1255 3.02852 22.1255H23.9715C24.8184 22.1255 25.5627 21.7918 26.1017 21.2272C26.6407 20.6882 27 19.9182 27 19.0969V6.31558C27 5.46862 26.6663 4.72432 26.1017 4.18535ZM25.6654 19.0969H25.6397C25.6397 19.5589 25.4601 19.9696 25.1521 20.2776C24.8441 20.5855 24.4335 20.7652 23.9715 20.7652H3.02852C2.56654 20.7652 2.15589 20.5855 1.84791 20.2776C1.53992 19.9696 1.36027 19.5589 1.36027 19.0969V6.31558C1.36027 5.8536 1.53992 5.44295 1.84791 5.13497C2.15589 4.82698 2.56654 4.64733 3.02852 4.64733H7.98194C8.36692 4.64733 8.6749 4.33934 8.6749 3.95436V3.21006C8.6749 2.92774 8.77757 2.67109 8.95722 2.49143C9.13688 2.31177 9.39354 2.20911 9.67586 2.20911H17.3498C17.6321 2.20911 17.8888 2.31177 18.0684 2.49143C18.2481 2.67109 18.3508 2.92774 18.3508 3.21006V3.95436C18.3508 4.33934 18.6587 4.64733 19.0437 4.64733H23.9971C24.4591 4.64733 24.8698 4.82698 25.1778 5.13497C25.4857 5.44295 25.6654 5.8536 25.6654 6.31558V19.0969Z" fill="black"/>
<path d="M13.5 6.39259C11.7547 6.39259 10.1635 7.11122 9.03421 8.2405C7.87927 9.39544 7.1863 10.961 7.1863 12.7063C7.1863 14.4515 7.90493 16.0428 9.03421 17.1721C10.1892 18.327 11.7547 19.02 13.5 19.02C15.2452 19.02 16.8365 18.3013 17.9658 17.1721C19.1207 16.0171 19.8137 14.4515 19.8137 12.7063C19.8137 10.961 19.0951 9.36977 17.9658 8.2405C16.8365 7.11122 15.2452 6.39259 13.5 6.39259ZM16.9905 16.2224C16.0922 17.0951 14.8603 17.6597 13.5 17.6597C12.1397 17.6597 10.9078 17.0951 10.0095 16.2224C9.11121 15.3242 8.57223 14.0922 8.57223 12.7319C8.57223 11.3717 9.13687 10.1397 10.0095 9.24145C10.9078 8.34316 12.1397 7.80418 13.5 7.80418C14.8603 7.80418 16.0922 8.36882 16.9905 9.24145C17.8888 10.1397 18.4278 11.3717 18.4278 12.7319C18.4534 14.0922 17.8888 15.3242 16.9905 16.2224Z" fill="black"/>
<path d="M22.6367 8.88204C23.3312 8.88204 23.8943 8.31899 23.8943 7.62444C23.8943 6.92988 23.3312 6.36683 22.6367 6.36683C21.9421 6.36683 21.3791 6.92988 21.3791 7.62444C21.3791 8.31899 21.9421 8.88204 22.6367 8.88204Z" fill="black"/>
<circle cx="26" cy="21" r="7" fill="#F6F6F6"/>
<path d="M30.4525 20.2188H30.4531H26.7812V16.5538C26.7812 16.2522 26.537 16 26.2354 16H25.7655C25.464 16 25.2187 16.2522 25.2187 16.5538V20.2188H21.5469C21.2454 20.2188 21 20.4627 21 20.7644V21.237C21 21.5384 21.2454 21.7813 21.5469 21.7813H25.2188V25.4595C25.2188 25.761 25.464 26 25.7656 26H26.2354C26.5371 26 26.7813 25.7609 26.7813 25.4595V21.7813H30.4525C30.7541 21.7813 31 21.5383 31 21.237V20.7644C31 20.4627 30.7541 20.2188 30.4525 20.2188Z" fill="black"/>
</svg>
