<svg width="29" height="24" viewBox="0 0 29 24" fill="none" xmlns="http://www.w3.org/2000/svg">
<path d="M26.5154 19.7147H26.4897V19.8647C26.4897 20.3039 26.3253 20.6917 26.0442 20.9827C25.7632 21.2736 25.391 21.4418 24.9715 21.4418H4.02852C3.60899 21.4418 3.23677 21.2736 2.9558 20.9827C2.6747 20.6917 2.51027 20.3039 2.51027 19.8647V6.63285C2.51027 6.19365 2.6747 5.80584 2.9558 5.51484C3.23677 5.22396 3.60899 5.0558 4.02852 5.0558H8.98194C9.45462 5.0558 9.8249 4.66486 9.8249 4.18841V3.41787C9.8249 3.16012 9.91536 2.93316 10.0651 2.77813C10.2145 2.62346 10.4313 2.53164 10.6759 2.53164H18.3498C18.5944 2.53164 18.8112 2.62346 18.9606 2.77813C19.1103 2.93316 19.2008 3.16012 19.2008 3.41787V4.18841C19.2008 4.66486 19.571 5.0558 20.0437 5.0558H24.9971C25.4167 5.0558 25.7889 5.22396 26.0699 5.51484C26.351 5.80584 26.5154 6.19365 26.5154 6.63285V19.7147ZM19.2777 13.2754L19.2778 13.2781C19.3027 14.6432 18.7556 15.8805 17.8833 16.7839C17.0102 17.6616 15.8158 18.2268 14.5 18.2268C13.1842 18.2268 11.9898 17.6616 11.1167 16.7839C10.2458 15.882 9.72224 14.6443 9.72224 13.2754C9.72224 11.9082 10.2703 10.6692 11.1181 9.76527C11.9892 8.86387 13.1824 8.32391 14.5 8.32391C15.8158 8.32391 17.0102 8.88913 17.8833 9.76678C18.7542 10.6687 19.2778 11.9064 19.2777 13.2754ZM27.2096 4.32329C26.6431 3.71025 25.8601 3.34758 24.9715 3.34758H20.8593C20.8357 2.68232 20.5697 2.04641 20.1244 1.61156C19.6614 1.13304 19.0333 0.85 18.3498 0.85H10.6502C9.94111 0.85 9.31219 1.13302 8.84839 1.61318C8.40665 2.07048 8.13877 2.68156 8.11503 3.34758H4.02852C3.13928 3.34758 2.35579 3.71075 1.7892 4.32457C1.2258 4.90846 0.85 5.74168 0.85 6.63285V19.8647C0.85 20.7803 1.19872 21.589 1.79159 22.1755C2.35559 22.7587 3.16279 23.15 4.02852 23.15H24.9715C25.8607 23.15 26.6442 22.7868 27.2108 22.173C27.7742 21.5891 28.15 20.7559 28.15 19.8647V6.63285C28.15 5.71791 27.8018 4.90973 27.2096 4.32329ZM14.5 6.56256C12.7115 6.56256 11.082 7.32495 9.92633 8.52139C8.74474 9.74463 8.03631 11.4026 8.03631 13.2488C8.03631 15.0954 8.77071 16.7798 9.92633 17.9762C11.108 19.1995 12.7119 19.935 14.5 19.935C16.2885 19.935 17.918 19.1726 19.0737 17.9762C20.2553 16.753 20.9637 15.095 20.9637 13.2488C20.9637 11.4022 20.2293 9.71774 19.0737 8.52139C17.918 7.32495 16.2885 6.56256 14.5 6.56256ZM23.6369 9.43985C24.4191 9.43985 25.0445 8.78486 25.0445 7.98792C25.0445 7.19098 24.4191 6.53599 23.6369 6.53599C22.8546 6.53599 22.2293 7.19098 22.2293 7.98792C22.2293 8.78486 22.8546 9.43985 23.6369 9.43985Z" fill="#FD5742" stroke="#FD5742" stroke-width="0.3"/>
</svg>
