<svg width="20" height="14" viewBox="0 0 20 14" fill="none" xmlns="http://www.w3.org/2000/svg">
<path d="M0.344843 0.000976562C0.154414 0.000976562 0 0.155351 0 0.34578V12.7595C0 12.95 0.154414 13.1044 0.344843 13.1044H4.48276V0.000976562H0.344843Z" fill="#FF4B55"/>
<path d="M19.6552 0H15.5172V13.1034H19.6552C19.8456 13.1034 20 12.949 20 12.7586V0.344804C20 0.154375 19.8456 0 19.6552 0Z" fill="#FF4B55"/>
<path d="M12.0925 8.06585L14.1387 6.89663L13.6692 6.66187C13.5375 6.59601 13.4621 6.45382 13.4816 6.30784L13.6344 5.16246L12.7681 5.41449C12.5767 5.47019 12.3781 5.35246 12.3351 5.15789L12.2521 4.78289L11.4387 5.73484C11.3259 5.86679 11.1111 5.76601 11.1405 5.59492L11.4879 3.57508L10.9561 3.72054C10.8007 3.76304 10.6367 3.69234 10.5609 3.55023L10.0009 2.50059V2.49902L10.0005 2.4998L10.0001 2.49902V2.50059L9.44004 3.55023C9.36422 3.6923 9.20016 3.76301 9.04481 3.72054L8.51294 3.57508L8.86032 5.59492C8.88973 5.76593 8.67489 5.86675 8.56212 5.73484L7.74872 4.78289L7.66575 5.15789C7.6227 5.35249 7.42411 5.47015 7.23274 5.41449L6.36646 5.16246L6.51923 6.30784C6.53872 6.45378 6.46333 6.59601 6.33165 6.66187L5.86212 6.89663L7.90833 8.06589C8.12028 8.18702 8.21317 8.4439 8.12766 8.67253L7.95274 9.14038L9.70606 8.99069C9.80309 8.98241 9.88567 9.06053 9.88282 9.15784L9.82758 11.0346H10.1724L10.1172 9.15776C10.1143 9.06042 10.1969 8.98233 10.2939 8.99061L12.048 9.14038L11.8731 8.67253C11.7877 8.44386 11.8805 8.18694 12.0925 8.06585Z" fill="#FF4B55"/>
</svg>
