<svg width="19" height="16" viewBox="0 0 19 16" fill="none" xmlns="http://www.w3.org/2000/svg">
<path d="M15.1035 0H3.89648C1.74791 0 0 1.78755 0 3.98484V10.1394C0 11.8927 1.1256 13.4198 2.75668 13.9086L4.63853 15.8332C4.74304 15.94 4.88452 16 5.03223 16C5.1798 16 5.32143 15.94 5.4258 15.8332L7.15211 14.0676H15.1035C17.2521 14.0676 19 12.2801 19 10.0828V3.98484C19 1.78755 17.2521 0 15.1035 0ZM17.8867 10.0828C17.8867 11.6523 16.6382 12.9291 15.1035 12.9291H6.92162C6.77406 12.9291 6.63243 12.9891 6.52806 13.0959L5.03223 14.6256L3.43914 12.9964C3.36768 12.9233 3.27809 12.8714 3.17995 12.8465C1.96317 12.5368 1.11328 11.4237 1.11328 10.1394V3.98484C1.11328 2.41537 2.36181 1.13853 3.89648 1.13853H15.1035C16.6382 1.13853 17.8867 2.41537 17.8867 3.98484V10.0828Z" fill="black"/>
<path d="M13.0344 5.4584H5.96562C5.65816 5.4584 5.40898 5.71339 5.40898 6.02767C5.40898 6.34209 5.65816 6.59693 5.96562 6.59693H13.0344C13.3418 6.59693 13.591 6.34209 13.591 6.02767C13.591 5.71339 13.3418 5.4584 13.0344 5.4584Z" fill="black"/>
<path d="M13.0344 7.47069H5.96562C5.65816 7.47069 5.40898 7.72552 5.40898 8.03995C5.40898 8.35438 5.65816 8.60921 5.96562 8.60921H13.0344C13.3418 8.60921 13.591 8.35438 13.591 8.03995C13.591 7.72552 13.3418 7.47069 13.0344 7.47069Z" fill="black"/>
</svg>
