<svg width="100" height="100" viewBox="0 0 100 100" fill="none" xmlns="http://www.w3.org/2000/svg">
<path d="M61.6667 30.8335H5.00002C3.15898 30.8335 1.66669 32.3258 1.66669 34.1668V74.1668C1.66669 76.0079 3.15898 77.5002 5.00002 77.5002H13.3334V89.1668L25 77.5002H61.6667C63.5077 77.5002 65 76.0079 65 74.1668V34.1668C65 32.3258 63.5077 30.8335 61.6667 30.8335Z" fill="#FD5742"/>
<path d="M95 9.16687H38.3333C35.5719 9.16687 33.3333 11.4054 33.3333 14.1669V29.1669H5C2.23854 29.1669 0 31.4054 0 34.1669V74.1669C0 76.9283 2.23854 79.1669 5 79.1669H11.6667V89.1669C11.6669 90.0873 12.4131 90.8333 13.3337 90.8331C13.7756 90.8331 14.1992 90.6575 14.5117 90.3452L25.69 79.1669H61.6667C64.4281 79.1669 66.6667 76.9283 66.6667 74.1669V59.1669H74.31L85.4883 70.3452C86.1394 70.996 87.1946 70.9958 87.8454 70.3448C88.1577 70.0323 88.3333 69.6085 88.3333 69.1669V59.1669H95C97.7615 59.1669 100 56.9283 100 54.1669V14.1669C100 11.4054 97.7615 9.16687 95 9.16687ZM63.3333 74.1669C63.3333 75.0873 62.5871 75.8335 61.6667 75.8335H25C24.5579 75.8335 24.1342 76.0094 23.8217 76.3219L15 85.1435V77.5002C15 76.5798 14.2537 75.8335 13.3333 75.8335H5C4.07958 75.8335 3.33333 75.0873 3.33333 74.1669V34.1669C3.33333 33.2464 4.07958 32.5002 5 32.5002H61.6667C62.5871 32.5002 63.3333 33.2464 63.3333 34.1669V74.1669ZM96.6667 54.1669C96.6667 55.0873 95.9204 55.8335 95 55.8335H86.6667C85.7462 55.8335 85 56.5798 85 57.5002V65.1435L76.1783 56.3219C75.8658 56.0094 75.4421 55.8335 75 55.8335H66.6667V34.1669C66.6667 31.4054 64.4281 29.1669 61.6667 29.1669H36.6667V14.1669C36.6667 13.2465 37.4129 12.5002 38.3333 12.5002H95C95.9204 12.5002 96.6667 13.2465 96.6667 14.1669V54.1669Z" fill="#0E0F0F"/>
<path d="M10 42.5002H13.3333V45.8336H10V42.5002Z" fill="#0E0F0F"/>
<path d="M16.6667 42.5002H56.6667V45.8336H16.6667V42.5002Z" fill="#0E0F0F"/>
<path d="M10 52.5002H56.6667V55.8336H10V52.5002Z" fill="#0E0F0F"/>
<path d="M10 62.5002H56.6667V65.8336H10V62.5002Z" fill="#0E0F0F"/>
<path d="M50 19.1669H90V22.5002H50V19.1669Z" fill="#0E0F0F"/>
<path d="M70 29.1669H90V32.5002H70V29.1669Z" fill="#0E0F0F"/>
<path d="M70 39.1669H90V42.5002H70V39.1669Z" fill="#0E0F0F"/>
<path d="M43.3333 19.1669H46.6666V22.5002H43.3333V19.1669Z" fill="#0E0F0F"/>
</svg>
