<svg width="100" height="100" viewBox="0 0 100 100" fill="none" xmlns="http://www.w3.org/2000/svg">
<path d="M61.667 30.8335H5.00033C3.15928 30.8335 1.66699 32.3258 1.66699 34.1668V74.1668C1.66699 76.0079 3.15928 77.5002 5.00033 77.5002H13.3337V89.1668L25.0003 77.5002H61.667C63.508 77.5002 65.0003 76.0079 65.0003 74.1668V34.1668C65.0003 32.3258 63.508 30.8335 61.667 30.8335Z" fill="#FD5742"/>
<path d="M95 9.16699H38.3333C35.5719 9.16699 33.3333 11.4055 33.3333 14.167V29.167H5C2.23854 29.167 0 31.4055 0 34.167V74.167C0 76.9284 2.23854 79.167 5 79.167H11.6667V89.167C11.6669 90.0874 12.4131 90.8334 13.3337 90.8332C13.7756 90.8332 14.1992 90.6576 14.5117 90.3453L25.69 79.167H61.6667C64.4281 79.167 66.6667 76.9284 66.6667 74.167V59.167H74.31L85.4883 70.3453C86.1394 70.9961 87.1946 70.9959 87.8454 70.3449C88.1577 70.0324 88.3333 69.6086 88.3333 69.167V59.167H95C97.7615 59.167 100 56.9284 100 54.167V14.167C100 11.4055 97.7615 9.16699 95 9.16699ZM63.3333 74.167C63.3333 75.0874 62.5871 75.8336 61.6667 75.8336H25C24.5579 75.8336 24.1342 76.0095 23.8217 76.322L15 85.1436V77.5003C15 76.5799 14.2537 75.8336 13.3333 75.8336H5C4.07958 75.8336 3.33333 75.0874 3.33333 74.167V34.167C3.33333 33.2466 4.07958 32.5003 5 32.5003H61.6667C62.5871 32.5003 63.3333 33.2466 63.3333 34.167V74.167ZM96.6667 54.167C96.6667 55.0874 95.9204 55.8336 95 55.8336H86.6667C85.7462 55.8336 85 56.5799 85 57.5003V65.1436L76.1783 56.322C75.8658 56.0095 75.4421 55.8336 75 55.8336H66.6667V34.167C66.6667 31.4055 64.4281 29.167 61.6667 29.167H36.6667V14.167C36.6667 13.2466 37.4129 12.5003 38.3333 12.5003H95C95.9204 12.5003 96.6667 13.2466 96.6667 14.167V54.167Z" fill="#0E0F0F"/>
<path d="M50 19.167H90V22.5003H50V19.167Z" fill="#0E0F0F"/>
<path d="M70 29.167H90V32.5003H70V29.167Z" fill="#0E0F0F"/>
<path d="M70 39.167H90V42.5003H70V39.167Z" fill="#0E0F0F"/>
<path d="M43.333 19.167H46.6663V22.5003H43.333V19.167Z" fill="#0E0F0F"/>
<path d="M42.5942 46.0091L42.5942 46.0092L28.5747 60.3269L23.4058 55.0481C22.7411 54.3692 21.659 54.3693 20.9943 55.048L20.9943 55.0481C20.3352 55.721 20.3353 56.8078 20.9942 57.4808L20.9942 57.4808L27.3689 63.991C27.3689 63.991 27.3689 63.991 27.369 63.991C28.0336 64.67 29.1163 64.6694 29.7805 63.991L45.0058 48.442C45.0058 48.4419 45.0058 48.4419 45.0058 48.4419C45.6648 47.7689 45.6647 46.6821 45.0058 46.0092C44.3411 45.3303 43.259 45.3303 42.5942 46.0091Z" fill="white" stroke="white"/>
</svg>
