<svg width="21" height="22" viewBox="0 0 21 22" fill="none" xmlns="http://www.w3.org/2000/svg">
<path d="M19.25 0.5H1.75C1.28587 0.5 0.840752 0.684374 0.512563 1.01256C0.184374 1.34075 0 1.78587 0 2.25V19.75C0 20.2141 0.184374 20.6592 0.512563 20.9874C0.840752 21.3156 1.28587 21.5 1.75 21.5H19.25C19.7141 21.5 20.1592 21.3156 20.4874 20.9874C20.8156 20.6592 21 20.2141 21 19.75V2.25C21 1.78587 20.8156 1.34075 20.4874 1.01256C20.1592 0.684374 19.7141 0.5 19.25 0.5ZM8.75 15.8125L4.375 11.4751L5.76625 10.125L8.75 13.0528L15.2329 6.625L16.625 8.00487L8.75 15.8125Z" fill="#27C60D"/>
</svg>
