<svg width="16" height="17" viewBox="0 0 16 17" fill="none" xmlns="http://www.w3.org/2000/svg">
<g clip-path="url(#clip0)">
<path d="M14.3164 4.68994C13.985 4.85026 13.8464 5.24902 14.0067 5.58024C14.4447 6.48503 14.6667 7.46029 14.6667 8.47998C14.6667 12.1559 11.6759 15.1466 8 15.1466C4.32406 15.1466 1.33333 12.1559 1.33333 8.47998C1.33333 4.80404 4.32406 1.81331 8 1.81331C9.52328 1.81331 10.9543 2.31071 12.1387 3.25163C12.4259 3.48096 12.846 3.43294 13.0754 3.14469C13.3047 2.85661 13.2567 2.43701 12.9683 2.20801C11.5661 1.09359 9.8016 0.47998 8 0.47998C3.58903 0.47998 0 4.06901 0 8.47998C0 12.891 3.58903 16.48 8 16.48C12.411 16.48 16 12.891 16 8.47998C16 7.25765 15.7331 6.08626 15.2067 4.99967C15.0467 4.66764 14.6466 4.5293 14.3164 4.68994Z" fill="#FD5742"/>
<path d="M8.00016 3.14648C7.63216 3.14648 7.3335 3.44515 7.3335 3.81315V8.47982C7.3335 8.84782 7.63216 9.14648 8.00016 9.14648H11.3335C11.7015 9.14648 12.0002 8.84782 12.0002 8.47982C12.0002 8.11182 11.7015 7.81315 11.3335 7.81315H8.66683V3.81315C8.66683 3.44515 8.36816 3.14648 8.00016 3.14648Z" fill="#FD5742"/>
</g>
<defs>
<clipPath id="clip0">
<rect width="16" height="16" fill="white" transform="translate(0 0.47998)"/>
</clipPath>
</defs>
</svg>
