<svg width="19" height="18" viewBox="0 0 19 18" fill="none" xmlns="http://www.w3.org/2000/svg">
<path d="M12.9428 18C13.3083 18 13.6669 17.8572 13.937 17.5875L17.381 14.1507C17.4643 14.0675 17.5399 13.9785 17.6073 13.8847C17.8629 13.529 18.0007 13.1036 18.0007 12.6568C18.0007 12.21 17.8629 11.7845 17.6073 11.4287C17.5399 11.3349 17.4644 11.246 17.381 11.1627L13.937 7.72596C13.5323 7.32192 12.9293 7.20258 12.4009 7.42177C11.8731 7.64068 11.5321 8.15101 11.5321 8.72176V11.9535C5.94914 11.9535 1.40698 7.41119 1.40698 1.82804V0.703146C1.40698 0.314768 1.09222 0 0.703854 0C0.315487 0 0.000728607 0.314768 0.000728607 0.703146V1.82804C0.000728607 4.90829 1.20016 7.80424 3.3782 9.98234C5.55624 12.1603 8.45196 13.3599 11.5321 13.3599C12.3076 13.3599 12.9385 12.729 12.9385 11.9536V8.72176L12.9422 8.71984L12.9437 8.72135L16.3877 12.1583C16.521 12.2913 16.5945 12.4684 16.5945 12.6568C16.5945 12.8452 16.521 13.0222 16.3877 13.1553L12.9437 16.5921L12.9422 16.5936L12.9385 16.5922V15.8209C12.9385 15.4326 12.6236 15.1178 12.2352 15.1178C11.847 15.1178 11.5321 15.4326 11.5321 15.8209V16.5916C11.5321 17.1624 11.8731 17.6727 12.4009 17.8916C12.5765 17.9646 12.7605 18 12.9428 18Z" fill="black"/>
<path d="M11.5321 13.3599C12.3076 13.3599 12.9385 12.729 12.9385 11.9536V15.8209C12.9385 15.4326 12.6236 15.1178 12.2352 15.1178C11.847 15.1178 11.5321 15.4326 11.5321 15.8209V13.3599Z" fill="black"/>
<path d="M17.6073 13.8847C17.8629 13.529 18.0007 13.1036 18.0007 12.6568C18.0007 12.21 17.8629 11.7845 17.6073 11.4287L18.6523 12.6568L17.6073 13.8847Z" fill="black"/>
</svg>
