<svg width="21" height="20" viewBox="0 0 21 20" fill="none" xmlns="http://www.w3.org/2000/svg">
<path d="M13.625 10.625H7.375C7.03 10.625 6.75 10.905 6.75 11.25C6.75 11.595 7.03 11.875 7.375 11.875H13.625C13.97 11.875 14.25 11.595 14.25 11.25C14.25 10.905 13.97 10.625 13.625 10.625ZM14.875 6.875H6.125C5.78 6.875 5.5 7.155 5.5 7.5C5.5 7.845 5.78 8.125 6.125 8.125H14.875C15.22 8.125 15.5 7.845 15.5 7.5C15.5 7.155 15.22 6.875 14.875 6.875ZM10.5 0C4.97752 0 0.5 3.91748 0.5 8.75C0.5 11.5119 1.96562 13.9706 4.25 15.5744V20L8.63062 17.3419C9.2369 17.4419 9.86062 17.5 10.5 17.5C16.0231 17.5 20.5 13.5825 20.5 8.75C20.5 3.91748 16.0231 0 10.5 0ZM10.5 16.25C9.77 16.25 9.065 16.165 8.38748 16.0206L5.44497 17.7893L5.48435 14.8906C3.22876 13.5338 1.75 11.2913 1.75 8.75C1.75 4.60814 5.66748 1.25 10.5 1.25C15.3325 1.25 19.25 4.60814 19.25 8.75C19.25 12.8919 15.3325 16.25 10.5 16.25Z" fill="#6D718C"/>
</svg>
