<svg width="25" height="25" viewBox="0 0 25 25" fill="none" xmlns="http://www.w3.org/2000/svg">
<g clip-path="url(#clip0)">
<path d="M17.8571 4.46436H2.67857C1.19924 4.46436 0 5.66359 0 7.14293V22.3215C0 23.8008 1.19924 25 2.67857 25H17.8571C19.3364 25 20.5357 23.8008 20.5357 22.3215V7.14293C20.5357 5.66359 19.3364 4.46436 17.8571 4.46436ZM18.75 22.3215C18.75 22.8146 18.3502 23.2144 17.8571 23.2144H2.67857C2.18544 23.2144 1.7857 22.8146 1.7857 22.3215V7.14293C1.7857 6.6498 2.18544 6.25005 2.67857 6.25005H17.8571C18.3502 6.25005 18.75 6.6498 18.75 7.14293V22.3215Z" fill="#E4474E"/>
<path d="M22.3203 0H6.24888C4.76955 0 3.57031 1.19924 3.57031 2.67857C3.57031 3.1717 3.97006 3.57144 4.46319 3.57144C4.95632 3.57144 5.35601 3.1717 5.35601 2.67857C5.35601 2.18544 5.75575 1.7857 6.24888 1.7857H22.3203C22.8134 1.7857 23.2132 2.18544 23.2132 2.67857V18.75C23.2132 19.2431 22.8134 19.6429 22.3203 19.6429C21.8272 19.6429 21.4274 20.0426 21.4274 20.5357C21.4274 21.0289 21.8272 21.4286 22.3203 21.4286C23.7996 21.4286 24.9989 20.2294 24.9989 18.75V2.67857C24.9989 1.19924 23.7996 0 22.3203 0Z" fill="#E4474E"/>
</g>
<defs>
<clipPath id="clip0">
<rect width="25" height="25" fill="white"/>
</clipPath>
</defs>
</svg>
