<svg width="14" height="14" viewBox="0 0 14 14" fill="none" xmlns="http://www.w3.org/2000/svg">
<path d="M7.82078 7.00366L13.822 1.00242C14.0536 0.778722 14.06 0.40963 13.8363 0.178008C13.6126 -0.0536148 13.2436 -0.0600373 13.0119 0.163659C13.0071 0.16834 13.0023 0.173122 12.9976 0.178008L6.99634 6.17925L0.995126 0.177973C0.763505 -0.0457232 0.394414 -0.0393006 0.170718 0.192322C-0.0475114 0.418273 -0.0475114 0.776468 0.170718 1.00242L6.17193 7.00366L0.170718 13.0049C-0.0569061 13.2326 -0.0569061 13.6016 0.170718 13.8293C0.398377 14.0569 0.767468 14.0569 0.995126 13.8293L6.99634 7.82807L12.9976 13.8293C13.2292 14.053 13.5983 14.0466 13.822 13.815C14.0402 13.589 14.0402 13.2308 13.822 13.0049L7.82078 7.00366Z" fill="#909090"/>
</svg>
