<svg width="35" height="35" viewBox="0 0 35 35" fill="none" xmlns="http://www.w3.org/2000/svg">
<path d="M7.29151 22.627C7.89557 22.627 8.38526 22.1679 8.38526 21.6016C8.38526 21.0353 7.89557 20.5762 7.29151 20.5762C6.68744 20.5762 6.19775 21.0353 6.19775 21.6016C6.19775 22.1679 6.68744 22.627 7.29151 22.627Z" fill="#578163"/>
<path d="M7.29151 14.4238C7.89557 14.4238 8.38526 13.9647 8.38526 13.3984C8.38526 12.8321 7.89557 12.373 7.29151 12.373C6.68744 12.373 6.19775 12.8321 6.19775 13.3984C6.19775 13.9647 6.68744 14.4238 7.29151 14.4238Z" fill="#578163"/>
<path d="M13.125 29.1211C13.7291 29.1211 14.2188 28.662 14.2188 28.0957C14.2188 27.5294 13.7291 27.0703 13.125 27.0703C12.5209 27.0703 12.0312 27.5294 12.0312 28.0957C12.0312 28.662 12.5209 29.1211 13.125 29.1211Z" fill="#578163"/>
<path d="M13.125 7.92969C13.7291 7.92969 14.2188 7.4706 14.2188 6.9043C14.2188 6.33799 13.7291 5.87891 13.125 5.87891C12.5209 5.87891 12.0312 6.33799 12.0312 6.9043C12.0312 7.4706 12.5209 7.92969 13.125 7.92969Z" fill="#578163"/>
<path d="M21.3115 22.8894C20.9095 22.3032 20.4938 21.6969 20.1176 21.0965C18.7277 18.8782 18.7277 16.122 20.1176 13.9036C20.4938 13.3033 20.9095 12.697 21.3115 12.1107C22.446 10.4563 23.5174 8.89372 23.9099 7.26977C24.3891 5.28749 23.7216 3.54357 21.926 2.08656C20.7014 1.09296 19.1896 0.421669 17.5537 0.145224C15.9778 -0.12131 14.3157 -0.0183604 12.7474 0.442792C9.1556 1.49847 5.91969 3.72452 3.63564 6.71094C1.25716 9.82095 0 13.5517 0 17.5001C0 21.4485 1.25716 25.1792 3.63564 28.2893C5.91962 31.2757 9.1556 33.5017 12.7474 34.5574C13.7471 34.8513 14.7846 34.9996 15.8138 34.9996C16.3992 34.9996 16.9823 34.9516 17.5537 34.855C19.1896 34.5785 20.7014 33.9072 21.9259 32.9136C23.7216 31.4566 24.389 29.7127 23.9098 27.7304C23.5173 26.1063 22.4459 24.5438 21.3115 22.8894ZM7.2917 10.3224C9.10099 10.3224 10.573 11.7023 10.573 13.3985C10.573 15.0947 9.10099 16.4747 7.2917 16.4747C5.48241 16.4747 4.01043 15.0947 4.01043 13.3985C4.01043 11.7023 5.48241 10.3224 7.2917 10.3224ZM7.2917 24.6778C5.48241 24.6778 4.01043 23.2979 4.01043 21.6017C4.01043 19.9055 5.48241 18.5255 7.2917 18.5255C9.10099 18.5255 10.573 19.9055 10.573 21.6017C10.573 23.2979 9.10099 24.6778 7.2917 24.6778ZM13.1251 31.172C11.3158 31.172 9.84379 29.792 9.84379 28.0958C9.84379 26.3996 11.3158 25.0196 13.1251 25.0196C14.9343 25.0196 16.4063 26.3996 16.4063 28.0958C16.4063 29.792 14.9343 31.172 13.1251 31.172ZM13.1251 9.98057C11.3158 9.98057 9.84379 8.60059 9.84379 6.90439C9.84379 5.20819 11.3158 3.82822 13.1251 3.82822C14.9343 3.82822 16.4063 5.20819 16.4063 6.90439C16.4063 8.60059 14.9343 9.98057 13.1251 9.98057Z" fill="#578163"/>
<path d="M33.7025 4.37432L31.3512 0.51666C31.1564 0.197217 30.7941 0 30.4016 0C30.0091 0 29.6467 0.197217 29.452 0.51666L27.1006 4.37432C26.4204 5.49021 26.4251 6.82008 27.1132 7.93174C27.2866 8.21174 27.4955 8.46193 27.7311 8.68164H33.072C33.3077 8.46193 33.5165 8.21174 33.6899 7.93174C34.378 6.82015 34.3828 5.49021 33.7025 4.37432Z" fill="#578163"/>
<path d="M26.1284 16.543H34.6747L34.9895 13.3449C35.0553 12.6766 34.8164 12.0088 34.334 11.5128C33.8516 11.0169 33.1643 10.7324 32.4482 10.7324H28.3548C27.6388 10.7324 26.9514 11.0169 26.469 11.5128C25.9866 12.0088 25.7476 12.6765 25.8135 13.3449L26.1284 16.543Z" fill="#578163"/>
<path d="M26.3306 18.5938L27.7203 32.7074C27.8488 34.0144 29.0017 35 30.4017 35C31.8017 35 32.9546 34.0145 33.0833 32.7075L34.4729 18.5938H26.3306Z" fill="#578163"/>
</svg>
