<svg width="12" height="24" viewBox="0 0 12 24" fill="none" xmlns="http://www.w3.org/2000/svg">
<path d="M6 10.8125C4.36303 10.8125 3.03125 9.48072 3.03125 7.84375C3.03125 6.20678 4.36303 4.875 6 4.875C7.63697 4.875 8.96875 6.20678 8.96875 7.84375C8.96875 8.49955 9.50038 9.03125 10.1562 9.03125C10.8121 9.03125 11.3438 8.49955 11.3438 7.84375C11.3438 5.30539 9.56413 3.17628 7.1875 2.63463V1.3125C7.1875 0.656703 6.65587 0.125 6 0.125C5.34413 0.125 4.8125 0.656703 4.8125 1.3125V2.63463C2.43587 3.17628 0.65625 5.30539 0.65625 7.84375C0.65625 10.7903 3.05344 13.1875 6 13.1875C7.63697 13.1875 8.96875 14.5193 8.96875 16.1562C8.96875 17.7932 7.63697 19.125 6 19.125C4.36303 19.125 3.03125 17.7932 3.03125 16.1562C3.03125 15.5005 2.49962 14.9688 1.84375 14.9688C1.18788 14.9688 0.65625 15.5005 0.65625 16.1562C0.65625 18.6946 2.43587 20.8237 4.8125 21.3654V22.6875C4.8125 23.3433 5.34413 23.875 6 23.875C6.65587 23.875 7.1875 23.3433 7.1875 22.6875V21.3654C9.56413 20.8237 11.3438 18.6946 11.3438 16.1562C11.3438 13.2097 8.94656 10.8125 6 10.8125Z" fill="#777777"/>
</svg>
