<svg width="592" height="637" viewBox="0 0 592 637" fill="none" xmlns="http://www.w3.org/2000/svg">
<path d="M298.048 7L6 203.628L233.084 356.096L298.048 399.714L362.102 356.096L586 203.628L298.048 7Z" fill="#FBF1A4"/>
<path d="M6 203.628V631L233.084 356.096L6 203.628Z" fill="#FBF1A4"/>
<path d="M6 631H586L362.102 356.096L298.048 399.714L233.084 356.096L6 631Z" fill="#FBF1A4"/>
<path d="M586 631V203.628L362.102 356.096L586 631Z" fill="#FBF1A4"/>
<path d="M6 203.628L298.048 7L586 203.628M6 203.628V631M6 203.628L233.084 356.096M586 203.628V631M586 203.628L362.102 356.096M586 631H6M586 631L362.102 356.096M6 631L233.084 356.096M233.084 356.096L298.048 399.714L362.102 356.096" stroke="#FEF5B3" stroke-width="11"/>
</svg>
