<svg width="50" height="50" xmlns="http://www.w3.org/2000/svg">  
<g>   
<title>background</title>   
<rect x="-1" y="-1" width="52" height="52" id="canvas_background" fill="none"/>  
</g>  
<g>   
<title>Layer 1</title>   
<path d="m25,50c13.8071,0 25,-11.1929 25,-25c0,-13.8071 -11.1929,-25 -25,-25c-13.8071,0 -25,11.1929 -25,25c0,13.8071 11.1929,25 25,25z" fill="#3B5998" id="svg_1"/>   
<path d="m31.91401,24.9787l-4.461,0l0,16.3429l-6.75868,0l0,-16.3429l-3.21447,0l0,-5.7435l3.21447,0l0,-3.71671c0,-2.65785 1.26252,-6.81976 6.81888,-6.81976l5.0064,0.02095l0,5.57506l-3.6325,0c-0.5958,0 -1.4336,0.29769 -1.4336,1.56556l0,3.3802l5.051,0l-0.5905,5.7382z" fill="white" id="svg_2"/>  
</g> 
</svg>