<svg width="115" height="100" viewBox="0 0 115 100" fill="none" xmlns="http://www.w3.org/2000/svg">
<g clip-path="url(#clip0)">
<path d="M86.6663 1.66675H31.6663C29.8253 1.66675 28.333 3.15904 28.333 5.00008V95.0001C28.333 96.8411 29.8253 98.3334 31.6663 98.3334H98.333C100.174 98.3334 101.666 96.8411 101.666 95.0001V16.6667L86.6663 1.66675Z" fill="white"/>
<path d="M86.667 1.66675V16.6667C86.667 17.5872 87.4132 18.3334 88.3337 18.3334H101.667V16.6667L86.667 1.66675Z" fill="#DDDDDD"/>
<path fill-rule="evenodd" clip-rule="evenodd" d="M101.874 14.5467L88.8237 1.46837C87.8882 0.524199 86.6128 -0.00475939 85.2837 3.22731e-05H31.667C28.9055 3.22731e-05 26.667 2.23857 26.667 5.00003V26.5C27.9154 25.1516 28.5796 24.4781 30.0003 23.5V5.00003C30.0003 4.07961 30.7466 3.33336 31.667 3.33336H85.0003V15C85.0003 17.7615 87.2389 20 90.0003 20H96.667V16.6667H90.0003C89.0799 16.6667 88.3337 15.9204 88.3337 15V5.6967L99.5137 16.9017C99.8264 17.2125 100.002 17.6357 100 18.0767V95C100 95.9204 99.2541 96.6667 98.3337 96.6667H31.667C30.7466 96.6667 30.0003 95.9204 30.0003 95V79.5H26.667V95C26.667 97.7615 28.9055 100 31.667 100H98.3337C101.095 100 103.334 97.7615 103.334 95V18.0767C103.337 16.7525 102.811 15.4819 101.874 14.5467Z" fill="black"/>
<path d="M36.667 10H40.0003V13.3333H36.667V10Z" fill="black"/>
<path d="M43.334 10H76.6673V13.3333H43.334V10Z" fill="black"/>
<path d="M58.001 31H73.001V34H58.001V31Z" fill="black"/>
<path d="M67.001 55H73.001V58H67.001V55Z" fill="black"/>
<path d="M36.667 16.6667H76.667V20.0001H36.667V16.6667Z" fill="black"/>
<path d="M60.001 38H73.001V41H60.001V38Z" fill="black"/>
<path d="M65.001 62H73.001V65H65.001V62Z" fill="black"/>
</g>
<path fill-rule="evenodd" clip-rule="evenodd" d="M86.2267 34.9167L82.8933 38.25L80.535 35.8928C79.8842 35.2423 78.8293 35.2424 78.1786 35.8931C77.5277 36.5439 77.5279 37.5993 78.1789 38.25L80.5367 40.6067L81.5208 41.5142C82.2936 42.2268 83.4862 42.2196 84.2503 41.4976L86.2267 39.63L92.3217 33.535C92.9724 32.8842 92.9724 31.8291 92.3217 31.1783C91.6709 30.5276 90.6158 30.5276 89.965 31.1783L86.2267 34.9167Z" fill="#FD5742"/>
<path fill-rule="evenodd" clip-rule="evenodd" d="M85.2267 56.9167L81.8933 60.25L79.535 57.8928C78.8842 57.2423 77.8293 57.2424 77.1786 57.8931C76.5277 58.5439 76.5279 59.5993 77.1789 60.25L79.5367 62.6067L80.5208 63.5142C81.2936 64.2268 82.4862 64.2196 83.2503 63.4976L85.2267 61.63L91.3217 55.535C91.9724 54.8842 91.9724 53.8291 91.3217 53.1783C90.6709 52.5276 89.6158 52.5276 88.965 53.1783L85.2267 56.9167Z" fill="#FD5742"/>
<path fill-rule="evenodd" clip-rule="evenodd" d="M85.2267 78.9167L81.8933 82.25L79.535 79.8928C78.8842 79.2423 77.8293 79.2424 77.1786 79.8931C76.5277 80.5439 76.5279 81.5993 77.1789 82.25L79.5367 84.6067L80.5208 85.5142C81.2936 86.2268 82.4862 86.2196 83.2503 85.4976L85.2267 83.63L91.3217 77.535C91.9724 76.8842 91.9724 75.8291 91.3217 75.1783C90.6709 74.5276 89.6158 74.5276 88.965 75.1783L85.2267 78.9167Z" fill="#FD5742"/>
<path d="M37 82H70V85H37V82Z" fill="black"/>
<path d="M29.6085 68.0516C30.0819 67.5781 30.0819 66.8118 29.6085 66.3383C29.1345 65.8663 28.3667 65.8663 27.8923 66.3383C27.4193 66.8118 27.4193 67.5781 27.8923 68.0516C28.3667 68.5237 29.1345 68.5237 29.6085 68.0516Z" fill="#FD5742"/>
<path d="M15.0319 87.6418C15.5021 88.1149 16.2675 88.1201 16.7438 87.6518L22.6246 81.8696C23.6237 80.8724 23.9275 79.3961 23.4881 78.1128L24.7531 76.8952C25.4342 76.2387 26.3309 75.8768 27.2788 75.8768H43.4039C46.2647 75.8768 48.9685 74.7804 51.0183 72.7894C51.1027 72.7076 50.378 73.5595 62.0192 59.6734C63.7458 57.6347 63.4875 54.5733 61.4428 52.8482C59.411 51.1392 56.3673 51.3847 54.636 53.3884L47.4784 60.7306C46.5746 59.6205 45.1964 58.9284 43.7072 58.9284H30.1812C28.2565 58.1248 26.2143 57.718 24.1071 57.718C18.2662 57.718 13.166 60.4104 10.429 65.4585C9.27585 65.2404 8.0597 65.5886 7.18479 66.4618L1.41447 72.2379C0.943364 72.7095 0.942416 73.4725 1.41257 73.9455L15.0319 87.6418ZM24.1066 60.1389C25.9645 60.1389 27.7608 60.5121 29.4466 61.2481C29.6002 61.3153 29.7656 61.3498 29.9329 61.3498H43.7072C45.0224 61.3498 46.1334 62.4203 46.1334 63.7708C46.1334 65.1061 45.0452 66.1922 43.7072 66.1922H33.8107C33.141 66.1922 32.5979 66.7342 32.5979 67.4026C32.5979 68.0715 33.141 68.6131 33.8107 68.6131H43.7072C46.3827 68.6131 48.559 66.441 48.559 63.7708C48.559 63.5579 48.5439 63.3469 48.5164 63.1379C55.4403 56.0345 56.4166 55.0364 56.4583 54.9867C57.3228 53.9683 58.8575 53.8392 59.8783 54.6982C60.9002 55.5605 61.0296 57.0912 60.1627 58.1153L49.2832 71.096C47.6946 72.6182 45.6087 73.4559 43.4039 73.4559H27.2788C25.6986 73.4559 24.2028 74.059 23.0682 75.1531L22.0374 76.146L12.5347 66.6623C14.7556 62.504 18.9231 60.1389 24.1066 60.1389ZM8.90143 68.1727C9.30144 67.7735 9.91568 67.7016 10.4034 68.0024C10.6133 68.1301 10.0105 67.5824 20.9094 78.4449C21.3942 78.9288 21.3682 79.6998 20.916 80.1511L15.9026 85.0804L3.98422 73.0945L8.90143 68.1727Z" fill="#FD5742"/>
<path fill-rule="evenodd" clip-rule="evenodd" d="M24.1066 60.1389C25.9645 60.1389 27.7608 60.5121 29.4466 61.2481C29.6002 61.3153 29.7656 61.3498 29.9329 61.3498H43.7072C45.0224 61.3498 46.1334 62.4203 46.1334 63.7708C46.1334 65.1061 45.0452 66.1922 43.7072 66.1922H33.8107C33.141 66.1922 32.5979 66.7342 32.5979 67.4026C32.5979 68.0715 33.141 68.6131 33.8107 68.6131H43.7072C46.3827 68.6131 48.559 66.441 48.559 63.7708C48.559 63.5579 48.5439 63.3469 48.5164 63.1379C55.4403 56.0345 56.4166 55.0364 56.4583 54.9867C57.3228 53.9683 58.8575 53.8392 59.8783 54.6982C60.9002 55.5605 61.0296 57.0912 60.1627 58.1153L49.2832 71.096C47.6946 72.6182 45.6087 73.4559 43.4039 73.4559H27.2788C25.6986 73.4559 24.2028 74.059 23.0682 75.1531L22.0374 76.146L12.5347 66.6623C14.7556 62.504 18.9231 60.1389 24.1066 60.1389ZM29.6085 66.3383C30.0819 66.8118 30.0819 67.5781 29.6085 68.0516C29.1345 68.5237 28.3667 68.5237 27.8923 68.0516C27.4193 67.5781 27.4193 66.8118 27.8923 66.3383C28.3667 65.8663 29.1345 65.8663 29.6085 66.3383Z" fill="#FD5742"/>
<path d="M8.90143 68.1727C9.30144 67.7735 9.91568 67.7016 10.4034 68.0024C10.6133 68.1301 10.0105 67.5824 20.9094 78.4449C21.3942 78.9288 21.3682 79.6998 20.916 80.1511L15.9026 85.0804L3.98422 73.0945L8.90143 68.1727Z" fill="#FD5742"/>
<path d="M29.7496 68.1933L29.7499 68.193C30.3015 67.6414 30.3015 66.7485 29.7499 66.1969L29.7496 66.1966C29.1976 65.6468 28.3036 65.6469 27.7512 66.1966L27.7508 66.197C27.1998 66.7486 27.1998 67.6414 27.7508 68.193L27.7512 68.1934C28.3036 68.7431 29.1976 68.7432 29.7496 68.1933ZM22.7648 82.0122L22.7659 82.0111C23.7894 80.9896 24.1207 79.4939 23.7169 78.1702L24.8918 77.0393L24.8919 77.0392C25.5357 76.4186 26.3826 76.0768 27.2788 76.0768H43.4039C46.3149 76.0768 49.0673 74.9614 51.1541 72.9364C51.1648 72.9278 51.1738 72.9191 51.1833 72.9091C51.1989 72.8926 51.227 72.86 51.2884 72.7875C51.4147 72.6384 51.6962 72.3027 52.3383 71.5365C52.5722 71.2572 52.8541 70.9208 53.1939 70.5152C54.7195 68.6943 57.4119 65.4805 62.1721 59.8024C63.97 57.6791 63.7007 54.4915 61.5718 52.6953L61.5716 52.6951C59.4575 50.9169 56.2922 51.1708 54.4886 53.253L47.4884 60.4339C46.549 59.3788 45.1809 58.7284 43.7072 58.7284H30.2212C28.2826 57.9247 26.2269 57.518 24.1071 57.518C18.2508 57.518 13.1144 60.1981 10.322 65.2376C9.14887 65.0617 7.92978 65.4357 7.0435 66.3202L7.04329 66.3204L1.27298 72.0965L1.27297 72.0965C0.723974 72.6461 0.722922 73.5353 1.27072 74.0865L1.27075 74.0865L14.8901 87.7828C15.4377 88.3338 16.3292 88.3399 16.8841 87.7944L22.7648 82.0122ZM60.01 57.9861L60.0094 57.9868L49.137 70.9591C47.5866 72.4408 45.5536 73.2559 43.4039 73.2559H27.2788C25.647 73.2559 24.1014 73.879 22.9295 75.0091C22.9294 75.0091 22.9294 75.0091 22.9294 75.0091L22.0399 75.8659L12.7817 66.6263C14.9811 62.6208 19.0433 60.3389 24.1066 60.3389C25.9372 60.3389 27.7062 60.7065 29.3666 61.4314C29.5454 61.5096 29.7381 61.5498 29.9329 61.5498H43.7072C44.9144 61.5498 45.9334 62.5332 45.9334 63.7708C45.9334 64.9953 44.9351 65.9922 43.7072 65.9922H33.8107C33.0309 65.9922 32.3979 66.6234 32.3979 67.4026C32.3979 68.1824 33.031 68.8131 33.8107 68.8131H43.7072C46.4928 68.8131 48.759 66.5518 48.759 63.7708C48.759 63.5815 48.7476 63.3941 48.7265 63.2088C50.952 60.9256 52.5578 59.2786 53.7132 58.0935C54.3337 57.4571 54.8244 56.9538 55.2114 56.5568C55.7688 55.985 56.1112 55.6334 56.3169 55.4218C56.5148 55.2182 56.5928 55.1373 56.6108 55.1162C57.4041 54.1816 58.813 54.0632 59.7496 54.8512C60.6866 55.6422 60.8055 57.0464 60.01 57.9861ZM10.2984 68.1726L10.2994 68.1733C10.3245 68.1886 10.3325 68.1927 10.3367 68.1948C10.3405 68.1968 10.3412 68.1972 10.3489 68.2029C10.3629 68.2133 10.3913 68.2371 10.463 68.3053C10.604 68.4395 10.8867 68.7202 11.5067 69.3396C11.751 69.5837 12.0473 69.8801 12.4076 70.2404C13.8726 71.7055 16.3943 74.2272 20.7682 78.5865C21.1724 78.99 21.1507 79.6337 20.7753 80.009C20.7751 80.0091 20.7749 80.0093 20.7747 80.0095L15.9042 84.7984L4.26659 73.0948L9.04271 68.3143C9.04273 68.3142 9.04275 68.3142 9.04277 68.3142C9.37678 67.9809 9.88898 67.9201 10.2984 68.1726Z" fill="black" stroke="black" stroke-width="0.4"/>
<path d="M41.1893 34.9776H38.3561V38.3914H41.1893C42.1305 38.3914 42.8962 37.6257 42.8962 36.6845C42.8962 35.7433 42.1305 34.9776 41.1893 34.9776Z" fill="#FD5742"/>
<path d="M49.0438 29.9562C43.7692 24.6817 35.2315 24.6809 29.9563 29.9562C24.6817 35.2307 24.6808 43.7685 29.9563 49.0438C35.2308 54.3183 43.7685 54.3191 49.0438 49.0438C54.3183 43.7693 54.3192 35.2315 49.0438 29.9562ZM41.1893 40.6086H38.3561V41.77H40.6262C41.2384 41.77 41.7348 42.2663 41.7348 42.8786C41.7348 43.4909 41.2384 43.9872 40.6262 43.9872H38.3561V45.1311C38.3561 45.7433 37.8598 46.2397 37.2475 46.2397C36.6352 46.2397 36.1389 45.7433 36.1389 45.1311V43.9872H34.9951C34.3829 43.9872 33.8865 43.4909 33.8865 42.8786C33.8865 42.2663 34.3829 41.77 34.9951 41.77H36.1389V40.6086H34.9951C34.3829 40.6086 33.8865 40.1122 33.8865 39.5C33.8865 38.8877 34.3829 38.3914 34.9951 38.3914H36.1389V33.8689C36.1389 33.2566 36.6352 32.7603 37.2475 32.7603H41.1893C43.353 32.7603 45.1134 34.5206 45.1134 36.6844C45.1134 38.8483 43.3531 40.6086 41.1893 40.6086Z" fill="#FD5742"/>
<path d="M47.9402 31.0608L47.9402 31.0608C52.6297 35.7502 52.629 43.3383 47.9402 48.0271L47.9401 48.0271C43.2507 52.7166 35.6628 52.7159 30.9739 48.0271L30.9739 48.0271C26.2844 43.3376 26.2851 35.7496 30.9739 31.0608L30.974 31.0608C35.6634 26.3713 43.2513 26.372 47.9402 31.0608Z" stroke="black" stroke-width="3"/>
<defs>
<clipPath id="clip0">
<rect width="100" height="100" fill="white" transform="translate(15)"/>
</clipPath>
</defs>
</svg>
