<svg width="22" height="19" viewBox="0 0 22 19" fill="none" xmlns="http://www.w3.org/2000/svg">
<path d="M13.9994 14H16.9994V11H18.9994V14H21.9994V16H18.9994V19H16.9994V16H13.9994V14ZM11.9994 16.88C12.0394 17.18 11.9394 17.5 11.7194 17.71C11.3194 18.1 10.6894 18.1 10.2994 17.71L6.28937 13.7C6.05937 13.47 5.95937 13.16 5.99937 12.87V7.75L1.20937 1.62C0.869369 1.19 0.949369 0.56 1.37937 0.22C1.56937 0.08 1.77937 0 1.99937 0H15.9994C16.2194 0 16.4294 0.08 16.6194 0.22C17.0494 0.56 17.1294 1.19 16.7894 1.62L11.9994 7.75V16.88ZM4.03937 2L7.99937 7.07V12.58L9.99937 14.58V7.05L13.9594 2H4.03937Z" fill="black"/>
</svg>
