<svg width="100" height="100" viewBox="0 0 100 100" fill="none" xmlns="http://www.w3.org/2000/svg">
<path d="M71.6667 1.66663H16.6667C14.8256 1.66663 13.3333 3.15892 13.3333 4.99996V95C13.3333 96.841 14.8256 98.3333 16.6667 98.3333H83.3333C85.1744 98.3333 86.6667 96.841 86.6667 95V16.6666L71.6667 1.66663Z" fill="#FD5742"/>
<path d="M71.6667 1.66663V16.6666C71.6667 17.587 72.4129 18.3333 73.3333 18.3333H86.6667V16.6666L71.6667 1.66663Z" fill="#BA301E"/>
<path d="M31.94 41.6667H38.06C40.9723 41.6667 43.3333 44.0278 43.3333 46.9401V58.3334H26.6667V46.9401C26.6667 44.0278 29.0277 41.6667 31.94 41.6667Z" fill="white"/>
<path d="M34.5333 28.3334H35.4667C37.0498 28.3334 38.3333 29.6169 38.3333 31.2V33.8C38.3333 35.3832 37.0498 36.6667 35.4667 36.6667H34.5333C32.9502 36.6667 31.6667 35.3832 31.6667 33.8V31.2C31.6667 29.6169 32.9502 28.3334 34.5333 28.3334Z" fill="white"/>
<path d="M53.3333 65H76.6667V85H53.3333V65Z" fill="white"/>
<path d="M86.8733 14.5467L73.8233 1.46833C72.8831 0.53125 71.6108 0.00354167 70.2833 0H16.6667C13.9052 0 11.6667 2.23854 11.6667 5V95C11.6667 97.7615 13.9052 100 16.6667 100H83.3333C86.0948 100 88.3333 97.7615 88.3333 95V18.0767C88.3363 16.7525 87.8108 15.4819 86.8733 14.5467ZM85 95C85 95.9204 84.2538 96.6667 83.3333 96.6667H16.6667C15.7463 96.6667 15 95.9204 15 95V5C15 4.07958 15.7463 3.33333 16.6667 3.33333H70V15C70 17.7615 72.2385 20 75 20H81.6667V16.6667H75C74.0796 16.6667 73.3333 15.9204 73.3333 15V5.695L84.5133 16.9C84.826 17.2115 85.0015 17.6352 85 18.0767V95Z" fill="black"/>
<path d="M21.6667 10H25V13.3333H21.6667V10Z" fill="black"/>
<path d="M28.3333 10H61.6667V13.3333H28.3333V10Z" fill="black"/>
<path d="M21.6667 16.6666H61.6667V20H21.6667V16.6666Z" fill="black"/>
<path d="M76.6667 63.3334H53.3333C52.4129 63.3334 51.6667 64.0796 51.6667 65V85C51.6667 85.9205 52.4129 86.6667 53.3333 86.6667H76.6667C77.5871 86.6667 78.3333 85.9205 78.3333 85V65C78.3333 64.0796 77.5871 63.3334 76.6667 63.3334ZM75 83.3334H55V66.6667H75V83.3334Z" fill="black"/>
<path d="M51.6667 31.6666H55V35H51.6667V31.6666Z" fill="black"/>
<path d="M58.3333 31.6666H78.3333V35H58.3333V31.6666Z" fill="black"/>
<path d="M51.6667 38.3334H78.3333V41.6667H51.6667V38.3334Z" fill="black"/>
<path d="M51.6667 45H78.3333V48.3333H51.6667V45Z" fill="black"/>
<path d="M51.6667 51.6666H78.3333V55H51.6667V51.6666Z" fill="black"/>
<path d="M21.6667 63.3334H25V66.6667H21.6667V63.3334Z" fill="black"/>
<path d="M28.3333 63.3334H48.3333V66.6667H28.3333V63.3334Z" fill="black"/>
<path d="M21.6667 70H48.3333V73.3333H21.6667V70Z" fill="black"/>
<path d="M21.6667 76.6666H48.3333V80H21.6667V76.6666Z" fill="black"/>
<path d="M21.6667 83.3334H48.3333V86.6667H21.6667V83.3334Z" fill="black"/>
<path d="M25 48.3333V58.3333C25 59.2538 25.7462 60 26.6667 60H43.3333C44.2537 60 45 59.2538 45 58.3333V48.3333C44.9946 43.7333 41.2667 40.0054 36.6667 40H33.3333C28.7333 40.0054 25.0054 43.7333 25 48.3333ZM28.3333 48.3333C28.3333 45.5719 30.5719 43.3333 33.3333 43.3333H36.6667C39.4281 43.3333 41.6667 45.5719 41.6667 48.3333V56.6667H28.3333V48.3333Z" fill="black"/>
<path d="M40 33.3333V31.6666C40 28.9052 37.7615 26.6666 35 26.6666C32.2385 26.6666 30 28.9052 30 31.6666V33.3333C30 36.0947 32.2385 38.3333 35 38.3333C37.7615 38.3333 40 36.0947 40 33.3333ZM33.3333 33.3333V31.6666C33.3333 30.7462 34.0796 30 35 30C35.9204 30 36.6667 30.7462 36.6667 31.6666V33.3333C36.6667 34.2537 35.9204 35 35 35C34.0796 35 33.3333 34.2537 33.3333 33.3333Z" fill="black"/>
</svg>
