<svg width="100" height="100" viewBox="0 0 100 100" fill="none" xmlns="http://www.w3.org/2000/svg">
<g clip-path="url(#clip0)">
<path d="M71.6667 1.66663H16.6667C14.8256 1.66663 13.3333 3.15892 13.3333 4.99996V95C13.3333 96.841 14.8256 98.3333 16.6667 98.3333H83.3333C85.1744 98.3333 86.6667 96.841 86.6667 95V16.6666L71.6667 1.66663Z" fill="#FD5742"/>
<path d="M71.6667 1.66663V16.6666C71.6667 17.587 72.4129 18.3333 73.3333 18.3333H86.6667V16.6666L71.6667 1.66663Z" fill="#BA301E"/>
<path d="M23.3333 31.6666V41.6666H33.3333V38.3333V31.6666H23.3333Z" fill="white"/>
<path d="M23.3333 58.3333H33.3333V54.9999V48.3333H23.3333V58.3333Z" fill="white"/>
<path d="M23.3333 75H33.3333V71.6667V65H23.3333V75Z" fill="white"/>
<path d="M23.3333 91.6666H33.3333V88.3333V81.6666H23.3333V91.6666Z" fill="white"/>
<path d="M86.8733 14.5467L73.8233 1.46837C72.8879 0.524199 71.6125 -0.00475939 70.2833 3.22731e-05H16.6667C13.9052 3.22731e-05 11.6667 2.23857 11.6667 5.00003V95C11.6667 97.7615 13.9052 100 16.6667 100H83.3333C86.0948 100 88.3333 97.7615 88.3333 95V18.0767C88.3364 16.7525 87.811 15.4819 86.8733 14.5467ZM85 95C85 95.9204 84.2537 96.6667 83.3333 96.6667H16.6667C15.7462 96.6667 15 95.9204 15 95V5.00003C15 4.07961 15.7462 3.33336 16.6667 3.33336H70V15C70 17.7615 72.2385 20 75 20H81.6667V16.6667H75C74.0796 16.6667 73.3333 15.9204 73.3333 15V5.6967L84.5133 16.9017C84.826 17.2125 85.0012 17.6357 85 18.0767V95Z" fill="black"/>
<path d="M21.6667 10H25V13.3333H21.6667V10Z" fill="black"/>
<path d="M28.3333 10H61.6666V13.3333H28.3333V10Z" fill="black"/>
<path d="M21.6667 16.6667H61.6667V20.0001H21.6667V16.6667Z" fill="black"/>
<path d="M45 31.6667H48.3333V35.0001H45V31.6667Z" fill="black"/>
<path d="M51.6667 31.6667H78.3333V35.0001H51.6667V31.6667Z" fill="black"/>
<path d="M45 38.3334H78.3333V41.6667H45V38.3334Z" fill="black"/>
<path d="M45 48.3334H78.3333V51.6667H45V48.3334Z" fill="black"/>
<path d="M45 55H51.6666V58.3333H45V55Z" fill="black"/>
<path d="M45 65H48.3333V68.3333H45V65Z" fill="black"/>
<path d="M51.6667 65H78.3333V68.3333H51.6667V65Z" fill="black"/>
<path d="M45 71.6667H78.3333V75.0001H45V71.6667Z" fill="black"/>
<path d="M45 81.6667H78.3333V85.0001H45V81.6667Z" fill="black"/>
<path d="M45 88.3334H78.3333V91.6667H45V88.3334Z" fill="black"/>
<path d="M55 55H78.3333V58.3333H55V55Z" fill="black"/>
<path d="M35 34.31V31.6666C35 30.7462 34.2537 30 33.3333 30H23.3333C22.4129 30 21.6667 30.7462 21.6667 31.6666V41.6666C21.6667 42.5871 22.4129 43.3333 23.3333 43.3333H33.3333C34.2537 43.3333 35 42.5871 35 41.6666V39.0233L42.2733 31.75L39.9167 29.3933L35 34.31ZM25 33.3333H31.6667V37.6433L28.13 34.1083L25.7733 36.465L29.31 40H25V33.3333Z" fill="black"/>
<path d="M35 50.9767V48.3334C35 47.413 34.2537 46.6667 33.3333 46.6667H23.3333C22.4129 46.6667 21.6667 47.413 21.6667 48.3334V58.3334C21.6667 59.2538 22.4129 60.0001 23.3333 60.0001H33.3333C34.2537 60.0001 35 59.2538 35 58.3334V55.6901L42.2733 48.4167L39.9167 46.0601L35 50.9767ZM25 50.0001H31.6667V54.3101L28.13 50.7751L25.7733 53.1317L29.31 56.6667H25V50.0001Z" fill="black"/>
<path d="M35 67.6433V65C35 64.0796 34.2537 63.3333 33.3333 63.3333H23.3333C22.4129 63.3333 21.6667 64.0796 21.6667 65V75C21.6667 75.9204 22.4129 76.6667 23.3333 76.6667H33.3333C34.2537 76.6667 35 75.9204 35 75V72.3567L42.2733 65.0833L39.9167 62.7267L35 67.6433ZM25 66.6667H31.6667V70.9767L28.13 67.4417L25.7733 69.7984L29.31 73.3333H25V66.6667Z" fill="black"/>
<path d="M39.9167 79.3933L35 84.31V81.6666C35 80.7462 34.2537 80 33.3333 80H23.3333C22.4129 80 21.6667 80.7462 21.6667 81.6666V91.6667C21.6667 92.5871 22.4129 93.3333 23.3333 93.3333H33.3333C34.2537 93.3333 35 92.5871 35 91.6667V89.0233L42.2733 81.75L39.9167 79.3933ZM25 83.3333H31.6667V87.6433L28.13 84.1083L25.7733 86.465L29.31 90H25V83.3333Z" fill="black"/>
</g>
<defs>
<clipPath id="clip0">
<rect width="100" height="100" fill="white"/>
</clipPath>
</defs>
</svg>
