<svg width="100" height="100" viewBox="0 0 100 100" fill="none" xmlns="http://www.w3.org/2000/svg">
<path d="M71.6663 1.66675H16.6663C14.8253 1.66675 13.333 3.15904 13.333 5.00008V95.0001C13.333 96.8411 14.8253 98.3334 16.6663 98.3334H83.333C85.174 98.3334 86.6663 96.8411 86.6663 95.0001V16.6667L71.6663 1.66675Z" fill="#FD5742"/>
<path d="M71.667 1.66675V16.6667C71.667 17.5872 72.4132 18.3334 73.3337 18.3334H86.667V16.6667L71.667 1.66675Z" fill="#BA301E"/>
<path d="M86.8737 14.5467L73.8237 1.46833C72.8834 0.53125 71.6112 0.00354167 70.2837 0H16.667C13.9055 0 11.667 2.23854 11.667 5V95C11.667 97.7615 13.9055 100 16.667 100H83.3337C86.0951 100 88.3337 97.7615 88.3337 95V18.0767C88.3366 16.7525 87.8112 15.4819 86.8737 14.5467ZM85.0003 95C85.0003 95.9204 84.2541 96.6667 83.3337 96.6667H16.667C15.7466 96.6667 15.0003 95.9204 15.0003 95V5C15.0003 4.07958 15.7466 3.33333 16.667 3.33333H70.0003V15C70.0003 17.7615 72.2389 20 75.0003 20H81.667V16.6667H75.0003C74.0799 16.6667 73.3337 15.9204 73.3337 15V5.695L84.5137 16.9C84.8264 17.2115 85.0018 17.6352 85.0003 18.0767V95Z" fill="black"/>
<path d="M45.001 16H48.3343V19.3333H45.001V16Z" fill="black"/>
<path d="M47.001 73H50.3343V76.3333H47.001V73Z" fill="black"/>
<path d="M52.001 16H66.001V19H52.001V16Z" fill="black"/>
<path d="M54.001 73H68.001V76H54.001V73Z" fill="black"/>
<path d="M45.001 23H78.001V26H45.001V23Z" fill="black"/>
<path d="M47.001 80H80.001V83H47.001V80Z" fill="black"/>
<path d="M45.001 29H71.001V32H45.001V29Z" fill="black"/>
<path d="M47.001 86H73.001V89H47.001V86Z" fill="black"/>
<path d="M21.001 45H24.3343V48.3333H21.001V45Z" fill="black"/>
<path d="M27.667 45H47.667V48.3333H27.667V45Z" fill="black"/>
<path d="M21.001 52H54.001V55H21.001V52Z" fill="black"/>
<path d="M21.001 59H43.001V62H21.001V59Z" fill="black"/>
<path d="M28.0634 22H33.9386C36.7344 22 39.001 23.8416 39.001 26.1132V35H23.001V26.1132C23.001 23.8416 25.2676 22 28.0634 22Z" fill="white"/>
<path d="M30.581 11H31.421C32.8458 11 34.001 12.0782 34.001 13.408V15.592C34.001 16.9218 32.8458 18 31.421 18H30.581C29.1562 18 28.001 16.9218 28.001 15.592V13.408C28.001 12.0782 29.1562 11 30.581 11Z" fill="white"/>
<path d="M21.001 26.6667V34.6667C21.001 35.403 21.7472 36 22.6676 36H39.3343C40.2547 36 41.001 35.403 41.001 34.6667V26.6667C40.9956 22.9867 37.2676 20.0043 32.6676 20H29.3343C24.7343 20.0043 21.0064 22.9867 21.001 26.6667ZM24.3343 26.6667C24.3343 24.4575 26.5729 22.6667 29.3343 22.6667H32.6676C35.4291 22.6667 37.6676 24.4575 37.6676 26.6667V33.3333H24.3343V26.6667Z" fill="black"/>
<path d="M36.001 15.1429V13.8571C36.001 11.7269 33.7624 10 31.001 10C28.2395 10 26.001 11.7269 26.001 13.8571V15.1429C26.001 17.2731 28.2395 19 31.001 19C33.7624 19 36.001 17.2731 36.001 15.1429ZM29.3343 15.1429V13.8571C29.3343 13.1471 30.0806 12.5714 31.001 12.5714C31.9214 12.5714 32.6676 13.1471 32.6676 13.8571V15.1429C32.6676 15.8529 31.9214 16.4286 31.001 16.4286C30.0806 16.4286 29.3343 15.8529 29.3343 15.1429Z" fill="black"/>
<path d="M66.0634 51H71.9386C74.7344 51 77.001 52.8416 77.001 55.1132V64H61.001V55.1132C61.001 52.8416 63.2676 51 66.0634 51Z" fill="white"/>
<path d="M68.581 40H69.421C70.8458 40 72.001 41.0782 72.001 42.408V44.592C72.001 45.9218 70.8458 47 69.421 47H68.581C67.1562 47 66.001 45.9218 66.001 44.592V42.408C66.001 41.0782 67.1562 40 68.581 40Z" fill="white"/>
<path d="M59.001 55.6667V63.6667C59.001 64.403 59.7472 65 60.6676 65H77.3343C78.2547 65 79.001 64.403 79.001 63.6667V55.6667C78.9956 51.9867 75.2676 49.0043 70.6676 49H67.3343C62.7343 49.0043 59.0064 51.9867 59.001 55.6667ZM62.3343 55.6667C62.3343 53.4575 64.5729 51.6667 67.3343 51.6667H70.6676C73.4291 51.6667 75.6676 53.4575 75.6676 55.6667V62.3333H62.3343V55.6667Z" fill="black"/>
<path d="M74.001 44.1429V42.8571C74.001 40.7269 71.7624 39 69.001 39C66.2395 39 64.001 40.7269 64.001 42.8571V44.1429C64.001 46.2731 66.2395 48 69.001 48C71.7624 48 74.001 46.2731 74.001 44.1429ZM67.3343 44.1429V42.8571C67.3343 42.1471 68.0806 41.5714 69.001 41.5714C69.9214 41.5714 70.6676 42.1471 70.6676 42.8571V44.1429C70.6676 44.8529 69.9214 45.4286 69.001 45.4286C68.0806 45.4286 67.3343 44.8529 67.3343 44.1429Z" fill="black"/>
<path d="M27.0634 78H32.9386C35.7344 78 38.001 79.8416 38.001 82.1132V91H22.001V82.1132C22.001 79.8416 24.2676 78 27.0634 78Z" fill="white"/>
<path d="M29.581 67H30.421C31.8458 67 33.001 68.0782 33.001 69.408V71.592C33.001 72.9218 31.8458 74 30.421 74H29.581C28.1562 74 27.001 72.9218 27.001 71.592V69.408C27.001 68.0782 28.1562 67 29.581 67Z" fill="white"/>
<path d="M20.001 82.6667V90.6667C20.001 91.403 20.7472 92 21.6676 92H38.3343C39.2547 92 40.001 91.403 40.001 90.6667V82.6667C39.9956 78.9867 36.2676 76.0043 31.6676 76H28.3343C23.7343 76.0043 20.0064 78.9867 20.001 82.6667ZM23.3343 82.6667C23.3343 80.4575 25.5729 78.6667 28.3343 78.6667H31.6676C34.4291 78.6667 36.6676 80.4575 36.6676 82.6667V89.3333H23.3343V82.6667Z" fill="black"/>
<path d="M35.001 71.1429V69.8571C35.001 67.7269 32.7624 66 30.001 66C27.2395 66 25.001 67.7269 25.001 69.8571V71.1429C25.001 73.2731 27.2395 75 30.001 75C32.7624 75 35.001 73.2731 35.001 71.1429ZM28.3343 71.1429V69.8571C28.3343 69.1471 29.0806 68.5714 30.001 68.5714C30.9214 68.5714 31.6676 69.1471 31.6676 69.8571V71.1429C31.6676 71.8529 30.9214 72.4286 30.001 72.4286C29.0806 72.4286 28.3343 71.8529 28.3343 71.1429Z" fill="black"/>
</svg>
