<svg width="50" height="50" viewBox="0 0 50 50" fill="none" xmlns="http://www.w3.org/2000/svg">
<g clip-path="url(#clip0)">
<path d="M25 50C38.8071 50 50 38.8071 50 25C50 11.1929 38.8071 0 25 0C11.1929 0 0 11.1929 0 25C0 38.8071 11.1929 50 25 50Z" fill="#DC4E41"/>
<path d="M8.70396 26.1188C8.61528 30.4202 11.5779 34.5251 15.6534 35.8638C19.4922 37.1535 24.2121 36.1887 26.7665 32.9011C28.6316 30.5976 29.0554 27.5266 28.8535 24.6575C25.566 24.6281 22.2784 24.6379 18.9958 24.6428C18.9904 25.814 18.9958 26.9807 19.0007 28.1519C20.9691 28.2062 22.938 28.1813 24.9064 28.2209C24.4095 29.9238 23.2776 31.5085 21.5596 32.1235C18.2426 33.5852 14.0103 31.6756 12.9666 28.196C11.7067 24.8639 13.7692 20.8428 17.1744 19.8735C19.2859 19.1306 21.4611 19.9671 23.2678 21.0647C24.1831 20.2082 25.0397 19.2928 25.881 18.3676C23.8284 16.6501 21.1906 15.597 18.4788 15.8283C13.1582 15.8916 8.50208 20.8036 8.70396 26.1188Z" fill="#DC4E41"/>
<path d="M14.7128 25.0292C14.5109 19.7139 19.1666 14.802 24.4872 14.7382C27.1989 14.507 29.8372 15.56 31.8894 17.2776C31.0476 18.2032 30.191 19.1181 29.2761 19.9746C27.4694 18.877 25.2942 18.0405 23.1828 18.7834C19.7771 19.7531 17.7146 23.7742 18.9749 27.1059C20.0186 30.5855 24.251 32.4951 27.5679 31.0334C29.2855 30.4184 30.4179 28.8337 30.9148 27.1309C28.9463 27.0916 26.9775 27.1161 25.009 27.0618C25.0041 25.8906 24.9992 24.7239 25.0041 23.5527C28.2868 23.5478 31.5743 23.538 34.8619 23.5674C35.0637 26.437 34.6404 29.5079 32.7749 31.8111C30.2204 35.0986 25.501 36.0634 21.6618 34.7737C17.5872 33.4354 14.6241 29.3306 14.7128 25.0292Z" fill="white"/>
</g>
<defs>
<clipPath id="clip0">
<rect width="50" height="50" fill="white"/>
</clipPath>
</defs>
</svg>
