<svg width="50" height="50" xmlns="http://www.w3.org/2000/svg">
 <defs>
  <linearGradient y2="0.13276" x2="0.99371" y1="0.93485" x1="0.06714" id="paint0_linear">
   <stop stop-color="#FFDD55"/>
   <stop stop-color="#FF543E" offset="0.5"/>
   <stop stop-color="#C837AB" offset="1"/>
  </linearGradient>
 </defs>
 <g>
  <title>background</title>
  <rect fill="none" id="canvas_background" height="52" width="52" y="-1" x="-1"/>
 </g>
 <g>
  <title>Layer 1</title>
  <circle id="svg_1" fill="url(#paint0_linear)" r="25" cy="25" cx="25"/>
  <path id="svg_2" fill="white" d="m167,10.0145c-6.144,0 -11.978,-0.54615 -14.206,5.1686c-0.921,2.3603 -0.787,5.4256 -0.787,9.8148c0,3.8515 -0.124,7.4714 0.787,9.8131c2.223,5.7181 8.105,5.1703 14.203,5.1703c5.883,0 11.95,0.6121 14.205,-5.1703c0.922,-2.384 0.787,-5.4036 0.787,-9.8131c0,-5.8534 0.323,-9.6322 -2.518,-12.4693c-2.876,-2.87427 -6.767,-2.5141 -12.477,-2.5141l0.006,0zm-1.343,2.7001c12.816,-0.0203 14.447,-1.4439 13.547,18.3328c-0.32,6.9946 -5.65,6.227 -12.202,6.227c-11.946,0 -12.29,-0.3415 -12.29,-12.2833c0,-12.0804 0.948,-12.2697 10.945,-12.2799l0,0.0034zm9.347,2.4871c-0.993,0 -1.799,0.8048 -1.799,1.7972c0,0.9925 0.806,1.7973 1.799,1.7973c0.993,0 1.799,-0.8048 1.799,-1.7973c0,-0.9924 -0.806,-1.7972 -1.799,-1.7972zm-8.004,2.1016c-4.252,0 -7.699,3.4457 -7.699,7.6946c0,4.2488 3.447,7.6929 7.699,7.6929c4.253,0 7.698,-3.4441 7.698,-7.6929c0,-4.2489 -3.445,-7.6946 -7.698,-7.6946zm0,2.7001c6.608,0 6.616,9.989 0,9.989c-6.606,0 -6.616,-9.989 0,-9.989z"/>
  <g id="svg_8">
   <path id="svg_7" fill="white" d="m24.99958,9.68206c-6.28027,0 -12.244,-0.55823 -14.5219,5.28331c-0.94091,2.41266 -0.80427,5.54601 -0.80427,10.03261c0,3.93696 -0.12626,7.63719 0.80427,10.03085c2.27272,5.84498 8.28487,5.28503 14.51843,5.28503c6.01389,0 12.21453,0.62568 14.52016,-5.28503c0.94265,-2.4369 0.80425,-5.5235 0.80425,-10.03085c0,-5.98327 0.33037,-9.84595 -2.57364,-12.74599c-2.9404,-2.93805 -6.91678,-2.56993 -12.75424,-2.56993l0.00695,0zm-1.3733,2.76004c13.10004,-0.02074 14.76742,-1.47594 13.84726,18.7396c-0.32689,7.14981 -5.77521,6.36517 -12.47222,6.36517c-12.21115,0 -12.56225,-0.34908 -12.56225,-12.55586c0,-12.34844 0.96859,-12.54201 11.18722,-12.55237l0,0.00346zm9.55441,2.54228c-1.01533,0 -1.83859,0.82266 -1.83859,1.83715c0,1.01449 0.82326,1.83715 1.83859,1.83715c1.01523,0 1.83849,-0.82266 1.83849,-1.83715c0,-1.01449 -0.82326,-1.83715 -1.83849,-1.83715zm-8.18111,2.14823c-4.34651,0 -7.86979,3.52218 -7.86979,7.86536c0,4.34308 3.52328,7.8636 7.86979,7.8636c4.34651,0 7.86802,-3.52052 7.86802,-7.8636c0,-4.34318 -3.52151,-7.86536 -7.86802,-7.86536zm0,2.76003c6.75415,0 6.76274,10.21065 0,10.21065c-6.75245,0 -6.76284,-10.21065 0,-10.21065z"/>
  </g>
 </g>
</svg>