<svg width="35" height="35" viewBox="0 0 35 35" fill="none" xmlns="http://www.w3.org/2000/svg">
<g clip-path="url(#clip0)">
<path d="M5.83352 9.84375C5.83352 6.02438 8.94124 2.91667 12.7606 2.91667H26.0796C25.5999 1.23812 24.0701 0 22.2398 0H5.46893C3.25663 0 1.4585 1.79813 1.4585 4.01042V26.6146C1.4585 28.8269 3.25663 30.625 5.46893 30.625H5.83352V9.84375Z" fill="#514D93"/>
<path d="M29.5313 5.8335H12.7604C10.5481 5.8335 8.75 7.63162 8.75 9.84391V30.9897C8.75 33.202 10.5481 35.0002 12.7604 35.0002H29.5313C31.7436 35.0002 33.5418 33.202 33.5418 30.9897V9.84391C33.5418 7.63162 31.7436 5.8335 29.5313 5.8335ZM26.6147 30.6252H15.6771C15.0734 30.6252 14.5834 30.1352 14.5834 29.5314C14.5834 28.9277 15.0734 28.4377 15.6771 28.4377H26.6147C27.2184 28.4377 27.7084 28.9277 27.7084 29.5314C27.7084 30.1352 27.2184 30.6252 26.6147 30.6252ZM26.6147 24.7918H15.6771C15.0734 24.7918 14.5834 24.3018 14.5834 23.6981C14.5834 23.0943 15.0734 22.6043 15.6771 22.6043H26.6147C27.2184 22.6043 27.7084 23.0943 27.7084 23.6981C27.7084 24.3018 27.2184 24.7918 26.6147 24.7918ZM26.6147 19.6877H15.6771C15.0734 19.6877 14.5834 19.1977 14.5834 18.5939C14.5834 17.9902 15.0734 17.5002 15.6771 17.5002H26.6147C27.2184 17.5002 27.7084 17.9902 27.7084 18.5939C27.7084 19.1977 27.2184 19.6877 26.6147 19.6877ZM26.6147 13.8543H15.6771C15.0734 13.8543 14.5834 13.3643 14.5834 12.7606C14.5834 12.1568 15.0734 11.6668 15.6771 11.6668H26.6147C27.2184 11.6668 27.7084 12.1568 27.7084 12.7606C27.7084 13.3643 27.2184 13.8543 26.6147 13.8543Z" fill="#514D93"/>
</g>
<defs>
<clipPath id="clip0">
<rect width="35.0002" height="35" fill="white"/>
</clipPath>
</defs>
</svg>
