<svg width="14" height="14" viewBox="0 0 14 14" fill="none" xmlns="http://www.w3.org/2000/svg">
<path d="M0.0683594 5.49883C0.0273438 5.82695 0 6.16055 0 6.49961C0 9.48008 1.63242 12.075 4.04961 13.4504L4.50078 12.4988V5.99922L4.00039 5.49883H0.0683594ZM14 5.99922C14 5.49883 13.4996 4.99844 12.9992 4.99844H8.99883C9.24766 3.99766 9.49922 2.99961 9.49922 2.49922C9.49922 1.49844 8.99883 0.500391 8.75 0.248828C8.74453 0.243359 8.50117 0 8.00078 0C7.25156 0 7.25156 0.749219 7.25156 0.749219C7.25156 0.762891 7.00273 1.99883 7.00273 2.49922C7.00273 2.99961 6.00195 4.99844 5.50156 5.49883L5.00117 5.74766V12.7477L5.50156 12.9965H11.0004C12.0012 12.9965 12.5016 12.4961 12.5016 11.9957C12.5016 11.4953 12.0012 10.9949 11.5008 10.9949C12.5016 10.9949 13.002 10.4945 13.002 9.99414C13.002 9.49375 12.5016 8.99336 12.0012 8.99336C13.002 8.99336 13.5023 8.49297 13.5023 7.99258C13.5023 7.49219 13.002 6.9918 12.5016 6.9918C13.4996 7 14 6.49961 14 5.99922Z" fill="#6D718C"/>
</svg>
