<svg width="16" height="15" viewBox="0 0 16 15" fill="none" xmlns="http://www.w3.org/2000/svg">
<path d="M5.79966 12.4327L5.80041 12.4334C6.28153 12.8613 6.82635 13.3459 7.39138 13.8616C7.55918 14.015 7.77525 14.1 8 14.1C8.22464 14.1 8.44082 14.015 8.60852 13.8618C9.17483 13.3449 9.7205 12.8595 10.2025 12.4309L10.2025 12.4309L10.2084 12.4256C11.614 11.1754 12.8371 10.0875 13.6899 9.01344C14.6479 7.80702 15.1 6.65455 15.1 5.39134C15.1 4.16919 14.6986 3.03714 13.9644 2.20602L13.8895 2.27222C13.1648 1.45183 12.1702 1 11.0891 1C10.281 1 9.54086 1.26666 8.88942 1.79252L8.82661 1.7147C8.82661 1.7147 8.82661 1.7147 8.82661 1.7147C8.52368 1.9592 8.24718 2.25227 8.00001 2.58945C7.7529 2.25226 7.47632 1.95919 7.17351 1.71471L7.1735 1.7147C6.50496 1.17505 5.74288 0.9 4.91101 0.9C3.80068 0.9 2.7791 1.36445 2.03568 2.20601L2.03568 2.20602C1.30156 3.03714 0.9 4.16919 0.9 5.39134C0.9 6.65455 1.35224 7.80703 2.31023 9.01355L2.38481 8.95434L2.31024 9.01355C3.16325 10.0878 4.38688 11.1761 5.79312 12.4269L5.7972 12.4305L5.79795 12.4312L5.79966 12.4327ZM8.44466 3.61244L8.53146 3.66208C8.71181 3.34673 9.01763 2.89953 9.45381 2.54736C9.9413 2.15393 10.4907 1.95595 11.0891 1.95595C11.9095 1.95595 12.6628 2.29726 13.2116 2.91857C13.7694 3.55015 14.08 4.42725 14.08 5.39134C14.08 6.40236 13.7216 7.31062 12.9019 8.34304C12.1071 9.34396 10.9233 10.3975 9.54138 11.6268L9.53765 11.6301C9.07279 12.0434 8.54812 12.5101 7.99896 13.0085C7.45291 12.5111 6.92908 12.0451 6.46525 11.6326L6.46442 11.6318L6.46269 11.6303L6.46188 11.6296L6.46187 11.6296C5.07859 10.3992 3.89353 9.34468 3.09823 8.34304L3.09823 8.34304C2.27841 7.31061 1.91999 6.40236 1.91999 5.39134C1.91999 4.42725 2.23055 3.55015 2.78841 2.91857C3.33734 2.29725 4.09052 1.95595 4.91101 1.95595C5.50932 1.95595 6.05869 2.15393 6.54618 2.54735C6.98247 2.89953 7.28829 3.34673 7.46852 3.66206L7.46854 3.66209C7.58003 3.85704 7.77863 3.97609 8 3.97609C8.22137 3.97609 8.41997 3.85704 8.53146 3.66209L8.44466 3.61244ZM1.81999 5.39134C1.81999 6.43068 2.19009 7.3602 3.01991 8.40522L2.71347 2.85237C2.13733 3.50464 1.81999 4.4063 1.81999 5.39134Z" fill="white" stroke="white" stroke-width="0.2"/>
</svg>
