<svg width="192" height="212" viewBox="0 0 192 212" fill="none" xmlns="http://www.w3.org/2000/svg">
<path d="M61.3788 177.515C61.3788 177.515 36.9708 183.88 35.8026 164.72C34.6344 145.56 43.1852 143.807 36.9943 136.171C30.8034 128.535 17.7398 116.808 22.0845 108.832C26.4253 100.854 38.5691 96.8243 43.7923 84.8403C49.0154 72.8562 50.3484 42.1199 62.1721 36.606C73.9958 31.0922 75.3547 43.2023 88.6633 37.4908C101.974 31.7743 112.725 20.01 123.671 23.6804C134.618 27.3509 130.163 38.5749 136.354 46.2111C142.545 53.8473 162.512 47.7419 167.951 61.0771C173.388 74.4172 160.199 97.7315 148.181 124.304C136.167 150.879 144.272 176.609 132.403 181.097C120.531 185.579 73.7817 160.98 61.3788 177.515Z" fill="#EDEDED"/>
<path d="M41.1124 79.6809C41.1124 80.2859 40.7244 80.7732 40.2526 80.7732C39.7764 80.7732 39.3928 80.2803 39.3928 79.6809C39.3928 79.076 39.7808 78.5887 40.2526 78.5887C40.7244 78.5831 41.1124 79.076 41.1124 79.6809Z" stroke="#FFBC47" stroke-miterlimit="10"/>
<path d="M34.0843 7.57227C34.0843 8.17722 33.6963 8.66455 33.2245 8.66455C32.7483 8.66455 32.3647 8.17162 32.3647 7.57227C32.3647 6.96731 32.7527 6.47998 33.2245 6.47998C33.6963 6.47998 34.0843 6.96731 34.0843 7.57227Z" stroke="#FFBC47" stroke-miterlimit="10"/>
<path d="M81.1956 11.5194C81.1956 12.1244 80.8076 12.6118 80.3358 12.6118C79.864 12.6118 79.476 12.1188 79.476 11.5194C79.476 10.9144 79.864 10.427 80.3358 10.427C80.8076 10.427 81.1956 10.9144 81.1956 11.5194Z" fill="#FFBC47"/>
<path d="M22.1356 52.1957C22.1356 52.8006 21.7476 53.2878 21.2758 53.2878C20.7996 53.2878 20.416 52.795 20.416 52.1957C20.416 51.5908 20.804 51.1035 21.2758 51.1035C21.752 51.1035 22.1356 51.5908 22.1356 52.1957Z" fill="#FFBC47"/>
<path d="M181.547 105.969C181.547 106.574 181.159 107.061 180.687 107.061C180.211 107.061 179.827 106.568 179.827 105.969C179.827 105.37 180.215 104.877 180.687 104.877C181.159 104.871 181.547 105.364 181.547 105.969Z" fill="#FFBC47"/>
<path d="M142.482 39.7329C142.957 39.7329 143.342 39.2439 143.342 38.6406C143.342 38.0374 142.957 37.5483 142.482 37.5483C142.007 37.5483 141.622 38.0374 141.622 38.6406C141.622 39.2439 142.007 39.7329 142.482 39.7329Z" stroke="#FFBC47" stroke-miterlimit="10"/>
<path d="M24.2476 166.781C24.1241 166.781 24.0227 166.653 24.0227 166.496V164.485C24.0227 164.328 24.1241 164.199 24.2476 164.199C24.371 164.199 24.4724 164.328 24.4724 164.485V166.496C24.4724 166.653 24.3754 166.781 24.2476 166.781Z" fill="#FFBC47"/>
<path d="M25.0412 165.772H23.4583C23.3349 165.772 23.2335 165.644 23.2335 165.487C23.2335 165.331 23.3349 165.202 23.4583 165.202H25.0412C25.1646 165.202 25.2661 165.331 25.2661 165.487C25.2661 165.649 25.1646 165.772 25.0412 165.772Z" fill="#FFBC47"/>
<path d="M4.01856 84.2236C3.89511 84.2236 3.7937 84.0948 3.7937 83.938V81.927C3.7937 81.7702 3.89511 81.6414 4.01856 81.6414C4.142 81.6414 4.24341 81.7702 4.24341 81.927V83.938C4.24341 84.0948 4.142 84.2236 4.01856 84.2236Z" fill="#FFBC47"/>
<path d="M4.81219 83.2141H3.22492C3.10147 83.2141 3.00006 83.0855 3.00006 82.929C3.00006 82.7724 3.10147 82.6438 3.22492 82.6438H4.81219C4.93564 82.6438 5.03705 82.7724 5.03705 82.929C5.03264 83.0855 4.93564 83.2141 4.81219 83.2141Z" fill="#FFBC47"/>
<path d="M165.93 39.4153C165.806 39.4153 165.705 39.2864 165.705 39.1296V37.1187C165.705 36.9618 165.806 36.833 165.93 36.833C166.053 36.833 166.155 36.9618 166.155 37.1187V39.1296C166.155 39.292 166.053 39.4153 165.93 39.4153Z" fill="#FFBC47"/>
<path d="M166.723 38.4116H165.141C165.017 38.4116 164.916 38.283 164.916 38.1265C164.916 37.9699 165.017 37.8413 165.141 37.8413H166.723C166.847 37.8413 166.948 37.9699 166.948 38.1265C166.948 38.283 166.847 38.4116 166.723 38.4116Z" fill="#FFBC47"/>
<path d="M171.97 89.1487C171.847 89.1487 171.745 89.0199 171.745 88.863V86.8521C171.745 86.6952 171.847 86.5664 171.97 86.5664C172.094 86.5664 172.195 86.6952 172.195 86.8521V88.863C172.195 89.0199 172.098 89.1487 171.97 89.1487Z" fill="#FFBC47"/>
<path d="M172.764 88.1396H171.181C171.058 88.1396 170.956 88.011 170.956 87.8544C170.956 87.6977 171.058 87.5691 171.181 87.5691H172.764C172.887 87.5691 172.989 87.6977 172.989 87.8544C172.989 88.011 172.887 88.1396 172.764 88.1396Z" fill="#FFBC47"/>
<path d="M96.1557 193.208C114.626 193.208 129.599 191.521 129.599 189.439C129.599 187.357 114.626 185.669 96.1557 185.669C77.6855 185.669 62.7124 187.357 62.7124 189.439C62.7124 191.521 77.6855 193.208 96.1557 193.208Z" fill="#EDEDED"/>
<path d="M112.252 125.471C112.252 125.471 111.66 123.037 114.788 121.853C117.917 120.668 119.69 122.369 120.263 125.319" stroke="#443936" stroke-width="2.9215" stroke-miterlimit="10"/>
<path d="M103.299 126.786L127.528 122.508L131.435 144.123C131.435 144.123 122.681 149.741 105.318 148.733L103.299 126.786Z" fill="#6D605C"/>
<path d="M108.767 137.878C108.767 137.878 122.397 136.567 129.57 133.818L129.36 132.654C129.36 132.654 123.048 135.604 108.607 136.899L108.767 137.878Z" fill="#5B504D"/>
<path d="M117.455 134.748L117.753 137.014L123.856 135.6L123.601 133.666L117.455 134.748Z" fill="#ADADAD"/>
<path d="M118.323 122.57C118.329 122.545 118.336 122.525 118.339 122.5C118.902 119.332 117.452 118.492 117.452 118.492L115.58 98.0823L111.038 102.34L111.673 102.057L113.565 118.095C113.565 118.095 111.251 119.689 112.537 122.676L113.748 121.73C113.748 121.73 114.265 122.324 113.862 122.996C113.862 122.996 113.434 122.848 113.198 123.614C113.198 123.614 113.774 124.778 114.749 123.84C114.749 123.84 115.505 124.696 116.225 123.848C116.225 123.848 117.485 124.512 118.208 122.873L118.211 122.869C118.211 122.869 118.211 122.869 118.211 122.865C118.251 122.787 118.28 122.697 118.303 122.606C118.316 122.594 118.319 122.582 118.323 122.57Z" fill="#FFBFA1"/>
<path d="M106.863 126.159L103.299 126.79L105.318 148.737C107.161 148.844 108.901 148.872 110.547 148.844L106.863 126.159Z" fill="#5B504D"/>
<path d="M70.566 86.8508L65.5397 68.9359C65.5397 68.9359 63.6025 69.2432 62.2608 68.6696C62.2608 68.6696 60.8995 67.4649 61.6816 66.8748C61.6816 66.8748 60.5363 66.4405 61.0435 65.1292C61.0435 65.1292 59.8851 63.8631 60.7621 62.9329C60.7621 62.9329 59.8262 61.7856 61.4198 61.0767C63.0102 60.3678 65.3564 60.8144 65.3564 60.8144C65.3564 60.8144 64.2177 57.565 65.1077 56.0612C65.8309 54.836 67.0417 60.839 67.0417 60.839L75.2095 88.1538L70.566 86.8508Z" fill="#FFBFA1"/>
<path d="M111.886 103.839C113.198 102.942 114.527 102.077 115.872 101.25L115.58 98.0862L111.038 102.344L111.673 102.061L111.886 103.839Z" fill="#D69F8A"/>
<path d="M72.0876 77.709C71.0765 78.9055 70.0424 80.0815 68.992 81.2288L70.5693 86.8507L75.2095 88.1497L72.0876 77.709Z" fill="#D69F8A"/>
<path d="M86.3747 173.729L87.4644 182.776L90.3408 182.833L89.5325 172.999L86.3747 173.729Z" fill="#506C70"/>
<path d="M103.587 177.412L104.818 186.435H107.694L106.732 176.617L103.587 177.412Z" fill="#506C70"/>
<path d="M90.0103 178.818L89.5325 172.999L86.3747 173.725L86.9801 178.752C87.8832 178.826 88.9827 178.896 90.0103 178.818Z" fill="#405759"/>
<path d="M107.121 180.584L106.732 176.617L103.587 177.408L104.108 181.223C105.092 180.998 106.133 180.863 107.121 180.584Z" fill="#405759"/>
<path d="M108.348 178.564L102.236 104.52L101.912 104.556C99.4673 98.2256 90.043 103.987 86.3616 106.552L84.9938 106.306C84.804 107.708 80.3994 141.066 85.6613 177.326C85.6613 177.326 88.6686 178.539 91.2079 176.249C89.1071 160.383 89.2478 133.797 90.7138 120.939C92.831 121.369 93.7309 121.008 96.1393 120.804C96.1393 120.804 101.27 172.741 102.324 179.326C105.557 180.949 108.348 178.564 108.348 178.564Z" fill="black"/>
<path d="M92.1013 111.666L91.9769 119.177L93.7244 119.304L93.6982 121.074L94.0418 121.033L94.4083 112.055L92.1013 111.666Z" fill="#333333"/>
<path d="M93.3546 56.9052L93.191 70.2224L100.308 66.932L100.547 53.2214L93.3546 56.9052Z" fill="#D69F8A"/>
<path d="M106.552 39.4003C105.102 38.9168 104.13 40.1666 103.545 41.4122C103.329 36.9417 103.109 32.8974 103.109 32.8974C103.109 32.8974 101.797 28.1155 95.3769 28.8326C89.5652 29.4841 89.5652 29.4841 89.5652 29.4841C89.5652 29.4841 87.003 51.4883 88.2497 53.9796C89.2805 56.0407 92.1406 58.9131 95.2329 58.5853C98.3253 58.2616 103.95 56.1473 103.95 52.2422C103.95 51.3653 103.908 49.9025 103.842 48.1651C107.949 48.9682 109.222 40.2936 106.552 39.4003Z" fill="#FFBFA1"/>
<path d="M106.244 40.8261C104.723 40.2648 104.052 43.1126 103.957 43.5593C104.991 44.1862 105.308 45.8457 104.733 46.8046C107.141 47.075 107.858 41.4203 106.244 40.8261Z" fill="#D69F8A"/>
<path d="M103.957 41.0803L103.545 43.7109H102.334V34.6838C102.334 34.6838 99.7324 32.8973 99.9451 29.6437C99.9451 29.6437 97.3436 31.1066 94.814 31.5942C92.8506 31.9712 85.3242 33.221 85.465 24.5217C85.465 24.5217 86.7215 27.4474 88.3773 27.6933C88.3773 27.6933 84.3393 25.0093 87.2222 20.0512C87.2222 20.0512 86.8623 22.6532 88.3773 22.4073C89.8924 22.1614 94.7453 16.5518 99.1041 18.4244C103.463 20.297 103.548 23.6284 103.548 23.6284C103.548 23.6284 107.962 23.5464 108.244 26.4722C108.525 29.3979 105.538 39.3388 105.538 39.3388C105.538 39.3388 103.957 39.7239 103.957 41.0803Z" fill="#664032"/>
<path d="M95.7467 36.2573C95.7467 36.2573 99.1597 35.3516 100.083 37.2449C100.083 37.2449 101.077 35.3844 99.6571 34.6427C98.2337 33.901 96.6499 34.1468 95.9398 34.4419C95.2558 34.7247 94.9155 36.0401 95.7467 36.2573Z" fill="#664032"/>
<path d="M92.6576 36.2662C92.6576 36.2662 89.6896 35.1065 88.7504 36.9219C88.7504 36.9219 88.1679 34.9344 89.539 34.5164C90.9102 34.0984 92.2944 34.2295 92.903 34.5369C93.4953 34.8319 93.371 36.2621 92.6576 36.2662Z" fill="#664032"/>
<path d="M98.6689 41.2769C99.1261 41.2769 99.4968 40.5026 99.4968 39.5476C99.4968 38.5926 99.1261 37.8184 98.6689 37.8184C98.2117 37.8184 97.841 38.5926 97.841 39.5476C97.841 40.5026 98.2117 41.2769 98.6689 41.2769Z" fill="#222228"/>
<path d="M91.9835 41.2769C92.4407 41.2769 92.8114 40.5026 92.8114 39.5476C92.8114 38.5926 92.4407 37.8184 91.9835 37.8184C91.5262 37.8184 91.1556 38.5926 91.1556 39.5476C91.1556 40.5026 91.5262 41.2769 91.9835 41.2769Z" fill="#222228"/>
<path d="M94.1563 37.8186L91.473 46.7062L95.0857 47.6282L94.1563 37.8186Z" fill="#D69F8A"/>
<path d="M92.0751 49.7508L99.5034 48.5051C99.5034 48.5051 98.7278 51.9758 95.7892 52.57C92.8507 53.1641 92.0751 49.7508 92.0751 49.7508Z" fill="white"/>
<path d="M83.1874 68.5056C83.1874 68.5056 83.9793 95.3492 84.8236 107.49C84.8236 107.49 88.3937 109.482 95.7565 109.445C100.956 109.42 102.498 108.072 102.498 108.072L112.246 66.1208C112.246 66.1208 107.504 64.6292 99.5917 64.2686L95.7925 68.44C95.7925 68.44 94.8959 65.0185 92.9488 64.2563C89.9579 64.3793 86.6888 64.6825 83.1874 65.2521V68.5056Z" fill="#FD5742"/>
<path d="M111.444 101.688L106.732 67.4116L112.246 66.1208L116.13 99.0739L111.444 101.688Z" fill="#FD5742"/>
<path d="M83.1874 65.252L74.7742 82.8144L73.7533 80.5074C72.4181 82.253 71.1256 84.0518 69.7643 85.7687C71.2074 90.776 72.7552 94.9679 73.7893 94.5213C76.2501 93.4641 84.4047 78.016 84.4047 78.016L83.1874 65.252Z" fill="#FD5742"/>
<path d="M87.3073 108.957C85.8119 108.539 84.9218 108.134 84.9054 108.125C84.4669 107.941 84.3164 108.4 84.2575 108.937C84.1822 109.642 84.1168 109.945 84.5095 110.096C84.5814 110.125 85.4552 110.576 86.9441 111.035C87.0652 110.342 87.1862 109.65 87.3073 108.957Z" fill="#333333"/>
<path d="M98.0733 109.76C96.3979 109.912 94.5686 109.912 92.5889 109.814C91.0607 109.736 89.6929 109.519 88.5475 109.265C88.5737 109.99 88.4821 110.707 88.3676 111.42C89.5358 111.695 90.9331 111.928 92.5202 112.006C93.1648 112.039 93.7964 112.055 94.4116 112.055C95.7925 112.055 97.0654 111.994 98.2631 111.854C98.1388 111.166 98.0733 110.469 98.0733 109.76Z" fill="#333333"/>
<path d="M102.975 109.69C102.9 109.157 102.851 108.686 102.409 108.854C101.418 109.223 100.338 109.481 99.1696 109.645C99.199 110.337 99.2743 111.026 99.3495 111.71C100.564 111.509 101.693 111.214 102.753 110.776C103.06 110.645 103.054 110.227 102.975 109.69Z" fill="#333333"/>
<path d="M91.4435 109.445V112.055L95.3278 112.375V109.56L91.4435 109.445ZM94.6701 111.879L92.1013 111.67V109.945L94.6701 110.023V111.879Z" fill="#ADADAD"/>
<path d="M86.2176 180.904C86.2176 180.904 84.5782 183.501 82.0879 184.415C79.5977 185.329 76.2599 187.152 76.4398 188.98C76.4398 188.98 81.2371 190.525 87.2484 188.066V188.837L91.1949 188.628V182.239L87.916 182.522L88.1581 181.891L86.2176 180.904Z" fill="black"/>
<path d="M83.8157 188.488C79.2901 189.931 76.7868 188.636 76.4726 188.505C76.4366 188.664 76.4268 188.82 76.4432 188.98C76.4432 188.98 81.2404 190.525 87.2517 188.066V188.837L91.1981 188.628V187.353C89.7877 187.456 87.3728 187.353 83.8157 188.488Z" fill="#544947"/>
<path d="M84.9578 182.448C84.9578 182.448 85.9133 182.87 86.7641 184.415" stroke="#544947" stroke-width="1.0446" stroke-miterlimit="10" stroke-linecap="round"/>
<path d="M84.0546 182.944C84.0546 182.944 85.0102 183.366 85.861 184.911" stroke="#544947" stroke-width="1.0446" stroke-miterlimit="10" stroke-linecap="round"/>
<path d="M83.1514 183.432C83.1514 183.432 84.107 183.854 84.9578 185.399" stroke="#544947" stroke-width="1.0446" stroke-miterlimit="10" stroke-linecap="round"/>
<path d="M108.565 182.157C108.565 182.157 110.204 184.755 112.694 185.669C115.185 186.583 118.522 188.406 118.342 190.234C118.342 190.234 113.545 191.779 107.534 189.32V190.09L103.587 189.881V183.493L106.866 183.776L106.624 183.145L108.565 182.157Z" fill="black"/>
<path d="M110.966 189.742C115.492 191.184 117.995 189.89 118.309 189.759C118.345 189.918 118.355 190.074 118.339 190.234C118.339 190.234 113.542 191.779 107.53 189.32V190.09L103.584 189.881V188.607C104.994 188.71 107.413 188.607 110.966 189.742Z" fill="#544947"/>
<path d="M109.828 183.702C109.828 183.702 108.872 184.124 108.021 185.669" stroke="#544947" stroke-width="1.0446" stroke-miterlimit="10" stroke-linecap="round"/>
<path d="M110.731 184.198C110.731 184.198 109.775 184.62 108.924 186.165" stroke="#544947" stroke-width="1.0446" stroke-miterlimit="10" stroke-linecap="round"/>
<path d="M111.634 184.686C111.634 184.686 110.678 185.108 109.828 186.652" stroke="#544947" stroke-width="1.0446" stroke-miterlimit="10" stroke-linecap="round"/>
<path d="M95.7892 68.4402L96.8691 64.2563L98.9438 65.5922L95.7892 68.4402Z" fill="#AB3E30"/>
<path d="M95.6354 64.5679L95.7892 68.4402L94.1432 65.6251L95.6354 64.5679Z" fill="#AB3E30"/>
<path d="M90.8774 64.0884L93.3284 68.6655L95.6354 64.5678L92.2944 61.4905L90.8774 64.0884Z" fill="#E75340"/>
<path d="M101.987 64.0188L98.5576 68.6655L96.8691 64.2564L100.75 61.302L101.987 64.0188Z" fill="#E75340"/>
<path d="M97.445 65.7644C97.445 65.7644 96.3553 66.0389 94.9613 65.7644L94.2872 66.9609L94.9646 69.4031L90.272 99.0493L92.7786 103.069L96.1066 99.7664L96.6793 69.7186L97.8279 66.7642L97.445 65.7644Z" fill="black"/>
<path d="M98.4758 78.1392L107.216 78.9628C107.216 78.9628 106.817 88.7847 101.987 88.1168C96.0609 87.2932 98.4758 78.1392 98.4758 78.1392Z" fill="#E75340"/>
<path d="M105.043 78.7578C105.043 78.7578 105.289 74.1973 105.881 74.1276C106.473 74.058 106.11 82.2162 105.462 82.3555C105.462 82.3555 105.344 81.1631 105.613 78.8111L105.043 78.7578Z" fill="black"/>
<path d="M109.795 97.6807L116.464 95.2712L116.997 99.6312L110.773 102.405L109.795 97.6807Z" fill="#E75340"/>
<path d="M73.0661 78.9626L74.771 82.2981C74.771 82.2981 72.2644 89.0428 70.3075 90.5835L68.3506 84.7731L73.0661 78.9626Z" fill="#E75340"/>
</svg>
