<svg width="20" height="17" viewBox="0 0 20 17" fill="none" xmlns="http://www.w3.org/2000/svg">
<path d="M15.8984 0H4.10156C1.8399 0 0 1.89927 0 4.23389V10.7731C0 12.636 1.18484 14.2585 2.90176 14.7778L4.88266 16.8228C4.99268 16.9362 5.1416 17 5.29709 17C5.45242 17 5.6015 16.9362 5.71136 16.8228L7.52853 14.9468H15.8984C18.1601 14.9468 20 13.0476 20 10.7129V4.23389C20 1.89927 18.1601 0 15.8984 0ZM18.8281 10.7129C18.8281 12.3805 17.5139 13.7372 15.8984 13.7372H7.28592C7.13058 13.7372 6.98151 13.801 6.87164 13.9144L5.29709 15.5397L3.62015 13.8087C3.54492 13.731 3.45062 13.6759 3.34732 13.6494C2.0665 13.3204 1.17188 12.1376 1.17188 10.7731V4.23389C1.17188 2.56633 2.48611 1.20968 4.10156 1.20968H15.8984C17.5139 1.20968 18.8281 2.56633 18.8281 4.23389V10.7129Z" fill="#777777"/>
<path d="M13.7204 5.79955H6.2796C5.95596 5.79955 5.69366 6.07047 5.69366 6.4044C5.69366 6.73848 5.95596 7.00924 6.2796 7.00924H13.7204C14.044 7.00924 14.3063 6.73848 14.3063 6.4044C14.3063 6.07047 14.044 5.79955 13.7204 5.79955Z" fill="#777777"/>
<path d="M13.7204 7.93761H6.2796C5.95596 7.93761 5.69366 8.20837 5.69366 8.54245C5.69366 8.87653 5.95596 9.14729 6.2796 9.14729H13.7204C14.044 9.14729 14.3063 8.87653 14.3063 8.54245C14.3063 8.20837 14.044 7.93761 13.7204 7.93761Z" fill="#777777"/>
</svg>
