<svg width="38" height="38" viewBox="0 0 38 38" fill="none" xmlns="http://www.w3.org/2000/svg">
<circle cx="19" cy="19" r="19" fill="#F5F5F5"/>
<path d="M28.2188 18.2188H19.7812V9.78125C19.7812 9.34977 19.4315 9 19 9C18.5685 9 18.2188 9.34977 18.2188 9.78125V18.2188H9.78125C9.34977 18.2188 9 18.5685 9 19C9 19.4315 9.34977 19.7812 9.78125 19.7812H18.2188V28.2188C18.2188 28.6502 18.5685 29 19 29C19.4315 29 19.7812 28.6502 19.7812 28.2188V19.7812H28.2188C28.6502 19.7812 29 19.4315 29 19C29 18.5685 28.6502 18.2188 28.2188 18.2188Z" fill="#777777"/>
</svg>
