<svg width="78" height="64" viewBox="0 0 78 64" fill="none" xmlns="http://www.w3.org/2000/svg">
<g opacity="0.5">
<path d="M61.8707 7.78986C60.5932 6.46135 58.8289 5.67633 56.8213 5.67633H46.7224V5.55556C46.7224 4.04589 46.1141 2.59662 45.0798 1.63043C44.0456 0.603865 42.6464 0 41.1255 0H22.8745C21.2928 0 19.8935 0.603865 18.8593 1.63043C17.8251 2.657 17.2167 4.04589 17.2167 5.55556V5.67633H7.17871C5.1711 5.67633 3.40684 6.46135 2.12928 7.78986C0.851711 9.05797 0 10.8696 0 12.8019V42.8744C0 44.8671 0.790874 46.6184 2.12928 47.8865C3.40684 49.1546 5.23194 50 7.17871 50H56.8213C58.8289 50 60.5932 49.215 61.8707 47.8865C63.1483 46.6184 64 44.8068 64 42.8744V12.8019C64 10.8092 63.2091 9.05797 61.8707 7.78986ZM60.8365 42.8744H60.7757C60.7757 43.9613 60.3498 44.9275 59.6198 45.6522C58.8897 46.3768 57.9164 46.7995 56.8213 46.7995H7.17871C6.08365 46.7995 5.11027 46.3768 4.38023 45.6522C3.65019 44.9275 3.22433 43.9613 3.22433 42.8744V12.8019C3.22433 11.715 3.65019 10.7488 4.38023 10.0242C5.11027 9.29952 6.08365 8.87681 7.17871 8.87681H18.9202C19.8327 8.87681 20.5627 8.15217 20.5627 7.24638V5.49517C20.5627 4.83092 20.8061 4.22705 21.2319 3.80435C21.6578 3.38164 22.2662 3.1401 22.9354 3.1401H41.1255C41.7947 3.1401 42.403 3.38164 42.8289 3.80435C43.2548 4.22705 43.4981 4.83092 43.4981 5.49517V7.24638C43.4981 8.15217 44.2281 8.87681 45.1407 8.87681H56.8821C57.9772 8.87681 58.9506 9.29952 59.6806 10.0242C60.4106 10.7488 60.8365 11.715 60.8365 12.8019V42.8744Z" fill="black"/>
<path d="M32 12.9831C27.8631 12.9831 24.0912 14.6739 21.4144 17.331C18.6768 20.0483 17.0342 23.7319 17.0342 27.8382C17.0342 31.9445 18.7376 35.6885 21.4144 38.3455C24.1521 41.0629 27.8631 42.6933 32 42.6933C36.1369 42.6933 39.9087 41.0025 42.5855 38.3455C45.3232 35.6281 46.9658 31.9445 46.9658 27.8382C46.9658 23.7319 45.2623 19.988 42.5855 17.331C39.9087 14.6739 36.1369 12.9831 32 12.9831ZM40.2738 36.1112C38.1445 38.1643 35.2243 39.4928 32 39.4928C28.7756 39.4928 25.8555 38.1643 23.7262 36.1112C21.5969 33.9976 20.3194 31.0991 20.3194 27.8986C20.3194 24.6981 21.6578 21.7996 23.7262 19.686C25.8555 17.5725 28.7756 16.3044 32 16.3044C35.2243 16.3044 38.1445 17.6329 40.2738 19.686C42.403 21.7996 43.6806 24.6981 43.6806 27.8986C43.7414 31.0991 42.403 33.9976 40.2738 36.1112Z" fill="black"/>
<path d="M53.6573 18.8404C55.3037 18.8404 56.6383 17.5156 56.6383 15.8815C56.6383 14.2473 55.3037 12.9225 53.6573 12.9225C52.0109 12.9225 50.6763 14.2473 50.6763 15.8815C50.6763 17.5156 52.0109 18.8404 53.6573 18.8404Z" fill="black"/>
<circle cx="61.5" cy="47.5" r="16.5" fill="#EEEEEE"/>
<path d="M71.7408 45.7033H71.7421H63.2968V37.2738C63.2968 36.5801 62.7351 36 62.0413 36H60.9607C60.2672 36 59.703 36.5801 59.703 37.2738V45.7033H51.2579C50.5645 45.7033 50 46.2643 50 46.9582V48.045C50 48.7384 50.5643 49.2969 51.2579 49.2969H59.7032V57.7569C59.7032 58.4502 60.2672 59 60.9609 59H62.0415C62.7353 59 63.297 58.4501 63.297 57.7569V49.2969H71.7408C72.4345 49.2969 73 48.7382 73 48.045V46.9582C73 46.2643 72.4345 45.7033 71.7408 45.7033Z" fill="black"/>
</g>
</svg>
