<svg width="244" height="157" viewBox="0 0 244 157" fill="none" xmlns="http://www.w3.org/2000/svg">
<g clip-path="url(#clip0)">
<path d="M108.566 131.233C108.566 131.233 88.7343 143.513 80.008 130.043C71.2818 116.573 78.4203 112.616 69.694 109.05C60.9677 105.484 44.3069 101.127 45.1029 93.9993C45.8947 86.8713 55.417 80.1385 55.417 69.8396C55.417 59.5408 44.3585 36.9236 52.9945 29.2198C61.6304 21.5161 67.7147 29.8342 77.6328 21.5204C87.551 13.2022 92.7059 1.32218 104.208 0.527316C115.709 -0.26755 116.109 9.24077 124.836 12.8069C133.562 16.3731 149.427 5.67891 159.741 13.5975C170.055 21.5204 167.279 42.5091 166.879 65.4829C166.483 88.4567 184.194 104.487 175.106 111.465C166.014 118.438 113.33 115.388 108.566 131.233Z" fill="#EDEDED"/>
<path d="M32.5299 153.653C50.4957 153.653 65.0598 150.971 65.0598 147.663C65.0598 144.356 50.4957 141.674 32.5299 141.674C14.5641 141.674 0 144.356 0 147.663C0 150.971 14.5641 153.653 32.5299 153.653Z" fill="#EDEDED"/>
<path d="M155.244 156.48C186.644 156.48 212.098 153.566 212.098 149.971C212.098 146.376 186.644 143.461 155.244 143.461C123.844 143.461 98.39 146.376 98.39 149.971C98.39 153.566 123.844 156.48 155.244 156.48Z" fill="#EDEDED"/>
<path d="M180.085 26.6504V141.751C180.085 145.902 176.716 149.262 172.563 149.262H114.302C110.154 149.262 106.785 145.902 106.785 141.751V26.6504C106.785 22.5042 110.154 19.14 114.302 19.14H172.563C176.716 19.14 180.085 22.5042 180.085 26.6504Z" fill="#070707"/>
<path d="M149.444 144.514H137.426C135.873 144.514 134.616 143.259 134.616 141.708C134.616 140.157 135.873 138.903 137.426 138.903H149.444C150.997 138.903 152.254 140.157 152.254 141.708C152.254 143.259 150.993 144.514 149.444 144.514Z" fill="#2D2D2E"/>
<path d="M175.554 29.4948V131.427C175.554 133.433 173.919 135.07 171.905 135.07H114.956C112.947 135.07 111.307 133.433 111.307 131.427V29.4948C111.307 27.4797 112.947 25.8513 114.956 25.8513H171.901C173.919 25.8513 175.554 27.484 175.554 29.4948Z" fill="#FD5742"/>
<path d="M168.708 26.0275L111.307 120.939V29.4948C111.307 27.4797 112.947 25.8513 114.956 25.8513H167.865L168.708 26.0275Z" fill="#FF624F"/>
<path d="M156.269 83.4774C163.359 76.3984 163.359 64.921 156.269 57.8419C149.18 50.7628 137.685 50.7628 130.596 57.8419C123.506 64.921 123.506 76.3984 130.596 83.4774C137.685 90.5565 149.18 90.5565 156.269 83.4774Z" fill="#FD5742"/>
<path d="M150.21 73.3412L152.125 66.819C152.327 66.1315 151.81 65.4441 151.092 65.4441L136.079 65.4699L135.718 62.9865H132.49C132.245 62.9865 132.052 63.1841 132.052 63.4247C132.052 63.6696 132.25 63.863 132.49 63.863H134.956L136.763 76.3531H151.591C151.836 76.3531 152.03 76.1555 152.03 75.9149C152.03 75.6742 151.832 75.4766 151.591 75.4766H137.525L137.327 74.1189H149.173C149.655 74.1103 150.072 73.7966 150.21 73.3412Z" fill="#E9E5FD"/>
<path d="M138.536 77.2854C137.736 77.2854 137.086 77.9342 137.086 78.7333C137.086 79.5325 137.736 80.1813 138.536 80.1813C139.336 80.1813 139.986 79.5325 139.986 78.7333C139.986 77.9342 139.336 77.2854 138.536 77.2854Z" fill="#E9E5FD"/>
<path d="M149.904 77.2854C149.104 77.2854 148.454 77.9342 148.454 78.7333C148.454 79.5325 149.104 80.1813 149.904 80.1813C150.705 80.1813 151.354 79.5325 151.354 78.7333C151.354 77.9342 150.705 77.2854 149.904 77.2854Z" fill="#E9E5FD"/>
<path d="M144.375 88.9808C144.255 88.9851 144.156 88.8906 144.151 88.7703C144.147 88.65 144.237 88.5469 144.362 88.5383C144.934 88.5082 145.515 88.4523 146.083 88.3664C146.204 88.3449 146.316 88.4309 146.333 88.5512C146.35 88.6715 146.268 88.7832 146.148 88.8004C145.563 88.8863 144.969 88.9465 144.384 88.9765C144.379 88.9808 144.375 88.9808 144.375 88.9808ZM141.746 88.9293C141.737 88.9293 141.729 88.9293 141.72 88.9293C141.135 88.8734 140.541 88.7918 139.965 88.6801C139.844 88.6586 139.767 88.5426 139.788 88.4223C139.81 88.302 139.926 88.2246 140.046 88.2461C140.61 88.3535 141.187 88.4352 141.763 88.4867C141.884 88.4996 141.974 88.6027 141.961 88.7273C141.948 88.839 141.858 88.925 141.746 88.9293ZM148.687 88.2375C148.592 88.2418 148.497 88.1774 148.471 88.0828C148.437 87.9668 148.502 87.8422 148.618 87.8079C149.169 87.6403 149.719 87.4469 150.249 87.2278C150.36 87.1849 150.489 87.2364 150.537 87.3481C150.584 87.4598 150.528 87.5887 150.416 87.636C149.87 87.8594 149.31 88.0571 148.743 88.2289C148.725 88.2332 148.704 88.2375 148.687 88.2375ZM137.469 88.0012C137.443 88.0012 137.417 87.9969 137.391 87.9883C136.832 87.795 136.281 87.5716 135.743 87.3266C135.632 87.2751 135.584 87.1462 135.636 87.0345C135.688 86.9228 135.821 86.8755 135.928 86.9271C136.449 87.1677 136.991 87.3868 137.533 87.5758C137.65 87.6145 137.71 87.7391 137.671 87.8551C137.641 87.9454 137.559 88.0012 137.469 88.0012ZM152.688 86.4802C152.611 86.4802 152.533 86.4416 152.495 86.3728C152.434 86.2697 152.469 86.1322 152.572 86.072C153.067 85.7799 153.553 85.4576 154.018 85.1182C154.117 85.0495 154.255 85.0666 154.328 85.1655C154.401 85.2643 154.379 85.4018 154.28 85.4748C153.807 85.8228 153.308 86.1494 152.8 86.4501C152.761 86.4673 152.723 86.4802 152.688 86.4802ZM133.545 86.0763C133.502 86.0763 133.459 86.0677 133.42 86.042C132.925 85.7197 132.443 85.3717 131.983 85.0065C131.888 84.9292 131.871 84.7917 131.948 84.6971C132.026 84.6026 132.163 84.5854 132.258 84.6628C132.71 85.0194 133.179 85.3631 133.661 85.6768C133.764 85.7412 133.79 85.8787 133.725 85.9818C133.682 86.042 133.614 86.0763 133.545 86.0763ZM156.152 83.8163C156.092 83.8163 156.036 83.7949 155.989 83.7519C155.903 83.666 155.907 83.5242 155.993 83.4425C156.402 83.043 156.798 82.6133 157.168 82.1751C157.245 82.0805 157.383 82.0676 157.477 82.1493C157.572 82.2266 157.581 82.3641 157.503 82.4586C157.125 82.9098 156.72 83.348 156.298 83.7605C156.26 83.7949 156.208 83.812 156.152 83.8163ZM130.188 83.2707C130.128 83.2707 130.068 83.2492 130.021 83.2019C129.616 82.7723 129.229 82.3168 128.872 81.8528C128.799 81.7583 128.816 81.6165 128.91 81.5435C129.005 81.4704 129.143 81.4876 129.22 81.5821C129.569 82.0376 129.947 82.4801 130.343 82.9012C130.425 82.9914 130.421 83.1289 130.335 83.2105C130.296 83.2492 130.24 83.2707 130.188 83.2707ZM158.884 80.4049C158.841 80.4049 158.803 80.3963 158.764 80.3705C158.661 80.306 158.631 80.1728 158.691 80.0697C158.992 79.5799 159.276 79.0729 159.53 78.5573C159.582 78.4499 159.715 78.4027 159.822 78.4585C159.93 78.5101 159.977 78.6433 159.921 78.7507C159.663 79.2792 159.371 79.799 159.061 80.3017C159.026 80.3662 158.958 80.4006 158.884 80.4049ZM127.602 79.7518C127.525 79.7518 127.447 79.7131 127.404 79.6401C127.116 79.1288 126.849 78.596 126.608 78.0546C126.561 77.9429 126.608 77.814 126.72 77.7668C126.832 77.7195 126.961 77.7668 127.009 77.8785C127.241 78.4027 127.503 78.9268 127.783 79.4252C127.843 79.5327 127.805 79.6659 127.697 79.726C127.676 79.7432 127.637 79.7518 127.602 79.7518ZM160.722 76.4391C160.696 76.4391 160.674 76.4348 160.649 76.4305C160.532 76.3919 160.468 76.2716 160.507 76.1556C160.683 75.6099 160.834 75.047 160.958 74.4842C160.984 74.3639 161.1 74.2908 161.221 74.3166C161.341 74.3424 161.415 74.4584 161.389 74.5787C161.264 75.1545 161.109 75.7302 160.928 76.2887C160.898 76.379 160.812 76.4348 160.722 76.4391ZM125.937 75.713C125.838 75.7173 125.748 75.6529 125.718 75.5497C125.563 74.9826 125.429 74.4025 125.33 73.8225C125.309 73.7022 125.391 73.5905 125.511 73.569C125.627 73.5475 125.744 73.6292 125.765 73.7495C125.864 74.3166 125.993 74.8838 126.144 75.438C126.178 75.554 126.109 75.6743 125.989 75.7087C125.972 75.7087 125.954 75.713 125.937 75.713ZM161.548 72.1511C161.539 72.1511 161.535 72.1511 161.526 72.1511C161.406 72.1425 161.316 72.0394 161.32 71.9148C161.359 71.3434 161.372 70.7591 161.359 70.1876L161.354 70.1146C161.35 69.9943 161.449 69.8911 161.569 69.8911C161.69 69.8869 161.793 69.9857 161.793 70.106L161.797 70.1747C161.815 70.7677 161.802 71.3606 161.759 71.9492C161.754 72.0609 161.66 72.1468 161.548 72.1511ZM125.292 71.3735C125.171 71.3778 125.068 71.3004 125.068 71.1801V71.1415C125.051 70.5657 125.064 69.9814 125.102 69.4056C125.111 69.2853 125.219 69.1951 125.339 69.1994C125.46 69.208 125.55 69.3111 125.546 69.4357C125.507 69.9943 125.498 70.5657 125.511 71.1286C125.507 71.2532 125.412 71.3735 125.292 71.3735ZM161.316 67.7128C161.208 67.7171 161.113 67.6397 161.092 67.5323C160.993 66.9652 160.864 66.398 160.709 65.8438C160.674 65.7278 160.743 65.6075 160.864 65.5731C160.98 65.543 161.1 65.6075 161.135 65.7278C161.294 66.2949 161.423 66.875 161.526 67.455C161.548 67.5753 161.466 67.687 161.346 67.7085C161.337 67.7128 161.324 67.7128 161.316 67.7128ZM125.692 67.0425C125.675 67.0425 125.657 67.0425 125.64 67.0382C125.52 67.0124 125.447 66.8964 125.472 66.7761C125.597 66.2004 125.752 65.6247 125.933 65.0661C125.972 64.9501 126.092 64.8856 126.208 64.9243C126.324 64.963 126.389 65.0833 126.35 65.1993C126.174 65.745 126.023 66.3078 125.903 66.8707C125.877 66.9738 125.791 67.0425 125.692 67.0425ZM160.042 63.5365C159.956 63.5408 159.874 63.4893 159.835 63.4076C159.603 62.8834 159.341 62.3635 159.057 61.8608C158.996 61.7534 159.035 61.6202 159.138 61.5601C159.246 61.4999 159.379 61.5386 159.44 61.6417C159.732 62.1573 159.999 62.6901 160.236 63.2229C160.283 63.3346 160.236 63.4635 160.124 63.515C160.098 63.5279 160.068 63.5365 160.042 63.5365ZM127.125 62.9178C127.09 62.9178 127.056 62.9135 127.021 62.8963C126.914 62.8448 126.867 62.7116 126.918 62.6042C127.176 62.08 127.465 61.5558 127.774 61.0531C127.839 60.95 127.972 60.9199 128.076 60.9801C128.179 61.0445 128.213 61.1777 128.149 61.2808C127.848 61.7706 127.564 62.2819 127.314 62.7975C127.28 62.8705 127.202 62.9135 127.125 62.9178ZM157.8 59.7856C157.731 59.7856 157.667 59.7598 157.619 59.6997C157.267 59.2442 156.888 58.8017 156.492 58.3849C156.41 58.2947 156.415 58.1572 156.501 58.0756C156.591 57.9939 156.729 57.9982 156.81 58.0842C157.215 58.5138 157.602 58.965 157.964 59.4333C158.037 59.5278 158.02 59.6653 157.925 59.7426C157.89 59.7727 157.843 59.7856 157.8 59.7856ZM129.509 59.2528C129.457 59.2528 129.405 59.2356 129.362 59.2013C129.268 59.1239 129.255 58.9864 129.336 58.8919C129.715 58.4408 130.12 58.0025 130.537 57.5901C130.623 57.5041 130.765 57.5041 130.847 57.5901C130.933 57.676 130.933 57.8135 130.847 57.8994C130.438 58.3033 130.042 58.7329 129.672 59.1712C129.629 59.2271 129.569 59.2528 129.509 59.2528ZM154.724 56.6792C154.672 56.6792 154.625 56.6663 154.582 56.6319C154.13 56.2753 153.656 55.9359 153.174 55.6222C153.071 55.5578 153.045 55.4203 153.11 55.3172C153.174 55.214 153.312 55.1883 153.415 55.2527C153.91 55.5707 154.397 55.9187 154.857 56.2882C154.952 56.3655 154.969 56.503 154.891 56.5975C154.848 56.6491 154.788 56.6792 154.724 56.6792ZM132.697 56.2624C132.628 56.2624 132.559 56.2323 132.512 56.1722C132.439 56.0734 132.46 55.9359 132.559 55.8671C133.033 55.5191 133.532 55.1883 134.04 54.8875C134.143 54.8274 134.28 54.8574 134.341 54.9648C134.405 55.068 134.371 55.2055 134.263 55.2656C133.768 55.5621 133.282 55.8843 132.817 56.2237C132.783 56.2495 132.74 56.2624 132.697 56.2624ZM150.997 54.3934C150.963 54.3934 150.933 54.3891 150.898 54.3719C150.373 54.1313 149.831 53.9165 149.289 53.7274C149.173 53.6888 149.113 53.5642 149.151 53.4482C149.19 53.3321 149.315 53.272 149.431 53.3107C149.986 53.504 150.541 53.7231 151.079 53.9723C151.191 54.0239 151.238 54.1528 151.187 54.2645C151.156 54.3418 151.079 54.3891 150.997 54.3934ZM136.505 54.1184C136.415 54.1227 136.333 54.0712 136.294 53.9809C136.247 53.8692 136.303 53.7403 136.415 53.6931C136.961 53.4696 137.525 53.2677 138.084 53.0958C138.2 53.0615 138.325 53.1259 138.36 53.2419C138.394 53.3579 138.329 53.4825 138.213 53.5169C137.663 53.6845 137.116 53.8778 136.583 54.0969C136.557 54.1141 136.531 54.1184 136.505 54.1184ZM146.828 53.0658C146.815 53.0658 146.798 53.0658 146.78 53.0615C146.217 52.9541 145.64 52.8724 145.064 52.8209C144.943 52.808 144.853 52.7049 144.866 52.5803C144.879 52.4599 144.986 52.3697 145.107 52.3826C145.696 52.4342 146.286 52.5158 146.866 52.6275C146.987 52.649 147.064 52.765 147.043 52.8853C147.021 52.9884 146.931 53.0615 146.828 53.0658ZM140.718 52.9541C140.61 52.9583 140.511 52.8767 140.494 52.765C140.477 52.6447 140.558 52.533 140.679 52.5158C141.26 52.4299 141.854 52.3697 142.443 52.3353H142.447C142.568 52.331 142.667 52.4256 142.671 52.5416C142.675 52.6619 142.585 52.765 142.465 52.7736C141.888 52.8037 141.311 52.8638 140.743 52.9498C140.739 52.9541 140.726 52.9541 140.718 52.9541Z" fill="#E9E5FD"/>
<path d="M143.433 93.6984C145.697 93.6984 147.533 91.8652 147.533 89.6038C147.533 87.3424 145.697 85.5092 143.433 85.5092C141.168 85.5092 139.332 87.3424 139.332 89.6038C139.332 91.8652 141.168 93.6984 143.433 93.6984Z" fill="#FACF5A"/>
<path d="M143.248 91.5458L141.419 89.9002C141.268 89.7628 141.255 89.5264 141.393 89.3761C141.531 89.2257 141.768 89.2128 141.918 89.3503L143.166 90.476L145.171 88.0484C145.3 87.8895 145.537 87.868 145.696 87.9969C145.855 88.1258 145.877 88.3621 145.748 88.5211L143.248 91.5458Z" fill="#070707"/>
<path d="M153.557 122.89H154.461V120.956H153.717V120.475C154.168 120.406 154.409 120.325 154.668 120.17H155.24V122.89H156.001V123.517H153.557V122.89Z" fill="white"/>
<path d="M156.604 121.828C156.604 120.689 157.116 120.105 157.895 120.105C158.669 120.105 159.186 120.689 159.186 121.828C159.186 122.967 158.674 123.581 157.895 123.581C157.116 123.581 156.604 122.967 156.604 121.828ZM158.493 121.828C158.493 120.96 158.23 120.707 157.895 120.707C157.563 120.707 157.297 120.96 157.297 121.828C157.297 122.696 157.559 122.98 157.895 122.98C158.226 122.98 158.493 122.696 158.493 121.828ZM157.499 121.819C157.499 121.575 157.671 121.42 157.895 121.42C158.119 121.42 158.291 121.579 158.291 121.819C158.291 122.064 158.119 122.223 157.895 122.223C157.671 122.219 157.499 122.064 157.499 121.819Z" fill="white"/>
<path d="M159.775 121.828C159.775 120.689 160.287 120.105 161.066 120.105C161.841 120.105 162.357 120.689 162.357 121.828C162.357 122.967 161.845 123.581 161.066 123.581C160.287 123.581 159.775 122.967 159.775 121.828ZM161.66 121.828C161.66 120.96 161.397 120.707 161.062 120.707C160.73 120.707 160.464 120.96 160.464 121.828C160.464 122.696 160.726 122.98 161.062 122.98C161.397 122.98 161.66 122.696 161.66 121.828ZM160.666 121.819C160.666 121.575 160.838 121.42 161.062 121.42C161.285 121.42 161.458 121.579 161.458 121.819C161.458 122.064 161.285 122.223 161.062 122.223C160.838 122.219 160.666 122.064 160.666 121.819Z" fill="white"/>
<path d="M162.74 122.984L163.725 122.069L163.996 122.318L163.14 123.37L162.74 122.984ZM162.779 120.982C162.779 120.432 163.114 120.105 163.562 120.105C164.009 120.105 164.345 120.436 164.345 120.982C164.345 121.527 164.009 121.871 163.562 121.871C163.114 121.875 162.779 121.527 162.779 120.982ZM163.816 120.982C163.816 120.621 163.695 120.518 163.566 120.518C163.433 120.518 163.316 120.621 163.316 120.982C163.316 121.338 163.437 121.454 163.566 121.454C163.695 121.459 163.816 121.343 163.816 120.982ZM164.117 122.687C164.117 122.137 164.452 121.811 164.9 121.811C165.347 121.811 165.683 122.142 165.683 122.687C165.683 123.233 165.347 123.577 164.9 123.577C164.457 123.581 164.117 123.233 164.117 122.687ZM164.478 121.278L165.334 120.225L165.735 120.612L164.749 121.527L164.478 121.278ZM165.154 122.687C165.154 122.326 165.033 122.223 164.904 122.223C164.771 122.223 164.655 122.326 164.655 122.687C164.655 123.044 164.775 123.16 164.904 123.16C165.033 123.164 165.154 123.048 165.154 122.687Z" fill="white"/>
<path d="M167.021 114.353C167.021 114.908 166.797 115.41 166.436 115.767C166.07 116.128 165.567 116.351 165.02 116.351H121.841C120.735 116.351 119.844 115.458 119.844 114.353C119.844 113.803 120.068 113.301 120.429 112.944C120.791 112.583 121.286 112.36 121.841 112.36H165.016C166.122 112.355 167.021 113.249 167.021 114.353Z" fill="#E9E5FD"/>
<path d="M127.585 112.354H127.146V116.35H127.585V112.354Z" fill="#FD5742"/>
<path d="M135.7 112.354H135.262V116.35H135.7V112.354Z" fill="#FD5742"/>
<path d="M143.82 112.354H143.381V116.35H143.82V112.354Z" fill="#FD5742"/>
<path d="M151.94 112.354H151.501V116.35H151.94V112.354Z" fill="#FD5742"/>
<path d="M160.059 112.354H159.62V116.35H160.059V112.354Z" fill="#FD5742"/>
<path d="M29.8664 147.204C29.8664 148.557 23.7391 149.653 16.1832 149.653C8.62729 149.653 2.49997 148.557 2.49997 147.204C2.49997 145.85 8.62729 144.755 16.1832 144.755C23.7391 144.755 29.8664 145.85 29.8664 147.204Z" fill="#D9D9D9"/>
<path d="M62.1897 147.204C62.1897 148.557 56.0624 149.653 48.5065 149.653C40.9507 149.653 34.8233 148.557 34.8233 147.204C34.8233 145.85 40.9507 144.755 48.5065 144.755C56.0624 144.755 62.1897 145.85 62.1897 147.204Z" fill="#D9D9D9"/>
<path d="M25.9981 147.363H6.09289C5.84332 146.503 5.59375 144.811 6.97068 143.711C8.87256 142.19 18.0162 138.997 18.0162 138.997L24.6427 138.765C24.6384 138.77 27.2588 145.025 25.9981 147.363Z" fill="#070707"/>
<path d="M24.7933 133.296L24.7158 139.229C24.7158 139.229 23.4981 140.694 21.2692 140.694C19.0403 140.694 18.0119 139.002 18.0119 139.002L18.3174 133.373L24.7933 133.296Z" fill="#FCBAAC"/>
<path d="M10.3183 144.376C10.0774 144.376 9.88373 144.183 9.88373 143.942V142.116C9.88373 141.876 10.0774 141.682 10.3183 141.682C10.5593 141.682 10.7529 141.876 10.7529 142.116V143.942C10.7572 144.183 10.5593 144.376 10.3183 144.376Z" fill="#FD5742"/>
<path d="M12.9861 144.376C12.7452 144.376 12.5515 144.183 12.5515 143.942V141.206C12.5515 140.965 12.7452 140.772 12.9861 140.772C13.2271 140.772 13.4207 140.965 13.4207 141.206V143.942C13.4207 144.183 13.2271 144.376 12.9861 144.376Z" fill="#FD5742"/>
<path d="M39.7544 147.363H59.6596C59.9092 146.503 60.1588 144.811 58.7818 143.711C56.88 142.19 47.7363 138.997 47.7363 138.997L41.1099 138.765C41.1142 138.77 38.498 145.025 39.7544 147.363Z" fill="#070707"/>
<path d="M40.9636 133.296L41.041 139.229C41.041 139.229 42.2587 140.694 44.4876 140.694C46.7165 140.694 47.7449 139.002 47.7449 139.002L47.4394 133.373L40.9636 133.296Z" fill="#FCBAAC"/>
<path d="M55.4858 144.376C55.2449 144.376 55.0512 144.183 55.0512 143.942V142.116C55.0512 141.876 55.2449 141.682 55.4858 141.682C55.7268 141.682 55.9204 141.876 55.9204 142.116V143.942C55.9247 144.183 55.7268 144.376 55.4858 144.376Z" fill="#FD5742"/>
<path d="M52.8224 144.376C52.5814 144.376 52.3878 144.183 52.3878 143.942V141.206C52.3878 140.965 52.5814 140.772 52.8224 140.772C53.0633 140.772 53.2569 140.965 53.2569 141.206V143.942C53.2569 144.183 53.0633 144.376 52.8224 144.376Z" fill="#FD5742"/>
<path d="M21.9749 84.1128L15.4732 133.394C15.4732 133.394 18.5197 133.798 22.1771 133.798C25.8346 133.798 27.2545 133.394 27.2545 133.394L32.1297 93.6426L39.2381 134.207C39.2381 134.207 43.0978 135.221 45.1288 135.221C47.1597 135.221 49.3929 134.61 49.3929 134.61L44.1133 85.3244L21.9749 84.1128Z" fill="#070707"/>
<path d="M22.2804 93.9605C22.2417 93.9605 22.2029 93.939 22.1814 93.9046C22.147 93.8488 22.1685 93.78 22.2245 93.7457C25.5721 91.7821 24.8148 86.1107 24.8105 86.0548C24.8019 85.9903 24.8449 85.9345 24.9095 85.9259C24.9697 85.9173 25.03 85.9603 25.0386 86.0247C25.0472 86.0849 25.8217 91.9067 22.3406 93.9519C22.3191 93.9562 22.2976 93.9605 22.2804 93.9605Z" fill="#4A339E"/>
<path d="M41.8801 94.6737C41.8543 94.6737 41.8327 94.6651 41.8112 94.6522C39.4446 92.9035 40.4042 87.275 40.4472 87.0344C40.4601 86.97 40.5161 86.927 40.5806 86.9399C40.6452 86.9528 40.6839 87.0129 40.6753 87.0731C40.6667 87.129 39.6985 92.8004 41.9489 94.4632C42.0006 94.5019 42.0135 94.5749 41.9747 94.6265C41.9489 94.6565 41.9145 94.6737 41.8801 94.6737Z" fill="#4A339E"/>
<path d="M32.9946 88.1816C32.4567 88.1816 32.0135 87.7434 32.0135 87.202C32.0135 86.665 32.4524 86.2224 32.9946 86.2224C33.5368 86.2224 33.9757 86.6607 33.9757 87.202C33.9714 87.7434 33.5325 88.1816 32.9946 88.1816ZM32.9946 86.4587C32.5815 86.4587 32.2459 86.7939 32.2459 87.2063C32.2459 87.6188 32.5815 87.9539 32.9946 87.9539C33.4077 87.9539 33.7433 87.6188 33.7433 87.2063C33.739 86.7939 33.4034 86.4587 32.9946 86.4587Z" fill="#4A339E"/>
<path opacity="0.5" d="M122.052 36.2533V79.6487C122.052 81.5779 120.485 83.1375 118.558 83.1375H107V32.7688H118.562C120.49 32.7688 122.052 34.3242 122.052 36.2533Z" fill="#01203B"/>
<path d="M76.4108 34.0191C76.4108 34.0191 70.0124 44.4641 63.2052 49.8391C56.4023 55.2098 45.7397 59.0638 45.7397 59.0638L45.4342 85.3288C45.4342 85.3288 40.2536 86.2439 34.4619 85.7327C28.6745 85.23 20.6496 84.0097 20.6496 84.0097C20.6496 84.0097 20.9551 54.1915 23.2915 50.548C25.0557 47.7939 28.0936 47.1151 29.4748 46.9475C29.9223 46.8959 30.1977 46.8959 30.1977 46.8959L31.523 46.9389L37.6202 47.1494H37.6589C37.6589 47.1494 38.7605 47.0678 40.5978 46.8014C43.5754 46.3631 48.4807 45.4308 53.756 43.5489C62.2887 40.5069 75.5932 29.5507 75.5932 29.5507L76.4108 34.0191Z" fill="#FD5742"/>
<path d="M39.6468 46.9432L35.004 54.6469L29.4834 46.9432C29.9309 46.8916 30.2063 46.8916 30.2063 46.8916L31.5316 46.9346L35.004 52.0604L37.6288 47.1408H37.6675C37.6632 47.1494 37.8095 47.2095 39.6468 46.9432Z" fill="#FF6552"/>
<path d="M33.9068 50.3676L34.72 48.9712L35.9636 50.2644L37.6632 47.1494L34.5909 46.2343L31.5273 46.9389L33.9068 50.3676Z" fill="white"/>
<path d="M117.615 35.9826V75.7217C117.615 77.4832 116.182 78.914 114.418 78.914H51.7552C49.991 78.914 48.5582 77.4832 48.5582 75.7217V35.9826C48.5582 34.221 49.991 32.7903 51.7552 32.7903H114.414C116.178 32.7903 117.615 34.221 117.615 35.9826Z" fill="#070707"/>
<path d="M94.0269 40.6359H53.8723V43.1751H94.0269V40.6359Z" fill="#535353"/>
<path d="M54.7371 55.764C54.5865 55.764 54.4359 55.7382 54.2982 55.6824V53.4353C54.4359 53.3794 54.5865 53.3536 54.7371 53.3536H59.3628C60.0211 53.3536 60.5547 53.9036 60.5547 54.561C60.5547 55.2184 60.0211 55.7683 59.3628 55.7683H54.7371V55.764Z" fill="#FDC37E"/>
<path d="M65.5643 52.5846V53.9681H61.8466C61.6013 52.8295 60.5686 51.9831 59.3638 51.9831H54.7382C54.6263 51.9831 54.5059 51.996 54.394 52.026C54.6134 51.2441 55.3406 50.6683 56.2055 50.6683H63.6538C64.7123 50.6683 65.5643 51.5276 65.5643 52.5846Z" fill="#FDC37E"/>
<path d="M61.7896 55.3387H65.5632V57.1046C65.5632 58.1616 64.7113 59.0209 63.6571 59.0209H56.2087C55.1502 59.0209 54.3026 58.1573 54.3026 57.1046V57.0917C54.4532 57.1175 54.5908 57.1347 54.7414 57.1347H59.3671C60.4987 57.1347 61.4755 56.3785 61.7896 55.3387Z" fill="#FDC37E"/>
<path d="M109.651 63.3132H53.8723V66.7376H109.651V63.3132Z" fill="#535353"/>
<path d="M109.651 69.7108H87.1078V72.9075H109.651V69.7108Z" fill="#535353"/>
<path opacity="0.1" d="M87.1723 32.7903C80.3092 41.8947 64.3756 60.5934 48.5582 61.4871V35.9826C48.5582 34.221 49.991 32.7903 51.7552 32.7903H87.1723Z" fill="white"/>
<path d="M109.242 45.5811H98.5105C97.4692 45.5811 96.6258 44.739 96.6258 43.6992V39.4671C96.6258 38.4273 97.4692 37.5852 98.5105 37.5852H109.242C110.283 37.5852 111.127 38.4273 111.127 39.4671V43.6992C111.122 44.739 110.279 45.5811 109.242 45.5811Z" fill="#535353"/>
<path d="M46.6003 81.6252C46.6003 81.6252 52.9471 84.8176 53.6571 84.1086C54.3671 83.3997 53.0977 82.9915 53.0977 82.9915C53.0977 82.9915 54.9264 83.9024 55.3309 83.3481C55.7354 82.7896 53.9583 81.6768 53.9583 81.6768C53.9583 81.6768 56.3937 82.6908 56.7509 81.9303C57.108 81.1698 52.9428 79.6488 52.9428 79.6488C52.9428 79.6488 56.2431 80.3577 56.3937 79.6488C56.5443 78.9399 53.6012 78.2309 53.6012 78.2309C53.6012 78.2309 55.2277 77.9259 54.8705 77.015C54.5134 76.1041 48.5754 76.8646 48.5754 76.8646L46.6003 81.6252Z" fill="#FCBAAC"/>
<path d="M25.0213 48.795C25.0213 48.795 28.5239 51.1539 27.5342 57.2378C27.5342 57.2378 25.628 63.8545 30.4301 67.0512C35.2278 70.2436 48.9368 76.6326 48.9368 76.6326L46.5014 81.8056C46.5014 81.8056 27.0781 78.6133 22.2804 71.9923C17.4783 65.3755 18.3949 54.1958 25.0213 48.795Z" fill="#FF6552"/>
<path d="M25.0213 48.795C25.0213 48.795 28.5239 51.1539 27.5342 57.2378C27.5342 57.2378 27.0178 59.0295 27.1986 61.195" stroke="white" stroke-width="0.5" stroke-miterlimit="10" stroke-linecap="round"/>
<path d="M75.5976 29.5549C75.5976 29.5549 75.7137 36.6271 77.0821 36.6271C78.4547 36.6271 77.7275 32.3305 77.7275 32.3305C77.7275 32.3305 77.9556 36.9708 79.1001 36.9321C80.2447 36.8935 79.595 31.9524 79.595 31.9524C79.595 31.9524 79.9779 36.8204 81.1182 36.7431C82.2628 36.6657 81.2344 31.7247 81.2344 31.7247C81.2344 31.7247 81.7679 35.6432 82.9856 35.5271C84.2034 35.4111 83.8634 29.5549 82.835 29.1381C81.8066 28.7214 79.9779 28.2616 78.1492 28.644C76.3204 29.0221 75.5976 29.5549 75.5976 29.5549Z" fill="#FCBAAC"/>
<path d="M37.6633 36.047V47.1493C37.6633 47.1493 37.1555 47.9571 34.0574 47.9571C30.9593 47.9571 30.5549 47.1493 30.5549 47.1493V36.047H37.6633Z" fill="#FCBAAC"/>
<path d="M37.6633 41.6584V45.0054C37.2674 44.9839 36.8199 44.9581 36.3294 44.9152C30.0084 44.3824 31.1142 36.0599 31.1142 36.0599L37.6633 41.6584Z" fill="#FCA18D"/>
<path d="M44.1133 33.3574C43.9584 32.4121 43.0462 32.468 42.6933 32.5281V30.9212C42.6933 29.151 41.8973 27.5656 40.6365 26.5043C39.6297 25.6536 38.3259 25.1423 36.9016 25.1423C33.7089 25.1423 31.1142 27.7289 31.1142 30.9212V32.5238C30.8388 32.3821 30.5333 32.2875 30.202 32.2875C29.1091 32.2875 28.5239 33.28 28.7692 34.38C28.9499 35.1705 29.4404 35.815 30.542 36.0943C30.7184 36.1373 30.9077 36.1716 31.1142 36.1974V37.611C31.1142 40.799 33.7089 43.3899 36.9016 43.3899C40.0987 43.3899 42.6933 40.799 42.6933 37.611V35.1362C43.1408 34.9299 44.2682 34.3026 44.1133 33.3574Z" fill="#FCBAAC"/>
<path d="M43.7562 22.6331C43.3 21.5676 41.6262 23.3936 41.6262 23.3936C41.6262 23.3936 42.2846 21.7695 41.8069 21.3141C41.325 20.8586 40.0815 21.9714 40.0815 21.9714C40.0815 21.9714 38.3775 20.8114 35.3053 21.5418C32.4051 22.2378 31.4757 26.2422 31.381 26.6762C31.239 26.6375 31.0927 26.616 30.9421 26.616C29.6513 26.616 28.6057 28.064 28.6057 29.86C28.6057 31.6516 29.9051 33.6366 31.196 33.6366C32.4869 33.6366 33.2743 31.6516 33.2743 29.86C33.2743 29.7182 33.2657 29.5721 33.2528 29.4389C33.9671 29.7139 34.9524 29.8857 36.2992 29.86C38.2743 29.8213 39.7803 29.5721 40.9291 29.1854C41.2734 29.9888 41.8242 30.8181 42.6976 31.3895V30.9298C42.6976 30.1092 42.5212 29.3272 42.2157 28.6182C45.4386 26.7578 44.0875 23.4065 43.7562 22.6331Z" fill="#070707"/>
<path d="M42.6933 37.6152C42.6933 40.8033 40.0987 43.3941 36.9017 43.3941C33.7089 43.3941 31.1143 40.8033 31.1143 37.6152V32.5238L32.4611 32.8976C32.4611 32.8976 33.1969 38.8054 38.9843 38.7281C41.7596 38.6937 42.6933 37.6152 42.6933 37.6152Z" fill="#070707"/>
<path d="M30.671 34.642C30.1762 34.642 29.8234 34.526 29.6211 34.2983C29.406 34.0534 29.449 33.7741 29.4533 33.7612C29.4576 33.7269 29.492 33.7011 29.5308 33.7097C29.5652 33.714 29.591 33.7483 29.5824 33.7827C29.5824 33.7913 29.548 34.019 29.7201 34.2124C29.9137 34.4315 30.3053 34.5303 30.8475 34.5045H30.8518C30.8862 34.5045 30.9163 34.5303 30.9163 34.5647C30.9163 34.5991 30.8905 34.6334 30.8561 34.6334C30.7872 34.642 30.727 34.642 30.671 34.642Z" fill="#D65B40"/>
<path d="M42.7966 33.9932C42.7751 33.9932 42.7493 33.9932 42.7278 33.9932C42.6933 33.9932 42.6632 33.9632 42.6632 33.9245C42.6632 33.8901 42.6933 33.86 42.7321 33.86C42.9988 33.8729 43.2011 33.8085 43.3345 33.6796C43.5109 33.4991 43.5023 33.2499 43.5023 33.2456C43.5023 33.2113 43.5281 33.1769 43.5625 33.1769C43.5969 33.1769 43.6314 33.2027 43.6314 33.237C43.6314 33.2499 43.6443 33.5507 43.4248 33.7698C43.2828 33.9202 43.0677 33.9932 42.7966 33.9932Z" fill="#D65B40"/>
<path d="M36.6736 35.4842C36.3939 35.4842 36.1702 35.3896 35.9981 35.2006C35.5979 34.7538 35.6796 33.9417 35.6839 33.9073C35.6925 33.8257 35.7657 33.7612 35.8518 33.7741C35.9335 33.7827 35.998 33.8601 35.9894 33.9417C35.9894 33.9503 35.9163 34.6549 36.2261 34.9987C36.338 35.1233 36.4843 35.1834 36.6736 35.1834C36.8586 35.1834 36.9963 35.1276 37.0996 35.0072C37.3492 34.7151 37.319 34.1222 37.2846 33.9159C37.2717 33.8343 37.3276 33.7569 37.4094 33.7398C37.4912 33.7226 37.5686 33.7827 37.5858 33.8644C37.5901 33.8987 37.7192 34.7452 37.3276 35.2006C37.1684 35.3896 36.949 35.4842 36.6736 35.4842Z" fill="#D65B40"/>
<path d="M40.9765 35.4842C40.6968 35.4842 40.4731 35.3896 40.3009 35.2006C39.9008 34.7538 39.9825 33.9417 39.9868 33.9073C39.9954 33.8257 40.0729 33.7612 40.1546 33.7741C40.2364 33.7827 40.3009 33.8601 40.288 33.9417C40.288 33.9503 40.2149 34.6549 40.5247 34.9987C40.6366 35.1233 40.7829 35.1834 40.9722 35.1834C41.1572 35.1834 41.2949 35.1276 41.3982 35.0072C41.6477 34.7151 41.6176 34.1222 41.5832 33.9159C41.5703 33.8343 41.6262 33.7569 41.708 33.7398C41.7897 33.7226 41.8672 33.7827 41.8844 33.8644C41.8887 33.8987 42.0178 34.7452 41.6262 35.2006C41.4713 35.3896 41.2519 35.4842 40.9765 35.4842Z" fill="#D65B40"/>
<path d="M38.597 37.6926C38.5497 37.6926 38.5023 37.6883 38.4593 37.684C38.3775 37.6711 38.3173 37.5938 38.3302 37.5122C38.3431 37.4305 38.4206 37.3704 38.5023 37.3833C38.8767 37.4391 39.3199 37.1598 39.3586 37.061C39.3457 36.9278 38.9369 35.2221 38.683 34.1823C38.6615 34.1007 38.7132 34.019 38.7949 33.9976C38.8724 33.9761 38.9584 34.0276 38.9799 34.1093C39.1392 34.7581 39.6641 36.8977 39.6641 37.0739C39.6641 37.1684 39.6082 37.263 39.4963 37.3618C39.2898 37.5336 38.9326 37.6926 38.597 37.6926Z" fill="#D65B40"/>
<path d="M35.0514 33.396C34.9782 33.396 34.9094 33.3617 34.8664 33.2929C34.8018 33.1898 34.8319 33.0566 34.9352 32.9922C34.9998 32.9492 36.5832 31.9696 37.8698 32.6527C37.9774 32.7086 38.0161 32.8418 37.9602 32.9492C37.9042 33.0566 37.7708 33.0953 37.6676 33.0394C36.6004 32.4723 35.1848 33.3531 35.1719 33.3617C35.1288 33.3875 35.0901 33.396 35.0514 33.396Z" fill="#0B2C55"/>
<path d="M39.492 33.1167C39.4231 33.1167 39.3586 33.0867 39.3156 33.0265C39.2467 32.9277 39.2682 32.7945 39.3629 32.7215C39.436 32.6699 41.1744 31.4368 42.134 32.5668C42.2114 32.657 42.1985 32.7945 42.1081 32.8718C42.0178 32.9492 41.8801 32.9363 41.8026 32.8461C41.1056 32.0211 39.634 33.0609 39.6211 33.0738C39.5823 33.1039 39.535 33.1167 39.492 33.1167Z" fill="#0B2C55"/>
<path d="M38.5497 40.1459C37.7923 40.1459 37.2545 39.6604 37.2459 39.6518C37.1856 39.5959 37.1813 39.4971 37.2373 39.437C37.2932 39.3768 37.3922 39.3725 37.4524 39.4284C37.4911 39.4628 38.3732 40.249 39.4232 39.5659C39.492 39.5186 39.5867 39.5401 39.634 39.6088C39.6813 39.6776 39.6598 39.7721 39.591 39.8194C39.2209 40.06 38.8638 40.1459 38.5497 40.1459Z" fill="white"/>
<path d="M36.622 36.6914C36.622 37.0781 36.3078 37.3875 35.9249 37.3875C35.5376 37.3875 35.2278 37.0738 35.2278 36.6914C35.2278 36.3048 35.5419 35.9954 35.9249 35.9954C36.3121 35.9911 36.622 36.3048 36.622 36.6914Z" fill="#FCA18D"/>
<path d="M42.2975 36.5669C42.2975 36.9536 41.9834 37.2629 41.6004 37.2629C41.2131 37.2629 40.9033 36.9493 40.9033 36.5669C40.9033 36.1802 41.2174 35.8708 41.6004 35.8708C41.9834 35.8708 42.2975 36.1802 42.2975 36.5669Z" fill="#FCA18D"/>
<path opacity="0.5" d="M180.192 115.645V137.042C179.203 137.446 178.118 137.364 177.451 137.244L175.644 116.118C176.655 115.504 178.424 115.465 180.192 115.645Z" fill="#01203B"/>
<path d="M208.144 149.777C208.144 151.118 202.068 152.209 194.577 152.209C187.086 152.209 181.01 151.122 181.01 149.777C181.01 148.437 187.086 147.345 194.577 147.345C202.068 147.345 208.144 148.437 208.144 149.777Z" fill="#D9D9D9"/>
<path d="M189.956 33.8085C189.956 33.8085 188.415 33.6968 186.72 34.8225C184.999 35.9654 183.346 37.2758 183.359 41.7829C183.376 46.5006 182.826 46.2385 180.842 49.3019C179.831 50.8659 177.155 55.2097 183.295 55.9315C189.413 56.6534 192.606 54.4492 196.995 54.6125C201.354 54.7758 202.546 51.3256 201.526 49.5253C200.519 47.7552 199.938 42.7496 200.73 40.9236C202.49 36.8504 196.629 29.2627 189.956 33.8085Z" fill="#070707"/>
<path d="M212.408 113.033C211.5 120.518 192.722 127.817 192.722 127.817L190.042 114.833L200.678 112.01L192.516 101.651L193.282 91.8121C195.859 91.8637 200.988 91.0946 200.988 91.0946C200.988 91.0946 213.028 107.933 212.408 113.033Z" fill="black"/>
<path d="M176.944 116.281L178.557 135.165C179.392 135.332 181.023 135.435 181.961 134.039C183.252 132.114 185.549 123.177 185.549 123.177L185.231 116.874C185.235 116.87 179.065 114.893 176.944 116.281Z" fill="white"/>
<path d="M190.429 116.285L184.792 116.84C184.792 116.84 183.497 118.116 183.678 120.23C183.858 122.344 185.554 123.181 185.554 123.181L191.806 122.356L190.429 116.285Z" fill="#FCBAAC"/>
<path d="M181.062 130.963C181.04 130.735 181.212 130.533 181.44 130.516L183.179 130.37C183.407 130.348 183.609 130.52 183.626 130.748C183.648 130.975 183.475 131.177 183.247 131.195L181.509 131.341C181.285 131.358 181.083 131.19 181.062 130.963Z" fill="#FD5742"/>
<path d="M180.846 128.432C180.825 128.204 180.997 128.002 181.225 127.985L183.828 127.762C184.056 127.74 184.259 127.912 184.276 128.14C184.297 128.367 184.125 128.569 183.897 128.587L181.29 128.81C181.066 128.831 180.868 128.66 180.846 128.432Z" fill="#FD5742"/>
<path d="M184.474 150.521H203.028C203.26 149.721 203.497 148.145 202.21 147.118C200.437 145.7 191.918 142.722 191.918 142.722L185.743 142.507C185.743 142.507 183.299 148.342 184.474 150.521Z" fill="white"/>
<path d="M185.601 137.403L185.674 142.933C185.674 142.933 186.81 144.299 188.889 144.299C190.967 144.299 191.922 142.722 191.922 142.722L191.638 137.476L185.601 137.403Z" fill="#FCBAAC"/>
<path d="M199.091 147.736C199.314 147.736 199.495 147.556 199.495 147.332V145.631C199.495 145.408 199.314 145.227 199.091 145.227C198.867 145.227 198.686 145.408 198.686 145.631V147.332C198.682 147.552 198.867 147.736 199.091 147.736Z" fill="#FD5742"/>
<path d="M196.604 147.736C196.827 147.736 197.008 147.556 197.008 147.332V144.78C197.008 144.557 196.827 144.376 196.604 144.376C196.38 144.376 196.199 144.557 196.199 144.78V147.332C196.199 147.552 196.38 147.736 196.604 147.736Z" fill="#FD5742"/>
<path d="M195.149 138.825L182.852 138.855L181.173 90.1064L195.067 91.2622L195.149 138.825Z" fill="#262626"/>
<path d="M230.717 68.5376C230.528 67.9575 227.929 69.0188 227.929 69.0188C227.929 69.0188 230.054 68.1509 229.912 67.5708C229.77 66.9908 225.893 68.4387 225.893 68.4387C225.893 68.4387 227.313 67.7169 226.982 67.3302C226.651 66.9435 223.294 68.1981 223.294 68.1981C223.294 68.1981 211.9 70.5398 207.468 70.1144C201.991 69.5945 200.261 61.822 200.261 61.822C198.346 56.2623 193.531 55.5361 193.531 55.5361C190.399 63.0594 196.049 72.0651 203.071 75.4636C208.931 78.3037 222.356 72.9373 223.518 72.5291C224.245 72.4603 229.852 71.919 229.585 71.3303C229.323 70.7503 228.058 71.0768 227.864 71.1284C228.131 71.0554 230.282 70.4281 230.106 69.9297C229.93 69.4355 227.735 70.1144 227.447 70.2089C227.778 70.1058 230.898 69.0875 230.717 68.5376Z" fill="#FCBAAC"/>
<path d="M202.43 90.7767C202.43 90.7767 201.492 91.0302 199.99 91.2794C198.29 91.5673 195.868 91.8637 193.29 91.8079C192.714 91.7907 192.133 91.7649 191.552 91.7091C186.036 91.2278 177.976 89.7928 177.976 89.7928C177.976 89.7928 178.497 83.3737 178.803 78.974C179.392 70.4024 181.406 60.6577 182.632 58.2216C183.062 57.3709 183.355 56.6748 184.061 56.185C185.984 54.8445 188.755 54.7156 188.755 54.7156L194.568 54.9132H194.603C194.603 54.9132 194.607 54.9175 194.616 54.9304C194.925 55.2097 199.981 59.1239 200.184 64.3614C200.351 68.7954 202.43 90.7767 202.43 90.7767Z" fill="#FD5742"/>
<path d="M205.885 84.7314L206.431 83.5541C206.431 83.5541 193.153 79.902 188.579 76.8558C184.005 73.8095 186.453 64.2367 186.453 64.2367C187.395 58.4363 184.056 56.1849 184.056 56.1849C177.74 61.3322 178.157 73.6677 182.731 79.9751C187.305 86.2824 204.672 87.3394 204.672 87.3394L204.676 87.3265C205.764 87.7089 210.171 89.1397 212.817 88.246C215.536 87.3351 207.58 85.1739 205.885 84.7314Z" fill="#FCBAAC"/>
<path d="M206.767 86.072L208.475 83.4468C208.635 83.2019 208.936 83.0859 209.224 83.1589L218.329 85.5435C218.738 85.651 218.953 86.0978 218.781 86.4845L217.468 89.3976C217.331 89.7069 216.986 89.8659 216.659 89.7757L207.159 87.1032C206.711 86.9786 206.518 86.4587 206.767 86.072Z" fill="#5B66DC"/>
<path d="M208.079 86.072L209.426 84.0053C209.551 83.812 209.792 83.7175 210.016 83.7776L217.193 85.6595C217.516 85.7455 217.684 86.0978 217.546 86.4028L216.509 88.6972C216.401 88.9421 216.13 89.0667 215.872 88.9937L208.385 86.8884C208.032 86.7809 207.882 86.3728 208.079 86.072Z" fill="#FD5742"/>
<path d="M206.13 83.4554C206.13 83.4554 209.74 84.2804 210.003 84.9034C210.27 85.5221 205.493 85.5565 205.493 85.5565L206.13 83.4554Z" fill="#FCBAAC"/>
<path d="M194.598 44.3351V54.9218C194.598 54.9218 194.117 55.6952 191.16 55.6952C188.204 55.6952 187.817 54.9218 187.817 54.9218V44.3351H194.598Z" fill="#FCBAAC"/>
<path d="M194.598 49.6886V52.881C194.22 52.8595 193.798 52.8337 193.325 52.7951C187.301 52.2881 188.351 44.3523 188.351 44.3523L194.598 49.6886Z" fill="#FCA18D"/>
<path d="M199.396 43.4721V45.8352C199.396 48.8772 196.926 51.3434 193.876 51.3434C190.829 51.3434 188.359 48.8772 188.359 45.8352V44.4861C188.166 44.4603 187.976 44.4302 187.813 44.3873C186.759 44.1209 186.29 43.5065 186.122 42.7503C185.885 41.6976 186.444 40.7524 187.49 40.7524C187.804 40.7524 188.097 40.8426 188.359 40.9758V39.4505C188.359 36.4042 190.829 33.938 193.876 33.938C195.235 33.938 196.479 34.4278 197.434 35.2398C198.329 35.9917 198.974 37.0186 199.25 38.183C199.349 38.5912 199.396 39.0122 199.396 39.4505V40.9801C199.736 40.9242 200.605 40.8641 200.752 41.7663C200.898 42.6772 199.822 43.2744 199.396 43.4721Z" fill="#FCBAAC"/>
<path d="M187.933 42.9988C187.46 42.9988 187.124 42.8914 186.931 42.6723C186.724 42.4403 186.767 42.1696 186.771 42.161C186.776 42.1266 186.81 42.1051 186.845 42.1094C186.879 42.1137 186.901 42.1481 186.896 42.1825C186.896 42.1911 186.862 42.4059 187.03 42.5949C187.215 42.8012 187.589 42.9 188.101 42.8742H188.105C188.14 42.8742 188.166 42.9 188.166 42.9344C188.166 42.9687 188.14 42.9988 188.105 42.9988C188.045 42.9988 187.989 42.9988 187.933 42.9988Z" fill="#D65B40"/>
<path d="M199.495 42.3801C199.474 42.3801 199.452 42.3801 199.431 42.3801C199.396 42.3801 199.37 42.35 199.37 42.3156C199.37 42.2813 199.4 42.2512 199.435 42.2555C199.689 42.2641 199.882 42.2082 200.007 42.0836C200.179 41.9117 200.166 41.6711 200.166 41.6711C200.166 41.6368 200.192 41.6067 200.227 41.6067C200.257 41.6067 200.291 41.6325 200.291 41.6668C200.291 41.6797 200.304 41.9633 200.098 42.1738C199.956 42.307 199.753 42.3801 199.495 42.3801Z" fill="#D65B40"/>
<path d="M193.656 43.8023C193.389 43.8023 193.174 43.7121 193.011 43.5317C192.628 43.1063 192.705 42.3329 192.709 42.2985C192.718 42.2212 192.787 42.1611 192.869 42.1696C192.95 42.1782 193.006 42.2513 192.998 42.3286C192.998 42.3372 192.929 43.0075 193.226 43.334C193.333 43.45 193.471 43.5102 193.652 43.5102C193.828 43.5102 193.957 43.4543 194.056 43.3426C194.293 43.0633 194.267 42.4962 194.233 42.3028C194.22 42.2255 194.276 42.1482 194.353 42.1353C194.431 42.1224 194.508 42.1782 194.521 42.2556C194.525 42.29 194.65 43.0977 194.276 43.5317C194.129 43.7121 193.919 43.8023 193.656 43.8023Z" fill="#D65B40"/>
<path d="M197.761 43.8023C197.494 43.8023 197.279 43.7121 197.116 43.5317C196.733 43.1063 196.814 42.3329 196.814 42.2985C196.823 42.2169 196.896 42.1568 196.974 42.1696C197.055 42.1782 197.111 42.2513 197.103 42.3286C197.103 42.3372 197.034 43.0075 197.331 43.334C197.438 43.45 197.576 43.5102 197.757 43.5102C197.933 43.5102 198.062 43.4543 198.161 43.3426C198.398 43.0633 198.372 42.4962 198.338 42.3028C198.325 42.2255 198.381 42.1482 198.458 42.1353C198.536 42.1224 198.613 42.1782 198.626 42.2556C198.63 42.29 198.755 43.0977 198.381 43.5317C198.234 43.7121 198.024 43.8023 197.761 43.8023Z" fill="#D65B40"/>
<path d="M195.489 45.9033C195.446 45.9033 195.399 45.899 195.356 45.8948C195.278 45.8819 195.222 45.8088 195.231 45.7315C195.244 45.6498 195.317 45.5983 195.394 45.6069C195.752 45.6584 196.173 45.3921 196.212 45.2975C196.199 45.1686 195.812 43.5445 195.567 42.552C195.549 42.4747 195.597 42.3974 195.674 42.3759C195.752 42.3544 195.829 42.4059 195.851 42.4833C196.005 43.102 196.5 45.1386 196.5 45.3104C196.5 45.4006 196.449 45.4909 196.341 45.5854C196.147 45.7573 195.808 45.9033 195.489 45.9033Z" fill="#D65B40"/>
<path d="M192.107 41.8088C192.038 41.8088 191.969 41.7744 191.931 41.7143C191.87 41.6155 191.896 41.4909 191.995 41.4264C192.06 41.3877 193.566 40.4511 194.796 41.1042C194.9 41.16 194.934 41.2846 194.882 41.3834C194.826 41.4866 194.702 41.5252 194.603 41.4694C193.583 40.928 192.236 41.7658 192.223 41.7744C192.185 41.8002 192.146 41.8088 192.107 41.8088Z" fill="#0B2C55"/>
<path d="M196.345 41.5424C196.281 41.5424 196.216 41.5123 196.178 41.4564C196.109 41.3619 196.13 41.233 196.225 41.1686C196.294 41.117 197.95 39.9441 198.867 41.0225C198.94 41.1084 198.931 41.2416 198.841 41.3147C198.755 41.3877 198.622 41.3791 198.548 41.2889C197.882 40.5026 196.483 41.4951 196.47 41.5037C196.427 41.5295 196.388 41.5424 196.345 41.5424Z" fill="#0B2C55"/>
<path d="M195.442 48.245C194.719 48.245 194.207 47.7809 194.198 47.7766C194.138 47.7208 194.134 47.6305 194.19 47.5704C194.246 47.5102 194.336 47.5059 194.396 47.5618C194.431 47.5962 195.274 48.3438 196.277 47.6907C196.345 47.6477 196.436 47.6649 196.479 47.7337C196.522 47.8024 196.505 47.8926 196.436 47.9356C196.083 48.1633 195.747 48.245 195.442 48.245Z" fill="#D65B40"/>
<path d="M193.609 44.9495C193.609 45.3148 193.312 45.6155 192.942 45.6155C192.576 45.6155 192.275 45.319 192.275 44.9495C192.275 44.5843 192.572 44.2836 192.942 44.2836C193.312 44.2836 193.609 44.5843 193.609 44.9495Z" fill="#FCA18D"/>
<path d="M199.017 44.8336C199.017 45.1988 198.721 45.4995 198.351 45.4995C197.98 45.4995 197.684 45.2031 197.684 44.8336C197.684 44.4684 197.98 44.1676 198.351 44.1676C198.721 44.1676 199.017 44.4641 199.017 44.8336Z" fill="#FCA18D"/>
<path d="M187.877 43.6777C187.877 43.7851 187.791 43.8711 187.684 43.8711C187.576 43.8711 187.49 43.7851 187.49 43.6777C187.49 43.5703 187.576 43.4844 187.684 43.4844C187.791 43.4844 187.877 43.5703 187.877 43.6777Z" fill="#0B2C55"/>
<path d="M199.719 42.9817C199.826 42.9817 199.913 42.8951 199.913 42.7883C199.913 42.6815 199.826 42.595 199.719 42.595C199.612 42.595 199.525 42.6815 199.525 42.7883C199.525 42.8951 199.612 42.9817 199.719 42.9817Z" fill="#0B2C55"/>
<path d="M199.336 38.1609C199.061 36.9836 198.419 35.9482 197.49 35.1705C196.483 34.3198 195.197 33.8514 193.871 33.8514C190.782 33.8514 188.265 36.3649 188.265 39.4542V41.1298L188.394 41.0611C188.419 41.0482 190.812 39.7378 191.853 37.6625C192.176 37.9289 193.355 38.7452 195.816 38.7452C195.937 38.7452 196.057 38.7452 196.186 38.7409C197.357 38.7023 198.394 38.5476 199.271 38.2769L199.349 38.2511L199.336 38.1609Z" fill="#070707"/>
<path d="M189.69 37.8198L187.02 37.0782L186.814 37.8192L189.484 38.5607L189.69 37.8198Z" fill="#FCCC47"/>
<path d="M229.112 64.1853C232.491 64.1853 235.231 61.4499 235.231 58.0755C235.231 54.7012 232.491 51.9658 229.112 51.9658C225.733 51.9658 222.993 54.7012 222.993 58.0755C222.993 61.4499 225.733 64.1853 229.112 64.1853Z" fill="#FCBE13"/>
<path d="M229.112 63.1327C231.909 63.1327 234.176 60.8686 234.176 58.0756C234.176 55.2827 231.909 53.0186 229.112 53.0186C226.315 53.0186 224.047 55.2827 224.047 58.0756C224.047 60.8686 226.315 63.1327 229.112 63.1327Z" fill="#FACF5A"/>
<path d="M230.678 58.8489C230.678 57.5514 228.6 57.6158 228.6 57.1088C228.6 56.9026 228.776 56.7823 229.095 56.7823C229.379 56.7823 229.594 56.8467 229.818 56.9713C229.981 57.0616 230.183 57.0272 230.308 56.8854L230.343 56.8424C230.497 56.662 230.459 56.387 230.257 56.2538C230.033 56.1034 229.775 56.0003 229.461 55.9574V55.3773C229.461 55.184 229.306 55.0293 229.112 55.0293C228.918 55.0293 228.763 55.184 228.763 55.3773V55.9659C228.041 56.0777 227.593 56.5073 227.593 57.1217C227.593 58.4322 229.671 58.3248 229.671 58.9177C229.671 59.1196 229.491 59.2399 229.146 59.2399C228.806 59.2399 228.505 59.1454 228.183 58.9778C227.997 58.8833 227.774 58.9349 227.662 59.111L227.615 59.1884C227.494 59.3774 227.55 59.6309 227.748 59.7426C228.062 59.9188 228.436 60.0348 228.772 60.0735V60.7652C228.772 60.9586 228.927 61.1132 229.121 61.1132C229.314 61.1132 229.469 60.9586 229.469 60.7652V60.0477C230.248 59.9188 230.678 59.4419 230.678 58.8489Z" fill="#D6A00B"/>
<path d="M237.322 49.3148C240.701 49.3148 243.441 46.5794 243.441 43.2051C243.441 39.8308 240.701 37.0953 237.322 37.0953C233.943 37.0953 231.203 39.8308 231.203 43.2051C231.203 46.5794 233.943 49.3148 237.322 49.3148Z" fill="#FCBE13"/>
<path d="M237.322 48.2622C240.119 48.2622 242.386 45.9981 242.386 43.2051C242.386 40.4122 240.119 38.1481 237.322 38.1481C234.525 38.1481 232.257 40.4122 232.257 43.2051C232.257 45.9981 234.525 48.2622 237.322 48.2622Z" fill="#FACF5A"/>
<path d="M238.884 43.9785C238.884 42.6809 236.806 42.7454 236.806 42.2384C236.806 42.0321 236.982 41.9118 237.3 41.9118C237.584 41.9118 237.799 41.9763 238.023 42.1009C238.187 42.1911 238.389 42.1567 238.514 42.0149L238.548 41.972C238.703 41.7915 238.664 41.5165 238.462 41.3833C238.238 41.233 237.98 41.1298 237.666 41.0869V40.5068C237.666 40.3135 237.511 40.1588 237.318 40.1588C237.124 40.1588 236.969 40.3135 236.969 40.5068V41.0955C236.246 41.2072 235.799 41.6368 235.799 42.2512C235.799 43.5617 237.877 43.4543 237.877 44.0472C237.877 44.2492 237.696 44.3695 237.352 44.3695C237.012 44.3695 236.711 44.2749 236.388 44.1074C236.203 44.0128 235.979 44.0644 235.868 44.2406L235.82 44.3179C235.7 44.5069 235.756 44.7604 235.954 44.8722C236.268 45.0483 236.642 45.1643 236.978 45.203V45.8947C236.978 46.0881 237.133 46.2428 237.326 46.2428C237.52 46.2428 237.675 46.0881 237.675 45.8947V45.1772C238.458 45.0483 238.884 44.5757 238.884 43.9785Z" fill="#D6A00B"/>
<path d="M223.229 48.6965C223.77 45.3658 221.505 42.2274 218.169 41.6868C214.834 41.1463 211.691 43.4082 211.149 46.739C210.608 50.0698 212.873 53.2081 216.209 53.7487C219.545 54.2892 222.688 52.0273 223.229 48.6965Z" fill="#FCBE13"/>
<path d="M217.184 52.7778C219.981 52.7778 222.249 50.5137 222.249 47.7208C222.249 44.9278 219.981 42.6637 217.184 42.6637C214.387 42.6637 212.12 44.9278 212.12 47.7208C212.12 50.5137 214.387 52.7778 217.184 52.7778Z" fill="#FACF5A"/>
<path d="M218.746 48.4942C218.746 47.1966 216.668 47.2611 216.668 46.7541C216.668 46.5479 216.844 46.4276 217.163 46.4276C217.447 46.4276 217.662 46.492 217.886 46.6166C218.049 46.7068 218.251 46.6725 218.376 46.5307L218.411 46.4877C218.566 46.3073 218.527 46.0323 218.325 45.8991C218.101 45.7487 217.843 45.6456 217.529 45.6026V45.0226C217.529 44.8292 217.374 44.6746 217.18 44.6746C216.986 44.6746 216.832 44.8292 216.832 45.0226V45.6112C216.109 45.7229 215.661 46.1526 215.661 46.767C215.661 48.0774 217.739 47.97 217.739 48.563C217.739 48.7649 217.559 48.8852 217.214 48.8852C216.875 48.8852 216.573 48.7907 216.251 48.6231C216.066 48.5286 215.842 48.5801 215.73 48.7563L215.683 48.8336C215.562 49.0227 215.618 49.2762 215.816 49.3879C216.13 49.5641 216.505 49.6801 216.84 49.7187V50.4105C216.84 50.6038 216.995 50.7585 217.189 50.7585C217.382 50.7585 217.537 50.6038 217.537 50.4105V49.693C218.32 49.5641 218.746 49.0871 218.746 48.4942Z" fill="#D6A00B"/>
<path d="M224.843 36.7989L225.562 33.2886L226.72 36.7731L229.25 37.9246L226.694 39.1233L225.498 42.6293L224.822 39.1448L221.81 37.9933L224.843 36.7989Z" fill="#FCCC47"/>
<path d="M241.496 53.4051L241.904 51.4115L242.563 53.3922L244 54.0453L242.546 54.7242L241.866 56.7178L241.483 54.737L239.775 54.084L241.496 53.4051Z" fill="#FCCC47"/>
<path d="M215.575 58.7586L215.984 56.765L216.638 58.7414L218.079 59.3988L216.625 60.0777L215.945 62.0713L215.562 60.0906L213.854 59.4375L215.575 58.7586Z" fill="#FCCC47"/>
</g>
<defs>
<clipPath id="clip0">
<rect width="244" height="156" fill="white" transform="translate(0 0.47998)"/>
</clipPath>
</defs>
</svg>
