<svg width="14" height="14" viewBox="0 0 14 14" fill="none" xmlns="http://www.w3.org/2000/svg">
<path d="M13.7135 2.00011L11.9973 0.2855C11.616 -0.0953945 10.9959 -0.095121 10.6149 0.286047L1.43913 9.46662C1.1524 9.75309 0.933432 10.1078 0.805928 10.4924L0.797752 10.517L0 14L3.48591 13.2037L3.51052 13.1956C3.89541 13.0683 4.25039 12.8496 4.53744 12.5629L13.7141 3.3815C13.8986 3.19691 14.0001 2.95157 14 2.69067C13.9999 2.42982 13.8981 2.18456 13.7135 2.00011ZM1.4549 12.5459L1.78073 11.1233L2.87907 12.2206L1.4549 12.5459ZM3.8795 11.6743L2.32796 10.1242L9.91261 2.53567L11.4641 4.08572L3.8795 11.6743ZM12.2372 3.31228L10.6856 1.76224L11.3064 1.14114L12.858 2.69119L12.2372 3.31228Z" fill="#909090"/>
</svg>
