<svg width="92" height="83" viewBox="0 0 92 83" fill="none" xmlns="http://www.w3.org/2000/svg">
<g clip-path="url(#clip0)">
<path d="M70.41 2.37012H21.59C10.77 2.37012 2 11.1401 2 21.9601V49.2701C2 60.0901 10.77 68.8601 21.59 68.8601H22.85L34.71 80.7201V68.8601H70.41C81.23 68.8601 90 60.0901 90 49.2701V21.9601C90 11.1401 81.23 2.37012 70.41 2.37012Z" fill="#26BA35"/>
<path d="M1 51.48C0.45 51.48 0 49.3371 0 46.7181V24.2419C0 21.6228 0.45 19.48 1 19.48C1.55 19.48 2 21.6228 2 24.2419V46.7181C2 49.3847 1.55 51.48 1 51.48Z" fill="#231F20"/>
<path d="M70.35 0.47998H21.65C9.7 0.47998 0 10.18 0 22.13V22.71V22.86V23.78C0 24.33 0.45 24.78 1 24.78C1.55 24.78 2 24.33 2 23.78V22.86V22.71V22.13C2 11.28 10.8 2.47998 21.65 2.47998H70.34C81.2 2.47998 90 11.28 90 22.13V48.82C90 59.68 81.2 68.48 70.35 68.48H35.08C34.19 68.48 33.46 69.2 33.46 70.1V77.71C33.46 78.26 32.79 78.54 32.4 78.15L23.21 68.96C22.91 68.66 22.49 68.49 22.07 68.49H21.66C10.8 68.48 2 59.68 2 48.83V48.14V48.1V47.06C2 46.51 1.55 46.06 1 46.06C0.45 46.06 0 46.51 0 47.06V48.1V48.14V48.83C0 60.78 9.7 70.48 21.65 70.48C21.81 70.48 21.97 70.55 22.09 70.66L33.75 82.32C33.94 82.51 34.2 82.61 34.46 82.61C34.59 82.61 34.72 82.59 34.84 82.53C35.21 82.38 35.46 82.01 35.46 81.61V71.1C35.46 70.76 35.74 70.48 36.08 70.48H70.35C82.3 70.48 92 60.78 92 48.83V22.13C92 10.18 82.3 0.47998 70.35 0.47998Z" fill="#231F20"/>
<path d="M62.7306 23.8488C61.664 22.3329 60.1686 21.465 58.1388 21.1096L58.1386 21.1095C56.0554 20.7446 54.1509 21.1547 52.2489 22.2992L52.2462 22.3008C51.5512 22.7178 50.7916 23.0862 50.1584 23.3933C50.0026 23.4689 49.8544 23.5408 49.7167 23.6087L49.7165 23.6088C47.4987 24.7035 45.1347 24.7692 42.8499 23.7349C42.8495 23.7348 42.8491 23.7346 42.8487 23.7344L43.88 21.457C43.2316 21.1642 42.5915 20.8605 41.9524 20.5572C41.3692 20.2805 40.7869 20.0042 40.2 19.737L62.7306 23.8488ZM62.7306 23.8488C64.2867 26.0913 64.5941 28.5991 63.9432 31.4984C63.5268 33.2762 62.6035 34.9397 61.3907 36.7591C58.9137 40.4699 55.8858 43.6989 52.3705 46.4751L52.3675 46.4775C50.5844 47.8902 48.765 49.0778 46.8117 49.921C46.1496 49.6574 45.5758 49.4215 45.0292 49.1417L45.0292 49.1416L45.0178 49.1358C42.5089 47.8677 40.2259 46.2063 38.0407 44.2683C35.2427 41.7767 32.7794 39.0861 30.8134 36.0258L30.8109 36.022C29.7951 34.447 29.059 32.9779 28.7386 31.4225L28.7366 31.4129L28.7345 31.4032C28.6543 31.029 28.5971 30.6595 28.5275 30.2099C28.5186 30.1522 28.5094 30.093 28.5 30.0324V30.0292V30.0251V30.0211V30.0171V30.013V30.009V30.005V30.0009V29.9969V29.9929V29.9889V29.9848V29.9808V29.9768V29.9727V29.9687V29.9647V29.9606V29.9566V29.9526V29.9486V29.9445V29.9405V29.9365V29.9324V29.9284V29.9244V29.9204V29.9163V29.9123V29.9083V29.9042V29.9002V29.8962V29.8922V29.8881V29.8841V29.8801V29.8761V29.872V29.868V29.864V29.8599V29.8559V29.8519V29.8479V29.8438V29.8398V29.8358V29.8318V29.8277V29.8237V29.8197V29.8157V29.8116V29.8076V29.8036V29.7996V29.7956V29.7915V29.7875V29.7835V29.7795V29.7754V29.7714V29.7674V29.7634V29.7593V29.7553V29.7513V29.7473V29.7433V29.7392V29.7352V29.7312V29.7272V29.7231V29.7191V29.7151V29.7111V29.7071V29.703V29.699V29.695V29.691V29.687V29.6829V29.6789V29.6749V29.6709V29.6669V29.6628V29.6588V29.6548V29.6508V29.6468V29.6427V29.6387V29.6347V29.6307V29.6267V29.6226V29.6186V29.6146V29.6106V29.6066V29.6026V29.5985V29.5945V29.5905V29.5865V29.5825V29.5784V29.5744V29.5704V29.5664V29.5624V29.5584V29.5543V29.5503V29.5463V29.5423V29.5383V29.5343V29.5302V29.5262V29.5222V29.5182V29.5142V29.5102V29.5061V29.5021V29.4981V29.4941V29.4901V29.4861V29.482V29.478V29.474V29.47V29.466V29.462V29.458V29.4539V29.4499V29.4459V29.4419V29.4379V29.4339V29.4298V29.4258V29.4218V29.4178V29.4138V29.4098V29.4058V29.4017V29.3977V29.3937V29.3897V29.3857V29.3817V29.3777V29.3736V29.3696V29.3656V29.3616V29.3576V29.3536V29.3495V29.3455V29.3415V29.3375V29.3335V29.3295V29.3255V29.3214V29.3174V29.3134V29.3094V29.3054V29.3014V29.2974V29.2934V29.2893V29.2853V29.2813V29.2773V29.2733V29.2693V29.2653V29.2612V29.2572V29.2532V29.2492V29.2452V29.2412V29.2372V29.2331V29.2291V29.2251V29.2211V29.2171V29.2131V29.2091V29.205V29.201V29.197V29.193V29.189V29.185V29.181V29.177V29.1729V29.1689V29.1649V29.1609V29.1569V29.1529V29.1489V29.1448V29.1408V29.1368V29.1328V29.1288V29.1248V29.1208V29.1167V29.1127V29.1087V29.1047V29.1007V29.0967V29.0927V29.0886V29.0846V29.0806V29.0766V29.0726V29.0686V29.0646V29.0606V29.0565V29.0525V29.0485V29.0445V29.0405V29.0365V29.0325V29.0284V29.0244V29.0204V29.0164V29.0124V29.0084V29.0043V29.0003V28.9963V28.9923V28.9883V28.9843V28.9803V28.9762V28.9722V28.9682V28.9642V28.9602V28.9562V28.9522V28.9481V28.9441V28.9401V28.9361V28.9321V28.9281V28.924V28.92V28.916V28.912V28.908V28.904V28.8999V28.8959V28.8919V28.8879V28.8839V28.8799V28.8759V28.8718V28.8678V28.8638V28.8598V28.8558V28.8518V28.8477V28.8437V28.8397V28.8357V28.8317V28.8276V28.8236V28.8196V28.8156V28.8116V28.8076V28.8035V28.7995V28.7955V28.7915V28.7875V28.7835V28.7794V28.7754V28.7714V28.7674V28.7634V28.7593V28.7553V28.7513V28.7473V28.7433V28.7392V28.7352V28.7312V28.7272V28.7232V28.7191V28.7151V28.7111V28.7071V28.7031V28.699V28.695V28.691V28.687V28.683V28.6789V28.6749V28.6709V28.6669V28.6629V28.6588V28.6548V28.6508V28.6468V28.6427V28.6387V28.6347V28.6307V28.6267V28.6226V28.6186V28.6146V28.6106V28.6065V28.6025V28.5985V28.5945V28.5904V28.5864V28.5824V28.5784V28.5743V28.5703V28.5663V28.5623V28.5582V28.5542V28.5502V28.5462V28.5421V28.5381V28.5341V28.5301V28.526V28.522V28.518V28.514V28.5099V28.5059V28.5019V28.4979V28.4938V28.4898V28.4858V28.4817V28.4777V28.4737V28.4697V28.4656V28.4616V28.4576V28.4535V28.4495V28.4455V28.4415V28.4374V28.4334V28.4294V28.4253V28.4213V28.4173V28.4133V28.4092V28.4052V28.4012V28.3971V28.3931V28.3921C28.5169 28.2965 28.5328 28.2042 28.5475 28.1182L28.5489 28.1105C28.5769 27.9474 28.6012 27.8061 28.6272 27.6677L28.6324 27.64L28.6369 27.6122C28.9093 25.9543 29.5279 24.6159 30.5854 23.537L30.5861 23.5362C32.6669 21.4115 36.3326 20.7337 39.1672 22.0137L62.7306 23.8488Z" stroke="white" stroke-width="5"/>
</g>
<defs>
<clipPath id="clip0">
<rect width="92" height="82.13" fill="white" transform="translate(0 0.47998)"/>
</clipPath>
</defs>
</svg>
