<svg width="92" height="83" viewBox="0 0 92 83" fill="none" xmlns="http://www.w3.org/2000/svg">
<g clip-path="url(#clip0)">
<path d="M70.41 1.89014H21.59C10.77 1.89014 2 10.6601 2 21.4801V48.7901C2 59.6101 10.77 68.3801 21.59 68.3801H22.85L34.71 80.2401V68.3801H70.41C81.23 68.3801 90 59.6101 90 48.7901V21.4801C90 10.6601 81.23 1.89014 70.41 1.89014Z" fill="#26BA35"/>
<path d="M1 51C0.45 51 0 48.8571 0 46.2381V23.7619C0 21.1429 0.45 19 1 19C1.55 19 2 21.1429 2 23.7619V46.2381C2 48.9048 1.55 51 1 51Z" fill="#231F20"/>
<path d="M70.35 0H21.65C9.7 0 0 9.7 0 21.65V22.23V22.38V23.3C0 23.85 0.45 24.3 1 24.3C1.55 24.3 2 23.85 2 23.3V22.38V22.23V21.65C2 10.8 10.8 2 21.65 2H70.34C81.2 2 90 10.8 90 21.65V48.34C90 59.2 81.2 68 70.35 68H35.08C34.19 68 33.46 68.72 33.46 69.62V77.23C33.46 77.78 32.79 78.06 32.4 77.67L23.21 68.48C22.91 68.18 22.49 68.01 22.07 68.01H21.66C10.8 68 2 59.2 2 48.35V47.66V47.62V46.58C2 46.03 1.55 45.58 1 45.58C0.45 45.58 0 46.03 0 46.58V47.62V47.66V48.35C0 60.3 9.7 70 21.65 70C21.81 70 21.97 70.07 22.09 70.18L33.75 81.84C33.94 82.03 34.2 82.13 34.46 82.13C34.59 82.13 34.72 82.11 34.84 82.05C35.21 81.9 35.46 81.53 35.46 81.13V70.62C35.46 70.28 35.74 70 36.08 70H70.35C82.3 70 92 60.3 92 48.35V21.65C92 9.7 82.3 0 70.35 0Z" fill="#231F20"/>
<path d="M45.4568 49.5587L45.4621 49.564C45.7562 49.8546 46.1416 50 46.527 50C46.9123 50 47.2978 49.8547 47.5918 49.564L47.5971 49.5587C47.7546 49.4019 59.9671 37.3191 60.0905 37.197C61.9939 35.3135 63 32.874 63 30.1424C63.0002 24.5499 58.4011 20 52.7482 20C50.4553 20 48.2827 20.7376 46.5001 22.1005C44.7174 20.7376 42.5448 20 40.252 20C34.5991 20 30 24.5499 30 30.1424C30 32.8008 31.0524 35.3062 32.9634 37.1971C33.0868 37.3191 45.2993 49.402 45.4568 49.5587ZM40.252 22.9771C42.2128 22.9771 44.0495 23.7418 45.4236 25.1302C45.7069 25.4165 46.095 25.5778 46.5001 25.5778C46.9054 25.5778 47.2934 25.4165 47.5767 25.1302C48.9507 23.7418 50.7874 22.9771 52.7482 22.9771C56.7403 22.9771 59.9882 26.1914 59.9882 30.1424C59.9882 32.068 59.2868 33.7799 57.9598 35.093L46.5271 46.4049L35.0943 35.093C33.7321 33.7451 33.012 32.0332 33.012 30.1424C33.0119 26.1914 36.2599 22.9771 40.252 22.9771Z" fill="white"/>
</g>
<defs>
<clipPath id="clip0">
<rect width="92" height="82.13" fill="white"/>
</clipPath>
</defs>
</svg>
