<svg width="15" height="14" viewBox="0 0 15 14" fill="none" xmlns="http://www.w3.org/2000/svg">
<path d="M14.5702 6.82528C14.3315 6.82528 14.1405 7.01763 14.1405 7.25807V11.1949C14.1405 12.2656 13.2746 13.1344 12.2146 13.1344H2.78544C1.7222 13.1344 0.859508 12.2624 0.859508 11.1949V7.19395C0.859508 6.95351 0.668506 6.76116 0.429754 6.76116C0.191002 6.76116 0 6.95351 0 7.19395V11.1949C0 12.7433 1.25106 14 2.78544 14H12.2146C13.7521 14 15 12.7401 15 11.1949V7.25807C15 7.02084 14.809 6.82528 14.5702 6.82528Z" fill="black"/>
<path d="M5.07109 3.49118L7.07025 1.4779V10.2588C7.07025 10.4992 7.26125 10.6915 7.5 10.6915C7.73875 10.6915 7.92975 10.4992 7.92975 10.2588V1.4779L9.9289 3.49118C10.0117 3.57454 10.1231 3.61942 10.2313 3.61942C10.3427 3.61942 10.451 3.57774 10.5337 3.49118C10.7025 3.32127 10.7025 3.04877 10.5337 2.87886L7.80242 0.128234C7.72284 0.0480879 7.61142 0 7.5 0C7.3854 0 7.27716 0.0448821 7.19758 0.128234L4.46626 2.87886C4.29754 3.04877 4.29754 3.32127 4.46626 3.49118C4.63179 3.65789 4.90556 3.65789 5.07109 3.49118Z" fill="black"/>
</svg>
