<svg width="46" height="46" viewBox="0 0 46 46" fill="none" xmlns="http://www.w3.org/2000/svg">
<rect width="46" height="46" fill="#FD5742"/>
<path d="M21.8531 15.202H24.855V30H21.9588V20.4024L17.7942 27.2729H17.456L13.2914 20.4236V30H10.3741V15.202H13.376L17.6251 22.1993L21.8531 15.202ZM27.6123 15.202H33.1298C34.5391 15.202 35.7371 15.6812 36.7236 16.6395C37.696 17.5979 38.1823 18.7747 38.1823 20.1699C38.1823 21.5651 37.696 22.7419 36.7236 23.7003C35.7371 24.6586 34.5391 25.1378 33.1298 25.1378H30.5296V30H27.6123V15.202ZM30.5296 22.4107H33.1298C33.7499 22.4107 34.2643 22.1993 34.673 21.7765C35.0817 21.3397 35.2861 20.8041 35.2861 20.1699C35.2861 19.5216 35.0817 18.9861 34.673 18.5633C34.2643 18.1405 33.7499 17.9291 33.1298 17.9291H30.5296V22.4107Z" fill="white"/>
</svg>
