<svg width="22" height="23" viewBox="0 0 22 23" fill="none" xmlns="http://www.w3.org/2000/svg">
<path d="M8.5924 1.38837H13.1039V2.03517H14.7331V1.29782C14.7333 0.58223 14.0504 0 13.211 0H8.48531C7.64587 0 6.96294 0.58223 6.96294 1.29782V2.03517H8.5924V1.38837Z" fill="#4E4E4E"/>
<path d="M18.4958 7.53564H3.20049C2.78139 7.53564 2.45146 7.84027 2.48523 8.19631L3.76396 21.6687C3.83522 22.4208 4.57148 23 5.45603 23H16.2401C17.1246 23 17.8609 22.4208 17.9321 21.6685L19.2108 8.19631C19.2448 7.84027 18.9149 7.53564 18.4958 7.53564ZM6.90404 21.563C6.88695 21.5639 6.86986 21.5644 6.85297 21.5644C6.42583 21.5644 6.06728 21.281 6.04071 20.9129L5.23937 9.85281C5.21177 9.47009 5.55344 9.14072 6.00241 9.11721C6.44993 9.09405 6.83814 9.38446 6.86574 9.76735L7.66687 20.8274C7.69468 21.2101 7.35301 21.5393 6.90404 21.563ZM11.6719 20.8702C11.6719 21.2535 11.3072 21.5643 10.8572 21.5643C10.4072 21.5643 10.0425 21.2535 10.0425 20.8702V9.80999C10.0425 9.42657 10.4072 9.11581 10.8572 9.11581C11.307 9.11581 11.6719 9.42657 11.6719 9.80999V20.8702ZM16.4569 9.85088L15.6918 20.911C15.6665 21.2798 15.3073 21.5643 14.8794 21.5643C14.8633 21.5643 14.847 21.5639 14.8308 21.5632C14.3816 21.5406 14.0389 21.2121 14.0655 20.8294L14.8303 9.7691C14.8567 9.38639 15.241 9.0944 15.6914 9.11703C16.1406 9.1395 16.4833 9.46816 16.4569 9.85088Z" fill="#4E4E4E"/>
<path d="M21.3132 5.39343L20.7781 4.02682C20.637 3.66657 20.2412 3.42354 19.7953 3.42354H1.90075C1.45508 3.42354 1.05905 3.66657 0.91818 4.02682L0.383128 5.39343C0.279948 5.657 0.414226 5.92583 0.664864 6.05989C0.767014 6.11446 0.887905 6.14728 1.02074 6.14728H20.6755C20.8084 6.14728 20.9295 6.11446 21.0314 6.05972C21.2821 5.92565 21.4163 5.65682 21.3132 5.39343Z" fill="#4E4E4E"/>
</svg>
