<svg width="188" height="161" viewBox="0 0 188 161" fill="none" xmlns="http://www.w3.org/2000/svg">
<g clip-path="url(#clip0)">
<path d="M91.5664 143.233C91.5664 143.233 71.7343 155.513 63.0081 142.043C54.2818 128.573 61.4203 124.616 52.694 121.05C43.9677 117.484 27.3069 113.127 28.103 105.999C28.8947 98.8709 38.417 92.1382 38.417 81.8393C38.417 71.5404 27.3586 48.9232 35.9945 41.2195C44.6304 33.5157 50.7147 41.8339 60.6329 33.52C70.551 25.2018 75.7059 13.3218 87.2075 12.5269C98.7092 11.7321 99.1094 21.2404 107.836 24.8066C116.562 28.3727 132.427 17.6785 142.741 25.5971C153.055 33.52 150.279 54.5088 149.879 77.4826C149.483 100.456 167.194 116.487 158.106 123.464C149.014 130.438 96.3297 127.387 91.5664 143.233Z" fill="#EDEDED"/>
<path d="M44.6643 28.5447L46.7321 29.6479L45.696 26.9562" fill="#FFBC47"/>
<path d="M46.8138 25.8027C47.202 23.4166 45.5839 21.1673 43.1997 20.7788C40.8155 20.3903 38.5681 22.0097 38.1799 24.3958C37.7917 26.782 39.4098 29.0313 41.794 29.4198C44.1782 29.8083 46.4256 28.1889 46.8138 25.8027Z" fill="#FFBC47"/>
<path d="M44.3424 23.9026C43.9191 23.4878 43.2445 23.4966 42.8345 23.9202L42.5611 24.1982L42.2833 23.9202C41.8645 23.5054 41.1855 23.5099 40.771 23.9335C40.3566 24.3527 40.361 25.0322 40.7842 25.447L41.8248 26.4708C41.8248 26.4752 41.8292 26.4752 41.8292 26.4796C41.9967 26.6429 42.1996 26.7399 42.4112 26.7708C42.7419 26.8194 43.0858 26.7179 43.3371 26.4619L44.36 25.4161C44.7701 24.9925 44.7657 24.3174 44.3424 23.9026Z" fill="black"/>
<path d="M118.834 7.1608L117.049 8.08305L117.966 5.78845" fill="#FFBC47"/>
<path d="M124.372 4.27938C124.346 6.35335 122.644 8.00811 120.576 7.98163C118.504 7.95516 116.85 6.25186 116.877 4.1823C116.903 2.10834 118.605 0.453573 120.673 0.48005C122.745 0.506526 124.403 2.20983 124.372 4.27938Z" fill="#FFBC47"/>
<path d="M119.932 6.01803C120.748 6.0445 121.577 6.06657 122.326 6.02244C122.564 6.0092 122.776 5.63412 122.489 5.51057C122.613 5.44879 122.736 5.39143 122.789 5.25463C122.842 5.12666 122.785 4.95016 122.648 4.91485C122.93 4.98987 123.049 4.53977 122.829 4.39416C122.948 4.29708 123.045 4.1647 123.071 4.01466C123.098 3.86463 123.036 3.69254 122.904 3.61752C122.816 3.56898 122.71 3.56457 122.608 3.56457C122.269 3.55574 121.929 3.55133 121.59 3.5425C121.687 3.01298 121.722 2.43051 121.462 1.96276C121.383 1.82155 121.167 1.64946 120.99 1.75536C120.827 1.85685 120.867 2.10838 120.876 2.26724C120.902 2.92914 120.514 3.59104 119.928 3.89552C119.928 3.89111 119.95 5.29876 119.932 6.01803Z" fill="#040404"/>
<path d="M119.662 3.88178L118.428 3.86572L118.4 5.99243L119.634 6.00849L119.662 3.88178Z" fill="#040404"/>
<path d="M44.6775 61.0386C44.6775 61.5152 44.2895 61.8991 43.8177 61.8991C43.3415 61.8991 42.9579 61.5108 42.9579 61.0386C42.9579 60.562 43.3459 60.1781 43.8177 60.1781C44.2895 60.1737 44.6775 60.562 44.6775 61.0386Z" stroke="#FFBC47" stroke-miterlimit="10"/>
<path d="M37.6494 4.23084C37.6494 4.70741 37.2614 5.09131 36.7896 5.09131C36.3134 5.09131 35.9298 4.703 35.9298 4.23084C35.9298 3.75427 36.3178 3.37036 36.7896 3.37036C37.2614 3.37036 37.6494 3.75427 37.6494 4.23084Z" stroke="#FFBC47" stroke-miterlimit="10"/>
<path d="M84.7607 7.34046C84.7607 7.81703 84.3727 8.20093 83.9009 8.20093C83.4291 8.20093 83.0411 7.81262 83.0411 7.34046C83.0411 6.86389 83.4291 6.47998 83.9009 6.47998C84.3727 6.47998 84.7607 6.86389 84.7607 7.34046Z" fill="#FFBC47"/>
<path d="M25.7007 39.3855C25.7007 39.8621 25.3127 40.246 24.8409 40.246C24.3647 40.246 23.9811 39.8577 23.9811 39.3855C23.9811 38.9089 24.3691 38.525 24.8409 38.525C25.3171 38.525 25.7007 38.9089 25.7007 39.3855Z" fill="#FFBC47"/>
<path d="M185.112 81.7487C185.112 82.2253 184.724 82.6092 184.252 82.6092C183.776 82.6092 183.392 82.2209 183.392 81.7487C183.392 81.2765 183.78 80.8882 184.252 80.8882C184.724 80.8838 185.112 81.2721 185.112 81.7487Z" fill="#FFBC47"/>
<path d="M146.047 29.5673C146.522 29.5673 146.907 29.182 146.907 28.7068C146.907 28.2316 146.522 27.8463 146.047 27.8463C145.572 27.8463 145.188 28.2316 145.188 28.7068C145.188 29.182 145.572 29.5673 146.047 29.5673Z" stroke="#FFBC47" stroke-miterlimit="10"/>
<path d="M27.8126 129.657C27.6892 129.657 27.5878 129.556 27.5878 129.432V127.848C27.5878 127.725 27.6892 127.623 27.8126 127.623C27.9361 127.623 28.0375 127.725 28.0375 127.848V129.432C28.0375 129.556 27.9405 129.657 27.8126 129.657Z" fill="#FFBC47"/>
<path d="M28.6063 128.863H27.0234C26.9 128.863 26.7986 128.762 26.7986 128.638C26.7986 128.514 26.9 128.413 27.0234 128.413H28.6063C28.7297 128.413 28.8312 128.514 28.8312 128.638C28.8312 128.766 28.7297 128.863 28.6063 128.863Z" fill="#FFBC47"/>
<path d="M7.58366 64.6174C7.4602 64.6174 7.3588 64.5159 7.3588 64.3923V62.8082C7.3588 62.6846 7.4602 62.5831 7.58366 62.5831C7.70711 62.5831 7.80852 62.6846 7.80852 62.8082V64.3923C7.80852 64.5159 7.70711 64.6174 7.58366 64.6174Z" fill="#FFBC47"/>
<path d="M8.3773 63.823H6.79002C6.66656 63.823 6.56516 63.7215 6.56516 63.598C6.56516 63.4744 6.66656 63.3729 6.79002 63.3729H8.3773C8.50075 63.3729 8.60216 63.4744 8.60216 63.598C8.59775 63.7215 8.50075 63.823 8.3773 63.823Z" fill="#FFBC47"/>
<path d="M169.495 29.317C169.371 29.317 169.27 29.2155 169.27 29.0919V27.5078C169.27 27.3842 169.371 27.2827 169.495 27.2827C169.618 27.2827 169.72 27.3842 169.72 27.5078V29.0919C169.72 29.2199 169.618 29.317 169.495 29.317Z" fill="#FFBC47"/>
<path d="M170.289 28.5271H168.706C168.582 28.5271 168.481 28.4256 168.481 28.3021C168.481 28.1785 168.582 28.077 168.706 28.077H170.289C170.412 28.077 170.513 28.1785 170.513 28.3021C170.513 28.4256 170.412 28.5271 170.289 28.5271Z" fill="#FFBC47"/>
<path d="M175.535 68.4974C175.412 68.4974 175.311 68.3959 175.311 68.2723V66.6882C175.311 66.5646 175.412 66.4631 175.535 66.4631C175.659 66.4631 175.76 66.5646 175.76 66.6882V68.2723C175.76 68.3959 175.663 68.4974 175.535 68.4974Z" fill="#FFBC47"/>
<path d="M176.329 67.7031H174.746C174.623 67.7031 174.521 67.6017 174.521 67.4781C174.521 67.3545 174.623 67.2531 174.746 67.2531H176.329C176.453 67.2531 176.554 67.3545 176.554 67.4781C176.554 67.6017 176.453 67.7031 176.329 67.7031Z" fill="#FFBC47"/>
<path d="M128.01 27.5519V148.394C128.01 149.086 127.939 149.766 127.807 150.419C127.741 150.746 127.657 151.063 127.56 151.377C127.507 151.536 127.454 151.694 127.401 151.849C127.066 152.771 126.594 153.627 126.017 154.399C125.726 154.788 125.408 155.154 125.069 155.494C124.729 155.833 124.363 156.147 123.98 156.438C123.724 156.628 123.455 156.809 123.182 156.981H123.177C122.904 157.148 122.622 157.303 122.331 157.444H122.326C121.89 157.656 121.431 157.837 120.964 157.982H120.96C120.646 158.08 120.329 158.163 120.003 158.23C119.346 158.362 118.667 158.433 117.975 158.433H68.447C67.7151 158.433 67.0008 158.353 66.313 158.203C66.1984 158.177 66.0881 158.155 65.9735 158.124C65.85 158.093 65.7222 158.057 65.5987 158.022C65.0785 157.868 64.5802 157.674 64.0996 157.444C63.8571 157.325 63.6234 157.201 63.3986 157.069C63.2928 157.007 63.1869 156.945 63.0855 156.879C62.8651 156.742 62.6534 156.592 62.4462 156.438C61.8025 155.957 61.2205 155.397 60.709 154.779C60.5062 154.532 60.3122 154.276 60.1314 154.007C59.8625 153.605 59.62 153.186 59.4083 152.745C59.1217 152.158 58.8969 151.544 58.7337 150.904V150.9C58.5265 150.097 58.4163 149.259 58.4163 148.394V27.5519C58.4163 22.014 62.9092 17.5131 68.4514 17.5131H117.979C123.521 17.5131 128.01 22.014 128.01 27.5519Z" fill="black"/>
<path d="M125.805 27.5519V148.394C125.805 148.928 125.752 149.461 125.646 149.982C125.602 150.216 125.541 150.45 125.461 150.706L125.316 151.134C125.078 151.796 124.716 152.462 124.253 153.08C124.028 153.38 123.777 153.671 123.508 153.936C123.261 154.187 122.97 154.439 122.648 154.682C122.498 154.792 122.317 154.916 122.11 155.048L122.026 155.101C121.855 155.207 121.678 155.308 121.493 155.401L121.365 155.458C121.061 155.608 120.743 155.736 120.417 155.842L120.307 155.878C120.047 155.957 119.804 156.019 119.566 156.072C119.042 156.173 118.508 156.226 117.975 156.226H68.447C67.8871 156.226 67.3271 156.169 66.7848 156.05C66.5996 156.01 66.4144 155.966 66.238 155.913C65.8324 155.794 65.4356 155.639 65.0476 155.454C64.8624 155.361 64.6772 155.264 64.5185 155.167C64.4259 155.114 64.3554 155.074 64.2936 155.035L64.2451 155.004C64.1085 154.92 63.9541 154.814 63.7645 154.673C63.2751 154.302 62.8166 153.865 62.4065 153.371C62.239 153.168 62.0935 152.974 61.9612 152.78C61.7452 152.458 61.5556 152.122 61.3969 151.791C61.1896 151.363 61.0221 150.926 60.8986 150.472L60.8678 150.353C60.7046 149.713 60.6208 149.056 60.6208 148.394V27.5519C60.6208 23.2363 64.1349 19.7194 68.4514 19.7194H117.979C121.273 19.7194 124.099 21.7713 125.25 24.6616C125.607 25.5529 125.805 26.5326 125.805 27.5519Z" fill="#FD5742"/>
<path opacity="0.2" d="M118.464 61.4944H66.3262C65.0917 61.4944 64.0864 60.4928 64.0864 59.2528V39.4663C64.0864 38.2307 65.0873 37.2246 66.3262 37.2246H118.468C119.703 37.2246 120.708 38.2263 120.708 39.4663V59.2528C120.704 60.4928 119.703 61.4944 118.464 61.4944Z" fill="#020202"/>
<path d="M119.284 60.634H67.1463C65.9118 60.634 64.9065 59.6323 64.9065 58.3923V38.6058C64.9065 37.3702 65.9074 36.3641 67.1463 36.3641H119.288C120.523 36.3641 121.528 37.3658 121.528 38.6058V58.3923C121.524 59.6323 120.523 60.634 119.284 60.634Z" fill="white"/>
<path opacity="0.3" d="M115.064 41.7344L113.116 42.0433L114.549 43.4024L114.244 45.3528L115.977 44.4085L117.736 45.3043L117.375 43.3627L118.768 41.9639L116.81 41.7079L115.911 39.9473L115.064 41.7344Z" fill="#FFBC47"/>
<path d="M108.16 41.7344L106.211 42.0433L107.644 43.4024L107.34 45.3528L109.073 44.4085L110.832 45.3043L110.47 43.3627L111.864 41.9639L109.906 41.7079L109.006 39.9473L108.16 41.7344Z" fill="#FFBC47"/>
<path d="M101.251 41.7344L99.3019 42.0433L100.735 43.4024L100.431 45.3528L102.163 44.4085L103.923 45.3043L103.561 43.3627L104.954 41.9639L102.997 41.7079L102.097 39.9473L101.251 41.7344Z" fill="#FFBC47"/>
<path d="M93.8347 43.4024L93.5216 45.3528L95.1927 44.4482L95.2588 44.4129L97.0136 45.3043L96.6609 43.3627L98.0498 41.9639L96.0965 41.7079L95.1927 39.9473L94.3417 41.73L92.3973 42.0477L93.8347 43.4024Z" fill="#FFBC47"/>
<path d="M87.4414 41.7344L85.4926 42.0433L86.9256 43.4024L86.6214 45.3528L88.3541 44.4085L90.1134 45.3043L89.7518 43.3627L91.1451 41.9639L89.1875 41.7079L88.288 39.9473L87.4414 41.7344Z" fill="#FFBC47"/>
<g opacity="0.5">
<path opacity="0.5" d="M85.4926 48.9668H111.052" stroke="#2F36AD" stroke-miterlimit="10"/>
</g>
<g opacity="0.5">
<path opacity="0.5" d="M85.4926 51.6586H115.942" stroke="#2F36AD" stroke-miterlimit="10"/>
</g>
<g opacity="0.5">
<path opacity="0.5" d="M85.4926 54.3547H115.942" stroke="#2F36AD" stroke-miterlimit="10"/>
</g>
<g opacity="0.5">
<path opacity="0.5" d="M85.4926 57.0509H115.942" stroke="#2F36AD" stroke-miterlimit="10"/>
</g>
<path d="M75.1797 53.9046C78.8323 53.9046 81.7934 50.9411 81.7934 47.2855C81.7934 43.63 78.8323 40.6665 75.1797 40.6665C71.5271 40.6665 68.566 43.63 68.566 47.2855C68.566 50.9411 71.5271 53.9046 75.1797 53.9046Z" fill="#D9D9D9"/>
<path d="M78.0192 45.8161C78.5306 46.7031 78.0897 47.9166 78.6056 48.7991C78.8128 49.1521 79.1655 49.4301 79.2625 49.8273C79.3463 50.1626 79.2184 50.5377 78.9451 50.7539C78.6717 50.9657 78.2749 51.001 77.9707 50.8422C77.9045 50.8069 77.8428 50.7628 77.7723 50.7451C77.5165 50.6701 77.2828 50.8995 77.0624 51.0496C76.7934 51.2349 76.4407 51.3188 76.1321 51.2128C75.7352 51.0805 75.4883 50.6789 75.3561 50.2818C74.9857 49.1698 75.2502 47.9519 75.5897 46.8266C75.7617 46.2662 76.013 45.644 76.5642 45.441" fill="black"/>
<path d="M75.8808 49.7743C75.8808 49.7743 75.8587 50.7936 76.0174 50.8598C76.3261 50.9922 76.6744 51.0628 76.6744 51.0628C76.6744 51.0628 75.9557 51.8703 75.4046 51.8438C74.633 51.8085 73.9584 50.9216 73.9672 50.8069C73.9848 50.6083 73.857 49.4786 73.857 49.4786" fill="#FFBFA1"/>
<path d="M77.9177 45.6131C77.9177 45.6131 78.0809 47.5856 77.7414 48.6181C77.4944 49.3815 76.4715 50.0964 75.6162 50.0876C73.2661 50.0876 72.8428 46.8928 72.8561 46.7383C72.8693 46.5839 76.3216 45.2424 76.3216 45.2424L77.9177 45.6131Z" fill="#FFBFA1"/>
<path fill-rule="evenodd" clip-rule="evenodd" d="M78.5471 52.9836C77.5608 53.5687 76.4094 53.9046 75.1797 53.9046C73.6425 53.9046 72.2279 53.3798 71.1048 52.4994C71.1396 52.408 71.178 52.3145 71.2203 52.219C71.648 51.257 72.2918 50.6613 74.5801 50.8776C74.5801 50.8776 75.6515 52.069 76.0175 50.8599C76.1129 50.8867 76.2092 50.9128 76.3054 50.9388C77.1425 51.1655 77.9812 51.3925 78.3411 52.1484C78.4426 52.4479 78.5098 52.7258 78.5471 52.9836Z" fill="#FFBC47"/>
<path d="M71.6304 51.46C71.5774 51.4335 71.5245 51.4026 71.476 51.3717C71.2071 51.2128 70.9602 51.0408 70.8455 50.7363C70.6824 50.295 70.603 49.6155 70.8323 49.1874C70.9866 48.8962 71.2776 48.7064 71.476 48.4461C71.7494 48.0842 71.8332 47.6121 71.8552 47.1576C71.8773 46.7031 71.8508 46.2442 71.9478 45.7985C72.1109 45.0395 72.327 44.3158 72.9134 43.826C73.8481 43.0405 75.7264 42.5772 76.7493 43.4509C76.9345 43.6098 76.9698 43.7377 77.2211 43.7598C77.5562 43.7907 77.7767 43.8348 78.0765 44.0113C78.4116 44.2055 78.8172 44.4791 78.7687 44.9203C78.7378 45.2248 78.3895 45.7058 78.1294 45.8514C78.0192 45.9132 77.8913 45.9309 77.7678 45.9309C77.371 45.9397 77.0403 45.6793 76.6479 45.7235C76.4583 45.7455 76.2776 45.847 76.1585 45.997C76.0174 46.1691 76.0351 46.4118 75.8719 46.5751C75.6074 46.8355 75.2017 46.8134 74.8887 46.9855C74.8358 47.012 74.7829 47.0473 74.752 47.0958C74.7211 47.1443 74.7211 47.2061 74.7167 47.2635C74.7123 47.4268 74.7035 47.5944 74.6991 47.7577C74.5448 47.6915 74.5271 47.4709 74.3993 47.3562C74.2758 47.2503 74.073 47.2767 73.9495 47.387C73.8261 47.493 73.7644 47.6562 73.7335 47.8151C73.6938 48.0092 73.76 48.2122 73.8217 48.4064C73.9231 48.7417 74.2097 49.0418 74.4434 48.8212C74.6109 49.0683 74.4257 49.4831 74.4213 49.7611C74.4169 49.9817 74.4213 50.423 74.6285 50.5686C74.8181 50.701 75.1224 50.5995 75.1312 50.9481C75.14 51.2658 74.827 51.5129 74.5095 51.5526C74.1965 51.5923 73.8834 51.482 73.5836 51.3894C73.2794 51.3011 72.9487 51.2305 72.6533 51.3452C72.4725 51.4158 72.3182 51.5482 72.133 51.5791C71.9655 51.61 71.7935 51.5438 71.6304 51.46Z" fill="black"/>
<path opacity="0.2" d="M118.433 93.4335H66.2909C65.0564 93.4335 64.0511 92.4319 64.0511 91.1919V71.4053C64.0511 70.1698 65.052 69.1637 66.2909 69.1637H118.433C119.668 69.1637 120.673 70.1654 120.673 71.4053V91.1919C120.673 92.4275 119.672 93.4335 118.433 93.4335Z" fill="#020202"/>
<path d="M119.284 92.5553H67.1463C65.9118 92.5553 64.9065 91.5537 64.9065 90.3137V70.5272C64.9065 69.2916 65.9074 68.2855 67.1463 68.2855H119.288C120.523 68.2855 121.528 69.2872 121.528 70.5272V90.3137C121.524 91.5492 120.523 92.5553 119.284 92.5553Z" fill="white"/>
<path opacity="0.3" d="M115.064 73.6514L113.116 73.9647L114.549 75.3238L114.244 77.2742L115.977 76.3299L117.736 77.2213L117.375 75.2797L118.768 73.8808L116.81 73.6293L115.911 71.8687L115.064 73.6514Z" fill="#FFBC47"/>
<path opacity="0.3" d="M108.16 73.6514L106.211 73.9647L107.644 75.3238L107.34 77.2742L109.073 76.3299L110.832 77.2213L110.47 75.2797L111.864 73.8808L109.906 73.6293L109.006 71.8687L108.16 73.6514Z" fill="#FFBC47"/>
<path opacity="0.3" d="M101.251 73.6514L99.3019 73.9647L100.735 75.3238L100.431 77.2742L102.163 76.3299L103.923 77.2213L103.561 75.2797L104.954 73.8808L102.997 73.6293L102.097 71.8687L101.251 73.6514Z" fill="#FFBC47"/>
<path d="M93.8347 75.3238L93.5216 77.2698L95.1927 76.3696L95.2588 76.3343L97.0136 77.2257L96.6609 75.2797L98.0498 73.8853L96.0965 73.6293L95.1927 71.8687L94.3417 73.6514L92.3973 73.9691L93.8347 75.3238Z" fill="#FFBC47"/>
<path d="M87.4414 73.6514L85.4926 73.9647L86.9256 75.3238L86.6214 77.2742L88.3541 76.3299L90.1134 77.2213L89.7518 75.2797L91.1451 73.8808L89.1875 73.6293L88.288 71.8687L87.4414 73.6514Z" fill="#FFBC47"/>
<g opacity="0.5">
<path opacity="0.5" d="M85.4926 80.8838H111.052" stroke="#2F36AD" stroke-miterlimit="10"/>
</g>
<g opacity="0.5">
<path opacity="0.5" d="M85.4926 83.58H115.942" stroke="#2F36AD" stroke-miterlimit="10"/>
</g>
<g opacity="0.5">
<path opacity="0.5" d="M85.4926 86.2761H115.942" stroke="#2F36AD" stroke-miterlimit="10"/>
</g>
<g opacity="0.5">
<path opacity="0.5" d="M85.4926 88.9679H115.942" stroke="#2F36AD" stroke-miterlimit="10"/>
</g>
<path d="M79.9663 84.6023C82.549 82.0175 82.549 77.8265 79.9663 75.2417C77.3835 72.6568 73.196 72.6568 70.6132 75.2417C68.0305 77.8265 68.0305 82.0174 70.6132 84.6023C73.196 87.1872 77.3835 87.1872 79.9663 84.6023Z" fill="#D9D9D9"/>
<path d="M77.9894 80.0945C77.7689 80.1828 77.8615 80.9329 77.8174 81.1756C77.7777 81.4183 77.6014 82.3582 77.1076 82.4994C76.6137 82.6406 76.3095 82.6804 76.3051 82.7642C76.3051 82.8039 76.3183 82.976 76.3315 83.1481C76.3448 83.3379 76.3624 83.532 76.3624 83.532L75.9215 84.0836L75.4365 84.1189L74.246 83.7747C74.246 83.7747 74.1887 82.5347 74.1402 82.345C74.1094 82.2259 73.664 81.3874 73.3378 80.5711C73.1482 80.0945 72.9983 79.6224 72.9983 79.3046C72.9983 78.4398 73.0291 77.5351 73.5582 77.0895C74.0917 76.6438 77.4691 75.0464 77.5617 77.6896C77.5617 77.6896 77.9673 79.2031 78.1481 79.4635C78.3245 79.7194 78.2098 80.0107 77.9894 80.0945Z" fill="#FFBFA1"/>
<path d="M76.3316 83.1436C76.3448 83.3334 76.3624 83.5276 76.3624 83.5276L76.2346 84.1453L75.4321 84.1144L74.2416 83.7703C74.2416 83.7703 74.1843 82.5303 74.1358 82.3405C74.105 82.2214 73.6596 81.383 73.3334 80.5666L73.3775 80.0548C73.3775 80.0548 74.3519 79.9444 74.3871 79.9489C74.4268 79.9533 74.7355 80.5446 74.7355 80.5799C74.7355 80.6108 74.5459 81.1888 74.5459 81.1888C74.5459 81.1888 74.5106 81.9875 74.5459 82.6009C74.5635 82.923 74.784 83.201 75.097 83.2893C75.2734 83.3378 75.4718 83.3775 75.6614 83.3775C75.9832 83.3775 76.2125 83.2407 76.3316 83.1436Z" fill="#FFBFA1"/>
<path d="M74.4665 79.79C74.4665 79.79 74.0609 81.4889 75.0088 82.3979C75.9568 83.3069 77.6058 82.8083 77.8395 82.6053C78.0731 82.4023 78.8491 80.9858 78.1305 80.3328C77.4118 79.6797 76.4638 80.3945 76.4638 80.3945C76.4638 80.3945 75.8995 80.8755 75.7143 80.8491C75.5335 80.8182 75.119 80.2092 75.2601 79.1281C75.2689 79.0707 75.3174 79.0222 75.3748 79.0134C75.5952 78.9825 76.1067 78.8016 76.0758 77.7205C76.0714 77.6322 76.1464 77.5572 76.2345 77.5616C76.5432 77.5748 77.1825 77.6013 77.3192 77.641C77.3192 77.641 77.4206 77.6587 77.5176 77.6984C77.5485 77.7116 77.5749 77.7381 77.5837 77.769C77.6146 77.8749 77.6807 78.1132 77.6984 78.1705C77.7204 78.2456 77.8835 78.7795 77.8835 78.7795C77.8835 78.7795 78.0511 78.678 78.0511 78.4838C78.0511 78.2897 77.9761 77.8705 78.0114 77.7734C78.0467 77.6763 78.3245 77.6101 78.3685 77.3851C78.47 76.882 78.6728 74.9272 77.0679 75.8495C76.8562 75.9686 76.6622 76.1275 76.4903 76.1628C76.2654 76.2069 76.0626 75.9995 75.604 75.951C74.9647 75.8804 72.1164 76.0789 72.4559 78.9207C72.7954 81.7669 74.149 82.4156 74.149 82.4156C74.149 82.4156 74.127 80.0812 74.4665 79.79Z" fill="black"/>
<path d="M74.4665 79.79C74.4665 79.79 74.4224 79.3046 74.052 79.3708C73.5538 79.4635 73.3378 80.7696 74.3871 80.7873C74.3827 80.7873 74.3519 80.2313 74.4665 79.79Z" fill="#FFBFA1"/>
<path fill-rule="evenodd" clip-rule="evenodd" d="M79.7093 84.8463C78.8276 83.8685 78.211 83.7855 76.8019 83.5958C76.674 83.5786 76.5395 83.5605 76.3977 83.5408C75.7452 84.3042 74.2769 83.7438 74.2769 83.7438C72.638 83.6801 71.8816 84.7288 71.5902 85.41C74.0679 87.0869 77.4298 86.899 79.7093 84.8463Z" fill="#FD5742"/>
<path opacity="0.2" d="M127.794 114.897C127.847 114.447 127.917 113.913 128.01 113.308V122.835C127.498 121.331 127.15 120.223 127.088 119.817C126.934 118.824 127.348 116.724 127.794 114.897Z" fill="#020202"/>
<path d="M128.01 58.154V43.8833C129.121 43.8833 130.02 44.7835 130.02 45.8955V56.1374C130.025 57.2494 129.125 58.154 128.01 58.154Z" fill="black"/>
<path d="M58.4516 51.0186H59.426V43.8833H58.4516C57.8784 43.8833 57.411 44.351 57.411 44.9247V49.9772C57.411 50.5509 57.8784 51.0186 58.4516 51.0186Z" fill="black"/>
<path d="M58.4516 59.6234H59.426V52.488H58.4516C57.8784 52.488 57.411 52.9558 57.411 53.5294V58.582C57.411 59.1556 57.8784 59.6234 58.4516 59.6234Z" fill="black"/>
<path opacity="0.3" d="M109.466 19.7194L60 95.5207V58.251L85.1452 19.7194H109.466Z" fill="white"/>
<path opacity="0.3" d="M125.25 24.6616L60.6208 123.691V106.424L117.203 19.7194H117.979C121.273 19.7194 124.099 21.7713 125.25 24.6616Z" fill="white"/>
<path opacity="0.3" d="M125.805 68.7356L68.716 156.226H79.9857L125.805 86.0069V68.7356Z" fill="white"/>
<path d="M100.589 22.7421H85.863C83.3851 22.7421 81.3789 20.7299 81.3789 18.2544H105.078C105.078 20.7299 103.067 22.7421 100.589 22.7421Z" fill="black"/>
<path d="M186.483 53.8473H157.052C156.215 53.8473 155.536 53.1677 155.536 52.3293V39.4221C155.536 38.5837 156.215 37.9042 157.052 37.9042H186.483C187.321 37.9042 188 38.5837 188 39.4221V52.3249C188 53.1677 187.321 53.8473 186.483 53.8473Z" fill="#FD5742"/>
<path d="M160.099 40.0487L160.386 40.6356L161.034 40.7283L160.567 41.1828L160.677 41.827L160.099 41.5225L159.522 41.827L159.632 41.1828L159.164 40.7283L159.808 40.6356L160.099 40.0487Z" fill="#FFF0B0"/>
<path d="M162.917 40.0487L163.208 40.6356L163.856 40.7283L163.388 41.1828L163.499 41.827L162.917 41.5225L162.339 41.827L162.449 41.1828L161.982 40.7283L162.63 40.6356L162.917 40.0487Z" fill="#FFF0B0"/>
<path d="M165.738 40.0487L166.029 40.6356L166.673 40.7283L166.206 41.1828L166.316 41.827L165.738 41.5225L165.161 41.827L165.271 41.1828L164.804 40.7283L165.452 40.6356L165.738 40.0487Z" fill="#FFF0B0"/>
<path d="M168.56 40.0487L168.851 40.6356L169.495 40.7283L169.028 41.1828L169.138 41.827L168.56 41.5225L167.983 41.827L168.093 41.1828L167.626 40.7283L168.274 40.6356L168.56 40.0487Z" fill="#FFF0B0"/>
<path d="M171.382 40.0487L171.669 40.6356L172.317 40.7283L171.849 41.1828L171.96 41.827L171.382 41.5225L170.805 41.827L170.915 41.1828L170.447 40.7283L171.091 40.6356L171.382 40.0487Z" fill="#FFF0B0"/>
<g opacity="0.66">
<path opacity="0.66" d="M184.252 50.5906H177.506" stroke="#EAA221" stroke-miterlimit="10" stroke-linecap="round" stroke-linejoin="round"/>
<path opacity="0.66" d="M164.037 48.1857H159.473" stroke="#EAA221" stroke-miterlimit="10" stroke-linecap="round" stroke-linejoin="round"/>
<path opacity="0.66" d="M184.252 48.1857H166.016" stroke="#EAA221" stroke-miterlimit="10" stroke-linecap="round" stroke-linejoin="round"/>
<path opacity="0.66" d="M184.252 45.7808H159.473" stroke="#EAA221" stroke-miterlimit="10" stroke-linecap="round" stroke-linejoin="round"/>
<path opacity="0.66" d="M167.114 43.3759H159.473" stroke="#EAA221" stroke-miterlimit="10" stroke-linecap="round" stroke-linejoin="round"/>
<path opacity="0.66" d="M184.252 43.3759H169.014" stroke="#EAA221" stroke-miterlimit="10" stroke-linecap="round" stroke-linejoin="round"/>
<path opacity="0.66" d="M175.535 50.5906H159.473" stroke="#EAA221" stroke-miterlimit="10" stroke-linecap="round" stroke-linejoin="round"/>
</g>
<path d="M160.95 53.8473L157.996 57.4481V53.8473H160.95Z" fill="#FD5742"/>
<path opacity="0.2" d="M128.01 79.5467V77.7772C127.926 78.1964 127.904 78.6024 127.904 79.0834C127.904 79.2422 127.926 79.4187 128.01 79.5467ZM125.805 69.424C123.173 67.7824 120.594 66.1144 120.333 65.7173C120.038 65.2672 119.747 64.9627 119.557 64.5347L122.027 64.5082C122.609 64.4994 122.935 63.8287 122.573 63.3697L120.4 60.5986C120.258 60.4132 120.214 60.175 120.28 59.9543L121.334 56.5918C121.506 56.0358 120.968 55.5196 120.422 55.7181L117.115 56.9316C116.899 57.0111 116.656 56.9802 116.467 56.8434L113.592 54.8047C113.12 54.4693 112.463 54.8224 112.485 55.4048L112.613 58.9262C112.622 59.1556 112.516 59.3807 112.331 59.5175L109.505 61.6179C109.037 61.9665 109.174 62.7034 109.734 62.8623L113.12 63.8243C113.341 63.8904 113.521 64.0581 113.592 64.2788L114.721 67.6148C114.906 68.1708 115.642 68.2678 115.968 67.7824L117.445 65.5805C117.723 65.6555 117.952 65.6952 117.952 65.6952C118.327 65.9291 118.658 66.0571 118.658 66.0571C118.658 66.0571 122.78 71.6259 125.805 74.7413C126.33 75.284 126.819 75.7474 127.251 76.1004C127.511 76.3122 127.763 76.5063 128.01 76.6917V70.7919C127.304 70.3595 126.555 69.8961 125.805 69.424Z" fill="#020202"/>
<path d="M166.448 156.164C166.373 156.575 167.149 157.66 166.109 158.574C165.068 159.483 162.705 160.445 164.27 160.48C165.835 160.515 167.339 160.154 168.137 159.761C168.935 159.368 168.296 158.746 169.283 158.437C170.584 158.027 170.571 157.943 169.94 156.522C169.081 154.567 166.682 154.836 166.448 156.164Z" fill="#FD5742"/>
<path d="M156.184 90.3226C155.642 91.7347 155.509 93.2747 155.84 94.7529C156.492 97.6918 155.752 97.886 155.752 97.886C155.752 97.886 151.775 100.414 148.468 101.447C146.096 102.184 144.076 102.06 144.134 99.4392V99.4039C144.138 99.2451 144.143 99.0906 144.147 98.945C144.257 93.0585 143.031 92.7584 142.732 86.1658C142.419 79.4012 144.226 75.6283 146.016 73.9956C147.807 72.3629 150.254 72.3011 154.857 73.3911C158.313 74.2074 159.451 75.1253 159.425 77.6846C159.416 78.5363 159.279 79.5689 159.054 80.8353C158.472 84.0522 157.11 87.9177 156.184 90.3226Z" fill="#FD5742"/>
<path d="M147.837 75.8357C147.837 75.8357 144.253 87.5955 144.971 93.2305L146.294 95.6355L147.736 93.0143C147.736 93.0143 146.563 81.7487 148.812 76.0343L147.837 75.8357Z" fill="black"/>
<path d="M156.184 90.3226C155.642 91.7347 155.509 93.2747 155.84 94.7529C156.493 97.6918 155.752 97.8859 155.752 97.8859C155.752 97.8859 151.775 100.414 148.468 101.447L145.377 101.156L144.138 100.181L144.134 99.4039C144.138 99.2451 144.143 99.0906 144.147 98.945C144.852 99.0112 146.457 99.095 148.816 98.8214C150.637 98.614 152.291 98.0933 153.393 97.6741C154.195 97.3697 154.667 96.5401 154.517 95.6884C154.319 94.5323 154.081 92.8687 154.09 91.5802C154.098 90.2829 154.698 88.0942 155.187 86.5144C155.562 85.3009 155.69 84.0345 155.597 82.768C155.443 80.5793 155.602 78.4966 155.602 78.4966L158.053 77.1683L159.42 77.6758C159.411 78.5274 159.275 79.56 159.05 80.8265C158.472 84.0521 157.11 87.9177 156.184 90.3226Z" fill="#AB3E30"/>
<path d="M156.237 102.815C156.519 102.859 157.242 101.588 157.242 101.588L156.938 101.187C156.766 100.957 156.528 100.79 156.254 100.706L156.206 100.692C155.963 100.617 155.694 100.706 155.549 100.918C155.342 101.226 155.02 101.579 154.649 101.566H154.645C154.632 101.571 154.619 101.571 154.605 101.571C154.275 101.579 155.955 102.771 156.237 102.815Z" fill="#F4D5B5"/>
<path d="M145.068 61.8916C145.068 61.8916 144.76 62.7477 145.227 63.4316L147.123 60.8635L145.8 60.8502L145.068 61.8916Z" fill="black"/>
<path d="M155.373 65.2894C155.289 68.6034 152.432 70.5229 152.432 70.5229L152.621 73.5412L150.695 74.79L149.372 75.646L148.613 74.0575L148.508 72.1115C148.481 71.657 148.159 71.2819 147.714 71.1848C147.22 71.0789 146.537 70.7921 145.836 70.0463C145.796 70.0022 145.752 69.9537 145.717 69.8963C145.712 69.8919 145.712 69.8919 145.712 69.8919C144.46 68.1842 143.984 61.6446 148.274 59.7868C152.701 57.8805 155.461 61.9711 155.373 65.2894Z" fill="#FFBFA1"/>
<path d="M150.567 72.9851L150.695 74.7943L149.372 75.6504L148.613 74.0618L148.508 72.1158C148.481 71.6613 148.159 71.2862 147.714 71.1891C147.22 71.0832 146.537 70.7964 145.836 70.0507C145.796 70.0065 145.752 69.958 145.717 69.9006C145.805 69.9536 146.841 70.5581 148.415 70.7346C149.575 70.8714 150.483 71.8157 150.567 72.9851Z" fill="#D39E85"/>
<path d="M150.747 66.3131C150.915 66.3838 151.074 66.1234 151.074 66.1234C151.074 66.1234 152.004 64.0362 152.321 63.7141C152.895 63.136 154.239 63.189 154.35 64.9805C154.433 66.3661 152.793 69.327 152.291 70.1963C152.216 70.3331 152.246 70.5184 152.374 70.6155C152.427 70.6552 152.498 70.6773 152.555 70.6861H152.577C152.652 70.6861 152.731 70.6641 152.789 70.6111C153.847 69.68 158.512 65.2056 154.808 60.9958C154.808 60.9958 151.867 61.1856 151.418 62.6065C150.968 64.0318 150.646 65.9557 150.646 65.9557C150.646 65.9557 150.575 66.2381 150.747 66.3131Z" fill="black"/>
<path d="M145.068 61.8916C145.068 61.8916 147.643 59.8838 151.55 62.3285L154.751 61.5121C154.751 61.5121 154.888 61.468 154.813 60.987C154.742 60.506 154.389 55.7977 148.781 56.8567C145.562 57.4657 143.587 59.7029 145.068 61.8916Z" fill="black"/>
<path d="M147.591 74.8341L147.608 74.9885C147.643 75.2798 147.723 75.5666 147.837 75.8358L148.807 76.0344L149.654 75.4033L148.684 74.2737L148.534 74.3134C148.186 74.4017 147.868 74.5782 147.604 74.8209L147.591 74.8341Z" fill="#FF911E"/>
<path d="M152.599 72.1378C152.599 72.1378 153.067 72.3982 153.53 73.0954C153.53 73.0954 152.895 73.3822 152.339 73.7176C151.832 74.0265 149.403 75.7474 149.403 75.7474L148.688 74.278C148.684 74.2736 151.224 72.5217 152.599 72.1378Z" fill="#AB3E30"/>
<path d="M148.684 74.2736C148.684 74.2736 147.833 74.5648 147.573 75.2002C147.573 75.2002 147.136 74.3663 147.692 72.8792C147.692 72.8792 148.159 72.4379 148.516 72.2791L148.684 74.2736Z" fill="#AB3E30"/>
<path d="M155.448 100.741C155.448 100.741 154.993 101.31 154.861 101.385C154.729 101.46 154.702 101.301 154.755 101.191C154.808 101.076 155.43 100.587 155.448 100.741Z" fill="#E5BB98"/>
<path d="M152.564 70.6817H152.586C152.661 70.6817 152.74 70.6597 152.798 70.6067C153.856 69.6756 158.521 65.2012 154.817 60.9915C154.817 60.9915 154.998 61.724 154.923 62.3329C154.923 62.3329 157.286 66.1543 152.564 70.6817Z" fill="black"/>
<path d="M160.849 114.623C160.849 114.623 163.622 105.445 155.752 97.8816C155.752 97.8816 151.532 99.7702 148.155 99.9997C145.496 100.181 144.143 99.9026 144.143 99.9026C144.143 99.9026 143.918 108.057 143.909 112.452L160.849 114.623Z" fill="black"/>
<path d="M143.195 129.869C143.023 125.765 146.061 126.207 147.837 129.194C153.53 138.756 147.815 150.75 147.203 157.669C146.532 156.557 145.263 156.178 144.963 156.204C144.478 156.239 144.218 156.623 144.218 156.623C144.315 148.133 143.375 134.26 143.195 129.869Z" fill="black"/>
<path d="M147.683 130.315C147.172 131.992 142.767 133.929 143.23 127.831C143.433 125.126 143.979 110.189 144.081 108.746C144.187 107.307 144.425 105.202 145.121 104.937C148.6 103.623 153.477 108 152.564 113.405C151.951 117.024 148.741 126.842 147.683 130.315Z" fill="black"/>
<path d="M144.226 156.743C144.046 157.096 143.173 157.921 141.96 158.459C140.752 158.997 138.186 159.253 139.61 159.73C141.034 160.206 142.696 159.92 143.539 159.783C144.381 159.646 145.196 159.628 146.188 159.624C147.498 159.615 147.507 159.536 147.33 158.057C147.088 156.023 144.817 155.595 144.226 156.743Z" fill="#FD5742"/>
<path d="M157.784 130.805C156.413 126.935 159.442 126.458 162.022 128.788C170.275 136.25 168.349 149.391 169.799 156.182C168.975 156.747 167.67 156.95 167.211 156.923C166.726 156.897 166.506 156.562 166.506 156.562C164.098 148.429 159.253 134.944 157.784 130.805Z" fill="black"/>
<path d="M162.264 129.697C162.418 131.44 159.067 134.895 157.202 129.07C156.378 126.485 151.277 112.439 150.831 111.062C150.39 109.685 149.822 107.647 150.368 107.144C153.097 104.62 159.261 106.839 160.443 112.196C161.232 115.775 161.942 126.079 162.264 129.697Z" fill="black"/>
<path d="M154.372 100.525C154.372 100.525 154.985 102.696 157.718 103.945C160.077 105.021 153.944 105.635 153.807 105.396C153.671 105.158 152.493 101.196 152.493 101.196L154.372 100.525Z" fill="#3A3A3A"/>
<path d="M178.309 105.926H134.786C133.552 105.926 132.547 104.924 132.547 103.684V87.5911C132.547 86.3556 133.548 85.3495 134.786 85.3495H178.313C179.548 85.3495 180.553 86.3512 180.553 87.5911V103.684C180.549 104.92 179.548 105.926 178.309 105.926Z" fill="white"/>
<path opacity="0.3" d="M175.072 89.8989L173.419 90.1637L174.636 91.3154L174.376 92.9702L175.848 92.1671L177.339 92.926L177.03 91.2801L178.212 90.0931L176.554 89.8769L175.791 88.3854L175.072 89.8989Z" fill="#FFBC47"/>
<path opacity="0.3" d="M169.217 89.8989L167.564 90.1637L168.781 91.3154L168.521 92.9702L169.993 92.1671L171.483 92.926L171.175 91.2801L172.356 90.0931L170.699 89.8769L169.936 88.3854L169.217 89.8989Z" fill="#FFBC47"/>
<path d="M163.362 89.8989L161.708 90.1637L162.925 91.3154L162.665 92.9702L164.138 92.1671L165.628 92.926L165.32 91.2801L166.501 90.0931L164.843 89.8769L164.081 88.3854L163.362 89.8989Z" fill="#2F36AD"/>
<path opacity="0.3" d="M157.07 91.3154L156.81 92.9657L158.225 92.2024L158.278 92.1715L159.768 92.926L159.469 91.2801L160.646 90.0931L158.988 89.8769L158.225 88.3854L157.507 89.8989L155.853 90.1637L157.07 91.3154Z" fill="#FFBC47"/>
<path d="M151.651 89.8989L149.998 90.1637L151.215 91.3154L150.955 92.9702L152.427 92.1671L153.918 92.926L153.609 91.2801L154.791 90.0931L153.133 89.8769L152.37 88.3854L151.651 89.8989Z" fill="#FFBC47"/>
<path d="M149.998 96.0326H171.673" stroke="#A4D6FB" stroke-width="0.8478" stroke-miterlimit="10"/>
<path d="M149.998 98.314H175.818" stroke="#A4D6FB" stroke-width="0.8478" stroke-miterlimit="10"/>
<path d="M149.998 100.6H175.818" stroke="#A4D6FB" stroke-width="0.8478" stroke-miterlimit="10"/>
<path d="M149.998 102.885H175.818" stroke="#A4D6FB" stroke-width="0.8478" stroke-miterlimit="10"/>
<path d="M141.255 101.22C144.352 101.22 146.863 98.7073 146.863 95.6073C146.863 92.5074 144.352 89.9944 141.255 89.9944C138.157 89.9944 135.646 92.5074 135.646 95.6073C135.646 98.7073 138.157 101.22 141.255 101.22Z" fill="#D9D9D9"/>
<path d="M143.666 93.3631C144.103 94.1133 143.724 95.1414 144.165 95.8916C144.341 96.1917 144.636 96.4255 144.725 96.7653C144.795 97.0477 144.685 97.3698 144.456 97.5508C144.226 97.7317 143.887 97.7626 143.631 97.6258C143.574 97.5949 143.521 97.5596 143.464 97.5419C143.248 97.4802 143.049 97.6699 142.864 97.7979C142.635 97.9523 142.335 98.0273 142.075 97.9391C141.74 97.8244 141.528 97.4846 141.418 97.1492C141.105 96.2049 141.325 95.1723 141.616 94.2192C141.762 93.7426 141.973 93.2175 142.441 93.0454" fill="black"/>
<path d="M141.854 96.7167C141.854 96.7167 141.837 97.5816 141.969 97.639C142.233 97.7493 142.529 97.8111 142.529 97.8111C142.529 97.8111 141.916 98.495 141.453 98.473C140.8 98.4421 140.227 97.6919 140.236 97.5948C140.249 97.4227 140.143 96.4696 140.143 96.4696" fill="#FFCFB8"/>
<path d="M143.578 93.1865C143.578 93.1865 143.715 94.8589 143.428 95.7326C143.217 96.3813 142.352 96.9858 141.629 96.977C139.636 96.977 139.279 94.2676 139.288 94.1352C139.297 94.0029 142.229 92.8644 142.229 92.8644L143.578 93.1865Z" fill="#FFCFB8"/>
<path fill-rule="evenodd" clip-rule="evenodd" d="M144.143 99.9053C143.299 100.414 142.311 100.706 141.255 100.706C139.896 100.706 138.65 100.222 137.68 99.4181C137.732 99.2217 137.805 99.0127 137.904 98.7906C138.261 97.9743 138.808 97.4668 140.748 97.6522C140.748 97.6522 141.656 98.6627 141.969 97.6389C142.049 97.6615 142.13 97.6834 142.211 97.7053C142.922 97.8978 143.635 98.0911 143.94 98.7289C144.09 99.1753 144.152 99.565 144.143 99.9053Z" fill="#FFBC47"/>
<path d="M138.248 98.1464C138.203 98.1243 138.159 98.0979 138.115 98.0714C137.886 97.9346 137.679 97.7934 137.582 97.533C137.445 97.158 137.379 96.5843 137.569 96.2225C137.701 95.9754 137.948 95.8165 138.115 95.5959C138.349 95.2914 138.42 94.8898 138.437 94.5059C138.455 94.122 138.433 93.7337 138.517 93.3542C138.653 92.71 138.838 92.0966 139.332 91.6818C140.126 91.0155 141.718 90.6228 142.582 91.3641C142.74 91.5009 142.771 91.6068 142.983 91.6288C143.27 91.6553 143.455 91.695 143.71 91.8407C143.993 92.0039 144.341 92.2378 144.297 92.6085C144.27 92.8688 143.975 93.2748 143.755 93.3983C143.662 93.4513 143.556 93.4645 143.45 93.4689C143.111 93.4734 142.833 93.2571 142.502 93.2924C142.339 93.3101 142.189 93.3983 142.088 93.5219C141.969 93.6675 141.987 93.8749 141.845 94.0117C141.621 94.2323 141.277 94.2147 141.012 94.3559C140.968 94.378 140.924 94.4088 140.897 94.4486C140.871 94.4927 140.871 94.5412 140.867 94.5898C140.862 94.731 140.858 94.8678 140.853 95.009C140.721 94.9516 140.708 94.7619 140.602 94.6692C140.496 94.5765 140.329 94.603 140.223 94.6957C140.117 94.7839 140.069 94.9251 140.038 95.0619C140.002 95.2252 140.06 95.3973 140.113 95.5606C140.201 95.843 140.443 96.0989 140.637 95.9136C140.778 96.1254 140.624 96.474 140.62 96.7123C140.615 96.902 140.62 97.2727 140.796 97.3962C140.959 97.511 141.215 97.4227 141.224 97.7184C141.233 97.9875 140.964 98.1949 140.699 98.2302C140.434 98.2611 140.17 98.1685 139.914 98.0934C139.658 98.0184 139.376 97.9566 139.125 98.0537C138.975 98.1111 138.843 98.2258 138.684 98.2523C138.534 98.2744 138.389 98.2214 138.248 98.1464Z" fill="black"/>
<path d="M155.558 83.0373C155.558 83.0373 160.831 87.247 162.405 92.3834C162.405 92.3834 166.924 92.0965 167.978 88.584C167.978 88.584 160.915 76.7051 158.313 74.9532C155.721 73.2014 154.098 79.2159 155.558 83.0373Z" fill="#FD5742"/>
<path d="M162.723 92.9482C162.723 92.9482 159.191 103.856 158.521 104.465C157.851 105.074 157.67 105.745 155.963 105.926C155.963 105.926 156.51 107.206 157.67 107.082C158.825 106.958 159.345 105.802 159.345 105.802C159.345 105.802 164.808 99.3201 166.329 96.2621C168.419 92.0524 168.34 89.4709 168.34 89.4709L162.723 92.9482Z" fill="#FFBFA1"/>
<path d="M133.071 71.6481C133.071 71.6481 122.265 65.1703 121.713 64.3363C121.118 63.4317 120.545 63.1095 120.761 61.2297C120.761 61.2297 118.402 61.3886 118.252 62.6639C118.102 63.9391 120.034 64.6761 120.034 64.6761C120.034 64.6761 125.708 72.3409 128.631 74.7194C132.648 77.9892 135.443 78.5275 135.443 78.5275L133.071 71.6481Z" fill="#FFBFA1"/>
<path d="M162.41 92.8776C162.418 92.6702 162.581 92.8996 162.467 92.7231C162.41 92.6304 162.304 92.5687 162.273 92.4628C162.211 92.2465 162.489 92.1053 162.705 92.0612C164.173 91.7611 165.227 91.0286 166.356 90.0402C166.797 89.6519 166.752 89.4004 167.088 88.9194C167.299 88.6149 167.648 88.3148 167.983 88.4693C168.684 88.7914 168.155 89.4312 168.463 89.8681C168.525 89.9564 168.618 90.0225 168.662 90.1196C168.732 90.2829 168.648 90.4682 168.547 90.6183C168.221 91.0992 167.939 91.4434 167.471 91.7832C167.03 92.1097 166.528 92.2995 166.038 92.551C165.491 92.8423 162.37 93.9896 162.41 92.8776Z" fill="#AB3E30"/>
<path d="M147.202 73.1572C147.202 73.1572 138.032 74.1324 134.187 71.7628L129.526 77.2566C129.526 77.2566 138.706 81.4575 143.909 80.5441L147.202 73.1572Z" fill="#FD5742"/>
<path d="M133.984 71.1098C134.121 71.3304 133.794 71.2068 134.032 71.3083C134.156 71.3613 134.306 71.3525 134.412 71.4363C134.623 71.6128 134.443 71.9526 134.249 72.1512C132.957 73.4838 132.388 74.9709 131.925 76.7668C131.744 77.4729 131.965 77.6979 131.96 78.426C131.956 78.8849 131.775 78.7923 131.325 78.8673C130.386 79.0306 130.51 78.6467 129.892 78.4128C129.769 78.3642 129.628 78.3642 129.513 78.2936C129.328 78.1789 129.284 77.9274 129.284 77.7067C129.284 76.9875 129.332 76.4403 129.57 75.7652C129.795 75.1253 130.179 74.5781 130.496 73.978C130.858 73.3029 133.248 69.9448 133.984 71.1098Z" fill="#AB3E30"/>
<path d="M117.701 62.6638C117.67 62.5447 119.394 60.7531 119.743 60.8678C120.091 60.9781 120.139 61.7371 120.161 62.0857C120.188 62.4299 119.571 63.233 119.178 63.2816C118.786 63.3301 117.873 63.3787 117.701 62.6638Z" fill="#6774FF"/>
<path d="M121.802 54.3414L118.495 55.5549C118.279 55.6343 118.036 55.6035 117.847 55.4667L114.976 53.428C114.5 53.0926 113.843 53.4456 113.865 54.0281L113.993 57.5494C114.002 57.7789 113.896 57.9995 113.711 58.1407L110.885 60.2456C110.417 60.5942 110.55 61.3267 111.114 61.4856L114.5 62.452C114.721 62.5137 114.901 62.6858 114.972 62.9021L116.096 66.2425C116.281 66.794 117.022 66.8955 117.344 66.4101L119.306 63.4845C119.434 63.2904 119.65 63.1756 119.884 63.1712L123.402 63.1315C123.984 63.1271 124.306 62.4519 123.949 61.993L121.775 59.2219C121.634 59.0409 121.59 58.7982 121.656 58.5776L122.705 55.2151C122.886 54.6547 122.348 54.1384 121.802 54.3414Z" fill="#FF9422"/>
<path d="M119.333 64.3141C119.333 64.3141 117.878 64.067 117.833 63.6081C117.825 63.1315 119.69 63.6169 119.69 63.6169L119.333 64.3141Z" fill="#FFBFA1"/>
<path d="M40.07 94.0645H1.51673C0.679003 94.0645 0 93.385 0 92.5466V75.1605C0 74.3221 0.679003 73.6426 1.51673 73.6426H40.07C40.9077 73.6426 41.5867 74.3221 41.5867 75.1605V92.5466C41.5911 93.385 40.9121 94.0645 40.07 94.0645Z" fill="#FD5742"/>
<path d="M5.84646 76.3873L6.21683 77.1375L7.04574 77.2566L6.4461 77.8435L6.58719 78.6687L5.84646 78.276L5.10573 78.6687L5.24682 77.8435L4.64719 77.2566L5.4761 77.1375L5.84646 76.3873Z" fill="#FFF0B0"/>
<path d="M9.46191 76.3873L9.83228 77.1375L10.6568 77.2566L10.0616 77.8435L10.2026 78.6687L9.46191 78.276L8.72118 78.6687L8.86227 77.8435L8.26263 77.2566L9.09155 77.1375L9.46191 76.3873Z" fill="#FFF0B0"/>
<path d="M13.073 76.3873L13.4434 77.1375L14.2723 77.2566L13.6726 77.8435L13.8137 78.6687L13.073 78.276L12.3323 78.6687L12.4734 77.8435L11.8737 77.2566L12.7026 77.1375L13.073 76.3873Z" fill="#FFF0B0"/>
<path d="M16.6885 76.3873L17.0588 77.1375L17.8878 77.2566L17.2881 77.8435L17.4292 78.6687L16.6885 78.276L15.9477 78.6687L16.0888 77.8435L15.4892 77.2566L16.3181 77.1375L16.6885 76.3873Z" fill="#FFF0B0"/>
<path d="M20.2995 76.3873L20.6699 77.1375L21.4988 77.2566L20.8992 77.8435L21.0402 78.6687L20.2995 78.276L19.5632 78.6687L19.7043 77.8435L19.1046 77.2566L19.9336 77.1375L20.2995 76.3873Z" fill="#FFF0B0"/>
<g opacity="0.66">
<path opacity="0.66" d="M36.7851 89.8901H28.1477" stroke="#EAA221" stroke-miterlimit="10" stroke-linecap="round" stroke-linejoin="round"/>
<path opacity="0.66" d="M10.8949 86.8101H5.0484" stroke="#EAA221" stroke-miterlimit="10" stroke-linecap="round" stroke-linejoin="round"/>
<path opacity="0.66" d="M36.7852 86.8101H13.4257" stroke="#EAA221" stroke-miterlimit="10" stroke-linecap="round" stroke-linejoin="round"/>
<path opacity="0.66" d="M36.7852 83.73H5.0484" stroke="#EAA221" stroke-miterlimit="10" stroke-linecap="round" stroke-linejoin="round"/>
<path opacity="0.66" d="M14.8322 80.6499H5.0484" stroke="#EAA221" stroke-miterlimit="10" stroke-linecap="round" stroke-linejoin="round"/>
<path opacity="0.66" d="M36.7852 80.6499H17.2704" stroke="#EAA221" stroke-miterlimit="10" stroke-linecap="round" stroke-linejoin="round"/>
<path opacity="0.66" d="M25.6257 89.8901H5.0484" stroke="#EAA221" stroke-miterlimit="10" stroke-linecap="round" stroke-linejoin="round"/>
</g>
<path d="M33.496 94.0646L37.279 98.6758V94.0646H33.496Z" fill="#FD5742"/>
<path opacity="0.2" d="M74.3199 131.03C72.7768 130.575 63.8483 132.446 58.4163 133.66V141.748C64.0952 139.987 69.6331 137.327 69.8315 137.234C68.253 140.799 64.9594 153.451 64.9594 153.451C65.9603 153.812 66.9126 154.055 67.8033 154.214C67.7151 154.836 67.5652 155.714 67.3183 156.451C67.2477 156.588 67.1904 156.707 67.1463 156.817C66.9964 156.716 66.9038 156.65 66.9038 156.65C66.9038 156.65 66.3747 157.365 65.9735 158.124C66.0881 158.154 66.1984 158.177 66.313 158.203C67.0008 158.353 67.7151 158.432 68.447 158.432H72.3358C71.1807 158.004 70.0563 157.563 70.0563 157.563C70.0475 157.572 70.0343 157.576 70.0255 157.581C69.8359 156.972 69.7389 155.97 70.1401 154.474C72.5254 154.571 74.0554 154.112 74.0554 154.112C74.0554 154.112 74.8446 147.913 75.6339 142.375C76.4275 136.832 76.5598 131.692 74.3199 131.03ZM103.949 106.424H58.4163V129.587H61.7231C61.7319 129.701 61.7452 129.79 61.7716 129.838C61.9083 130.063 64.0908 130.434 65.0608 129.587H103.949C105.184 129.587 106.185 128.581 106.185 127.345V108.666C106.185 107.431 105.184 106.424 103.949 106.424Z" fill="#020202"/>
<path d="M66.8112 152.352C66.8112 152.352 66.6613 154.086 66.2337 155.37C65.7883 156.217 65.8721 156.531 65.8721 156.531L69.3597 157.299C69.3597 157.299 68.0855 156.094 69.2847 152.617C70.4884 149.139 66.8112 152.352 66.8112 152.352Z" fill="#FFBFA1"/>
<path d="M68.9761 156.478C68.9761 156.478 72.9355 158.027 73.6189 158.15C74.3023 158.274 74.7873 158.556 74.6595 158.887C74.5316 159.218 71.7054 159.946 70.2239 159.831C68.7424 159.712 67.7195 158.799 67.4065 158.799C67.0978 158.799 65.4753 159.262 64.6464 158.759C63.8175 158.26 65.8192 155.564 65.8192 155.564C65.8192 155.564 68.0149 157.197 68.9761 156.478Z" fill="#FD5742"/>
<path d="M53.1165 133.541C53.1165 133.541 70.9955 129.287 73.2353 129.944C75.4751 130.602 75.3429 135.747 74.5536 141.289C73.7644 146.827 72.9708 153.027 72.9708 153.027C72.9708 153.027 69.0158 154.214 63.8792 152.37C63.8792 152.37 67.1728 139.709 68.7557 136.144C68.7557 136.144 55.5107 142.556 48.7868 142.176C42.0673 141.801 53.1165 133.541 53.1165 133.541Z" fill="black"/>
<path d="M34.8584 152.153C34.8584 152.153 33.1345 151.924 31.8735 151.434C31.049 150.953 30.7315 151.019 30.7315 151.019L29.7968 154.47C29.7968 154.47 31.0622 153.256 34.4749 154.616C37.8875 155.979 34.8584 152.153 34.8584 152.153Z" fill="#FFBFA1"/>
<path d="M30.6345 154.121C30.6345 154.121 29.422 156.231 29.2721 156.91C29.1178 157.59 30.3655 158.578 30.0128 158.6C26.6354 158.839 26.8912 156.659 27.2351 155.207C27.5922 153.693 28.3859 152.753 28.3991 152.44C28.4123 152.131 28.0287 150.49 28.5666 149.682C29.1045 148.879 31.7015 151.006 31.7015 151.006C31.7015 151.006 29.9643 153.124 30.6345 154.121Z" fill="#FD5742"/>
<path d="M43.465 134.017C43.465 134.017 41.331 142.798 47.0143 144.678C48.5928 145.199 56.4454 136.038 56.6703 134.758C56.8995 133.479 55.0257 130.275 55.0257 130.275C55.0257 130.275 45.0214 130.077 43.465 134.017Z" fill="black"/>
<path d="M53.553 136.351C53.553 136.351 57.6756 156.156 57.0098 158.393C56.3396 160.63 51.203 160.476 45.6696 159.659C40.1361 158.843 33.9457 158.022 33.9457 158.022C33.9457 158.022 32.7773 154.06 34.6468 148.923C34.6468 148.923 47.2833 152.281 50.8326 153.879C50.8326 153.879 43.7736 141.973 44.1837 135.248C44.5937 128.523 53.553 136.351 53.553 136.351Z" fill="black"/>
<path d="M43.346 99.4436C43.346 99.4436 43.6899 95.2515 45.3698 93.9277C47.9006 91.9376 51.9525 92.3347 53.4252 94.3513C54.8978 96.3679 56.4719 105.118 49.2806 106.244L45.5549 123.453C45.5549 123.453 35.8593 122.46 35.1142 117.262C34.3734 112.064 38.787 109.646 38.787 109.646C38.787 109.646 36.6662 105.277 38.8928 102.197C41.1238 99.1259 43.346 99.4436 43.346 99.4436Z" fill="black"/>
<path d="M53.4296 117.902C53.0989 118.749 55.8237 130.077 56.247 132.764C56.247 132.764 57.9004 136.762 43.1475 133.977C43.1475 133.977 43.6326 131.339 45.6078 127.376C46.5867 125.417 45.1405 122.169 43.4297 119.389C42.9976 118.683 42.5435 118.003 42.107 117.386C40.8019 115.519 39.6599 114.191 39.6599 114.191C39.6599 114.191 42.0805 106.764 46.3177 106.305C49.6995 105.939 49.6774 107.439 52.8167 108.287L57.9004 109.655C57.9004 109.655 57.3361 113.944 57.9004 115.215H54.3687C54.3687 115.215 53.7559 117.055 53.4296 117.902Z" fill="#FD5742"/>
<path d="M52.5345 95.8693C52.5345 95.8693 54.0909 100.083 53.0989 102.06C52.1113 104.042 49.7083 103.759 49.7083 103.759V108.287C49.7083 108.287 49.4614 108.52 49.0381 108.547C48.2974 108.591 46.3177 107.298 46.3177 107.298V96.8312L52.5345 95.8693Z" fill="#FFBFA1"/>
<path d="M39.003 116.582C39.003 116.582 37.0409 127.8 37.958 128.483C38.8707 129.167 48.4473 128.779 49.4129 128.934C50.3785 129.088 54.2497 130.129 56.2735 128.347C56.5336 128.117 54.188 128.003 53.8352 127.226C53.4825 126.445 52.464 126.202 52.464 126.202L49.5319 127.499C49.5319 127.499 42.1599 126.414 41.6485 125.981C41.137 125.549 43.4077 116.45 43.4077 116.45L39.003 116.582Z" fill="#FFBFA1"/>
<path d="M45.5241 112.704L45.1757 119.389H43.4297C42.9976 118.683 42.5435 118.003 42.107 117.386C42.9756 116.384 45.5241 112.704 45.5241 112.704Z" fill="#AB3E30"/>
<path d="M38.6017 116.34C38.6017 116.34 39.4836 108.843 41.9571 107.74C44.435 106.632 46.1854 110.18 45.2771 113.82C44.3645 117.461 44.1308 118.798 44.1308 118.798C44.1308 118.798 40.6564 118.921 38.6017 116.34Z" fill="#FD5742"/>
<path d="M52.7285 95.2516C52.7285 95.2516 51.7189 100.083 49.3864 101.354C47.054 102.625 48.8177 105.758 46.5955 108.093C45.405 109.341 43.0726 107.148 43.0726 107.148L45.3697 95.865L52.7285 95.2516Z" fill="black"/>
<path d="M102.865 128.501H53.315C52.0804 128.501 51.0751 127.5 51.0751 126.26V107.581C51.0751 106.345 52.076 105.339 53.315 105.339H102.865C104.099 105.339 105.104 106.341 105.104 107.581V126.26C105.104 127.5 104.103 128.501 102.865 128.501Z" fill="white"/>
<path d="M98.9404 110.467L97.0798 110.762L98.4466 112.06L98.1556 113.922L99.809 113.022L101.489 113.873L101.145 112.02L102.472 110.683L100.607 110.44L99.7473 108.763L98.9404 110.467Z" fill="#FFBC47"/>
<path d="M92.3488 110.467L90.4882 110.762L91.855 112.06L91.564 113.922L93.2218 113.022L94.9017 113.873L94.5534 112.02L95.8849 110.683L94.0154 110.44L93.1557 108.763L92.3488 110.467Z" fill="#FFBC47"/>
<path d="M85.7572 110.467L83.9009 110.762L85.2678 112.06L84.9768 113.922L86.6302 113.022L88.31 113.873L87.9617 112.02L89.2933 110.683L87.4238 110.44L86.5685 108.763L85.7572 110.467Z" fill="#FFBC47"/>
<path d="M78.6806 112.06L78.3852 113.917L79.9769 113.057L80.0386 113.022L81.714 113.873L81.3745 112.02L82.7017 110.687L80.8366 110.44L79.9769 108.763L79.1656 110.467L77.3049 110.767L78.6806 112.06Z" fill="#FFBC47"/>
<path d="M72.5784 110.467L70.7177 110.762L72.0845 112.06L71.7935 113.922L73.4469 113.022L75.1268 113.873L74.7829 112.02L76.11 110.683L74.245 110.44L73.3852 108.763L72.5784 110.467Z" fill="#FFBC47"/>
<g opacity="0.5">
<path opacity="0.5" d="M70.7177 117.368H95.1133" stroke="#2F36AD" stroke-miterlimit="10"/>
</g>
<g opacity="0.5">
<path opacity="0.5" d="M70.7177 119.941H99.7782" stroke="#2F36AD" stroke-miterlimit="10"/>
</g>
<g opacity="0.5">
<path opacity="0.5" d="M70.7177 122.509H99.7782" stroke="#2F36AD" stroke-miterlimit="10"/>
</g>
<g opacity="0.5">
<path opacity="0.5" d="M70.7177 125.081H99.7782" stroke="#2F36AD" stroke-miterlimit="10"/>
</g>
<path d="M65.9663 121.602C68.5491 119.017 68.5491 114.827 65.9663 112.242C63.3835 109.657 59.196 109.657 56.6133 112.242C54.0305 114.827 54.0305 119.017 56.6133 121.602C59.196 124.187 63.3835 124.187 65.9663 121.602Z" fill="#D9D9D9"/>
<path d="M63.9894 117.095C63.7689 117.183 63.8615 117.933 63.8174 118.176C63.7778 118.418 63.6014 119.358 63.1076 119.499C62.6138 119.641 62.3095 119.68 62.3051 119.764C62.3051 119.804 62.3183 119.976 62.3316 120.148C62.3448 120.338 62.3624 120.532 62.3624 120.532L61.9215 121.084L61.4365 121.119L60.2461 120.775C60.2461 120.775 60.1887 119.535 60.1402 119.345C60.1094 119.226 59.6641 118.387 59.3378 117.571C59.1482 117.095 58.9983 116.622 58.9983 116.305C58.9983 115.44 59.0292 114.535 59.5582 114.089C60.0918 113.644 63.4691 112.046 63.5617 114.69C63.5617 114.69 63.9674 116.203 64.1481 116.463C64.3245 116.719 64.2099 117.011 63.9894 117.095Z" fill="#FFBFA1"/>
<path d="M62.3316 120.144C62.3448 120.333 62.3625 120.528 62.3625 120.528L62.2346 121.145L61.4321 121.114L60.2417 120.77C60.2417 120.77 60.1844 119.53 60.1359 119.341C60.105 119.221 59.6597 118.383 59.3334 117.567L59.3775 117.055C59.3775 117.055 60.3519 116.944 60.3872 116.949C60.4269 116.953 60.7355 117.545 60.7355 117.58C60.7355 117.611 60.5459 118.189 60.5459 118.189C60.5459 118.189 60.5106 118.988 60.5459 119.601C60.5635 119.923 60.784 120.201 61.097 120.289C61.2734 120.338 61.4718 120.378 61.6614 120.378C61.9833 120.378 62.2125 120.241 62.3316 120.144Z" fill="#FFBFA1"/>
<path d="M60.4665 116.79C60.4665 116.79 60.0609 118.489 61.0088 119.398C61.9568 120.307 63.6058 119.808 63.8395 119.605C64.0732 119.402 64.8492 117.986 64.1305 117.333C63.4118 116.68 62.4638 117.395 62.4638 117.395C62.4638 117.395 61.8995 117.876 61.7143 117.849C61.5335 117.818 61.1191 117.209 61.2602 116.128C61.269 116.071 61.3175 116.022 61.3748 116.013C61.5953 115.982 62.1067 115.802 62.0758 114.72C62.0714 114.632 62.1464 114.557 62.2346 114.562C62.5432 114.575 63.1825 114.601 63.3192 114.641C63.3192 114.641 63.4206 114.659 63.5176 114.698C63.5485 114.712 63.5749 114.738 63.5838 114.769C63.6146 114.875 63.6808 115.113 63.6984 115.171C63.7204 115.246 63.8836 115.779 63.8836 115.779C63.8836 115.779 64.0511 115.678 64.0511 115.484C64.0511 115.29 63.9762 114.87 64.0114 114.773C64.0467 114.676 64.3245 114.61 64.3686 114.385C64.47 113.882 64.6728 111.927 63.0679 112.849C62.8563 112.969 62.6623 113.127 62.4903 113.163C62.2654 113.207 62.0626 112.999 61.6041 112.951C60.9648 112.88 58.1165 113.079 58.456 115.921C58.7955 118.767 60.1491 119.416 60.1491 119.416C60.1491 119.416 60.127 117.081 60.4665 116.79Z" fill="black"/>
<path d="M60.4666 116.79C60.4666 116.79 60.4225 116.305 60.0521 116.371C59.5539 116.463 59.3378 117.77 60.3872 117.787C60.3828 117.787 60.3519 117.231 60.4666 116.79Z" fill="#FFBFA1"/>
<path fill-rule="evenodd" clip-rule="evenodd" d="M65.7093 121.846C64.8276 120.868 64.211 120.785 62.8019 120.596C62.674 120.579 62.5395 120.56 62.3977 120.541C61.7452 121.304 60.2769 120.744 60.2769 120.744C58.638 120.68 57.8816 121.729 57.5902 122.41C60.0679 124.087 63.4298 123.899 65.7093 121.846Z" fill="#FD5742"/>
</g>
<defs>
<clipPath id="clip0">
<rect width="188" height="160" fill="white" transform="translate(0 0.47998)"/>
</clipPath>
</defs>
</svg>
