<svg width="35" height="35" viewBox="0 0 35 35" fill="none" xmlns="http://www.w3.org/2000/svg">
<path d="M35.0002 19.8778V21.8617C35.0002 22.5067 34.3667 23.0293 33.5849 23.0293H26.5975C25.8157 23.0293 25.1822 22.5067 25.1822 21.8617V19.8778C25.1822 19.3122 25.6694 18.841 26.3165 18.7334V16.5001C26.3165 16.1016 25.9234 15.7773 25.4404 15.7773H25.1528C23.8511 17.7103 21.3959 18.9209 18.6571 18.9209C15.9183 18.9209 13.4633 17.7103 12.1614 15.7773H1.41526C0.633471 15.7773 0 15.2547 0 14.6097V10.7543C0 10.1093 0.633471 9.58668 1.41526 9.58668H12.3069C13.2029 8.37692 14.5753 7.47182 16.1662 7.00371V5.55374C16.1662 5.47372 16.1761 5.39573 16.1947 5.32023H12.3956C11.6138 5.32023 10.9803 4.79762 10.9803 4.15266V2.4807C10.9803 1.83573 11.6138 1.31313 12.3956 1.31313H16.1661V1.16757C16.1661 0.522604 16.7995 0 17.5813 0H19.7325C20.5143 0 21.1478 0.522604 21.1478 1.16757V1.31313H24.9184C25.7002 1.31313 26.3337 1.83573 26.3337 2.4807V4.15266C26.3337 4.79762 25.7002 5.32023 24.9184 5.32023H21.1193C21.1378 5.39573 21.1478 5.47372 21.1478 5.55374V7.00371C22.7387 7.47182 24.1111 8.37677 25.0071 9.58668H27.7316C31.0638 9.58668 33.7749 11.8231 33.7749 14.5722V18.7219C34.4667 18.7986 35.0002 19.2862 35.0002 19.8778ZM33.5277 31.0893C33.5107 31.0191 33.4862 30.9512 33.4547 30.8861L31.3507 25.3563C31.1657 24.8695 30.6187 24.5384 30.0005 24.5384C29.3823 24.5384 28.8353 24.8695 28.6504 25.3563L26.515 30.9686C26.5043 30.9966 26.495 31.0248 26.4871 31.0532C26.3739 31.3492 26.3169 31.6539 26.3169 31.9609C26.3169 33.6367 27.9695 35 30.0007 35C32.0319 35 33.6845 33.6366 33.6845 31.9609C33.6843 31.6665 33.6315 31.3742 33.5277 31.0893Z" fill="#027C8A"/>
</svg>
