<svg width="12" height="13" viewBox="0 0 12 13" fill="none" xmlns="http://www.w3.org/2000/svg">
<path d="M9.95454 4.0625C8.82714 4.0625 7.90908 3.15141 7.90908 2.03125C7.90908 0.911087 8.82714 0 9.95454 0C11.082 0 12 0.911087 12 2.03125C12 3.15141 11.082 4.0625 9.95454 4.0625ZM9.95454 0.8125C9.27818 0.8125 8.72726 1.35899 8.72726 2.03125C8.72726 2.70351 9.27818 3.25 9.95454 3.25C10.6309 3.25 11.1818 2.70351 11.1818 2.03125C11.1818 1.35899 10.6309 0.8125 9.95454 0.8125Z" fill="black"/>
<path d="M9.95454 13C8.82714 13 7.90908 12.0889 7.90908 10.9688C7.90908 9.84859 8.82714 8.9375 9.95454 8.9375C11.082 8.9375 12 9.84859 12 10.9688C12 12.0889 11.082 13 9.95454 13ZM9.95454 9.75C9.27818 9.75 8.72726 10.2965 8.72726 10.9688C8.72726 11.641 9.27818 12.1875 9.95454 12.1875C10.6309 12.1875 11.1818 11.641 11.1818 10.9688C11.1818 10.2965 10.6309 9.75 9.95454 9.75Z" fill="black"/>
<path d="M2.04546 8.53125C0.91796 8.53125 0 7.62016 0 6.5C0 5.37984 0.91796 4.46875 2.04546 4.46875C3.17296 4.46875 4.09092 5.37984 4.09092 6.5C4.09092 7.62016 3.17296 8.53125 2.04546 8.53125ZM2.04546 5.28125C1.3691 5.28125 0.818184 5.82774 0.818184 6.5C0.818184 7.17226 1.3691 7.71875 2.04546 7.71875C2.72182 7.71875 3.27274 7.17226 3.27274 6.5C3.27274 5.82774 2.72182 5.28125 2.04546 5.28125Z" fill="black"/>
<path d="M3.46969 6.10456C3.32727 6.10456 3.18874 6.03087 3.11403 5.89985C3.00217 5.70486 3.07039 5.4567 3.26674 5.34572L8.32806 2.48025C8.52382 2.36817 8.77421 2.43641 8.88547 2.632C8.99733 2.82699 8.92911 3.07504 8.73276 3.18613L3.67144 6.0515C3.60762 6.0872 3.53841 6.10456 3.46969 6.10456Z" fill="black"/>
<path d="M8.53041 10.5733C8.46169 10.5733 8.39238 10.556 8.32856 10.5198L3.26724 7.65428C3.07089 7.5433 3.00277 7.29514 3.11453 7.10015C3.22579 6.90466 3.47568 6.83692 3.67204 6.9485L8.73326 9.81387C8.92961 9.92496 8.99783 10.173 8.88607 10.368C8.81076 10.4996 8.67223 10.5733 8.53041 10.5733Z" fill="black"/>
</svg>
