<svg width="22" height="20" viewBox="0 0 22 20" fill="none" xmlns="http://www.w3.org/2000/svg">
<path fill-rule="evenodd" clip-rule="evenodd" d="M12.0269 8.51579C12.6828 8.77674 13.3099 9.11829 13.8968 9.53745C14.3216 9.84058 14.4256 10.4388 14.1295 10.8735C13.8332 11.3082 13.2489 11.4149 12.8243 11.1116C11.6389 10.2652 10.2451 9.81771 8.79378 9.81771C5.67457 9.81771 2.84888 11.8773 1.92236 14.8265C1.82971 15.1219 1.87879 15.4352 2.05731 15.686C2.23584 15.9368 2.51197 16.0806 2.81501 16.0806H10.9704C11.488 16.0806 11.9077 16.5102 11.9077 17.0402C11.9077 17.5703 11.488 18 10.9704 18H2.81501C1.90607 18 1.0777 17.5687 0.542295 16.8166C0.00689328 16.0643 -0.140507 15.1247 0.137814 14.2388C0.977172 11.5671 3.03894 9.47221 5.58174 8.49685C4.63068 7.60173 4.03358 6.31818 4.03358 4.89423C4.03358 2.19554 6.1783 0 8.81429 0C10.8217 0 12.5438 1.27323 13.2511 3.0723C13.5727 3.91854 13.6266 4.40284 13.5789 5.29333C13.4782 6.56657 12.8994 7.7039 12.0269 8.51579ZM11.7202 4.89423C11.7202 3.25395 10.4167 1.91923 8.81429 1.91923C7.21193 1.91923 5.9084 3.25395 5.9084 4.89423C5.9084 6.5347 7.21193 7.86924 8.81429 7.86924C10.4167 7.86924 11.7202 6.5347 11.7202 4.89423Z" fill="#414141"/>
<path d="M20.2914 16.5474L18.4253 18.4135C18.0504 18.7884 17.4499 18.7954 17.0838 18.4294C16.7177 18.0632 16.7247 17.4627 17.0996 17.0878L18.9657 15.2217L17.143 13.3989C16.7769 13.0329 16.784 12.4323 17.1587 12.0576C17.5336 11.6827 18.1342 11.6757 18.5002 12.0417L20.3229 13.8644L21.6465 15.2139L20.2914 16.5474Z" fill="#414141"/>
<path d="M17.5991 15.8748L14.9601 15.8748C14.4299 15.8748 14.0003 15.4551 14.0003 14.9375C14.0003 14.4197 14.4299 14 14.9601 14L17.5991 14L19.5186 14L19.5003 15.8901L17.5991 15.8748Z" fill="#414141"/>
</svg>
