<svg width="125" height="160" viewBox="0 0 125 160" fill="none" xmlns="http://www.w3.org/2000/svg">
<g clip-path="url(#clip0)">
<path d="M59.5664 131.233C59.5664 131.233 39.7343 143.513 31.0081 130.043C22.2818 116.573 29.4203 112.616 20.694 109.05C11.9677 105.484 -4.69306 101.127 -3.89703 93.9989C-3.10529 86.8709 6.41701 80.1382 6.41701 69.8393C6.41701 59.5404 -4.64143 36.9232 3.99448 29.2195C12.6304 21.5157 18.7147 29.8339 28.6329 21.52C38.551 13.2018 43.7059 1.32182 55.2075 0.52695C66.7092 -0.267917 67.1094 9.2404 75.8356 12.8066C84.5619 16.3727 100.427 5.67854 110.741 13.5971C121.055 21.52 118.279 42.5088 117.879 65.4826C117.483 88.4563 135.194 104.487 126.106 111.464C117.014 118.438 64.3297 115.387 59.5664 131.233Z" fill="#EDEDED"/>
<path d="M27.8517 45.3665C27.8517 45.7386 27.5499 46.0384 27.1829 46.0384C26.8124 46.0384 26.514 45.7352 26.514 45.3665C26.514 44.9978 26.8159 44.6946 27.1829 44.6946C27.5533 44.6946 27.8517 44.9944 27.8517 45.3665Z" stroke="#FD5742" stroke-miterlimit="10"/>
<path d="M25.8143 1.32413C25.8143 1.69626 25.5124 1.99603 25.1454 1.99603C24.775 1.99603 24.4766 1.69281 24.4766 1.32413C24.4766 0.951994 24.7784 0.652222 25.1454 0.652222C25.5159 0.652222 25.8143 0.95544 25.8143 1.32413Z" stroke="#FD5742" stroke-miterlimit="10"/>
<path d="M59.034 3.43631C59.034 3.80844 58.7322 4.10821 58.3651 4.10821C57.9981 4.10821 57.6963 3.80499 57.6963 3.43631C57.6963 3.06418 57.9981 2.7644 58.3651 2.7644C58.7322 2.7644 59.034 3.06418 59.034 3.43631Z" fill="#FD5742"/>
<path d="M17.7778 23.1076C17.7778 23.4797 17.4759 23.7795 17.1089 23.7795C16.7385 23.7795 16.4401 23.4763 16.4401 23.1076C16.4401 22.7355 16.7419 22.4357 17.1089 22.4357C17.4759 22.4323 17.7778 22.7355 17.7778 23.1076Z" fill="#FD5742"/>
<path d="M125 44.8773C125 45.2494 124.698 45.5492 124.331 45.5492C123.961 45.5492 123.662 45.2459 123.662 44.8773C123.662 44.5086 123.964 44.2054 124.331 44.2054C124.698 44.2019 125 44.5051 125 44.8773Z" fill="#FD5742"/>
<path d="M106.711 20.7922C107.081 20.7922 107.38 20.4914 107.38 20.1203C107.38 19.7492 107.081 19.4484 106.711 19.4484C106.342 19.4484 106.042 19.7492 106.042 20.1203C106.042 20.4914 106.342 20.7922 106.711 20.7922Z" stroke="#FD5742" stroke-miterlimit="10"/>
<path d="M14.7354 99.2635C14.6394 99.2635 14.5605 99.1843 14.5605 99.0878V97.8508C14.5605 97.7543 14.6394 97.675 14.7354 97.675C14.8315 97.675 14.9103 97.7543 14.9103 97.8508V99.0878C14.9103 99.1877 14.8315 99.2635 14.7354 99.2635Z" fill="#FD5742"/>
<path d="M15.3528 98.6467H14.1214C14.0254 98.6467 13.9465 98.5675 13.9465 98.471C13.9465 98.3745 14.0254 98.2953 14.1214 98.2953H15.3528C15.4488 98.2953 15.5277 98.3745 15.5277 98.471C15.5277 98.5675 15.4488 98.6467 15.3528 98.6467Z" fill="#FD5742"/>
<path d="M0.792362 57.292C0.696322 57.292 0.617432 57.2127 0.617432 57.1162V55.8792C0.617432 55.7827 0.696322 55.7035 0.792362 55.7035C0.888403 55.7035 0.967293 55.7827 0.967293 55.8792V57.1162C0.967293 57.2127 0.888403 57.292 0.792362 57.292Z" fill="#FD5742"/>
<path d="M1.40631 56.6716H0.174931C0.0788903 56.6716 0 56.5924 0 56.4959C0 56.3994 0.0788903 56.3202 0.174931 56.3202H1.40631C1.50235 56.3202 1.58124 56.3994 1.58124 56.4959C1.58124 56.5924 1.50235 56.6716 1.40631 56.6716Z" fill="#FD5742"/>
<path d="M97.4364 8.69441C97.3404 8.69441 97.2615 8.61516 97.2615 8.51868V7.28169C97.2615 7.18521 97.3404 7.10596 97.4364 7.10596C97.5325 7.10596 97.6113 7.18521 97.6113 7.28169V8.51868C97.6079 8.61516 97.5325 8.69441 97.4364 8.69441Z" fill="#FD5742"/>
<path d="M98.0504 8.07424H96.819C96.723 8.07424 96.6441 7.99499 96.6441 7.89851C96.6441 7.80203 96.723 7.72278 96.819 7.72278H98.0504C98.1464 7.72278 98.2253 7.80203 98.2253 7.89851C98.2253 7.99499 98.1464 8.07424 98.0504 8.07424Z" fill="#FD5742"/>
<path d="M105.301 51.5067C105.205 51.5067 105.126 51.4274 105.126 51.3309V50.0939C105.126 49.9975 105.205 49.9182 105.301 49.9182C105.397 49.9182 105.476 49.9975 105.476 50.0939V51.3309C105.476 51.4274 105.397 51.5067 105.301 51.5067Z" fill="#FD5742"/>
<path d="M105.919 50.8865H104.687C104.591 50.8865 104.513 50.8072 104.513 50.7108C104.513 50.6143 104.591 50.535 104.687 50.535H105.919C106.015 50.535 106.094 50.6143 106.094 50.7108C106.09 50.8107 106.015 50.8865 105.919 50.8865Z" fill="#FD5742"/>
<path d="M92.6824 19.5344V113.894C92.6824 114.435 92.6276 114.965 92.5247 115.475C92.4732 115.73 92.408 115.978 92.3326 116.223C92.2914 116.347 92.2503 116.471 92.2091 116.592C91.9484 117.312 91.5814 117.98 91.1321 118.583C90.9057 118.887 90.6587 119.173 90.3946 119.438C90.1305 119.703 89.8458 119.948 89.5474 120.175C89.3485 120.323 89.1392 120.465 88.9266 120.599H88.9231C88.7105 120.73 88.491 120.851 88.2646 120.961H88.2612C87.9216 121.126 87.5649 121.268 87.2013 121.381H87.1979C86.9543 121.457 86.7074 121.523 86.4535 121.574C85.9425 121.678 85.4142 121.733 84.8757 121.733H46.3464C45.777 121.733 45.2213 121.671 44.6862 121.554C44.5971 121.533 44.5113 121.516 44.4221 121.492C44.3261 121.467 44.2266 121.44 44.1306 121.412C43.7258 121.292 43.3383 121.14 42.9644 120.961C42.7757 120.868 42.5939 120.771 42.419 120.668C42.3367 120.62 42.2544 120.572 42.1755 120.52C42.004 120.413 41.8393 120.296 41.6781 120.175C41.1773 119.8 40.7246 119.362 40.3267 118.88C40.1689 118.687 40.018 118.487 39.8774 118.277C39.6681 117.963 39.4795 117.636 39.3148 117.291C39.0919 116.833 38.917 116.354 38.79 115.854V115.851C38.6288 115.224 38.5431 114.569 38.5431 113.894V19.5344C38.5431 15.2101 42.0383 11.6956 46.3498 11.6956H84.8792C89.1907 11.6956 92.6824 15.2101 92.6824 19.5344Z" fill="black"/>
<path d="M90.9674 19.5344V113.894C90.9674 114.311 90.9262 114.728 90.8439 115.134C90.8096 115.317 90.7616 115.499 90.6998 115.699L90.5867 116.034C90.4014 116.55 90.1202 117.071 89.76 117.553C89.5851 117.787 89.3896 118.015 89.1803 118.222C88.9883 118.418 88.7619 118.614 88.5115 118.804C88.3949 118.89 88.2542 118.986 88.093 119.09L88.0279 119.131C87.8941 119.214 87.7569 119.293 87.6128 119.366L87.5134 119.41C87.2767 119.527 87.0297 119.627 86.7759 119.71L86.6902 119.738C86.4878 119.8 86.2991 119.848 86.1139 119.889C85.7057 119.968 85.2907 120.01 84.8757 120.01H46.3463C45.9107 120.01 45.4751 119.965 45.0532 119.872C44.9092 119.841 44.7651 119.807 44.6279 119.765C44.3123 119.672 44.0036 119.552 43.7018 119.407C43.5577 119.334 43.4137 119.259 43.2902 119.183C43.2182 119.142 43.1633 119.111 43.1153 119.08L43.0775 119.055C42.9712 118.99 42.8511 118.907 42.7037 118.797C42.3229 118.508 41.9662 118.166 41.6472 117.78C41.5169 117.622 41.4037 117.47 41.3008 117.319C41.1327 117.067 40.9852 116.805 40.8617 116.547C40.7005 116.213 40.5702 115.872 40.4741 115.517L40.4501 115.424C40.3232 114.924 40.2581 114.411 40.2581 113.894V19.5344C40.2581 16.1645 42.9918 13.4183 46.3498 13.4183H84.8791C87.4413 13.4183 89.64 15.0206 90.5352 17.2775C90.813 17.9735 90.9674 18.7384 90.9674 19.5344Z" fill="#FD5742"/>
<path opacity="0.2" d="M92.5143 87.7379C92.5555 87.3864 92.6104 86.9695 92.6824 86.4974V93.9366C92.2845 92.7616 92.0135 91.8968 91.9655 91.5798C91.8455 90.8045 92.1679 89.1644 92.5143 87.7379Z" fill="#020202"/>
<path d="M92.6824 43.4301V32.2903C93.5468 32.2903 94.2465 32.9932 94.2465 33.8615V41.8589C94.2465 42.7272 93.5468 43.4301 92.6824 43.4301Z" fill="black"/>
<path d="M38.5705 37.8585H39.3286V32.2903H38.5705C38.1246 32.2903 37.761 32.6555 37.761 33.1035V37.0487C37.761 37.4967 38.1212 37.8585 38.5705 37.8585Z" fill="black"/>
<path d="M38.5705 44.5775H39.3286V39.0059H38.5705C38.1246 39.0059 37.761 39.3711 37.761 39.819V43.7643C37.761 44.2157 38.1212 44.5775 38.5705 44.5775Z" fill="black"/>
<path opacity="0.3" d="M78.7394 13.4183L40.2581 72.6079V43.5058L59.8194 13.4183H78.7394Z" fill="white"/>
<path opacity="0.3" d="M90.5352 17.2775L40.2581 94.605V81.1221L84.2754 13.4183H84.8791C87.4413 13.4183 89.64 15.0206 90.5352 17.2775Z" fill="white"/>
<path opacity="0.3" d="M90.9674 51.6927L46.5556 120.01H55.3227L90.9674 65.1791V51.6927Z" fill="white"/>
<path d="M71.3512 15.7787H59.8949C57.9673 15.7787 56.4066 14.2074 56.4066 12.2744H74.8429C74.8395 14.2074 73.2754 15.7787 71.3512 15.7787Z" fill="black"/>
<path d="M42.3264 54.0496L42.5665 53.0917C42.7243 52.4646 42.7106 51.8065 42.5254 51.1863L41.5306 47.8474C41.438 47.5408 41.2357 47.2823 40.9578 47.1204C40.2032 46.6828 38.7043 45.842 38.5774 45.9489C37.6616 46.7138 39.7093 48.0645 39.7093 48.0645C39.7093 48.0645 40.4982 48.9466 39.8739 49.6047C39.1639 50.3524 37.8262 48.7157 37.8262 48.7157C37.8262 48.7157 37.8983 48.5434 37.96 48.5779C37.9737 48.5848 38.2447 48.8019 38.5877 48.9604V47.6303L38.0355 47.2823C37.7679 47.1135 37.4455 47.0549 37.1368 47.1238L36.7183 47.2134C36.4474 47.272 36.2107 47.4339 36.0563 47.6648L35.6585 48.2643L35.4904 48.4918C35.3257 48.7157 35.2949 49.0086 35.4081 49.2636L35.6001 49.6874L35.336 50.0595C35.1165 50.3696 35.0651 50.7693 35.1988 51.1277L37.2431 53.9497L40.2684 58.9114L43.5441 55.3796L42.3264 54.0496Z" fill="#FFBF9D"/>
<path d="M35.9877 51.1139C35.9912 51.107 35.9191 51.0485 35.878 50.9106C35.8299 50.7762 35.8402 50.5626 35.9774 50.3869L35.9912 50.3662L35.9809 50.3421C35.9706 50.318 35.9569 50.2939 35.9466 50.2697C35.7236 49.8149 35.5281 49.4566 35.511 49.4669C35.4904 49.4772 35.655 49.8528 35.8745 50.3042C35.8883 50.3283 35.8985 50.3524 35.9088 50.3766L35.9123 50.3352C35.7579 50.5351 35.7579 50.7866 35.8265 50.9279C35.8883 51.076 35.9843 51.1277 35.9877 51.1139Z" fill="#FF9A6C"/>
<path d="M36.2381 47.4339C36.2553 47.4408 36.1044 47.6406 36.1764 48.0024C36.245 48.3539 36.4405 48.8328 36.7286 49.3083C36.8007 49.4289 36.8795 49.5495 36.9207 49.6908C36.9653 49.8321 36.955 49.9734 36.9447 50.094C36.9104 50.3386 36.931 50.5419 37.0167 50.7004C37.1848 51.0208 37.4283 51.0932 37.4146 51.1139C37.4215 51.1277 37.1471 51.0829 36.9413 50.7417C36.835 50.5763 36.8041 50.3248 36.8315 50.0836C36.8384 49.963 36.8418 49.839 36.8041 49.7253C36.7664 49.6081 36.6978 49.4944 36.6223 49.3738C36.3273 48.8811 36.1421 48.3952 36.0906 48.0128C36.0323 47.62 36.2313 47.4132 36.2381 47.4339Z" fill="#FF9A6C"/>
<path d="M37.8502 48.664C37.8194 48.6537 37.8297 48.4435 37.6959 48.2126C37.5724 47.9783 37.4352 47.7991 37.4661 47.775C37.4901 47.7543 37.6719 47.8991 37.8091 48.154C37.96 48.4159 37.8914 48.6812 37.8502 48.664Z" fill="#FF9A6C"/>
<path d="M43.448 71.0229L44.6931 72.5941L51.1689 64.7794L42.6934 53.5741L38.4985 56.8785L43.448 71.0229Z" fill="#3D3D3D"/>
<path d="M72.2567 146.624L72.7918 159.318L79.6141 159.166L79.103 146.445L72.2567 146.624Z" fill="#FD5742"/>
<path d="M76.1429 158.763C76.2012 158.76 76.0949 155.979 75.9063 152.554C75.7176 149.126 75.5221 146.352 75.4638 146.355C75.4055 146.359 75.5118 149.139 75.7005 152.564C75.8857 155.993 76.0846 158.767 76.1429 158.763Z" fill="black"/>
<path d="M72.7541 158.443L79.5798 158.267L79.6141 159.166L72.7918 159.318L72.7541 158.443Z" fill="black"/>
<path d="M79.4529 155.1C79.4632 155.094 79.4015 154.994 79.2643 154.832C79.1305 154.67 78.9178 154.446 78.6263 154.208C78.3347 153.97 77.9574 153.712 77.4909 153.519C77.0313 153.319 76.4722 153.192 75.8857 153.223C74.7058 153.281 73.7419 153.905 73.2823 154.508C73.0422 154.804 72.8982 155.08 72.8193 155.276C72.7404 155.473 72.7129 155.586 72.7267 155.59C72.7644 155.61 72.9084 155.152 73.3955 154.601C73.8654 154.049 74.7847 153.484 75.9028 153.429C77.0176 153.371 77.9643 153.894 78.544 154.325C79.1305 154.763 79.4255 155.125 79.4529 155.1Z" fill="black"/>
<g opacity="0.3">
<g opacity="0.3">
<g opacity="0.3">
<path opacity="0.3" d="M79.2505 150.066L79.3054 151.465L72.4659 151.586L72.4213 150.535L79.2505 150.066Z" fill="black"/>
</g>
</g>
</g>
<path d="M56.191 147.382L56.5237 155.111C56.5237 155.111 48.8164 158.047 48.741 159.48L63.6787 159.37L63.6512 147.306L56.191 147.382Z" fill="#FD5742"/>
<path d="M61.0405 154.456C61.3321 154.535 61.5345 154.863 61.4693 155.159C61.4041 155.455 61.0748 155.666 60.7799 155.593C60.4883 155.521 60.2311 155.135 60.3271 154.849C60.4266 154.563 60.8245 154.336 61.092 154.477" fill="#E1E1E1"/>
<path d="M63.6782 159.37L63.6748 158.164L49.2207 158.712C49.2207 158.712 48.5518 159.008 48.6307 159.483L63.6782 159.37Z" fill="black"/>
<path d="M56.3895 155.159C56.3929 155.231 56.7599 155.262 57.1235 155.497C57.4939 155.721 57.6826 156.041 57.7477 156.01C57.8164 155.996 57.7032 155.555 57.2573 155.28C56.8148 155.001 56.3723 155.094 56.3895 155.159Z" fill="black"/>
<path d="M54.8151 155.828C54.7979 155.9 55.1169 156.024 55.3707 156.334C55.6314 156.637 55.6966 156.975 55.7686 156.971C55.8372 156.982 55.8852 156.551 55.5662 156.169C55.2507 155.786 54.8185 155.759 54.8151 155.828Z" fill="black"/>
<path d="M53.9335 157.733C54.0021 157.747 54.1016 157.378 53.9095 156.975C53.7208 156.572 53.3744 156.413 53.3435 156.475C53.3024 156.537 53.5288 156.751 53.6797 157.085C53.8375 157.416 53.8615 157.726 53.9335 157.733Z" fill="black"/>
<path d="M56.5095 153.378C56.5404 153.443 56.8765 153.34 57.2915 153.367C57.7066 153.385 58.0324 153.522 58.0701 153.457C58.1113 153.402 57.7957 153.133 57.3053 153.109C56.8148 153.085 56.4718 153.323 56.5095 153.378Z" fill="black"/>
<path d="M56.2282 151.717C56.2282 151.748 56.5198 151.789 56.9828 151.707C57.2126 151.665 57.4836 151.586 57.7683 151.458C57.9089 151.393 58.0564 151.317 58.2005 151.224C58.2691 151.179 58.3514 151.135 58.4268 151.045C58.5092 150.969 58.5538 150.773 58.4577 150.652C58.3788 150.535 58.2416 150.487 58.1353 150.487C58.0255 150.483 57.9364 150.507 57.854 150.528C57.686 150.569 57.5316 150.628 57.3876 150.694C57.0994 150.828 56.8696 150.993 56.6947 151.155C56.3483 151.483 56.2316 151.758 56.2557 151.772C56.29 151.796 56.458 151.565 56.8113 151.293C56.9862 151.159 57.2126 151.017 57.4802 150.907C57.6139 150.852 57.758 150.804 57.9123 150.769C58.0701 150.725 58.2073 150.725 58.2485 150.793C58.2622 150.821 58.2656 150.831 58.2313 150.88C58.197 150.924 58.1319 150.966 58.0633 151.011C57.9295 151.1 57.7992 151.176 57.6654 151.241C57.4047 151.376 57.1543 151.465 56.9382 151.527C56.5095 151.651 56.2282 151.676 56.2282 151.717Z" fill="#1A2E35"/>
<path d="M56.3243 151.82C56.3517 151.831 56.4958 151.565 56.5163 151.086C56.5266 150.849 56.4992 150.563 56.4066 150.259C56.3586 150.108 56.2968 149.953 56.2111 149.801C56.1219 149.653 56.0121 149.453 55.7274 149.422C55.58 149.419 55.4565 149.536 55.4153 149.636C55.3673 149.739 55.357 149.825 55.3399 149.915C55.3124 150.091 55.3193 150.266 55.3433 150.425C55.3913 150.745 55.5251 151.014 55.6691 151.203C55.9675 151.593 56.2728 151.679 56.2797 151.655C56.3037 151.617 56.0464 151.476 55.8201 151.104C55.7069 150.917 55.6074 150.676 55.5765 150.394C55.5594 150.252 55.5628 150.104 55.5868 149.956C55.6108 149.794 55.6691 149.667 55.7274 149.68C55.8029 149.677 55.9298 149.798 55.9916 149.925C56.0704 150.06 56.1322 150.197 56.1802 150.335C56.2762 150.607 56.3208 150.869 56.3311 151.09C56.362 151.534 56.2831 151.81 56.3243 151.82Z" fill="#1A2E35"/>
<g opacity="0.3">
<g opacity="0.3">
<g opacity="0.3">
<path opacity="0.3" d="M63.6817 151.941L63.6645 153.657H56.4615V152.099L63.6817 151.941Z" fill="black"/>
</g>
</g>
</g>
<path d="M87.8324 23.3384L88.906 27.5008C88.906 27.5008 89.3039 29.8025 88.2337 29.7991C87.2904 29.7956 87.2013 28.5621 87.2013 28.5621C87.2013 28.5621 87.6677 26.0433 86.4364 26.1811C86.2649 26.2018 85.8155 27.9384 85.596 28.8239C85.5171 29.1478 85.5617 29.4889 85.7264 29.7784L87.5031 32.938C87.8324 33.5238 88.316 34.0097 88.8991 34.3439L89.7909 34.8538L89.9041 36.7317L94.9085 36.811L93.3822 30.9499L92.7476 27.3733C92.5795 27.015 92.2434 26.7634 91.8524 26.7048L91.3825 26.6325L91.2041 26.1811C91.0978 25.9123 90.8542 25.7228 90.5695 25.6884L90.278 25.6505L89.8664 24.634C89.7292 24.2963 88.7482 22.0808 88.3881 22.0877C88.3846 22.0911 87.5683 22.3116 87.8324 23.3384Z" fill="#FFBF9D"/>
<path d="M91.403 28.3795C91.3859 28.3795 91.3996 28.1968 91.307 27.9212C91.2212 27.6421 91.0051 27.3182 90.6278 27.0494C90.4186 26.6291 90.3225 26.2466 90.2505 25.9572C90.1888 25.6677 90.1888 25.4851 90.1991 25.4851C90.2128 25.4851 90.2334 25.6643 90.3088 25.9434C90.3877 26.2156 90.5112 26.6222 90.693 26.9943C90.7685 27.0598 90.8542 27.1218 90.9365 27.1976C91.0154 27.27 91.084 27.3492 91.1389 27.4319C91.2521 27.5939 91.3241 27.7592 91.3618 27.904C91.403 28.0487 91.4133 28.1693 91.4133 28.252C91.4167 28.3347 91.4064 28.3795 91.403 28.3795Z" fill="#FF9A6C"/>
<path d="M92.1645 27.9557C92.1543 27.9557 92.1645 27.8592 92.0891 27.7248C92.0239 27.5939 91.8558 27.4457 91.6226 27.4216L91.5986 27.4181L91.5883 27.394C91.578 27.3699 91.5677 27.3423 91.5609 27.3148C91.3825 26.822 91.2522 26.412 91.2762 26.4051C91.2967 26.3982 91.4614 26.791 91.6398 27.2872C91.65 27.3148 91.6603 27.3423 91.6672 27.3665L91.6329 27.3389C91.8936 27.3665 92.0822 27.5491 92.1405 27.7007C92.2091 27.8557 92.1783 27.9626 92.1645 27.9557Z" fill="#FF9A6C"/>
<path d="M62.7076 48.099L71.7834 47.9819L70.7715 40.2188C70.7715 40.2188 71.3924 40.0844 71.4335 36.7077C71.4747 33.3309 71.629 27.5939 71.629 27.5939C67.736 25.9124 63.2461 26.4809 59.8881 29.0755L59.3907 29.4614L62.7076 48.099Z" fill="#FFBF9D"/>
<path d="M60.4437 33.6168C60.3854 33.5927 58.1354 32.9311 58.2074 35.2397C58.2794 37.5483 60.5741 36.997 60.5741 36.9316C60.5741 36.8661 60.4437 33.6168 60.4437 33.6168Z" fill="#FFBF9D"/>
<path d="M71.238 33.1344C71.2963 33.1103 73.344 32.5555 73.272 34.8641C73.2 37.1727 70.9053 36.6214 70.9053 36.5559C70.9019 36.4904 71.238 33.1344 71.238 33.1344Z" fill="#FFBF9D"/>
<path d="M59.696 33.3584C60.039 35.2915 59.9704 36.3114 60.2894 37.6C60.7936 39.6433 61.802 41.2111 63.6371 42.2345C65.4721 43.2544 67.952 43.2371 69.5264 41.8485C70.6206 40.8838 71.3958 39.7949 71.557 38.3409C71.7182 36.8868 71.8828 34.3163 71.8931 32.8554C71.9103 30.2194 72.0886 27.7007 72.0886 27.7007L64.5906 26.3362L60.3237 28.886L59.696 33.3584Z" fill="black"/>
<path d="M67.4307 43.4026C67.441 43.4577 66.851 43.6024 66.117 43.5197C65.3795 43.4405 64.8376 43.1683 64.8616 43.12C64.8822 43.0614 65.4378 43.2372 66.141 43.313C66.8441 43.3888 67.4204 43.3405 67.4307 43.4026Z" fill="#1A2E35"/>
<path d="M60.0596 36.649C59.8401 34.6678 59.696 32.3971 59.3907 30.309C59.2741 29.5234 58.9963 28.3932 59.0649 27.6042C59.1335 26.8117 59.2089 25.9985 59.5588 25.2818C59.9944 24.3859 60.8622 23.7106 61.8363 23.5142C62.8105 23.3178 63.8703 23.6003 64.6181 24.2584C65.1634 23.4384 66.2336 23.0111 67.1906 23.2351C68.1476 23.4556 68.9227 24.3136 69.0531 25.2921C69.5847 24.7822 70.4662 24.6857 71.0974 25.0716C71.7251 25.4541 72.0475 26.2845 71.8451 26.9943C72.3836 27.0839 72.8673 27.4594 73.0868 27.9625C73.3063 28.4656 73.2583 29.0755 72.9599 29.5337C72.6134 30.0712 71.9857 30.3676 71.6016 30.8775C71.1591 31.4667 71.1145 32.3282 71.485 32.9622" fill="black"/>
<path d="M70.4696 29.4855C70.4765 29.4889 70.4594 29.5681 70.3873 29.7025C70.3153 29.8335 70.1815 30.023 69.9517 30.1953C69.7253 30.3641 69.3858 30.5191 68.9776 30.5054C68.5763 30.495 68.1132 30.3227 67.7771 29.9403L67.9349 29.8955C67.856 30.3951 67.4581 30.8499 66.9333 31.0498C66.4119 31.2772 65.7431 31.1876 65.2423 30.8361C64.7793 30.5226 64.4603 30.0574 64.2922 29.5854L64.474 29.606C64.0658 30.2263 63.3798 30.5295 62.7761 30.5398C62.1587 30.5571 61.6545 30.2642 61.3492 29.9541C61.0371 29.6371 60.8931 29.2994 60.8313 29.072C60.7696 28.8377 60.7799 28.7067 60.7867 28.7067C60.8039 28.7033 60.8176 28.8342 60.8965 29.0513C60.9754 29.2649 61.1297 29.5785 61.4384 29.861C61.7403 30.1436 62.2102 30.3917 62.7693 30.3641C63.3181 30.3434 63.9423 30.0505 64.3025 29.4958L64.4122 29.3235L64.4843 29.5165C64.6421 29.9506 64.9405 30.3779 65.3624 30.6639C65.8186 30.9809 66.3948 31.0601 66.8613 30.8637C67.3312 30.688 67.6845 30.2917 67.7599 29.8679L67.7942 29.675L67.9177 29.8231C68.2058 30.1677 68.6243 30.3365 68.9879 30.3572C69.3583 30.3813 69.6739 30.2538 69.8968 30.1091C70.3427 29.799 70.4456 29.4648 70.4696 29.4855Z" fill="#3D3D3D"/>
<path d="M70.4559 28.569C70.4182 28.5759 70.4628 28.1934 70.137 27.7282C69.9757 27.5043 69.7082 27.2803 69.348 27.1941C68.9948 27.108 68.5523 27.1631 68.2059 27.4147L68.0241 27.5456L68.0446 27.3182C68.0618 27.1046 68.0378 26.8737 67.9692 26.6532C67.808 26.1605 67.4513 25.7608 67.0465 25.5747C66.6418 25.3817 66.2096 25.3886 65.8769 25.4713C65.1977 25.6505 64.9268 26.0571 64.9028 26.0226C64.8925 26.0157 64.9439 25.9124 65.088 25.7642C65.232 25.6195 65.479 25.4334 65.8357 25.3266C66.189 25.2198 66.6624 25.1888 67.1254 25.3955C67.585 25.5954 67.9898 26.033 68.1681 26.5843C68.247 26.8324 68.2745 27.0873 68.2504 27.332L68.0858 27.2389C68.4974 26.9495 68.9982 26.9013 69.3926 27.0115C69.8008 27.1183 70.0889 27.3906 70.2467 27.6421C70.4114 27.9005 70.4628 28.1452 70.4765 28.3071C70.4902 28.4794 70.4662 28.569 70.4559 28.569Z" fill="#3D3D3D"/>
<path d="M65.6745 28.6344C65.647 28.6206 65.6813 28.5034 65.6676 28.3174C65.6573 28.1313 65.5853 27.8832 65.4344 27.6351C65.2835 27.3974 65.1051 27.1527 65.0022 27.0218C64.8856 26.9012 64.7792 26.9874 64.7621 26.9736C64.7518 26.9701 64.7484 26.9219 64.8101 26.8805C64.865 26.8392 64.9919 26.8289 65.0914 26.9047C65.1908 26.977 65.2594 27.07 65.3521 27.1665C65.4378 27.2699 65.5304 27.387 65.6127 27.5249C65.7842 27.7971 65.846 28.1072 65.8151 28.3208C65.7911 28.5413 65.6985 28.6482 65.6745 28.6344Z" fill="#3D3D3D"/>
<path d="M61.2292 25.7332C61.2052 25.7263 61.2292 25.554 61.3698 25.3128C61.4419 25.1957 61.5482 25.0578 61.7128 24.951C61.8741 24.8442 62.1004 24.7856 62.3234 24.8166C62.7761 24.8821 63.0677 25.1853 63.2323 25.3886C63.4004 25.6022 63.4759 25.747 63.4553 25.7676C63.4313 25.7883 63.3112 25.6712 63.1226 25.492C62.9339 25.3162 62.6595 25.0751 62.2925 25.0268C61.9289 24.9682 61.6442 25.2025 61.4899 25.3989C61.3321 25.5953 61.2601 25.747 61.2292 25.7332Z" fill="#3D3D3D"/>
<path d="M62.3955 35.5257C62.3509 35.5568 61.905 34.9365 61.6031 34.0545C61.2979 33.1724 61.2704 32.4074 61.3253 32.404C61.387 32.3971 61.5037 33.1276 61.8021 33.9855C62.0936 34.8401 62.4503 35.4913 62.3955 35.5257Z" fill="#3D3D3D"/>
<path d="M63.4038 36.0771C63.3524 36.1012 63.078 35.643 62.8482 35.0296C62.6149 34.4163 62.5189 33.8891 62.5738 33.8719C62.6321 33.8547 62.8139 34.3508 63.0437 34.9538C63.2701 35.5603 63.4553 36.053 63.4038 36.0771Z" fill="#3D3D3D"/>
<path d="M69.7185 36.2356C69.77 36.2252 69.8729 37.1831 69.4613 38.2651C69.0565 39.3539 68.3499 40.0017 68.3191 39.9603C68.2676 39.919 68.8816 39.2333 69.2658 38.1927C69.6602 37.1555 69.6534 36.2321 69.7185 36.2356Z" fill="#3D3D3D"/>
<path d="M70.7269 34.5506C70.7749 34.5264 71.0665 35.35 70.8744 36.3768C70.6926 37.407 70.1301 38.0755 70.0958 38.0341C70.0409 37.9997 70.4971 37.314 70.6686 36.3389C70.8504 35.3672 70.6618 34.5643 70.7269 34.5506Z" fill="#3D3D3D"/>
<path d="M67.8217 98.1954L70.0306 119.565L71.6119 151.751H80.0668L80.2967 83.2516L56.0911 84.9848L51.0729 120.926L55.4188 152.382H64.697L62.5223 122.474L67.8217 98.1954Z" fill="black"/>
<path d="M67.8217 98.1954C67.8594 98.2402 67.1254 98.9672 66.1787 99.8252C65.2321 100.683 64.4329 101.341 64.3951 101.296C64.3574 101.252 65.0914 100.525 66.0415 99.6667C66.9848 98.8122 67.784 98.1506 67.8217 98.1954Z" fill="#3D3D3D"/>
<path d="M67.7977 97.7682C67.7394 97.7647 67.7874 96.5381 67.8423 95.0254C67.9006 93.5128 67.9418 92.2861 68.0001 92.2861C68.0584 92.2861 68.1098 93.5162 68.0515 95.0323C67.9966 96.5484 67.856 97.7716 67.7977 97.7682Z" fill="#3D3D3D"/>
<path d="M70.5931 89.7915C70.5897 89.788 70.6343 89.7846 70.7303 89.7777C70.8435 89.7708 70.9807 89.7639 71.1488 89.7536C71.5432 89.7329 72.0817 89.7088 72.754 89.6743C74.1741 89.6158 76.1497 89.5331 78.4856 89.4331L78.585 89.4297V89.5296C78.5885 91.3248 78.5919 93.3577 78.5953 95.5078V95.6215V95.6939L78.5302 95.7215C77.2302 96.2452 75.9782 96.7483 74.8017 97.2203L74.7674 97.2341L74.7331 97.2203C73.5532 96.8103 72.4453 96.4209 71.4369 96.0695L71.3854 96.0522L71.3786 96.0006C71.1385 94.1365 70.9361 92.5825 70.7921 91.4661C70.7303 90.9458 70.6789 90.5289 70.6411 90.2187C70.6 89.9328 70.5863 89.7846 70.5931 89.7915C70.5965 89.7949 70.6068 89.8363 70.6206 89.9121C70.6377 90.0051 70.6549 90.1154 70.6789 90.2498C70.7269 90.5633 70.7955 90.9837 70.8778 91.5109C71.0424 92.61 71.2723 94.1365 71.5467 95.973L71.4883 95.9006C72.5002 96.2452 73.6115 96.6242 74.7949 97.0274L74.7263 97.0308C75.9028 96.5553 77.1547 96.0454 78.4513 95.5216L78.3861 95.6181V95.5044C78.3895 93.3577 78.393 91.3214 78.3964 89.5262L78.4959 89.6226C76.1875 89.6812 74.2324 89.7295 72.8261 89.7639C72.1435 89.7777 71.5981 89.7846 71.1968 89.7949C71.0219 89.7949 70.8744 89.7984 70.7578 89.7984C70.6514 89.7949 70.5965 89.7949 70.5931 89.7915Z" fill="#3D3D3D"/>
<path d="M58.3892 89.8948C58.3857 89.8913 58.4269 89.8879 58.5127 89.881C58.6156 89.8776 58.739 89.8707 58.89 89.8638C59.2467 89.8534 59.7337 89.8362 60.3409 89.819C61.6305 89.788 63.4279 89.7466 65.5682 89.6984L65.6642 89.6949L65.6608 89.7914C65.6025 91.5659 65.5373 93.6092 65.4687 95.7869L65.4653 95.842L65.4207 95.873C65.2286 96.0005 65.0228 96.1349 64.817 96.2693C63.7537 96.9653 62.7281 97.6372 61.7506 98.2781L61.6957 98.3125L61.6408 98.2781C60.3957 97.5166 59.233 96.8068 58.1868 96.1659L58.1422 96.1383L58.1456 96.0866C58.2108 94.2225 58.2657 92.672 58.3034 91.559C58.3274 91.0387 58.3446 90.6253 58.3583 90.3152C58.372 90.0361 58.3823 89.8879 58.3892 89.8948C58.3926 89.8982 58.396 89.9396 58.396 90.0188C58.396 90.1119 58.396 90.2221 58.396 90.3565C58.3926 90.6701 58.3892 91.0939 58.3857 91.6211C58.3686 92.7202 58.348 94.257 58.3171 96.097L58.276 96.0212C59.3256 96.6552 60.4918 97.3581 61.7437 98.1092L61.6374 98.1127C62.6115 97.4718 63.6371 96.7964 64.7004 96.1004C64.9062 95.966 65.112 95.8282 65.3041 95.7042L65.2561 95.7903C65.335 93.6126 65.4104 91.5694 65.4722 89.7949L65.5648 89.8913C63.445 89.9017 61.6683 89.912 60.3923 89.9189C59.7783 89.9189 59.2844 89.9155 58.9208 89.9155C58.763 89.912 58.6327 89.912 58.5264 89.9086C58.4406 89.9017 58.3926 89.8982 58.3892 89.8948Z" fill="#3D3D3D"/>
<path d="M77.6864 99.5771C77.683 99.6047 77.2474 99.5944 76.5408 99.5427C75.8342 99.491 74.8635 99.3945 73.7934 99.2532C72.7232 99.112 71.756 98.9569 71.0631 98.826C70.3668 98.695 69.9415 98.5951 69.9449 98.5676C69.9483 98.54 70.384 98.5882 71.0837 98.6778C71.852 98.7812 72.785 98.9052 73.8174 99.043C74.8498 99.174 75.7862 99.2946 76.5545 99.3911C77.2543 99.4841 77.6864 99.5461 77.6864 99.5771Z" fill="#3D3D3D"/>
<path d="M77.4874 123.4C77.4977 123.404 77.4531 123.524 77.2885 123.669C77.1239 123.81 76.822 123.966 76.4241 123.966C76.0263 123.979 75.5632 123.797 75.1619 123.48C74.7572 123.163 74.3901 122.746 74.0094 122.312C73.2548 121.43 72.6717 120.551 72.2978 119.893C71.924 119.231 71.7387 118.8 71.7628 118.787C71.7902 118.773 72.02 119.18 72.4247 119.814C72.8295 120.448 73.4229 121.302 74.1706 122.174C74.5445 122.604 74.9046 123.021 75.2819 123.328C75.6558 123.635 76.0674 123.81 76.4276 123.817C76.7912 123.835 77.0724 123.717 77.2405 123.607C77.4051 123.487 77.4737 123.39 77.4874 123.4Z" fill="#3D3D3D"/>
<path d="M60.7902 124.148C60.8005 124.152 60.7764 124.258 60.677 124.42C60.5775 124.582 60.3889 124.799 60.0939 124.978C59.7989 125.154 59.3942 125.289 58.9345 125.285C58.4749 125.282 57.981 125.12 57.5385 124.841C56.6433 124.269 56.1596 123.414 55.8578 122.828C55.5594 122.225 55.4153 121.839 55.4393 121.826C55.4668 121.812 55.6589 122.181 55.9881 122.756C56.3209 123.321 56.8079 124.127 57.6517 124.661C58.0667 124.923 58.5229 125.078 58.9414 125.092C59.3633 125.106 59.7406 124.999 60.0253 124.851C60.5981 124.544 60.7559 124.124 60.7902 124.148Z" fill="#3D3D3D"/>
<path d="M61.3287 120.926C61.3424 120.947 61.092 121.133 60.6359 121.333C60.1797 121.533 59.5039 121.722 58.7391 121.757C57.9742 121.788 57.2847 121.653 56.8148 121.491C56.3415 121.33 56.0774 121.164 56.0911 121.143C56.1117 121.078 57.2401 121.619 58.7322 121.547C60.2243 121.495 61.3047 120.861 61.3287 120.926Z" fill="#3D3D3D"/>
<path d="M88.8443 45.4975H76.5168C76.5168 45.4975 74.843 44.5293 74.0335 44.6912C73.224 44.8532 72.5209 45.7215 72.5209 45.7215L74.1501 59.3663L78.1427 56.3996L93.0049 54.8456C94.2946 54.8318 95.5191 54.2943 96.4041 53.3502C97.3645 52.3268 97.8207 50.9279 97.656 49.5324L94.9086 34.8573L89.2696 35.0434L89.0467 38.7681L88.8443 45.4975Z" fill="#3D3D3D"/>
<path d="M54.9112 48.9397C54.9112 48.9397 52.9183 50.0458 51.9339 52.4164C51.2136 54.1495 46.3053 62.8085 43.719 67.3361C42.7792 68.9831 43.0296 71.0539 44.3364 72.4253C45.9074 74.0758 47.787 73.4315 50.0817 72.6837C51.1107 72.3461 55.7378 65.2136 55.7378 65.2136L54.9112 48.9397Z" fill="#3D3D3D"/>
<path d="M57.0549 79.8783L54.2286 55.4486L54.9111 48.9397L62.1073 45.8559L71.4267 45.246L80.3001 46.2245L78.225 71.2848L80.4956 85.4155L55.6417 86.5457L57.0549 79.8783Z" fill="#3D3D3D"/>
<path d="M57.0446 79.775C56.9863 79.7819 56.3106 74.3412 55.532 67.6256C54.7534 60.9065 54.1703 55.4555 54.2286 55.4486C54.2869 55.4417 54.9626 60.8824 55.7412 67.6015C56.5164 74.3171 57.0995 79.7681 57.0446 79.775Z" fill="#1A2E35"/>
<path d="M80.1184 51.7101C80.1252 51.7101 80.1218 51.7859 80.1115 51.9306C80.0978 52.096 80.0772 52.3062 80.0566 52.5577C79.9983 53.1331 79.9194 53.9119 79.8234 54.8629C79.6279 56.8372 79.3603 59.5076 79.0653 62.464C78.7841 65.4341 78.5543 68.1252 78.4102 70.0754C78.3416 71.0264 78.2867 71.8086 78.2456 72.384C78.225 72.6356 78.2078 72.8458 78.1941 73.0111C78.1804 73.1559 78.1701 73.2282 78.1632 73.2282C78.1564 73.2282 78.153 73.1524 78.153 73.0077C78.1564 72.8389 78.1598 72.6321 78.1632 72.3771C78.1735 71.8293 78.2113 71.0402 78.2627 70.0617C78.369 68.108 78.5748 65.4135 78.8561 62.4399C79.1374 59.4697 79.4392 56.7855 79.6759 54.8422C79.7959 53.8705 79.8988 53.0883 79.9743 52.5439C80.012 52.2924 80.0429 52.0857 80.0703 51.9203C80.0944 51.7824 80.1115 51.7066 80.1184 51.7101Z" fill="#1A2E35"/>
<path d="M75.8411 76.0294C75.8514 76.0398 75.7108 76.2086 75.4467 76.5118C75.3163 76.6669 75.1517 76.8495 74.9425 77.0425C74.7332 77.2389 74.5103 77.4732 74.2256 77.6937C73.9512 77.9246 73.6425 78.1727 73.2926 78.407C72.9531 78.6619 72.5586 78.8825 72.1504 79.1271C71.3169 79.5819 70.3565 80.0092 69.307 80.3296C68.2539 80.6398 67.2181 80.8086 66.2714 80.8878C65.7981 80.9085 65.3453 80.9395 64.9234 80.9154C64.5015 80.9154 64.1105 80.8741 63.7538 80.8327C63.397 80.8051 63.0781 80.7328 62.7968 80.6845C62.5155 80.6398 62.2789 80.5777 62.0868 80.5191C61.6992 80.4123 61.49 80.3469 61.4934 80.3331C61.5037 80.2848 62.3543 80.5536 63.7675 80.6845C64.1208 80.7156 64.5084 80.7466 64.9268 80.7397C65.3453 80.7569 65.7878 80.719 66.2577 80.6914C67.1906 80.6018 68.2094 80.4296 69.2486 80.1229C70.2845 79.8059 71.2312 79.389 72.0578 78.9514C72.4626 78.7171 72.857 78.5034 73.1932 78.2588C73.5465 78.0348 73.8517 77.7971 74.133 77.5766C75.2409 76.6876 75.8068 75.9984 75.8411 76.0294Z" fill="#1A2E35"/>
<g opacity="0.3">
<g opacity="0.3">
<g opacity="0.3">
<path opacity="0.3" d="M62.7007 80.5915C61.4934 80.2435 61.4213 79.0996 61.8878 78.6069C62.3543 78.1141 63.1157 78.0521 63.788 78.1486C64.4569 78.2451 65.1189 78.469 65.7946 78.4208C66.8991 78.345 67.8286 77.5732 68.5935 76.7703C69.3618 75.9675 70.089 75.0716 71.0974 74.6099C72.1058 74.1482 73.5087 74.3101 74.0403 75.2887C74.3765 75.9089 74.2701 76.7014 73.9203 77.3182C73.5704 77.9315 73.0079 78.3932 72.4248 78.7895C69.619 80.7087 65.9935 81.4254 62.7007 80.5915Z" fill="black"/>
</g>
</g>
</g>
<path d="M77.3983 45.9971C77.4086 45.9454 78.3278 46.321 79.0138 47.2892C79.7101 48.2505 79.7753 49.2463 79.7239 49.2394C79.6587 49.2567 79.5078 48.3229 78.8423 47.4133C78.1975 46.4933 77.364 46.0522 77.3983 45.9971Z" fill="#1A2E35"/>
<path d="M76.5374 45.7215C76.534 45.7284 76.4757 45.6629 76.3316 45.5974C76.191 45.532 75.9543 45.4837 75.6628 45.5561C75.3712 45.6216 75.0385 45.7973 74.7469 46.104C74.4417 46.4003 74.1673 46.8103 73.7317 47.1411C73.296 47.4753 72.6924 47.6269 72.0612 47.6579C71.4267 47.689 70.7544 47.6235 70.0478 47.6063C68.6312 47.558 67.074 47.5718 65.4447 47.7062C62.1828 47.9715 59.2913 48.7227 57.2985 49.5117C56.3003 49.8976 55.5148 50.2732 54.9798 50.5454C54.7294 50.6763 54.5304 50.7832 54.3692 50.8693C54.2286 50.9417 54.1531 50.9761 54.1531 50.9761C54.1531 50.9761 54.2217 50.9313 54.3624 50.8521C54.5201 50.7625 54.7191 50.6522 54.966 50.5144C55.4977 50.2353 56.2763 49.8494 57.2779 49.4531C59.2673 48.6503 62.1691 47.8854 65.4379 47.62C67.0706 47.4857 68.6347 47.4719 70.0512 47.527C70.7613 47.5477 71.4335 47.6166 72.0578 47.589C72.6821 47.5649 73.2686 47.4167 73.6939 47.0963C74.1192 46.7759 74.4005 46.3693 74.7126 46.0729C75.0145 45.7628 75.3575 45.5871 75.6559 45.5251C75.9543 45.4562 76.1978 45.5113 76.3385 45.5837C76.4825 45.656 76.5374 45.7215 76.5374 45.7215Z" fill="#FAFAFA"/>
<path d="M79.3294 50.7245C79.3294 50.7314 79.2437 50.7004 79.079 50.6694C78.9144 50.6384 78.6674 50.6143 78.3519 50.6453C78.0363 50.6763 77.6556 50.7693 77.2371 50.9416C76.8187 51.1139 76.3693 51.3689 75.872 51.648C75.3746 51.9305 74.8052 52.2096 74.1535 52.3888C73.5053 52.5714 72.7884 52.6748 72.0338 52.7333C70.5246 52.8264 68.8679 52.8505 67.1323 52.9849C63.6577 53.2261 60.533 53.6464 58.2794 54.0151C57.1544 54.1977 56.2454 54.37 55.6177 54.4837C55.3228 54.5389 55.0827 54.5871 54.8974 54.6216C54.7328 54.6526 54.6436 54.6629 54.6436 54.6629C54.6436 54.6629 54.7294 54.6388 54.894 54.6043C55.0792 54.5664 55.3193 54.5147 55.6143 54.4527C56.2386 54.3287 57.1475 54.1461 58.2726 53.96C60.5227 53.5775 63.6508 53.1434 67.1289 52.9022C68.8645 52.7678 70.528 52.7471 72.0304 52.6541C72.7815 52.599 73.4915 52.499 74.1364 52.3199C74.7812 52.1441 75.3438 51.8719 75.8445 51.5928C76.3453 51.3172 76.7981 51.0656 77.22 50.8968C77.6419 50.728 78.0295 50.6384 78.3484 50.6108C78.6674 50.5833 78.9178 50.6143 79.0825 50.6487C79.2505 50.6901 79.3294 50.7245 79.3294 50.7245Z" fill="#FAFAFA"/>
<path d="M79.3912 57.6158C79.3912 57.6158 79.0791 57.7606 78.496 57.9914C77.9163 58.2223 77.0622 58.5255 75.9886 58.8287C73.8449 59.4524 70.7853 59.9865 67.3827 60.1208C63.9767 60.2587 60.8931 60.0657 58.6705 59.9141C57.5797 59.828 56.6845 59.759 56.0362 59.7074C55.7447 59.6798 55.508 59.6591 55.3194 59.6453C55.1547 59.6316 55.069 59.6178 55.069 59.6178C55.069 59.6178 55.1547 59.6178 55.3194 59.6281C55.5046 59.6419 55.7412 59.6557 56.0362 59.6764C56.6845 59.7211 57.5797 59.7797 58.6705 59.8555C60.8931 59.9934 63.9767 60.176 67.3759 60.0381C70.775 59.9038 73.8277 59.38 75.9715 58.7736C77.0451 58.4773 77.8991 58.1844 78.4822 57.9639C78.7772 57.8605 78.9967 57.764 79.1511 57.7054C79.3089 57.6434 79.3912 57.6158 79.3912 57.6158Z" fill="#FAFAFA"/>
<path d="M78.448 65.5651C78.448 65.5651 78.1564 65.6926 77.611 65.8821C77.0657 66.0716 76.2596 66.299 75.2478 66.4885C74.2359 66.6814 73.0114 66.8124 71.6463 66.8572C70.2845 66.9054 68.7856 66.8606 67.2147 66.7641C64.0796 66.5574 61.2396 66.3334 59.1816 66.4058C58.1526 66.4334 57.3225 66.4988 56.7497 66.5677C56.4616 66.5953 56.2421 66.6332 56.0911 66.6504C55.9402 66.6711 55.8613 66.6746 55.8613 66.6746C55.8613 66.6746 57.1167 66.4092 59.1782 66.3472C61.2396 66.2576 64.0865 66.4713 67.2181 66.6814C68.7856 66.7745 70.2811 66.8227 71.6394 66.7779C72.9977 66.7366 74.2188 66.6125 75.2306 66.4265C76.2425 66.2439 77.0485 66.0268 77.5939 65.8476C77.8717 65.7649 78.0775 65.6788 78.2216 65.634C78.3691 65.5857 78.448 65.5651 78.448 65.5651Z" fill="#FAFAFA"/>
<path d="M77.6796 71.719C77.6796 71.719 76.5409 72.0946 74.6544 72.5322C73.7111 72.7527 72.5792 72.9698 71.317 73.1662C70.0513 73.3522 68.6518 73.5107 67.1804 73.6038C65.7055 73.6899 64.2991 73.7002 63.0197 73.6692C61.7404 73.6279 60.5913 73.5486 59.6275 73.4418C57.7032 73.2385 56.5267 73.0008 56.5267 73.0008C56.5267 73.0008 56.6022 73.0077 56.7428 73.0249C56.9075 73.049 57.1098 73.0766 57.3602 73.111C57.8953 73.1903 58.6705 73.2868 59.6343 73.3798C60.5947 73.4763 61.7438 73.5486 63.0232 73.5865C64.2991 73.6141 65.7055 73.6003 67.1769 73.5142C68.6484 73.4211 70.0444 73.2626 71.3101 73.0835C72.5723 72.8905 73.7042 72.6803 74.6475 72.4667C75.5908 72.2565 76.3522 72.0705 76.8702 71.9257C77.1137 71.8603 77.3126 71.8086 77.4704 71.7638C77.6076 71.7328 77.6796 71.719 77.6796 71.719Z" fill="#FAFAFA"/>
<path d="M78.5337 73.9656C78.5337 73.9656 78.4616 73.9966 78.3244 74.0448C78.1632 74.1034 77.9643 74.1758 77.7173 74.2653C77.1925 74.4618 76.4414 74.765 75.5255 75.175C74.6097 75.5781 73.5293 76.0881 72.3013 76.5981C71.0768 77.1046 69.6877 77.5801 68.1785 77.8626C65.16 78.4449 62.3646 78.3657 60.3683 78.2968C59.3667 78.2554 58.5573 78.2037 57.9982 78.1658C57.7375 78.1486 57.5248 78.1314 57.3533 78.121C57.2058 78.1107 57.1304 78.1004 57.1304 78.1004C57.1304 78.1004 57.2093 78.1004 57.3568 78.1038C57.5283 78.1107 57.7409 78.121 58.0016 78.1348C58.5916 78.1589 59.3942 78.1969 60.3717 78.2382C62.368 78.2933 65.16 78.3622 68.1647 77.7799C69.6671 77.4974 71.0494 77.0253 72.2739 76.5257C73.4984 76.0226 74.5823 75.5196 75.505 75.1199C76.4242 74.7202 77.1822 74.4204 77.7105 74.2343C78.2318 74.0448 78.5337 73.9656 78.5337 73.9656Z" fill="#FAFAFA"/>
<path d="M79.7959 80.6708C79.7959 80.6708 79.5181 80.8603 78.9933 81.1601C78.4685 81.4633 77.6796 81.8526 76.6643 82.2317C74.6406 83.0104 71.6668 83.5824 68.3637 83.6409C65.0606 83.6995 62.0799 83.4376 59.9224 83.3481C58.842 83.2964 57.9708 83.2654 57.3637 83.2516C57.079 83.2447 56.8492 83.2412 56.6674 83.2378C56.5096 83.2344 56.4238 83.2275 56.4238 83.2275C56.4238 83.2275 56.5062 83.2206 56.6674 83.2206C56.8492 83.2206 57.079 83.2206 57.3637 83.2171C57.9673 83.2206 58.842 83.2412 59.9224 83.286C62.0833 83.3618 65.064 83.6168 68.3603 83.5548C71.6565 83.4962 74.6201 82.9346 76.6438 82.1731C77.659 81.801 78.4479 81.4219 78.9762 81.1291C79.2471 80.9912 79.4426 80.8603 79.5798 80.7845C79.7205 80.7087 79.7959 80.6708 79.7959 80.6708Z" fill="#FAFAFA"/>
<path d="M83.5518 55.9413C83.5484 55.9413 83.5552 55.9068 83.5724 55.8379C83.5964 55.7483 83.6204 55.6553 83.6478 55.5519C83.7199 55.3038 83.8056 54.942 83.9016 54.4907C84.0903 53.5879 84.2618 52.3199 84.2412 50.9106C84.2172 49.5013 84.0114 48.2368 83.7953 47.3409C83.689 46.893 83.5895 46.5312 83.5106 46.2865C83.4798 46.1832 83.4523 46.0901 83.4249 46.0006C83.4077 45.9351 83.3974 45.9006 83.4009 45.9006C83.4043 45.9006 83.418 45.9316 83.442 45.9971C83.4729 46.0833 83.5072 46.1763 83.5415 46.2762C83.6307 46.5209 83.737 46.8792 83.8536 47.3271C84.0869 48.223 84.303 49.491 84.327 50.9072C84.3476 52.3233 84.1658 53.5982 83.96 54.501C83.8571 54.9524 83.761 55.3142 83.6821 55.5588C83.6478 55.6622 83.6204 55.7552 83.5895 55.8414C83.5655 55.9068 83.5552 55.9413 83.5518 55.9413Z" fill="#FAFAFA"/>
<path d="M89.5234 54.4734C89.52 54.4734 89.52 54.4424 89.52 54.3804C89.5234 54.2977 89.5269 54.2115 89.5303 54.1151C89.544 53.8842 89.5509 53.5534 89.5475 53.1434C89.5406 52.3233 89.448 51.1897 89.1736 49.9665C88.8958 48.7467 88.4876 47.682 88.1412 46.9412C87.9696 46.5691 87.8187 46.2727 87.709 46.0729C87.6644 45.9902 87.6232 45.9109 87.5855 45.8386C87.558 45.7835 87.5443 45.7559 87.5478 45.7524C87.5512 45.7524 87.5683 45.7766 87.5992 45.8282C87.6438 45.9006 87.6884 45.973 87.7364 46.0557C87.8565 46.2521 88.0142 46.5449 88.196 46.9136C88.5596 47.651 88.9781 48.7192 89.2593 49.9458C89.5372 51.1725 89.6195 52.3164 89.6092 53.1399C89.6058 53.5534 89.5886 53.8842 89.568 54.1151C89.5577 54.2081 89.5509 54.2977 89.5406 54.3804C89.5303 54.4424 89.5234 54.4734 89.5234 54.4734Z" fill="#FAFAFA"/>
<path d="M97.5909 51.6618C97.5874 51.6652 97.5634 51.6342 97.5154 51.5825C97.4537 51.5102 97.3851 51.4309 97.3096 51.3413C97.1347 51.1277 96.874 50.8279 96.5379 50.4696C95.869 49.7494 94.8777 48.8157 93.6635 47.937C92.4458 47.0618 91.2453 46.4209 90.3501 46.0178C89.9042 45.8145 89.5372 45.6629 89.2799 45.5664C89.1736 45.5251 89.0741 45.4837 88.985 45.4492C88.9164 45.4217 88.8821 45.4045 88.8855 45.4045C88.8855 45.401 88.9232 45.4113 88.9918 45.4355C89.0844 45.4665 89.1805 45.5009 89.2902 45.5388C89.5509 45.625 89.9214 45.7731 90.3741 45.9695C91.2762 46.3589 92.487 46.9963 93.7115 47.875C94.9326 48.7536 95.9205 49.7012 96.579 50.4351C96.9083 50.8003 97.1655 51.107 97.3336 51.3275C97.4056 51.4206 97.4674 51.5033 97.5257 51.5791C97.5703 51.6273 97.5943 51.6583 97.5909 51.6618Z" fill="#FAFAFA"/>
<path d="M95.7626 40.1843C95.7626 40.1912 95.67 40.1912 95.5054 40.1877C95.2893 40.1843 95.0595 40.1808 94.8057 40.1739C94.2157 40.1636 93.3994 40.1567 92.5007 40.1705C91.602 40.1877 90.7857 40.2222 90.1957 40.2532C89.9453 40.267 89.7121 40.2773 89.4994 40.2911C89.3348 40.298 89.2422 40.3014 89.2422 40.2945C89.2422 40.2877 89.3314 40.2773 89.496 40.2566C89.6607 40.2394 89.8973 40.2153 90.1923 40.1946C90.7823 40.1498 91.5952 40.105 92.4973 40.0878C93.3994 40.074 94.2157 40.0878 94.8057 40.1154C95.1006 40.1292 95.3408 40.1429 95.5054 40.1533C95.67 40.1671 95.7626 40.1774 95.7626 40.1843Z" fill="#FAFAFA"/>
<path d="M50.0817 56.2583C50.0852 56.2549 50.14 56.3135 50.2326 56.4203C50.3253 56.5271 50.4625 56.6787 50.6408 56.8579C50.9941 57.2197 51.5189 57.6814 52.15 58.1224C52.7846 58.56 53.3917 58.9046 53.8342 59.1492C54.0194 59.2492 54.1909 59.3456 54.359 59.4387C54.4824 59.5076 54.551 59.5489 54.5476 59.5524C54.5442 59.5593 54.4721 59.5283 54.3452 59.4662C54.2149 59.4077 54.0331 59.3181 53.8067 59.2009C53.3574 58.9701 52.74 58.6324 52.102 58.1913C51.464 57.7503 50.9392 57.2748 50.5962 56.8992C50.4247 56.7131 50.291 56.5546 50.2052 56.4409C50.1229 56.3272 50.0783 56.2618 50.0817 56.2583Z" fill="#FAFAFA"/>
<path d="M51.783 53.0194C51.7967 53.0125 51.8756 53.1572 52.0677 53.3433C52.2564 53.5328 52.5479 53.7602 52.8806 53.9911C53.2168 54.2185 53.5358 54.408 53.7724 54.5355C54.0057 54.663 54.16 54.7284 54.1532 54.7422C54.1429 54.7698 53.5117 54.532 52.8326 54.0634C52.493 53.8291 52.2049 53.5914 52.0231 53.3881C51.8379 53.1813 51.7727 53.0194 51.783 53.0194Z" fill="#FAFAFA"/>
<path d="M54.647 66.8365C54.647 66.84 54.6162 66.8262 54.5579 66.7952C54.4824 66.7538 54.4001 66.7125 54.3143 66.6677C54.1017 66.554 53.7998 66.3783 53.4397 66.144C52.716 65.6788 51.7624 64.9586 50.8123 64.0524C49.8656 63.1428 49.1076 62.2159 48.6239 61.5027C48.377 61.1477 48.1952 60.8514 48.082 60.6378C48.034 60.5516 47.9894 60.469 47.9482 60.3931C47.9174 60.338 47.9036 60.307 47.9071 60.307C47.9105 60.307 47.9277 60.3346 47.962 60.3863C48.0065 60.4586 48.0546 60.5379 48.106 60.6206C48.2295 60.8273 48.4181 61.1167 48.6685 61.4682C49.1625 62.1711 49.9239 63.0842 50.8672 63.9904C51.8139 64.8966 52.7537 65.6202 53.4671 66.0957C53.8204 66.3369 54.1188 66.5195 54.3246 66.6401C54.4104 66.6918 54.4893 66.7366 54.5613 66.7814C54.623 66.8159 54.6505 66.8365 54.647 66.8365Z" fill="#FAFAFA"/>
<path d="M43.448 71.023C43.4343 71.023 43.4069 70.8576 43.3726 70.5612C43.3417 70.2615 43.3143 69.8204 43.3451 69.2795C43.4034 68.2044 43.767 66.6849 44.6828 65.2997C45.5506 63.9077 46.343 62.6535 46.9295 61.7507C47.2073 61.3303 47.4406 60.9754 47.6292 60.6894C47.7973 60.4413 47.8968 60.307 47.9105 60.3139C47.9242 60.3207 47.8453 60.4689 47.6978 60.7308C47.5229 61.0271 47.3068 61.3958 47.053 61.8299C46.5008 62.7534 45.7256 64.0179 44.8612 65.41C43.9591 66.7745 43.5887 68.2354 43.4926 69.2932C43.4 70.3511 43.4926 71.0195 43.448 71.023Z" fill="#1A2E35"/>
<path d="M50.5036 72.6597C50.5036 72.6597 49.9582 72.6804 49.111 72.4529C48.2706 72.2324 47.1353 71.7087 46.1852 70.7542C45.2351 69.7998 44.7137 68.6558 44.4942 67.8151C44.2678 66.964 44.2884 66.4161 44.2884 66.4161C44.2918 66.4161 44.2953 66.4506 44.3055 66.5126C44.3158 66.5746 44.3193 66.6711 44.3398 66.7917C44.3707 67.0329 44.4325 67.3809 44.5525 67.7978C44.7857 68.6317 45.3071 69.7515 46.2435 70.6956C47.1799 71.6363 48.2981 72.1635 49.1281 72.3944C49.5432 72.515 49.8896 72.577 50.1297 72.608C50.2498 72.6287 50.3424 72.6321 50.4075 72.6424C50.4727 72.6528 50.5036 72.6562 50.5036 72.6597Z" fill="#FAFAFA"/>
<path d="M46.4562 58.8322C46.4562 58.8356 46.4322 58.8529 46.3841 58.8804C46.319 58.9218 46.2469 58.9631 46.1749 59.0079C45.9897 59.1147 45.7324 59.2836 45.4237 59.5041C44.8029 59.9451 44.0003 60.6377 43.2765 61.5474C42.5528 62.4605 42.0555 63.3977 41.7673 64.104C41.6198 64.4555 41.5135 64.7484 41.4518 64.9517C41.4243 65.0344 41.3969 65.1102 41.3729 65.186C41.3557 65.2377 41.342 65.2652 41.3386 65.2652C41.3352 65.2652 41.342 65.2342 41.3557 65.1791C41.3763 65.1033 41.3969 65.024 41.4175 64.9413C41.4724 64.7346 41.5684 64.4383 41.709 64.0799C41.9869 63.3667 42.4808 62.4122 43.2079 61.4922C43.9385 60.5757 44.7549 59.8831 45.386 59.4524C45.7016 59.2353 45.9657 59.0734 46.1578 58.9769C46.2332 58.9356 46.3052 58.8977 46.3773 58.8632C46.4253 58.8425 46.4527 58.8287 46.4562 58.8322Z" fill="#FAFAFA"/>
<path d="M44.1923 55.8344C44.1923 55.8413 44.1135 55.8689 43.9625 55.9171C43.8116 55.9619 43.599 56.0377 43.3417 56.1445C42.8272 56.3547 42.1446 56.7234 41.4895 57.2713C40.8378 57.8191 40.3336 58.4118 39.9906 58.8494C39.8191 59.0699 39.6819 59.2525 39.5893 59.3766C39.4967 59.504 39.4418 59.5695 39.4384 59.5661C39.4349 59.5626 39.4795 59.4868 39.5618 59.3559C39.6442 59.2215 39.7745 59.0354 39.9426 58.8115C40.2787 58.3601 40.7761 57.7571 41.4346 57.2058C42.0966 56.6545 42.7929 56.2858 43.3177 56.0894C43.5818 55.9895 43.7979 55.9206 43.9522 55.8861C44.1066 55.8482 44.1923 55.831 44.1923 55.8344Z" fill="#FAFAFA"/>
</g>
<defs>
<clipPath id="clip0">
<rect width="125" height="159" fill="white" transform="translate(0 0.47998)"/>
</clipPath>
</defs>
</svg>
