<svg width="11" height="12" viewBox="0 0 11 12" fill="none" xmlns="http://www.w3.org/2000/svg">
<path d="M10.1001 0.874177C8.90025 -0.291392 6.94812 -0.291392 5.74825 0.874177L1.16622 5.32519C1.02482 5.46256 1.02482 5.6851 1.16622 5.82246C1.30763 5.95983 1.53672 5.95983 1.67813 5.82246L6.26013 1.37145C7.14958 0.508107 8.69874 0.508107 9.58819 1.37145C10.5056 2.26261 10.5056 3.71288 9.58819 4.60404L3.19004 10.8893C2.64279 11.4209 1.68933 11.4209 1.1421 10.8893C0.577521 10.3408 0.577521 9.44864 1.1421 8.9002L7.28431 2.86325C7.48934 2.66407 7.8471 2.66407 8.05215 2.86325C8.26389 3.06893 8.26389 3.40379 8.05215 3.6095L2.16625 9.39745C2.04417 9.51605 2.04417 9.77611 2.16625 9.89473C2.30766 10.0321 2.53675 10.0321 2.67816 9.89473L8.56404 4.10675C9.05828 3.62663 9.05828 2.84607 8.56404 2.36597C8.08538 1.901 7.25033 1.90168 6.7724 2.36597L0.630191 8.40291C-0.210064 9.21914 -0.210064 10.5703 0.630191 11.3865C1.04064 11.7852 1.58611 12 2.16622 12C2.74634 12 3.29186 11.7852 3.70195 11.3865L10.1001 5.10129C11.3 3.93572 11.3 2.03972 10.1001 0.874177Z" fill="black"/>
</svg>
