<svg width="15" height="14" viewBox="0 0 15 14" fill="none" xmlns="http://www.w3.org/2000/svg">
<path d="M0.429755 7.17472C0.668506 7.17472 0.859508 6.98237 0.859508 6.74193L0.859509 2.80513C0.859509 1.73437 1.72538 0.865582 2.78544 0.865582L12.2146 0.865583C13.2778 0.865583 14.1405 1.73758 14.1405 2.80513L14.1405 6.80605C14.1405 7.04649 14.3315 7.23884 14.5702 7.23884C14.809 7.23884 15 7.04649 15 6.80605L15 2.80513C15 1.2567 13.7489 8.44303e-07 12.2146 7.10163e-07L2.78544 -1.14156e-07C1.24788 -2.48574e-07 1.11377e-06 1.2599 9.78687e-07 2.80513L6.34521e-07 6.74193C6.13781e-07 6.97916 0.191002 7.17472 0.429755 7.17472Z" fill="black"/>
<path d="M9.92891 10.5088L7.92975 12.5221L7.92975 3.74124C7.92975 3.5008 7.73875 3.30845 7.5 3.30845C7.26125 3.30845 7.07025 3.5008 7.07025 3.74124L7.07025 12.5221L5.0711 10.5088C4.98833 10.4255 4.87691 10.3806 4.76868 10.3806C4.65726 10.3806 4.54902 10.4223 4.46626 10.5088C4.29754 10.6787 4.29754 10.9512 4.46626 11.1211L7.19758 13.8718C7.27716 13.9519 7.38858 14 7.5 14C7.6146 14 7.72284 13.9551 7.80242 13.8718L10.5337 11.1211C10.7025 10.9512 10.7025 10.6787 10.5337 10.5088C10.3682 10.3421 10.0944 10.3421 9.92891 10.5088Z" fill="black"/>
</svg>
