<svg width="12" height="10" viewBox="0 0 12 10" fill="none" xmlns="http://www.w3.org/2000/svg">
<path d="M4.41371 5C4.41371 5.40611 4.57504 5.79559 4.86221 6.08276C5.14937 6.36992 5.53885 6.53125 5.94496 6.53125C6.35108 6.53125 6.74056 6.36992 7.02772 6.08276C7.31489 5.79559 7.47621 5.40611 7.47621 5C7.47621 4.59389 7.31489 4.20441 7.02772 3.91724C6.74056 3.63008 6.35108 3.46875 5.94496 3.46875C5.53885 3.46875 5.14937 3.63008 4.86221 3.91724C4.57504 4.20441 4.41371 4.59389 4.41371 5ZM11.8813 4.64727C10.5852 1.91699 8.62602 0.542969 5.99965 0.542969C3.37192 0.542969 1.41411 1.91699 0.118011 4.64863C0.0660243 4.75871 0.0390625 4.87894 0.0390625 5.00068C0.0390625 5.12242 0.0660243 5.24265 0.118011 5.35273C1.41411 8.08301 3.37328 9.45703 5.99965 9.45703C8.62739 9.45703 10.5852 8.08301 11.8813 5.35137C11.9866 5.12988 11.9866 4.87285 11.8813 4.64727ZM5.94496 7.40625C4.61606 7.40625 3.53871 6.32891 3.53871 5C3.53871 3.67109 4.61606 2.59375 5.94496 2.59375C7.27387 2.59375 8.35122 3.67109 8.35122 5C8.35122 6.32891 7.27387 7.40625 5.94496 7.40625Z" fill="#6D718C"/>
</svg>
