<svg width="21" height="21" viewBox="0 0 21 21" fill="none" xmlns="http://www.w3.org/2000/svg">
<path d="M0.00633064 10.3226C-0.195548 5.00738 4.46014 0.0954345 9.78075 0.0317068C12.4925 -0.199585 15.1308 0.853484 17.183 2.57101C16.3411 3.49663 15.4846 4.41154 14.5697 5.26808C12.763 4.17045 10.5878 3.33396 8.47633 4.07686C5.07068 5.04659 3.00822 9.06768 4.26852 12.3994C5.31222 15.879 9.54455 17.7886 12.8615 16.3269C14.579 15.7119 15.7114 14.1271 16.2083 12.4243C14.2399 12.3851 12.271 12.4096 10.3026 12.3552C10.2977 11.1841 10.2928 10.0174 10.2977 8.84619C13.5803 8.84129 16.8679 8.83149 20.1554 8.8609C20.3573 11.7304 19.934 14.8014 18.0685 17.1045C15.514 20.3921 10.7946 21.3569 6.95533 20.0672C2.88077 18.7289 -0.0823535 14.624 0.00633064 10.3226Z" fill="white"/>
</svg>
