<svg width="22" height="16" viewBox="0 0 22 16" fill="none" xmlns="http://www.w3.org/2000/svg">
<path d="M7.99906 10C5.32906 10 -0.000938416 11.33 -0.000938416 14V16H15.9991V14C15.9991 11.33 10.6691 10 7.99906 10ZM7.99906 8C9.05993 8 10.0773 7.57857 10.8275 6.82843C11.5776 6.07828 11.9991 5.06087 11.9991 4C11.9991 2.93913 11.5776 1.92172 10.8275 1.17157C10.0773 0.421427 9.05993 0 7.99906 0C6.9382 0 5.92078 0.421427 5.17064 1.17157C4.42049 1.92172 3.99906 2.93913 3.99906 4C3.99906 5.06087 4.42049 6.07828 5.17064 6.82843C5.92078 7.57857 6.9382 8 7.99906 8ZM17.9991 5.59L15.8791 3.46L14.4591 4.88L16.5891 7L14.4591 9.12L15.8791 10.54L17.9991 8.41L20.1191 10.54L21.5391 9.12L19.4091 7L21.5391 4.88L20.1191 3.46L17.9991 5.59Z" fill="#DC2626"/>
</svg>
