<svg width="21" height="21" viewBox="0 0 21 21" fill="none" xmlns="http://www.w3.org/2000/svg">
<path d="M10.5 0.398193C5 0.398193 0.5 4.88819 0.5 10.4182C0.5 15.4182 4.16 19.5682 8.94 20.3182V13.3182H6.4V10.4182H8.94V8.20819C8.94 5.69819 10.43 4.31819 12.72 4.31819C13.81 4.31819 14.95 4.50819 14.95 4.50819V6.97819H13.69C12.45 6.97819 12.06 7.74819 12.06 8.53819V10.4182H14.84L14.39 13.3182H12.06V20.3182C14.4164 19.946 16.5622 18.7437 18.1099 16.9283C19.6576 15.1128 20.5054 12.8038 20.5 10.4182C20.5 4.88819 16 0.398193 10.5 0.398193Z" fill="#6D718C"/>
</svg>
