<svg width="21" height="21" viewBox="0 0 21 21" fill="none" xmlns="http://www.w3.org/2000/svg">
<path d="M6.3 0.358154H14.7C17.9 0.358154 20.5 2.95815 20.5 6.15815V14.5582C20.5 16.0964 19.8889 17.5717 18.8012 18.6594C17.7135 19.7471 16.2383 20.3582 14.7 20.3582H6.3C3.1 20.3582 0.5 17.7582 0.5 14.5582V6.15815C0.5 4.6199 1.11107 3.14465 2.19878 2.05694C3.28649 0.969224 4.76174 0.358154 6.3 0.358154ZM6.1 2.35815C5.14522 2.35815 4.22955 2.73744 3.55442 3.41257C2.87928 4.0877 2.5 5.00338 2.5 5.95815V14.7582C2.5 16.7482 4.11 18.3582 6.1 18.3582H14.9C15.8548 18.3582 16.7705 17.9789 17.4456 17.3037C18.1207 16.6286 18.5 15.7129 18.5 14.7582V5.95815C18.5 3.96815 16.89 2.35815 14.9 2.35815H6.1ZM15.75 3.85815C16.0815 3.85815 16.3995 3.98985 16.6339 4.22427C16.8683 4.45869 17 4.77663 17 5.10815C17 5.43967 16.8683 5.75762 16.6339 5.99204C16.3995 6.22646 16.0815 6.35815 15.75 6.35815C15.4185 6.35815 15.1005 6.22646 14.8661 5.99204C14.6317 5.75762 14.5 5.43967 14.5 5.10815C14.5 4.77663 14.6317 4.45869 14.8661 4.22427C15.1005 3.98985 15.4185 3.85815 15.75 3.85815ZM10.5 5.35815C11.8261 5.35815 13.0979 5.88494 14.0355 6.82262C14.9732 7.7603 15.5 9.03207 15.5 10.3582C15.5 11.6842 14.9732 12.956 14.0355 13.8937C13.0979 14.8314 11.8261 15.3582 10.5 15.3582C9.17392 15.3582 7.90215 14.8314 6.96447 13.8937C6.02678 12.956 5.5 11.6842 5.5 10.3582C5.5 9.03207 6.02678 7.7603 6.96447 6.82262C7.90215 5.88494 9.17392 5.35815 10.5 5.35815ZM10.5 7.35815C9.70435 7.35815 8.94129 7.67422 8.37868 8.23683C7.81607 8.79944 7.5 9.5625 7.5 10.3582C7.5 11.1538 7.81607 11.9169 8.37868 12.4795C8.94129 13.0421 9.70435 13.3582 10.5 13.3582C11.2956 13.3582 12.0587 13.0421 12.6213 12.4795C13.1839 11.9169 13.5 11.1538 13.5 10.3582C13.5 9.5625 13.1839 8.79944 12.6213 8.23683C12.0587 7.67422 11.2956 7.35815 10.5 7.35815Z" fill="#6D718C"/>
</svg>
