<svg width="18" height="19" viewBox="0 0 18 19" fill="none" xmlns="http://www.w3.org/2000/svg">
<path d="M16 0.358154C16.5304 0.358154 17.0391 0.568868 17.4142 0.943941C17.7893 1.31901 18 1.82772 18 2.35815V16.3582C18 16.8886 17.7893 17.3973 17.4142 17.7724C17.0391 18.1474 16.5304 18.3582 16 18.3582H2C1.46957 18.3582 0.960859 18.1474 0.585786 17.7724C0.210714 17.3973 0 16.8886 0 16.3582V2.35815C0 1.82772 0.210714 1.31901 0.585786 0.943941C0.960859 0.568868 1.46957 0.358154 2 0.358154H16ZM15.5 15.8582V10.5582C15.5 9.69355 15.1565 8.86435 14.5452 8.25299C13.9338 7.64162 13.1046 7.29815 12.24 7.29815C11.39 7.29815 10.4 7.81815 9.92 8.59815V7.48815H7.13V15.8582H9.92V10.9282C9.92 10.1582 10.54 9.52815 11.31 9.52815C11.6813 9.52815 12.0374 9.67565 12.2999 9.9382C12.5625 10.2008 12.71 10.5569 12.71 10.9282V15.8582H15.5ZM3.88 5.91815C4.32556 5.91815 4.75288 5.74116 5.06794 5.42609C5.383 5.11103 5.56 4.68372 5.56 4.23815C5.56 3.30815 4.81 2.54815 3.88 2.54815C3.43178 2.54815 3.00193 2.72621 2.68499 3.04314C2.36805 3.36008 2.19 3.78994 2.19 4.23815C2.19 5.16815 2.95 5.91815 3.88 5.91815ZM5.27 15.8582V7.48815H2.5V15.8582H5.27Z" fill="#6D718C"/>
</svg>
