<svg width="22" height="18" viewBox="0 0 22 18" fill="none" xmlns="http://www.w3.org/2000/svg">
<path d="M21.46 2.35815C20.69 2.70815 19.86 2.93815 19 3.04815C19.88 2.51815 20.56 1.67815 20.88 0.668154C20.05 1.16815 19.13 1.51815 18.16 1.71815C17.37 0.858154 16.26 0.358154 15 0.358154C12.65 0.358154 10.73 2.27815 10.73 4.64815C10.73 4.98815 10.77 5.31815 10.84 5.62815C7.28004 5.44815 4.11004 3.73815 2.00004 1.14815C1.63004 1.77815 1.42004 2.51815 1.42004 3.29815C1.42004 4.78815 2.17004 6.10815 3.33004 6.85815C2.62004 6.85815 1.96004 6.65815 1.38004 6.35815C1.38004 6.35815 1.38004 6.35815 1.38004 6.38815C1.38004 8.46815 2.86004 10.2082 4.82004 10.5982C4.46004 10.6982 4.08004 10.7482 3.69004 10.7482C3.42004 10.7482 3.15004 10.7182 2.89004 10.6682C3.43004 12.3582 5.00004 13.6182 6.89004 13.6482C5.43004 14.8082 3.58004 15.4882 1.56004 15.4882C1.22004 15.4882 0.880039 15.4682 0.540039 15.4282C2.44004 16.6482 4.70004 17.3582 7.12004 17.3582C15 17.3582 19.33 10.8182 19.33 5.14815C19.33 4.95815 19.33 4.77815 19.32 4.58815C20.16 3.98815 20.88 3.22815 21.46 2.35815Z" fill="#6D718C"/>
</svg>
