<svg width="20" height="21" viewBox="0 0 20 21" fill="none" xmlns="http://www.w3.org/2000/svg">
<path d="M14.36 12.3582C14.44 11.6982 14.5 11.0382 14.5 10.3582C14.5 9.67815 14.44 9.01815 14.36 8.35815H17.74C17.9 8.99815 18 9.66815 18 10.3582C18 11.0482 17.9 11.7182 17.74 12.3582H14.36ZM12.59 17.9182C13.19 16.8082 13.65 15.6082 13.97 14.3582H16.92C15.96 16.0082 14.43 17.2882 12.59 17.9182ZM12.34 12.3582H7.66C7.56 11.6982 7.5 11.0382 7.5 10.3582C7.5 9.67815 7.56 9.00815 7.66 8.35815H12.34C12.43 9.00815 12.5 9.67815 12.5 10.3582C12.5 11.0382 12.43 11.6982 12.34 12.3582ZM10 18.3182C9.17 17.1182 8.5 15.7882 8.09 14.3582H11.91C11.5 15.7882 10.83 17.1182 10 18.3182ZM6 6.35815H3.08C4.03 4.69815 5.57 3.41815 7.4 2.79815C6.8 3.90815 6.35 5.10815 6 6.35815ZM3.08 14.3582H6C6.35 15.6082 6.8 16.8082 7.4 17.9182C5.57 17.2882 4.03 16.0082 3.08 14.3582ZM2.26 12.3582C2.1 11.7182 2 11.0482 2 10.3582C2 9.66815 2.1 8.99815 2.26 8.35815H5.64C5.56 9.01815 5.5 9.67815 5.5 10.3582C5.5 11.0382 5.56 11.6982 5.64 12.3582H2.26ZM10 2.38815C10.83 3.58815 11.5 4.92815 11.91 6.35815H8.09C8.5 4.92815 9.17 3.58815 10 2.38815ZM16.92 6.35815H13.97C13.65 5.10815 13.19 3.90815 12.59 2.79815C14.43 3.42815 15.96 4.69815 16.92 6.35815ZM10 0.358154C4.47 0.358154 0 4.85815 0 10.3582C0 13.0103 1.05357 15.5539 2.92893 17.4292C3.85752 18.3578 4.95991 19.0944 6.17317 19.597C7.38642 20.0995 8.68678 20.3582 10 20.3582C12.6522 20.3582 15.1957 19.3046 17.0711 17.4292C18.9464 15.5539 20 13.0103 20 10.3582C20 9.04494 19.7413 7.74458 19.2388 6.53132C18.7362 5.31806 17.9997 4.21567 17.0711 3.28709C16.1425 2.3585 15.0401 1.62191 13.8268 1.11936C12.6136 0.616812 11.3132 0.358154 10 0.358154Z" fill="#6D718C"/>
</svg>
