<svg width="22" height="22" viewBox="0 0 22 22" fill="none" xmlns="http://www.w3.org/2000/svg">
<path d="M17.4286 1H4.57142C2.59995 1.00234 1.00234 2.59995 1 4.57142V17.4286C1.00234 19.4001 2.59995 20.9977 4.57142 21H17.4286C19.4001 20.9977 20.9977 19.4001 21 17.4286V4.57142C20.9977 2.59995 19.4001 1.00234 17.4286 1ZM19.5714 17.4286C19.5714 18.6121 18.6121 19.5714 17.4286 19.5714H4.57142C3.38795 19.5714 2.42856 18.6121 2.42856 17.4286V4.57142C2.42856 3.38795 3.38795 2.42856 4.57142 2.42856H17.4286C18.6121 2.42856 19.5714 3.38795 19.5714 4.57142V17.4286Z" fill="white"/>
<path d="M14.5715 10.2857H11.7143V7.42858C11.7143 7.03408 11.3945 6.71428 11 6.71428C10.6055 6.71428 10.2857 7.03408 10.2857 7.42858V10.2857H7.42858C7.03408 10.2857 6.71428 10.6055 6.71428 11C6.71428 11.3945 7.03408 11.7143 7.42858 11.7143H10.2857V14.5715C10.2857 14.966 10.6055 15.2858 11 15.2858C11.3945 15.2858 11.7143 14.9659 11.7143 14.5715V11.7143H14.5715C14.966 11.7143 15.2858 11.3945 15.2858 11C15.2858 10.6055 14.9659 10.2857 14.5715 10.2857Z" fill="white"/>
<path d="M17.4286 1H4.57142C2.59995 1.00234 1.00234 2.59995 1 4.57142V17.4286C1.00234 19.4001 2.59995 20.9977 4.57142 21H17.4286C19.4001 20.9977 20.9977 19.4001 21 17.4286V4.57142C20.9977 2.59995 19.4001 1.00234 17.4286 1ZM19.5714 17.4286C19.5714 18.6121 18.6121 19.5714 17.4286 19.5714H4.57142C3.38795 19.5714 2.42856 18.6121 2.42856 17.4286V4.57142C2.42856 3.38795 3.38795 2.42856 4.57142 2.42856H17.4286C18.6121 2.42856 19.5714 3.38795 19.5714 4.57142V17.4286Z" stroke="white" stroke-width="0.5"/>
<path d="M14.5715 10.2857H11.7143V7.42858C11.7143 7.03408 11.3945 6.71428 11 6.71428C10.6055 6.71428 10.2857 7.03408 10.2857 7.42858V10.2857H7.42858C7.03408 10.2857 6.71428 10.6055 6.71428 11C6.71428 11.3945 7.03408 11.7143 7.42858 11.7143H10.2857V14.5715C10.2857 14.966 10.6055 15.2858 11 15.2858C11.3945 15.2858 11.7143 14.9659 11.7143 14.5715V11.7143H14.5715C14.966 11.7143 15.2858 11.3945 15.2858 11C15.2858 10.6055 14.9659 10.2857 14.5715 10.2857Z" stroke="white" stroke-width="0.5"/>
</svg>
