<svg width="70" height="70" viewBox="0 0 70 70" fill="none" xmlns="http://www.w3.org/2000/svg">
<path d="M52.5 3.49988V18.6665H17.5V3.49988C17.5038 2.21281 18.5462 1.17033 19.8334 1.1665H50.1668C51.4538 1.17033 52.4963 2.21281 52.5 3.49988Z" fill="#CF3A28"/>
<path d="M49 3.49988V18.6665H14V13.9999C14.0038 12.7128 15.0462 11.6703 16.3334 11.6665H17.5V3.49988C17.5038 2.21281 18.5462 1.17033 19.8334 1.1665H46.6668C47.9538 1.17033 48.9962 2.21281 49 3.49988Z" fill="#FD5742"/>
<path d="M28.0001 16.3332C30.5774 16.3332 32.6667 14.2439 32.6667 11.6666C32.6667 9.08932 30.5774 7 28.0001 7C25.4228 7 23.3335 9.08932 23.3335 11.6666C23.3335 14.2439 25.4228 16.3332 28.0001 16.3332Z" fill="white"/>
<path d="M56 13.9999V30.3333H14V13.9999C14.0038 12.7128 15.0462 11.6703 16.3334 11.6665H53.6668C54.9538 11.6703 55.9963 12.7128 56 13.9999Z" fill="#607D8B"/>
<path d="M52.5 13.9999V30.3333H10.5V24.4999C10.5038 23.2128 11.5462 22.1703 12.8334 22.1665H14V13.9999C14.0038 12.7128 15.0462 11.6703 16.3334 11.6665H50.1667C51.4538 11.6703 52.4963 12.7128 52.5 13.9999Z" fill="#CFD8DC"/>
<path d="M24.5001 26.8332C27.0774 26.8332 29.1667 24.7439 29.1667 22.1666C29.1667 19.5893 27.0774 17.5 24.5001 17.5C21.9228 17.5 19.8335 19.5893 19.8335 22.1666C19.8335 24.7439 21.9228 26.8332 24.5001 26.8332Z" fill="#FD5742"/>
<path d="M59.5 24.4999V41.9999H10.5V24.4999C10.5038 23.2128 11.5462 22.1703 12.8334 22.1665H57.1668C58.4538 22.1703 59.4963 23.2128 59.5 24.4999Z" fill="#CF3B28"/>
<path d="M56 24.4999V41.9999H7V34.9999C7.00383 33.7128 8.04617 32.6703 9.33338 32.6665H10.5V24.4999C10.5038 23.2128 11.5462 22.1703 12.8334 22.1665H53.6668C54.9538 22.1703 55.9963 23.2128 56 24.4999Z" fill="#FD5742"/>
<path d="M21.0001 37.3332C23.5774 37.3332 25.6667 35.2439 25.6667 32.6666C25.6667 30.0893 23.5774 28 21.0001 28C18.4228 28 16.3335 30.0893 16.3335 32.6666C16.3335 35.2439 18.4228 37.3332 21.0001 37.3332Z" fill="white"/>
<path d="M63 34.9999V68.8332H7V34.9999C7.00383 33.7128 8.04617 32.6703 9.33338 32.6665H60.6668C61.9538 32.6703 62.9963 33.7128 63 34.9999Z" fill="#607D8B"/>
<path d="M59.5 34.9999V68.8332H7V34.9999C7.00383 33.7128 8.04617 32.6703 9.33338 32.6665H57.1668C58.4538 32.6703 59.4963 33.7128 59.5 34.9999Z" fill="#CFD8DC"/>
<path d="M19.8334 51.3333C23.0551 51.3333 25.6668 48.7216 25.6668 45.4999C25.6668 42.2782 23.0551 39.6665 19.8334 39.6665C16.6117 39.6665 14 42.2782 14 45.4999C14 48.7216 16.6117 51.3333 19.8334 51.3333Z" fill="#FD5742"/>
<path d="M68.8334 67.6666H64.1668V35C64.1647 33.0679 62.5989 31.5021 60.6668 31.5V24.5C60.6647 22.5679 59.0989 21.0021 57.1668 21V14C57.1647 12.0679 55.5989 10.5021 53.6668 10.5V3.5C53.6647 1.56789 52.0989 0.00205078 50.1668 0H19.8334C17.9013 0.00205078 16.3354 1.56789 16.3334 3.5V10.5C14.4013 10.5021 12.8354 12.0679 12.8334 14V21C10.9013 21.0021 9.33543 22.5679 9.33338 24.5V31.5C7.40127 31.5021 5.83543 33.0679 5.83338 35V67.6666H1.16662C0.522266 67.6666 0 68.189 0 68.8332C0 69.4777 0.522402 70 1.16662 70H68.8332C69.4776 70 69.9999 69.4777 69.9999 68.8334C70 68.189 69.4777 67.6666 68.8334 67.6666ZM18.6666 3.5C18.667 2.85578 19.1892 2.33379 19.8332 2.33338H50.1666C50.8108 2.33379 51.3328 2.85592 51.3332 3.5V10.5H33.7154C33.161 7.78408 30.772 5.83338 28 5.83338C25.228 5.83338 22.839 7.78408 22.2846 10.5H18.6668V3.5H18.6666ZM31.2851 10.5H24.7151C25.2025 9.10273 26.5203 8.16662 28.0001 8.16662C29.4798 8.16662 30.7977 9.10273 31.2851 10.5ZM15.1666 14C15.167 13.3558 15.6892 12.8338 16.3332 12.8334H53.6666C54.3108 12.8338 54.8328 13.3559 54.8332 14V21H30.2154C29.661 18.2841 27.272 16.3334 24.5 16.3334C21.728 16.3334 19.339 18.2841 18.7846 21H15.1668V14H15.1666ZM27.7851 21H21.2151C21.7025 19.6027 23.0203 18.6666 24.5001 18.6666C25.98 18.6666 27.2977 19.6027 27.7851 21ZM11.6666 24.5C11.667 23.8558 12.1892 23.3338 12.8332 23.3334H57.1666C57.8108 23.3338 58.3328 23.8559 58.3332 24.5V31.5H26.7154C26.161 28.7841 23.772 26.8334 21 26.8334C18.228 26.8334 15.839 28.7841 15.2846 31.5H11.6666V24.5ZM24.2851 31.5H17.7151C18.2025 30.1027 19.5203 29.1666 21.0001 29.1666C22.48 29.1666 23.7977 30.1027 24.2851 31.5ZM8.16662 67.6666V35C8.16703 34.3558 8.68916 33.8338 9.33324 33.8334H60.6666C61.3108 33.8338 61.8328 34.3559 61.8332 35V67.6666H8.16662Z" fill="black"/>
<path d="M19.8335 52.5C23.6995 52.5 26.8335 49.366 26.8335 45.5C26.8335 41.634 23.6995 38.5 19.8335 38.5C15.9675 38.5 12.8335 41.634 12.8335 45.5C12.8377 49.3642 15.9693 52.4958 19.8335 52.5ZM19.8335 40.8334C22.4108 40.8334 24.5001 42.9227 24.5001 45.5C24.5001 48.0773 22.4108 50.1666 19.8335 50.1666C17.2562 50.1666 15.1669 48.0773 15.1669 45.5C15.1693 42.9237 17.2572 40.8358 19.8335 40.8334Z" fill="black"/>
<path d="M56.0001 38.5H31.5001C30.8558 38.5 30.3335 39.0224 30.3335 39.6666C30.3335 40.311 30.8558 40.8332 31.5001 40.8332H56.0001C56.6445 40.8332 57.1667 40.3108 57.1667 39.6666C57.1667 39.0224 56.6445 38.5 56.0001 38.5Z" fill="black"/>
<path d="M56.0001 44.3335H31.5001C30.8558 44.3335 30.3335 44.8558 30.3335 45.5001C30.3335 46.1445 30.8558 46.6667 31.5001 46.6667H56.0001C56.6445 46.6667 57.1667 46.1445 57.1667 45.5001C57.1667 44.8558 56.6445 44.3335 56.0001 44.3335Z" fill="black"/>
<path d="M56.0001 50.1665H31.5001C30.8558 50.1665 30.3335 50.6889 30.3335 51.3331C30.3335 51.9775 30.8558 52.4998 31.5001 52.4998H56.0001C56.6445 52.4998 57.1667 51.9773 57.1667 51.3331C57.1667 50.6889 56.6445 50.1665 56.0001 50.1665Z" fill="black"/>
<path d="M56.0001 56H14.0001C13.3558 56 12.8335 56.5223 12.8335 57.1666C12.8335 57.811 13.3559 58.3332 14.0001 58.3332H56.0001C56.6445 58.3332 57.1667 57.811 57.1667 57.1666C57.1667 56.5223 56.6445 56 56.0001 56Z" fill="black"/>
<path d="M56.0001 61.8335H14.0001C13.3558 61.8335 12.8335 62.3558 12.8335 63.0001C12.8335 63.6445 13.3559 64.1667 14.0001 64.1667H56.0001C56.6445 64.1667 57.1667 63.6445 57.1667 63.0001C57.1667 62.3558 56.6445 61.8335 56.0001 61.8335Z" fill="black"/>
</svg>
