<svg width="75" height="75" viewBox="0 0 75 75" fill="none" xmlns="http://www.w3.org/2000/svg">
<path d="M60.9375 57.832V71.4844H14.0625V57.832C14.0619 55.3348 14.8599 52.9027 16.34 50.8913C17.8201 48.8799 19.9047 47.3946 22.2891 46.6523L24.6094 45.9258L29.2969 44.4609L32.8125 43.3594C32.8125 44.6026 33.3064 45.7949 34.1854 46.6739C35.0645 47.553 36.2568 48.0469 37.5 48.0469C38.7432 48.0469 39.9355 47.553 40.8146 46.6739C41.6936 45.7949 42.1875 44.6026 42.1875 43.3594L45.7031 44.4609L50.3906 45.9258L52.7109 46.6523C55.0953 47.3946 57.1799 48.8799 58.66 50.8913C60.1401 52.9027 60.9381 55.3348 60.9375 57.832Z" fill="#CFD8DC"/>
<path d="M50.3906 55.0781H24.6094C23.9883 55.08 23.3933 55.3275 22.9541 55.7666C22.515 56.2058 22.2675 56.8008 22.2656 57.4219V71.4844H52.7344V57.4219C52.7325 56.8008 52.485 56.2058 52.0459 55.7666C51.6067 55.3275 51.0117 55.08 50.3906 55.0781Z" fill="#FD5742"/>
<path d="M42.1875 36.3281V43.3594C42.1875 44.6026 41.6936 45.7949 40.8146 46.6739C39.9355 47.553 38.7432 48.0469 37.5 48.0469C36.2568 48.0469 35.0645 47.553 34.1854 46.6739C33.3064 45.7949 32.8125 44.6026 32.8125 43.3594V36.3281H42.1875Z" fill="#FFC477"/>
<path d="M42.1875 36.3281V40.0312C40.71 40.6804 39.1138 41.0156 37.5 41.0156C35.8862 41.0156 34.29 40.6804 32.8125 40.0312V36.3281H42.1875Z" fill="#FFB655"/>
<path d="M53.9062 24.6094C53.9062 25.5418 53.5359 26.436 52.8765 27.0953C52.2172 27.7546 51.323 28.125 50.3906 28.125H48.0469V21.0938H50.3906C51.323 21.0938 52.2172 21.4641 52.8765 22.1235C53.5359 22.7828 53.9062 23.677 53.9062 24.6094Z" fill="#FFB655"/>
<path d="M26.9531 21.0938V28.125H24.6094C23.677 28.125 22.7828 27.7546 22.1235 27.0953C21.4641 26.436 21.0938 25.5418 21.0938 24.6094C21.0938 23.677 21.4641 22.7828 22.1235 22.1235C22.7828 21.4641 23.677 21.0938 24.6094 21.0938H26.9531Z" fill="#FFB655"/>
<path d="M52.7344 64.4531H60.9375V71.4844H52.7344V64.4531Z" fill="#FFC477"/>
<path d="M62.5898 60.4571C62.375 60.2367 62.1179 60.062 61.834 59.9432C61.5502 59.8244 61.2452 59.764 60.9375 59.7657H52.7344V64.4532H60.9375C61.5585 64.4513 62.1536 64.2038 62.5927 63.7646C63.0319 63.3255 63.2794 62.7304 63.2813 62.1094C63.2829 61.8017 63.2225 61.4968 63.1037 61.2129C62.9849 60.929 62.8102 60.6719 62.5898 60.4571Z" fill="#CFD8DC"/>
<path d="M49.2187 15.2344V15.8672L42.5156 14.8359L45.0469 6.26953C46.355 7.36825 47.4065 8.74031 48.1273 10.2892C48.848 11.838 49.2206 13.526 49.2187 15.2344Z" fill="#78B9EB"/>
<path d="M45.0469 6.26948L42.5156 14.8359L40.3477 14.496C38.4596 14.2148 36.5404 14.2148 34.6523 14.496L32.4844 14.8359L29.9531 6.26948C32.0657 4.49108 34.7385 3.51587 37.5 3.51587C40.2615 3.51587 42.9343 4.49108 45.0469 6.26948Z" fill="#1E81CE"/>
<path d="M29.9531 6.26953L32.4844 14.8359L25.7813 15.8672V15.2344C25.7796 13.6953 26.0821 12.171 26.6713 10.7492C27.2606 9.32735 28.125 8.03596 29.2149 6.94922C29.4492 6.71484 29.6953 6.49219 29.9531 6.26953Z" fill="#78B9EB"/>
<path d="M45.7031 44.4609V57.4219C45.7077 58.0421 45.9561 58.6355 46.3947 59.0741C46.8332 59.5126 47.4267 59.761 48.0469 59.7656C48.6679 59.7638 49.263 59.5162 49.7021 59.0771C50.1412 58.638 50.3888 58.0429 50.3906 57.4219V45.9258L45.7031 44.4609Z" fill="#FD5742"/>
<path d="M24.6094 55.0781V57.4219C24.614 58.0421 24.8624 58.6355 25.3009 59.0741C25.7395 59.5126 26.3329 59.761 26.9531 59.7656C27.5742 59.7638 28.1692 59.5162 28.6084 59.0771C29.0475 58.638 29.295 58.0429 29.2969 57.4219V44.4609L24.6094 45.9258V55.0781Z" fill="#FD5742"/>
<path d="M49.2188 20.8008V26.9531C49.2188 27.3516 49.1953 27.7383 49.1602 28.125C48.87 31.0158 47.5163 33.6958 45.3617 35.645C43.2072 37.5941 40.4054 38.6733 37.5 38.6733C34.5946 38.6733 31.7928 37.5941 29.6383 35.645C27.4837 33.6958 26.13 31.0158 25.8398 28.125C25.8047 27.7383 25.7812 27.3516 25.7812 26.9531V20.8008C25.9688 20.8223 26.1586 20.8144 26.3437 20.7773L34.9805 19.207C36.6463 18.9023 38.3537 18.9023 40.0195 19.207L48.6562 20.7773C48.8414 20.8144 49.0312 20.8223 49.2188 20.8008Z" fill="#FFC477"/>
<path d="M49.5587 15.9141L49.2189 15.8672L42.5158 14.8359L40.3478 14.4961C38.4598 14.2148 36.5405 14.2148 34.6525 14.4961L32.4845 14.8359L25.7814 15.8672L25.4415 15.9141C25.0773 15.971 24.7316 16.1131 24.4325 16.3288C24.1335 16.5445 23.8896 16.8278 23.7206 17.1554C23.5516 17.4831 23.4623 17.8461 23.46 18.2148C23.4577 18.5835 23.5423 18.9475 23.7072 19.2773L23.8243 19.5234C24.0115 19.888 24.2904 20.1975 24.6336 20.4215C24.9767 20.6455 25.3723 20.7762 25.7814 20.8008C25.969 20.8223 26.1587 20.8144 26.3439 20.7773L34.9806 19.207C36.6465 18.9023 38.3538 18.9023 40.0197 19.207L48.6564 20.7773C48.8415 20.8144 49.0313 20.8223 49.2189 20.8008C49.6279 20.7762 50.0235 20.6455 50.3667 20.4215C50.7099 20.1975 50.9888 19.888 51.1759 19.5234L51.2931 19.2773C51.4579 18.9475 51.5426 18.5835 51.5403 18.2148C51.5379 17.8461 51.4486 17.4831 51.2796 17.1554C51.1107 16.8278 50.8667 16.5445 50.5677 16.3288C50.2687 16.1131 49.923 15.971 49.5587 15.9141Z" fill="#3D9AE2"/>
<path d="M14.0625 64.4531H22.2656V71.4844H14.0625V64.4531Z" fill="#FFC477"/>
<path d="M14.0625 59.7656C13.4423 59.7702 12.8488 60.0186 12.4103 60.4572C11.9718 60.8957 11.7233 61.4892 11.7188 62.1094C11.7206 62.7304 11.9681 63.3255 12.4073 63.7646C12.8464 64.2037 13.4415 64.4513 14.0625 64.4531H22.2656V59.7656H14.0625Z" fill="#CFD8DC"/>
<path d="M14.0625 64.4531H22.2656V66.7969H14.0625V64.4531Z" fill="#FFB655"/>
<path d="M52.7344 64.4531H60.9375V66.7969H52.7344V64.4531Z" fill="#FFB655"/>
<path d="M30.4688 23.4375H32.8125V25.7812H30.4688V23.4375Z" fill="black"/>
<path d="M42.1875 23.4375H44.5312V25.7812H42.1875V23.4375Z" fill="black"/>
<path d="M42.1875 29.2969H39.8438C39.8438 29.9185 39.5968 30.5146 39.1573 30.9542C38.7177 31.3937 38.1216 31.6406 37.5 31.6406C36.8784 31.6406 36.2823 31.3937 35.8427 30.9542C35.4032 30.5146 35.1562 29.9185 35.1562 29.2969H32.8125C32.8125 30.5401 33.3064 31.7324 34.1854 32.6114C35.0645 33.4905 36.2568 33.9844 37.5 33.9844C38.7432 33.9844 39.9355 33.4905 40.8146 32.6114C41.6936 31.7324 42.1875 30.5401 42.1875 29.2969Z" fill="black"/>
<path d="M62.1096 58.8046V57.832C62.1213 55.0832 61.2479 52.4037 59.6186 50.1898C57.9893 47.9759 55.6907 46.3452 53.0627 45.539L43.3596 42.5038V38.4257C44.5614 37.8147 45.6606 37.02 46.6174 36.0703C48.4624 34.2261 49.7011 31.8632 50.1682 29.2968H50.3909C51.4809 29.294 52.5359 28.9115 53.3743 28.2149C54.2127 27.5184 54.7822 26.5514 54.9848 25.4804C55.1873 24.4093 55.0103 23.3012 54.4841 22.3466C53.9579 21.392 53.1155 20.6506 52.1018 20.2499C52.137 20.1913 52.1838 20.121 52.219 20.0507L52.3479 19.8046C52.5954 19.309 52.7223 18.762 52.7182 18.2081C52.7141 17.6541 52.5792 17.109 52.3245 16.6171C51.9149 15.8297 51.2185 15.2298 50.3791 14.9413C50.3005 11.5777 48.9092 8.37837 46.5025 6.02725C44.0958 3.67613 40.8648 2.35986 37.5002 2.35986C34.1357 2.35986 30.9047 3.67613 28.498 6.02725C26.0913 8.37837 24.6999 11.5777 24.6213 14.9413C23.782 15.2298 23.0856 15.8297 22.676 16.6171C22.4213 17.109 22.2864 17.6541 22.2823 18.2081C22.2782 18.762 22.4051 19.309 22.6526 19.8046L22.7698 20.039C22.8166 20.121 22.8635 20.1796 22.8987 20.2499C21.885 20.6506 21.0425 21.392 20.5164 22.3466C19.9902 23.3012 19.8132 24.4093 20.0157 25.4804C20.2183 26.5514 20.7877 27.5184 21.6262 28.2149C22.4646 28.9115 23.5196 29.294 24.6096 29.2968H24.8323C25.1958 31.2369 25.9983 33.0682 27.1784 34.6505C28.3585 36.2328 29.8849 37.5241 31.6409 38.4257V42.5038L21.9377 45.5273C19.31 46.3375 17.0122 47.9708 15.3832 50.1863C13.7543 52.4018 12.8806 55.0821 12.8909 57.832V58.8046C12.2058 59.0446 11.6123 59.4915 11.1924 60.0835C10.7724 60.6756 10.5469 61.3835 10.5469 62.1093C10.5469 62.8352 10.7724 63.5431 11.1924 64.1351C11.6123 64.7271 12.2058 65.174 12.8909 65.414V71.4843C12.8909 71.7951 13.0143 72.0932 13.2341 72.313C13.4539 72.5327 13.7519 72.6562 14.0627 72.6562H60.9377C61.2485 72.6562 61.5466 72.5327 61.7664 72.313C61.9861 72.0932 62.1096 71.7951 62.1096 71.4843V65.414C62.7946 65.174 63.3882 64.7271 63.8081 64.1351C64.228 63.5431 64.4536 62.8352 64.4536 62.1093C64.4536 61.3835 64.228 60.6756 63.8081 60.0835C63.3882 59.4915 62.7946 59.0446 62.1096 58.8046ZM50.3909 22.2656C51.0119 22.2674 51.607 22.5149 52.0461 22.9541C52.4852 23.3932 52.7328 23.9883 52.7346 24.6093C52.73 25.2295 52.4816 25.823 52.0431 26.2615C51.6045 26.7001 51.011 26.9485 50.3909 26.9531V22.2656ZM24.6096 26.9531C23.9894 26.9485 23.396 26.7001 22.9574 26.2615C22.5189 25.823 22.2705 25.2295 22.2659 24.6093C22.2677 23.9883 22.5152 23.3932 22.9544 22.9541C23.3935 22.5149 23.9886 22.2674 24.6096 22.2656V26.9531ZM46.8752 46.0546L49.219 46.7929V57.4218C49.219 57.7326 49.0955 58.0307 48.8758 58.2505C48.656 58.4702 48.3579 58.5937 48.0471 58.5937C47.7363 58.5937 47.4382 58.4702 47.2185 58.2505C46.9987 58.0307 46.8752 57.7326 46.8752 57.4218V46.0546ZM45.6096 8.49603C47.0181 10.1956 47.8583 12.294 48.012 14.496L44.0159 13.8749L45.6096 8.49603ZM37.5002 4.68744C39.7292 4.68947 41.9 5.39938 43.6995 6.71478L41.6838 13.5234L40.5237 13.3476C38.5205 13.0312 36.48 13.0312 34.4768 13.3476L33.3166 13.5234L31.301 6.71478C33.0979 5.39423 35.2703 4.68376 37.5002 4.68744ZM29.3909 8.49603L30.9846 13.8749L26.9885 14.496C27.1348 12.2923 27.9759 10.1917 29.3909 8.49603ZM24.8674 18.996L24.7502 18.7617C24.6682 18.5955 24.6266 18.4123 24.6286 18.2271C24.6307 18.0418 24.6763 17.8596 24.762 17.6952C24.8442 17.5307 24.9649 17.3883 25.1138 17.2802C25.2627 17.1721 25.4354 17.1014 25.6174 17.0742L34.8284 15.6562C36.5997 15.3906 38.4008 15.3906 40.1721 15.6562L49.383 17.0742C49.565 17.1014 49.7378 17.1721 49.8867 17.2802C50.0356 17.3883 50.1563 17.5307 50.2385 17.6952C50.3241 17.8596 50.3698 18.0418 50.3719 18.2271C50.3739 18.4123 50.3322 18.5955 50.2502 18.7617L50.133 18.996C50.0169 19.2225 49.8316 19.406 49.6039 19.5198C49.3763 19.6337 49.1183 19.6718 48.8674 19.6288L40.2307 18.0585C38.4252 17.7304 36.5753 17.7304 34.7698 18.0585L26.133 19.6288C25.8822 19.6718 25.6242 19.6337 25.3965 19.5198C25.1689 19.406 24.9835 19.2225 24.8674 18.996ZM26.9534 26.9531V21.8554L35.1916 20.3554C36.7189 20.0859 38.2816 20.0859 39.8088 20.3554L48.0471 21.8554V26.9531C48.0471 29.7503 46.9359 32.4329 44.958 34.4108C42.9801 36.3888 40.2974 37.4999 37.5002 37.4999C34.703 37.4999 32.0204 36.3888 30.0425 34.4108C28.0645 32.4329 26.9534 29.7503 26.9534 26.9531ZM41.0159 39.3515V43.3593C41.0159 44.2917 40.6455 45.1859 39.9862 45.8452C39.3268 46.5045 38.4326 46.8749 37.5002 46.8749C36.5678 46.8749 35.6736 46.5045 35.0143 45.8452C34.355 45.1859 33.9846 44.2917 33.9846 43.3593V39.3398C35.1265 39.6742 36.3103 39.8439 37.5002 39.8437C38.6891 39.8412 39.872 39.6756 41.0159 39.3515ZM30.469 45.3163L31.8635 44.8828C32.1938 46.1255 32.9256 47.2243 33.945 48.0082C34.9644 48.792 36.2143 49.217 37.5002 49.217C38.7862 49.217 40.036 48.792 41.0555 48.0082C42.0749 47.2243 42.8066 46.1255 43.137 44.8828L44.5315 45.3163V53.9062H30.469V45.3163ZM25.7815 46.7929L28.1252 46.0546V57.4218C28.1252 57.7326 28.0018 58.0307 27.782 58.2505C27.5622 58.4702 27.2642 58.5937 26.9534 58.5937C26.6426 58.5937 26.3445 58.4702 26.1247 58.2505C25.905 58.0307 25.7815 57.7326 25.7815 57.4218V46.7929ZM21.094 70.3124H15.2346V65.6249H21.094V70.3124ZM21.094 63.2812H14.0627C13.7519 63.2812 13.4539 63.1577 13.2341 62.938C13.0143 62.7182 12.8909 62.4201 12.8909 62.1093C12.8909 61.7985 13.0143 61.5004 13.2341 61.2807C13.4539 61.0609 13.7519 60.9374 14.0627 60.9374H21.094V63.2812ZM21.094 57.4218V58.5937H15.2346V57.832C15.2275 55.5819 15.9434 53.3891 17.2768 51.5767C18.6102 49.7644 20.4906 48.4283 22.6409 47.7656L23.4377 47.5195V54.1171C22.7548 54.3604 22.1635 54.8081 21.7441 55.3994C21.3247 55.9907 21.0977 56.6969 21.094 57.4218ZM51.5627 70.3124H23.4377V57.4218C23.4377 58.3542 23.8081 59.2484 24.4674 59.9077C25.1267 60.567 26.021 60.9374 26.9534 60.9374C27.8858 60.9374 28.78 60.567 29.4393 59.9077C30.0986 59.2484 30.469 58.3542 30.469 57.4218V56.2499H44.5315V57.4218C44.5315 58.3542 44.9019 59.2484 45.5612 59.9077C46.2205 60.567 47.1147 60.9374 48.0471 60.9374C48.9795 60.9374 49.8737 60.567 50.533 59.9077C51.1923 59.2484 51.5627 58.3542 51.5627 57.4218V70.3124ZM51.5627 54.1171V47.5195L52.3596 47.7773C54.51 48.436 56.3912 49.7694 57.725 51.5802C59.0589 53.391 59.7744 55.583 59.7659 57.832V58.5937H53.9065V57.4218C53.9028 56.6969 53.6758 55.9907 53.2564 55.3994C52.837 54.8081 52.2456 54.3604 51.5627 54.1171ZM59.7659 70.3124H53.9065V65.6249H59.7659V70.3124ZM60.9377 63.2812H53.9065V60.9374H60.9377C61.2485 60.9374 61.5466 61.0609 61.7664 61.2807C61.9861 61.5004 62.1096 61.7985 62.1096 62.1093C62.1096 62.4201 61.9861 62.7182 61.7664 62.938C61.5466 63.1577 61.2485 63.2812 60.9377 63.2812Z" fill="black"/>
</svg>
