<svg width="75" height="75" viewBox="0 0 75 75" fill="none" xmlns="http://www.w3.org/2000/svg">
<g clip-path="url(#clip0)">
<path d="M56.4219 35.0859C56.4219 36.1905 55.5264 37.0859 54.4219 37.0859H3C1.89543 37.0859 1 36.1905 1 35.0859V3C1 1.89543 1.89543 1 3 1H54.4219C55.5264 1 56.4219 1.89543 56.4219 3V35.0859Z" fill="#D7E0E4" stroke="black" stroke-width="2"/>
<path d="M55 2H28V36H55V2Z" fill="#CFD8DC"/>
<path d="M65.2109 43.9326C65.2109 45.0372 64.3155 45.9326 63.2109 45.9326H11.7891C10.6845 45.9326 9.78906 45.0372 9.78906 43.9326V11.8467C9.78906 10.7421 10.6845 9.84668 11.7891 9.84668H63.2109C64.3155 9.84668 65.2109 10.7421 65.2109 11.8467V43.9326Z" fill="#CBD6DB" stroke="black" stroke-width="2"/>
<path d="M64 11H38V45H64V11Z" fill="#BAC4C9"/>
<mask id="path-5-inside-1" fill="white">
<path fill-rule="evenodd" clip-rule="evenodd" d="M18 21C18 19.3431 19.3431 18 21 18H72C73.6569 18 75 19.3431 75 21V53C75 54.6569 73.6569 56 72 56H70.6758C69.0189 56 67.6758 57.3431 67.6758 59V67.6997C67.6758 70.3725 64.4444 71.711 62.5545 69.8211L49.6122 56.8787C49.0496 56.3161 48.2865 56 47.4908 56H21C19.3431 56 18 54.6569 18 53V21Z"/>
</mask>
<path fill-rule="evenodd" clip-rule="evenodd" d="M18 21C18 19.3431 19.3431 18 21 18H72C73.6569 18 75 19.3431 75 21V53C75 54.6569 73.6569 56 72 56H70.6758C69.0189 56 67.6758 57.3431 67.6758 59V67.6997C67.6758 70.3725 64.4444 71.711 62.5545 69.8211L49.6122 56.8787C49.0496 56.3161 48.2865 56 47.4908 56H21C19.3431 56 18 54.6569 18 53V21Z" fill="#FD5742"/>
<path d="M49.6122 56.8787L48.198 58.2929L49.6122 56.8787ZM62.5545 69.8211L63.9687 68.4068L62.5545 69.8211ZM72 16H21V20H72V16ZM77 53V21H73V53H77ZM70.6758 58H72V54H70.6758V58ZM65.6758 59V67.6997H69.6758V59H65.6758ZM63.9687 68.4068L51.0264 55.4645L48.198 58.2929L61.1403 71.2353L63.9687 68.4068ZM21 58H47.4908V54H21V58ZM16 21V53H20V21H16ZM21 54C20.4477 54 20 53.5523 20 53H16C16 55.7614 18.2386 58 21 58V54ZM51.0264 55.4645C50.0887 54.5268 48.8169 54 47.4908 54V58C47.7561 58 48.0104 58.1054 48.198 58.2929L51.0264 55.4645ZM65.6758 67.6997C65.6758 68.5907 64.5987 69.0368 63.9687 68.4068L61.1403 71.2353C64.2901 74.3851 69.6758 72.1543 69.6758 67.6997H65.6758ZM70.6758 54C67.9144 54 65.6758 56.2386 65.6758 59H69.6758C69.6758 58.4477 70.1235 58 70.6758 58V54ZM73 53C73 53.5523 72.5523 54 72 54V58C74.7614 58 77 55.7614 77 53H73ZM21 16C18.2386 16 16 18.2386 16 21H20C20 20.4477 20.4477 20 21 20V16ZM72 20C72.5523 20 73 20.4477 73 21H77C77 18.2386 74.7614 16 72 16V20Z" fill="black" mask="url(#path-5-inside-1)"/>
<path d="M47 52C47 53.1046 46.1046 54 45 54H22C20.8954 54 20 53.1046 20 52V22C20 20.8954 20.8954 20 22 20H45C46.1046 20 47 20.8954 47 22V52Z" fill="#FF6B58"/>
</g>
<defs>
<clipPath id="clip0">
<rect width="75" height="75" fill="white"/>
</clipPath>
</defs>
</svg>
