<svg width="75" height="75" viewBox="0 0 75 75" fill="none" xmlns="http://www.w3.org/2000/svg">
<g clip-path="url(#clip0)">
<path d="M28.8573 31.9334H4.541C2.84208 31.9334 1.46484 30.5562 1.46484 28.8573V4.541C1.46484 2.84208 2.84208 1.46484 4.541 1.46484H28.8573C30.5562 1.46484 31.9334 2.84208 31.9334 4.541V28.8573C31.9334 30.5562 30.5562 31.9334 28.8573 31.9334Z" fill="#FD5742"/>
<path d="M66.3573 31.9334H42.041C40.3421 31.9334 38.9648 30.5562 38.9648 28.8573V4.541C38.9648 2.84208 40.3421 1.46484 42.041 1.46484H66.3573C68.0562 1.46484 69.4334 2.84208 69.4334 4.541V28.8573C69.4334 30.5562 68.0562 31.9334 66.3573 31.9334Z" fill="#27C60D"/>
<path d="M70.0453 41.2265C68.7865 41.2265 67.6838 41.8931 67.0699 42.8923L66.5556 42.6947V42.1446C66.5556 40.2173 64.9932 38.6549 63.0659 38.6549C61.219 38.6549 59.7082 40.09 59.5853 41.9059L59.5673 41.9064C59.4448 40.0903 57.9337 38.6549 56.0867 38.6549C54.1594 38.6549 52.597 40.2173 52.597 42.1446V27.3388C52.597 25.4115 51.0346 23.8491 49.1074 23.8491C47.1801 23.8491 45.6177 25.4115 45.6177 27.3388V50.078L45.6131 50.0831L45.6124 46.2823L40.3148 54.0482C38.9051 56.1146 38.6921 58.7721 39.7545 61.0369L45.6178 73.5347H69.9496L71.9967 67.0065C73.0161 63.7558 73.5348 60.3689 73.5348 56.962V44.7161C73.5348 42.7889 71.9725 41.2265 70.0453 41.2265Z" fill="#FCCD9D"/>
<path d="M70.0451 39.7616C69.1917 39.7616 68.3881 39.9784 67.6864 40.36C66.9685 38.5076 65.1687 37.1901 63.0659 37.1901C61.706 37.1901 60.4724 37.7412 59.5762 38.6314C58.6801 37.7412 57.4467 37.1901 56.0867 37.1901C55.3656 37.1901 54.6806 37.3463 54.062 37.6244V33.3912C54.1071 33.3955 54.1528 33.3981 54.1991 33.3981H66.3573C68.8612 33.3981 70.8982 31.3611 70.8982 28.8571V22.5582C70.8982 21.7493 70.2423 21.0933 69.4334 21.0933C68.6245 21.0933 67.9686 21.7493 67.9686 22.5582V28.8573C67.9686 29.7457 67.2457 30.4686 66.3573 30.4686H54.1991C54.1528 30.4686 54.1073 30.4714 54.062 30.4755V27.3387C54.062 24.6069 51.8394 22.3843 49.1075 22.3843C46.3757 22.3843 44.1531 24.6069 44.1531 27.3387V30.4686H42.041C41.1526 30.4686 40.4297 29.7457 40.4297 28.8573V4.54099C40.4297 3.65257 41.1526 2.92967 42.041 2.92967H66.3573C67.2457 2.92967 67.9686 3.65257 67.9686 4.54099V10.8398C67.9686 11.6487 68.6245 12.3046 69.4334 12.3046C70.2423 12.3046 70.8982 11.6487 70.8982 10.8398V4.54099C70.8982 2.037 68.8612 0 66.3573 0H42.041C39.537 0 37.5 2.037 37.5 4.54099V28.8573C37.5 31.3612 39.537 33.3982 42.041 33.3982H44.1531V45.8227L39.105 53.2229C37.4112 55.7056 37.1523 58.9384 38.4286 61.6592L44.2917 74.1568C44.541 74.6881 45.0685 74.9999 45.619 74.9999C45.8273 74.9999 46.039 74.9552 46.2401 74.861C46.9725 74.5173 47.2876 73.645 46.9442 72.9126L41.0811 60.4149C40.2426 58.6278 40.4128 56.5046 41.5252 54.8739L44.1531 51.0215V53.7909C44.1531 54.5998 44.8091 55.2558 45.618 55.2558C46.4269 55.2558 47.0828 54.5998 47.0828 53.7909V27.3388C47.0828 26.2223 47.991 25.3141 49.1075 25.3141C50.224 25.3141 51.1323 26.2223 51.1323 27.3388V48.9754C51.1323 49.7843 51.7883 50.4403 52.5972 50.4403C53.4061 50.4403 54.062 49.7843 54.062 48.9754V42.1446C54.062 41.0281 54.9702 40.1199 56.0867 40.1199C57.2032 40.1199 58.1114 41.0281 58.1114 42.1446V48.9754C58.1114 49.7843 58.7674 50.4403 59.5762 50.4403C60.3851 50.4403 61.0411 49.7843 61.0411 48.9754V42.1446C61.0411 41.0281 61.9494 40.1199 63.0659 40.1199C64.1824 40.1199 65.0906 41.0281 65.0906 42.1446V48.9754C65.0906 49.7843 65.7466 50.4403 66.5554 50.4403C67.3643 50.4403 68.0203 49.7843 68.0203 48.9754V44.7161C68.0203 43.5997 68.9286 42.6914 70.0451 42.6914C71.1616 42.6914 72.0698 43.5997 72.0698 44.7161V56.9622C72.0698 60.2242 71.575 63.4561 70.599 66.5683L68.5517 73.0965C68.3097 73.8684 68.7392 74.6905 69.5112 74.9325C69.6571 74.9783 69.8047 75 69.9499 75C70.573 74.9999 71.1509 74.5991 71.3472 73.973L73.3945 67.4448C74.4595 64.0485 74.9995 60.5216 74.9995 56.962V44.716C74.9995 41.9842 72.777 39.7616 70.0451 39.7616Z" fill="black"/>
<path d="M28.8582 0H4.54197C2.03798 0 0.000976562 2.037 0.000976562 4.54099V28.8573C0.000976562 31.3612 2.03798 33.3982 4.54197 33.3982H10.8408C11.6496 33.3982 12.3056 32.7423 12.3056 31.9334C12.3056 31.1245 11.6496 30.4686 10.8408 30.4686H4.54197C3.65354 30.4686 2.93065 29.7457 2.93065 28.8573V4.54099C2.93065 3.65257 3.65354 2.92967 4.54197 2.92967H28.8582C29.7467 2.92967 30.4695 3.65257 30.4695 4.54099V28.8573C30.4695 29.7457 29.7467 30.4686 28.8582 30.4686H22.5594C21.7506 30.4686 21.0946 31.1245 21.0946 31.9334C21.0946 32.7423 21.7506 33.3982 22.5594 33.3982H28.8582C31.3622 33.3982 33.3992 31.3612 33.3992 28.8573V4.54099C33.3992 2.037 31.3622 0 28.8582 0Z" fill="black"/>
<path d="M22.8796 22.8795C23.4517 22.3075 23.4517 21.3799 22.8796 20.8078L18.7709 16.6993L22.8796 12.5907C23.4517 12.0187 23.4517 11.0912 22.8796 10.519C22.3076 9.94727 21.3804 9.94697 20.8079 10.519L16.6992 14.6276L12.5906 10.519C12.0184 9.94712 11.0912 9.94712 10.5189 10.519C9.94684 11.091 9.94684 12.0186 10.5189 12.5907L14.6276 16.6993L10.5189 20.8079C9.94684 21.3799 9.94684 22.3075 10.5189 22.8796C10.8049 23.1656 11.1798 23.3087 11.5547 23.3087C11.9295 23.3087 12.3044 23.1656 12.5904 22.8796L16.6992 18.771L20.8079 22.8796C21.094 23.1656 21.4689 23.3087 21.8437 23.3087C22.2186 23.3087 22.5936 23.1656 22.8796 22.8795Z" fill="black"/>
<path d="M60.708 9.55781L53.4083 16.8576L50.3435 13.7928C49.7713 13.2209 48.8441 13.2209 48.2718 13.7928C47.6998 14.3648 47.6998 15.2924 48.2718 15.8646L52.3723 19.9651C52.6584 20.251 53.0333 20.3941 53.4081 20.3941C53.783 20.3941 54.1578 20.251 54.4439 19.9651L62.7794 11.6295C63.3515 11.0575 63.3515 10.13 62.7794 9.55781C62.2074 8.98594 61.2802 8.98594 60.708 9.55781Z" fill="black"/>
<path d="M16.6992 30.468C16.314 30.468 15.936 30.6248 15.6636 30.8974C15.3911 31.1697 15.2344 31.5476 15.2344 31.9329C15.2344 32.3181 15.391 32.696 15.6636 32.9685C15.936 33.2424 16.314 33.3977 16.6992 33.3977C17.0845 33.3977 17.4624 33.2424 17.7347 32.9685C18.0072 32.696 18.1641 32.3181 18.1641 31.9329C18.1641 31.5476 18.0073 31.1697 17.7347 30.8974C17.4624 30.6248 17.0845 30.468 16.6992 30.468Z" fill="black"/>
<path d="M69.4331 15.2336C69.0479 15.2336 68.6699 15.3904 68.3975 15.663C68.125 15.9353 67.9683 16.3132 67.9683 16.6985C67.9683 17.0854 68.1249 17.4617 68.3975 17.7341C68.6699 18.0081 69.0479 18.1633 69.4331 18.1633C69.8184 18.1633 70.1963 18.0081 70.4686 17.7341C70.7411 17.4617 70.8979 17.0837 70.8979 16.6985C70.8979 16.3132 70.7412 15.9353 70.4686 15.663C70.1963 15.3904 69.8184 15.2336 69.4331 15.2336Z" fill="black"/>
</g>
<defs>
<clipPath id="clip0">
<rect width="75" height="75" fill="white"/>
</clipPath>
</defs>
</svg>
