<svg width="112" height="177" viewBox="0 0 112 177" fill="none" xmlns="http://www.w3.org/2000/svg">
<path d="M100.906 8.261C85.02 22.526 71.301 21.778 62.724 15.173C54.156 31.684 40.436 48.265 24.551 52.342L15.481 76.84C15.481 76.84 20.342 82.44 20.342 95.843C20.342 101.884 19.417 107.194 18.096 112.468C16.441 119.081 14.31 125.923 14.31 137.344C14.31 145.093 15.331 152.622 19.25 159.473C21.513 163.436 24.78 166.791 29.183 169.424C26.251 167.733 17.621 162.749 15.393 161.464C10.726 158.778 7.292 155.326 4.94 151.214C1.021 144.354 0 136.834 0 129.085C0 117.664 2.131 110.822 3.786 104.2C5.107 98.934 6.04 93.624 6.04 87.583C6.04 74.181 1.179 68.58 1.179 68.58L10.24 44.082C26.126 40.005 39.845 23.424 48.413 6.913C56.99 13.517 70.709 14.266 86.595 0L100.906 8.261Z" fill="#27C60D"/>
<path opacity="0.8" d="M53.445 9.81706L48.416 6.91406C49.935 8.08406 51.619 9.06506 53.445 9.81706Z" fill="white"/>
<path opacity="0.85" d="M86.597 0.000976562C73.526 11.739 61.924 13.307 53.445 9.81698L62.725 15.174C71.302 21.778 85.021 22.527 100.907 8.26198L86.597 0.000976562Z" fill="white"/>
<path opacity="0.65" d="M48.415 6.91406C39.847 23.4251 26.128 40.0061 10.242 44.0831L24.551 52.3431C40.437 48.2661 54.156 31.6851 62.724 15.1741L48.415 6.91406Z" fill="white"/>
<path opacity="0.55" d="M10.242 44.083L1.181 68.58L15.482 76.84L24.552 52.343L10.242 44.083Z" fill="white"/>
<path opacity="0.4" d="M19.251 159.474C15.332 152.623 14.311 145.094 14.311 137.345C14.311 125.924 16.442 119.082 18.097 112.469C19.418 107.194 20.343 101.884 20.343 95.8441C20.343 82.4421 15.482 76.8411 15.482 76.8411L1.18102 68.5811C1.18102 68.5811 6.04202 74.1821 6.04202 87.5841C6.04202 93.6251 5.10802 98.9351 3.78802 104.201C2.13302 110.823 0.00201416 117.665 0.00201416 129.086C0.00201416 136.835 1.02302 144.355 4.94202 151.215C7.29302 155.327 10.727 158.779 15.395 161.465C17.623 162.751 26.252 167.735 29.185 169.425C24.781 166.791 21.514 163.436 19.251 159.474Z" fill="white"/>
<path opacity="0.05" d="M19.251 159.474C15.332 152.623 14.311 145.094 14.311 137.345C14.311 125.924 16.442 119.082 18.097 112.469C19.418 107.194 20.343 101.884 20.343 95.8441C20.343 82.4421 15.482 76.8411 15.482 76.8411L1.18102 68.5811C1.18102 68.5811 6.04202 74.1821 6.04202 87.5841C6.04202 93.6251 5.10802 98.9351 3.78802 104.201C2.13302 110.823 0.00201416 117.665 0.00201416 129.086C0.00201416 136.835 1.02302 144.355 4.94202 151.215C7.29302 155.327 10.727 158.779 15.395 161.465C17.623 162.751 26.252 167.735 29.185 169.425C24.781 166.791 21.514 163.436 19.251 159.474Z" fill="black"/>
<path d="M62.727 176.253C39 176.516 25.409 170.259 19.248 159.472C15.333 152.619 14.312 145.092 14.312 137.343C14.312 125.923 16.437 119.084 18.095 112.465C19.415 107.197 20.346 101.884 20.346 95.8468C20.346 82.4448 15.485 76.8438 15.485 76.8438L24.55 52.3418C40.435 48.2648 54.154 31.6808 62.727 15.1698C71.3 21.7808 85.019 22.5238 100.904 8.25879L109.969 22.2938C109.969 22.2938 105.108 33.5068 105.108 46.9098C105.108 52.9458 106.039 57.1848 107.359 60.9278C109.017 65.6318 111.142 70.0188 111.142 81.4378C111.142 89.1858 110.121 97.8918 106.206 109.266C100.046 127.167 86.454 149.118 62.727 176.253Z" fill="#27C60D"/>
<path opacity="0.75" d="M62.727 176.253C39 176.516 25.409 170.259 19.248 159.472C15.333 152.619 14.312 145.092 14.312 137.343C14.312 125.923 16.437 119.084 18.095 112.465C19.415 107.197 20.346 101.884 20.346 95.8468C20.346 82.4448 15.485 76.8438 15.485 76.8438L24.55 52.3418C40.435 48.2648 54.154 31.6808 62.727 15.1698C71.3 21.7808 85.019 22.5238 100.904 8.25879L109.969 22.2938C109.969 22.2938 105.108 33.5068 105.108 46.9098C105.108 52.9458 106.039 57.1848 107.359 60.9278C109.017 65.6318 111.142 70.0188 111.142 81.4378C111.142 89.1858 110.121 97.8918 106.206 109.266C100.046 127.167 86.454 149.118 62.727 176.253Z" fill="white"/>
<path opacity="0.75" d="M59.918 170.088C41.539 169.87 29.66 165.273 24.6 156.415C21.748 151.421 20.477 145.539 20.477 137.343C20.477 127.964 22.015 121.987 23.502 116.206C23.696 115.451 23.889 114.705 24.075 113.961C25.76 107.237 26.511 101.65 26.511 95.8461C26.511 86.0821 24.171 79.6881 22.315 76.1511L29.271 57.3491C46.274 51.4381 58.562 34.6511 65.073 23.6391C68.535 25.1171 72.282 25.8821 76.166 25.8821C83.849 25.8821 91.658 23.0231 99.451 17.3691L103.107 23.0281C101.521 27.6161 98.946 36.6461 98.946 46.9091C98.946 52.9161 99.748 57.8711 101.546 62.9761C101.738 63.5191 101.935 64.0571 102.133 64.6001C103.597 68.5951 104.978 72.3701 104.978 81.4381C104.978 90.0531 103.559 98.0171 100.378 107.259C94.314 124.88 80.706 146.009 59.918 170.088Z" fill="#27C60D"/>
<path opacity="0.4" d="M59.918 170.088C41.539 169.87 29.66 165.273 24.6 156.415C21.748 151.421 20.477 145.539 20.477 137.343C20.477 127.964 22.015 121.987 23.502 116.206C23.696 115.451 23.889 114.705 24.075 113.961C25.76 107.237 26.511 101.65 26.511 95.8461C26.511 86.0821 24.171 79.6881 22.315 76.1511L29.271 57.3491C46.274 51.4381 58.562 34.6511 65.073 23.6391C68.535 25.1171 72.282 25.8821 76.166 25.8821C83.849 25.8821 91.658 23.0231 99.451 17.3691L103.107 23.0281C101.521 27.6161 98.946 36.6461 98.946 46.9091C98.946 52.9161 99.748 57.8711 101.546 62.9761C101.738 63.5191 101.935 64.0571 102.133 64.6001C103.597 68.5951 104.978 72.3701 104.978 81.4381C104.978 90.0531 103.559 98.0171 100.378 107.259C94.314 124.88 80.706 146.009 59.918 170.088Z" fill="white"/>
<path opacity="0.15" d="M59.918 170.088C41.539 169.87 29.66 165.273 24.6 156.415C21.748 151.421 20.477 145.539 20.477 137.343C20.477 127.964 22.015 121.987 23.502 116.206C23.696 115.451 23.889 114.705 24.075 113.961C25.76 107.237 26.511 101.65 26.511 95.8461C26.511 86.0821 24.171 79.6881 22.315 76.1511L29.271 57.3491C46.274 51.4381 58.562 34.6511 65.073 23.6391C68.535 25.1171 72.282 25.8821 76.166 25.8821C83.849 25.8821 91.658 23.0231 99.451 17.3691L103.107 23.0281C101.521 27.6161 98.946 36.6461 98.946 46.9091C98.946 52.9161 99.748 57.8711 101.546 62.9761C101.738 63.5191 101.935 64.0571 102.133 64.6001C103.597 68.5951 104.978 72.3701 104.978 81.4381C104.978 90.0531 103.559 98.0171 100.378 107.259C94.314 124.88 80.706 146.009 59.918 170.088Z" fill="black"/>
<path opacity="0.8" d="M28.81 161.511C35.07 167.031 45.478 169.918 59.918 170.089L50.703 164.84C42.458 164.79 35.123 163.724 28.81 161.511Z" fill="white"/>
<path opacity="0.15" d="M98.307 20.2601L103.106 23.0291L99.45 17.3691L97.367 18.8051L98.307 20.2601Z" fill="black"/>
<path d="M96.746 60.2077C94.948 55.1027 94.146 50.1467 94.146 44.1407C94.146 33.8777 96.722 24.8477 98.307 20.2597L97.368 18.8057C90.268 23.5027 83.164 25.8827 76.166 25.8827C72.282 25.8827 68.535 25.1187 65.073 23.6397C58.562 34.6517 46.274 51.4387 29.271 57.3497L22.315 76.1517C24.172 79.6887 26.511 86.0837 26.511 95.8467C26.511 101.652 25.759 107.239 24.075 113.962C23.889 114.705 23.697 115.451 23.502 116.207C22.015 121.988 20.477 127.965 20.477 137.344C20.477 145.54 21.749 151.422 24.6 156.416C26.039 158.935 28.049 161.097 30.583 162.924C36.725 165.724 44.916 167.199 55.119 167.32C75.907 143.241 89.516 122.111 95.579 104.492C98.76 95.2487 100.179 87.2847 100.179 78.6707C100.179 69.6027 98.797 65.8287 97.333 61.8327C97.135 61.2887 96.938 60.7517 96.746 60.2077Z" fill="#2E2F2F"/>
<path d="M29.27 57.3497L22.314 76.1516C24.171 79.6886 26.51 86.0836 26.51 95.8466C26.51 101.652 25.758 107.239 24.074 113.962C23.888 114.705 23.696 115.451 23.501 116.207C22.014 121.988 20.476 127.965 20.476 137.344C20.476 145.54 21.748 151.422 24.599 156.416C26.038 158.935 28.048 161.097 30.582 162.924C36.724 165.724 44.915 167.199 55.118 167.32V98.0387L65.071 95.0287V23.6396C62.289 28.3866 59.015 33.1346 55.118 37.8816C48.466 45.9046 39.768 53.7007 29.27 57.3497Z" fill="#0B0B0B"/>
<path d="M79.142 72.436C79.046 72.249 78.918 72.068 78.765 71.891C78.748 71.872 78.736 71.8519 78.718 71.8329C78.453 71.5419 78.108 71.2679 77.684 71.0229L74.349 69.097C73.784 68.771 73.13 68.5259 72.433 68.3619C72.038 68.2689 71.627 68.2099 71.212 68.1699V58.3059C71.212 53.3609 69.343 49.446 66.084 47.564C62.974 45.768 59.128 46.012 55.253 48.249C48.136 52.358 42.561 62.3849 42.561 71.0749V82.72L35.928 86.55C35.718 86.671 35.535 86.801 35.364 86.934C35.304 86.981 35.24 87.0269 35.185 87.0749C35.171 87.0869 35.16 87.101 35.145 87.113C34.536 87.662 34.23 88.29 34.231 88.919V128.845C34.23 129.017 34.259 129.189 34.304 129.36C34.456 129.941 34.872 130.503 35.556 130.979C35.672 131.06 35.794 131.14 35.926 131.215L37.548 132.152L39.264 133.144C39.886 133.505 40.623 133.754 41.405 133.914C43.448 134.336 45.815 134.085 47.451 133.14L77.683 115.686C78.814 115.033 79.379 114.177 79.379 113.321V73.386C79.381 73.068 79.301 72.746 79.142 72.436ZM49.094 71.0769C49.094 64.7209 53.411 56.8589 58.519 53.9089C60.261 52.9029 61.827 52.6539 62.817 53.2239C63.982 53.8969 64.678 55.797 64.678 58.307V69.9519L56.081 74.916L49.095 78.9499V71.0769H49.094Z" fill="black"/>
<path d="M82.903 75.1484C82.903 74.2924 82.338 73.4364 81.207 72.7834L77.872 70.8574C75.61 69.5514 71.942 69.5514 69.68 70.8574L39.449 88.3114C38.317 88.9654 37.752 89.8224 37.753 90.6794V130.606C37.75 131.464 38.315 132.322 39.449 132.977L42.783 134.902C45.045 136.208 48.713 136.208 50.975 134.902L81.207 117.448C82.338 116.795 82.903 115.939 82.903 115.083V75.1484Z" fill="#27C60D"/>
<path opacity="0.4" d="M42.783 94.9674L39.449 93.0424C37.187 91.7364 37.187 89.6184 39.449 88.3124L69.679 70.8584C71.941 69.5524 75.609 69.5524 77.871 70.8584L81.206 72.7844C83.468 74.0904 83.468 76.2084 81.206 77.5144L50.974 94.9684C48.713 96.2734 45.045 96.2734 42.783 94.9674Z" fill="white"/>
<path opacity="0.1" d="M46.884 95.9457V135.882C45.399 135.882 43.914 135.56 42.788 134.908L39.449 132.979C38.314 132.326 37.746 131.465 37.756 130.605V90.6777C37.756 91.5387 38.314 92.3897 39.449 93.0427L42.788 94.9727C43.913 95.6237 45.398 95.9457 46.884 95.9457Z" fill="black"/>
<path d="M68.883 115.7L61.665 119.867L62.783 106.809C61.92 106.353 61.369 105.229 61.369 103.616C61.369 100.741 63.117 97.401 65.274 96.156C67.43 94.911 69.178 96.233 69.178 99.108C69.178 100.721 68.628 102.48 67.764 103.933L68.883 115.7Z" fill="#2E2F2F"/>
<path d="M68.883 115.7L62.345 111.925L61.665 119.867L68.883 115.7Z" fill="#0B0B0B"/>
<path d="M65.274 96.1556C63.863 96.9706 62.631 98.6825 61.945 100.575L67.765 103.935V103.933C68.628 102.48 69.179 100.721 69.179 99.1076C69.178 96.2326 67.43 94.9116 65.274 96.1556Z" fill="#0B0B0B"/>
<path d="M74.734 64.0396C74.734 64.0376 74.735 64.0367 74.735 64.0347L74.734 60.0687C74.734 55.1237 72.865 51.2086 69.607 49.3266C66.497 47.5306 62.651 47.7746 58.776 50.0116C51.659 54.1206 46.084 64.1477 46.084 72.8387V88.8927H46.083C46.083 89.3747 46.405 89.8577 47.042 90.2257C48.317 90.9617 50.384 90.9617 51.659 90.2257C52.296 89.8577 52.618 89.3757 52.618 88.8927V72.8387C52.618 66.4827 56.934 58.6207 62.043 55.6707C63.785 54.6647 65.351 54.4156 66.341 54.9856C67.506 55.6586 68.202 57.5587 68.202 60.0687V64.0347V64.0367V64.0457C68.207 64.5247 68.528 65.0017 69.16 65.3667C70.435 66.1027 72.502 66.1027 73.777 65.3667C74.41 65.0017 74.73 64.5237 74.735 64.0457H74.736V64.0396H74.734Z" fill="#E0E0E0"/>
</svg>
