<svg width="162" height="177" viewBox="0 0 162 177" fill="none" xmlns="http://www.w3.org/2000/svg">
<path d="M100.906 8.261C85.02 22.526 71.301 21.778 62.724 15.173C54.156 31.684 40.436 48.265 24.551 52.342L15.481 76.84C15.481 76.84 20.342 82.44 20.342 95.843C20.342 101.884 19.417 107.194 18.096 112.468C16.441 119.081 14.31 125.923 14.31 137.344C14.31 145.093 15.331 152.622 19.25 159.473C21.513 163.436 24.78 166.791 29.183 169.424C26.251 167.733 17.621 162.749 15.393 161.464C10.726 158.778 7.292 155.326 4.94 151.214C1.021 144.354 0 136.834 0 129.085C0 117.664 2.131 110.822 3.786 104.2C5.107 98.934 6.04 93.624 6.04 87.583C6.04 74.181 1.179 68.58 1.179 68.58L10.24 44.082C26.126 40.005 39.845 23.424 48.413 6.913C56.99 13.517 70.709 14.266 86.595 0L100.906 8.261Z" fill="#FD5742"/>
<path opacity="0.8" d="M53.445 9.81706L48.416 6.91406C49.935 8.08406 51.619 9.06506 53.445 9.81706Z" fill="white"/>
<path opacity="0.85" d="M86.5971 0.000976562C73.5261 11.739 61.9241 13.307 53.4451 9.81698L62.7251 15.174C71.3021 21.778 85.0211 22.527 100.907 8.26198L86.5971 0.000976562Z" fill="white"/>
<path opacity="0.65" d="M48.4149 6.91406C39.8469 23.4251 26.1279 40.0061 10.2419 44.0831L24.5509 52.3431C40.4369 48.2661 54.156 31.6851 62.724 15.1741L48.4149 6.91406Z" fill="white"/>
<path opacity="0.55" d="M10.2419 44.083L1.18091 68.58L15.4819 76.84L24.5519 52.343L10.2419 44.083Z" fill="white"/>
<path opacity="0.4" d="M19.251 159.474C15.332 152.623 14.311 145.094 14.311 137.345C14.311 125.924 16.442 119.082 18.097 112.469C19.418 107.194 20.343 101.884 20.343 95.8441C20.343 82.4421 15.482 76.8411 15.482 76.8411L1.18095 68.5811C1.18095 68.5811 6.04195 74.1821 6.04195 87.5841C6.04195 93.6251 5.10796 98.9351 3.78796 104.201C2.13296 110.823 0.00195312 117.665 0.00195312 129.086C0.00195312 136.835 1.02296 144.355 4.94196 151.215C7.29296 155.327 10.727 158.779 15.395 161.465C17.623 162.751 26.252 167.735 29.185 169.425C24.781 166.791 21.514 163.436 19.251 159.474Z" fill="white"/>
<path opacity="0.05" d="M19.251 159.474C15.332 152.623 14.311 145.094 14.311 137.345C14.311 125.924 16.442 119.082 18.097 112.469C19.418 107.194 20.343 101.884 20.343 95.8441C20.343 82.4421 15.482 76.8411 15.482 76.8411L1.18095 68.5811C1.18095 68.5811 6.04195 74.1821 6.04195 87.5841C6.04195 93.6251 5.10796 98.9351 3.78796 104.201C2.13296 110.823 0.00195312 117.665 0.00195312 129.086C0.00195312 136.835 1.02296 144.355 4.94196 151.215C7.29296 155.327 10.727 158.779 15.395 161.465C17.623 162.751 26.252 167.735 29.185 169.425C24.781 166.791 21.514 163.436 19.251 159.474Z" fill="black"/>
<path d="M62.727 176.253C39 176.516 25.409 170.259 19.248 159.472C15.333 152.619 14.312 145.092 14.312 137.343C14.312 125.923 16.437 119.084 18.095 112.465C19.415 107.197 20.346 101.884 20.346 95.8468C20.346 82.4448 15.485 76.8438 15.485 76.8438L24.55 52.3418C40.435 48.2648 54.154 31.6808 62.727 15.1698C71.3 21.7808 85.019 22.5238 100.904 8.25879L109.969 22.2938C109.969 22.2938 105.108 33.5068 105.108 46.9098C105.108 52.9458 106.039 57.1848 107.359 60.9278C109.017 65.6318 111.142 70.0188 111.142 81.4378C111.142 89.1858 110.121 97.8918 106.206 109.266C100.046 127.167 86.454 149.118 62.727 176.253Z" fill="#FD5742"/>
<path opacity="0.75" d="M62.727 176.253C39 176.516 25.409 170.259 19.248 159.472C15.333 152.619 14.312 145.092 14.312 137.343C14.312 125.923 16.437 119.084 18.095 112.465C19.415 107.197 20.346 101.884 20.346 95.8468C20.346 82.4448 15.485 76.8438 15.485 76.8438L24.55 52.3418C40.435 48.2648 54.154 31.6808 62.727 15.1698C71.3 21.7808 85.019 22.5238 100.904 8.25879L109.969 22.2938C109.969 22.2938 105.108 33.5068 105.108 46.9098C105.108 52.9458 106.039 57.1848 107.359 60.9278C109.017 65.6318 111.142 70.0188 111.142 81.4378C111.142 89.1858 110.121 97.8918 106.206 109.266C100.046 127.167 86.454 149.118 62.727 176.253Z" fill="white"/>
<path opacity="0.75" d="M59.9181 170.088C41.5391 169.87 29.6601 165.273 24.6001 156.415C21.7481 151.421 20.4771 145.539 20.4771 137.343C20.4771 127.964 22.0151 121.987 23.5021 116.206C23.6961 115.451 23.8891 114.705 24.0751 113.961C25.7601 107.237 26.5111 101.65 26.5111 95.8456C26.5111 86.0816 24.1711 79.6876 22.3151 76.1507L29.2711 57.3486C46.2741 51.4376 58.5621 34.6507 65.0731 23.6386C68.5351 25.1166 72.2821 25.8816 76.1661 25.8816C83.8491 25.8816 91.6581 23.0227 99.451 17.3687L103.107 23.0276C101.521 27.6156 98.9461 36.6456 98.9461 46.9086C98.9461 52.9156 99.7481 57.8706 101.546 62.9756C101.738 63.5186 101.935 64.0567 102.133 64.5997C103.597 68.5947 104.978 72.3697 104.978 81.4377C104.978 90.0527 103.559 98.0167 100.378 107.259C94.314 124.88 80.7061 146.009 59.9181 170.088Z" fill="#FD5742"/>
<path opacity="0.4" d="M59.9181 170.088C41.5391 169.87 29.6601 165.273 24.6001 156.415C21.7481 151.421 20.4771 145.539 20.4771 137.343C20.4771 127.964 22.0151 121.987 23.5021 116.206C23.6961 115.451 23.8891 114.705 24.0751 113.961C25.7601 107.237 26.5111 101.65 26.5111 95.8456C26.5111 86.0816 24.1711 79.6876 22.3151 76.1507L29.2711 57.3486C46.2741 51.4376 58.5621 34.6507 65.0731 23.6386C68.5351 25.1166 72.2821 25.8816 76.1661 25.8816C83.8491 25.8816 91.6581 23.0227 99.451 17.3687L103.107 23.0276C101.521 27.6156 98.9461 36.6456 98.9461 46.9086C98.9461 52.9156 99.7481 57.8706 101.546 62.9756C101.738 63.5186 101.935 64.0567 102.133 64.5997C103.597 68.5947 104.978 72.3697 104.978 81.4377C104.978 90.0527 103.559 98.0167 100.378 107.259C94.314 124.88 80.7061 146.009 59.9181 170.088Z" fill="white"/>
<path opacity="0.15" d="M59.9181 170.088C41.5391 169.87 29.6601 165.273 24.6001 156.415C21.7481 151.421 20.4771 145.539 20.4771 137.343C20.4771 127.964 22.0151 121.987 23.5021 116.206C23.6961 115.451 23.8891 114.705 24.0751 113.961C25.7601 107.237 26.5111 101.65 26.5111 95.8456C26.5111 86.0816 24.1711 79.6876 22.3151 76.1507L29.2711 57.3486C46.2741 51.4376 58.5621 34.6507 65.0731 23.6386C68.5351 25.1166 72.2821 25.8816 76.1661 25.8816C83.8491 25.8816 91.6581 23.0227 99.451 17.3687L103.107 23.0276C101.521 27.6156 98.9461 36.6456 98.9461 46.9086C98.9461 52.9156 99.7481 57.8706 101.546 62.9756C101.738 63.5186 101.935 64.0567 102.133 64.5997C103.597 68.5947 104.978 72.3697 104.978 81.4377C104.978 90.0527 103.559 98.0167 100.378 107.259C94.314 124.88 80.7061 146.009 59.9181 170.088Z" fill="black"/>
<path opacity="0.8" d="M28.8101 161.511C35.0701 167.031 45.4781 169.918 59.9181 170.089L50.7031 164.84C42.4581 164.79 35.1231 163.724 28.8101 161.511Z" fill="white"/>
<path opacity="0.15" d="M98.3069 20.2597L103.106 23.0286L99.45 17.3687L97.3669 18.8046L98.3069 20.2597Z" fill="black"/>
<path d="M96.746 60.2081C94.9481 55.1031 94.1461 50.1472 94.1461 44.1412C94.1461 33.8782 96.7221 24.8482 98.3071 20.2602L97.3681 18.8062C90.2681 23.5032 83.1641 25.8832 76.1661 25.8832C72.2821 25.8832 68.5351 25.1192 65.0731 23.6402C58.5621 34.6522 46.2741 51.4392 29.2711 57.3502L22.3151 76.1521C24.1721 79.6891 26.5111 86.0842 26.5111 95.8472C26.5111 101.652 25.7591 107.239 24.0751 113.962C23.8891 114.705 23.6971 115.451 23.5021 116.207C22.0151 121.988 20.4771 127.965 20.4771 137.344C20.4771 145.54 21.7491 151.422 24.6001 156.416C26.0391 158.935 28.0491 161.097 30.5831 162.924C36.7251 165.724 44.916 167.199 55.119 167.32C75.9071 143.241 89.5161 122.111 95.5791 104.492C98.7601 95.2492 100.179 87.2852 100.179 78.6712C100.179 69.6032 98.7971 65.8291 97.3331 61.8331C97.1351 61.2891 96.938 60.7521 96.746 60.2081Z" fill="#2E2F2F"/>
<path d="M29.2701 57.3501L22.3141 76.1521C24.1711 79.6891 26.5101 86.0841 26.5101 95.8471C26.5101 101.652 25.7581 107.239 24.0741 113.962C23.8881 114.705 23.6961 115.451 23.5011 116.207C22.0141 121.988 20.4761 127.965 20.4761 137.344C20.4761 145.54 21.7481 151.422 24.5991 156.416C26.0381 158.935 28.0481 161.097 30.5821 162.924C36.7241 165.724 44.9151 167.199 55.1181 167.32V98.0391L65.0711 95.0291V23.6401C62.2891 28.3871 59.0151 33.1351 55.1181 37.8821C48.4661 45.9051 39.7681 53.7011 29.2701 57.3501Z" fill="#0B0B0B"/>
<path d="M79.142 72.436C79.046 72.249 78.918 72.068 78.765 71.891C78.748 71.872 78.736 71.8519 78.718 71.8329C78.453 71.5419 78.108 71.2679 77.684 71.0229L74.349 69.097C73.784 68.771 73.13 68.5259 72.433 68.3619C72.038 68.2689 71.627 68.2099 71.212 68.1699V58.3059C71.212 53.3609 69.343 49.446 66.084 47.564C62.974 45.768 59.128 46.012 55.253 48.249C48.136 52.358 42.561 62.3849 42.561 71.0749V82.72L35.928 86.55C35.718 86.671 35.535 86.801 35.364 86.934C35.304 86.981 35.24 87.0269 35.185 87.0749C35.171 87.0869 35.16 87.101 35.145 87.113C34.536 87.662 34.23 88.29 34.231 88.919V128.845C34.23 129.017 34.259 129.189 34.304 129.36C34.456 129.941 34.872 130.503 35.556 130.979C35.672 131.06 35.794 131.14 35.926 131.215L37.548 132.152L39.264 133.144C39.886 133.505 40.623 133.754 41.405 133.914C43.448 134.336 45.815 134.085 47.451 133.14L77.683 115.686C78.814 115.033 79.379 114.177 79.379 113.321V73.386C79.381 73.068 79.301 72.746 79.142 72.436ZM49.094 71.0769C49.094 64.7209 53.411 56.8589 58.519 53.9089C60.261 52.9029 61.827 52.6539 62.817 53.2239C63.982 53.8969 64.678 55.797 64.678 58.307V69.9519L56.081 74.916L49.095 78.9499V71.0769H49.094Z" fill="black"/>
<path d="M82.903 75.1489C82.903 74.2929 82.3379 73.4369 81.2069 72.7839L77.8719 70.8579C75.6099 69.5519 71.9419 69.5519 69.6799 70.8579L39.4489 88.3119C38.3169 88.9659 37.7519 89.8229 37.7529 90.6799V130.607C37.7499 131.465 38.3149 132.323 39.4489 132.978L42.7829 134.903C45.0449 136.209 48.7129 136.209 50.9749 134.903L81.2069 117.449C82.3379 116.796 82.903 115.94 82.903 115.084V75.1489Z" fill="#FD5742"/>
<path opacity="0.4" d="M42.7829 94.9679L39.4489 93.0429C37.1869 91.7369 37.1869 89.6189 39.4489 88.3129L69.6789 70.8589C71.9409 69.5529 75.6089 69.5529 77.8709 70.8589L81.2059 72.7849C83.4679 74.0909 83.4679 76.2089 81.2059 77.5149L50.974 94.9689C48.713 96.2739 45.0449 96.2739 42.7829 94.9679Z" fill="white"/>
<path opacity="0.1" d="M46.884 95.9462V135.882C45.399 135.882 43.914 135.56 42.788 134.908L39.449 132.979C38.314 132.326 37.746 131.465 37.756 130.605V90.6782C37.756 91.5392 38.314 92.3902 39.449 93.0432L42.788 94.9732C43.913 95.6242 45.398 95.9462 46.884 95.9462Z" fill="black"/>
<path d="M68.8829 115.7L61.6649 119.867L62.7829 106.809C61.9199 106.353 61.3689 105.229 61.3689 103.616C61.3689 100.741 63.1169 97.401 65.2739 96.156C67.4299 94.911 69.1779 96.233 69.1779 99.108C69.1779 100.721 68.6279 102.48 67.7639 103.933L68.8829 115.7Z" fill="#2E2F2F"/>
<path d="M68.8828 115.7L62.3448 111.925L61.6648 119.867L68.8828 115.7Z" fill="#0B0B0B"/>
<path d="M65.2738 96.156C63.8628 96.971 62.6308 98.683 61.9448 100.575L67.7648 103.935V103.933C68.6278 102.48 69.1788 100.721 69.1788 99.108C69.1778 96.233 67.4298 94.912 65.2738 96.156Z" fill="#0B0B0B"/>
<path d="M74.734 76.0401C74.734 76.0381 74.735 76.0371 74.735 76.0351H74.734V60.0691C74.734 55.1241 72.865 51.2091 69.607 49.3271C66.497 47.5311 62.651 47.7751 58.776 50.0121C51.659 54.1211 46.084 64.1481 46.084 72.8391V88.8931H46.083C46.083 89.3751 46.405 89.8581 47.042 90.2261C48.317 90.9621 50.384 90.9621 51.659 90.2261C52.296 89.8581 52.618 89.3761 52.618 88.8931V72.8391C52.618 66.4831 56.934 58.6211 62.043 55.6711C63.785 54.6651 65.351 54.4161 66.341 54.9861C67.506 55.6591 68.202 57.5591 68.202 60.0691V76.0351C68.202 76.0361 68.202 76.0361 68.202 76.0371V76.0461H68.203C68.208 76.5251 68.528 77.0021 69.16 77.3671C70.435 78.1031 72.502 78.1031 73.777 77.3671C74.41 77.0021 74.73 76.5241 74.735 76.0461H74.736V76.0401H74.734Z" fill="#E0E0E0"/>
<path d="M101.576 122.688L105.976 120.148L107.72 118.036L103.32 120.576L101.576 122.688Z" fill="#FD5742"/>
<path opacity="0.4" d="M101.576 122.688L105.976 120.148L107.72 118.036L103.32 120.576L101.576 122.688Z" fill="black"/>
<path d="M113.55 129.601L117.95 127.061L121.628 123.806L117.228 126.346L113.55 129.601Z" fill="#FD5742"/>
<path opacity="0.4" d="M113.55 129.601L117.95 127.061L121.628 123.806L117.228 126.346L113.55 129.601Z" fill="black"/>
<path d="M150.963 138.379C151.928 139.606 152.631 141.409 152.782 143.168C151.817 141.941 151.114 140.138 150.963 138.379ZM161.192 138.513C159.712 128.432 154.296 118.46 147.84 114.733C144.742 112.942 141.875 112.877 139.579 114.22C138.907 114.61 136.416 116.047 135.434 116.61C135.355 116.653 135.275 116.697 135.203 116.747C135.023 116.848 134.842 116.964 134.668 117.086C134.336 117.317 134.018 117.577 133.715 117.873C133.672 117.909 133.628 117.96 133.578 118.003C133.448 118.133 133.318 118.277 133.195 118.422C133.043 118.595 132.891 118.776 132.754 118.963C132.465 119.346 132.191 119.757 131.945 120.205C131.822 120.422 131.699 120.653 131.584 120.891L95.398 100L91 102.535V105.337L91.375 105.554L91.722 105.756V106.348L91 106.767V108.399L96.315 119.65L101.572 122.69L103.319 120.574L107.955 123.347L110.62 127.911L113.552 129.601L117.227 126.344L121.74 128.951L123.257 135.205L130.818 139.567C131.201 141.17 131.685 142.737 132.248 144.268C132.299 144.427 132.356 144.586 132.421 144.759C134.934 151.366 138.935 157.021 143.441 159.628C144.019 159.96 144.582 160.235 145.138 160.444C145.456 160.574 145.774 160.675 146.084 160.762C146.366 160.841 146.647 160.906 146.929 160.95C147.86 161.116 148.763 161.109 149.608 160.943C149.731 160.914 149.853 160.885 149.976 160.856C150.149 160.82 150.323 160.769 150.489 160.704C150.619 160.653 150.749 160.603 150.879 160.552C151.016 160.501 151.153 160.437 151.283 160.364C151.413 160.306 151.536 160.241 151.659 160.169C151.724 160.133 151.789 160.097 151.847 160.061C151.876 160.054 151.905 160.032 151.934 160.01C152.938 159.432 155.415 158.002 156.086 157.62C159.429 155.685 161.596 150.781 161.596 143.849C161.596 142.087 161.459 140.296 161.192 138.513Z" fill="#FD5742"/>
<path d="M149.672 146.883C147.936 145.881 146.529 142.902 146.529 140.229C146.529 137.556 147.936 136.202 149.672 137.204C151.408 138.206 152.815 141.185 152.815 143.858C152.815 146.531 151.408 147.886 149.672 146.883ZM156.794 141.047C155.314 130.973 149.898 121.001 143.442 117.275C140.453 115.549 137.687 115.419 135.434 116.611C135.355 116.654 135.275 116.698 135.203 116.748C135.023 116.849 134.842 116.965 134.668 117.087C134.336 117.318 134.018 117.578 133.715 117.874C133.672 117.91 133.628 117.961 133.578 118.004C133.448 118.134 133.318 118.278 133.195 118.423C133.043 118.596 132.891 118.777 132.754 118.964C132.465 119.347 132.191 119.758 131.945 120.206C131.822 120.423 131.699 120.654 131.584 120.892C130.985 122.12 130.508 123.549 130.19 125.167L91 102.536V105.338L91.375 105.555L91.722 105.757V106.349L91 106.768V108.4L96.315 119.651L101.572 122.691L103.319 120.575L107.955 123.348L110.62 127.912L113.552 129.602L117.227 126.345L121.74 128.952L123.257 135.206L130.818 139.568C131.201 141.171 131.685 142.738 132.248 144.269C132.299 144.428 132.356 144.587 132.421 144.76C134.934 151.367 138.935 157.022 143.441 159.629C144.019 159.961 144.582 160.236 145.138 160.445C145.456 160.575 145.774 160.676 146.084 160.763C146.366 160.842 146.647 160.907 146.929 160.951C147.86 161.117 148.763 161.11 149.608 160.944C149.731 160.915 149.853 160.886 149.976 160.857C150.149 160.821 150.323 160.77 150.489 160.705C150.619 160.654 150.749 160.604 150.879 160.553C151.016 160.502 151.153 160.438 151.283 160.365C151.413 160.307 151.536 160.242 151.659 160.17C151.724 160.134 151.789 160.098 151.847 160.062C151.876 160.055 151.905 160.033 151.934 160.011C155.14 157.989 157.198 153.158 157.198 146.392C157.199 144.629 157.054 142.838 156.794 141.047Z" fill="#FD5742"/>
<path opacity="0.4" d="M152.815 143.856C152.815 146.528 151.407 147.885 149.674 146.882C147.934 145.878 146.526 142.903 146.526 140.231C146.526 137.559 147.934 136.202 149.674 137.205C150.136 137.472 150.577 137.877 150.959 138.382C151.111 140.137 151.818 141.942 152.779 143.17C152.808 143.401 152.815 143.633 152.815 143.856Z" fill="black"/>
<path opacity="0.4" d="M161.596 143.849C161.596 150.781 159.43 155.685 156.086 157.62C155.414 158.003 152.937 159.433 151.934 160.01C155.14 157.988 157.198 153.157 157.198 146.391C157.198 144.629 157.053 142.838 156.793 141.047C155.313 130.973 149.897 121.001 143.441 117.275C140.452 115.549 137.686 115.419 135.433 116.611C136.415 116.048 138.906 114.611 139.578 114.221C141.874 112.878 144.741 112.943 147.839 114.734C154.295 118.46 159.711 128.433 161.191 138.514C161.459 140.296 161.596 142.087 161.596 143.849Z" fill="white"/>
<path d="M157.199 146.391C157.199 153.157 155.141 157.988 151.935 160.01C152.939 159.432 155.416 158.002 156.087 157.62C159.43 155.685 161.597 150.781 161.597 143.849C161.597 143.593 161.588 143.336 161.582 143.079C160.071 143.951 158.543 144.833 157.184 145.618C157.189 145.876 157.199 146.134 157.199 146.391Z" fill="#FD5742"/>
<path opacity="0.1" d="M157.199 146.391C157.199 153.157 155.141 157.988 151.935 160.01C152.939 159.432 155.416 158.002 156.087 157.62C159.43 155.685 161.597 150.781 161.597 143.849C161.597 143.593 161.588 143.336 161.582 143.079C160.071 143.951 158.543 144.833 157.184 145.618C157.189 145.876 157.199 146.134 157.199 146.391Z" fill="black"/>
<path opacity="0.15" d="M130.35 128.056V129.486L91.001 106.768L91.724 106.349V105.757L130.35 128.056Z" fill="black"/>
<path opacity="0.15" d="M130.35 128.648V129.486L91.001 106.768L91.724 106.349V106.342L130.35 128.648Z" fill="black"/>
<path opacity="0.15" d="M149.142 157.047C154.628 155.363 156.521 145.677 153.371 135.413C150.221 125.148 143.22 118.192 137.734 119.875C132.248 121.559 130.355 131.245 133.505 141.509C136.655 151.774 143.656 158.73 149.142 157.047Z" stroke="black" stroke-width="0.7315" stroke-miterlimit="10"/>
<path opacity="0.5" d="M131.585 120.893C130.986 122.121 130.509 123.55 130.191 125.168L91.001 102.537L95.399 100.002L131.585 120.893Z" fill="white"/>
</svg>
