<svg width="45" height="45" viewBox="0 0 45 45" fill="none" xmlns="http://www.w3.org/2000/svg">
<g clip-path="url(#clip0_25_24708)">
<path d="M11.4926 0.380859C9.96484 0.380859 8.71484 1.63086 8.71484 3.15864V42.0475C8.71484 43.5753 9.96484 44.8253 11.4926 44.8253H39.2704C40.7982 44.8253 42.0482 43.5753 42.0482 42.0475V11.492L30.9371 0.380859H11.4926Z" fill="#E2E5E7"/>
<path d="M33.7148 11.492H42.0481L30.937 0.380859V8.71419C30.937 10.242 32.187 11.492 33.7148 11.492Z" fill="#B0B7BD"/>
<path d="M42.0482 19.8255L33.7148 11.4922H42.0482V19.8255Z" fill="#CAD1D8"/>
<path d="M36.4925 36.4916C36.4925 37.2555 35.8675 37.8805 35.1036 37.8805H4.54807C3.78418 37.8805 3.15918 37.2555 3.15918 36.4916V22.6028C3.15918 21.8389 3.78418 21.2139 4.54807 21.2139H35.1036C35.8675 21.2139 36.4925 21.8389 36.4925 22.6028V36.4916Z" fill="#50BEE8"/>
<path d="M8.41755 33.714C8.05088 33.714 7.65088 33.5126 7.65088 33.0251V26.7182C7.65088 26.3182 8.05088 26.0293 8.41755 26.0293H10.9606C16.0356 26.0293 15.9231 33.714 11.0592 33.714H8.41755ZM9.11755 27.3835V32.3585H10.9606C13.9592 32.3585 14.0912 27.3835 10.9606 27.3835H9.11755Z" fill="white"/>
<path d="M20.1733 33.8256C18.1192 33.9145 15.9858 32.5478 15.9858 29.827C15.9858 27.095 18.1178 25.752 20.1733 25.752C22.1164 25.8506 24.1483 27.195 24.1483 29.827C24.1483 32.4603 22.1164 33.8256 20.1733 33.8256ZM20.0511 27.1964C18.8067 27.1964 17.4525 28.0742 17.4525 29.8283C17.4525 31.5728 18.8081 32.4617 20.0511 32.4617C21.3289 32.4617 22.6942 31.5728 22.6942 29.8283C22.6942 28.0728 21.3289 27.1964 20.0511 27.1964Z" fill="white"/>
<path d="M25.4551 29.8162C25.4551 27.6731 26.7995 25.8301 29.3537 25.8301C30.3204 25.8301 31.087 26.119 31.8968 26.819C32.1968 27.0954 32.2301 27.5842 31.9301 27.8954C31.6301 28.1606 31.1745 28.1287 30.9079 27.862C30.4537 27.3842 29.987 27.2523 29.3537 27.2523C27.644 27.2523 26.8231 28.4634 26.8231 29.8176C26.8231 31.1954 27.6329 32.4606 29.3537 32.4606C29.987 32.4606 30.5759 32.2037 31.087 31.7495C31.4301 31.4829 31.9079 31.6148 32.1079 31.8829C32.2856 32.1273 32.3731 32.5384 31.9856 32.9259C31.2079 33.6495 30.2759 33.794 29.3523 33.794C26.6662 33.794 25.4551 31.9592 25.4551 29.8162Z" fill="white"/>
<path d="M35.1037 37.8811H8.71484V39.27H35.1037C35.8676 39.27 36.4926 38.645 36.4926 37.8811V36.4922C36.4926 37.2561 35.8676 37.8811 35.1037 37.8811Z" fill="#CAD1D8"/>
<path d="M18.9317 6.285C18.3367 3.26625 15.6855 1 12.5005 1C9.97174 1 7.77549 2.435 6.68174 4.535C4.04799 4.815 2.00049 7.04625 2.00049 9.75C2.00049 12.6462 4.35424 15 7.25049 15H18.6255C21.0405 15 23.0005 13.04 23.0005 10.625C23.0005 8.315 21.2067 6.4425 18.9317 6.285ZM16.8755 8.875L12.5005 13.25L8.12549 8.875H10.7505V5.375H14.2505V8.875H16.8755Z" fill="#27C60D"/>
</g>
<defs>
<clipPath id="clip0_25_24708">
<rect width="44.4444" height="44.4444" fill="white" transform="translate(0.381348 0.380859)"/>
</clipPath>
</defs>
</svg>
