<svg width="37" height="37" viewBox="0 0 37 37" fill="none" xmlns="http://www.w3.org/2000/svg">
<path d="M8.27413 11.5625H0V37H8.27413V11.5625Z" fill="#1976D2"/>
<path d="M30.8118 11.8608C30.7239 11.8331 30.6406 11.803 30.5481 11.7776C30.4371 11.7521 30.3261 11.7313 30.2128 11.7128C29.7734 11.6249 29.2924 11.5625 28.7282 11.5625C23.9043 11.5625 20.8449 15.0706 19.8366 16.4257V11.5625H11.5625V37H19.8366V23.125C19.8366 23.125 26.0896 14.4161 28.7282 20.8125C28.7282 26.5221 28.7282 37 28.7282 37H37V19.8343C37 15.9909 34.3661 12.7881 30.8118 11.8608Z" fill="#1976D2"/>
<path d="M4.04688 8.09375C6.2819 8.09375 8.09375 6.2819 8.09375 4.04688C8.09375 1.81185 6.2819 0 4.04688 0C1.81185 0 0 1.81185 0 4.04688C0 6.2819 1.81185 8.09375 4.04688 8.09375Z" fill="#1976D2"/>
</svg>
