<svg width="37" height="31" viewBox="0 0 37 31" fill="none" xmlns="http://www.w3.org/2000/svg">
<path d="M37 4.02769C35.6241 4.63125 34.1579 5.03131 32.6294 5.22556C34.2019 4.28669 35.4021 2.81131 35.9663 1.033C34.5002 1.90712 32.8814 2.52456 31.1563 2.86913C29.7642 1.38681 27.7801 0.46875 25.6156 0.46875C21.4161 0.46875 18.0352 3.87738 18.0352 8.05606C18.0352 8.65731 18.0861 9.23544 18.2109 9.78581C11.9047 9.47825 6.32469 6.45581 2.57612 1.85163C1.92169 2.98706 1.53781 4.28669 1.53781 5.68575C1.53781 8.31275 2.89062 10.6414 4.90712 11.9896C3.68844 11.9665 2.49287 11.6127 1.48 11.0554C1.48 11.0785 1.48 11.1086 1.48 11.1386C1.48 14.8247 4.10931 17.8865 7.55725 18.5918C6.93981 18.7606 6.26687 18.8416 5.5685 18.8416C5.08287 18.8416 4.59262 18.8138 4.13244 18.7121C5.11525 21.716 7.90413 23.9244 11.2203 23.9961C8.6395 26.0149 5.36269 27.2313 1.81531 27.2313C1.19325 27.2313 0.596625 27.2036 0 27.1273C3.36006 29.2941 7.34219 30.5312 11.6365 30.5312C25.5947 30.5312 33.226 18.9688 33.226 8.94637C33.226 8.61106 33.2144 8.28731 33.1982 7.96588C34.7037 6.8975 35.9686 5.56319 37 4.02769Z" fill="#03A9F4"/>
</svg>
