<svg width="37" height="37" viewBox="0 0 37 37" fill="none" xmlns="http://www.w3.org/2000/svg">
<path d="M25.4375 0H11.5625C5.17769 0 0 5.17769 0 11.5625V25.4375C0 31.8223 5.17769 37 11.5625 37H25.4375C31.8223 37 37 31.8223 37 25.4375V11.5625C37 5.17769 31.8223 0 25.4375 0ZM33.5312 25.4375C33.5312 29.9006 29.9006 33.5312 25.4375 33.5312H11.5625C7.09938 33.5312 3.46875 29.9006 3.46875 25.4375V11.5625C3.46875 7.09938 7.09938 3.46875 11.5625 3.46875H25.4375C29.9006 3.46875 33.5312 7.09938 33.5312 11.5625V25.4375Z" fill="url(#paint0_linear)"/>
<defs>
<linearGradient id="paint0_linear" x1="3.387" y1="33.6132" x2="33.613" y2="3.38677" gradientUnits="userSpaceOnUse">
<stop stop-color="#FFC107"/>
<stop offset="0.507" stop-color="#F44336"/>
<stop offset="0.99" stop-color="#9C27B0"/>
</linearGradient>
</defs>
</svg>
