<svg width="50" height="39" viewBox="0 0 50 39" fill="none" xmlns="http://www.w3.org/2000/svg">
<path d="M48.3365 6.07609C47.3384 5.03986 45.9601 4.42754 44.3916 4.42754H36.5019V4.33333C36.5019 3.1558 36.0266 2.02536 35.2186 1.27174C34.4106 0.471014 33.3175 0 32.1293 0H17.8707C16.635 0 15.5418 0.471014 14.7338 1.27174C13.9259 2.07246 13.4506 3.1558 13.4506 4.33333V4.42754H5.60837C4.03992 4.42754 2.6616 5.03986 1.6635 6.07609C0.665399 7.06522 0 8.47826 0 9.98551V33.442C0 34.9964 0.617871 36.3623 1.6635 37.3514C2.6616 38.3406 4.08745 39 5.60837 39H44.3916C45.9601 39 47.3384 38.3877 48.3365 37.3514C49.3346 36.3623 50 34.9493 50 33.442V9.98551C50 8.43116 49.3821 7.06522 48.3365 6.07609ZM47.5285 33.442H47.481C47.481 34.2899 47.1483 35.0435 46.5779 35.6087C46.0076 36.1739 45.2471 36.5036 44.3916 36.5036H5.60837C4.75285 36.5036 3.9924 36.1739 3.42205 35.6087C2.85171 35.0435 2.51901 34.2899 2.51901 33.442V9.98551C2.51901 9.13768 2.85171 8.38406 3.42205 7.81884C3.9924 7.25362 4.75285 6.92391 5.60837 6.92391H14.7814C15.4943 6.92391 16.0646 6.3587 16.0646 5.65217V4.28623C16.0646 3.76812 16.2548 3.2971 16.5875 2.96739C16.9202 2.63768 17.3954 2.44928 17.9183 2.44928H32.1293C32.6521 2.44928 33.1274 2.63768 33.4601 2.96739C33.7928 3.2971 33.9829 3.76812 33.9829 4.28623V5.65217C33.9829 6.3587 34.5532 6.92391 35.2662 6.92391H44.4392C45.2947 6.92391 46.0551 7.25362 46.6255 7.81884C47.1958 8.38406 47.5285 9.13768 47.5285 9.98551V33.442Z" fill="#828282"/>
<path d="M41.9202 14.6957C43.2064 14.6957 44.2491 13.6623 44.2491 12.3877C44.2491 11.113 43.2064 10.0797 41.9202 10.0797C40.6339 10.0797 39.5913 11.113 39.5913 12.3877C39.5913 13.6623 40.6339 14.6957 41.9202 14.6957Z" fill="#828282"/>
<rect x="24" y="15" width="2" height="10" fill="#828282"/>
<rect x="30" y="19" width="2" height="10" transform="rotate(90 30 19)" fill="#828282"/>
</svg>
