<svg width="50" height="41" viewBox="0 0 50 41" fill="none" xmlns="http://www.w3.org/2000/svg">
<path d="M44.7917 41H5.20833C2.29167 41 0 38.69 0 35.75V11.55C0 8.61 2.29167 6.3 5.20833 6.3H44.7917C47.7083 6.3 50 8.61 50 11.55V35.75C50 38.69 47.7083 41 44.7917 41ZM5.20833 8.4C3.54167 8.4 2.08333 9.87 2.08333 11.55V35.75C2.08333 37.43 3.54167 38.9 5.20833 38.9H44.7917C46.4583 38.9 47.9167 37.43 47.9167 35.75V11.55C47.9167 9.87 46.4583 8.4 44.7917 8.4H5.20833Z" fill="#828282"/>
<path d="M32.2917 8.4C31.6667 8.4 31.25 7.98 31.25 7.35V3.15C31.25 2.52 30.8333 2.1 30.2083 2.1H19.7917C19.1667 2.1 18.75 2.52 18.75 3.15V7.35C18.75 7.98 18.3333 8.4 17.7083 8.4C17.0833 8.4 16.6667 7.98 16.6667 7.35V3.15C16.6667 1.47 18.125 0 19.7917 0H30.2083C31.875 0 33.3333 1.47 33.3333 3.15V7.35C33.3333 7.98 32.9167 8.4 32.2917 8.4Z" fill="#828282"/>
<rect x="24" y="18" width="2" height="10" fill="#828282"/>
<rect x="30" y="22" width="2" height="10" transform="rotate(90 30 22)" fill="#828282"/>
</svg>
