<svg width="14" height="16" viewBox="0 0 14 16" fill="none" xmlns="http://www.w3.org/2000/svg">
<path d="M12.8088 10.3306C12.6823 10.4686 12.6582 10.6788 12.7546 10.8419C12.7546 10.845 12.8781 11.0646 12.8932 11.3657C12.9142 11.7767 12.7245 12.1405 12.327 12.4511C12.1854 12.564 12.1282 12.7585 12.1884 12.9341C12.1884 12.9373 12.3179 13.3513 12.1071 13.7434C11.9053 14.1198 11.4566 14.3896 10.7759 14.5401C10.2308 14.6625 9.48992 14.6844 8.58038 14.6092H8.53822C6.60169 14.6531 4.64407 14.3896 4.62299 14.3864H4.61997L4.31579 14.3488C4.33386 14.261 4.3429 14.1669 4.3429 14.0728V8.9724C4.3429 8.83751 4.32181 8.70577 4.28567 8.58344C4.33989 8.37327 4.49047 7.9059 4.84585 7.50753C6.19811 6.39084 7.52026 2.62359 7.57748 2.46048C7.60157 2.3946 7.6076 2.32246 7.59555 2.25031C7.54435 1.899 7.56242 1.46926 7.6347 1.34065C7.79432 1.34379 8.225 1.39084 8.48401 1.76412C8.7912 2.2064 8.77916 2.99686 8.44787 4.04454C7.9419 5.64115 7.89974 6.48181 8.30029 6.85194C8.49907 7.03701 8.7641 7.04642 8.95685 6.97428C9.14056 6.93036 9.31524 6.89272 9.48089 6.86449C9.49293 6.86135 9.50799 6.85822 9.52004 6.85508C10.4446 6.64492 12.1011 6.51631 12.6763 7.06211C13.1642 7.52635 12.8179 8.14115 12.7787 8.20703C12.6673 8.38268 12.7004 8.61167 12.851 8.75282C12.854 8.75596 13.1702 9.0665 13.1853 9.48369C13.1973 9.76286 13.0709 10.0483 12.8088 10.3306Z" fill="#6D718C"/>
<path d="M1.25287 14.5307C1.00893 14.5307 0.813164 14.3237 0.813164 14.0728V8.9724C0.813164 8.71832 1.01194 8.51443 1.25287 8.51443H3.09002C3.33397 8.51443 3.52973 8.72145 3.52973 8.9724V14.0696C3.52973 14.3237 3.33096 14.5276 3.09002 14.5276H1.25287V14.5307Z" fill="#6D718C"/>
<path fill-rule="evenodd" clip-rule="evenodd" d="M13.5798 10.6976C13.875 10.3055 14.0165 9.88519 13.9985 9.45232C13.9804 8.97553 13.7756 8.60226 13.6069 8.37327C13.8027 7.86512 13.878 7.06524 13.2245 6.44417C12.7456 5.98933 11.9324 5.78545 10.806 5.84191C10.0157 5.87946 9.35414 6.03261 9.32428 6.03952H9.32127C9.17068 6.06775 9.01106 6.10226 8.84843 6.1399C8.83638 5.93915 8.86951 5.4404 9.22489 4.31744C9.64653 2.98118 9.62244 1.95859 9.14659 1.27478C8.64664 0.556462 7.84854 0.5 7.61362 0.5C7.38774 0.5 7.17993 0.59724 7.03236 0.776035C6.69806 1.18068 6.73721 1.92723 6.77938 2.27227C6.38183 3.38268 5.26749 6.10539 4.32483 6.86135C4.30676 6.8739 4.2917 6.88959 4.27664 6.90527C3.99956 7.20954 3.81283 7.5389 3.68634 7.82748C3.50865 7.7271 3.30687 7.67064 3.09002 7.67064H1.25287C0.56018 7.67064 0 8.25721 0 8.97553V14.0728C0 14.7942 0.563191 15.3777 1.25287 15.3777H3.09002C3.35807 15.3777 3.60804 15.2898 3.81283 15.1393L4.52059 15.2271C4.62901 15.2428 6.55651 15.4969 8.53521 15.4561C8.8936 15.4843 9.23092 15.5 9.54413 15.5C10.0832 15.5 10.5531 15.4561 10.9446 15.3683C11.8662 15.1644 12.4956 14.7566 12.8149 14.1575C13.0588 13.6995 13.0588 13.2447 13.0197 12.9561C13.619 12.3915 13.7244 11.7673 13.7033 11.3281C13.6913 11.074 13.6371 10.8576 13.5798 10.6976ZM0.813164 14.0728C0.813164 14.3237 1.00893 14.5307 1.25287 14.5307V14.5276H3.09002C3.33096 14.5276 3.52973 14.3237 3.52973 14.0696V8.9724C3.52973 8.72145 3.33397 8.51443 3.09002 8.51443H1.25287C1.01194 8.51443 0.813164 8.71832 0.813164 8.9724V14.0728ZM12.7546 10.8419C12.6582 10.6788 12.6823 10.4686 12.8088 10.3306C13.0709 10.0483 13.1973 9.76286 13.1853 9.48369C13.1702 9.0665 12.854 8.75596 12.851 8.75282C12.7004 8.61167 12.6673 8.38268 12.7787 8.20703C12.8179 8.14115 13.1642 7.52635 12.6763 7.06211C12.1011 6.51631 10.4446 6.64492 9.52004 6.85508C9.50799 6.85822 9.49293 6.86135 9.48089 6.86449C9.31524 6.89272 9.14056 6.93036 8.95685 6.97428C8.7641 7.04642 8.49907 7.03701 8.30029 6.85194C7.89974 6.48181 7.9419 5.64115 8.44787 4.04454C8.77916 2.99686 8.7912 2.2064 8.48401 1.76412C8.225 1.39084 7.79432 1.34379 7.6347 1.34065C7.56242 1.46926 7.54435 1.899 7.59555 2.25031C7.6076 2.32246 7.60157 2.3946 7.57748 2.46048C7.52026 2.62359 6.19811 6.39084 4.84585 7.50753C4.49047 7.9059 4.33989 8.37327 4.28567 8.58344C4.32181 8.70577 4.3429 8.83751 4.3429 8.9724V14.0728C4.3429 14.1669 4.33386 14.261 4.31579 14.3488L4.61997 14.3864H4.62299C4.64407 14.3896 6.60169 14.6531 8.53822 14.6092H8.58038C9.48992 14.6844 10.2308 14.6625 10.7759 14.5401C11.4566 14.3896 11.9053 14.1198 12.1071 13.7434C12.3179 13.3513 12.1884 12.9373 12.1884 12.9341C12.1282 12.7585 12.1854 12.564 12.327 12.4511C12.7245 12.1405 12.9142 11.7767 12.8932 11.3657C12.8781 11.0646 12.7546 10.845 12.7546 10.8419Z" fill="#6D718C"/>
</svg>
