<svg width="70" height="70" viewBox="0 0 70 70" fill="none" xmlns="http://www.w3.org/2000/svg">
<g clip-path="url(#clip0)">
<path fill-rule="evenodd" clip-rule="evenodd" d="M47.9482 15.8738H63.0315C66.8739 15.8738 70 18.9999 70 22.8423V58.4839C70 62.3262 66.8739 65.4522 63.0315 65.4522H6.96848C3.12597 65.4522 0 62.3262 0 58.4839V22.8423C0 18.9999 3.12597 15.8738 6.96848 15.8738H22.0517V9.79591C22.0517 6.90194 24.4061 4.54767 27.3 4.54767H42.6998C45.5938 4.54767 47.9482 6.90194 47.9482 9.79591V15.8738ZM27.3 8.99309C26.8573 8.99309 26.4971 9.35317 26.4971 9.79591V15.8738H43.5028V9.79591C43.5028 9.35331 43.1426 8.99309 42.6998 8.99309H27.3ZM6.96848 20.3192C5.5772 20.3192 4.44542 21.451 4.44542 22.8423V26.132C4.44542 29.2177 6.51449 31.975 9.47709 32.8375V37.4678L8.23431 37.1058C6.84234 36.7004 5.56553 36.0482 4.44542 35.1825V58.484C4.44542 59.8751 5.57734 61.0069 6.96848 61.0069H63.0315C64.4227 61.0069 65.5546 59.875 65.5544 58.4839V35.1825C64.4345 36.0482 63.1577 36.7004 61.7656 37.1058L60.5229 37.4678V32.8377C63.4855 31.9751 65.5546 29.2177 65.5546 26.132V22.8423C65.5546 21.451 64.4227 20.3192 63.0315 20.3192H6.96848Z" fill="#959595"/>
<path d="M60.5229 37.4678V32.8377L55 34.4457V39.08C56.6777 38.5893 58.5133 38.0533 60.5229 37.4678Z" fill="#959595"/>
<path d="M9.47709 32.8375V37.4678C12.758 38.4238 15.5753 39.2476 18 39.9575V35.319L9.47709 32.8375Z" fill="#959595"/>
<path d="M33.7966 32H37.143V48H33.9144V37.6229L29.2718 45.0514H28.8948L24.2522 37.6457V48H21V32H24.3464L29.0833 39.5657L33.7966 32Z" fill="#959595"/>
<path d="M40.2168 32H46.3676C47.9387 32 49.2742 32.5181 50.3739 33.5543C51.458 34.5905 52 35.8629 52 37.3714C52 38.88 51.458 40.1524 50.3739 41.1886C49.2742 42.2248 47.9387 42.7429 46.3676 42.7429H43.4689V48H40.2168V32ZM43.4689 39.7943H46.3676C47.0589 39.7943 47.6324 39.5657 48.088 39.1086C48.5436 38.6362 48.7714 38.0571 48.7714 37.3714C48.7714 36.6705 48.5436 36.0914 48.088 35.6343C47.6324 35.1771 47.0589 34.9486 46.3676 34.9486H43.4689V39.7943Z" fill="#959595"/>
</g>
<defs>
<clipPath id="clip0">
<rect width="70" height="70" fill="white"/>
</clipPath>
</defs>
</svg>
