<svg width="14" height="15" viewBox="0 0 14 15" fill="none" xmlns="http://www.w3.org/2000/svg">
<path d="M1.41755 9.63442L9.40219 1.63338C9.48444 1.55044 9.59585 1.50371 9.71193 1.50371H9.71252C9.8286 1.50371 9.94002 1.54985 10.0217 1.63221L12.8508 4.46511C12.9331 4.54747 12.9792 4.65903 12.9792 4.77468C12.9792 4.89092 12.9331 5.00249 12.8508 5.08484L4.8592 13.0812L1.41755 9.63442Z" fill="#6D718C"/>
<path d="M13.1647 3.95285L13.4523 3.66489C13.8052 3.31092 14 2.84422 14 2.35066C14 1.84599 13.804 1.37637 13.4534 1.03175C12.7523 0.322652 11.5197 0.323236 10.8203 1.03058L10.5327 1.31855L13.1647 3.95285Z" fill="#6D718C"/>
<path d="M1.18072 10.2232L0.0198906 13.9311C-0.0285258 14.0865 0.0128907 14.2564 0.12839 14.3715C0.211223 14.455 0.323223 14.5 0.437556 14.5C0.481305 14.5 0.525055 14.4936 0.568805 14.4801L4.27121 13.3178L1.18072 10.2232Z" fill="#6D718C"/>
<path d="M4.06587 5.61462C4.17787 5.61462 4.28987 5.57199 4.37504 5.48612L7.19953 2.6579C7.35061 2.5072 7.55244 2.44762 7.75019 2.46222L8.44086 1.77006C7.84353 1.44997 7.08403 1.53467 6.58061 2.03816L3.75613 4.86639C3.58521 5.03753 3.58521 5.31498 3.75613 5.48612C3.84188 5.5714 3.95329 5.61462 4.06587 5.61462Z" fill="#6D718C"/>
</svg>
