<svg width="51" height="50" viewBox="0 0 51 50" fill="none" xmlns="http://www.w3.org/2000/svg">
<path d="M51 10.7656L40.2443 0H8.24242V19.0978C3.6322 19.4918 0 23.3711 0 28.0859C0 30.793 1.19876 33.2234 3.09091 34.8788V50H5.21398L9.01515 46.1953L12.8163 50H14.9394V43.2969H51V10.7656ZM40.697 2.64064L48.3618 10.3125H40.697V2.64064ZM1.54545 28.0859C1.54545 23.9634 4.89639 20.6094 9.01515 20.6094C13.1339 20.6094 16.4848 23.9634 16.4848 28.0859C16.4848 32.2085 13.1339 35.5625 9.01515 35.5625C4.89639 35.5625 1.54545 32.2085 1.54545 28.0859ZM9.01515 44.0078L4.63636 48.3906V35.9697C5.9339 36.6946 7.42668 37.1095 9.01515 37.1095C10.6036 37.1095 12.0964 36.6946 13.3939 35.9697V48.3906L9.01515 44.0078ZM14.9394 41.75V34.8788C16.8315 33.2234 18.0303 30.793 18.0303 28.0859C18.0303 23.3712 14.3981 19.4919 9.78788 19.0978V1.54688H39.1515V11.8594H49.4545V41.75H14.9394Z" fill="#828282"/>
<path d="M9.01515 32.9844C11.7136 32.9844 13.9091 30.7869 13.9091 28.0859C13.9091 25.385 11.7136 23.1875 9.01515 23.1875C6.31666 23.1875 4.12121 25.385 4.12121 28.0859C4.12121 30.7869 6.31666 32.9844 9.01515 32.9844ZM9.01515 24.7344C10.8616 24.7344 12.3636 26.2378 12.3636 28.0859C12.3636 29.9341 10.8616 31.4375 9.01515 31.4375C7.16872 31.4375 5.66667 29.9341 5.66667 28.0859C5.66667 26.2378 7.16872 24.7344 9.01515 24.7344Z" fill="#828282"/>
</svg>
