<svg width="20" height="20" viewBox="0 0 20 20" fill="none" xmlns="http://www.w3.org/2000/svg">
<path d="M13.2068 11.5894L10.6971 9.70718V5.87297C10.6971 5.48745 10.3855 5.17582 9.99996 5.17582C9.61444 5.17582 9.30282 5.48745 9.30282 5.87297V10.0558C9.30282 10.2754 9.406 10.4824 9.58168 10.6135L12.3702 12.7049C12.4957 12.799 12.6421 12.8444 12.7878 12.8444C13.0004 12.8444 13.2096 12.7488 13.3462 12.5648C13.5777 12.2573 13.515 11.8202 13.2068 11.5894Z" fill="white"/>
<path d="M10 1C5.0371 1 1 5.0371 1 10C1 14.9629 5.0371 19 10 19C14.9629 19 19 14.9629 19 10C19 5.0371 14.9629 1 10 1ZM10 17.6057C5.80674 17.6057 2.39426 14.1933 2.39426 10C2.39426 5.80674 5.80674 2.39426 10 2.39426C14.194 2.39426 17.6057 5.80674 17.6057 10C17.6057 14.1933 14.1933 17.6057 10 17.6057Z" fill="white"/>
<path d="M13.2068 11.5894L10.6971 9.70718V5.87297C10.6971 5.48745 10.3855 5.17582 9.99996 5.17582C9.61444 5.17582 9.30282 5.48745 9.30282 5.87297V10.0558C9.30282 10.2754 9.406 10.4824 9.58168 10.6135L12.3702 12.7049C12.4957 12.799 12.6421 12.8444 12.7878 12.8444C13.0004 12.8444 13.2096 12.7488 13.3462 12.5648C13.5777 12.2573 13.515 11.8202 13.2068 11.5894Z" stroke="white" stroke-width="0.4"/>
<path d="M10 1C5.0371 1 1 5.0371 1 10C1 14.9629 5.0371 19 10 19C14.9629 19 19 14.9629 19 10C19 5.0371 14.9629 1 10 1ZM10 17.6057C5.80674 17.6057 2.39426 14.1933 2.39426 10C2.39426 5.80674 5.80674 2.39426 10 2.39426C14.194 2.39426 17.6057 5.80674 17.6057 10C17.6057 14.1933 14.1933 17.6057 10 17.6057Z" stroke="white" stroke-width="0.4"/>
</svg>
