<svg width="21" height="22" viewBox="0 0 21 22" fill="none" xmlns="http://www.w3.org/2000/svg">
<path d="M8.03 18H2V4H4V6H14V4H16V8.5C16.72 8.8 17.4 9.24 18 9.82V4C18 2.9 17.11 2 16 2H11.82C11.4 0.84 10.3 0 9 0C7.7 0 6.6 0.84 6.18 2H2C0.9 2 0 2.9 0 4V18C0 19.11 0.9 20 2 20H10.06C9.65 19.74 9.26 19.45 8.9 19.1C8.57 18.76 8.27 18.39 8.03 18ZM9 2C9.55 2 10 2.45 10 3C10 3.55 9.55 4 9 4C8.45 4 8 3.55 8 3C8 2.45 8.45 2 9 2ZM17.31 16.9C17.75 16.21 18 15.38 18 14.5C18 12 16 10 13.5 10C11 10 9 12 9 14.5C9 17 11 19 13.5 19C14.37 19 15.19 18.75 15.88 18.32L19 21.39L20.39 20L17.31 16.9ZM13.5 17C12.12 17 11 15.88 11 14.5C11 13.12 12.12 12 13.5 12C14.88 12 16 13.12 16 14.5C16 15.88 14.88 17 13.5 17Z" fill="white"/>
</svg>
