<svg width="22" height="22" viewBox="0 0 22 22" fill="none" xmlns="http://www.w3.org/2000/svg">
<path d="M20.7556 19.5775L15.0682 13.89C16.1698 12.5292 16.8331 10.8 16.8331 8.91668C16.8331 4.55168 13.2815 1 8.91655 1C4.5516 1 1 4.55164 1 8.91664C1 13.2816 4.55164 16.8333 8.91659 16.8333C10.7999 16.8333 12.5291 16.17 13.8899 15.0683L19.5773 20.7558C19.7398 20.9183 19.9531 21 20.1665 21C20.3798 21 20.5931 20.9183 20.7556 20.7558C21.0815 20.43 21.0815 19.9033 20.7556 19.5775ZM8.91659 15.1666C5.46995 15.1666 2.66666 12.3633 2.66666 8.91664C2.66666 5.46996 5.46995 2.66664 8.91659 2.66664C12.3632 2.66664 15.1665 5.46996 15.1665 8.91664C15.1665 12.3633 12.3632 15.1666 8.91659 15.1666Z" fill="white" stroke="white" stroke-width="0.5"/>
</svg>
