<svg width="22" height="22" viewBox="0 0 22 22" fill="none" xmlns="http://www.w3.org/2000/svg">
<path d="M21 17.7188H17.7188V21H16.1562V17.7188H12.875V16.1562H16.1562V12.875H17.7188V16.1562H21V17.7188ZM12.6916 9.72803C12.7603 10.037 12.7969 10.3581 12.7969 10.6875C12.7969 12.0371 12.1877 13.2472 11.2303 14.0574C11.2576 14.0682 11.2852 14.0788 11.3125 14.0899V15.8164C10.476 15.3607 9.51776 15.1016 8.5 15.1016V15.1C8.48703 15.1003 8.47391 15.1003 8.46094 15.1006V15.1016C5.20853 15.1016 2.5625 17.7476 2.5625 21H1C1 17.8996 2.90125 15.2351 5.59885 14.1102C4.60474 13.3003 3.96875 12.0667 3.96875 10.6875C3.96875 8.25357 5.94888 6.27344 8.38281 6.27344C8.67212 6.27344 8.95486 6.30167 9.22876 6.35507C9.16101 6.04868 9.125 5.73053 9.125 5.40414C9.125 2.97571 11.1007 1 13.5291 1C15.9576 1 17.9333 2.97571 17.9333 5.40414C17.9333 6.76721 17.3107 7.98761 16.3352 8.79602C17.6248 9.30811 18.7362 10.1678 19.5503 11.2734H17.4468C16.4762 10.4131 15.2212 9.86719 13.8424 9.797C13.7388 9.80432 13.6344 9.80829 13.5291 9.80829C13.2427 9.80829 12.9627 9.78052 12.6916 9.72803ZM10.6875 5.40414C10.6875 6.97107 11.9622 8.24579 13.5291 8.24579C15.0959 8.24579 16.3708 6.97107 16.3708 5.40414C16.3708 3.83722 15.0959 2.5625 13.5291 2.5625C11.9622 2.5625 10.6875 3.83722 10.6875 5.40414ZM11.2344 10.6875C11.2344 9.11508 9.95523 7.83594 8.38281 7.83594C6.81039 7.83594 5.53125 9.11508 5.53125 10.6875C5.53125 12.2599 6.81039 13.5391 8.38281 13.5391C9.95523 13.5391 11.2344 12.2599 11.2344 10.6875Z" fill="#DC2626" stroke="#DC2626" stroke-width="0.5"/>
</svg>
