<svg width="22" height="22" viewBox="0 0 22 22" fill="none" xmlns="http://www.w3.org/2000/svg">
<path d="M11 1C5.48566 1 1 5.48566 1 11C1 16.5143 5.48566 21 11 21C16.5143 21 21 16.5136 21 11C21 5.48645 16.5143 1 11 1ZM11 19.4508C6.34082 19.4508 2.54918 15.66 2.54918 11C2.54918 6.34004 6.34082 2.54918 11 2.54918C15.6592 2.54918 19.4508 6.34004 19.4508 11C19.4508 15.66 15.66 19.4508 11 19.4508Z" fill="white"/>
<path d="M14.873 10.1557H11.7746V7.05734C11.7746 6.62977 11.4284 6.28273 11 6.28273C10.5716 6.28273 10.2254 6.62977 10.2254 7.05734V10.1557H7.12703C6.69867 10.1557 6.35242 10.5027 6.35242 10.9303C6.35242 11.3579 6.69867 11.7049 7.12703 11.7049H10.2254V14.8033C10.2254 15.2309 10.5716 15.5779 11 15.5779C11.4284 15.5779 11.7746 15.2309 11.7746 14.8033V11.7049H14.873C15.3013 11.7049 15.6476 11.3579 15.6476 10.9303C15.6476 10.5027 15.3013 10.1557 14.873 10.1557Z" fill="white"/>
<path d="M11 1C5.48566 1 1 5.48566 1 11C1 16.5143 5.48566 21 11 21C16.5143 21 21 16.5136 21 11C21 5.48645 16.5143 1 11 1ZM11 19.4508C6.34082 19.4508 2.54918 15.66 2.54918 11C2.54918 6.34004 6.34082 2.54918 11 2.54918C15.6592 2.54918 19.4508 6.34004 19.4508 11C19.4508 15.66 15.66 19.4508 11 19.4508Z" stroke="white" stroke-width="0.4"/>
<path d="M14.873 10.1557H11.7746V7.05734C11.7746 6.62977 11.4284 6.28273 11 6.28273C10.5716 6.28273 10.2254 6.62977 10.2254 7.05734V10.1557H7.12703C6.69867 10.1557 6.35242 10.5027 6.35242 10.9303C6.35242 11.3579 6.69867 11.7049 7.12703 11.7049H10.2254V14.8033C10.2254 15.2309 10.5716 15.5779 11 15.5779C11.4284 15.5779 11.7746 15.2309 11.7746 14.8033V11.7049H14.873C15.3013 11.7049 15.6476 11.3579 15.6476 10.9303C15.6476 10.5027 15.3013 10.1557 14.873 10.1557Z" stroke="white" stroke-width="0.4"/>
</svg>
