<svg width="20" height="20" viewBox="0 0 20 20" fill="none" xmlns="http://www.w3.org/2000/svg">
<path d="M5.85938 15.3125V16.875C5.85938 18.5982 7.2612 20 8.98438 20H16.8359C18.5591 20 19.9609 18.5982 19.9609 16.875V3.125C19.9609 1.40182 18.5591 0 16.8359 0H8.98438C7.2612 0 5.85938 1.40182 5.85938 3.125V4.6875C5.85938 5.11902 6.20911 5.46875 6.64062 5.46875C7.07214 5.46875 7.42188 5.11902 7.42188 4.6875V3.125C7.42188 2.26349 8.12286 1.5625 8.98438 1.5625H16.8359C17.6974 1.5625 18.3984 2.26349 18.3984 3.125V16.875C18.3984 17.7365 17.6974 18.4375 16.8359 18.4375H8.98438C8.12286 18.4375 7.42188 17.7365 7.42188 16.875V15.3125C7.42188 14.881 7.07214 14.5312 6.64062 14.5312C6.20911 14.5312 5.85938 14.881 5.85938 15.3125ZM0.53299 8.65799L2.28241 6.90857C2.58759 6.60339 3.08228 6.60339 3.3873 6.90857C3.69247 7.21359 3.69247 7.70828 3.3873 8.01331L2.14294 9.25781H11.5234C11.955 9.25781 12.3047 9.60754 12.3047 10.0391C12.3047 10.4706 11.955 10.8203 11.5234 10.8203H2.14294L3.3873 12.0648C3.69247 12.3698 3.69247 12.8645 3.3873 13.1696C3.23471 13.3221 3.03482 13.3984 2.83493 13.3984C2.63489 13.3984 2.435 13.3221 2.28241 13.1696L0.53299 11.4201C-0.228577 10.6586 -0.228577 9.41956 0.53299 8.65799Z" fill="white"/>
</svg>
