<svg width="22" height="18" viewBox="0 0 22 18" fill="none" xmlns="http://www.w3.org/2000/svg">
<path d="M16.8984 1H5.10156C2.8399 1 1 2.78755 1 4.98484V11.1394C1 12.8927 2.18484 14.4198 3.90176 14.9086L5.88266 16.8332C5.99268 16.94 6.1416 17 6.29709 17C6.45242 17 6.6015 16.94 6.71136 16.8332L8.52853 15.0676H16.8984C19.1601 15.0676 21 13.2801 21 11.0828V4.98484C21 2.78755 19.1601 1 16.8984 1ZM19.8281 11.0828C19.8281 12.6523 18.5139 13.9291 16.8984 13.9291H8.28592C8.13058 13.9291 7.98151 13.9891 7.87164 14.0959L6.29709 15.6256L4.62015 13.9964C4.54492 13.9233 4.45062 13.8714 4.34732 13.8465C3.0665 13.5368 2.17188 12.4237 2.17188 11.1394V4.98484C2.17188 3.41537 3.48611 2.13853 5.10156 2.13853H16.8984C18.5139 2.13853 19.8281 3.41537 19.8281 4.98484V11.0828Z" fill="white" stroke="white"/>
</svg>
