<svg width="20" height="20" viewBox="0 0 20 20" fill="none" xmlns="http://www.w3.org/2000/svg">
<path fill-rule="evenodd" clip-rule="evenodd" d="M9.15527e-05 6.35826C9.15527e-05 4.64029 1.45744 3.24257 3.24874 3.24257H8.50495C8.52234 3.24257 9.11994 3.23831 10.0878 3.11681L11.9385 2.80126C13.8182 2.39737 16.2334 1.62409 18.5636 0.143604C19.1673 -0.24014 20 0.192321 20 0.883396V15.5332C20 16.2231 19.1674 16.6566 18.5636 16.273C14.9689 13.9889 11.1451 13.3879 9.4303 13.2301V19.1125C9.4303 19.6027 9.01602 20 8.50495 20H6.78943C5.40214 20 4.22592 19.048 3.99273 17.7365C3.99217 17.7332 3.99152 17.73 3.99097 17.7267L3.2356 13.1736C1.45031 13.1669 0 11.7722 0 10.0584L9.15527e-05 6.35826ZM9.4303 4.97262C11.0479 4.84438 14.547 4.35075 18.1493 2.45511V13.9615C14.547 12.0658 11.0479 11.5722 9.4303 11.4439V4.97262ZM6.78952 18.2251C6.30862 18.2251 5.90072 17.896 5.8179 17.4422L5.10991 13.174H7.57968V18.2251H6.78952ZM7.57959 11.399H3.24874C2.47792 11.399 1.85081 10.7977 1.85071 10.0585L1.85081 6.35826C1.85081 5.61917 2.47773 5.01795 3.24828 5.01795H7.57959V11.399Z" fill="white"/>
</svg>
