<svg width="20" height="22" viewBox="0 0 20 22" fill="none" xmlns="http://www.w3.org/2000/svg">
<path d="M18.9185 6.51971L18.9032 6.49412C18.882 6.45158 18.8576 6.41084 18.8303 6.37213L15.9548 1.56172C15.7476 1.21524 15.362 1 14.9483 1H5.05214C4.63782 1 4.25189 1.21574 4.04483 1.56317L1.12244 6.46889C1.09612 6.51311 1.07715 6.55936 1.06374 6.60635C1.02261 6.71381 1 6.82995 1 6.95112V19.6217C1 20.3817 1.63902 21 2.42446 21H17.5755C18.3609 21 18.9999 20.3817 18.9999 19.6217V6.90467C18.9999 6.88768 18.9994 6.8708 18.9985 6.85401C19.0067 6.74123 18.9815 6.62494 18.9185 6.51971ZM10.6265 2.17231H14.9201L17.1822 5.95643H10.6265V2.17231ZM5.08036 2.17231H9.41493V5.95643H2.8261L5.08036 2.17231ZM17.7884 19.6217C17.7884 19.7353 17.6929 19.8277 17.5755 19.8277H2.42446C2.30706 19.8277 2.21154 19.7353 2.21154 19.6217V7.12874H17.7884V19.6217Z" fill="white"/>
<path d="M12.7498 11.5479C12.5133 11.3191 12.1297 11.3191 11.8931 11.5479L9.18825 14.1652L8.14816 13.1588C7.91163 12.9299 7.52803 12.9299 7.29147 13.1588C7.0549 13.3877 7.0549 13.7588 7.29147 13.9877L8.75997 15.4086C8.87825 15.5231 9.03331 15.5803 9.18829 15.5803C9.34327 15.5803 9.49837 15.5231 9.61662 15.4086L12.7498 12.3769C12.9864 12.148 12.9864 11.7768 12.7498 11.5479Z" fill="white"/>
<path d="M18.9185 6.51971L18.9032 6.49412C18.882 6.45158 18.8576 6.41084 18.8303 6.37213L15.9548 1.56172C15.7476 1.21524 15.362 1 14.9483 1H5.05214C4.63782 1 4.25189 1.21574 4.04483 1.56317L1.12244 6.46889C1.09612 6.51311 1.07715 6.55936 1.06374 6.60635C1.02261 6.71381 1 6.82995 1 6.95112V19.6217C1 20.3817 1.63902 21 2.42446 21H17.5755C18.3609 21 18.9999 20.3817 18.9999 19.6217V6.90467C18.9999 6.88768 18.9994 6.8708 18.9985 6.85401C19.0067 6.74123 18.9815 6.62494 18.9185 6.51971ZM10.6265 2.17231H14.9201L17.1822 5.95643H10.6265V2.17231ZM5.08036 2.17231H9.41493V5.95643H2.8261L5.08036 2.17231ZM17.7884 19.6217C17.7884 19.7353 17.6929 19.8277 17.5755 19.8277H2.42446C2.30706 19.8277 2.21154 19.7353 2.21154 19.6217V7.12874H17.7884V19.6217Z" stroke="white" stroke-width="0.6"/>
<path d="M12.7498 11.5479C12.5133 11.3191 12.1297 11.3191 11.8931 11.5479L9.18825 14.1652L8.14816 13.1588C7.91163 12.9299 7.52803 12.9299 7.29147 13.1588C7.0549 13.3877 7.0549 13.7588 7.29147 13.9877L8.75997 15.4086C8.87825 15.5231 9.03331 15.5803 9.18829 15.5803C9.34327 15.5803 9.49837 15.5231 9.61662 15.4086L12.7498 12.3769C12.9864 12.148 12.9864 11.7768 12.7498 11.5479Z" stroke="white" stroke-width="0.6"/>
</svg>
