<svg width="18" height="22" viewBox="0 0 18 22" fill="none" xmlns="http://www.w3.org/2000/svg">
<path d="M16.9904 17.4929L16.0893 6.23836C16.0331 5.51328 15.4144 4.94527 14.6807 4.94527H12.9007V4.86598C12.9007 2.73426 11.1509 1 9.00005 1C6.84921 1 5.0994 2.73426 5.0994 4.86598V4.94527H3.31944C2.58569 4.94527 1.96695 5.51324 1.91098 6.23684L1.00953 17.4944C0.939774 18.3958 1.25527 19.2932 1.87508 19.9564C2.49489 20.6196 3.37351 21 4.28565 21H13.7144C14.6265 21 15.5052 20.6196 16.125 19.9564C16.7448 19.2931 17.0603 18.3958 16.9904 17.4929ZM6.28139 4.86598C6.28139 3.38023 7.50102 2.17148 9.00005 2.17148C10.4991 2.17148 11.7187 3.38027 11.7187 4.86598V4.94527H6.28139V4.86598ZM15.2578 19.1604C14.8551 19.5912 14.307 19.8285 13.7144 19.8285H4.28569C3.69307 19.8285 3.145 19.5912 2.74228 19.1604C2.3396 18.7295 2.14277 18.1696 2.18802 17.5855L3.08939 6.32793C3.09853 6.20949 3.19959 6.11676 3.31944 6.11676H5.0994V7.55953C5.0994 7.88301 5.36402 8.14527 5.6904 8.14527C6.01677 8.14527 6.28139 7.88301 6.28139 7.55953V6.11676H11.7187V7.55953C11.7187 7.88301 11.9833 8.14527 12.3097 8.14527C12.6361 8.14527 12.9007 7.88301 12.9007 7.55953V6.11676H14.6807C14.8005 6.11676 14.9016 6.20953 14.9109 6.32949L15.812 17.584C15.8574 18.1696 15.6605 18.7294 15.2578 19.1604Z" fill="white"/>
<path d="M11.6626 10.933C11.4319 10.7043 11.0576 10.7043 10.8269 10.933L8.18795 13.5485L7.17323 12.5428C6.94246 12.314 6.56824 12.314 6.33744 12.5428C6.10664 12.7715 6.10664 13.1424 6.33744 13.3711L7.77005 14.791C7.88545 14.9054 8.03672 14.9626 8.18791 14.9626C8.3391 14.9626 8.4904 14.9054 8.60576 14.791L11.6625 11.7614C11.8934 11.5326 11.8934 11.1618 11.6626 10.933Z" fill="white"/>
<path d="M16.9904 17.4929L16.0893 6.23836C16.0331 5.51328 15.4144 4.94527 14.6807 4.94527H12.9007V4.86598C12.9007 2.73426 11.1509 1 9.00005 1C6.84921 1 5.0994 2.73426 5.0994 4.86598V4.94527H3.31944C2.58569 4.94527 1.96695 5.51324 1.91098 6.23684L1.00953 17.4944C0.939774 18.3958 1.25527 19.2932 1.87508 19.9564C2.49489 20.6196 3.37351 21 4.28565 21H13.7144C14.6265 21 15.5052 20.6196 16.125 19.9564C16.7448 19.2931 17.0603 18.3958 16.9904 17.4929ZM6.28139 4.86598C6.28139 3.38023 7.50102 2.17148 9.00005 2.17148C10.4991 2.17148 11.7187 3.38027 11.7187 4.86598V4.94527H6.28139V4.86598ZM15.2578 19.1604C14.8551 19.5912 14.307 19.8285 13.7144 19.8285H4.28569C3.69307 19.8285 3.145 19.5912 2.74228 19.1604C2.3396 18.7295 2.14277 18.1696 2.18802 17.5855L3.08939 6.32793C3.09853 6.20949 3.19959 6.11676 3.31944 6.11676H5.0994V7.55953C5.0994 7.88301 5.36402 8.14527 5.6904 8.14527C6.01677 8.14527 6.28139 7.88301 6.28139 7.55953V6.11676H11.7187V7.55953C11.7187 7.88301 11.9833 8.14527 12.3097 8.14527C12.6361 8.14527 12.9007 7.88301 12.9007 7.55953V6.11676H14.6807C14.8005 6.11676 14.9016 6.20953 14.9109 6.32949L15.812 17.584C15.8574 18.1696 15.6605 18.7294 15.2578 19.1604Z" stroke="white" stroke-width="0.7"/>
<path d="M11.6626 10.933C11.4319 10.7043 11.0576 10.7043 10.8269 10.933L8.18795 13.5485L7.17323 12.5428C6.94246 12.314 6.56824 12.314 6.33744 12.5428C6.10664 12.7715 6.10664 13.1424 6.33744 13.3711L7.77005 14.791C7.88545 14.9054 8.03672 14.9626 8.18791 14.9626C8.3391 14.9626 8.4904 14.9054 8.60576 14.791L11.6625 11.7614C11.8934 11.5326 11.8934 11.1618 11.6626 10.933Z" stroke="white" stroke-width="0.7"/>
</svg>
