<svg width="22" height="22" viewBox="0 0 22 22" fill="none" xmlns="http://www.w3.org/2000/svg">
<path d="M18.0711 3.92892C16.1823 2.04019 13.6711 1 11 1C8.3288 1 5.81766 2.04019 3.92892 3.92892C2.04019 5.81766 1 8.3288 1 11C1 13.6711 2.04019 16.1823 3.92892 18.0711C5.81766 19.9598 8.3288 21 11 21C13.6711 21 16.1823 19.9598 18.0711 18.0711C19.9598 16.1823 21 13.6711 21 11C21 8.3288 19.9598 5.81766 18.0711 3.92892ZM6.01328 18.2807C6.43152 15.8726 8.51831 14.0963 11 14.0963C13.4818 14.0963 15.5685 15.8726 15.9867 18.2807C14.5669 19.2562 12.8491 19.8281 11 19.8281C9.15094 19.8281 7.43311 19.2562 6.01328 18.2807ZM7.82037 9.74481C7.82037 7.99142 9.24677 6.56519 11 6.56519C12.7532 6.56519 14.1796 7.99158 14.1796 9.74481C14.1796 11.498 12.7532 12.9244 11 12.9244C9.24677 12.9244 7.82037 11.498 7.82037 9.74481ZM17.0017 17.4679C16.6863 16.3468 16.06 15.3297 15.182 14.5352C14.6433 14.0476 14.0302 13.663 13.3711 13.3918C14.5625 12.6147 15.3517 11.2702 15.3517 9.74481C15.3517 7.34537 13.3994 5.39331 11 5.39331C8.60056 5.39331 6.6485 7.34537 6.6485 9.74481C6.6485 11.2702 7.43768 12.6147 8.62894 13.3918C7.96991 13.663 7.35666 14.0475 6.81802 14.535C5.94019 15.3295 5.31366 16.3467 4.99826 17.4677C3.26105 15.8544 2.17188 13.5522 2.17188 11C2.17188 6.13214 6.13214 2.17188 11 2.17188C15.8679 2.17188 19.8281 6.13214 19.8281 11C19.8281 13.5523 18.739 15.8546 17.0017 17.4679Z" fill="white" stroke="white" stroke-width="0.7"/>
</svg>
