<svg width="22" height="21" viewBox="0 0 22 21" fill="none" xmlns="http://www.w3.org/2000/svg">
<path d="M20.7793 3.34414C20.4836 3.03436 20.0045 3.03354 19.7078 3.34202L13.9555 9.32885L12.2931 7.59166C11.9972 7.28265 11.5179 7.28236 11.2219 7.59166L4.47953 14.6375C4.18355 14.9465 4.18355 15.4479 4.47953 15.7569C4.62726 15.9116 4.82121 15.9889 5.01515 15.9889C5.20882 15.9889 5.40304 15.9116 5.55074 15.7569L11.7576 9.27109L13.4189 11.0069C13.7146 11.3159 14.1927 11.3162 14.4891 11.0082L20.777 4.4638C21.0734 4.15533 21.0745 3.65393 20.7793 3.34414Z" fill="white"/>
<path d="M20.2172 18.4167H2.51515V1.79167C2.51515 1.3544 2.17601 1 1.75758 1C1.33914 1 1 1.3544 1 1.79167V19.2083C1 19.6456 1.33914 20 1.75758 20H20.2172C20.6356 20 20.9747 19.6456 20.9747 19.2083C20.9747 18.7711 20.6356 18.4167 20.2172 18.4167Z" fill="white"/>
<path d="M20.2424 3.08473H14.5606C14.1422 3.08473 13.803 3.43913 13.803 3.8764C13.803 4.31367 14.1422 4.66807 14.5606 4.66807H19.4849V9.81416C19.4849 10.2511 19.824 10.6058 20.2424 10.6058C20.6609 10.6058 21 10.2511 21 9.81387V3.8764C21 3.43913 20.6608 3.08473 20.2424 3.08473Z" fill="white"/>
<path d="M20.7793 3.34414C20.4836 3.03436 20.0045 3.03354 19.7078 3.34202L13.9555 9.32885L12.2931 7.59166C11.9972 7.28265 11.5179 7.28236 11.2219 7.59166L4.47953 14.6375C4.18355 14.9465 4.18355 15.4479 4.47953 15.7569C4.62726 15.9116 4.82121 15.9889 5.01515 15.9889C5.20882 15.9889 5.40304 15.9116 5.55074 15.7569L11.7576 9.27109L13.4189 11.0069C13.7146 11.3159 14.1927 11.3162 14.4891 11.0082L20.777 4.4638C21.0734 4.15533 21.0745 3.65393 20.7793 3.34414Z" stroke="white" stroke-width="0.5"/>
<path d="M20.2172 18.4167H2.51515V1.79167C2.51515 1.3544 2.17601 1 1.75758 1C1.33914 1 1 1.3544 1 1.79167V19.2083C1 19.6456 1.33914 20 1.75758 20H20.2172C20.6356 20 20.9747 19.6456 20.9747 19.2083C20.9747 18.7711 20.6356 18.4167 20.2172 18.4167Z" stroke="white" stroke-width="0.5"/>
<path d="M20.2424 3.08473H14.5606C14.1422 3.08473 13.803 3.43913 13.803 3.8764C13.803 4.31367 14.1422 4.66807 14.5606 4.66807H19.4849V9.81416C19.4849 10.2511 19.824 10.6058 20.2424 10.6058C20.6609 10.6058 21 10.2511 21 9.81387V3.8764C21 3.43913 20.6608 3.08473 20.2424 3.08473Z" stroke="white" stroke-width="0.5"/>
</svg>
