<svg width="22" height="22" viewBox="0 0 22 22" fill="none" xmlns="http://www.w3.org/2000/svg">
<path d="M9.2914 16.2438L6.93465 18.6005C5.95759 19.5776 4.37531 19.5776 3.39907 18.6007C2.42264 17.6243 2.42264 16.0419 3.39888 15.0657L8.1132 10.3515C9.08944 9.37526 10.6719 9.37526 11.6481 10.3515C11.9735 10.6769 12.5012 10.6769 12.8267 10.3515C13.1521 10.0261 13.1521 9.49842 12.8267 9.17299C11.1995 7.54587 8.5618 7.54587 6.93465 9.17299L2.22037 13.8872C0.593211 15.5143 0.593211 18.1519 2.22037 19.779C3.84733 21.407 6.48522 21.407 8.11324 19.779L10.47 17.4223C10.7954 17.0969 10.7954 16.5692 10.47 16.2438C10.1445 15.9184 9.61683 15.9184 9.2914 16.2438Z" fill="white"/>
<path d="M19.7796 2.22034C18.1525 0.593221 15.5139 0.593221 13.8868 2.22034L11.0592 5.04785C10.7337 5.37328 10.7337 5.90094 11.0592 6.22637C11.3846 6.5518 11.9123 6.5518 12.2377 6.22637L15.0653 3.39886C16.0416 2.4226 17.6248 2.4226 18.6011 3.39886C19.5773 4.37507 19.5773 5.95747 18.6011 6.93368L13.4159 12.1187C12.4397 13.095 10.8573 13.095 9.88102 12.1187C9.55558 11.7933 9.02791 11.7933 8.70247 12.1187C8.37703 12.4442 8.37703 12.9718 8.70247 13.2973C10.3296 14.9244 12.9673 14.9244 14.5945 13.2973L19.7796 8.11224C21.4068 6.48512 21.4068 3.84746 19.7796 2.22034Z" fill="white"/>
<path d="M9.2914 16.2438L6.93465 18.6005C5.95759 19.5776 4.37531 19.5776 3.39907 18.6007C2.42264 17.6243 2.42264 16.0419 3.39888 15.0657L8.1132 10.3515C9.08944 9.37526 10.6719 9.37526 11.6481 10.3515C11.9735 10.6769 12.5012 10.6769 12.8267 10.3515C13.1521 10.0261 13.1521 9.49842 12.8267 9.17299C11.1995 7.54587 8.5618 7.54587 6.93465 9.17299L2.22037 13.8872C0.593211 15.5143 0.593211 18.1519 2.22037 19.779C3.84733 21.407 6.48522 21.407 8.11324 19.779L10.47 17.4223C10.7954 17.0969 10.7954 16.5692 10.47 16.2438C10.1445 15.9184 9.61683 15.9184 9.2914 16.2438Z" stroke="white" stroke-width="0.5"/>
<path d="M19.7796 2.22034C18.1525 0.593221 15.5139 0.593221 13.8868 2.22034L11.0592 5.04785C10.7337 5.37328 10.7337 5.90094 11.0592 6.22637C11.3846 6.5518 11.9123 6.5518 12.2377 6.22637L15.0653 3.39886C16.0416 2.4226 17.6248 2.4226 18.6011 3.39886C19.5773 4.37507 19.5773 5.95747 18.6011 6.93368L13.4159 12.1187C12.4397 13.095 10.8573 13.095 9.88102 12.1187C9.55558 11.7933 9.02791 11.7933 8.70247 12.1187C8.37703 12.4442 8.37703 12.9718 8.70247 13.2973C10.3296 14.9244 12.9673 14.9244 14.5945 13.2973L19.7796 8.11224C21.4068 6.48512 21.4068 3.84746 19.7796 2.22034Z" stroke="white" stroke-width="0.5"/>
</svg>
