<svg width="22" height="20" viewBox="0 0 22 20" fill="none" xmlns="http://www.w3.org/2000/svg">
<path d="M4.78577 9.77069C2.73601 7.91415 2.56814 4.73502 4.41086 2.66989C6.10095 0.775819 8.92979 0.454048 10.9965 1.92084C13.2494 0.318947 16.3646 0.860405 17.9546 3.13017C19.4135 5.21289 19.0954 8.0659 17.2143 9.77065C19.5517 11.012 21.0105 13.4594 20.9999 16.1214V18.2803C20.9999 18.6778 20.6801 19 20.2856 19H1.71435C1.31985 19 1.00006 18.6778 1.00006 18.2803V16.1214C0.989511 13.4594 2.44836 11.012 4.78577 9.77069ZM8.14292 2.44834C6.17327 2.44615 4.57475 4.05307 4.57254 6.0375C4.57099 7.45276 5.39414 8.73711 6.67508 9.31799C6.73007 9.34316 6.78506 9.36619 6.84077 9.38997C7.01705 9.46161 7.19886 9.51862 7.38435 9.56053C7.42005 9.56846 7.45579 9.57276 7.4922 9.57997C7.69946 9.61999 7.90976 9.64141 8.12078 9.64402C8.21579 9.64402 8.31151 9.63681 8.40651 9.62821C8.44221 9.62821 8.47795 9.62821 8.51365 9.621C8.91962 9.57284 9.31454 9.45558 9.6815 9.27414C9.69506 9.26764 9.7108 9.26836 9.72436 9.26263C9.7958 9.22809 9.8672 9.19786 9.93077 9.15898C9.92504 9.15177 9.92148 9.14389 9.91579 9.13668C9.58825 8.71265 9.33003 8.2387 9.15081 7.73266L9.12867 7.6722C9.04719 7.4305 8.98391 7.18299 8.93938 6.93167C8.93293 6.89499 8.92795 6.8597 8.92222 6.82014C8.88091 6.56432 8.85919 6.30572 8.85722 6.04652C8.85927 5.78783 8.88099 5.52969 8.92222 5.27433C8.92795 5.23693 8.93293 5.20235 8.93938 5.1628C8.98391 4.91153 9.04719 4.66397 9.12867 4.42227L9.15081 4.36181C9.33003 3.85577 9.5883 3.38182 9.91579 2.9578C9.92153 2.95059 9.92508 2.9427 9.93077 2.93549C9.38812 2.61655 8.77117 2.44839 8.14292 2.44834ZM17.4286 6.04656C17.4336 4.06449 15.8429 2.45357 13.8756 2.44847C12.9534 2.44607 12.0663 2.8041 11.4007 3.44722C11.3593 3.48753 11.3186 3.5278 11.2786 3.56955C11.1559 3.69904 11.0428 3.83734 10.94 3.98332C10.9086 4.02794 10.88 4.07546 10.8507 4.1215C10.7509 4.27629 10.6633 4.43872 10.5886 4.60726C10.5707 4.64829 10.5572 4.69003 10.5415 4.73102C10.4662 4.91743 10.4069 5.11005 10.3643 5.30671C10.3593 5.3283 10.3579 5.34989 10.3536 5.3722C10.2631 5.81903 10.2631 6.2797 10.3536 6.72654C10.3579 6.74884 10.3593 6.77043 10.3643 6.79202C10.4069 6.98868 10.4662 7.1813 10.5415 7.36772C10.5572 7.40874 10.5708 7.45049 10.5886 7.49147C10.6634 7.65976 10.751 7.82193 10.8507 7.97651C10.88 8.02256 10.9086 8.07008 10.94 8.11469C11.0428 8.26071 11.1559 8.39898 11.2786 8.52847C11.3186 8.57021 11.3593 8.61052 11.4007 8.65079C11.6899 8.92846 12.0234 9.15519 12.3871 9.32149C12.445 9.3481 12.5036 9.3726 12.5628 9.39347C12.735 9.46233 12.9122 9.51765 13.0928 9.55897C13.1378 9.56905 13.1843 9.57478 13.23 9.58271C13.4239 9.6191 13.6206 9.63904 13.8178 9.64246H13.8964C14.0936 9.63909 14.2903 9.6191 14.4842 9.58271C14.5299 9.57478 14.5764 9.56905 14.6214 9.55897C14.802 9.51765 14.9792 9.46233 15.1514 9.39347C15.2107 9.36973 15.2692 9.34527 15.3271 9.32149C16.605 8.74019 17.4269 7.45917 17.4286 6.04656ZM8.14292 17.5607H19.5714V16.1215C19.5819 13.6829 18.0568 11.5056 15.7729 10.6983C14.5468 11.2126 13.1676 11.2126 11.9414 10.6983C11.703 10.7861 11.4706 10.8897 11.2457 11.0085C11.0972 11.0855 10.96 11.1733 10.8172 11.2618C10.7243 11.32 10.63 11.3769 10.5407 11.441C10.4029 11.5396 10.2729 11.6468 10.145 11.7569C10.0629 11.8289 9.98146 11.9008 9.90433 11.9728C9.78647 12.085 9.67577 12.2038 9.56934 12.3254C9.49292 12.4132 9.41863 12.5024 9.3479 12.5946C9.25431 12.7155 9.16504 12.8393 9.08218 12.9666C9.01073 13.0745 8.94716 13.1868 8.88434 13.2991C8.8129 13.4228 8.74719 13.5466 8.68721 13.6755C8.6272 13.8043 8.57434 13.9453 8.52294 14.0828C8.47795 14.2022 8.43007 14.321 8.39295 14.4426C8.34294 14.6095 8.30795 14.7822 8.27296 14.9549C8.25153 15.0571 8.22366 15.1572 8.20796 15.2608C8.16565 15.5457 8.14393 15.8334 8.14297 16.1215L8.14292 17.5607ZM2.42865 17.5607H6.71433V16.1215C6.71433 15.8962 6.72718 15.6731 6.74719 15.4522C6.75292 15.3874 6.76288 15.3234 6.77004 15.2586C6.78933 15.0996 6.81147 14.942 6.84148 14.7858C6.85433 14.7192 6.86789 14.6522 6.8822 14.585C6.91648 14.4248 6.95624 14.266 7.00148 14.1086C7.01647 14.0568 7.03007 14.0043 7.04576 13.9532C7.24578 13.309 7.5356 12.6968 7.90646 12.1347L7.93433 12.0937C8.05717 11.9099 8.18838 11.7322 8.32791 11.5604L8.33289 11.5539C8.47574 11.3755 8.63076 11.202 8.7936 11.038C8.78431 11.038 8.77431 11.038 8.76431 11.038C8.56275 11.0646 8.35976 11.0791 8.15644 11.0811H8.11714C7.92898 11.0795 7.7411 11.0672 7.55427 11.0444C7.49572 11.0372 7.43784 11.0264 7.37929 11.0171C7.22736 10.9936 7.07736 10.9631 6.92929 10.9257C6.88714 10.9149 6.84429 10.9048 6.80143 10.8926C6.60711 10.8393 6.41626 10.7739 6.23002 10.6969C3.94437 11.5034 2.41797 13.6816 2.42861 16.1215L2.42865 17.5607Z" fill="white" stroke="white" stroke-width="0.5"/>
</svg>
