<svg width="25" height="18" viewBox="0 0 25 18" fill="none" xmlns="http://www.w3.org/2000/svg">
<path d="M22.5 0H2.5C1.41 0.04 0.54 0.91 0.5 2V16C0.54 17.09 1.41 17.96 2.5 18H22.5C23.59 17.96 24.46 17.09 24.5 16V2C24.46 0.91 23.59 0.04 22.5 0ZM22.5 16H2.5V2H22.5V16ZM14.5 14V12.75C14.5 11.09 11.16 10.25 9.5 10.25C7.84 10.25 4.5 11.09 4.5 12.75V14H14.5ZM9.5 4C8.83696 4 8.20107 4.26339 7.73223 4.73223C7.26339 5.20107 7 5.83696 7 6.5C7 6.8283 7.06466 7.15339 7.1903 7.45671C7.31594 7.76002 7.50009 8.03562 7.73223 8.26777C8.20107 8.73661 8.83696 9 9.5 9C9.8283 9 10.1534 8.93534 10.4567 8.8097C10.76 8.68406 11.0356 8.49991 11.2678 8.26777C11.4999 8.03562 11.6841 7.76002 11.8097 7.45671C11.9353 7.15339 12 6.8283 12 6.5C12 6.1717 11.9353 5.84661 11.8097 5.54329C11.6841 5.23998 11.4999 4.96438 11.2678 4.73223C11.0356 4.50009 10.76 4.31594 10.4567 4.1903C10.1534 4.06466 9.8283 4 9.5 4ZM14.5 4V5H20.5V4H14.5ZM14.5 6V7H20.5V6H14.5ZM14.5 8V9H18.5V8H14.5Z" fill="black"/>
</svg>
