<svg width="23" height="21" viewBox="0 0 23 21" fill="none" xmlns="http://www.w3.org/2000/svg">
<path d="M21.2 16.6V15.6L22.3 14.8C22.4 14.7 22.5 14.6 22.4 14.5L21.4 12.8C21.4 12.7 21.2 12.7 21.1 12.7L19.9 13.2C19.6 13 19.3 12.8 19 12.7L18.8 11.4C18.8 11.3 18.7 11.2 18.6 11.2H16.6C16.4 11.2 16.3 11.3 16.3 11.4L16.1 12.7C15.8 12.9 15.6 13 15.3 13.2L14.1 12.7C14 12.7 13.9 12.7 13.8 12.8L12.8 14.5C12.8 14.6 12.8 14.7 12.9 14.8L14 15.6V16.6L12.9 17.4C12.8 17.5 12.7 17.6 12.8 17.7L13.8 19.4C13.9 19.5 14 19.5 14.1 19.5L15.3 19C15.5 19.2 15.8 19.4 16.1 19.5L16.3 20.8C16.4 20.9 16.5 21 16.6 21H18.6C18.7 21 18.8 20.9 18.8 20.8L19 19.5C19.3 19.3 19.5 19.2 19.8 19L21 19.4C21.1 19.4 21.2 19.4 21.3 19.3L22.3 17.6C22.4 17.5 22.4 17.4 22.3 17.4L21.2 16.6ZM17.5 17.5C16.7 17.5 16 16.8 16 16C16 15.2 16.7 14.5 17.5 14.5C18.3 14.5 19 15.2 19 16C19 16.8 18.3 17.5 17.5 17.5ZM11.8 20H2.5C1.4 20 0.5 19.1 0.5 18V2C0.5 0.9 1.4 0 2.5 0H20.5C21.6 0 22.5 0.9 22.5 2V11.1C21.9 10.5 21.2 10 20.5 9.7V4H2.5V18H10.8C11 18.7 11.3 19.4 11.8 20Z" fill="black"/>
</svg>
