<svg width="25" height="14" viewBox="0 0 25 14" fill="none" xmlns="http://www.w3.org/2000/svg">
<path d="M12.5 0C11.5717 0 10.6815 0.368749 10.0251 1.02513C9.36875 1.6815 9 2.57174 9 3.5C9 4.42826 9.36875 5.3185 10.0251 5.97487C10.6815 6.63125 11.5717 7 12.5 7C13.4283 7 14.3185 6.63125 14.9749 5.97487C15.6313 5.3185 16 4.42826 16 3.5C16 2.57174 15.6313 1.6815 14.9749 1.02513C14.3185 0.368749 13.4283 0 12.5 0ZM12.5 2C12.8978 2 13.2794 2.15804 13.5607 2.43934C13.842 2.72064 14 3.10218 14 3.5C14 3.89782 13.842 4.27936 13.5607 4.56066C13.2794 4.84196 12.8978 5 12.5 5C12.1022 5 11.7206 4.84196 11.4393 4.56066C11.158 4.27936 11 3.89782 11 3.5C11 3.10218 11.158 2.72064 11.4393 2.43934C11.7206 2.15804 12.1022 2 12.5 2ZM6 3C5.33696 3 4.70107 3.26339 4.23223 3.73223C3.76339 4.20107 3.5 4.83696 3.5 5.5C3.5 6.44 4.03 7.25 4.79 7.68C5.15 7.88 5.56 8 6 8C6.44 8 6.85 7.88 7.21 7.68C7.58 7.47 7.89 7.17 8.12 6.81C7.39 5.86 7 4.7 7 3.5C7 3.41 7 3.31 7 3.22C6.7 3.08 6.36 3 6 3ZM19 3C18.64 3 18.3 3.08 18 3.22C18 3.31 18 3.41 18 3.5C18 4.7 17.61 5.86 16.88 6.81C17 7 17.13 7.15 17.28 7.3C17.44 7.45 17.6 7.58 17.79 7.68C18.15 7.88 18.56 8 19 8C19.44 8 19.85 7.88 20.21 7.68C20.97 7.25 21.5 6.44 21.5 5.5C21.5 4.83696 21.2366 4.20107 20.7678 3.73223C20.2989 3.26339 19.663 3 19 3ZM12.5 9C10.16 9 5.5 10.17 5.5 12.5V14H19.5V12.5C19.5 10.17 14.84 9 12.5 9ZM5.21 9.55C3.28 9.78 0.5 10.76 0.5 12.5V14H3.5V12.07C3.5 11.06 4.19 10.22 5.21 9.55ZM19.79 9.55C20.81 10.22 21.5 11.06 21.5 12.07V14H24.5V12.5C24.5 10.76 21.72 9.78 19.79 9.55ZM12.5 11C14.03 11 15.74 11.5 16.73 12H8.27C9.26 11.5 10.97 11 12.5 11Z" fill="black"/>
</svg>
