<svg width="143" height="28" viewBox="0 0 143 28" fill="none" xmlns="http://www.w3.org/2000/svg">
<path d="M18.66 6H22.77L18 21H14.31L11.55 11.91L8.79 21H5.1L0.33 6H4.44L6.99 15.21L9.72 6H13.38L16.11 15.24L18.66 6ZM27.54 15.09C28.06 16.97 29.47 17.91 31.77 17.91C33.25 17.91 34.37 17.41 35.13 16.41L38.25 18.21C36.77 20.35 34.59 21.42 31.71 21.42C29.23 21.42 27.24 20.67 25.74 19.17C24.24 17.67 23.49 15.78 23.49 13.5C23.49 11.24 24.23 9.36 25.71 7.86C27.19 6.34 29.09 5.58 31.41 5.58C33.61 5.58 35.42 6.34 36.84 7.86C38.28 9.38 39 11.26 39 13.5C39 14 38.95 14.53 38.85 15.09H27.54ZM27.48 12.09H35.13C34.91 11.07 34.45 10.31 33.75 9.81C33.07 9.31 32.29 9.06 31.41 9.06C30.37 9.06 29.51 9.33 28.83 9.87C28.15 10.39 27.7 11.13 27.48 12.09ZM52.9545 -1.43051e-06H56.8245V21H52.9545V19.23C51.8145 20.69 50.1945 21.42 48.0945 21.42C46.0745 21.42 44.3445 20.66 42.9045 19.14C41.4845 17.6 40.7745 15.72 40.7745 13.5C40.7745 11.28 41.4845 9.41 42.9045 7.89C44.3445 6.35 46.0745 5.58 48.0945 5.58C50.1945 5.58 51.8145 6.31 52.9545 7.77V-1.43051e-06ZM45.8145 16.56C46.6145 17.34 47.6145 17.73 48.8145 17.73C50.0145 17.73 51.0045 17.34 51.7845 16.56C52.5645 15.76 52.9545 14.74 52.9545 13.5C52.9545 12.26 52.5645 11.25 51.7845 10.47C51.0045 9.67 50.0145 9.27 48.8145 9.27C47.6145 9.27 46.6145 9.67 45.8145 10.47C45.0345 11.25 44.6445 12.26 44.6445 13.5C44.6445 14.74 45.0345 15.76 45.8145 16.56ZM73.1438 19.14C71.6038 20.66 69.7238 21.42 67.5038 21.42C65.2838 21.42 63.4038 20.66 61.8638 19.14C60.3438 17.6 59.5837 15.72 59.5837 13.5C59.5837 11.28 60.3438 9.41 61.8638 7.89C63.4038 6.35 65.2838 5.58 67.5038 5.58C69.7238 5.58 71.6038 6.35 73.1438 7.89C74.6838 9.41 75.4538 11.28 75.4538 13.5C75.4538 15.72 74.6838 17.6 73.1438 19.14ZM64.5938 16.47C65.3738 17.25 66.3438 17.64 67.5038 17.64C68.6638 17.64 69.6338 17.25 70.4138 16.47C71.1938 15.69 71.5838 14.7 71.5838 13.5C71.5838 12.3 71.1938 11.31 70.4138 10.53C69.6338 9.75 68.6638 9.36 67.5038 9.36C66.3438 9.36 65.3738 9.75 64.5938 10.53C63.8338 11.31 63.4538 12.3 63.4538 13.5C63.4538 14.7 63.8338 15.69 64.5938 16.47ZM105.359 6H109.499L104.039 21C103.259 23.16 102.219 24.72 100.919 25.68C99.6386 26.66 98.0386 27.1 96.1186 27V23.4C97.1586 23.42 97.9786 23.2 98.5786 22.74C99.1986 22.28 99.6886 21.54 100.049 20.52L93.8986 6H98.1286L102.029 16.08L105.359 6ZM123.534 19.14C121.994 20.66 120.114 21.42 117.894 21.42C115.674 21.42 113.794 20.66 112.254 19.14C110.734 17.6 109.974 15.72 109.974 13.5C109.974 11.28 110.734 9.41 112.254 7.89C113.794 6.35 115.674 5.58 117.894 5.58C120.114 5.58 121.994 6.35 123.534 7.89C125.074 9.41 125.844 11.28 125.844 13.5C125.844 15.72 125.074 17.6 123.534 19.14ZM114.984 16.47C115.764 17.25 116.734 17.64 117.894 17.64C119.054 17.64 120.024 17.25 120.804 16.47C121.584 15.69 121.974 14.7 121.974 13.5C121.974 12.3 121.584 11.31 120.804 10.53C120.024 9.75 119.054 9.36 117.894 9.36C116.734 9.36 115.764 9.75 114.984 10.53C114.224 11.31 113.844 12.3 113.844 13.5C113.844 14.7 114.224 15.69 114.984 16.47ZM138.467 6H142.337V21H138.467V19.32C137.527 20.72 136.037 21.42 133.997 21.42C132.357 21.42 130.997 20.87 129.917 19.77C128.857 18.67 128.327 17.15 128.327 15.21V6H132.197V14.73C132.197 15.73 132.467 16.5 133.007 17.04C133.547 17.56 134.267 17.82 135.167 17.82C136.167 17.82 136.967 17.51 137.567 16.89C138.167 16.27 138.467 15.34 138.467 14.1V6Z" fill="black"/>
<path d="M93.3863 13.59V17.43H91.1363V21H86.9663V17.43H77.0363V13.59L84.0263 -1.43051e-06H88.4663L81.5063 13.59H86.9663V8.61H91.1363V13.59H93.3863Z" fill="#FD5742"/>
</svg>
