<svg width="74" height="67" viewBox="0 0 74 67" fill="none" xmlns="http://www.w3.org/2000/svg">
<path d="M37 14.5652C36.2023 14.5652 35.5547 15.2178 35.5547 16.0217C35.5547 16.8257 36.2023 17.4783 37 17.4783C37.7977 17.4783 38.4453 16.8257 38.4453 16.0217C38.4453 15.2178 37.7977 14.5652 37 14.5652Z" fill="#FD5742"/>
<path d="M13.0078 40.7826C13.8056 40.7826 14.4531 40.13 14.4531 39.3261C14.4531 38.5222 13.8056 37.8696 13.0078 37.8696C12.2101 37.8696 11.5625 38.5222 11.5625 39.3261C11.5625 40.13 12.2101 40.7826 13.0078 40.7826Z" fill="#FD5742"/>
<path d="M48.5625 0C35.5507 0 24.8712 9.04068 24.0453 20.4283C11.6534 21.0547 0 30.0595 0 42.2391C0 47.329 1.9986 52.2607 5.63672 56.1683C6.35655 59.1587 5.48259 62.3283 3.31406 64.5137C2.90079 64.9301 2.77715 65.5566 3.00072 66.1011C3.22429 66.645 3.75104 67 4.33594 67C8.4579 67 12.4303 65.3711 15.3819 62.5007C18.2572 63.4884 22.0088 64.087 25.4375 64.087C38.4476 64.087 49.1259 55.0486 49.9542 43.6632C52.9803 43.5278 56.1278 42.9645 58.6181 42.1094C61.5697 44.9798 65.5421 46.6087 69.6641 46.6087C70.249 46.6087 70.7757 46.2537 70.9993 45.7097C71.2229 45.1653 71.0992 44.5388 70.6859 44.1224C68.5174 41.937 67.6434 38.7674 68.3633 35.777C72.0014 31.8694 74 26.9377 74 21.8478C74 9.19259 61.4489 0 48.5625 0ZM25.4375 61.1739C22.0263 61.1739 18.1392 60.4991 15.5354 59.4551C14.9776 59.2309 14.3402 59.3783 13.9343 59.8249C12.1892 61.7474 9.92015 63.0879 7.44788 63.7041C8.8102 61.0738 9.15797 57.973 8.32918 55.0349C8.26369 54.8033 8.1423 54.5917 7.97575 54.4193C4.6967 51.0158 2.89062 46.6901 2.89062 42.2391C2.89062 31.9752 13.2156 23.3043 25.4375 23.3043C36.9785 23.3043 47.1172 31.392 47.1172 42.2391C47.1172 52.68 37.3918 61.1739 25.4375 61.1739ZM66.0242 34.028C65.8577 34.201 65.7363 34.4126 65.6708 34.6436C64.842 37.5817 65.1898 40.6825 66.5521 43.3127C64.0798 42.6971 61.8108 41.3561 60.0657 39.4336C59.6598 38.9876 59.0224 38.8396 58.4646 39.0638C56.208 39.9684 52.9888 40.5949 49.9497 40.7462C49.5274 35.2382 46.801 30.0612 42.1399 26.2174H60.9922C61.7905 26.2174 62.4375 25.5654 62.4375 24.7609C62.4375 23.9564 61.7905 23.3043 60.9922 23.3043H37.6995C34.4188 21.6214 30.7349 20.6399 26.9432 20.434C27.7737 10.6514 37.153 2.91304 48.5625 2.91304C60.7844 2.91304 71.1094 11.5839 71.1094 21.8478C71.1094 26.2988 69.3033 30.6245 66.0242 34.028Z" fill="#FD5742"/>
<path d="M37 37.8696H18.7891C17.9908 37.8696 17.3438 38.5216 17.3438 39.3261C17.3438 40.1306 17.9908 40.7826 18.7891 40.7826H37C37.7983 40.7826 38.4453 40.1306 38.4453 39.3261C38.4453 38.5216 37.7983 37.8696 37 37.8696Z" fill="#FD5742"/>
<path d="M37 46.6087H13.0078C12.2095 46.6087 11.5625 47.2607 11.5625 48.0652C11.5625 48.8697 12.2095 49.5217 13.0078 49.5217H37C37.7983 49.5217 38.4453 48.8697 38.4453 48.0652C38.4453 47.2607 37.7983 46.6087 37 46.6087Z" fill="#FD5742"/>
<path d="M60.9922 14.5652H42.7812C41.9829 14.5652 41.3359 15.2172 41.3359 16.0217C41.3359 16.8262 41.9829 17.4783 42.7812 17.4783H60.9922C61.7905 17.4783 62.4375 16.8262 62.4375 16.0217C62.4375 15.2172 61.7905 14.5652 60.9922 14.5652Z" fill="#FD5742"/>
</svg>
