<svg width="86" height="63" viewBox="0 0 86 63" fill="none" xmlns="http://www.w3.org/2000/svg">
<path d="M84.7342 21.6375L43.6499 0.159928C43.2425 -0.0533094 42.7575 -0.0533094 42.3494 0.159928L1.26507 21.6375C0.795377 21.8836 0.5 22.3737 0.5 22.9085C0.5 23.4441 0.795377 23.9342 1.26507 24.1803L20.3324 34.1486V50.1135C20.3324 55.8282 30.0764 60.1363 42.9997 60.1363C55.9229 60.1363 65.6669 55.8282 65.6669 50.1135V34.1486L74.1671 29.7098V37.4961C72.4771 38.1001 71.3434 39.711 71.3337 41.5224V61.5682C71.3337 62.3589 71.968 63 72.7504 63H78.4172C79.1996 63 79.8339 62.3589 79.8339 61.5682V41.5224C79.827 39.7089 78.6925 38.0952 77.0005 37.4905V28.2241L84.7342 24.1803C85.2046 23.9342 85.5 23.4441 85.5 22.9085C85.5 22.3737 85.2046 21.8836 84.7342 21.6375ZM77.0005 60.1363H74.1671V41.5224C74.1671 40.7317 74.8014 40.0906 75.5838 40.0906C76.3661 40.0906 77.0005 40.7317 77.0005 41.5224V60.1363ZM62.8335 50.1135C62.8335 53.4931 54.3519 57.2726 42.9997 57.2726C31.6481 57.2726 23.1658 53.4931 23.1658 50.1135V35.6308L42.3494 45.6536C42.7569 45.8683 43.2425 45.8683 43.6499 45.6536L62.8335 35.6308V50.1135ZM75.5513 25.7568L43.1823 21.4886C42.4061 21.3865 41.6957 21.9395 41.5947 22.724C41.4937 23.5084 42.0409 24.2271 42.817 24.3292L71.14 28.0633L42.9997 42.7739L22.3994 32.0036H22.3911L4.99983 22.9085L42.9997 3.04318L80.9988 22.9085L75.5513 25.7568Z" fill="#FD5742"/>
</svg>
