<svg width="67" height="67" viewBox="0 0 67 67" fill="none" xmlns="http://www.w3.org/2000/svg">
<path d="M46.9434 21.994C44.989 21.994 43.0769 22.2723 41.2333 22.8201C41.3063 22.1152 41.344 21.3999 41.344 20.676C41.344 17.3635 40.5838 14.1983 39.085 11.2687C38.7555 10.6253 37.9672 10.3707 37.3241 10.6999C36.6809 11.0293 36.4263 11.8176 36.7554 12.4611C38.0637 15.0179 38.7271 17.7818 38.7271 20.6759C38.7271 30.6335 30.6275 38.7344 20.6718 38.7344C18.3509 38.7344 16.0904 38.2998 13.9536 37.4421C13.4674 37.2475 12.9117 37.3609 12.5412 37.7313L9.6818 40.5916V35.6356C9.6818 35.2446 9.50684 34.8739 9.20495 34.6252C5.01808 31.1779 2.61667 26.0935 2.61667 20.6759C2.61667 10.7182 10.7162 2.61729 20.6719 2.61729C23.0749 2.61729 25.4079 3.0814 27.6062 3.9968C28.3155 4.29208 29.0133 4.63696 29.6803 5.02188C30.3061 5.38286 31.1062 5.16834 31.4674 4.54233C31.8284 3.91644 31.6138 3.11608 30.9879 2.75498C30.2239 2.31429 29.4245 1.91902 28.612 1.58069C26.0935 0.531912 23.4221 0 20.6721 0C9.27352 0 0 9.27522 0 20.6759C0 26.67 2.56682 32.3074 7.06513 36.2411V43.7507C7.06513 44.28 7.38403 44.7572 7.87279 44.9597C8.03467 45.0267 8.20465 45.0593 8.3732 45.0593C8.7137 45.0593 9.04831 44.9263 9.29864 44.676L13.7951 40.1787C15.9998 40.9574 18.3089 41.3516 20.6721 41.3516C22.8632 41.3516 24.9751 41.0076 26.9583 40.373C26.9116 40.9321 26.8867 41.4933 26.8867 42.0542C26.8867 45.1176 27.5595 48.0586 28.8863 50.7958C29.1125 51.262 29.5788 51.5337 30.0644 51.5337C30.256 51.5337 30.4504 51.4916 30.6343 51.4023C31.2844 51.087 31.5559 50.3042 31.2407 49.6538C30.0878 47.2757 29.5033 44.7188 29.5033 42.0543C29.5033 41.1184 29.5796 40.1811 29.7281 39.259C35.122 36.6187 39.2044 31.6976 40.7109 25.7594C42.6972 24.9979 44.7903 24.6112 46.9432 24.6112C56.5597 24.6112 64.3833 32.4362 64.3833 42.0543C64.3833 47.3974 61.9827 52.3736 57.7973 55.7073C57.4854 55.9555 57.3039 56.3323 57.3039 56.731V62.5325L53.7201 58.948C53.3709 58.599 52.8555 58.4761 52.3869 58.63C50.6335 59.2056 48.802 59.4976 46.9432 59.4976C44.2842 59.4976 41.7317 58.9149 39.3573 57.7656C38.7072 57.451 37.9245 57.7229 37.6097 58.3736C37.2949 59.0241 37.5671 59.8066 38.2175 60.1215C40.9502 61.444 43.8861 62.1146 46.9432 62.1146C48.8067 62.1146 50.6472 61.8591 52.4256 61.3542L57.6872 66.6168C57.9376 66.8672 58.2722 67 58.6127 67C58.7812 67 58.9513 66.9674 59.1131 66.9004C59.6018 66.6978 59.9207 66.2207 59.9207 65.6914V57.3489C64.4282 53.5239 67 47.9858 67 42.0542C67.0003 30.993 58.0027 21.994 46.9434 21.994Z" fill="#FD5742"/>
<path d="M34.798 54.5722C34.7578 54.5334 34.718 54.4944 34.6784 54.455C34.1654 53.9463 33.3368 53.9501 32.8282 54.4633C32.3195 54.9765 32.3233 55.8051 32.8364 56.3139C32.8826 56.3597 32.9289 56.4049 32.9755 56.4502C33.2298 56.6971 33.5584 56.8197 33.8867 56.8197C34.2281 56.8197 34.5693 56.6867 34.8257 56.4226C35.3289 55.9039 35.3165 55.0754 34.798 54.5722Z" fill="#FD5742"/>
<path d="M35.8419 6.62979C35.2738 6.02341 34.449 6.11293 33.9797 6.55009C33.5106 6.98685 33.3625 7.80343 33.9266 8.41348C33.9305 8.41767 33.9346 8.42199 33.9385 8.42618C34.2209 8.72341 34.5644 8.85076 34.8963 8.85076C35.237 8.85076 35.565 8.71635 35.8013 8.49358C36.2674 8.05355 36.4101 7.23605 35.8419 6.62979Z" fill="#FD5742"/>
<path d="M14.9807 16.1601C14.7373 15.9167 14.401 15.7766 14.0557 15.7766C13.7115 15.7766 13.374 15.9167 13.1306 16.1601C12.8873 16.4034 12.7473 16.741 12.7473 17.0852C12.7473 17.4294 12.8873 17.767 13.1306 18.0104C13.374 18.2539 13.7115 18.3938 14.0557 18.3938C14.3998 18.3938 14.7373 18.2539 14.9807 18.0104C15.2254 17.767 15.364 17.4294 15.364 17.0852C15.364 16.741 15.2253 16.4033 14.9807 16.1601Z" fill="#FD5742"/>
<path d="M28.2134 16.1601C27.9701 15.9167 27.6326 15.7766 27.2883 15.7766C26.9429 15.7766 26.6054 15.9167 26.3621 16.1601C26.1187 16.4034 25.98 16.741 25.98 17.0852C25.98 17.4294 26.1189 17.767 26.3621 18.0104C26.6067 18.2539 26.9442 18.3938 27.2883 18.3938C27.6325 18.3938 27.9687 18.2539 28.2134 18.0104C28.4568 17.767 28.5967 17.4294 28.5967 17.0852C28.5967 16.741 28.4569 16.4033 28.2134 16.1601Z" fill="#FD5742"/>
<path d="M25.6816 23.8904C24.9831 23.7033 24.2664 24.1188 24.0799 24.8169C23.668 26.3596 22.2666 27.4371 20.6721 27.4371C19.0775 27.4371 17.6763 26.3596 17.2642 24.8169C17.0777 24.1186 16.3608 23.7032 15.6625 23.8904C14.9644 24.077 14.5497 24.7941 14.7361 25.4924C15.4536 28.1784 17.8944 30.0542 20.6721 30.0542C23.4496 30.0542 25.8905 28.1784 26.608 25.4924C26.7945 24.794 26.3798 24.0769 25.6816 23.8904Z" fill="#FD5742"/>
<path d="M41.4721 37.6287C41.2289 37.3853 40.8927 37.2454 40.5472 37.2454C40.203 37.2454 39.8656 37.3853 39.6222 37.6287C39.3787 37.8723 39.2389 38.2097 39.2389 38.554C39.2389 38.8995 39.3787 39.2357 39.6222 39.479C39.8656 39.7225 40.203 39.8625 40.5472 39.8625C40.8927 39.8625 41.2289 39.7225 41.4721 39.479C41.7168 39.2357 41.8555 38.8982 41.8555 38.554C41.8555 38.2097 41.7168 37.8722 41.4721 37.6287Z" fill="#FD5742"/>
<path d="M54.2641 37.6289C54.0207 37.3854 53.6844 37.2455 53.339 37.2455C52.9949 37.2455 52.6574 37.3854 52.414 37.6289C52.1707 37.8723 52.0307 38.2099 52.0307 38.5541C52.0307 38.8996 52.1707 39.2359 52.414 39.4792C52.6574 39.7226 52.9949 39.8627 53.339 39.8627C53.6844 39.8625 54.0207 39.7225 54.2641 39.4792C54.5073 39.2359 54.6474 38.8983 54.6474 38.5541C54.6474 38.2099 54.5075 37.8723 54.2641 37.6289Z" fill="#FD5742"/>
<path d="M41.1629 46.6936C41.8613 49.309 44.2385 51.1359 46.9432 51.1359C49.648 51.1359 52.0251 49.3092 52.7237 46.6936C52.9103 45.9953 52.4955 45.2782 51.7974 45.0916C51.0987 44.9044 50.3822 45.32 50.1956 46.0181C49.8024 47.4904 48.4647 48.5186 46.9434 48.5186C45.4216 48.5186 44.0841 47.4903 43.691 46.0181C43.5347 45.4329 43.0059 45.0468 42.4278 45.0468C42.316 45.0468 42.2023 45.0612 42.0893 45.0916C41.391 45.2782 40.9763 45.9953 41.1629 46.6936Z" fill="#FD5742"/>
</svg>
