<svg width="24" height="24" viewBox="0 0 24 24" fill="none" xmlns="http://www.w3.org/2000/svg">
<g clip-path="url(#clip0)">
<path d="M16.4931 0H7.49688C3.3571 0 0 3.3571 0 7.49688V16.4931C0 20.6329 3.3571 23.99 7.49688 23.99H16.4931C20.6329 23.99 23.99 20.6329 23.99 16.4931V7.49688C23.99 3.3571 20.6329 0 16.4931 0ZM21.741 16.4931C21.741 19.3869 19.3869 21.741 16.4931 21.741H7.49688C4.60309 21.741 2.24906 19.3869 2.24906 16.4931V7.49688C2.24906 4.60309 4.60309 2.24906 7.49688 2.24906H16.4931C19.3869 2.24906 21.741 4.60309 21.741 7.49688V16.4931Z" fill="#F2F2F2"/>
<path d="M11.9951 5.99756C8.68294 5.99756 5.99756 8.68294 5.99756 11.9951C5.99756 15.3072 8.68294 17.9926 11.9951 17.9926C15.3072 17.9926 17.9926 15.3072 17.9926 11.9951C17.9926 8.68294 15.3072 5.99756 11.9951 5.99756ZM11.9951 15.7435C9.92892 15.7435 8.24662 14.0612 8.24662 11.9951C8.24662 9.92742 9.92892 8.24662 11.9951 8.24662C14.0612 8.24662 15.7435 9.92742 15.7435 11.9951C15.7435 14.0612 14.0612 15.7435 11.9951 15.7435Z" fill="#F2F2F2"/>
<path d="M18.4422 6.34687C18.8836 6.34687 19.2414 5.98907 19.2414 5.5477C19.2414 5.10633 18.8836 4.74854 18.4422 4.74854C18.0009 4.74854 17.6431 5.10633 17.6431 5.5477C17.6431 5.98907 18.0009 6.34687 18.4422 6.34687Z" fill="#F2F2F2"/>
</g>
<defs>
<clipPath id="clip0">
<rect width="23.99" height="23.99" fill="white"/>
</clipPath>
</defs>
</svg>
