<svg width="58" height="69" viewBox="0 0 58 69" fill="none" xmlns="http://www.w3.org/2000/svg">
<path d="M53.7966 0H15.0773C13.0353 0 11.3741 1.67351 11.3741 3.7307V5.47335H9.64024C7.59818 5.47335 5.93697 7.14686 5.93697 9.20405V10.9466H4.2042C2.16161 10.9466 0.5 12.6198 0.5 14.6765V65.2701C0.5 67.3268 2.16161 69 4.2042 69H42.9216C44.9641 69 46.6258 67.3268 46.6258 65.2701V63.5266H48.3596C50.4017 63.5266 52.0629 61.8531 52.0629 59.7959V58.0534H53.7967C55.8388 58.0534 57.5 56.3798 57.5 54.3226V3.7307C57.4997 1.67351 55.8385 0 53.7966 0ZM42.9216 66.3044H4.2042C3.637 66.3044 3.17548 65.8404 3.17548 65.2698V14.6762C3.17548 14.1057 3.637 13.6416 4.2042 13.6416H34.1317V22.1778C34.1317 22.9219 34.7307 23.5254 35.4694 23.5254H43.9503V65.2698C43.9502 65.8404 43.4888 66.3044 42.9216 66.3044ZM42.0566 20.8301H36.8072V15.5457L42.0566 20.8301ZM49.3873 59.7958C49.3873 60.3676 48.9271 60.8312 48.3595 60.8312H46.6257V22.1845C46.6257 22.1841 46.6253 22.1593 46.6246 22.1203C46.6188 21.7921 46.4848 21.4787 46.2546 21.2461C46.2544 21.246 46.2544 21.246 46.2544 21.246C46.2475 21.2387 36.415 11.3406 36.415 11.3406C36.4136 11.3393 36.3989 11.3254 36.3758 11.3034C36.1304 11.0722 35.8058 10.944 35.4697 10.9463H8.61245V9.20378C8.61245 8.63197 9.07263 8.16838 9.64024 8.16838H48.3595C48.9271 8.16838 49.3873 8.63197 49.3873 9.20378V59.7958ZM54.8243 54.3226C54.8243 54.8935 54.3633 55.3581 53.7965 55.3581H52.0626V9.20392C52.0626 7.14673 50.4014 5.47321 48.3594 5.47321H14.0496V3.7307C14.0496 3.15984 14.5107 2.6953 15.0773 2.6953H53.7965C54.3631 2.6953 54.8243 3.1597 54.8243 3.7307V54.3226Z" fill="#FD5742"/>
</svg>
