<svg width="72" height="48" viewBox="0 0 72 48" fill="none" xmlns="http://www.w3.org/2000/svg">
<path d="M71.36 3.27112C70.9601 2.98987 70.4474 2.92097 69.9875 3.09098L57.759 7.53824C56.2429 8.08906 55.0358 9.19943 54.3605 10.6642C54.234 10.9388 54.1509 11.2241 54.0676 11.5091C51.9678 10.9121 48.0654 9.66532 44.1873 7.66719C38.327 4.64756 33.8499 6.13902 30.01 9.06795C28.0643 9.1062 25.3826 9.33626 22.7464 9.56857C21.0648 9.71693 19.4756 9.85348 18.1869 9.93209C18.1553 9.15809 17.9742 8.39 17.64 7.66438C16.9648 6.19949 15.7578 5.08912 14.2415 4.53843L2.01277 0.0908977C1.55433 -0.0775706 1.03866 -0.00866369 0.640267 0.271039C0.238782 0.552428 0 1.01086 0 1.5001V31.5C0 32.3291 0.670923 33 1.50005 33H5.88137C7.7448 33 9.47843 32.1211 10.5991 30.7019C11.196 31.1558 11.9031 31.6874 12.6446 32.2441C14.3951 33.5611 16.3111 34.998 17.1519 35.7027C22.7374 40.3784 29.4523 45.4277 30.7896 46.3066C32.0391 47.1269 34.2891 48 36.0001 48C36.6694 48 38.3555 48 39.5392 46.9995C40.7594 47.4784 42.0748 47.4551 43.298 46.9159C44.5182 46.3783 45.5055 45.3647 46.0797 44.1327C47.2515 44.3729 48.5977 44.1971 49.8179 43.5848C50.9619 43.012 51.8042 42.1448 52.2554 41.1312C53.3393 41.2308 54.4967 40.8778 55.5322 40.0852C57.0119 38.9542 57.6894 37.2838 57.4977 35.636L61.3026 33.531C62.417 35.0414 64.188 35.9998 66.1186 35.9998H70.5C71.3291 35.9998 72 35.3289 72 34.4998V4.50018C72.0001 4.01081 71.7614 3.55237 71.36 3.27112ZM8.69092 28.0532C8.25442 29.2178 7.12506 30.0001 5.88137 30.0001H2.99996V3.64167L13.2158 7.35655C13.9746 7.63344 14.5782 8.18862 14.915 8.921C15.2533 9.65337 15.2827 10.4738 14.9999 11.2281L8.69092 28.0532ZM53.7115 37.7022C53.2032 38.0919 52.4913 38.3087 52.1749 37.9923C52.1588 37.9761 52.1337 37.9777 52.1171 37.9622C52.0884 37.9356 52.0742 37.8998 52.0432 37.875C50.9709 37.0283 46.1662 32.1124 43.197 29.0157C42.6242 28.4166 41.6736 28.3945 41.0774 28.9703C40.4783 29.543 40.4578 30.4922 41.0319 31.0899C41.7289 31.8173 47.3235 37.6441 49.5627 39.6819C49.3955 40.3406 48.7849 40.7473 48.4748 40.9028C47.5139 41.3847 46.512 41.3042 46.1369 40.9556C46.1258 40.9451 46.1092 40.9457 46.0977 40.9356C46.0794 40.9193 46.0712 40.8964 46.0518 40.8809C44.2529 39.4438 39.7399 34.648 38.7188 33.5376C38.1577 32.9267 37.21 32.8886 36.5991 33.4483C35.9898 34.0094 35.9487 34.9586 36.5098 35.5679C36.5591 35.6212 40.982 40.3922 43.4662 42.6083C43.222 43.3097 42.7246 43.8907 42.0865 44.1723C41.6155 44.3816 40.8789 44.4889 40.0373 43.8669C37.8832 42.0405 33.5602 37.4388 32.71 36.5288C32.1461 35.9223 31.1939 35.8917 30.5904 36.4571C29.9854 37.0226 29.9532 37.9718 30.5186 38.5768C31.5266 39.6556 34.5061 42.8135 36.771 44.9517C36.518 44.9825 36.2524 45.0001 36.0001 45.0001C35.0068 45.0001 33.3004 44.3658 32.4376 43.7988C31.3859 43.1074 24.7823 38.1798 19.0796 33.4043C18.2169 32.6806 16.2481 31.1997 14.4463 29.8462C13.4806 29.1213 12.5909 28.4529 11.9351 27.9485L17.5514 12.9697C19.0093 12.906 20.9529 12.738 23.0098 12.5566C24.1732 12.454 25.3379 12.3541 26.4508 12.2674C24.7402 14.0234 22.197 17.1685 22.5322 20.1165C22.6861 21.4584 23.42 22.5761 24.6578 23.3495C27.1085 24.8831 31.6452 23.597 33.8306 20.9091C35.2413 20.7055 36.195 20.3452 37.2349 19.8295C38.9927 21.4819 41.3496 23.4243 43.8253 25.4648C48.1349 29.0155 53.0201 33.0409 54.3122 35.2982C55.0313 36.5537 54.0339 37.4561 53.7115 37.7022ZM56.2848 32.8782C54.2863 30.2047 49.9539 26.6276 45.7325 23.149C42.9186 20.8301 40.2613 18.6401 38.5606 16.9396C38.0919 16.4737 37.3726 16.3682 36.7925 16.6773C35.2646 17.4961 34.5762 17.8345 32.8506 18.0073C32.3906 18.0541 31.9776 18.3091 31.7315 18.7002C30.5552 20.5664 27.2857 21.454 26.2486 20.8066C25.6596 20.4374 25.5454 20.0624 25.5132 19.7768C25.3682 18.5009 26.6602 16.292 28.8033 14.1474C34.1105 8.84028 37.9044 7.80176 42.8131 10.333C47.4768 12.7375 52.0796 14.0971 54.0118 14.6107C54.0676 14.8354 54.1081 15.0624 54.1905 15.2827L60.0148 30.8148L56.2848 32.8782ZM69.0002 33H66.1188C64.8751 33 63.7457 32.2177 63.3092 31.0532L57.0001 14.2296C56.7174 13.4737 56.7467 12.6535 57.085 11.9209C57.4219 11.1886 58.0255 10.6334 58.7842 10.3565L69 6.64161V33H69.0002Z" fill="#FD5742"/>
</svg>
