<svg width="64" height="64" viewBox="0 0 64 64" fill="none" xmlns="http://www.w3.org/2000/svg">
<path d="M60 16H4C1.79467 16 9.53674e-07 14.2053 9.53674e-07 12V4C9.53674e-07 1.79467 1.79467 0 4 0H60C62.2053 0 64 1.79467 64 4V12C64 14.2053 62.2053 16 60 16ZM4 2.66667C3.26667 2.66667 2.66667 3.26667 2.66667 4V12C2.66667 12.7333 3.26667 13.3333 4 13.3333H60C60.7333 13.3333 61.3333 12.7333 61.3333 12V4C61.3333 3.26667 60.7333 2.66667 60 2.66667H4Z" fill="#FD5742"/>
<path d="M60 64H4C1.79467 64 0 62.2053 0 60V25.3333C0 23.128 1.79467 21.3333 4 21.3333H60C62.2053 21.3333 64 23.128 64 25.3333V60C64 62.2053 62.2053 64 60 64ZM4 24C3.26667 24 2.66667 24.6 2.66667 25.3333V60C2.66667 60.7333 3.26667 61.3333 4 61.3333H60C60.7333 61.3333 61.3333 60.7333 61.3333 60V25.3333C61.3333 24.6 60.7333 24 60 24H4Z" fill="#FD5742"/>
<path d="M52.008 56H35.992C33.7867 56 31.992 54.2053 31.992 52V33.3333C31.992 31.128 33.7867 29.3333 35.992 29.3333H52.008C54.2133 29.3333 56.008 31.128 56.008 33.3333V52C56.008 54.2053 54.2133 56 52.008 56ZM35.992 32C35.2587 32 34.6587 32.6 34.6587 33.3333V52C34.6587 52.7333 35.2587 53.3333 35.992 53.3333H52.008C52.7413 53.3333 53.3413 52.7333 53.3413 52V33.3333C53.3413 32.6 52.7413 32 52.008 32H35.992Z" fill="#FD5742"/>
<path d="M25.3253 34.6667H9.32533C8.58933 34.6667 7.992 34.0693 7.992 33.3333C7.992 32.5973 8.58933 32 9.32533 32H25.3253C26.0613 32 26.6587 32.5973 26.6587 33.3333C26.6587 34.0693 26.0613 34.6667 25.3253 34.6667Z" fill="#FD5742"/>
<path d="M25.3253 42.6667H9.32533C8.58933 42.6667 7.992 42.0693 7.992 41.3333C7.992 40.5973 8.58933 40 9.32533 40H25.3253C26.0613 40 26.6587 40.5973 26.6587 41.3333C26.6587 42.0693 26.0613 42.6667 25.3253 42.6667Z" fill="#FD5742"/>
<path d="M25.3253 50.6667H9.32533C8.58933 50.6667 7.992 50.0693 7.992 49.3333C7.992 48.5973 8.58933 48 9.32533 48H25.3253C26.0613 48 26.6587 48.5973 26.6587 49.3333C26.6587 50.0693 26.0613 50.6667 25.3253 50.6667Z" fill="#FD5742"/>
</svg>
