<svg width="60" height="61" viewBox="0 0 60 61" fill="none" xmlns="http://www.w3.org/2000/svg">
<path d="M60 24.1698C60 17.9567 54.9116 12.9015 48.6571 12.9015C47.2663 12.9015 45.9385 13.1636 44.7062 13.6213C41.5163 9.82333 37.2028 7.25949 32.4385 6.24594V5.17905C32.4385 2.32346 30.0998 0 27.2248 0C24.3504 0 22.0117 2.32346 22.0117 5.17905V6.54889C12.68 9.08441 5.79245 17.559 5.79245 27.6227V44.8866H5.21307C2.33872 44.8866 0 47.2101 0 50.0663C0 52.9219 2.33872 55.2454 5.21307 55.2454H21.0618C21.846 58.589 24.8217 61 28.3835 61C31.9453 61 34.9217 58.589 35.7053 55.2454H50.3952C53.2702 55.2454 55.6083 52.9219 55.6083 50.0663C55.6083 47.2101 53.2702 44.8866 50.3952 44.8866H49.8158V35.3801C55.5281 34.8012 60 29.9949 60 24.1698ZM57.6832 24.1698C57.6832 29.1144 53.6341 33.1363 48.6571 33.1363C43.6807 33.1363 39.6316 29.1144 39.6316 24.1698C39.6316 19.2252 43.6807 15.2032 48.6571 15.2032C53.6341 15.2032 57.6832 19.2252 57.6832 24.1698ZM24.3285 5.17905C24.3285 3.59254 25.6272 2.30173 27.2248 2.30173C28.8224 2.30173 30.121 3.59254 30.121 5.17905V5.87845C29.356 5.79877 28.583 5.75464 27.8041 5.75464C26.6189 5.75464 25.4641 5.8745 24.3285 6.0543V5.17905ZM28.3835 58.6983C26.1131 58.6983 24.1993 57.2757 23.4833 55.2454H33.2837C32.5678 57.2757 30.654 58.6983 28.3835 58.6983ZM50.3952 47.189C51.9928 47.189 53.2914 48.4798 53.2914 50.0663C53.2914 51.6528 51.9928 52.9436 50.3952 52.9436H5.21307C3.61547 52.9436 2.31685 51.6528 2.31685 50.0663C2.31685 48.4798 3.61547 47.189 5.21307 47.189H6.9512C7.59156 47.189 8.10929 46.6733 8.10929 46.0378V27.6227C8.10929 16.8339 16.9445 8.05637 27.8041 8.05637C33.4839 8.05637 38.8037 10.478 42.5484 14.6909C39.4056 16.6962 37.3141 20.192 37.3141 24.1698C37.3141 29.9949 41.7867 34.8012 47.4983 35.3801V46.0378C47.4983 46.6733 48.0167 47.189 48.6571 47.189H50.3952Z" fill="#FD5742"/>
<path d="M45.5573 28.3998C45.8537 28.3998 46.1506 28.2872 46.3767 28.0626L49.4764 24.9838C49.6939 24.7677 49.8158 24.4747 49.8158 24.1698V19.7705C49.8158 19.1349 49.2974 18.6199 48.6571 18.6199C48.0167 18.6199 47.499 19.1349 47.499 19.7705V23.6936L44.7387 26.4353C44.2859 26.8844 44.2859 27.6135 44.7387 28.0626C44.9647 28.2878 45.261 28.3998 45.5573 28.3998Z" fill="#FD5742"/>
<path d="M31.2797 44.8866H28.9629C28.3225 44.8866 27.8041 45.4023 27.8041 46.0378C27.8041 46.6733 28.3225 47.189 28.9629 47.189H31.2797C31.9201 47.189 32.4385 46.6733 32.4385 46.0378C32.4385 45.4023 31.9201 44.8866 31.2797 44.8866Z" fill="#FD5742"/>
<path d="M24.7143 44.8866H12.7436C12.1033 44.8866 11.5849 45.4023 11.5849 46.0378C11.5849 46.6733 12.1033 47.189 12.7436 47.189H24.7143C25.3547 47.189 25.8731 46.6733 25.8731 46.0378C25.8731 45.4023 25.3547 44.8866 24.7143 44.8866Z" fill="#FD5742"/>
</svg>
