<svg width="64" height="66" viewBox="0 0 64 66" fill="none" xmlns="http://www.w3.org/2000/svg">
<path d="M29.6068 28.2828C29.9825 28.7267 30.6405 28.7867 31.0893 28.4184L36.6021 23.8925C36.9023 23.6514 37.0509 23.2663 36.9914 22.8842C36.932 22.5021 36.674 22.1812 36.315 22.045C35.9565 21.9082 35.5523 21.9772 35.2581 22.2249L30.552 26.0886L28.8602 24.0893C28.6141 23.7929 28.2295 23.6532 27.8527 23.7222C27.4764 23.7917 27.1649 24.0593 27.0383 24.424C26.9117 24.7887 26.9884 25.1936 27.2398 25.4851L29.6068 28.2828Z" fill="#FD5742"/>
<path d="M31.9899 37.1455C38.4614 37.1455 43.7073 31.8519 43.7073 25.3214C43.7073 18.7914 38.4614 13.4972 31.9899 13.4972C25.5189 13.4972 20.2725 18.7914 20.2725 25.3214C20.2802 31.8489 25.5219 37.1383 31.9899 37.1455ZM31.9899 15.647C37.2845 15.647 41.5769 19.9785 41.5769 25.3214C41.5769 30.6648 37.2845 34.9957 31.9899 34.9957C26.6953 34.9957 22.4029 30.6648 22.4029 25.3214C22.4089 19.9809 26.6977 15.6536 31.9899 15.647Z" fill="#FD5742"/>
<path d="M61.5378 24.6873L51.5936 18.4945C51.5573 18.4723 51.5205 18.4519 51.4824 18.4345L51.3261 18.3613V15.7454C51.3261 15.4803 51.2292 15.2247 51.0538 15.0274L38.0376 0.384502C38.021 0.365907 38.0031 0.348511 37.9853 0.331116C37.785 0.11937 37.5074 0 37.2173 0C37.1775 0 37.1371 0.00239939 37.0972 0.00719817L37.0788 0.00539862C37.0431 0.00179955 37.0081 0 36.9724 0H18.5653C15.3132 0.00359908 12.6775 2.66332 12.6739 5.94509V18.4423L2.46578 24.6849C1.24839 25.4413 0.504755 26.7796 0.5 28.2228V58.0994C0.504161 62.4609 4.00654 65.9952 8.32863 66H55.6714C59.9935 65.9952 63.4958 62.4609 63.5 58.0994V28.2228C63.4952 26.7814 62.7534 25.4443 61.5378 24.6873ZM60.4226 26.5192C61.0087 26.8834 61.3672 27.5276 61.3696 28.2228V29.8556L51.3261 36.0496V20.8543L60.4226 26.5192ZM38.2825 3.87981L46.5338 13.1624H42.0435C39.9671 13.16 38.2849 11.4619 38.2825 9.36662V3.87981ZM18.5653 2.14925H36.1521V9.36662C36.1557 12.6484 38.7914 15.3081 42.0435 15.3123H48.4449L49.1957 16.1569V37.3633L32 47.9674L14.8043 37.3633V5.94509C14.8061 3.84982 16.489 2.15165 18.5653 2.14925ZM3.57379 26.521L12.6739 20.9557V36.0496L2.63043 29.8556V28.2228C2.63222 27.5294 2.98947 26.8858 3.57379 26.521ZM55.6714 63.8501H8.32863C5.18291 63.8465 2.63341 61.2738 2.63043 58.0994V32.375L13.005 38.7735C13.115 38.8791 13.2452 38.9595 13.3884 39.0099L31.4442 50.1442C31.7854 50.3548 32.2146 50.3548 32.5552 50.1442L50.6116 39.0093C50.7548 38.9589 50.885 38.8785 50.995 38.7729L61.3696 32.375V58.0994C61.3666 61.2738 58.8171 63.8465 55.6714 63.8501Z" fill="#FD5742"/>
</svg>
