<svg width="68" height="67" viewBox="0 0 68 67" fill="none" xmlns="http://www.w3.org/2000/svg">
<path d="M31.012 17.7533H15.3088C14.7667 17.7533 14.3274 18.1927 14.3274 18.7347C14.3274 19.2768 14.7667 19.7162 15.3088 19.7162H31.012C31.5541 19.7162 31.9934 19.2768 31.9934 18.7347C31.9934 18.1927 31.5541 17.7533 31.012 17.7533Z" fill="#FD5742"/>
<path d="M19.4156 43.017C17.1571 42.6047 14.9995 41.824 13.0023 40.6967C12.6307 40.4868 12.166 40.5413 11.8528 40.8315C10.0943 42.4609 7.80522 43.3582 5.40723 43.3582C4.96571 43.3582 4.52838 43.3282 4.0968 43.2687C5.99636 41.9437 7.4731 40.0585 8.29124 37.8559C8.42105 37.5063 8.34149 37.1132 8.08592 36.8416C4.45981 32.9883 2.46289 27.9522 2.46289 22.6605C2.46289 11.2478 11.7478 1.96289 23.1605 1.96289C33.1626 1.96289 41.7246 9.0925 43.5194 18.9156C43.6167 19.4487 44.1286 19.802 44.6612 19.7047C45.1945 19.6072 45.5477 19.096 45.4503 18.5628C43.4851 7.80681 34.111 0 23.1605 0C10.6655 0 0.5 10.1654 0.5 22.6605C0.5 28.2423 2.52963 33.5649 6.22824 37.719C5.23318 39.9583 3.39618 41.7437 1.11308 42.668C0.742613 42.8181 0.5 43.178 0.5 43.5777C0.5 43.9776 0.742613 44.3375 1.11321 44.4875C2.47925 45.0405 3.92394 45.3209 5.40723 45.3209C8.06302 45.3209 10.6082 44.409 12.6496 42.7392C14.664 43.7959 16.818 44.5381 19.0632 44.9478C19.5958 45.0453 20.1074 44.6919 20.2049 44.1586C20.3022 43.6255 19.9488 43.1142 19.4156 43.017Z" fill="#FD5742"/>
<path d="M15.3088 25.6049C14.7667 25.6049 14.3274 26.0443 14.3274 26.5863C14.3274 27.1283 14.7667 27.5678 15.3088 27.5678H26.4073C26.9494 27.5678 27.3887 27.1283 27.3887 26.5863C27.3887 26.0443 26.9494 25.6049 26.4073 25.6049H15.3088Z" fill="#FD5742"/>
<path d="M31.9934 22.6605C31.9934 22.1185 31.5541 21.6791 31.012 21.6791H15.3088C14.7667 21.6791 14.3274 22.1185 14.3274 22.6605C14.3274 23.2025 14.7667 23.642 15.3088 23.642H31.012C31.5541 23.642 31.9934 23.2025 31.9934 22.6605Z" fill="#FD5742"/>
<path d="M49.7467 34.6099C47.9382 34.6099 46.2272 35.2157 44.8395 36.3325C43.4518 35.2158 41.7409 34.6099 39.9323 34.6099C35.6029 34.6099 32.0807 38.1322 32.0807 42.4615C32.0807 46.5331 34.2354 50.5337 38.3117 54.0308C41.3239 56.6149 44.2999 58.0145 44.425 58.0729C44.5564 58.134 44.698 58.1646 44.8395 58.1646C44.9809 58.1646 45.1225 58.134 45.2539 58.0729C45.379 58.0145 48.355 56.6149 51.3673 54.0308C55.4435 50.5337 57.5983 46.5331 57.5983 42.4615C57.5983 38.1322 54.0761 34.6099 49.7467 34.6099ZM44.8395 56.0848C42.81 55.0255 34.0436 50.0107 34.0436 42.4615C34.0436 39.2145 36.6852 36.5728 39.9323 36.5728C41.527 36.5728 43.0208 37.2012 44.1385 38.3422C44.323 38.5306 44.5757 38.6369 44.8395 38.6369C45.1033 38.6369 45.356 38.5306 45.5405 38.3423C46.6583 37.2014 48.1521 36.573 49.7467 36.573C52.9937 36.573 55.6354 39.2146 55.6354 42.4616C55.6354 50.0112 46.8678 55.0262 44.8395 56.0848Z" fill="#FD5742"/>
<path d="M66.8868 64.3471C64.6038 63.4228 62.7667 61.6374 61.7715 59.3981C65.4704 55.2439 67.5 49.9214 67.5 44.3395C67.5 31.8445 57.3345 21.6789 44.8395 21.6789C32.3445 21.6789 22.1791 31.8445 22.1791 44.3395C22.1791 56.8345 32.3445 67 44.8395 67C48.5043 67 52.1231 66.1091 55.3502 64.4181C57.3918 66.088 59.937 67 62.5928 67C64.0761 67 65.5209 66.7196 66.8868 66.1664C67.2574 66.0165 67.5 65.6566 67.5 65.2567C67.5 64.8569 67.2574 64.4971 66.8868 64.3471ZM62.5928 65.0371C60.1949 65.0371 57.9058 64.1398 56.147 62.5105C55.9611 62.3381 55.7216 62.2489 55.4798 62.2489C55.3146 62.2489 55.1484 62.2905 54.9976 62.3757C51.9132 64.1168 48.4006 65.0371 44.8395 65.0371C33.4268 65.0371 24.142 55.7522 24.142 44.3395C24.142 32.9267 33.4268 23.6418 44.8395 23.6418C56.2522 23.642 65.5371 32.9268 65.5371 44.3395C65.5371 49.6312 63.5401 54.6674 59.914 58.5204C59.6584 58.7921 59.5787 59.1852 59.7088 59.5347C60.5269 61.7375 62.0036 63.6227 63.9032 64.9475C63.4716 65.0071 63.0343 65.0371 62.5928 65.0371Z" fill="#FD5742"/>
</svg>
