<svg width="67" height="65" viewBox="0 0 67 65" fill="none" xmlns="http://www.w3.org/2000/svg">
<path d="M66.8223 24.5511C66.3153 22.9674 64.8037 21.8794 62.6762 21.5658L45.3358 19.0102L37.5808 3.07653C36.6295 1.12123 35.142 0 33.5001 0C31.8582 0 30.3707 1.12123 29.4189 3.07653L21.665 19.0102L4.32349 21.5658C2.19599 21.8794 0.684459 22.9674 0.177377 24.5511C-0.329704 26.1347 0.262232 27.9158 1.80188 29.4372L14.3501 41.8403L11.3874 59.3544C11.0086 61.5943 11.6542 62.9369 12.2625 63.6683C12.9766 64.5267 14.0168 64.9995 15.1925 64.9995C16.0779 64.9995 17.0189 64.7372 17.9902 64.2193L33.5001 55.9503L49.0106 64.2193C49.9818 64.7372 50.9229 64.9995 51.8077 65H51.8082C52.9839 65 54.0247 64.5267 54.7383 63.6683C55.3465 62.9369 55.9922 61.5943 55.6129 59.3544L52.6511 41.8403L65.1983 29.4377C66.738 27.9158 67.3299 26.1347 66.8223 24.5511ZM62.4585 26.5867L49.1721 39.7201C48.7095 40.1773 48.4984 40.8367 48.6078 41.4821L51.7438 60.0278C51.8353 60.5674 51.796 60.8738 51.7597 61.0168C51.6196 61.0075 51.319 60.9526 50.8375 60.696L34.4136 51.9397C34.1273 51.7873 33.814 51.7111 33.5001 51.7111C33.1863 51.7111 32.8724 51.7873 32.5867 51.9397L16.1637 60.6955C15.6822 60.952 15.3811 61.0075 15.2411 61.0168C15.2053 60.8738 15.1654 60.5674 15.2569 60.0278L18.394 41.4826C18.5029 40.8367 18.2917 40.1773 17.8291 39.7206L4.54227 26.5867C4.15582 26.2047 4.01014 25.9335 3.95595 25.7962C4.07915 25.7174 4.35416 25.5847 4.88833 25.5059L23.2511 22.8C23.8906 22.7057 24.4432 22.2982 24.7289 21.7109L32.9399 4.83847C33.1791 4.34757 33.3882 4.12364 33.5006 4.02877C33.6126 4.12364 33.8222 4.34757 34.0609 4.83847L42.2723 21.7109C42.5586 22.2982 43.1112 22.7057 43.7506 22.8L62.1119 25.5059C62.6466 25.5847 62.9211 25.7174 63.0443 25.7962C62.9901 25.933 62.8449 26.2047 62.4585 26.5867Z" fill="#FD5742"/>
</svg>
