<svg width="62" height="73" viewBox="0 0 62 73" fill="none" xmlns="http://www.w3.org/2000/svg">
<path d="M2.11335 60.4647L9.21079 53.2247V1.22319C9.21079 0.547686 9.74788 0 10.4103 0H46.3953C46.4182 0 46.4399 0.0119452 46.4627 0.013737C46.5728 0.0191123 46.6818 0.0418082 46.7854 0.0794354C46.8206 0.0901861 46.8557 0.102729 46.8897 0.11766C47.0232 0.176191 47.145 0.25921 47.2493 0.361939L61.6433 15.0402C61.7441 15.1441 61.8255 15.2653 61.8834 15.3985C61.9004 15.4368 61.9098 15.4744 61.9233 15.5138C61.9578 15.6153 61.9783 15.7211 61.9842 15.828C61.9842 15.8548 62 15.8781 62 15.905V62.3825C62 63.058 61.4629 63.6057 60.8005 63.6057H19.3913L12.2927 70.8409C10.9485 72.2271 9.11474 73.0048 7.20303 73C4.2892 73.0024 1.66178 71.213 0.547203 68.4674C-0.566788 65.7224 0.0517044 62.5629 2.11452 60.4647H2.11335ZM12.2816 67.3977L30.9518 48.3648L24.1565 41.4342L5.49222 60.4743L12.2816 67.3977ZM31.9668 45.9394L33.5932 38.743L26.535 40.4004L31.9668 45.9394ZM47.5949 4.17603V14.6782H57.8937L47.5949 4.17603ZM59.5899 61.1593V17.1246H46.3953C45.7329 17.1246 45.1958 16.5769 45.1958 15.9014V2.44637H11.6098V50.7772L23.3073 38.8397L23.3208 38.8314C23.4197 38.7352 23.5339 38.657 23.6587 38.6003C23.6927 38.5853 23.7249 38.5746 23.7583 38.562C23.8004 38.5429 23.8432 38.5262 23.8871 38.5119L34.9222 35.9192C35.3257 35.8236 35.7486 35.9472 36.0414 36.2453C36.3343 36.5439 36.4549 36.9757 36.3618 37.3866L33.8187 48.6402C33.8047 48.685 33.7883 48.7292 33.7695 48.7722C33.7572 48.805 33.7479 48.8379 33.7321 48.8713C33.677 49.0003 33.5991 49.1186 33.503 49.2195L33.4972 49.2297L21.7915 61.1593H59.5899ZM3.81303 69.116C4.71032 70.034 5.92915 70.55 7.2001 70.55C8.47106 70.55 9.68989 70.034 10.5866 69.116L10.022 68.539L3.80249 62.1979C2.90228 63.1141 2.39682 64.3588 2.39917 65.6561C2.40092 66.9533 2.90989 68.1962 3.81303 69.11V69.116Z" fill="#FD5742"/>
<path d="M51.1934 24.4637H20.0063C19.3439 24.4637 18.8068 23.916 18.8068 23.2405C18.8068 22.565 19.3439 22.0174 20.0063 22.0174H51.1934C51.8558 22.0174 52.3929 22.565 52.3929 23.2405C52.3929 23.916 51.8558 24.4637 51.1934 24.4637Z" fill="#FD5742"/>
<path d="M51.1934 31.8028H20.0063C19.3439 31.8028 18.8068 31.2552 18.8068 30.5797C18.8068 29.9042 19.3439 29.3565 20.0063 29.3565H51.1934C51.8558 29.3565 52.3929 29.9042 52.3929 30.5797C52.3929 31.2552 51.8558 31.8028 51.1934 31.8028Z" fill="#FD5742"/>
<path d="M42.7968 36.6956H51.1934C51.8558 36.6956 52.3929 37.2433 52.3929 37.9188C52.3929 38.5943 51.8558 39.142 51.1934 39.142H42.7968C42.1344 39.142 41.5973 38.5943 41.5973 37.9188C41.5973 37.2433 42.1344 36.6956 42.7968 36.6956Z" fill="#FD5742"/>
</svg>
