<svg width="74" height="59" viewBox="0 0 74 59" fill="none" xmlns="http://www.w3.org/2000/svg">
<path d="M72.4066 34.5461H33.6415C33.2562 34.5461 32.8868 34.7016 32.6155 34.9783C32.3441 35.255 32.1932 35.6297 32.1962 36.0194L32.3442 54.8974C32.3506 55.7002 32.9957 56.3476 33.7895 56.3476H46.5418C47.3399 56.3476 47.9871 55.6931 47.9871 54.8859C47.9871 54.0787 47.3399 53.4241 46.5418 53.4241H35.2233L35.0982 37.4696H70.9726L71.0976 53.4241H59.6541C58.856 53.4241 58.2088 54.0787 58.2088 54.8859C58.2088 55.6931 58.856 56.3476 59.6541 56.3476H72.5546C72.94 56.3476 73.3094 56.1921 73.5807 55.9154C73.8521 55.6387 74.003 55.264 74 54.8743L73.852 35.9963C73.8456 35.1933 73.2004 34.5461 72.4066 34.5461Z" fill="#FD5742"/>
<path d="M54.4593 54.3265C54.2264 53.7612 53.6531 53.3927 53.0471 53.4259C52.446 53.4588 51.9176 53.8799 51.7422 54.4615C51.5692 55.0347 51.7721 55.6825 52.2448 56.0456C52.7341 56.4215 53.415 56.4438 53.9275 56.101C54.4966 55.7202 54.7165 54.9616 54.4593 54.3265Z" fill="#FD5742"/>
<path d="M13.3983 31.8939C6.01047 31.8939 0 37.9738 0 45.4469C0 52.9201 6.01047 59 13.3983 59C20.7862 59 26.7968 52.9201 26.7968 45.4469C26.7968 37.9738 20.7862 31.8939 13.3983 31.8939ZM13.3983 56.0765C7.60436 56.0765 2.89062 51.3081 2.89062 45.4469C2.89062 39.5858 7.60436 34.8174 13.3983 34.8174C19.1924 34.8174 23.9062 39.5858 23.9062 45.4469C23.9062 51.3081 19.1924 56.0765 13.3983 56.0765Z" fill="#FD5742"/>
<path d="M13.3983 0C6.01047 0 0 6.07975 0 13.553C0 21.0261 6.01047 27.106 13.3983 27.106C20.7862 27.106 26.7968 21.0261 26.7968 13.553C26.7968 6.07975 20.7862 0 13.3983 0ZM13.3983 24.1825C7.60436 24.1825 2.89062 19.4141 2.89062 13.553C2.89062 7.69178 7.60436 2.92337 13.3983 2.92337C19.1924 2.92337 23.9062 7.69178 23.9062 13.553C23.9062 19.4141 19.1924 24.1825 13.3983 24.1825Z" fill="#FD5742"/>
<path d="M17.1739 9.73386C16.6097 9.1629 15.6943 9.16304 15.13 9.73401L13.3983 11.4856L11.6668 9.73401C11.1027 9.16333 10.1874 9.16319 9.62288 9.73386C9.05849 10.3045 9.05835 11.2301 9.62274 11.8011L11.3547 13.553L9.62274 15.3049C9.05835 15.8757 9.05849 16.8013 9.62288 17.3721C9.90501 17.6576 10.2749 17.8003 10.6447 17.8003C11.0146 17.8003 11.3846 17.6575 11.6667 17.372L13.3983 15.6204L15.13 17.372C15.4121 17.6575 15.7821 17.8003 16.1519 17.8003C16.5218 17.8003 16.8916 17.6575 17.1738 17.3721C17.7382 16.8015 17.7383 15.8759 17.1739 15.3049L15.442 13.553L17.1739 11.8011C17.7385 11.2303 17.7383 10.3047 17.1739 9.73386Z" fill="#FD5742"/>
<path d="M33.7895 24.4539H72.5546C72.94 24.4539 73.3094 24.2984 73.5807 24.0217C73.8521 23.745 74.003 23.3703 74 22.9806L73.852 4.10258C73.8456 3.29978 73.2004 2.65236 72.4066 2.65236H33.6415C33.2562 2.65236 32.8868 2.80804 32.6155 3.08461C32.3441 3.36132 32.1932 3.73597 32.1962 4.12567L32.3442 23.0037C32.3506 23.8065 32.9957 24.4539 33.7895 24.4539ZM70.9727 5.57574L71.0978 21.5303H35.2234L35.0984 5.57574H70.9727Z" fill="#FD5742"/>
<path d="M42.7153 11.9375H66.1023C66.9006 11.9375 67.5476 11.2829 67.5476 10.4757C67.5476 9.66852 66.9006 9.01394 66.1023 9.01394H42.7153C41.9172 9.01394 41.27 9.66852 41.27 10.4757C41.27 11.2829 41.9172 11.9375 42.7153 11.9375Z" fill="#FD5742"/>
<path d="M42.7153 18.0921H57.7847C58.583 18.0921 59.23 17.4376 59.23 16.6303C59.23 15.8231 58.583 15.1685 57.7847 15.1685H42.7153C41.9172 15.1685 41.27 15.8231 41.27 16.6303C41.27 17.4376 41.9172 18.0921 42.7153 18.0921Z" fill="#FD5742"/>
<path d="M42.7153 44.3023H66.1023C66.9006 44.3023 67.5476 43.6477 67.5476 42.8405C67.5476 42.0332 66.9006 41.3788 66.1023 41.3788H42.7153C41.9172 41.3788 41.27 42.0332 41.27 42.8405C41.27 43.6477 41.9172 44.3023 42.7153 44.3023Z" fill="#FD5742"/>
<path d="M59.23 48.995C59.23 48.1878 58.583 47.5332 57.7847 47.5332H42.7153C41.9172 47.5332 41.27 48.1878 41.27 48.995C41.27 49.8022 41.9172 50.4567 42.7153 50.4567H57.7847C58.5828 50.4567 59.23 49.8023 59.23 48.995Z" fill="#FD5742"/>
<path d="M17.0541 41.9778C16.4078 41.5048 15.504 41.6512 15.0359 42.3051L12.7374 45.5176L11.5881 44.4078C11.011 43.8503 10.0959 43.8715 9.54469 44.4556C8.99345 45.0395 9.01455 45.9648 9.59195 46.5223L11.9391 48.7889C12.2091 49.0497 12.5671 49.1935 12.937 49.1935C12.9808 49.1935 13.0247 49.1914 13.0685 49.1875C13.4842 49.1491 13.8633 48.9307 14.108 48.5886L17.3776 44.019C17.8457 43.3652 17.7009 42.4513 17.0541 41.9778Z" fill="#FD5742"/>
</svg>
