<svg width="24" height="24" viewBox="0 0 24 24" fill="none" xmlns="http://www.w3.org/2000/svg">
<rect width="24" height="24" rx="6" fill="#FFF8E3"/>
<path d="M10.9 9.75C10.9 10.995 9.87267 12 8.6 12C7.32733 12 6.3 10.995 6.3 9.75C6.3 8.505 7.32733 7.5 8.6 7.5C9.87267 7.5 10.9 8.505 10.9 9.75ZM13.2 18H4V16.5C4 14.8425 6.06233 13.5 8.6 13.5C11.1377 13.5 13.2 14.8425 13.2 16.5V18ZM19.3333 12V13.5H12.4333V12H19.3333ZM19.3333 9V10.5H12.4333V9H19.3333ZM19.3333 6V7.5H12.4333V6H19.3333Z" fill="black"/>
</svg>
