<svg width="15" height="18" viewBox="0 0 15 18" fill="none" xmlns="http://www.w3.org/2000/svg">
<path d="M13.3333 2.33329H12.5V0.666626H10.8333V2.33329H4.16667V0.666626H2.5V2.33329H1.66667C0.741667 2.33329 0 3.08329 0 3.99996V15.6666C0 16.1087 0.175595 16.5326 0.488155 16.8451C0.800716 17.1577 1.22464 17.3333 1.66667 17.3333H13.3333C13.7754 17.3333 14.1993 17.1577 14.5118 16.8451C14.8244 16.5326 15 16.1087 15 15.6666V3.99996C15 3.55793 14.8244 3.13401 14.5118 2.82145C14.1993 2.50889 13.7754 2.33329 13.3333 2.33329ZM13.3333 15.6666H1.66667V7.33329H13.3333V15.6666ZM13.3333 5.66663H1.66667V3.99996H13.3333V5.66663Z" fill="#6D718C"/>
</svg>
