<svg width="111" height="25" viewBox="0 0 111 25" fill="none" xmlns="http://www.w3.org/2000/svg">
<rect x="0.5" width="25" height="25" rx="12.5" fill="#F2B705"/>
<path d="M20.5 7.76174L10.2143 18.5L5.5 13.5783L6.70857 12.3166L10.2143 15.9676L19.2914 6.5L20.5 7.76174Z" fill="black"/>
<rect x="25.5" y="11.5" width="60" height="2" fill="#F2B705"/>
<rect x="86.5" y="1" width="23" height="23" rx="11.5" fill="#F2B705"/>
<path d="M94.4158 18V16.782L98.3078 13.086C98.6344 12.778 98.8771 12.5073 99.0358 12.274C99.1944 12.0407 99.2971 11.826 99.3438 11.63C99.3998 11.4247 99.4278 11.2333 99.4278 11.056C99.4278 10.608 99.2738 10.2627 98.9658 10.02C98.6578 9.768 98.2051 9.642 97.6078 9.642C97.1318 9.642 96.6978 9.726 96.3058 9.894C95.9231 10.062 95.5918 10.3187 95.3118 10.664L94.0378 9.684C94.4204 9.17067 94.9338 8.774 95.5778 8.494C96.2311 8.20467 96.9591 8.06 97.7618 8.06C98.4711 8.06 99.0871 8.17667 99.6098 8.41C100.142 8.634 100.548 8.956 100.828 9.376C101.117 9.796 101.262 10.2953 101.262 10.874C101.262 11.1913 101.22 11.5087 101.136 11.826C101.052 12.134 100.893 12.4607 100.66 12.806C100.426 13.1513 100.086 13.5387 99.6378 13.968L96.2918 17.146L95.9138 16.46H101.64V18H94.4158Z" fill="black"/>
<rect x="86.5" y="1" width="23" height="23" rx="11.5" stroke="#F2B705" stroke-width="2"/>
</svg>
