<svg width="201" height="195" viewBox="0 0 201 195" fill="none" xmlns="http://www.w3.org/2000/svg">
<mask id="mask0_3839_2256" style="mask-type:alpha" maskUnits="userSpaceOnUse" x="-10" y="-25" width="221" height="220">
<circle cx="100.5" cy="85" r="110" fill="#C4C4C4"/>
</mask>
<g mask="url(#mask0_3839_2256)">
<path d="M121.621 118.062C112.689 106.556 64.6692 125.871 66.8618 130.033C77.449 150.128 84.6459 156.468 98.4109 161.284C107.003 159.455 118.089 156.08 124.707 147.925C124.203 143.21 124.949 122.349 121.621 118.062Z" fill="#DA6A26"/>
<path d="M82.0262 90.7287C76.7307 87.5933 54.7417 75.4168 49.0575 76.5164C45.8078 77.1448 44.3136 79.8416 45.532 82.6207C46.6185 85.0991 49.2293 86.9241 51.4906 88.6509C55.9147 92.0275 61.7664 94.4002 65.8312 97.4818C68.015 99.1374 73.1523 103.926 75.8667 104.734C80.0973 105.994 87.5769 94.0153 82.0262 90.7287Z" fill="#DA6A26"/>
<path d="M184.096 244.035C168.825 214.635 135.733 164.852 124.606 145.403C112.305 144.637 100.227 151.428 98.4109 161.284C106.777 185.461 137.672 239.061 148.504 270.812C162.764 260.575 175.065 258.133 184.096 244.035Z" fill="#DA6A26"/>
<path d="M112.407 145.251L73.1622 149.682C69.2021 150.129 65.6296 147.281 65.1825 143.321L54.3789 47.6154C53.9317 43.6555 56.7795 40.0833 60.7394 39.636L99.9842 35.2059C103.944 34.7586 107.517 37.6066 107.964 41.5666L118.768 137.271C119.215 141.232 116.367 144.805 112.407 145.251Z" fill="#26336B"/>
<path d="M112.09 142.445L72.8453 146.876C68.8852 147.322 65.3127 144.475 64.8658 140.515L54.062 44.8092C53.6149 40.8498 56.4629 37.277 60.4228 36.8297L99.6676 32.3996C103.628 31.9529 107.2 34.8004 107.647 38.7603L118.451 134.466C118.898 138.426 116.05 141.998 112.09 142.445Z" fill="#3752AC"/>
<path d="M86.1975 39.6049L79.4327 40.3688C78.941 40.4243 78.4978 40.0704 78.4417 39.5787C78.3868 39.087 78.7401 38.6437 79.2318 38.5882L85.9967 37.8244C86.4884 37.7695 86.9316 38.1228 86.9871 38.6145C87.0426 39.1062 86.6893 39.5495 86.1975 39.6049Z" fill="#26336B"/>
<path d="M75.9498 39.8599C76.0052 40.3516 75.6519 40.7955 75.1603 40.8504C74.6687 40.9064 74.225 40.5525 74.1695 40.0608C74.1141 39.5697 74.4677 39.1259 74.9593 39.0704C75.4509 39.0149 75.8941 39.3682 75.9498 39.8599Z" fill="#26336B"/>
<path d="M94.5649 138.666C94.736 140.179 93.648 141.544 92.1355 141.714C90.6224 141.885 89.2577 140.797 89.0866 139.284C88.916 137.772 90.004 136.407 91.5165 136.236C93.0296 136.065 94.3943 137.153 94.5649 138.666Z" fill="#26336B"/>
<path d="M118.658 135.472L65.3909 141.513L54.6395 46.7167L107.906 40.6755L118.658 135.472Z" fill="#B8C0E6"/>
<path d="M116.98 120.679L63.713 126.72L58.4884 80.6533L111.755 74.612L116.98 120.679Z" fill="#E5E8F9"/>
<path d="M63.5427 70.2339C63.0681 70.2339 62.6586 69.8777 62.6038 69.3947C62.5448 68.8756 62.9179 68.4066 63.4374 68.3476L104.177 63.7272C104.694 63.6676 105.165 64.0414 105.224 64.5611C105.283 65.0803 104.909 65.5486 104.39 65.6076L63.6506 70.2286L63.5427 70.2339Z" fill="#8D99D1"/>
<path d="M64.1469 75.5605C63.6722 75.5605 63.2628 75.2043 63.208 74.7214C63.1489 74.2022 63.5221 73.7339 64.0413 73.6743L104.781 69.0539C105.298 68.9955 105.768 69.368 105.827 69.8878C105.886 70.4064 105.513 70.8753 104.994 70.9349L64.2548 75.5553L64.1469 75.5605Z" fill="#8D99D1"/>
<path d="M76.7605 130.795C76.9859 132.786 75.5556 134.582 73.565 134.808C71.5747 135.033 69.7783 133.603 69.5525 131.612C69.3268 129.622 70.7576 127.826 72.7479 127.6C74.7382 127.374 76.5345 128.805 76.7605 130.795Z" fill="#8D99D1"/>
<path d="M80.502 131.158C80.0272 131.158 79.6178 130.801 79.563 130.318C79.504 129.799 79.8771 129.331 80.3963 129.271L111.108 125.789C111.627 125.73 112.096 126.103 112.155 126.622C112.214 127.142 111.841 127.61 111.321 127.67L80.61 131.152L80.502 131.158Z" fill="#8D99D1"/>
<path d="M102.395 150.394C99.2064 149.04 101.867 133.481 115.948 118.289C113.756 110.801 112.939 90.317 120.816 90.0028C124.598 89.8515 129.852 118.681 129.852 118.681C129.852 118.681 128.49 131.992 124.707 147.925C124.707 147.925 104.467 145.589 102.395 150.394Z" fill="#DA6A26"/>
<path d="M116.112 118.44C114.043 120.624 112.075 122.812 110.332 125.148C108.6 127.489 107.078 129.95 105.826 132.549C104.568 135.146 103.582 137.87 102.795 140.679C102.019 143.493 101.469 146.385 100.933 149.348C100.562 146.363 100.645 143.316 101.136 140.316C101.611 137.314 102.532 134.36 103.868 131.601C105.204 128.844 106.95 126.282 109.035 124.062C111.106 121.831 113.489 119.913 116.112 118.44Z" fill="#723D1F"/>
<path d="M211.797 261.416C184.481 224.042 156.329 180.19 136.654 155.655C121.354 158.53 109.322 164.235 96.3681 175.889C110.547 208.642 140.089 276.864 160.714 318.263C181.899 301.665 199.252 282.334 211.797 261.416Z" fill="#B8C0E6"/>
<path d="M136.654 155.655C134.778 156.008 132.951 156.404 131.165 156.847C144.996 179.594 157.727 205.635 168.424 234.011C176.153 254.512 182.279 274.798 186.83 294.367C196.504 283.993 204.883 272.946 211.798 261.416C184.481 224.042 156.329 180.19 136.654 155.655Z" fill="#8D99D1"/>
<path d="M66.0789 124.922C64.0149 124.581 62.0627 124.874 61.0697 126.051C59.2619 128.195 59.9914 132.74 62.3695 134.449C63.399 135.19 64.5514 135.444 65.6706 135.584C67.9488 135.867 70.652 135.682 72.2784 133.689C75.9871 129.144 69.0227 125.408 66.0789 124.922Z" fill="#DA6A26"/>
<path d="M70.5124 121.59C74.7462 116.403 66.7955 112.136 63.4351 111.582C61.0789 111.193 58.8499 111.527 57.7167 112.871C55.6529 115.319 56.4855 120.507 59.2001 122.459C60.3756 123.304 61.6911 123.595 62.9688 123.754C65.5696 124.077 68.6555 123.865 70.5124 121.59Z" fill="#DA6A26"/>
<path d="M58.9382 109.383C60.089 110.21 61.3765 110.494 62.6275 110.649C65.1735 110.967 68.1945 110.759 70.0121 108.531C74.1567 103.454 66.3734 99.2776 63.0837 98.7345C60.777 98.3544 58.5953 98.6808 57.486 99.9965C55.4655 102.393 56.2806 107.471 58.9382 109.383Z" fill="#DA6A26"/>
<path d="M78.0837 32.4746L73.763 25.9381L67.2902 26.6728C67.1604 26.6874 67.0315 26.6944 66.9037 26.6944C65.2018 26.6944 63.7341 25.4161 63.5377 23.6846L62.5499 14.9728C62.3387 13.1122 63.6766 11.4321 65.538 11.2207L85.3864 8.96946C85.516 8.95486 85.6451 8.94786 85.7724 8.94786C87.4747 8.94786 88.9428 10.2262 89.139 11.9577L90.1271 20.6689C90.3379 22.53 89.0001 24.2101 87.1389 24.4215L80.7689 25.1439L78.0837 32.4746Z" fill="#C2C5D5"/>
<path d="M90.0347 16.5212L89.0476 7.11533C88.8365 5.10515 87.1581 3.66121 85.2988 3.88883L65.4704 6.31959C63.6109 6.54722 62.2743 8.3613 62.4855 10.3708L63.4723 19.7773C63.6833 21.7869 65.3617 23.2315 67.221 23.0038L73.6872 22.2106L78.0036 29.2683L80.686 21.3531L87.0496 20.5731C88.9088 20.3448 90.2453 18.5307 90.0347 16.5212Z" fill="#FD5742"/>
<path d="M111.288 71.0132L109.053 51.2157L144.197 47.2301C144.579 47.1868 144.958 47.1658 145.333 47.1658C150.331 47.1658 154.641 50.9202 155.218 56.0055C155.838 61.4727 151.909 66.4062 146.442 67.0264L111.288 71.0132Z" fill="#C2C5D5"/>
<path d="M111.288 71.0132L109.053 51.2157L111.288 71.0132Z" fill="#212B56"/>
<path d="M107.774 71.4116L105.54 51.6142L109.053 51.2153L111.288 71.0128L107.774 71.4116Z" fill="#2A47A2"/>
<path d="M77.5727 74.7729C76.6004 74.7729 75.6548 74.631 74.7571 74.3647L104.994 70.9356C105.513 70.8761 105.886 70.4071 105.827 69.8886C105.773 69.4044 105.361 69.0488 104.887 69.0488C104.852 69.0488 104.817 69.0505 104.781 69.0546L71.6513 72.8119C70.5176 71.971 69.5629 70.8912 68.8681 69.6369L104.39 65.608C104.909 65.549 105.283 65.0807 105.224 64.5615C105.169 64.0786 104.758 63.7217 104.286 63.7217C104.249 63.7217 104.213 63.7235 104.176 63.7276L68.0875 67.8207C67.8965 67.2168 67.7613 66.5856 67.6871 65.9327C67.0668 60.4661 70.9959 55.532 76.4626 54.9124L105.539 51.6147L107.774 71.4121L78.7074 74.7087C78.3267 74.7519 77.9477 74.7729 77.5727 74.7729Z" fill="#8F97C4"/>
<path d="M68.8682 69.6365C68.5516 69.0653 68.2888 68.458 68.0876 67.8203L104.177 63.7272C104.213 63.7231 104.25 63.7214 104.286 63.7214C104.758 63.7214 105.169 64.0782 105.224 64.5611C105.283 65.0803 104.91 65.5486 104.39 65.6076L68.8682 69.6365Z" fill="#717BB5"/>
<path d="M74.7572 74.3643C73.6308 74.0302 72.5809 73.5011 71.6514 72.8115L104.781 69.0541C104.817 69.0501 104.852 69.0483 104.887 69.0483C105.361 69.0483 105.773 69.4039 105.827 69.8881C105.886 70.4066 105.513 70.8756 104.994 70.9351L74.7572 74.3643Z" fill="#717BB5"/>
<path d="M146.442 61.98L78.7074 69.6617C73.2411 70.2819 68.3069 66.3528 67.6871 60.8862C67.0668 55.4196 70.9959 50.4856 76.4626 49.866L144.197 42.1837C149.663 41.5635 154.598 45.4925 155.217 50.9592C155.838 56.4258 151.909 61.3598 146.442 61.98Z" fill="white"/>
<path d="M84.9847 57.4125L80.8794 57.2834L78.6579 53.8286L77.2669 57.6934L73.2941 58.7381L76.5398 61.2557L76.3062 65.3569L79.7032 63.0479L83.5318 64.5376L82.3855 60.5928L84.9847 57.4125Z" fill="#27C60D"/>
<path d="M69.3942 17.8427C68.6083 17.9207 67.9348 17.8226 67.3737 17.5482C66.8127 17.2738 66.4099 16.8608 66.1655 16.3091L67.8469 15.0991C68.1518 15.6939 68.6207 15.9599 69.2536 15.897C69.7266 15.85 69.9506 15.7013 69.9257 15.451C69.9106 15.2979 69.816 15.195 69.6422 15.142C69.5553 15.1155 69.4652 15.0928 69.3721 15.074C69.3505 15.0691 69.2215 15.0433 68.9851 14.9965L68.5668 14.9222C67.0697 14.6284 66.2651 13.9182 66.1532 12.7914C66.0869 12.1237 66.2719 11.547 66.7083 11.0611C67.1586 10.5739 67.7732 10.2916 68.5522 10.2142C69.1781 10.152 69.7494 10.2463 70.266 10.497C70.7818 10.7408 71.1815 11.1225 71.4649 11.6422L69.8336 12.8262C69.5808 12.3316 69.2214 12.1074 68.7554 12.1537C68.5815 12.1709 68.4497 12.2227 68.3599 12.3088C68.2694 12.3881 68.2297 12.4833 68.2408 12.5946C68.256 12.7476 68.3477 12.8579 68.516 12.9255C68.6766 12.9868 69.0037 13.0632 69.4975 13.1546C70.1636 13.2851 70.7049 13.4666 71.1214 13.6992C71.6414 13.9847 71.9377 14.4925 72.0102 15.2228C72.0834 15.9601 71.8866 16.5591 71.4196 17.0199C70.9527 17.4807 70.2775 17.7549 69.3942 17.8427Z" fill="white"/>
<path d="M77.6043 9.48361L79.6908 9.27635L80.4162 16.5792L78.3297 16.7865L77.9763 13.2289L76.6203 16.124L76.4325 16.1426L74.5335 13.5709L74.8869 17.1285L72.8004 17.3357L72.075 10.0329L74.1615 9.8256L76.1782 12.6279L77.6043 9.48361Z" fill="white"/>
<path d="M84.0041 16.3914C83.2181 16.4695 82.5446 16.3713 81.9836 16.0969C81.4225 15.8226 81.0198 15.4095 80.7753 14.8579L82.4567 13.6478C82.7616 14.2426 83.2306 14.5086 83.8635 14.4457C84.3364 14.3988 84.5605 14.2501 84.5356 13.9997C84.5204 13.8467 84.4259 13.7437 84.252 13.6907C84.1651 13.6642 84.0751 13.6416 83.9819 13.6227C83.9603 13.6179 83.8313 13.592 83.5949 13.5453L83.1766 13.4709C81.6795 13.1772 80.875 12.4669 80.763 11.3402C80.6967 10.6725 80.8817 10.0957 81.3181 9.60988C81.7684 9.12265 82.383 8.84035 83.162 8.76297C83.788 8.70079 84.3592 8.79506 84.8758 9.04576C85.3917 9.28952 85.7913 9.67124 86.0747 10.1909L84.4434 11.3749C84.1906 10.8803 83.8312 10.6561 83.3652 10.7024C83.1913 10.7197 83.0595 10.7714 82.9697 10.8576C82.8793 10.9368 82.8396 11.0321 82.8506 11.1433C82.8658 11.2964 82.9575 11.4067 83.1258 11.4742C83.2864 11.5355 83.6136 11.6119 84.1073 11.7033C84.7735 11.8338 85.3148 12.0153 85.7312 12.2479C86.2512 12.5334 86.5475 13.0413 86.62 13.7716C86.6933 14.5088 86.4964 15.1078 86.0295 15.5686C85.5625 16.0294 84.8874 16.3037 84.0041 16.3914Z" fill="white"/>
<path d="M94.5434 57.2441L97.239 60.8761L94.8149 61.1217L93.5371 59.3979L92.6202 61.3441L90.1961 61.5897L92.1193 57.4898L89.4762 53.9408L91.9002 53.6952L93.1255 55.336L93.9858 53.4838L96.4099 53.2382L94.5434 57.2441Z" fill="black"/>
<path d="M101.581 56.531L104.277 60.1629L101.853 60.4085L100.575 58.6848L99.6579 60.6309L97.2339 60.8766L99.157 56.7766L96.5139 53.2276L98.938 52.982L100.163 54.6228L101.024 52.7707L103.448 52.525L101.581 56.531Z" fill="black"/>
<path d="M108.619 55.8178L111.314 59.4497L108.89 59.6954L107.613 57.9716L106.696 59.9178L104.272 60.1634L106.195 56.0635L103.552 52.5145L105.976 52.2688L107.201 53.9097L108.061 52.0575L110.485 51.8119L108.619 55.8178Z" fill="black"/>
<path d="M115.657 55.1046L118.352 58.7366L115.928 58.9822L114.65 57.2584L113.733 59.2046L111.309 59.4502L113.232 55.3503L110.589 51.8013L113.013 51.5557L114.239 53.1965L115.099 51.3443L117.523 51.0987L115.657 55.1046Z" fill="black"/>
<path d="M124.82 58.2576C123.663 58.3749 122.67 58.0894 121.843 57.401C121.008 56.7061 120.533 55.7945 120.419 54.6662C120.304 53.5379 120.587 52.5496 121.266 51.7012C121.938 50.8609 122.853 50.3821 124.01 50.2648C124.709 50.194 125.374 50.2958 126.005 50.5701C126.643 50.8438 127.158 51.2475 127.55 51.7814L125.761 53.0658C125.612 52.8309 125.4 52.6539 125.123 52.5348C124.846 52.4158 124.547 52.3725 124.227 52.405C123.696 52.4588 123.277 52.6778 122.97 53.0619C122.67 53.4379 122.547 53.8989 122.603 54.4449C122.658 54.9909 122.87 55.4179 123.24 55.7261C123.617 56.0409 124.072 56.1713 124.603 56.1175C124.931 56.0843 125.215 55.982 125.455 55.8106C125.702 55.6384 125.875 55.4187 125.972 55.1514L127.983 56.0508C127.707 56.6598 127.283 57.1623 126.713 57.5584C126.15 57.9537 125.519 58.1868 124.82 58.2576Z" fill="black"/>
<path d="M135.031 56.0647C134.329 56.9079 133.411 57.3871 132.275 57.5022C131.139 57.6173 130.14 57.3325 129.276 56.6478C128.418 55.9478 127.933 55.0373 127.819 53.9163C127.705 52.788 127.998 51.8022 128.7 50.9589C129.4 50.1084 130.322 49.6252 131.465 49.5094C132.608 49.3936 133.604 49.6824 134.454 50.3758C135.318 51.0605 135.807 51.967 135.921 53.0953C136.035 54.2163 135.738 55.2061 135.031 56.0647ZM130.662 54.974C131.054 55.2873 131.519 55.4166 132.058 55.362C132.597 55.3074 133.023 55.0877 133.337 54.7029C133.658 54.3101 133.791 53.848 133.737 53.3166C133.683 52.7852 133.46 52.3628 133.068 52.0496C132.683 51.7283 132.221 51.5949 131.682 51.6495C131.143 51.7041 130.714 51.9278 130.393 52.3207C130.079 52.7055 129.949 53.1636 130.003 53.695C130.056 54.2191 130.276 54.6455 130.662 54.974Z" fill="black"/>
<path d="M136.353 49.1906L139.519 48.8697C140.567 48.7635 141.485 49.0418 142.273 49.7048C143.061 50.3677 143.51 51.2379 143.619 52.3152C143.729 53.3998 143.464 54.3459 142.825 55.1534C142.193 55.9529 141.349 56.4062 140.294 56.5131L137.127 56.834L136.353 49.1906ZM139.205 54.4833L140.079 54.3948C140.523 54.3498 140.871 54.1564 141.123 53.8146C141.382 53.4648 141.486 53.0388 141.435 52.5365C141.384 52.0342 141.197 51.6413 140.874 51.3578C140.558 51.0663 140.178 50.943 139.734 50.988L138.86 51.0765L139.205 54.4833Z" fill="black"/>
<path d="M146.72 52.9717L146.806 53.8234L149.645 53.5357L149.849 55.5449L144.826 56.0538L144.051 48.4104L149.02 47.907L149.221 49.8943L146.437 50.1764L146.521 51.0063L149.032 50.7518L149.231 52.7172L146.72 52.9717Z" fill="black"/>
</g>
</svg>
