<svg width="16" height="11" viewBox="0 0 16 11" fill="none" xmlns="http://www.w3.org/2000/svg">
<path d="M7.9965 1.80445C5.93844 1.80445 4.26411 3.4391 4.26411 5.44841C4.26411 7.45776 5.93844 9.09247 7.9965 9.09247C10.0545 9.09247 11.7288 7.45776 11.7288 5.44841C11.7288 3.43915 10.0545 1.80445 7.9965 1.80445ZM7.9965 8.0738C6.51376 8.0738 5.30753 6.89611 5.30753 5.44846C5.30753 4.0009 6.51376 2.82322 7.9965 2.82322C9.4792 2.82322 10.6854 4.0009 10.6854 5.44846C10.6854 6.89606 9.4792 8.0738 7.9965 8.0738Z" fill="#6D718C"/>
<path fill-rule="evenodd" clip-rule="evenodd" d="M14.662 0H1.33795C0.600212 0 0 0.586007 0 1.30629V9.69361C0 10.4139 0.600212 11 1.33795 11H14.662C15.3998 11 16 10.4139 16 9.69361V1.30624C16 0.586007 15.3998 0 14.662 0ZM12.0739 9.98123H3.92721H2.87784H1.33795C1.17558 9.98123 1.04346 9.85219 1.04346 9.69361V8.0736V7.04232V3.81865L1.04341 2.78741V1.30624C1.04346 1.14771 1.17558 1.01872 1.33795 1.01872H2.85493L3.91126 1.01867H12.0898H13.1461H14.662C14.8245 1.01872 14.9566 1.14771 14.9566 1.30624V2.78717V3.81855V7.04242L14.9565 8.0738V9.69361C14.9566 9.85219 14.8245 9.98123 14.662 9.98123H13.1233H12.0739Z" fill="#6D718C"/>
</svg>
