<svg width="15" height="14" viewBox="0 0 15 14" fill="none" xmlns="http://www.w3.org/2000/svg">
<path fill-rule="evenodd" clip-rule="evenodd" d="M5.51143 4.56244L7.45802 0.705814C7.4954 0.628231 7.55382 0.562702 7.62662 0.51669C7.69942 0.470679 7.78367 0.446032 7.86979 0.445557C8.0329 0.445557 8.19601 0.532012 8.28425 0.705814L10.2308 4.56244L14.5964 5.18278C14.7052 5.19989 14.8048 5.25401 14.8783 5.336C14.9519 5.418 14.9949 5.52286 15.0001 5.63289C15.0062 5.70613 14.9958 5.7798 14.9696 5.84845C14.9433 5.91711 14.902 5.97899 14.8486 6.02951L11.7086 9.02069L12.4484 13.2365C12.5179 13.6314 12.1275 13.9406 11.7835 13.7642L7.86979 11.7534L3.95791 13.7642C3.91699 13.7854 3.87313 13.8004 3.82778 13.8087C3.52385 13.8622 3.23239 13.5823 3.293 13.2365L4.03277 9.02069L0.893638 6.02951C0.844997 5.98326 0.806372 5.92752 0.780155 5.86573C0.753938 5.80395 0.740688 5.73744 0.741227 5.67032C0.741455 5.57549 0.767325 5.48248 0.816095 5.40115C0.851211 5.34239 0.899074 5.29226 0.956151 5.25446C1.01323 5.21667 1.07806 5.19217 1.14587 5.18278L5.51143 4.56244ZM7.86979 10.7195C7.9411 10.7195 8.0124 10.7355 8.07657 10.7694L11.3619 12.4575L10.7433 8.93067C10.7288 8.84949 10.7344 8.76596 10.7597 8.68747C10.7851 8.60897 10.8293 8.53792 10.8886 8.48057L13.4787 6.01169L9.86718 5.4983C9.7924 5.48701 9.72147 5.45776 9.66046 5.41305C9.59946 5.36834 9.5502 5.30952 9.5169 5.24161L7.87158 1.98126L7.86979 1.98393V10.7186V10.7195Z" fill="#F2B705"/>
</svg>
