<svg width="12" height="13" viewBox="0 0 12 13" fill="none" xmlns="http://www.w3.org/2000/svg">
<path d="M11.6575 2.10503L6.21303 0.0388191C6.07664 -0.012927 5.92333 -0.0129524 5.78697 0.0388191L0.342528 2.10503C0.135167 2.18374 0 2.36879 0 2.57402V5.08579C0 8.54433 2.28692 11.6554 5.79006 12.9624C5.92461 13.0125 6.07536 13.0125 6.20994 12.9624C9.71303 11.6554 12 8.54435 12 5.08579V2.57402C12 2.36879 11.8649 2.18374 11.6575 2.10503ZM10.8889 5.08579C10.8889 8.0259 9 10.7325 6 11.9406C3.08017 10.7647 1.11111 8.10558 1.11111 5.08579V2.91304L6 1.05764L10.8889 2.91304V5.08579ZM5.38594 6.79748L7.77383 4.61482C7.99078 4.41652 8.34253 4.4165 8.5595 4.61482C8.77647 4.81315 8.77644 5.13467 8.55947 5.33297L5.77878 7.8747C5.56178 8.07305 5.21003 8.07298 4.99311 7.8747L3.4405 6.45552C3.22353 6.25719 3.22353 5.93567 3.4405 5.73737C3.65747 5.53907 4.00922 5.53904 4.22617 5.73737L5.38594 6.79748Z" fill="#6D718C"/>
</svg>
