<svg width="18" height="18" viewBox="0 0 18 18" fill="none" xmlns="http://www.w3.org/2000/svg">
<path d="M9 0L11.2639 2.03256L14.2901 1.71885L14.9269 4.69389L17.5595 6.21885L16.326 9L17.5595 11.7812L14.9269 13.3061L14.2901 16.2812L11.2639 15.9674L9 18L6.73614 15.9674L3.70993 16.2812L3.07314 13.3061L0.440492 11.7812L1.674 9L0.440492 6.21885L3.07314 4.69389L3.70993 1.71885L6.73614 2.03256L9 0Z" fill="#00BDE7"/>
<path d="M12.1385 5.94474L12.1385 5.94475L7.52491 10.6565L5.86149 8.95773C5.86148 8.95773 5.86148 8.95773 5.86148 8.95773C5.60721 8.69804 5.1928 8.69811 4.93855 8.95771L4.93855 8.95772C4.68715 9.21444 4.68716 9.62852 4.93854 9.88524L4.93854 9.88524L7.06341 12.0553C7.31768 12.315 7.73231 12.3148 7.98638 12.0553L13.0615 6.87229C13.3129 6.61556 13.3128 6.20147 13.0615 5.94476C12.8072 5.68507 12.3928 5.6851 12.1385 5.94474Z" fill="white" stroke="white" stroke-width="0.5"/>
</svg>
