<svg xmlns="http://www.w3.org/2000/svg" xml:space="preserve" style="enable-background:new 0 0 24 24" viewBox="0 0 24 24"><path d="M17.7 22.8H6.3c-2.5 0-4.5-2-4.5-4.5v-6.7C1.8 9 3.8 7 6.3 7h11.5c2.5 0 4.5 2 4.5 4.5V13c0 .4-.3.8-.8.8h-2c-.3 0-.7.1-.9.4-.3.3-.4.6-.4 1 .1.7.7 1.2 1.4 1.2h1.9c.4 0 .8.3.8.8v1.2c-.1 2.3-2.1 4.4-4.6 4.4zM6.3 8.5c-1.7 0-3 1.4-3 3v6.7c0 1.7 1.4 3 3 3h11.5c1.7 0 3-1.4 3-3v-.4h-1.2c-1.5 0-2.8-1.1-2.9-2.6-.1-.8.2-1.6.8-2.2.5-.5 1.2-.8 2-.8h1.3v-.7c0-1.7-1.4-3-3-3H6.3zm11.7 5z"/><path d="M2.5 13.2c-.4 0-.8-.3-.8-.8V7.8c0-1.5.9-2.8 2.3-3.4l7.9-3c.8-.3 1.7-.2 2.4.3s1.1 1.3 1.1 2.2v3.8c0 .4-.3.8-.8.8s-.8-.3-.8-.8V4c0-.4-.2-.7-.5-.9-.3-.2-.7-.3-1.1-.1L4.3 6c-.5.2-1.1 1-1.1 1.8v4.6c0 .4-.3.8-.7.8zM19.6 17.8c-1.5 0-2.8-1.1-2.9-2.6-.1-.8.2-1.6.8-2.2.5-.5 1.2-.8 2-.8h2.1c1 0 1.8.8 1.8 1.8v2c0 1-.8 1.7-1.7 1.8h-2.1zm1.9-4.1h-2.1c-.3 0-.7.1-.9.4-.3.3-.4.7-.4 1 .1.7.7 1.2 1.4 1.2h2c.1 0 .2-.1.2-.3v-2c.1-.2 0-.3-.2-.3z"/><path d="M14 12.8H7c-.4 0-.8-.3-.8-.8s.3-.8.8-.8h7c.4 0 .8.3.8.8s-.4.8-.8.8z"/></svg>
