<svg width="282" height="282" viewBox="0 0 282 282" fill="none" xmlns="http://www.w3.org/2000/svg">
<mask id="mask0" mask-type="alpha" maskUnits="userSpaceOnUse" x="0" y="0" width="282" height="282">
<circle cx="141" cy="141" r="141" fill="#C4C4C4"/>
</mask>
<g mask="url(#mask0)">
<path d="M168.073 183.38C156.624 168.631 95.0713 193.39 97.8819 198.725C111.453 224.482 120.678 232.609 138.322 238.783C149.336 236.438 163.545 232.112 172.029 221.659C171.384 215.615 172.339 188.874 168.073 183.38Z" fill="#DA6A26"/>
<path d="M117.32 148.343C110.532 144.324 82.3461 128.716 75.0601 130.125C70.8944 130.931 68.9792 134.388 70.5409 137.95C71.9336 141.127 75.2802 143.466 78.1788 145.68C83.8497 150.008 91.3505 153.049 96.5608 156.999C99.36 159.121 105.945 165.26 109.425 166.296C114.847 167.91 124.435 152.556 117.32 148.343Z" fill="#DA6A26"/>
<path d="M248.155 344.853C228.58 307.168 186.162 243.355 171.9 218.426C156.132 217.443 140.65 226.148 138.322 238.782C149.046 269.773 188.648 338.479 202.532 379.177C220.811 366.055 236.579 362.926 248.155 344.853Z" fill="#DA6A26"/>
<path d="M156.263 218.231L105.958 223.91C100.882 224.483 96.3023 220.833 95.7293 215.757L81.881 93.0798C81.3078 88.0038 84.9582 83.4249 90.0341 82.8515L140.339 77.173C145.415 76.5996 149.994 80.2503 150.568 85.3263L164.416 208.002C164.989 213.079 161.339 217.659 156.263 218.231Z" fill="#26336B"/>
<path d="M155.856 214.634L105.552 220.314C100.476 220.885 95.8962 217.235 95.3234 212.16L81.4748 89.4827C80.9017 84.4075 84.5524 79.8278 89.6283 79.2544L139.933 73.5759C145.009 73.0032 149.588 76.6532 150.161 81.7291L164.01 204.406C164.583 209.482 160.932 214.061 155.856 214.634Z" fill="#3752AC"/>
<path d="M122.667 82.8119L113.996 83.791C113.365 83.8621 112.797 83.4085 112.725 82.7782C112.655 82.1479 113.108 81.5798 113.738 81.5087L122.409 80.5295C123.04 80.4592 123.608 80.9121 123.679 81.5423C123.75 82.1726 123.297 82.7408 122.667 82.8119Z" fill="#26336B"/>
<path d="M109.531 83.1385C109.602 83.7688 109.149 84.3377 108.519 84.408C107.889 84.4799 107.32 84.0263 107.249 83.396C107.178 82.7665 107.631 82.1976 108.261 82.1264C108.892 82.0553 109.46 82.5082 109.531 83.1385Z" fill="#26336B"/>
<path d="M133.392 209.79C133.611 211.73 132.217 213.479 130.278 213.698C128.339 213.917 126.589 212.522 126.37 210.583C126.151 208.644 127.546 206.895 129.485 206.675C131.424 206.457 133.174 207.851 133.392 209.79Z" fill="#26336B"/>
<path d="M164.275 205.695L95.9965 213.44L82.2151 91.9278L150.494 84.184L164.275 205.695Z" fill="#B8C0E6"/>
<path d="M162.125 186.733L93.8456 194.478L87.1486 135.428L155.427 127.684L162.125 186.733Z" fill="#E5E8F9"/>
<path d="M93.6274 122.072C93.0189 122.072 92.494 121.616 92.4238 120.997C92.3482 120.331 92.8265 119.73 93.4923 119.654L145.713 113.732C146.376 113.656 146.979 114.135 147.055 114.801C147.13 115.466 146.652 116.067 145.986 116.142L93.7657 122.066L93.6274 122.072Z" fill="#8D99D1"/>
<path d="M94.402 128.9C93.7935 128.9 93.2687 128.444 93.1984 127.825C93.1227 127.159 93.6011 126.559 94.2666 126.483L146.487 120.56C147.151 120.485 147.753 120.963 147.829 121.629C147.904 122.294 147.426 122.895 146.761 122.971L94.5403 128.894L94.402 128.9Z" fill="#8D99D1"/>
<path d="M110.57 199.701C110.859 202.252 109.026 204.555 106.474 204.845C103.923 205.133 101.62 203.3 101.331 200.748C101.042 198.197 102.876 195.895 105.427 195.605C107.978 195.315 110.28 197.149 110.57 199.701Z" fill="#8D99D1"/>
<path d="M115.366 200.167C114.758 200.167 114.233 199.709 114.162 199.09C114.087 198.424 114.565 197.824 115.231 197.748L154.597 193.284C155.263 193.208 155.864 193.686 155.939 194.352C156.015 195.019 155.537 195.618 154.871 195.695L115.505 200.159L115.366 200.167Z" fill="#8D99D1"/>
<path d="M143.429 224.823C139.342 223.087 142.752 203.143 160.802 183.67C157.992 174.071 156.944 147.815 167.042 147.412C171.89 147.219 178.624 184.172 178.624 184.172C178.624 184.172 176.878 201.235 172.029 221.659C172.029 221.659 146.085 218.664 143.429 224.823Z" fill="#DA6A26"/>
<path d="M161.012 183.864C158.36 186.663 155.838 189.469 153.603 192.462C151.383 195.463 149.431 198.618 147.827 201.949C146.215 205.278 144.951 208.77 143.941 212.37C142.947 215.977 142.242 219.685 141.555 223.482C141.08 219.657 141.185 215.751 141.815 211.905C142.424 208.057 143.605 204.271 145.317 200.735C147.029 197.201 149.268 193.917 151.94 191.07C154.595 188.211 157.65 185.752 161.012 183.864Z" fill="#723D1F"/>
<path d="M283.663 367.133C248.649 319.227 212.563 263.016 187.343 231.566C167.731 235.252 152.308 242.564 135.704 257.503C153.878 299.486 191.746 386.935 218.184 440C245.339 418.725 267.583 393.946 283.663 367.133Z" fill="#B8C0E6"/>
<path d="M187.343 231.567C184.938 232.019 182.596 232.527 180.307 233.095C198.036 262.253 214.354 295.633 228.066 332.005C237.973 358.284 245.825 384.287 251.659 409.371C264.059 396.073 274.799 381.913 283.663 367.133C248.649 319.227 212.563 263.017 187.343 231.567Z" fill="#8D99D1"/>
<path d="M96.8784 192.172C94.2327 191.736 91.7303 192.111 90.4575 193.619C88.1402 196.368 89.0753 202.194 92.1236 204.385C93.4433 205.335 94.9205 205.66 96.355 205.839C99.2752 206.202 102.74 205.964 104.825 203.41C109.579 197.584 100.652 192.795 96.8784 192.172Z" fill="#DA6A26"/>
<path d="M102.561 187.902C107.988 181.253 97.7968 175.784 93.4894 175.073C90.4692 174.575 87.6121 175.003 86.1594 176.726C83.514 179.863 84.5813 186.513 88.0609 189.016C89.5677 190.099 91.2539 190.471 92.8917 190.675C96.2255 191.09 100.181 190.818 102.561 187.902Z" fill="#DA6A26"/>
<path d="M87.7253 172.254C89.2004 173.315 90.8508 173.679 92.4543 173.878C95.7178 174.284 99.5901 174.019 101.92 171.163C107.233 164.654 97.2559 159.301 93.0391 158.605C90.0823 158.118 87.2858 158.536 85.8638 160.223C83.274 163.294 84.3187 169.804 87.7253 172.254Z" fill="#DA6A26"/>
<path d="M112.266 73.6719L106.728 65.2933L98.431 66.235C98.2647 66.2537 98.0995 66.2627 97.9357 66.2627C95.7541 66.2627 93.8727 64.6241 93.621 62.4046L92.3548 51.2377C92.0841 48.8528 93.799 46.6992 96.185 46.4282L121.627 43.5425C121.793 43.5238 121.959 43.5149 122.122 43.5149C124.304 43.5149 126.186 45.1534 126.437 47.3729L127.704 58.5391C127.974 60.9247 126.259 63.0783 123.873 63.3493L115.708 64.2753L112.266 73.6719Z" fill="#C2C5D5"/>
<path d="M127.585 53.2225L126.32 41.1659C126.049 38.5892 123.898 36.7384 121.515 37.0301L96.0983 40.1459C93.7147 40.4377 92.0014 42.763 92.2722 45.3389L93.5371 57.3963C93.8076 59.9722 95.9589 61.8239 98.3422 61.5321L106.631 60.5153L112.164 69.562L115.602 59.4161L123.759 58.4163C126.142 58.1237 127.855 55.7984 127.585 53.2225Z" fill="#FD5742"/>
<path d="M154.828 123.071L151.964 97.6945L197.012 92.5856C197.501 92.5303 197.986 92.5033 198.467 92.5033C204.875 92.5033 210.399 97.3158 211.138 103.834C211.933 110.842 206.896 117.166 199.889 117.961L154.828 123.071Z" fill="#C2C5D5"/>
<path d="M154.828 123.071L151.964 97.6945L154.828 123.071Z" fill="#212B56"/>
<path d="M150.324 123.582L147.46 98.2053L151.964 97.694L154.828 123.071L150.324 123.582Z" fill="#2A47A2"/>
<path d="M111.611 127.891C110.365 127.891 109.153 127.709 108.002 127.367L146.761 122.972C147.426 122.896 147.904 122.294 147.829 121.63C147.758 121.009 147.231 120.553 146.624 120.553C146.579 120.553 146.533 120.556 146.487 120.561L104.021 125.377C102.568 124.299 101.344 122.915 100.454 121.307L145.986 116.143C146.652 116.067 147.13 115.467 147.055 114.801C146.984 114.182 146.458 113.725 145.853 113.725C145.806 113.725 145.76 113.727 145.713 113.732L99.453 118.979C99.2082 118.205 99.0348 117.396 98.9398 116.559C98.1447 109.552 103.181 103.227 110.188 102.433L147.46 98.2059L150.324 123.583L113.066 127.808C112.578 127.864 112.092 127.891 111.611 127.891Z" fill="#8F97C4"/>
<path d="M100.454 121.307C100.048 120.575 99.7109 119.796 99.453 118.979L145.713 113.732C145.76 113.727 145.806 113.725 145.853 113.725C146.458 113.725 146.984 114.182 147.055 114.801C147.13 115.466 146.652 116.067 145.986 116.142L100.454 121.307Z" fill="#717BB5"/>
<path d="M108.002 127.367C106.558 126.939 105.213 126.26 104.021 125.376L146.487 120.56C146.533 120.555 146.579 120.553 146.624 120.553C147.231 120.553 147.758 121.008 147.829 121.629C147.904 122.294 147.426 122.895 146.761 122.971L108.002 127.367Z" fill="#717BB5"/>
<path d="M199.889 111.492L113.066 121.339C106.059 122.134 99.7343 117.098 98.9398 110.09C98.1447 103.083 103.181 96.7585 110.188 95.9643L197.011 86.1171C204.018 85.3221 210.344 90.3584 211.138 97.3656C211.933 104.373 206.896 110.697 199.889 111.492Z" fill="white"/>
<path d="M121.112 105.638L115.85 105.473L113.002 101.044L111.219 105.998L106.127 107.337L110.287 110.564L109.988 115.821L114.342 112.862L119.25 114.771L117.78 109.715L121.112 105.638Z" fill="#27C60D"/>
<path d="M101.128 54.9161C100.121 55.0162 99.2573 54.8904 98.5381 54.5387C97.819 54.187 97.3027 53.6576 96.9894 52.9504L99.1446 51.3994C99.5355 52.1618 100.137 52.5027 100.948 52.4222C101.554 52.3619 101.841 52.1714 101.809 51.8504C101.79 51.6543 101.669 51.5223 101.446 51.4544C101.334 51.4204 101.219 51.3914 101.1 51.3672C101.072 51.361 100.907 51.3279 100.604 51.2679L100.067 51.1726C98.1484 50.7961 97.1171 49.8857 96.9736 48.4414C96.8886 47.5855 97.1258 46.8462 97.6851 46.2235C98.2623 45.5989 99.0502 45.2371 100.049 45.1379C100.851 45.0582 101.583 45.179 102.245 45.5004C102.907 45.8128 103.419 46.3021 103.782 46.9683L101.691 48.486C101.367 47.8519 100.906 47.5646 100.309 47.6239C100.086 47.646 99.9173 47.7123 99.8022 47.8228C99.6862 47.9243 99.6353 48.0464 99.6495 48.1891C99.669 48.3852 99.7866 48.5266 100.002 48.6132C100.208 48.6918 100.627 48.7897 101.26 48.9069C102.114 49.0742 102.808 49.3068 103.342 49.6049C104.008 49.9709 104.388 50.6219 104.481 51.558C104.575 52.503 104.323 53.2708 103.724 53.8615C103.126 54.4521 102.26 54.8037 101.128 54.9161Z" fill="white"/>
<path d="M111.652 44.2014L114.326 43.9357L115.256 53.2966L112.582 53.5623L112.129 49.0022L110.391 52.7131L110.15 52.737L107.716 49.4406L108.169 54.0007L105.494 54.2664L104.564 44.9054L107.239 44.6397L109.824 48.2318L111.652 44.2014Z" fill="white"/>
<path d="M119.855 53.0559C118.848 53.156 117.984 53.0301 117.265 52.6784C116.546 52.3267 116.03 51.7973 115.717 51.0902L117.872 49.5391C118.263 50.3016 118.864 50.6425 119.675 50.5619C120.281 50.5017 120.568 50.3111 120.536 49.9902C120.517 49.794 120.396 49.662 120.173 49.5941C120.062 49.5602 119.946 49.5311 119.827 49.507C119.799 49.5007 119.634 49.4676 119.331 49.4077L118.795 49.3124C116.876 48.9358 115.844 48.0254 115.701 46.5811C115.616 45.7253 115.853 44.986 116.412 44.3632C116.989 43.7387 117.777 43.3768 118.776 43.2776C119.578 43.1979 120.31 43.3188 120.973 43.6401C121.634 43.9526 122.146 44.4419 122.509 45.108L120.418 46.6257C120.094 45.9917 119.634 45.7043 119.036 45.7636C118.813 45.7858 118.644 45.8521 118.529 45.9625C118.413 46.0641 118.362 46.1862 118.377 46.3288C118.396 46.525 118.514 46.6663 118.729 46.753C118.935 46.8315 119.355 46.9294 119.988 47.0466C120.841 47.2139 121.535 47.4466 122.069 47.7447C122.736 48.1106 123.115 48.7616 123.208 49.6977C123.302 50.6427 123.05 51.4106 122.451 52.0012C121.853 52.5919 120.987 52.9434 119.855 53.0559Z" fill="white"/>
<path d="M133.365 105.422L136.82 110.078L133.713 110.392L132.075 108.183L130.899 110.678L127.792 110.992L130.257 105.737L126.869 101.188L129.977 100.873L131.547 102.976L132.65 100.602L135.757 100.287L133.365 105.422Z" fill="black"/>
<path d="M142.386 104.508L145.841 109.163L142.734 109.478L141.096 107.269L139.921 109.763L136.813 110.078L139.278 104.823L135.891 100.274L138.998 99.9589L140.568 102.062L141.671 99.688L144.778 99.3731L142.386 104.508Z" fill="black"/>
<path d="M151.407 103.594L154.862 108.249L151.755 108.564L150.117 106.355L148.942 108.849L145.834 109.164L148.3 103.909L144.912 99.3596L148.019 99.0447L149.589 101.148L150.692 98.7738L153.799 98.4589L151.407 103.594Z" fill="black"/>
<path d="M160.428 102.68L163.883 107.335L160.776 107.65L159.138 105.44L157.963 107.935L154.856 108.25L157.321 102.995L153.933 98.4454L157.04 98.1306L158.61 100.234L159.713 97.8597L162.82 97.5448L160.428 102.68Z" fill="black"/>
<path d="M172.174 106.721C170.69 106.872 169.418 106.506 168.358 105.623C167.287 104.733 166.679 103.564 166.532 102.118C166.386 100.671 166.747 99.4046 167.618 98.3171C168.479 97.24 169.652 96.6263 171.136 96.4759C172.031 96.3852 172.884 96.5156 173.692 96.8673C174.51 97.218 175.171 97.7356 175.674 98.4199L173.38 100.066C173.189 99.7651 172.917 99.5382 172.562 99.3857C172.207 99.2331 171.824 99.1776 171.414 99.2192C170.733 99.2882 170.195 99.5689 169.802 100.061C169.417 100.543 169.26 101.134 169.331 101.834C169.402 102.534 169.675 103.081 170.148 103.476C170.632 103.88 171.215 104.047 171.896 103.978C172.316 103.935 172.68 103.804 172.987 103.585C173.304 103.364 173.526 103.082 173.651 102.74L176.228 103.892C175.874 104.673 175.331 105.317 174.6 105.825C173.878 106.332 173.07 106.63 172.174 106.721Z" fill="black"/>
<path d="M185.262 103.91C184.363 104.991 183.185 105.605 181.73 105.753C180.274 105.9 178.993 105.535 177.886 104.658C176.786 103.761 176.164 102.593 176.018 101.156C175.871 99.7102 176.248 98.4466 177.147 97.3656C178.045 96.2754 179.227 95.656 180.691 95.5076C182.156 95.3591 183.434 95.7293 184.523 96.6182C185.63 97.4958 186.257 98.6578 186.403 100.104C186.549 101.541 186.168 102.81 185.262 103.91ZM179.662 102.512C180.165 102.914 180.761 103.08 181.452 103.01C182.142 102.94 182.689 102.658 183.091 102.165C183.502 101.661 183.673 101.069 183.604 100.388C183.535 99.7066 183.249 99.1652 182.747 98.7637C182.252 98.3518 181.66 98.1809 180.969 98.2509C180.279 98.3208 179.728 98.6076 179.317 99.1111C178.915 99.6044 178.748 100.192 178.817 100.873C178.885 101.545 179.167 102.091 179.662 102.512Z" fill="black"/>
<path d="M186.956 95.099L191.015 94.6877C192.359 94.5515 193.536 94.9083 194.546 95.7581C195.556 96.6078 196.131 97.7232 196.271 99.1042C196.411 100.494 196.072 101.707 195.253 102.742C194.443 103.767 193.361 104.348 192.008 104.485L187.949 104.896L186.956 95.099ZM190.613 101.883L191.733 101.77C192.302 101.712 192.748 101.464 193.072 101.026C193.403 100.578 193.537 100.032 193.471 99.3878C193.406 98.744 193.166 98.2404 192.753 97.877C192.347 97.5033 191.86 97.3453 191.291 97.403L190.171 97.5164L190.613 101.883Z" fill="black"/>
<path d="M200.245 99.9457L200.356 101.037L203.995 100.669L204.256 103.244L197.818 103.896L196.825 94.0989L203.193 93.4536L203.451 96.001L199.882 96.3626L199.99 97.4263L203.209 97.1001L203.465 99.6195L200.245 99.9457Z" fill="black"/>
</g>
</svg>
