<svg width="205" height="232" viewBox="0 0 205 232" fill="none" xmlns="http://www.w3.org/2000/svg">
<path d="M184.265 168.291C187.624 169.523 188.313 172.435 188.313 172.435L190.349 162.85L185.164 162.727L184.265 168.291Z" fill="#97C5EF"/>
<path d="M44.8042 168.002C41.445 169.234 40.7552 172.146 40.7552 172.146L38.7197 162.561L43.9044 162.438L44.8042 168.002Z" fill="#97C5EF"/>
<path d="M113.574 74.2636L101.465 82.6187L97.6709 73.953C97.6709 73.953 98.9131 70.6163 98.9859 65.4098C99.015 63.2206 98.8396 60.7003 98.2739 57.958L109.572 61.9767C109.572 61.9767 109.449 62.9883 109.471 64.4546C109.497 66.0388 109.695 68.1529 110.402 70.0925C111.012 71.7573 111.996 73.2936 113.574 74.2636Z" fill="#FFB27D"/>
<path d="M115.187 73.409C115.187 73.409 134.119 59.7054 135.396 57.6865C136.673 55.6674 143.539 37.1592 143.539 37.1592L147.622 38.0874C147.622 38.0874 144.502 60.8049 142.306 65.068C140.11 69.3312 117.742 86.1259 117.742 86.1259L115.187 73.409Z" fill="#FFB27D"/>
<path d="M134.452 221.683C134.452 221.683 135.818 224.348 138.844 225.007C140.75 225.423 142.382 226.415 143.398 227.805C144.256 228.981 143.426 230.634 141.971 230.634H126.611C125.303 230.634 124.282 229.506 124.413 228.204C124.528 227.067 124.647 225.742 124.699 224.725C124.813 222.507 127.035 220.721 127.035 220.721L134.452 221.683Z" fill="#2C3A64"/>
<path d="M134.823 222.186C134.823 222.186 131.137 224.363 124.903 223.049C124.903 223.049 114.303 195.944 113.675 183.189C113.647 182.677 113.638 182.189 113.647 181.724C113.86 169.728 102.783 138.488 105.771 132.088C108.759 125.685 132.9 134.964 132.9 134.964L133.38 156.733L134.823 222.186Z" fill="#35488B"/>
<path d="M133.38 156.733L113.675 183.189C113.647 182.677 113.638 182.189 113.647 181.724C113.86 169.728 102.783 138.488 105.771 132.088C108.759 125.685 132.9 134.964 132.9 134.964L133.38 156.733Z" fill="#2C3A64"/>
<path d="M94.901 221.669C94.901 221.669 96.2668 224.334 99.2929 224.994C101.199 225.409 102.831 226.401 103.847 227.792C104.705 228.967 103.875 230.621 102.419 230.621H87.0596C85.7517 230.621 84.731 229.492 84.8619 228.191C84.9763 227.053 85.0959 225.728 85.1479 224.712C85.2614 222.493 87.4832 220.708 87.4832 220.708L94.901 221.669Z" fill="#2C3A64"/>
<path d="M118.78 135.481C118.78 135.481 97.4444 215.102 96.7907 222.894C96.7907 222.894 92.6291 225.028 85.8735 221.257C85.8735 221.257 84.1916 186.195 85.8735 175.819C88.6058 158.962 89.022 135.142 98.9998 128.493C108.978 121.844 118.78 135.481 118.78 135.481Z" fill="#35488B"/>
<path d="M110.402 70.0922C104.364 70.7272 98.9858 65.4097 98.9858 65.4097L109.471 64.4546C109.497 66.0386 109.695 68.1527 110.402 70.0922Z" fill="#EA9C68"/>
<path d="M113.64 63.8993C113.64 63.8993 103.276 70.926 96.1461 63.2261C88.4517 54.9163 90.6092 46.1364 94.3191 44.2925C101.717 40.6159 107.246 41.9878 109.7 44.6283C112.154 47.2688 119.378 60.0786 113.64 63.8993Z" fill="#FFB27D"/>
<path d="M98.9844 65.4885C98.9844 65.4885 96.5801 62.2273 96.0037 60.0722C96.0037 60.0722 91.6881 57.3179 93.0947 55.7674C94.5013 54.2169 96.2282 56.1367 96.4711 55.5554C96.7142 54.9743 94.7128 47.2873 96.9052 46.7827C99.0974 46.278 107.75 45.9564 110.135 41.8052C112.52 37.6539 100.173 29.0413 87.6718 38.4321C75.1701 47.8227 83.2165 62.2529 98.9844 65.4885Z" fill="#2C3A64"/>
<path d="M82.8869 47.0012C82.8869 47.0012 81.5824 45.3249 81.7899 43.7273C81.7899 43.7273 82.4799 45.585 83.5062 46.1591C84.5326 46.7331 82.8869 47.0012 82.8869 47.0012Z" fill="#2C3A64"/>
<path d="M82.713 45.5693C82.713 45.5693 80.9039 45.983 80.5522 47.6095C80.5522 47.6095 81.4867 46.3506 83.0344 46.7942L82.713 45.5693Z" fill="#2C3A64"/>
<path d="M106.283 59.7368C106.283 59.7368 107.899 61.495 111.344 60.1646C111.344 60.1646 113.672 58.6921 112.74 56.5534C112.74 56.5532 109.205 56.4106 106.283 59.7368Z" fill="white"/>
<path d="M143.491 37.454C143.491 37.454 143.756 35.6703 143.331 34.1033C142.906 32.5364 142.984 27.8669 143.702 28.1629C144.419 28.4588 144.607 30.6203 145.451 30.5393C146.295 30.4584 147.317 28.6291 148.35 29.1528C149.383 29.6765 150.777 28.7013 150.107 31.9769C149.438 35.2524 147.574 38.3822 147.574 38.3822L143.491 37.454Z" fill="#FFB27D"/>
<path d="M92.7255 88.5762C92.7255 88.5762 81.4876 104.853 75.8712 110.018C75.8712 110.018 68.8932 130.263 68.3101 131.604C67.727 132.945 63.4268 130.774 63.4268 130.774C63.4268 130.774 65.3494 111.353 68.1574 105.476C70.9653 99.5999 79.5946 79.9202 86.37 78.845C93.1454 77.7698 92.7255 88.5762 92.7255 88.5762Z" fill="#FFB27D"/>
<path d="M68.2199 131.641C68.2199 131.641 67.8883 133.642 68.3366 135.413C68.7851 137.183 67.8786 141.534 67.0775 141.187C66.2764 140.841 66.8362 139.306 65.8851 139.381C64.934 139.456 62.8388 144.388 61.6865 143.78C60.5342 143.171 59.8605 141.348 60.675 137.676C61.4895 134.005 63.6451 130.52 63.6451 130.52L68.2199 131.641Z" fill="#FFB27D"/>
<path d="M130.454 137.51C126.945 138.979 123.134 140.095 119.32 140.937C119.32 140.937 119.32 140.937 119.318 140.937C119.316 140.939 119.312 140.939 119.306 140.941C107.983 143.445 96.6435 143.571 93.1862 143.544C92.4944 143.539 92.12 143.527 92.12 143.527C90.4702 143.354 89.1949 142.068 88.9859 140.479C88.9575 140.273 88.9516 140.063 88.9593 139.85C88.9593 139.85 88.2771 121.066 88.0699 116.803C87.7373 109.966 86.5285 99.5659 86.5285 99.5659L83.9626 102.178C83.9626 102.178 80.0178 102.298 76.4122 99.8239C73.1811 97.6063 72.6104 94.0581 72.6104 94.0581C72.6104 94.0581 80.7773 81.092 85.9146 77.46C89.5904 74.8618 97.6719 73.9533 97.6719 73.9533C99.9127 75.7152 104.202 78.1746 108.486 77.0304C111.706 76.1676 111.925 74.2917 111.62 72.431L125.923 65.106C125.923 65.106 132.012 69.5438 131.731 77.9352C131.731 77.9352 126.525 81.7022 125.879 84.2775C124.244 90.7947 134.601 129.491 134.601 129.491C135.315 132.814 133.584 136.197 130.454 137.51Z" fill="#F99746"/>
<path d="M119.318 140.937C119.316 140.939 119.312 140.939 119.306 140.941C107.982 143.445 96.6433 143.571 93.186 143.544C92.4942 143.539 92.1198 143.527 92.1198 143.527C90.4701 143.354 89.1947 142.068 88.9857 140.479C88.9573 140.273 88.9514 140.063 88.9591 139.85C88.9591 139.85 88.2769 121.066 88.0697 116.803C87.7371 109.966 86.5283 99.5659 86.5283 99.5659C86.5283 99.5659 95.1646 128.587 99.8535 135.301C104.504 141.965 119.088 140.954 119.318 140.937Z" fill="#ED7D2B"/>
<path d="M167.338 232H55.5782C55.5027 232 55.4409 231.762 55.4409 231.472V231.191C55.4409 230.9 55.5027 230.662 55.5782 230.662H167.338C167.413 230.662 167.475 230.9 167.475 231.191V231.472C167.475 231.762 167.413 232 167.338 232Z" fill="#2E3552"/>
<path d="M51.8067 54.6041C51.8067 54.6041 53.4414 56.8434 53.2662 59.3977C53.1361 61.2935 51.4461 63.2117 51.3325 63.2874L53.9998 64.7099C53.9998 64.7099 55.9779 61.1981 55.3111 58.2641C55.1067 57.3652 54.1611 55.9266 53.4664 55.2858C52.7008 54.5795 51.8067 54.6041 51.8067 54.6041Z" fill="#6BB7BF"/>
<path d="M46.3538 54.8413L44.6646 51.1072C44.6646 51.1072 52.5477 51.3739 55.1596 57.7969C55.1596 57.7969 49.6434 53.8632 46.3538 54.8413Z" fill="#86D1CD"/>
<path d="M8.73691 96.0439C8.73691 96.0439 5.75464 94.4196 4.61189 91.4992C3.76378 89.3316 4.6318 86.3229 4.71791 86.1796L1.01979 86C1.01979 86 0.666978 90.9243 2.9406 93.8245C3.63738 94.7132 5.43759 95.8113 6.54221 96.1575C7.7597 96.5391 8.73691 96.0439 8.73691 96.0439Z" fill="#6BB7BF"/>
<path d="M14.6518 92.9277L18.4765 96.1791C18.4765 96.1791 9.60687 100.009 3.35303 94.2628C3.35303 94.2628 11.5207 95.7323 14.6518 92.9277Z" fill="#86D1CD"/>
<path d="M5.49186 147.389C5.49186 147.389 3.19031 145.65 2.59636 143.054C2.15558 141.127 3.26154 138.709 3.35184 138.599L0.267892 137.985C0.267892 137.985 -0.645605 142.077 0.901133 144.798C1.37519 145.632 2.74953 146.78 3.63427 147.209C4.60879 147.682 5.49186 147.389 5.49186 147.389Z" fill="#6BB7BF"/>
<path d="M10.8506 145.512L13.6559 148.722C13.6559 148.722 5.72575 150.828 1.19238 145.218C1.19255 145.218 7.86895 147.476 10.8506 145.512Z" fill="#86D1CD"/>
<path d="M166.001 131.639C166.001 131.639 165.799 128.623 171.461 127.164C173.998 126.51 179.648 127.673 176.067 133.231C172.341 139.014 169.019 136.926 169.019 136.926C169.019 136.926 176.79 130.844 173.68 128.063C170.249 124.994 168.93 131.076 168.93 131.076C168.93 131.076 167.548 131.003 166.001 131.639Z" fill="#F1A34F"/>
<path d="M168.01 137.275C168.01 137.275 165.893 136.128 166.732 133.584L169.775 134.112C169.775 134.112 168.605 136.866 171.468 137.2C171.467 137.2 168.713 137.854 168.01 137.275Z" fill="#DB7714"/>
<path d="M113.456 16.7394C113.456 16.7394 117.955 10.2587 124.857 14.8481L129.06 10.8287C129.06 10.8287 125.133 7.84745 116.075 13.194C110.15 16.6921 113.456 16.7394 113.456 16.7394Z" fill="#5685D8"/>
<path d="M109.014 23.0931C109.014 23.0931 108.124 15.6537 120.576 11.0125C120.576 11.0125 116.075 13.1939 114.687 20.6092L109.014 23.0931Z" fill="#739AF0"/>
<path d="M31.6564 26.3397C31.6564 26.3397 26.117 26.0591 26.2949 20.2355L22.3351 19.2185C22.3351 19.2185 22.0129 22.6693 28.567 26.0917C32.8551 28.3311 31.6564 26.3397 31.6564 26.3397Z" fill="#5685D8"/>
<path d="M37.0977 26.6331C37.0977 26.6331 32.9868 29.9259 25.5938 24.2149C25.5938 24.2149 28.5669 26.0922 33.5092 24.1687L37.0977 26.6331Z" fill="#739AF0"/>
<path d="M199.324 68.1213C199.324 68.1213 193.784 67.8408 193.962 62.0172L190.003 61C190.003 61 189.68 64.4508 196.235 67.8732C200.523 70.1125 199.324 68.1213 199.324 68.1213Z" fill="#5685D8"/>
<path d="M204.766 68.4144C204.766 68.4144 200.655 71.7072 193.262 65.9961C193.262 65.9961 196.235 67.8733 201.177 65.95L204.766 68.4144Z" fill="#739AF0"/>
<path d="M190.051 5.08026C190.051 5.08026 193.409 2.95946 193.762 0.396729C193.762 0.396729 197.032 0.573476 197.739 1.63379C197.739 1.63379 196.237 5.87552 194.469 6.6708C194.469 6.6708 190.493 6.93601 190.051 5.08026Z" fill="#F99746"/>
<path d="M158.165 107.535C158.165 107.535 162.236 104.964 162.664 101.857C162.664 101.857 166.628 102.071 167.485 103.357C167.485 103.357 165.664 108.499 163.521 109.464C163.521 109.464 158.7 109.785 158.165 107.535Z" fill="#97BDFF"/>
<path d="M46.7593 202.431C46.7593 202.431 43.9994 200.688 43.709 198.582C43.709 198.582 41.022 198.727 40.4409 199.599C40.4409 199.599 41.6756 203.085 43.1279 203.738C43.1279 203.738 46.3961 203.956 46.7593 202.431Z" fill="#F99746"/>
<path d="M160.975 24.8308C160.975 24.8308 163.398 27.0401 165.515 26.7611C165.515 26.7611 166.089 29.4025 165.4 30.1971C165.4 30.1971 161.695 29.9285 160.675 28.6957C160.675 28.6957 159.595 25.5881 160.975 24.8308Z" fill="#86D1CD"/>
<path d="M147.326 28.502C147.326 28.502 147.21 29.6914 148.224 30.9266C149.238 32.162 150.538 32.8096 150.712 32.0583C150.885 31.3068 150.133 26.2989 147.326 28.502Z" fill="#FFB27D"/>
</svg>
