<svg width="71" height="56" viewBox="0 0 71 56" fill="none" xmlns="http://www.w3.org/2000/svg">
<path d="M0.625 0.666016V5.79102C0.625 19.9702 8.17583 32.3727 19.4167 39.2743V55.3327H70.6667V48.4994C70.6667 39.411 52.4558 34.8327 43.3333 34.8327C43.3333 34.8327 42.7525 34.8327 42.4792 34.8327C26.25 34.8327 12.5833 21.166 12.5833 5.79102V0.666016H0.625ZM43.3333 0.666016C39.7087 0.666016 36.2325 2.10589 33.6695 4.66889C31.1065 7.23189 29.6667 10.7081 29.6667 14.3327C29.6667 17.9573 31.1065 21.4335 33.6695 23.9965C36.2325 26.5595 39.7087 27.9993 43.3333 27.9993C46.958 27.9993 50.4341 26.5595 52.9971 23.9965C55.5601 21.4335 57 17.9573 57 14.3327C57 10.7081 55.5601 7.23189 52.9971 4.66889C50.4341 2.10589 46.958 0.666016 43.3333 0.666016Z" fill="black"/>
</svg>
