<svg width="25" height="24" viewBox="0 0 25 24" fill="none" xmlns="http://www.w3.org/2000/svg">
<g clip-path="url(#clip0)">
<path d="M21.9713 0H3.97873C2.32492 0 0.97998 1.34494 0.97998 2.99875V20.9913C0.97998 22.6451 2.32492 23.99 3.97873 23.99H21.9713C23.6251 23.99 24.97 22.6451 24.97 20.9913V2.99875C24.97 1.34494 23.6251 0 21.9713 0Z" fill="#F2F2F2"/>
<path d="M21.2214 11.9949H17.473V8.99618C17.473 8.16852 18.1447 8.24649 18.9723 8.24649H20.4717V4.49805H17.473C14.9885 4.49805 12.9748 6.51171 12.9748 8.99618V11.9949H9.97607V15.7434H12.9748V23.9899H17.473V15.7434H19.722L21.2214 11.9949Z" fill="#B3504B"/>
</g>
<defs>
<clipPath id="clip0">
<rect width="23.99" height="23.99" fill="white" transform="translate(0.97998)"/>
</clipPath>
</defs>
</svg>
