<svg width="58" height="58" viewBox="0 0 58 58" fill="none" xmlns="http://www.w3.org/2000/svg">
<path d="M47.6239 0H10.3761C4.65473 0 0 4.65473 0 10.3761V47.624C0 53.3453 4.65473 58 10.3761 58H47.624C53.3453 58 58 53.3453 58 47.6239V10.3761C58 4.65473 53.3453 0 47.6239 0ZM54.6016 47.6239C54.6016 51.4714 51.4714 54.6016 47.6239 54.6016H10.3761C6.52863 54.6016 3.39844 51.4714 3.39844 47.6239V10.3761C3.39844 6.52863 6.52863 3.39844 10.3761 3.39844H47.624C51.4714 3.39844 54.6016 6.52863 54.6016 10.3761V47.6239Z" fill="#FD5742"/>
<path d="M49.0205 12.7404H23.1402C22.4287 10.6271 20.4298 9.10034 18.0797 9.10034C15.7296 9.10034 13.7307 10.6271 13.0192 12.7404H8.97946C8.04104 12.7404 7.28025 13.5012 7.28025 14.4396C7.28025 15.378 8.04104 16.1388 8.97946 16.1388H13.0193C13.7308 18.2521 15.7297 19.7789 18.0798 19.7789C20.4299 19.7789 22.4288 18.2521 23.1403 16.1388H49.0206C49.9591 16.1388 50.7199 15.378 50.7199 14.4396C50.7199 13.5012 49.9591 12.7404 49.0205 12.7404ZM18.0797 16.3805C17.0095 16.3805 16.1388 15.5098 16.1388 14.4396C16.1388 13.3695 17.0095 12.4988 18.0797 12.4988C19.1499 12.4988 20.0205 13.3695 20.0205 14.4396C20.0205 15.5098 19.1499 16.3805 18.0797 16.3805Z" fill="#FD5742"/>
<path d="M49.0205 27.3008H44.9807C44.2692 25.1875 42.2702 23.6607 39.9202 23.6607C37.5702 23.6607 35.5713 25.1875 34.8598 27.3008H8.97946C8.04104 27.3008 7.28025 28.0616 7.28025 29C7.28025 29.9384 8.04104 30.6992 8.97946 30.6992H34.8598C35.5713 32.8125 37.5703 34.3393 39.9203 34.3393C42.2703 34.3393 44.2693 32.8125 44.9808 30.6992H49.0206C49.9591 30.6992 50.7199 29.9384 50.7199 29C50.7199 28.0616 49.9591 27.3008 49.0205 27.3008ZM39.9203 30.9408C38.8501 30.9408 37.9795 30.0702 37.9795 29C37.9795 27.9298 38.8501 27.0592 39.9203 27.0592C40.9905 27.0592 41.8612 27.9298 41.8612 29C41.8612 30.0702 40.9905 30.9408 39.9203 30.9408Z" fill="#FD5742"/>
<path d="M49.0205 41.8612H30.4204C29.7089 39.7479 27.7101 38.2211 25.3599 38.2211C23.0098 38.2211 21.011 39.7479 20.2994 41.8612H8.97946C8.04104 41.8612 7.28025 42.622 7.28025 43.5604C7.28025 44.4988 8.04104 45.2596 8.97946 45.2596H20.2994C21.011 47.3729 23.0098 48.8997 25.3599 48.8997C27.7101 48.8997 29.7089 47.3729 30.4204 45.2596H49.0206C49.9591 45.2596 50.7199 44.4988 50.7199 43.5604C50.7199 42.622 49.9591 41.8612 49.0205 41.8612ZM25.3599 45.5013C24.2898 45.5013 23.4191 44.6307 23.4191 43.5605C23.4191 42.4903 24.2898 41.6196 25.3599 41.6196C26.4301 41.6196 27.3008 42.4902 27.3008 43.5604C27.3008 44.6305 26.4301 45.5013 25.3599 45.5013Z" fill="#FD5742"/>
</svg>
