<svg width="56" height="64" viewBox="0 0 56 64" fill="none" xmlns="http://www.w3.org/2000/svg">
<path d="M48.1769 46.75C47.5015 46.75 46.9541 47.3096 46.9541 48V60.25C46.9541 60.9392 46.4055 61.5 45.7312 61.5H3.66853C2.99426 61.5 2.44569 60.9392 2.44569 60.25V37.625C2.44569 36.9346 1.89822 36.3749 1.22285 36.3749C0.547468 36.3749 0 36.9346 0 37.625V60.25C0 62.3177 1.6457 64 3.66853 64H45.7312C47.754 64 49.3998 62.3177 49.3998 60.25V48C49.3998 47.3096 48.8523 46.75 48.1769 46.75Z" fill="#FD5742"/>
<path d="M52.9773 23.3935C51.9269 22.3198 50.704 21.5287 49.3999 21.0145V13.4987C49.3989 13.4985 49.3979 13.4984 49.3969 13.4984C49.3968 13.1733 49.2755 12.8538 49.0417 12.6148L37.0593 0.366251C36.8255 0.12725 36.5127 0.00337501 36.1947 0.00325001C36.1947 0.002125 36.1946 0.001125 36.1946 0H3.66853C1.6457 0 0 1.68225 0 3.75001V27.0417C0 27.7321 0.547468 28.2917 1.22285 28.2917C1.89822 28.2917 2.44569 27.7321 2.44569 27.0417V3.74988C2.44569 3.06063 2.99426 2.49988 3.66853 2.49988H34.9718V10.9986C34.9718 13.0664 36.6175 14.7487 38.6403 14.7487H46.9541V20.3879C43.8966 19.9993 40.7009 20.9992 38.3586 23.3935L20.9305 41.2086C20.4529 41.6967 20.4529 42.4882 20.9305 42.9765C21.408 43.4646 22.1823 43.4646 22.6599 42.9765L40.088 25.1613C43.1647 22.0163 48.1712 22.0162 51.248 25.1613C54.3248 28.3064 54.3248 33.4239 51.248 36.5689L34.9027 53.2772C32.984 55.2384 29.8622 55.2385 27.9437 53.2772C27.0144 52.3272 26.5025 51.0641 26.5025 49.7205C26.5025 48.377 27.0144 47.1137 27.9437 46.1637L44.3685 29.3742C44.7304 29.0042 45.2118 28.8003 45.7236 28.8003C46.2355 28.8003 46.7168 29.0041 47.0788 29.3742C47.4408 29.7442 47.6401 30.2362 47.6401 30.7594C47.6401 31.2827 47.4408 31.7747 47.0787 32.1447L32.2758 47.2762C31.7982 47.7643 31.7982 48.5558 32.2758 49.0441C32.7533 49.5321 33.5276 49.5321 34.0052 49.0441L48.808 33.9124C49.632 33.0703 50.0858 31.9504 50.0858 30.7594C50.0858 29.5684 49.632 28.4486 48.8081 27.6064C47.9843 26.7642 46.8888 26.3003 45.7236 26.3003C44.5585 26.3003 43.4631 26.7642 42.6391 27.6063L26.2144 44.3958C23.3423 47.3318 23.3423 52.109 26.2144 55.045C27.6506 56.5131 29.5366 57.2471 31.4232 57.2469C33.3093 57.2467 35.1962 56.5127 36.632 55.045L52.9773 38.3367C57.0076 34.2169 57.0076 27.5133 52.9773 23.3935ZM38.6403 12.2486C37.966 12.2486 37.4175 11.6879 37.4175 10.9986V4.26788L45.2247 12.2486H38.6403Z" fill="#FD5742"/>
<path d="M2.08776 31.5174C1.86031 31.2849 1.54482 31.1512 1.22321 31.1512C0.900381 31.1512 0.58611 31.2849 0.357438 31.5174C0.129988 31.7499 0.000366885 32.0724 0.000366885 32.4012C0.000366885 32.7299 0.129988 33.0524 0.357438 33.2849C0.58611 33.5187 0.900381 33.6512 1.22321 33.6512C1.54482 33.6512 1.86031 33.5187 2.08776 33.2849C2.31521 33.0524 2.44606 32.7299 2.44606 32.4012C2.44606 32.0724 2.31521 31.7499 2.08776 31.5174Z" fill="#FD5742"/>
<path d="M19.0672 45.5448L19.043 45.4685C18.8345 44.8118 18.1447 44.4522 17.5023 44.6653C16.86 44.8785 16.5082 45.5836 16.7167 46.2402L16.7409 46.3166C16.9086 46.8451 17.3881 47.1811 17.9038 47.1811C18.0289 47.1811 18.1562 47.1612 18.2815 47.1197C18.9239 46.9066 19.2757 46.2015 19.0672 45.5448Z" fill="#FD5742"/>
</svg>
