<svg width="71" height="71" viewBox="0 0 71 71" fill="none" xmlns="http://www.w3.org/2000/svg">
<path d="M33.529 1.99101C34.6143 0.894673 36.3857 0.894673 37.471 1.99101L40.0619 4.6082C40.8582 5.41264 42.0636 5.6524 43.1072 5.21394L46.5024 3.78746C47.9246 3.18991 49.5611 3.86778 50.1443 5.296L51.5364 8.70545C51.9643 9.75342 52.9861 10.4362 54.1181 10.4305L57.8007 10.4119C59.3434 10.4041 60.5959 11.6566 60.5881 13.1993L60.5695 16.8819C60.5638 18.0139 61.2466 19.0357 62.2945 19.4636L65.704 20.8557C67.1322 21.4389 67.8101 23.0754 67.2125 24.4976L65.7861 27.8928C65.3476 28.9364 65.5874 30.1418 66.3918 30.9381L69.009 33.529C70.1053 34.6143 70.1053 36.3857 69.009 37.471L66.3918 40.0619C65.5874 40.8582 65.3476 42.0636 65.7861 43.1072L67.2125 46.5024C67.8101 47.9246 67.1322 49.5611 65.704 50.1443L62.2945 51.5364C61.2466 51.9643 60.5638 52.9861 60.5695 54.1181L60.5881 57.8007C60.5959 59.3434 59.3434 60.5959 57.8007 60.5881L54.1181 60.5695C52.9861 60.5638 51.9643 61.2466 51.5364 62.2945L50.1443 65.704C49.5611 67.1322 47.9246 67.8101 46.5024 67.2125L43.1072 65.7861C42.0636 65.3476 40.8582 65.5874 40.0619 66.3918L37.471 69.009C36.3857 70.1053 34.6143 70.1053 33.529 69.009L30.9381 66.3918C30.1418 65.5874 28.9364 65.3476 27.8928 65.7861L24.4976 67.2125C23.0754 67.8101 21.4389 67.1322 20.8557 65.704L19.4636 62.2945C19.0357 61.2466 18.0139 60.5638 16.8819 60.5695L13.1993 60.5881C11.6566 60.5959 10.4041 59.3434 10.4119 57.8007L10.4305 54.1181C10.4362 52.9861 9.75342 51.9643 8.70545 51.5364L5.296 50.1443C3.86778 49.5611 3.18991 47.9246 3.78746 46.5024L5.21394 43.1072C5.6524 42.0636 5.41264 40.8582 4.6082 40.0619L1.99101 37.471C0.894673 36.3857 0.894673 34.6143 1.99101 33.529L4.6082 30.9381C5.41264 30.1418 5.6524 28.9364 5.21394 27.8928L3.78746 24.4976C3.18991 23.0754 3.86778 21.4389 5.296 20.8557L8.70545 19.4636C9.75342 19.0357 10.4362 18.0139 10.4305 16.8819L10.4119 13.1993C10.4041 11.6566 11.6566 10.4041 13.1993 10.4119L16.8819 10.4305C18.0139 10.4362 19.0357 9.75342 19.4636 8.70545L20.8557 5.296C21.4389 3.86778 23.0754 3.18991 24.4976 3.78746L27.8928 5.21394C28.9364 5.6524 30.1418 5.41264 30.9381 4.6082L33.529 1.99101Z" fill="#27AE60"/>
<path d="M21.8159 27.774V30.4566H16.1255V33.8302H21.6533V36.5128H16.1255V42H13.321V27.774H21.8159ZM35.3012 42H32.2731L29.4076 37.0616H27.2737V42H24.4692V27.774H30.1595C31.4737 27.774 32.5915 28.2347 33.5128 29.156C34.4341 30.0773 34.8948 31.1883 34.8948 32.4889C34.8948 33.3696 34.6441 34.1893 34.1428 34.948C33.6415 35.6932 32.9776 36.2554 32.1512 36.6348L35.3012 42ZM30.1595 30.3957H27.2737V34.6025H30.1595C30.6879 34.6025 31.1418 34.3993 31.5212 33.9928C31.9005 33.5728 32.0902 33.0715 32.0902 32.4889C32.0902 31.9063 31.9005 31.4118 31.5212 31.0054C31.1418 30.5989 30.6879 30.3957 30.1595 30.3957ZM40.3668 36.1267V39.3174H46.3621V42H37.5623V27.774H46.2604V30.4566H40.3668V33.4847H45.7524V36.1267H40.3668ZM51.7532 36.1267V39.3174H57.7484V42H48.9486V27.774H57.6468V30.4566H51.7532V33.4847H57.1387V36.1267H51.7532Z" fill="white"/>
</svg>
