<svg width="51" height="69" viewBox="0 0 51 69" fill="none" xmlns="http://www.w3.org/2000/svg">
<path d="M33.1489 23.0416H22.334C21.7841 23.0416 21.3382 22.5891 21.3382 22.0308C21.3382 21.4725 21.7841 21.0201 22.334 21.0201H33.1489C33.6989 21.0201 34.1447 21.4725 34.1447 22.0308C34.1447 22.5891 33.699 23.0416 33.1489 23.0416Z" fill="#FD5742"/>
<path d="M43.9638 17.8535H22.334C21.7841 17.8535 21.3382 17.4011 21.3382 16.8427C21.3382 16.2844 21.7841 15.832 22.334 15.832H43.9638C44.5138 15.832 44.9597 16.2844 44.9597 16.8427C44.9597 17.4011 44.5138 17.8535 43.9638 17.8535Z" fill="#FD5742"/>
<path d="M33.1489 39.9798H22.334C21.7841 39.9798 21.3382 39.5274 21.3382 38.9691C21.3382 38.4108 21.7841 37.9584 22.334 37.9584H33.1489C33.6989 37.9584 34.1447 38.4108 34.1447 38.9691C34.1447 39.5274 33.699 39.9798 33.1489 39.9798Z" fill="#FD5742"/>
<path d="M43.9638 34.7916H22.334C21.7841 34.7916 21.3382 34.3392 21.3382 33.7809C21.3382 33.2226 21.7841 32.7701 22.334 32.7701H43.9638C44.5138 32.7701 44.9597 33.2226 44.9597 33.7809C44.9597 34.3392 44.5138 34.7916 43.9638 34.7916Z" fill="#FD5742"/>
<path d="M33.1489 56.9181H22.334C21.7841 56.9181 21.3382 56.4657 21.3382 55.9074C21.3382 55.349 21.7841 54.8966 22.334 54.8966H33.1489C33.6989 54.8966 34.1447 55.349 34.1447 55.9074C34.1447 56.4657 33.699 56.9181 33.1489 56.9181Z" fill="#FD5742"/>
<path d="M43.9638 51.7299H22.334C21.7841 51.7299 21.3382 51.2775 21.3382 50.7192C21.3382 50.1608 21.7841 49.7084 22.334 49.7084H43.9638C44.5138 49.7084 44.9597 50.1608 44.9597 50.7192C44.9597 51.2775 44.5138 51.7299 43.9638 51.7299Z" fill="#FD5742"/>
<path d="M34.1113 9.52133H16.8887C15.2518 9.52133 13.92 8.16976 13.92 6.50837V3.01309C13.9201 1.3517 15.2518 0 16.8887 0H34.1111C35.7481 0 37.0799 1.3517 37.0799 3.01309V6.50837C37.0799 8.16976 35.7482 9.52133 34.1113 9.52133ZM16.8887 2.02148C16.35 2.02148 15.9117 2.46635 15.9117 3.01309V6.50837C15.9117 7.05512 16.35 7.49984 16.8887 7.49984H34.1111C34.6498 7.49984 35.0882 7.05498 35.0882 6.50837V3.01309C35.0882 2.46621 34.6498 2.02148 34.1111 2.02148H16.8887Z" fill="#FD5742"/>
<path d="M13.1401 24.3964H8.71405C7.23975 24.3964 6.04032 23.179 6.04032 21.6827V17.1907C6.04032 15.6944 7.23975 14.4771 8.71405 14.4771H13.1401C14.6144 14.4771 15.8138 15.6944 15.8138 17.1907V21.6828C15.8138 23.179 14.6144 24.3964 13.1401 24.3964ZM8.71405 16.4985C8.338 16.4985 8.03207 16.809 8.03207 17.1907V21.6828C8.03207 22.0645 8.338 22.375 8.71405 22.375H13.1401C13.5162 22.375 13.8221 22.0645 13.8221 21.6828V17.1907C13.8221 16.809 13.5162 16.4985 13.1401 16.4985H8.71405Z" fill="#FD5742"/>
<path d="M13.1401 41.3346H8.71405C7.23975 41.3346 6.04032 40.1173 6.04032 38.621V34.1289C6.04032 32.6326 7.23975 31.4152 8.71405 31.4152H13.1401C14.6144 31.4152 15.8138 32.6326 15.8138 34.1289V38.621C15.8138 40.1173 14.6144 41.3346 13.1401 41.3346ZM8.71405 33.4367C8.338 33.4367 8.03207 33.7472 8.03207 34.1289V38.621C8.03207 39.0027 8.338 39.3132 8.71405 39.3132H13.1401C13.5162 39.3132 13.8221 39.0027 13.8221 38.621V34.1289C13.8221 33.7472 13.5162 33.4367 13.1401 33.4367H8.71405Z" fill="#FD5742"/>
<path d="M13.1401 58.2729H8.71405C7.23975 58.2729 6.04032 57.0556 6.04032 55.5592V51.0671C6.04032 49.5707 7.23975 48.3534 8.71405 48.3534H13.1401C14.6144 48.3534 15.8138 49.5707 15.8138 51.0671V55.5592C15.8138 57.0556 14.6144 58.2729 13.1401 58.2729ZM8.71405 50.375C8.338 50.375 8.03207 50.6856 8.03207 51.0673V55.5593C8.03207 55.9409 8.338 56.2516 8.71405 56.2516H13.1401C13.5162 56.2516 13.8221 55.9409 13.8221 55.5593V51.0673C13.8221 50.6856 13.5162 50.375 13.1401 50.375H8.71405Z" fill="#FD5742"/>
<path d="M46.6857 69H4.31427C1.93532 69 0 67.0358 0 64.6213V8.12852C0 5.7142 1.93545 3.74999 4.31427 3.74999H10.2822C10.8322 3.74999 11.2781 4.2024 11.2781 4.76073C11.2781 5.31906 10.8322 5.77147 10.2822 5.77147H4.31427C3.03357 5.77147 1.99175 6.82884 1.99175 8.12852V64.6212C1.99175 65.921 3.0337 66.9784 4.31427 66.9784H46.6857C47.9664 66.9784 49.0082 65.9209 49.0082 64.6212V8.12852C49.0082 6.82871 47.9663 5.77147 46.6857 5.77147H40.7178C40.1678 5.77147 39.7219 5.31906 39.7219 4.76073C39.7219 4.2024 40.1678 3.74999 40.7178 3.74999H46.6857C49.0647 3.74999 51 5.7142 51 8.12852V64.6212C51 67.0358 49.0645 69 46.6857 69Z" fill="#FD5742"/>
</svg>
