<svg width="62" height="61" viewBox="0 0 62 61" fill="none" xmlns="http://www.w3.org/2000/svg">
<path d="M61.4886 1.1513C61.4793 1.08101 61.4687 1.01336 61.4475 0.944389C61.4249 0.868786 61.3944 0.799814 61.3599 0.729517C61.3414 0.691052 61.3347 0.649934 61.3122 0.612796C61.2976 0.588921 61.2737 0.573004 61.2565 0.550456C61.2127 0.489443 61.161 0.436388 61.1066 0.382006C61.0522 0.327625 60.9978 0.277223 60.9355 0.233452C60.9129 0.217536 60.8983 0.194987 60.8758 0.181724C60.8387 0.159175 60.7975 0.15387 60.7591 0.135301C60.6861 0.0994884 60.6145 0.0689818 60.5376 0.0464334C60.4726 0.0291906 60.4089 0.0199059 60.3426 0.0119477C60.2643 0.00266306 60.1887 -0.00264244 60.1105 0.00133669C60.0375 0.00531582 59.9672 0.0199059 59.8956 0.0371488C59.8505 0.0477598 59.8041 0.0437807 59.759 0.0596972L1.39829 19.9553C0.870391 20.1331 0.510943 20.6251 0.500332 21.1835C0.489721 21.7419 0.829274 22.2473 1.35187 22.4476L28.6182 32.9246L40.4005 60.2002C40.6114 60.687 41.0915 61 41.6181 61C41.6406 61 41.6619 61 41.6844 60.9987C42.2375 60.9708 42.7137 60.6034 42.8821 60.0768L61.4514 1.71634C61.4647 1.67522 61.4607 1.63278 61.4687 1.59033C61.4846 1.51606 61.4965 1.44443 61.4992 1.36883C61.5018 1.29455 61.4979 1.22425 61.4886 1.1513ZM5.71831 21.283L55.2148 4.40888L29.2854 30.3382L5.71831 21.283ZM41.4284 55.8921L31.1888 32.1872L57.2694 6.10531L41.4284 55.8921Z" fill="#FD5742"/>
<path d="M21.3338 40.1666C20.8152 39.648 19.9769 39.648 19.4583 40.1666L0.888961 58.7359C0.370346 59.2545 0.370346 60.0928 0.888961 60.6114C1.1476 60.87 1.48716 61 1.82671 61C2.16626 61 2.50582 60.87 2.76446 60.6114L21.3338 42.0421C21.8524 41.5235 21.8524 40.6852 21.3338 40.1666Z" fill="#FD5742"/>
<path d="M24.7638 49.4513L15.4791 58.7359C14.9605 59.2545 14.9605 60.0928 15.4791 60.6114C15.7378 60.87 16.0773 61 16.4169 61C16.7564 61 17.096 60.87 17.3546 60.6114L26.6393 51.3267C27.1579 50.8081 27.1579 49.9699 26.6393 49.4513C26.1207 48.9326 25.2824 48.9326 24.7638 49.4513Z" fill="#FD5742"/>
<path d="M1.82671 46.4099C2.16626 46.4099 2.50582 46.2799 2.76446 46.0212L12.0491 36.7366C12.5677 36.218 12.5677 35.3797 12.0491 34.8611C11.5305 34.3425 10.6922 34.3425 10.1736 34.8611L0.888961 44.1458C0.370346 44.6644 0.370346 45.5026 0.888961 46.0212C1.1476 46.2799 1.48716 46.4099 1.82671 46.4099Z" fill="#FD5742"/>
</svg>
