<svg width="62" height="60" viewBox="0 0 62 60" fill="none" xmlns="http://www.w3.org/2000/svg">
<path d="M59.863 51.4801H34.2193C33.0397 51.4801 32.0824 52.4399 32.0824 53.6249C32.0824 54.8097 33.0397 55.7695 34.2193 55.7695L59.863 55.7075C61.0427 55.7075 62 54.8097 62 53.6249C61.9999 52.4399 61.0447 51.4801 59.863 51.4801ZM29.9455 4.28951L59.863 4.28524C61.0427 4.28524 62 3.32967 62 2.14475C62 0.959838 61.0427 0 59.863 0H29.9455C28.7658 0 27.8085 0.959838 27.8085 2.14475C27.8085 3.32967 28.7658 4.28951 29.9455 4.28951ZM33.5505 39.2159C32.7128 38.3717 31.3537 38.3717 30.516 39.2159L19.2606 52.2022V0H14.9867V52.2793L3.66278 39.2159C2.8251 38.3717 1.46591 38.3717 0.628335 39.2159C-0.209445 40.0602 -0.209445 41.4271 0.628335 42.2691L15.4631 59.3863C15.9098 59.8363 16.5038 60.0269 17.0872 59.997C17.6726 60.0269 18.2647 59.8363 18.7112 59.3863L33.5461 42.2691C34.3882 41.4271 34.3882 40.0602 33.5505 39.2159ZM59.863 12.8706H29.9455C28.7658 12.8706 27.8085 13.8305 27.8085 15.0153C27.8085 16.2002 28.7658 17.1408 29.9455 17.1408H59.863C61.0427 17.1408 62 16.2001 62 15.0153C61.9999 13.8305 61.0447 12.8706 59.863 12.8706ZM59.863 25.739H29.9455C28.7658 25.739 27.8085 26.6989 27.8085 27.8837C27.8085 29.0687 28.7658 29.9942 29.9455 29.9942L59.863 30.0285C61.0427 30.0285 62 29.0686 62 27.8837C61.9999 26.7011 61.0447 25.739 59.863 25.739ZM59.863 38.6095H42.7672C41.5876 38.6095 40.6302 39.5694 40.6302 40.7542C40.6302 41.9391 41.5876 42.8518 42.7672 42.8518H59.863C61.0427 42.8518 62 41.9391 62 40.7542C61.9999 39.5695 61.0447 38.6095 59.863 38.6095Z" fill="#FD5742"/>
</svg>
