<svg width="76" height="76" viewBox="0 0 76 76" fill="none" xmlns="http://www.w3.org/2000/svg">
<path d="M50.2081 35.4585C49.7983 34.7483 48.8905 34.5051 48.1806 34.9151C47.4706 35.325 47.2274 36.2329 47.6373 36.9429L53.7102 47.4626C53.9877 47.9433 54.0614 48.5034 53.9177 49.0396C53.774 49.5758 53.4302 50.024 52.9495 50.3016C52.4687 50.5793 51.9087 50.6528 51.3727 50.5091C50.8367 50.3654 50.3886 50.0217 50.1111 49.5411L31.7053 17.6579C31.4279 17.1772 31.3543 16.6172 31.498 16.0812C31.6417 15.545 31.9854 15.0968 32.4662 14.8192C32.947 14.5417 33.5068 14.468 34.0431 14.6117C34.5792 14.7554 35.0274 15.0992 35.3049 15.58L40.9579 25.3725C41.3677 26.0825 42.2753 26.3257 42.9854 25.9158C43.6953 25.506 43.9386 24.5981 43.5287 23.888L37.8757 14.0956C36.4845 11.6855 33.392 10.8566 30.9819 12.2481C29.8145 12.9222 28.9794 14.0107 28.6306 15.3128C28.4377 16.0332 28.4069 16.7713 28.5315 17.4848L9.81095 40.2425L4.90238 43.0768C2.63631 44.3852 1.01531 46.498 0.338025 49.0258C-0.33926 51.5536 0.00836259 54.1938 1.31677 56.4603C2.62503 58.7268 4.73763 60.3479 7.26508 61.0252C8.10935 61.2515 8.96549 61.3632 9.81659 61.3632C10.4314 61.3632 11.0432 61.304 11.6454 61.1881L24.7725 74.4349C25.7921 75.4638 27.1542 76 28.5313 76C29.4365 76 30.348 75.7681 31.1723 75.292C32.6035 74.4658 33.5502 73.0523 33.7696 71.4142C33.9889 69.776 33.4476 68.1632 32.2842 66.9892L30.1649 64.8506L31.6191 64.0108C32.8171 63.3192 33.6096 62.1361 33.7935 60.765C33.9774 59.3938 33.5245 58.0435 32.5509 57.0605L30.8488 55.3419L48.6738 52.3765C49.2294 52.8412 49.8838 53.1837 50.6043 53.3766C51.039 53.4932 51.4803 53.5509 51.9186 53.5509C52.7932 53.5509 53.6561 53.3214 54.4338 52.8725C55.6012 52.1986 56.4362 51.1101 56.785 49.8078C57.1339 48.5055 56.955 47.1453 56.281 45.9779L50.2081 35.4585ZM3.88757 54.9759C2.00519 51.7151 3.12627 47.5306 6.38668 45.6479L10.243 43.4212L17.0708 55.2487L13.2128 57.4763C9.9527 59.3577 5.7698 58.2362 3.88757 54.9759ZM30.8274 71.02C30.7312 71.7387 30.3159 72.3586 29.6882 72.7209C28.7764 73.2478 27.6222 73.0927 26.8811 72.3451L14.6956 60.0484L18.8496 57.6498L30.1759 69.0792C30.6861 69.594 30.9236 70.3016 30.8274 71.02ZM30.4419 59.1499C30.7627 59.4738 30.912 59.9187 30.8513 60.3706C30.7907 60.8223 30.5296 61.212 30.135 61.4398L28.0043 62.6702L22.1726 56.7854L27.2617 55.9388L30.4419 59.1499ZM19.8696 54.1588L12.5861 41.5421L29.9088 20.4835L46.7659 49.6845L19.8696 54.1588Z" fill="#FD5742"/>
<path d="M47.7077 15.1582C47.9562 15.318 48.2343 15.3943 48.5095 15.3943C48.9975 15.3943 49.4753 15.1538 49.759 14.713L57.7533 2.28793C58.1969 1.59854 57.9976 0.679946 57.3083 0.236385C56.6189 -0.207472 55.7003 -0.00795895 55.257 0.68143L47.2627 13.1065C46.819 13.7959 47.0182 14.7144 47.7077 15.1582Z" fill="#FD5742"/>
<path d="M74.5145 35.3545H58.0388C57.2191 35.3545 56.5545 36.0191 56.5545 36.839C56.5545 37.6589 57.2191 38.3235 58.0388 38.3235H74.5145C75.3343 38.3235 75.9988 37.6589 75.9988 36.839C75.9988 36.0191 75.3343 35.3545 74.5145 35.3545Z" fill="#FD5742"/>
<path d="M53.4203 21.2777C53.001 22.8428 51.383 23.7904 49.813 23.3893C49.2243 23.2392 48.6036 23.4627 48.2459 23.9538C47.8883 24.445 47.8661 25.1044 48.1898 25.6186C49.9551 28.4221 52.9651 29.9615 56.0763 29.9613C57.6958 29.9612 59.3432 29.5439 60.8559 28.6704C62.7703 27.5649 64.1941 25.8066 64.9123 23.7114C67.0858 24.1368 69.3201 23.7829 71.2347 22.6776C75.6531 20.1264 77.2741 14.6373 74.9249 10.1812C74.6416 9.64363 74.0591 9.33308 73.4552 9.39736C72.8511 9.46164 72.347 9.88739 72.1828 10.4724C71.7451 12.0324 70.1158 12.9605 68.5509 12.5412C65.3344 11.679 61.9923 13.2546 60.5344 16.128C57.3173 15.9523 54.2821 18.0612 53.4203 21.2777ZM61.1186 19.2053C61.8958 19.4006 62.6876 18.9431 62.9073 18.1724C63.5018 16.0874 65.6892 14.848 67.7826 15.4087C69.6664 15.9135 71.5967 15.4414 73.0253 14.3049C73.0972 16.6 71.9081 18.8603 69.7504 20.1062C68.1408 21.0355 66.1827 21.1716 64.3783 20.4794C63.9603 20.3189 63.4921 20.3559 63.1046 20.5799C62.7169 20.8038 62.4509 21.1906 62.3808 21.6328C62.0779 23.5419 60.9812 25.1699 59.3717 26.0992C57.2137 27.3452 54.6622 27.245 52.7107 26.035C54.409 25.3658 55.7831 23.9299 56.2878 22.0461C56.8489 19.952 59.0162 18.6777 61.1186 19.2053Z" fill="#FD5742"/>
<path d="M45.5826 31.8993C45.973 31.8993 46.3559 31.7404 46.632 31.4643C46.9081 31.1882 47.0669 30.8052 47.0669 30.4148C47.0669 30.0244 46.9081 29.6414 46.632 29.3653C46.3559 29.0892 45.973 28.9303 45.5826 28.9303C45.1922 28.9303 44.8093 29.0892 44.5332 29.3653C44.2571 29.6414 44.0983 30.0244 44.0983 30.4148C44.0983 30.8052 44.2571 31.1882 44.5332 31.4643C44.8093 31.7404 45.1922 31.8993 45.5826 31.8993Z" fill="#FD5742"/>
</svg>
