<svg width="55" height="67" viewBox="0 0 55 67" fill="none" xmlns="http://www.w3.org/2000/svg">
<path d="M48.125 67H6.875C3.0855 67 0 63.8678 0 60.0208V6.97917C0 3.13225 3.0855 0 6.875 0H48.125C51.9145 0 55 3.13225 55 6.97917V60.0208C55 63.8678 51.9145 67 48.125 67ZM6.875 2.79167C4.60075 2.79167 2.75 4.67046 2.75 6.97917V60.0208C2.75 62.3295 4.60075 64.2083 6.875 64.2083H48.125C50.3993 64.2083 52.25 62.3295 52.25 60.0208V6.97917C52.25 4.67046 50.3993 2.79167 48.125 2.79167H6.875Z" fill="#FD5742"/>
<path d="M45.375 33.5H39.875C39.116 33.5 38.5 32.8747 38.5 32.1042C38.5 31.3337 39.116 30.7083 39.875 30.7083H45.375C46.134 30.7083 46.75 31.3337 46.75 32.1042C46.75 32.8747 46.134 33.5 45.375 33.5Z" fill="#FD5742"/>
<path d="M45.375 25.125H39.875C39.116 25.125 38.5 24.4997 38.5 23.7292C38.5 22.9587 39.116 22.3333 39.875 22.3333H45.375C46.134 22.3333 46.75 22.9587 46.75 23.7292C46.75 24.4997 46.134 25.125 45.375 25.125Z" fill="#FD5742"/>
<path d="M45.375 41.875H39.875C39.116 41.875 38.5 41.2497 38.5 40.4792C38.5 39.7087 39.116 39.0833 39.875 39.0833H45.375C46.134 39.0833 46.75 39.7087 46.75 40.4792C46.75 41.2497 46.134 41.875 45.375 41.875Z" fill="#FD5742"/>
<path d="M45.375 50.25H39.875C39.116 50.25 38.5 49.6247 38.5 48.8542C38.5 48.0837 39.116 47.4583 39.875 47.4583H45.375C46.134 47.4583 46.75 48.0837 46.75 48.8542C46.75 49.6247 46.134 50.25 45.375 50.25Z" fill="#FD5742"/>
<path d="M45.375 58.625H9.625C8.866 58.625 8.25 57.9997 8.25 57.2292C8.25 56.4587 8.866 55.8333 9.625 55.8333H45.375C46.134 55.8333 46.75 56.4587 46.75 57.2292C46.75 57.9997 46.134 58.625 45.375 58.625Z" fill="#FD5742"/>
<path d="M22 50.25C14.4183 50.25 8.25 43.9883 8.25 36.2917C8.25 28.595 14.4183 22.3333 22 22.3333C29.5818 22.3333 35.75 28.595 35.75 36.2917C35.75 43.9883 29.5818 50.25 22 50.25ZM22 25.125C15.9335 25.125 11 30.1333 11 36.2917C11 42.4501 15.9335 47.4583 22 47.4583C28.0665 47.4583 33 42.4501 33 36.2917C33 30.1333 28.0665 25.125 22 25.125Z" fill="#FD5742"/>
<path d="M13.2495 46.5706C12.8975 46.5706 12.5455 46.4338 12.276 46.163C11.7398 45.6186 11.7398 44.7337 12.276 44.1893L20.625 35.7138V23.7292C20.625 22.9587 21.241 22.3333 22 22.3333C22.759 22.3333 23.375 22.9587 23.375 23.7292V36.2917C23.375 36.663 23.2293 37.0175 22.9735 37.2799L14.223 46.163C13.9535 46.4338 13.6015 46.5706 13.2495 46.5706Z" fill="#FD5742"/>
</svg>
