<svg width="61" height="61" viewBox="0 0 61 61" fill="none" xmlns="http://www.w3.org/2000/svg">
<path d="M30.5 0C13.6826 0 0 13.6826 0 30.5C0 47.3174 13.6826 61 30.5 61C47.3174 61 61 47.3174 61 30.5C61 13.6826 47.3174 0 30.5 0ZM30.5 57.1875C15.7843 57.1875 3.81252 45.2157 3.81252 30.5C3.81252 15.7843 15.7843 3.81252 30.5 3.81252C45.2157 3.81252 57.1875 15.7843 57.1875 30.5C57.1875 45.2157 45.2157 57.1875 30.5 57.1875Z" fill="#FD5742"/>
<path d="M32.4063 11.4376H28.5937V31.2893L40.5897 43.2853L43.2853 40.5897L32.4063 29.7107V11.4376Z" fill="#FD5742"/>
</svg>
