<svg width="25" height="24" viewBox="0 0 25 24" fill="none" xmlns="http://www.w3.org/2000/svg">
<g clip-path="url(#clip0)">
<path d="M23.4607 5.33763C22.81 4.18011 22.1037 3.9672 20.6658 3.88623C19.2294 3.78877 15.6174 3.74829 12.4882 3.74829C9.35305 3.74829 5.73955 3.78877 4.30465 3.88473C2.86974 3.9672 2.16204 4.17861 1.50531 5.33763C0.835091 6.49365 0.490234 8.48482 0.490234 11.9904C0.490234 11.9934 0.490234 11.9949 0.490234 11.9949C0.490234 11.9979 0.490234 11.9994 0.490234 11.9994V12.0024C0.490234 15.4929 0.835091 17.4991 1.50531 18.6431C2.16204 19.8006 2.86825 20.0105 4.30315 20.108C5.73955 20.192 9.35305 20.2414 12.4882 20.2414C15.6174 20.2414 19.2294 20.192 20.6673 20.1095C22.1052 20.012 22.8115 19.8021 23.4622 18.6446C24.1384 17.5006 24.4803 15.4944 24.4803 12.0039C24.4803 12.0039 24.4803 11.9994 24.4803 11.9964C24.4803 11.9964 24.4803 11.9934 24.4803 11.9919C24.4803 8.48482 24.1384 6.49365 23.4607 5.33763Z" fill="#F2F2F2"/>
<path d="M9.48633 16.4931V7.49683L16.9832 11.995L9.48633 16.4931Z" fill="#B3504B"/>
</g>
<defs>
<clipPath id="clip0">
<rect width="23.99" height="23.99" fill="white" transform="translate(0.490234)"/>
</clipPath>
</defs>
</svg>
