<svg width="57" height="56" viewBox="0 0 57 56" fill="none" xmlns="http://www.w3.org/2000/svg">
<path d="M14.0181 0C12.0931 0 10.5181 1.575 10.5181 3.5V52.5C10.5181 54.425 12.0931 56 14.0181 56H49.0181C50.9431 56 52.5181 54.425 52.5181 52.5V14L38.5181 0H14.0181Z" fill="#E2E5E7"/>
<path d="M42.0181 14H52.5181L38.5181 0V10.5C38.5181 12.425 40.0931 14 42.0181 14Z" fill="#B0B7BD"/>
<path d="M52.5181 24.5L42.0181 14H52.5181V24.5Z" fill="#CAD1D8"/>
<path d="M45.5181 45.5C45.5181 46.4625 44.7306 47.25 43.7681 47.25H5.26807C4.30557 47.25 3.51807 46.4625 3.51807 45.5V28C3.51807 27.0375 4.30557 26.25 5.26807 26.25H43.7681C44.7306 26.25 45.5181 27.0375 45.5181 28V45.5Z" fill="#F7B84E"/>
<path d="M17.98 42C17.532 41.7463 17.252 41.244 17.532 40.656L21.5465 32.8073C21.9245 32.0653 22.9325 32.0373 23.2825 32.8073L27.227 40.656C27.801 41.7463 26.107 42.6143 25.6048 41.524L24.987 40.292H19.8245L19.2225 41.524C19.0003 42 18.4823 42.0998 17.98 42ZM23.9948 38.4458L22.4145 34.9895L20.6943 38.4458H23.9948Z" fill="white"/>
<path d="M28.8982 33.1572C28.8982 32.0092 30.7462 31.9672 30.7462 33.1572V41.1442C30.7462 42.3062 28.8982 42.3342 28.8982 41.1442V33.1572Z" fill="white"/>
<path d="M43.7681 47.25H10.5181V49H43.7681C44.7306 49 45.5181 48.2125 45.5181 47.25V45.5C45.5181 46.4625 44.7306 47.25 43.7681 47.25Z" fill="#CAD1D8"/>
</svg>
