<svg width="57" height="56" viewBox="0 0 57 56" fill="none" xmlns="http://www.w3.org/2000/svg">
<path d="M14.0181 0C12.0931 0 10.5181 1.575 10.5181 3.5V52.5C10.5181 54.425 12.0931 56 14.0181 56H49.0181C50.9431 56 52.5181 54.425 52.5181 52.5V14L38.5181 0H14.0181Z" fill="#E2E5E7"/>
<path d="M42.0181 14H52.5181L38.5181 0V10.5C38.5181 12.425 40.0931 14 42.0181 14Z" fill="#B0B7BD"/>
<path d="M52.5181 24.5L42.0181 14H52.5181V24.5Z" fill="#CAD1D8"/>
<path d="M45.5181 45.5C45.5181 46.4625 44.7306 47.25 43.7681 47.25H5.26807C4.30557 47.25 3.51807 46.4625 3.51807 45.5V28C3.51807 27.0375 4.30557 26.25 5.26807 26.25H43.7681C44.7306 26.25 45.5181 27.0375 45.5181 28V45.5Z" fill="#F15642"/>
<path d="M13.2972 42.0019C12.8492 41.7481 12.5692 41.2459 12.8492 40.6579L16.8654 32.8091C17.2434 32.0671 18.2497 32.0391 18.5997 32.8091L22.5459 40.6579C23.1199 41.7481 21.4259 42.6161 20.9219 41.5241L20.3059 40.2939H15.1434L14.5432 41.5259C14.3192 42.0019 13.8012 42.0999 13.2972 42.0019ZM19.3137 38.4476L17.7317 34.9914L16.0114 38.4476H19.3137Z" fill="white"/>
<path d="M26.4431 41.3718L22.7489 33.6351C22.2029 32.5291 23.8549 31.6208 24.4691 32.7811L25.7151 35.5933L27.3234 39.2858L28.9036 35.5933L30.1496 32.7811C30.7096 31.7188 32.3319 32.3891 31.8576 33.5511L28.2894 41.3718C27.9674 42.2538 26.9734 42.4638 26.4431 41.3718Z" fill="white"/>
<path d="M33.5833 33.1572C33.5833 32.0109 35.4313 31.9672 35.4313 33.1572V41.1459C35.4313 42.3079 33.5833 42.3359 33.5833 41.1459V33.1572Z" fill="white"/>
<path d="M43.7681 47.25H10.5181V49H43.7681C44.7306 49 45.5181 48.2125 45.5181 47.25V45.5C45.5181 46.4625 44.7306 47.25 43.7681 47.25Z" fill="#CAD1D8"/>
</svg>
