<svg width="57" height="56" viewBox="0 0 57 56" fill="none" xmlns="http://www.w3.org/2000/svg">
<path d="M14.0181 0C12.0931 0 10.5181 1.575 10.5181 3.5V52.5C10.5181 54.425 12.0931 56 14.0181 56H49.0181C50.9431 56 52.5181 54.425 52.5181 52.5V14L38.5181 0H14.0181Z" fill="#E2E5E7"/>
<path d="M42.0181 14H52.5181L38.5181 0V10.5C38.5181 12.425 40.0931 14 42.0181 14Z" fill="#B0B7BD"/>
<path d="M52.5181 24.5L42.0181 14H52.5181V24.5Z" fill="#CAD1D8"/>
<path d="M45.5181 45.5C45.5181 46.4625 44.7306 47.25 43.7681 47.25H5.26807C4.30557 47.25 3.51807 46.4625 3.51807 45.5V28C3.51807 27.0375 4.30557 26.25 5.26807 26.25H43.7681C44.7306 26.25 45.5181 27.0375 45.5181 28V45.5Z" fill="#F7B84E"/>
<path d="M12.7723 41.9999C12.2823 41.9999 11.9043 41.6219 11.9043 41.1319V33.1851C11.9043 32.6811 12.2823 32.3171 12.7723 32.3171H17.7948C19.0828 32.3171 19.0548 34.1354 17.7948 34.1354H13.7663V36.2354H17.2925C18.5368 36.2354 18.5368 38.0694 17.2925 38.0694H13.7663V40.1676H18.0345C19.3085 40.1676 19.4048 41.9999 18.0345 41.9999H12.7723Z" fill="white"/>
<path d="M20.8521 33.1573C20.8521 32.6953 21.2161 32.1896 21.8041 32.1896H25.0363C26.8563 32.1896 28.4943 33.4076 28.4943 35.7438C28.4943 37.9558 26.8563 39.1861 25.0363 39.1861H22.7V41.0341C22.7 41.6518 22.308 42.0001 21.8041 42.0001C21.3421 42.0001 20.8521 41.6518 20.8521 41.0341V33.1573ZM22.7 33.9536V37.4378H25.0363C25.9743 37.4378 26.7163 36.6118 26.7163 35.7438C26.7163 34.7638 25.9743 33.9536 25.0363 33.9536H22.7Z" fill="white"/>
<path d="M30.0745 34.4155C30.3965 31.7012 34.495 31.213 36.427 32.697C37.379 33.4652 36.371 34.6832 35.531 34.0672C34.495 33.4092 32.1448 33.1012 31.8508 34.5555C31.4728 36.8515 37.5593 35.5372 37.4613 39.2577C37.3633 42.812 32.2148 42.896 30.2828 41.3C29.8208 40.9237 29.8348 40.3095 30.0868 39.9297C30.4508 39.5675 30.855 39.4415 31.3328 39.8317C32.479 40.6157 35.433 41.2037 35.643 39.214C35.461 37.1455 29.6405 38.3915 30.0745 34.4155Z" fill="white"/>
<path d="M43.7681 47.25H10.5181V49H43.7681C44.7306 49 45.5181 48.2125 45.5181 47.25V45.5C45.5181 46.4625 44.7306 47.25 43.7681 47.25Z" fill="#CAD1D8"/>
</svg>
