<svg width="57" height="56" viewBox="0 0 57 56" fill="none" xmlns="http://www.w3.org/2000/svg">
<path d="M14.0181 0C12.0931 0 10.5181 1.575 10.5181 3.5V52.5C10.5181 54.425 12.0931 56 14.0181 56H49.0181C50.9431 56 52.5181 54.425 52.5181 52.5V14L38.5181 0H14.0181Z" fill="#E2E5E7"/>
<path d="M42.0181 14H52.5181L38.5181 0V10.5C38.5181 12.425 40.0931 14 42.0181 14Z" fill="#B0B7BD"/>
<path d="M52.5181 24.5L42.0181 14H52.5181V24.5Z" fill="#CAD1D8"/>
<path d="M45.5181 45.5C45.5181 46.4625 44.7306 47.25 43.7681 47.25H5.26807C4.30557 47.25 3.51807 46.4625 3.51807 45.5V28C3.51807 27.0375 4.30557 26.25 5.26807 26.25H43.7681C44.7306 26.25 45.5181 27.0375 45.5181 28V45.5Z" fill="#A066AA"/>
<path d="M21.8757 40.9238C20.8817 41.748 19.6637 42.0998 18.4334 42.0998C15.4934 42.0998 13.4092 40.4198 13.4092 37.0895C13.4092 34.2633 15.6072 32.067 18.5577 32.067C19.6637 32.067 20.8799 32.445 21.7479 33.299C22.6019 34.1373 21.3699 35.3833 20.5317 34.643C20.0137 34.1373 19.2857 33.761 18.5577 33.761C16.8654 33.761 15.2292 35.1173 15.2292 37.0895C15.2292 39.1615 16.5994 40.4198 18.4334 40.4198C19.2857 40.4198 20.0137 40.1678 20.5317 39.7898V38.0713H18.4334C17.1874 38.0713 17.3134 36.3615 18.4334 36.3615H21.2317C21.7497 36.3615 22.2239 36.7553 22.2239 37.1893V40.1695C22.2239 40.4198 22.1137 40.656 21.8757 40.9238Z" fill="white"/>
<path d="M24.6213 33.1572C24.6213 32.0092 26.4693 31.9672 26.4693 33.1572V41.1442C26.4693 42.3062 24.6213 42.3342 24.6213 41.1442V33.1572Z" fill="white"/>
<path d="M30.7656 34.1356V36.3598H34.3321C34.8361 36.3598 35.3401 36.8638 35.3401 37.3538C35.3401 37.8158 34.8361 38.1921 34.3321 38.1921H30.7656V41.1303C30.7656 41.6203 30.4156 41.9983 29.9256 41.9983C29.3096 41.9983 28.9333 41.6203 28.9333 41.1303V33.1836C28.9333 32.6796 29.3113 32.3156 29.9256 32.3156H34.8378C35.4538 32.3156 35.8179 32.6796 35.8179 33.1836C35.8179 33.6316 35.4538 34.1338 34.8378 34.1338H30.7656V34.1356Z" fill="white"/>
<path d="M43.7681 47.25H10.5181V49H43.7681C44.7306 49 45.5181 48.2125 45.5181 47.25V45.5C45.5181 46.4625 44.7306 47.25 43.7681 47.25Z" fill="#CAD1D8"/>
</svg>
