<svg width="57" height="56" viewBox="0 0 57 56" fill="none" xmlns="http://www.w3.org/2000/svg">
<path d="M14.0181 0C12.0931 0 10.5181 1.575 10.5181 3.5V52.5C10.5181 54.425 12.0931 56 14.0181 56H49.0181C50.9431 56 52.5181 54.425 52.5181 52.5V14L38.5181 0H14.0181Z" fill="#E2E5E7"/>
<path d="M42.0181 14H52.5181L38.5181 0V10.5C38.5181 12.425 40.0931 14 42.0181 14Z" fill="#B0B7BD"/>
<path d="M52.5181 24.5L42.0181 14H52.5181V24.5Z" fill="#CAD1D8"/>
<path d="M45.5181 45.5C45.5181 46.4625 44.7306 47.25 43.7681 47.25H5.26807C4.30557 47.25 3.51807 46.4625 3.51807 45.5V28C3.51807 27.0375 4.30557 26.25 5.26807 26.25H43.7681C44.7306 26.25 45.5181 27.0375 45.5181 28V45.5Z" fill="#50BEE8"/>
<path d="M15.5457 33.1573C15.5457 31.9813 17.3937 31.9813 17.3937 33.1573V38.6838C17.3937 40.8818 16.3437 42.2118 13.9235 42.2118C12.7335 42.2118 11.7412 41.888 10.8732 40.7698C10.1592 39.9158 11.5032 38.6855 12.2312 39.5798C12.8192 40.3078 13.4492 40.4758 14.0635 40.4478C14.8457 40.4198 15.5335 40.068 15.5475 38.6838V33.1573H15.5457Z" fill="white"/>
<path d="M19.8525 33.1572C19.8525 32.6952 20.2165 32.1912 20.8045 32.1912H24.0368C25.8568 32.1912 27.4948 33.4092 27.4948 35.7437C27.4948 37.9557 25.8568 39.1877 24.0368 39.1877H21.7005V41.0357C21.7005 41.6517 21.3085 41.9999 20.8045 41.9999C20.3425 41.9999 19.8525 41.6517 19.8525 41.0357V33.1572ZM21.7005 33.9534V37.4394H24.0368C24.9748 37.4394 25.7168 36.6117 25.7168 35.7437C25.7168 34.7654 24.9748 33.9534 24.0368 33.9534H21.7005Z" fill="white"/>
<path d="M37.4873 40.9237C36.4933 41.7497 35.2753 42.0997 34.045 42.0997C31.105 42.0997 29.0208 40.4215 29.0208 37.0895C29.0208 34.265 31.2188 32.0687 34.1693 32.0687C35.2753 32.0687 36.4915 32.445 37.3595 33.299C38.2118 34.1372 36.9815 35.3832 36.1433 34.643C35.6253 34.139 34.8973 33.761 34.1693 33.761C32.477 33.761 30.8408 35.1172 30.8408 37.0895C30.8408 39.1615 32.211 40.4215 34.045 40.4215C34.8973 40.4215 35.6253 40.1677 36.1433 39.7915V38.0712H34.045C32.799 38.0712 32.925 36.3632 34.045 36.3632H36.8433C37.3612 36.3632 37.8355 36.7552 37.8355 37.1892V40.1695C37.8355 40.4215 37.7253 40.656 37.4873 40.9237Z" fill="white"/>
<path d="M43.7681 47.25H10.5181V49H43.7681C44.7306 49 45.5181 48.2125 45.5181 47.25V45.5C45.5181 46.4625 44.7306 47.25 43.7681 47.25Z" fill="#CAD1D8"/>
</svg>
