<svg width="57" height="56" viewBox="0 0 57 56" fill="none" xmlns="http://www.w3.org/2000/svg">
<path d="M14.0181 0C12.0931 0 10.5181 1.575 10.5181 3.5V52.5C10.5181 54.425 12.0931 56 14.0181 56H49.0181C50.9431 56 52.5181 54.425 52.5181 52.5V14L38.5181 0H14.0181Z" fill="#E2E5E7"/>
<path d="M42.0181 14H52.5181L38.5181 0V10.5C38.5181 12.425 40.0931 14 42.0181 14Z" fill="#B0B7BD"/>
<path d="M52.5181 24.5L42.0181 14H52.5181V24.5Z" fill="#CAD1D8"/>
<path d="M45.5181 45.5C45.5181 46.4625 44.7306 47.25 43.7681 47.25H5.26807C4.30557 47.25 3.51807 46.4625 3.51807 45.5V28C3.51807 27.0375 4.30557 26.25 5.26807 26.25H43.7681C44.7306 26.25 45.5181 27.0375 45.5181 28V45.5Z" fill="#50BEE8"/>
<path d="M10.6195 35.8576V41.0341C10.6195 41.6518 10.1155 42.0001 9.61148 42.0001C9.16348 42.0001 8.77148 41.6518 8.77148 41.0341V33.1573C8.77148 32.4293 9.38748 32.1896 9.61148 32.1896C10.0157 32.1896 10.2537 32.4293 10.4935 32.6953L13.57 36.8498L16.7602 32.5396C17.224 31.9673 18.3562 32.1896 18.3562 33.1573V41.0341C18.3562 41.6518 17.966 42.0001 17.518 42.0001C17.014 42.0001 16.622 41.6518 16.622 41.0341V35.8576L14.298 38.7958C13.7957 39.4136 13.1657 39.4136 12.7037 38.7958L10.6195 35.8576Z" fill="white"/>
<path d="M25.6222 42.14C23.0339 42.252 20.3459 40.53 20.3459 37.1018C20.3459 33.6595 23.0322 31.9673 25.6222 31.9673C28.0705 32.0915 30.6307 33.7855 30.6307 37.1018C30.6307 40.4198 28.0705 42.14 25.6222 42.14ZM25.4682 33.7873C23.9002 33.7873 22.1939 34.8933 22.1939 37.1035C22.1939 39.3015 23.902 40.4215 25.4682 40.4215C27.0782 40.4215 28.7985 39.3015 28.7985 37.1035C28.7985 34.8915 27.0782 33.7873 25.4682 33.7873Z" fill="white"/>
<path d="M35.4187 41.3719L31.7245 33.6334C31.1785 32.5274 32.8305 31.6191 33.4447 32.7794L34.6907 35.5916L36.299 39.2859L37.8792 35.5916L39.1252 32.7794C39.6852 31.7171 41.3075 32.3874 40.8332 33.5494L37.265 41.3719C36.943 42.2539 35.949 42.4621 35.4187 41.3719Z" fill="white"/>
<path d="M43.7681 47.25H10.5181V49H43.7681C44.7306 49 45.5181 48.2125 45.5181 47.25V45.5C45.5181 46.4625 44.7306 47.25 43.7681 47.25Z" fill="#CAD1D8"/>
</svg>
