<svg width="57" height="56" viewBox="0 0 57 56" fill="none" xmlns="http://www.w3.org/2000/svg">
<path d="M14.0181 0C12.0931 0 10.5181 1.575 10.5181 3.5V52.5C10.5181 54.425 12.0931 56 14.0181 56H49.0181C50.9431 56 52.5181 54.425 52.5181 52.5V14L38.5181 0H14.0181Z" fill="#E2E5E7"/>
<path d="M42.0181 14H52.5181L38.5181 0V10.5C38.5181 12.425 40.0931 14 42.0181 14Z" fill="#B0B7BD"/>
<path d="M52.5181 24.5L42.0181 14H52.5181V24.5Z" fill="#CAD1D8"/>
<path d="M45.5181 45.5C45.5181 46.4625 44.7306 47.25 43.7681 47.25H5.26807C4.30557 47.25 3.51807 46.4625 3.51807 45.5V28C3.51807 27.0375 4.30557 26.25 5.26807 26.25H43.7681C44.7306 26.25 45.5181 27.0375 45.5181 28V45.5Z" fill="#A066AA"/>
<path d="M10.1697 33.1573C10.1697 32.6953 10.5319 32.1896 11.1199 32.1896H14.3539C16.1722 32.1896 17.8102 33.4076 17.8102 35.7438C17.8102 37.9558 16.1722 39.1861 14.3539 39.1861H12.0142V41.0341C12.0142 41.6518 11.6257 42.0001 11.1199 42.0001C10.6579 42.0001 10.1697 41.6518 10.1697 41.0341V33.1573ZM12.0142 33.9536V37.4378H14.3522C15.2884 37.4378 16.0304 36.6118 16.0304 35.7438C16.0304 34.7638 15.2884 33.9536 14.3522 33.9536H12.0142Z" fill="white"/>
<path d="M19.5933 33.2973C19.5933 32.7916 19.7053 32.3033 20.4333 32.3033C20.9356 32.3033 21.0493 32.4293 21.4256 32.7916L26.0561 38.5858V33.1573C26.0561 32.6953 26.4603 32.1896 26.9381 32.1896C27.4421 32.1896 27.9303 32.6953 27.9303 33.1573V41.0341C27.9303 41.6518 27.5523 41.8863 27.1883 42.0001C26.7001 42.0001 26.4603 41.8881 26.0561 41.5118L21.4256 35.6336V41.0358C21.4256 41.6536 21.0476 42.0018 20.5436 42.0018C20.0396 42.0018 19.5916 41.6536 19.5916 41.0358V33.2973H19.5933Z" fill="white"/>
<path d="M38.4567 40.9238C37.4627 41.748 36.2447 42.0998 35.0145 42.0998C32.0745 42.0998 29.9902 40.4198 29.9902 37.0895C29.9902 34.2633 32.1882 32.067 35.1387 32.067C36.2447 32.067 37.461 32.445 38.329 33.299C39.183 34.1373 37.951 35.3833 37.1127 34.643C36.5947 34.1373 35.8667 33.761 35.1387 33.761C33.4465 33.761 31.8102 35.1173 31.8102 37.0895C31.8102 39.1615 33.1805 40.4198 35.0145 40.4198C35.8667 40.4198 36.5947 40.1678 37.1127 39.7898V38.0713H35.0145C33.7685 38.0713 33.8945 36.3615 35.0145 36.3615H37.8127C38.3307 36.3615 38.805 36.7553 38.805 37.1893V40.1695C38.805 40.4198 38.6947 40.656 38.4567 40.9238Z" fill="white"/>
<path d="M43.7681 47.25H10.5181V49H43.7681C44.7306 49 45.5181 48.2125 45.5181 47.25V45.5C45.5181 46.4625 44.7306 47.25 43.7681 47.25Z" fill="#CAD1D8"/>
</svg>
