<svg width="57" height="56" viewBox="0 0 57 56" fill="none" xmlns="http://www.w3.org/2000/svg">
<path d="M14.0181 0C12.0931 0 10.5181 1.575 10.5181 3.5V52.5C10.5181 54.425 12.0931 56 14.0181 56H49.0181C50.9431 56 52.5181 54.425 52.5181 52.5V14L38.5181 0H14.0181Z" fill="#E2E5E7"/>
<path d="M42.0181 14H52.5181L38.5181 0V10.5C38.5181 12.425 40.0931 14 42.0181 14Z" fill="#B0B7BD"/>
<path d="M52.5181 24.5L42.0181 14H52.5181V24.5Z" fill="#CAD1D8"/>
<path d="M45.5181 45.5C45.5181 46.4625 44.7306 47.25 43.7681 47.25H5.26807C4.30557 47.25 3.51807 46.4625 3.51807 45.5V28C3.51807 27.0375 4.30557 26.25 5.26807 26.25H43.7681C44.7306 26.25 45.5181 27.0375 45.5181 28V45.5Z" fill="#F15642"/>
<path d="M11.5522 33.1573C11.5522 32.6953 11.9162 32.1913 12.5025 32.1913H15.7347C17.5548 32.1913 19.1928 33.4093 19.1928 35.7438C19.1928 37.9558 17.5548 39.1878 15.7347 39.1878H13.3985V41.0358C13.3985 41.6518 13.0082 42 12.5042 42C12.0422 42 11.554 41.6518 11.554 41.0358V33.1573H11.5522ZM13.3985 33.9535V37.4395H15.7347C16.6727 37.4395 17.4148 36.6118 17.4148 35.7438C17.4148 34.7655 16.6727 33.9535 15.7347 33.9535H13.3985Z" fill="white"/>
<path d="M20.9761 33.1573C20.9761 32.6953 21.3401 32.1913 21.9281 32.1913H25.1603C26.9803 32.1913 28.6183 33.4093 28.6183 35.7438C28.6183 37.9558 26.9803 39.1878 25.1603 39.1878H22.8241V41.0358C22.8241 41.6518 22.4321 42 21.9281 42C21.4661 42 20.9761 41.6518 20.9761 41.0358V33.1573ZM22.8223 33.9535V37.4395H25.1586C26.0966 37.4395 26.8386 36.6118 26.8386 35.7438C26.8386 34.7655 26.0966 33.9535 25.1586 33.9535H22.8223Z" fill="white"/>
<path d="M33.0143 34.0672H30.5678C29.3498 34.0672 29.3498 32.277 30.5678 32.277H37.1845C38.4305 32.277 38.4305 34.0672 37.1845 34.0672H34.8623V41.1337C34.8623 42.35 33.0143 42.3797 33.0143 41.1337V34.0672Z" fill="white"/>
<path d="M43.7681 47.25H10.5181V49H43.7681C44.7306 49 45.5181 48.2125 45.5181 47.25V45.5C45.5181 46.4625 44.7306 47.25 43.7681 47.25Z" fill="#CAD1D8"/>
</svg>
