<svg width="57" height="56" viewBox="0 0 57 56" fill="none" xmlns="http://www.w3.org/2000/svg">
<path d="M14.0181 0C12.0931 0 10.5181 1.575 10.5181 3.5V52.5C10.5181 54.425 12.0931 56 14.0181 56H49.0181C50.9431 56 52.5181 54.425 52.5181 52.5V14L38.5181 0H14.0181Z" fill="#E2E5E7"/>
<path d="M42.0181 14H52.5181L38.5181 0V10.5C38.5181 12.425 40.0931 14 42.0181 14Z" fill="#B0B7BD"/>
<path d="M52.5181 24.5L42.0181 14H52.5181V24.5Z" fill="#CAD1D8"/>
<path d="M45.5181 45.5C45.5181 46.4625 44.7306 47.25 43.7681 47.25H5.26807C4.30557 47.25 3.51807 46.4625 3.51807 45.5V28C3.51807 27.0375 4.30557 26.25 5.26807 26.25H43.7681C44.7306 26.25 45.5181 27.0375 45.5181 28V45.5Z" fill="#F7B84E"/>
<path d="M10.6072 34.4155C10.9292 31.7012 15.0277 31.213 16.9597 32.697C17.9117 33.4652 16.9037 34.6832 16.0637 34.0672C15.0277 33.4092 12.6775 33.1012 12.3835 34.5555C12.0055 36.8515 18.092 35.5372 17.9957 39.2577C17.8977 42.812 12.7475 42.896 10.8155 41.3C10.3535 40.9237 10.3675 40.3095 10.6195 39.9297C10.9835 39.5675 11.3895 39.4415 11.8655 39.8317C13.0117 40.6157 15.9657 41.2037 16.174 39.214C15.9937 37.1455 10.1732 38.3915 10.6072 34.4155Z" fill="white"/>
<path d="M22.8904 41.3717L19.1961 33.6332C18.6501 32.5272 20.3021 31.619 20.9164 32.7792L22.1624 35.5915L23.7706 39.2857L25.3509 35.5915L26.5969 32.7792C27.1569 31.717 28.7791 32.3872 28.3049 33.5492L24.7366 41.3717C24.4146 42.2537 23.4224 42.462 22.8904 41.3717Z" fill="white"/>
<path d="M37.8354 40.9236C36.8414 41.7479 35.6234 42.0996 34.3931 42.0996C31.4531 42.0996 29.3689 40.4196 29.3689 37.0894C29.3689 34.2631 31.5669 32.0669 34.5174 32.0669C35.6234 32.0669 36.8397 32.4449 37.7077 33.2989C38.5599 34.1371 37.3296 35.3831 36.4914 34.6429C35.9734 34.1371 35.2454 33.7609 34.5174 33.7609C32.8251 33.7609 31.1889 35.1171 31.1889 37.0894C31.1889 39.1614 32.5591 40.4196 34.3931 40.4196C35.2454 40.4196 35.9734 40.1676 36.4914 39.7896V38.0711H34.3931C33.1471 38.0711 33.2731 36.3614 34.3931 36.3614H37.1914C37.7094 36.3614 38.1837 36.7551 38.1837 37.1891V40.1694C38.1854 40.4196 38.0734 40.6559 37.8354 40.9236Z" fill="white"/>
<path d="M43.7681 47.25H10.5181V49H43.7681C44.7306 49 45.5181 48.2125 45.5181 47.25V45.5C45.5181 46.4625 44.7306 47.25 43.7681 47.25Z" fill="#CAD1D8"/>
</svg>
