<svg width="57" height="56" viewBox="0 0 57 56" fill="none" xmlns="http://www.w3.org/2000/svg">
<path d="M14.0181 0C12.0931 0 10.5181 1.575 10.5181 3.5V52.5C10.5181 54.425 12.0931 56 14.0181 56H49.0181C50.9431 56 52.5181 54.425 52.5181 52.5V14L38.5181 0H14.0181Z" fill="#E2E5E7"/>
<path d="M42.0181 14H52.5181L38.5181 0V10.5C38.5181 12.425 40.0931 14 42.0181 14Z" fill="#B0B7BD"/>
<path d="M52.5181 24.5L42.0181 14H52.5181V24.5Z" fill="#CAD1D8"/>
<path d="M45.5181 45.5C45.5181 46.4625 44.7306 47.25 43.7681 47.25H5.26807C4.30557 47.25 3.51807 46.4625 3.51807 45.5V28C3.51807 27.0375 4.30557 26.25 5.26807 26.25H43.7681C44.7306 26.25 45.5181 27.0375 45.5181 28V45.5Z" fill="#A066AA"/>
<path d="M17.0614 34.0672H14.6131C13.3969 34.0672 13.3969 32.277 14.6131 32.277H21.2316C22.4759 32.277 22.4759 34.0672 21.2316 34.0672H18.9094V41.132C18.9094 42.3482 17.0614 42.378 17.0614 41.132V34.0672Z" fill="white"/>
<path d="M23.811 33.1573C23.811 32.0093 25.659 31.9673 25.659 33.1573V41.1443C25.659 42.3063 23.811 42.3343 23.811 41.1443V33.1573Z" fill="white"/>
<path d="M29.9553 34.1354V36.3597H33.5218C34.0258 36.3597 34.5298 36.8637 34.5298 37.3537C34.5298 37.8157 34.0258 38.1919 33.5218 38.1919H29.9553V41.1302C29.9553 41.6202 29.6053 41.9982 29.1153 41.9982C28.4993 41.9982 28.123 41.6202 28.123 41.1302V33.1834C28.123 32.6794 28.501 32.3154 29.1153 32.3154H34.0275C34.6435 32.3154 35.0075 32.6794 35.0075 33.1834C35.0075 33.6314 34.6435 34.1337 34.0275 34.1337H29.9553V34.1354Z" fill="white"/>
<path d="M43.7681 47.25H10.5181V49H43.7681C44.7306 49 45.5181 48.2125 45.5181 47.25V45.5C45.5181 46.4625 44.7306 47.25 43.7681 47.25Z" fill="#CAD1D8"/>
</svg>
