<svg width="57" height="56" viewBox="0 0 57 56" fill="none" xmlns="http://www.w3.org/2000/svg">
<path d="M14.0181 0C12.0931 0 10.5181 1.575 10.5181 3.5V52.5C10.5181 54.425 12.0931 56 14.0181 56H49.0181C50.9431 56 52.5181 54.425 52.5181 52.5V14L38.5181 0H14.0181Z" fill="#E2E5E7"/>
<path d="M42.0181 14H52.5181L38.5181 0V10.5C38.5181 12.425 40.0931 14 42.0181 14Z" fill="#B0B7BD"/>
<path d="M52.5181 24.5L42.0181 14H52.5181V24.5Z" fill="#CAD1D8"/>
<path d="M45.5181 45.5C45.5181 46.4625 44.7306 47.25 43.7681 47.25H5.26807C4.30557 47.25 3.51807 46.4625 3.51807 45.5V28C3.51807 27.0375 4.30557 26.25 5.26807 26.25H43.7681C44.7306 26.25 45.5181 27.0375 45.5181 28V45.5Z" fill="#576D7E"/>
<path d="M14.5414 34.0672H12.0932C10.8752 34.0672 10.8752 32.277 12.0932 32.277H18.7117C19.9577 32.277 19.9577 34.0672 18.7117 34.0672H16.3877V41.132C16.3877 42.3482 14.5397 42.378 14.5397 41.132V34.0672H14.5414Z" fill="white"/>
<path d="M24.5638 35.6755L26.9998 32.6252C27.7278 31.675 29.1401 32.8912 28.3438 33.8012C27.5038 34.7952 26.6236 35.8732 25.7818 36.9757L28.6378 40.53C29.4061 41.58 27.8678 42.588 27.1118 41.552L24.5376 38.2497L22.0053 41.622C21.2913 42.6422 19.7093 41.496 20.5091 40.544L23.3196 36.9757C22.4393 35.8715 21.5853 34.7952 20.7313 33.8012C19.8493 32.7512 21.4873 31.675 22.1296 32.655L24.5638 35.6755Z" fill="white"/>
<path d="M32.6434 34.0672H30.1969C28.9789 34.0672 28.9789 32.277 30.1969 32.277H36.8137C38.0597 32.277 38.0597 34.0672 36.8137 34.0672H34.4914V41.132C34.4914 42.3482 32.6434 42.378 32.6434 41.132V34.0672Z" fill="white"/>
<path d="M43.7681 47.25H10.5181V49H43.7681C44.7306 49 45.5181 48.2125 45.5181 47.25V45.5C45.5181 46.4625 44.7306 47.25 43.7681 47.25Z" fill="#CAD1D8"/>
</svg>
