<svg width="57" height="56" viewBox="0 0 57 56" fill="none" xmlns="http://www.w3.org/2000/svg">
<path d="M14.0181 0C12.0931 0 10.5181 1.575 10.5181 3.5V52.5C10.5181 54.425 12.0931 56 14.0181 56H49.0181C50.9431 56 52.5181 54.425 52.5181 52.5V14L38.5181 0H14.0181Z" fill="#E2E5E7"/>
<path d="M42.0181 14H52.5181L38.5181 0V10.5C38.5181 12.425 40.0931 14 42.0181 14Z" fill="#B0B7BD"/>
<path d="M52.5181 24.5L42.0181 14H52.5181V24.5Z" fill="#CAD1D8"/>
<path d="M45.5181 45.5C45.5181 46.4625 44.7306 47.25 43.7681 47.25H5.26807C4.30557 47.25 3.51807 46.4625 3.51807 45.5V28C3.51807 27.0375 4.30557 26.25 5.26807 26.25H43.7681C44.7306 26.25 45.5181 27.0375 45.5181 28V45.5Z" fill="#FFC328"/>
<path d="M43.7681 47.25H10.5181V49H43.7681C44.7306 49 45.5181 48.2125 45.5181 47.25V45.5C45.5181 46.4625 44.7306 47.25 43.7681 47.25Z" fill="#CAD1D8"/>
<path d="M15.7058 41.3334C15.7058 41.7015 15.3898 42 15 42C14.6102 42 14.2942 41.7015 14.2942 41.3334C14.2942 40.9652 14.6102 40.6667 15 40.6667C15.3898 40.6667 15.7058 40.9652 15.7058 41.3334Z" fill="white"/>
<path d="M15 39.1667C14.7078 39.1667 14.4706 38.9427 14.4706 38.6667V37.9934C14.4706 37.3588 14.897 36.79 15.5308 36.5787C16.3743 36.2981 16.9412 35.4493 16.9412 34.8334C16.9412 33.822 16.0708 33 15 33C13.9292 33 13.0588 33.822 13.0588 34.8334C13.0588 35.1094 12.8216 35.3334 12.5294 35.3334C12.2372 35.3334 12 35.1094 12 34.8334C12 33.2714 13.3455 32 15 32C16.6545 32 18 33.2714 18 34.8334C18 35.9454 17.0703 37.1261 15.883 37.5221C15.6713 37.592 15.5294 37.782 15.5294 37.994V38.6667C15.5294 38.9427 15.2922 39.1667 15 39.1667Z" fill="white"/>
<path d="M15.7058 41.3334C15.7058 41.7015 15.3898 42 15 42C14.6102 42 14.2942 41.7015 14.2942 41.3334C14.2942 40.9652 14.6102 40.6667 15 40.6667C15.3898 40.6667 15.7058 40.9652 15.7058 41.3334Z" stroke="white" stroke-width="0.8"/>
<path d="M15 39.1667C14.7078 39.1667 14.4706 38.9427 14.4706 38.6667V37.9934C14.4706 37.3588 14.897 36.79 15.5308 36.5787C16.3743 36.2981 16.9412 35.4493 16.9412 34.8334C16.9412 33.822 16.0708 33 15 33C13.9292 33 13.0588 33.822 13.0588 34.8334C13.0588 35.1094 12.8216 35.3334 12.5294 35.3334C12.2372 35.3334 12 35.1094 12 34.8334C12 33.2714 13.3455 32 15 32C16.6545 32 18 33.2714 18 34.8334C18 35.9454 17.0703 37.1261 15.883 37.5221C15.6713 37.592 15.5294 37.782 15.5294 37.994V38.6667C15.5294 38.9427 15.2922 39.1667 15 39.1667Z" stroke="white" stroke-width="0.8"/>
<path d="M25.7058 41.3334C25.7058 41.7015 25.3898 42 25 42C24.6102 42 24.2942 41.7015 24.2942 41.3334C24.2942 40.9652 24.6102 40.6667 25 40.6667C25.3898 40.6667 25.7058 40.9652 25.7058 41.3334Z" fill="white"/>
<path d="M25 39.1667C24.7078 39.1667 24.4706 38.9427 24.4706 38.6667V37.9934C24.4706 37.3588 24.897 36.79 25.5308 36.5787C26.3743 36.2981 26.9412 35.4493 26.9412 34.8334C26.9412 33.822 26.0708 33 25 33C23.9292 33 23.0588 33.822 23.0588 34.8334C23.0588 35.1094 22.8216 35.3334 22.5294 35.3334C22.2372 35.3334 22 35.1094 22 34.8334C22 33.2714 23.3455 32 25 32C26.6545 32 28 33.2714 28 34.8334C28 35.9454 27.0703 37.1261 25.883 37.5221C25.6713 37.592 25.5294 37.782 25.5294 37.994V38.6667C25.5294 38.9427 25.2922 39.1667 25 39.1667Z" fill="white"/>
<path d="M25.7058 41.3334C25.7058 41.7015 25.3898 42 25 42C24.6102 42 24.2942 41.7015 24.2942 41.3334C24.2942 40.9652 24.6102 40.6667 25 40.6667C25.3898 40.6667 25.7058 40.9652 25.7058 41.3334Z" stroke="white" stroke-width="0.8"/>
<path d="M25 39.1667C24.7078 39.1667 24.4706 38.9427 24.4706 38.6667V37.9934C24.4706 37.3588 24.897 36.79 25.5308 36.5787C26.3743 36.2981 26.9412 35.4493 26.9412 34.8334C26.9412 33.822 26.0708 33 25 33C23.9292 33 23.0588 33.822 23.0588 34.8334C23.0588 35.1094 22.8216 35.3334 22.5294 35.3334C22.2372 35.3334 22 35.1094 22 34.8334C22 33.2714 23.3455 32 25 32C26.6545 32 28 33.2714 28 34.8334C28 35.9454 27.0703 37.1261 25.883 37.5221C25.6713 37.592 25.5294 37.782 25.5294 37.994V38.6667C25.5294 38.9427 25.2922 39.1667 25 39.1667Z" stroke="white" stroke-width="0.8"/>
<path d="M35.7058 41.3334C35.7058 41.7015 35.3898 42 35 42C34.6102 42 34.2942 41.7015 34.2942 41.3334C34.2942 40.9652 34.6102 40.6667 35 40.6667C35.3898 40.6667 35.7058 40.9652 35.7058 41.3334Z" fill="white"/>
<path d="M35 39.1667C34.7078 39.1667 34.4706 38.9427 34.4706 38.6667V37.9934C34.4706 37.3588 34.897 36.79 35.5308 36.5787C36.3743 36.2981 36.9412 35.4493 36.9412 34.8334C36.9412 33.822 36.0708 33 35 33C33.9292 33 33.0588 33.822 33.0588 34.8334C33.0588 35.1094 32.8216 35.3334 32.5294 35.3334C32.2372 35.3334 32 35.1094 32 34.8334C32 33.2714 33.3455 32 35 32C36.6545 32 38 33.2714 38 34.8334C38 35.9454 37.0703 37.1261 35.883 37.5221C35.6713 37.592 35.5294 37.782 35.5294 37.994V38.6667C35.5294 38.9427 35.2922 39.1667 35 39.1667Z" fill="white"/>
<path d="M35.7058 41.3334C35.7058 41.7015 35.3898 42 35 42C34.6102 42 34.2942 41.7015 34.2942 41.3334C34.2942 40.9652 34.6102 40.6667 35 40.6667C35.3898 40.6667 35.7058 40.9652 35.7058 41.3334Z" stroke="white" stroke-width="0.8"/>
<path d="M35 39.1667C34.7078 39.1667 34.4706 38.9427 34.4706 38.6667V37.9934C34.4706 37.3588 34.897 36.79 35.5308 36.5787C36.3743 36.2981 36.9412 35.4493 36.9412 34.8334C36.9412 33.822 36.0708 33 35 33C33.9292 33 33.0588 33.822 33.0588 34.8334C33.0588 35.1094 32.8216 35.3334 32.5294 35.3334C32.2372 35.3334 32 35.1094 32 34.8334C32 33.2714 33.3455 32 35 32C36.6545 32 38 33.2714 38 34.8334C38 35.9454 37.0703 37.1261 35.883 37.5221C35.6713 37.592 35.5294 37.782 35.5294 37.994V38.6667C35.5294 38.9427 35.2922 39.1667 35 39.1667Z" stroke="white" stroke-width="0.8"/>
</svg>
