<svg width="57" height="56" viewBox="0 0 57 56" fill="none" xmlns="http://www.w3.org/2000/svg">
<path d="M14.0181 0C12.0931 0 10.5181 1.575 10.5181 3.5V52.5C10.5181 54.425 12.0931 56 14.0181 56H49.0181C50.9431 56 52.5181 54.425 52.5181 52.5V14L38.5181 0H14.0181Z" fill="#E2E5E7"/>
<path d="M42.0181 14H52.5181L38.5181 0V10.5C38.5181 12.425 40.0931 14 42.0181 14Z" fill="#B0B7BD"/>
<path d="M52.5181 24.5L42.0181 14H52.5181V24.5Z" fill="#CAD1D8"/>
<path d="M45.5181 45.5C45.5181 46.4625 44.7306 47.25 43.7681 47.25H5.26807C4.30557 47.25 3.51807 46.4625 3.51807 45.5V28C3.51807 27.0375 4.30557 26.25 5.26807 26.25H43.7681C44.7306 26.25 45.5181 27.0375 45.5181 28V45.5Z" fill="#84BD5A"/>
<path d="M14.5256 42.0001C13.6436 42.0001 13.2936 41.1479 13.7976 40.5459L18.7798 33.9274H14.6498C13.4336 33.9274 13.5316 32.2089 14.6498 32.2089H20.2901C21.3523 32.2089 21.6603 33.2134 20.9061 34.0271L16.1338 40.2239H20.6821C21.8021 40.2239 21.9421 42.0019 20.5718 42.0019H14.5256V42.0001Z" fill="white"/>
<path d="M23.2107 33.1573C23.2107 32.0093 25.0587 31.9673 25.0587 33.1573V41.1461C25.0587 42.3063 23.2107 42.3361 23.2107 41.1461V33.1573Z" fill="white"/>
<path d="M27.5386 33.1573C27.5386 32.6953 27.9026 32.1913 28.4906 32.1913H31.7228C33.5428 32.1913 35.1808 33.4093 35.1808 35.7438C35.1808 37.9558 33.5428 39.1878 31.7228 39.1878H29.3866V41.0358C29.3866 41.6518 28.9946 42 28.4906 42C28.0286 42 27.5386 41.6518 27.5386 41.0358V33.1573ZM29.3848 33.9535V37.4395H31.7211C32.6591 37.4395 33.4011 36.6118 33.4011 35.7438C33.4011 34.7655 32.6591 33.9535 31.7211 33.9535H29.3848Z" fill="white"/>
<path d="M43.7681 47.25H10.5181V49H43.7681C44.7306 49 45.5181 48.2125 45.5181 47.25V45.5C45.5181 46.4625 44.7306 47.25 43.7681 47.25Z" fill="#CAD1D8"/>
</svg>
