<svg width="205" height="252" viewBox="0 0 205 252" fill="none" xmlns="http://www.w3.org/2000/svg">
<path d="M59.7719 68.6205C59.6815 68.6205 59.5882 68.6033 59.4992 68.5659C59.1332 68.4152 58.9581 67.9961 59.1088 67.6286C59.2968 67.1722 59.4935 66.7229 59.6958 66.2837C59.8624 65.9234 60.2887 65.7655 60.649 65.9334C61.0092 66.0999 61.1657 66.5262 60.9992 66.8865C60.804 67.3071 60.6174 67.7363 60.4365 68.1755C60.3217 68.454 60.0533 68.6205 59.7719 68.6205Z" fill="#2E2E2E"/>
<path d="M61.967 64.2627C61.8392 64.2627 61.71 64.2282 61.5938 64.1579C61.255 63.9498 61.1488 63.5091 61.3555 63.1704C61.7703 62.4928 62.211 61.834 62.6675 61.2139C62.9014 60.8952 63.3521 60.8263 63.6708 61.0603C63.9909 61.2957 64.0598 61.745 63.8244 62.0636C63.3923 62.6522 62.9746 63.2766 62.5813 63.9182C62.4435 64.1407 62.2081 64.2627 61.967 64.2627ZM65.4636 59.7283C65.2828 59.7283 65.1033 59.6608 64.9641 59.5259C64.6799 59.2503 64.6727 58.7953 64.9483 58.511C65.4995 57.9441 66.0808 57.4015 66.6765 56.8962C66.9794 56.6393 67.433 56.6795 67.6885 56.9809C67.944 57.2838 67.9067 57.7359 67.6038 57.9929C67.044 58.4665 66.4971 58.9776 65.9789 59.5101C65.8382 59.6551 65.6502 59.7283 65.4636 59.7283Z" fill="#2E2E2E"/>
<ellipse cx="111.5" cy="156.604" rx="81.5" ry="82" fill="#F7F7F7"/>
<path d="M184.266 187.894C187.625 189.126 188.314 192.038 188.314 192.038L190.35 182.453L185.165 182.33L184.266 187.894Z" fill="#97C5EF"/>
<path d="M44.8032 187.606C41.444 188.837 40.7543 191.75 40.7543 191.75L38.7188 182.165L43.9034 182.042L44.8032 187.606Z" fill="#97C5EF"/>
<path d="M125.024 99.8672L112.915 108.222L109.121 99.5565C109.121 99.5565 110.363 96.2199 110.436 91.0133C110.465 88.8241 110.29 86.3038 109.724 83.5615L121.022 87.5802C121.022 87.5802 120.899 88.5918 120.921 90.0582C120.947 91.6423 121.145 93.7564 121.852 95.696C122.462 97.3608 123.446 98.8971 125.024 99.8672Z" fill="#FFB27D"/>
<path d="M134.453 241.286C134.453 241.286 135.819 243.951 138.845 244.61C140.751 245.025 142.383 246.017 143.398 247.408C144.257 248.584 143.426 250.237 141.971 250.237H126.612C125.304 250.237 124.283 249.109 124.414 247.807C124.528 246.669 124.648 245.344 124.7 244.328C124.813 242.11 127.035 240.324 127.035 240.324L134.453 241.286Z" fill="#27C60D"/>
<path d="M134.823 241.79C134.823 241.79 131.138 243.967 124.903 242.653C124.903 242.653 114.303 215.547 113.676 202.792C113.647 202.28 113.639 201.792 113.647 201.328C113.861 189.331 102.784 158.092 105.772 151.691C108.759 145.289 132.901 154.568 132.901 154.568L133.38 176.336L134.823 241.79Z" fill="#0B163F"/>
<path d="M133.38 176.336L113.676 202.792C113.647 202.28 113.639 201.792 113.647 201.328C113.861 189.331 102.784 158.092 105.772 151.691C108.759 145.289 132.901 154.568 132.901 154.568L133.38 176.336Z" fill="#1B295B"/>
<path d="M94.902 241.272C94.902 241.272 96.2678 243.937 99.2939 244.597C101.2 245.012 102.832 246.004 103.848 247.395C104.706 248.57 103.876 250.224 102.42 250.224H87.0606C85.7526 250.224 84.732 249.095 84.8629 247.794C84.9773 246.656 85.0968 245.331 85.1488 244.315C85.2624 242.096 87.4841 240.311 87.4841 240.311L94.902 241.272Z" fill="#27C60D"/>
<path d="M118.779 155.084C118.779 155.084 97.4434 234.705 96.7898 242.497C96.7898 242.497 92.6281 244.631 85.8725 240.86C85.8725 240.86 84.1906 205.798 85.8725 195.422C88.6048 178.565 89.021 154.745 98.9989 148.096C108.977 141.447 118.779 155.084 118.779 155.084Z" fill="#0B163F"/>
<path d="M121.85 95.6953C115.812 96.3302 110.434 91.0128 110.434 91.0128L120.918 90.0576C120.945 91.6416 121.142 93.7557 121.85 95.6953Z" fill="#EA9C68"/>
<path d="M123.405 94.2022C123.405 94.2022 111.076 96.3888 107.708 86.4499C104.074 75.7239 109.626 68.5883 113.765 68.4186C122.02 68.0805 126.507 71.5887 127.67 75.0007C128.834 78.4127 130.202 93.0552 123.405 94.2022Z" fill="#FFB27D"/>
<path d="M109.374 89.6739C109.374 89.6739 108.51 85.7155 108.863 83.5128C108.863 83.5128 106.047 79.2373 107.964 78.3957C109.88 77.554 110.674 80.0113 111.133 79.5798C111.592 79.1485 112.901 71.3138 115.108 71.7476C117.316 72.1813 122.629 75.3168 126.5 72.5C130.372 69.6832 125.331 56.8837 110.086 60.3564C94.8405 63.8289 96.2989 80.2863 109.374 89.6739Z" fill="#2F2F2F"/>
<path d="M115.378 87.9072C115.378 87.9072 116.136 90.1715 119.824 90.3625C119.824 90.3625 122.55 89.9681 122.572 87.6354C122.573 87.6353 119.404 86.0628 115.378 87.9072Z" fill="white"/>
<path d="M131.407 92.1882C131.407 92.1882 133.67 75.9405 135.785 70.2091C135.785 70.2091 133.83 51.9645 133.783 50.7224C133.736 49.4804 137.386 50.0198 137.386 50.0198C137.386 50.0198 142.512 66.1821 142.546 71.6975C142.58 77.2129 143.222 95.466 138.962 98.2325C134.702 100.999 131.407 92.1882 131.407 92.1882Z" fill="#FFB27D"/>
<path d="M98.0113 98.9651C98.0113 98.9651 94.645 82.2156 92.2186 76.2235C92.2186 76.2235 94.0408 57.6715 94.0702 56.4033C94.0997 55.1352 90.0993 55.4676 90.0993 55.4676C90.0993 55.4676 84.7554 71.6981 84.8164 77.3399C84.8771 82.9817 86.6795 98.861 91.4099 101.948C96.1403 105.036 98.0113 98.9651 98.0113 98.9651Z" fill="#FFB27D"/>
<path d="M129.755 164.043C126.312 164.954 122.651 165.471 119.033 165.716L119.031 165.716C119.029 165.718 119.026 165.717 119.02 165.718C108.277 166.453 97.9149 164.839 94.7661 164.283C94.1361 164.171 93.7965 164.103 93.7965 164.103C92.3206 163.679 91.3706 162.215 91.4433 160.616C91.4514 160.409 91.481 160.2 91.5233 159.992C91.5233 159.992 94.0136 141.363 94.5311 137.127C95.3606 130.334 91.5233 119 91.5233 119C91.5233 119 91.5233 112.999 91.0003 108.499C90.4087 103.408 89.8789 98.9921 87.0004 95.9993C84.421 93.3172 97.0003 90.9991 97.0003 90.9991C97.0003 90.9991 100.5 95.9996 102.5 95.9996C106 95.9996 109.999 95.9996 109.999 95.9996C111.751 98.0806 113.903 100.972 117.999 100.5C121.079 100.142 122.968 99.3808 122.999 97.4991C128.385 98.2023 125.905 97.8901 131.499 92.4995C134.909 95.6619 140.703 90.2491 141.501 94C143.064 95.1572 134.866 103.5 133.335 117.885C133.335 117.885 133.544 117.5 132.999 120C130.428 126.176 134.866 156.771 134.866 156.771C134.968 160.157 132.828 163.228 129.755 164.043Z" fill="#27C60D"/>
<path d="M167.338 251.603H55.5787C55.5032 251.603 55.4414 251.365 55.4414 251.075V250.794C55.4414 250.503 55.5032 250.266 55.5787 250.266H167.338C167.414 250.266 167.475 250.503 167.475 250.794V251.075C167.475 251.365 167.414 251.603 167.338 251.603Z" fill="#2E3552"/>
<path d="M51.8063 74.2081C51.8063 74.2081 53.441 76.4475 53.2657 79.0017C53.1356 80.8975 51.4456 82.8157 51.332 82.8914L53.9993 84.3139C53.9993 84.3139 55.9774 80.8021 55.3106 77.8681C55.1062 76.9692 54.1606 75.5306 53.4659 74.8898C52.7004 74.1835 51.8063 74.2081 51.8063 74.2081Z" fill="#6BB7BF"/>
<path d="M46.3533 74.445L44.6641 70.7109C44.6641 70.7109 52.5472 70.9776 55.1591 77.4007C55.1591 77.4007 49.6429 73.467 46.3533 74.445Z" fill="#86D1CD"/>
<path d="M8.73691 115.647C8.73691 115.647 5.75464 114.023 4.61189 111.103C3.76378 108.935 4.6318 105.926 4.71791 105.783L1.01979 105.604C1.01979 105.604 0.666978 110.528 2.9406 113.428C3.63738 114.317 5.43759 115.415 6.54221 115.761C7.7597 116.143 8.73691 115.647 8.73691 115.647Z" fill="#6BB7BF"/>
<path d="M14.6522 112.531L18.477 115.783C18.477 115.783 9.60735 119.612 3.35352 113.866C3.35352 113.866 11.5211 115.336 14.6522 112.531Z" fill="#86D1CD"/>
<path d="M5.49186 166.992C5.49186 166.992 3.19031 165.254 2.59636 162.657C2.15558 160.73 3.26154 158.312 3.35184 158.202L0.267892 157.588C0.267892 157.588 -0.645605 161.68 0.901133 164.401C1.37519 165.235 2.74953 166.383 3.63427 166.812C4.60879 167.285 5.49186 166.992 5.49186 166.992Z" fill="#6BB7BF"/>
<path d="M10.8496 165.115L13.6549 168.325C13.6549 168.325 5.72477 170.431 1.19141 164.82C1.19157 164.82 7.86797 167.078 10.8496 165.115Z" fill="#86D1CD"/>
<path d="M166.001 151.243C166.001 151.243 165.799 148.227 171.461 146.767C173.998 146.113 179.648 147.276 176.067 152.835C172.341 158.617 169.019 156.53 169.019 156.53C169.019 156.53 176.79 150.448 173.68 147.666C170.249 144.597 168.93 150.679 168.93 150.679C168.93 150.679 167.548 150.606 166.001 151.243Z" fill="#F1A34F"/>
<path d="M168.01 156.879C168.01 156.879 165.893 155.732 166.732 153.188L169.775 153.715C169.775 153.715 168.605 156.47 171.468 156.804C171.467 156.803 168.713 157.457 168.01 156.879Z" fill="#DB7714"/>
<path d="M113.455 36.343C113.455 36.343 117.954 29.8622 124.856 34.4516L129.059 30.4322C129.059 30.4322 125.132 27.451 116.075 32.7975C110.149 36.2956 113.455 36.343 113.455 36.343Z" fill="#5685D8"/>
<path d="M109.014 42.6968C109.014 42.6968 108.124 35.2574 120.576 30.6162C120.576 30.6162 116.075 32.7977 114.687 40.213L109.014 42.6968Z" fill="#739AF0"/>
<path d="M31.6559 45.9434C31.6559 45.9434 26.1165 45.6628 26.2945 39.8393L22.3346 38.8223C22.3346 38.8223 22.0124 42.2731 28.5666 45.6955C32.8546 47.9348 31.6559 45.9434 31.6559 45.9434Z" fill="#5685D8"/>
<path d="M37.0977 46.2359C37.0977 46.2359 32.9868 49.5287 25.5938 43.8176C25.5938 43.8176 28.5669 45.695 33.5092 43.7715L37.0977 46.2359Z" fill="#739AF0"/>
<path d="M199.324 87.7249C199.324 87.7249 193.784 87.4443 193.962 81.6207L190.003 80.6035C190.003 80.6035 189.68 84.0543 196.235 87.4767C200.523 89.7161 199.324 87.7249 199.324 87.7249Z" fill="#5685D8"/>
<path d="M204.766 88.0171C204.766 88.0171 200.655 91.3099 193.262 85.5989C193.262 85.5989 196.235 87.476 201.177 85.5527L204.766 88.0171Z" fill="#739AF0"/>
<path d="M190.051 24.6835C190.051 24.6835 193.409 22.5627 193.762 20C193.762 20 197.032 20.1767 197.739 21.2371C197.739 21.2371 196.237 25.4788 194.469 26.2741C194.469 26.2741 190.493 26.5393 190.051 24.6835Z" fill="#F99746"/>
<path d="M158.164 127.138C158.164 127.138 162.235 124.567 162.664 121.46C162.664 121.46 166.628 121.674 167.485 122.96C167.485 122.96 165.663 128.102 163.521 129.067C163.521 129.067 158.7 129.388 158.164 127.138Z" fill="#97BDFF"/>
<path d="M46.7598 222.035C46.7598 222.035 43.9999 220.292 43.7095 218.186C43.7095 218.186 41.0225 218.331 40.4414 219.202C40.4414 219.202 41.6761 222.688 43.1284 223.342C43.1284 223.342 46.3966 223.56 46.7598 222.035Z" fill="#F99746"/>
<path d="M160.976 44.4346C160.976 44.4346 163.398 46.6438 165.515 46.3649C165.515 46.3649 166.09 49.0062 165.4 49.8008C165.4 49.8008 161.695 49.5323 160.676 48.2994C160.676 48.2994 159.595 45.1919 160.976 44.4346Z" fill="#86D1CD"/>
<path d="M147.326 48.1055C147.326 48.1055 147.211 49.2949 148.225 50.5301C149.238 51.7655 150.538 52.4131 150.712 51.6618C150.885 50.9104 150.134 45.9024 147.326 48.1055Z" fill="#FFB27D"/>
<path d="M112.5 0C94.5788 0 80 14.5788 80 32.5C80 50.4212 94.5788 65 112.5 65C130.421 65 145 50.4212 145 32.5C145 14.5788 130.421 0 112.5 0Z" fill="#2196F3"/>
<path d="M130.202 25.6195L112.5 43.2068C111.969 43.7344 111.272 44 110.575 44C109.878 44 109.18 43.7344 108.649 43.2068L99.7988 34.4132C98.7337 33.3554 98.7337 31.6451 99.7988 30.5873C100.863 29.5291 102.584 29.5291 103.649 30.5873L110.575 37.4681L126.351 21.7937C127.416 20.7354 129.136 20.7354 130.202 21.7937C131.266 22.8515 131.266 24.5613 130.202 25.6195Z" fill="#FAFAFA"/>
<rect x="133.701" y="47" width="10" height="6" rx="3" transform="rotate(51.5888 133.701 47)" fill="#FFB27D"/>
<rect x="133.701" y="47" width="10" height="6" rx="3" transform="rotate(51.5888 133.701 47)" fill="#FFB27D"/>
<rect x="91.1699" y="61.3867" width="10" height="6" rx="3" transform="rotate(-108.485 91.1699 61.3867)" fill="#FFB27D"/>
<rect x="91.1699" y="61.3867" width="10" height="6" rx="3" transform="rotate(-108.485 91.1699 61.3867)" fill="#FFB27D"/>
</svg>
