<svg width="137" height="291" viewBox="0 0 137 291" fill="none" xmlns="http://www.w3.org/2000/svg">
<path opacity="0.81" d="M319.004 319.004C377.547 260.461 377.547 165.544 319.004 107.002C260.461 48.4586 165.544 48.4586 107.001 107.002C48.4584 165.544 48.4584 260.461 107.001 319.004C165.544 377.547 260.461 377.547 319.004 319.004Z" stroke="#D7F0FB" stroke-width="1.0531" stroke-linecap="round" stroke-linejoin="round"/>
<path opacity="0.81" d="M213.01 357.181C292.641 357.181 357.194 292.628 357.194 212.997C357.194 133.367 292.641 68.8135 213.01 68.8135C133.38 68.8135 68.8262 133.367 68.8262 212.997C68.8262 292.628 133.38 357.181 213.01 357.181Z" stroke="#D7F0FB" stroke-width="1.1458" stroke-linecap="round" stroke-linejoin="round"/>
<path opacity="0.81" d="M310.906 310.907C364.977 256.836 364.977 169.17 310.906 115.099C256.836 61.0286 169.17 61.0286 115.099 115.099C61.0283 169.17 61.0283 256.836 115.099 310.907C169.17 364.977 256.836 364.977 310.906 310.907Z" stroke="#D7F0FB" stroke-width="1.2385" stroke-linecap="round" stroke-linejoin="round"/>
<path opacity="0.81" d="M213.01 345.73C286.316 345.73 345.742 286.303 345.742 212.998C345.742 139.692 286.316 80.2656 213.01 80.2656C139.704 80.2656 80.2783 139.692 80.2783 212.998C80.2783 286.303 139.704 345.73 213.01 345.73Z" stroke="#D7F0FB" stroke-width="1.3312" stroke-linecap="round" stroke-linejoin="round"/>
<path opacity="0.81" d="M213.01 340.004C283.154 340.004 340.016 283.141 340.016 212.998C340.016 142.854 283.154 85.9917 213.01 85.9917C142.867 85.9917 86.0042 142.854 86.0042 212.998C86.0042 283.141 142.867 340.004 213.01 340.004Z" stroke="#D7F0FB" stroke-width="1.4239" stroke-linecap="round" stroke-linejoin="round"/>
<path opacity="0.81" d="M213.01 334.277C279.991 334.277 334.29 279.978 334.29 212.997C334.29 146.016 279.991 91.7173 213.01 91.7173C146.029 91.7173 91.7302 146.016 91.7302 212.997C91.7302 279.978 146.029 334.277 213.01 334.277Z" stroke="#D7F0FB" stroke-width="1.5166" stroke-linecap="round" stroke-linejoin="round"/>
<path opacity="0.81" d="M213.01 328.551C276.829 328.551 328.564 276.816 328.564 212.997C328.564 149.179 276.829 97.4434 213.01 97.4434C149.191 97.4434 97.4561 149.179 97.4561 212.997C97.4561 276.816 149.191 328.551 213.01 328.551Z" stroke="#D7F0FB" stroke-width="1.6093" stroke-linecap="round" stroke-linejoin="round"/>
<path opacity="0.81" d="M213.01 322.825C273.666 322.825 322.838 273.654 322.838 212.997C322.838 152.341 273.666 103.169 213.01 103.169C152.354 103.169 103.182 152.341 103.182 212.997C103.182 273.654 152.354 322.825 213.01 322.825Z" stroke="#D7F0FB" stroke-width="1.702" stroke-linecap="round" stroke-linejoin="round"/>
<path opacity="0.81" d="M213.01 317.1C270.504 317.1 317.112 270.491 317.112 212.998C317.112 155.504 270.504 108.896 213.01 108.896C155.516 108.896 108.908 155.504 108.908 212.998C108.908 270.491 155.516 317.1 213.01 317.1Z" stroke="#D7F0FB" stroke-width="1.7948" stroke-linecap="round" stroke-linejoin="round"/>
<path opacity="0.81" d="M213.01 311.374C267.342 311.374 311.386 267.329 311.386 212.998C311.386 158.666 267.342 114.622 213.01 114.622C158.679 114.622 114.634 158.666 114.634 212.998C114.634 267.329 158.679 311.374 213.01 311.374Z" stroke="#D7F0FB" stroke-width="1.8875" stroke-linecap="round" stroke-linejoin="round"/>
<path opacity="0.81" d="M213.01 305.648C264.179 305.648 305.66 264.167 305.66 212.998C305.66 161.828 264.179 120.348 213.01 120.348C161.841 120.348 120.36 161.828 120.36 212.998C120.36 264.167 161.841 305.648 213.01 305.648Z" stroke="#D7F0FB" stroke-width="1.9802" stroke-linecap="round" stroke-linejoin="round"/>
<path opacity="0.81" d="M213.01 299.921C261.017 299.921 299.934 261.004 299.934 212.997C299.934 164.99 261.017 126.073 213.01 126.073C165.003 126.073 126.086 164.99 126.086 212.997C126.086 261.004 165.003 299.921 213.01 299.921Z" stroke="#D7F0FB" stroke-width="2.0729" stroke-linecap="round" stroke-linejoin="round"/>
<path opacity="0.81" d="M215.927 294.197C260.745 292.601 295.782 254.975 294.186 210.157C292.59 165.34 254.964 130.302 210.146 131.898C165.329 133.495 130.291 171.121 131.887 215.938C133.484 260.756 171.11 295.793 215.927 294.197Z" stroke="#D7F0FB" stroke-width="2.1656" stroke-linecap="round" stroke-linejoin="round"/>
<path opacity="0.81" d="M213.01 288.469C254.692 288.469 288.482 254.679 288.482 212.997C288.482 171.315 254.692 137.525 213.01 137.525C171.328 137.525 137.538 171.315 137.538 212.997C137.538 254.679 171.328 288.469 213.01 288.469Z" stroke="#D7F0FB" stroke-width="2.2583" stroke-linecap="round" stroke-linejoin="round"/>
</svg>
