<svg width="67" height="150" viewBox="0 0 67 150" fill="none" xmlns="http://www.w3.org/2000/svg">
<path opacity="0.79" d="M28.6204 112.32C49.1665 91.7736 49.1665 58.4618 28.6204 37.9157C8.07429 17.3696 -25.2375 17.3696 -45.7836 37.9157C-66.3297 58.4618 -66.3297 91.7736 -45.7836 112.32C-25.2375 132.866 8.07428 132.866 28.6204 112.32Z" stroke="#FFD9D9" stroke-width="0.5" stroke-miterlimit="10"/>
<path opacity="0.79" d="M25.999 109.698C45.0974 90.5999 45.0974 59.6354 25.999 40.537C6.90065 21.4387 -24.0639 21.4387 -43.1623 40.537C-62.2606 59.6354 -62.2606 90.6 -43.1623 109.698C-24.0639 128.797 6.90064 128.797 25.999 109.698Z" stroke="#FFD9D9" stroke-width="0.7273" stroke-miterlimit="10"/>
<path opacity="0.79" d="M-8.57759 120.314C16.3844 120.314 36.6201 100.079 36.6201 75.1166C36.6201 50.1546 16.3844 29.9189 -8.57759 29.9189C-33.5396 29.9189 -53.7753 50.1546 -53.7753 75.1166C-53.7753 100.079 -33.5396 120.314 -8.57759 120.314Z" stroke="#FFD9D9" stroke-width="0.9545" stroke-miterlimit="10"/>
<path opacity="0.79" d="M-8.57753 116.607C14.337 116.607 32.913 98.0315 32.913 75.117C32.913 52.2024 14.337 33.6265 -8.57753 33.6265C-31.4921 33.6265 -50.068 52.2024 -50.068 75.117C-50.068 98.0315 -31.4921 116.607 -8.57753 116.607Z" stroke="#FFD9D9" stroke-width="1.1818" stroke-miterlimit="10"/>
<path opacity="0.79" d="M-8.57755 112.9C12.2896 112.9 29.2057 95.9839 29.2057 75.1168C29.2057 54.2497 12.2896 37.3335 -8.57755 37.3335C-29.4447 37.3335 -46.3608 54.2497 -46.3608 75.1168C-46.3608 95.9839 -29.4447 112.9 -8.57755 112.9Z" stroke="#FFD9D9" stroke-width="1.4091" stroke-miterlimit="10"/>
<path opacity="0.79" d="M-8.57761 109.193C10.2421 109.193 25.4985 93.9368 25.4985 75.1171C25.4985 56.2974 10.2421 41.041 -8.57761 41.041C-27.3973 41.041 -42.6537 56.2974 -42.6537 75.1171C-42.6537 93.9368 -27.3973 109.193 -8.57761 109.193Z" stroke="#FFD9D9" stroke-width="1.6364" stroke-miterlimit="10"/>
<path opacity="0.79" d="M-8.57763 105.485C8.19465 105.485 21.7913 91.8887 21.7913 75.1165C21.7913 58.3442 8.19465 44.7476 -8.57763 44.7476C-25.3499 44.7476 -38.9465 58.3442 -38.9465 75.1165C-38.9465 91.8887 -25.3499 105.485 -8.57763 105.485Z" stroke="#FFD9D9" stroke-width="1.8636" stroke-miterlimit="10"/>
<path opacity="0.79" d="M-8.57756 101.778C6.14729 101.778 18.0841 89.8416 18.0841 75.1168C18.0841 60.3919 6.14729 48.4551 -8.57756 48.4551C-23.3024 48.4551 -35.2393 60.3919 -35.2393 75.1168C-35.2393 89.8416 -23.3024 101.778 -8.57756 101.778Z" stroke="#FFD9D9" stroke-width="2.0909" stroke-miterlimit="10"/>
<path opacity="0.79" d="M-8.57762 98.0711C4.0998 98.0711 14.3769 87.794 14.3769 75.1166C14.3769 62.4392 4.0998 52.1621 -8.57762 52.1621C-21.255 52.1621 -31.5321 62.4392 -31.5321 75.1166C-31.5321 87.794 -21.255 98.0711 -8.57762 98.0711Z" stroke="#FFD9D9" stroke-width="2.3182" stroke-miterlimit="10"/>
<path opacity="0.79" d="M-8.57764 94.3638C2.05235 94.3638 10.6697 85.7464 10.6697 75.1164C10.6697 64.4865 2.05235 55.8691 -8.57764 55.8691C-19.2076 55.8691 -27.825 64.4865 -27.825 75.1164C-27.825 85.7464 -19.2076 94.3638 -8.57764 94.3638Z" stroke="#FFD9D9" stroke-width="2.5454" stroke-miterlimit="10"/>
<path opacity="0.79" d="M-8.57758 90.6569C0.00498772 90.6569 6.96252 83.6993 6.96252 75.1168C6.96252 66.5342 0.00498772 59.5767 -8.57758 59.5767C-17.1601 59.5767 -24.1177 66.5342 -24.1177 75.1168C-24.1177 83.6993 -17.1601 90.6569 -8.57758 90.6569Z" stroke="#FFD9D9" stroke-width="2.7727" stroke-miterlimit="10"/>
</svg>
