<svg width="127" height="230" viewBox="0 0 127 230" fill="none" xmlns="http://www.w3.org/2000/svg">
<path opacity="0.8" d="M69.6617 171.874C101.061 140.474 101.062 89.565 69.6617 58.1652C38.262 26.7654 -12.6471 26.7654 -44.0469 58.1652C-75.4467 89.565 -75.4467 140.474 -44.0469 171.874C-12.6472 203.274 38.2619 203.274 69.6617 171.874Z" stroke="#E1F1FF" stroke-width="0.5" stroke-miterlimit="10"/>
<path opacity="0.8" d="M66.7975 169.01C96.6154 139.192 96.6154 90.8473 66.7975 61.0294C36.9795 31.2114 -11.3649 31.2115 -41.1828 61.0294C-71.0008 90.8473 -71.0008 139.192 -41.1828 169.01C-11.3649 198.828 36.9795 198.828 66.7975 169.01Z" stroke="#E1F1FF" stroke-width="0.6563" stroke-miterlimit="10"/>
<path opacity="0.8" d="M12.81 187.322C52.7422 187.322 85.1137 154.95 85.1137 115.018C85.1137 75.0858 52.7422 42.7144 12.81 42.7144C-27.1223 42.7144 -59.4938 75.0858 -59.4938 115.018C-59.4938 154.95 -27.1223 187.322 12.81 187.322Z" stroke="#E1F1FF" stroke-width="0.8125" stroke-miterlimit="10"/>
<path opacity="0.8" d="M12.81 183.271C50.5052 183.271 81.0632 152.713 81.0632 115.018C81.0632 77.3229 50.5052 46.7649 12.81 46.7649C-24.8851 46.7649 -55.4431 77.3229 -55.4431 115.018C-55.4431 152.713 -24.8851 183.271 12.81 183.271Z" stroke="#E1F1FF" stroke-width="0.9688" stroke-miterlimit="10"/>
<path opacity="0.8" d="M58.205 160.417C83.2774 135.345 83.2774 94.6943 58.205 69.6219C33.1326 44.5495 -7.51787 44.5495 -32.5903 69.6219C-57.6627 94.6943 -57.6627 135.345 -32.5903 160.417C-7.51787 185.49 33.1326 185.49 58.205 160.417Z" stroke="#E1F1FF" stroke-width="1.125" stroke-miterlimit="10"/>
<path opacity="0.8" d="M55.3408 157.553C78.8314 134.062 78.8314 95.9766 55.3408 72.4861C31.8503 48.9955 -6.2355 48.9955 -29.7261 72.4861C-53.2167 95.9767 -53.2167 134.062 -29.7261 157.553C-6.2355 181.044 31.8503 181.044 55.3408 157.553Z" stroke="#E1F1FF" stroke-width="1.2813" stroke-miterlimit="10"/>
<path opacity="0.8" d="M52.4767 154.689C74.3854 132.78 74.3854 97.259 52.4767 75.3502C30.568 53.4415 -4.95311 53.4415 -26.8618 75.3503C-48.7706 97.259 -48.7706 132.78 -26.8619 154.689C-4.95312 176.598 30.568 176.598 52.4767 154.689Z" stroke="#E1F1FF" stroke-width="1.4375" stroke-miterlimit="10"/>
<path opacity="0.8" d="M49.6125 151.825C69.9394 131.498 69.9393 98.5413 49.6124 78.2144C29.2855 57.8875 -3.67085 57.8875 -23.9978 78.2144C-44.3247 98.5413 -44.3247 131.498 -23.9978 151.825C-3.67085 172.152 29.2856 172.152 49.6125 151.825Z" stroke="#E1F1FF" stroke-width="1.5938" stroke-miterlimit="10"/>
<path opacity="0.8" d="M60.2029 122.678C64.4259 96.5078 46.6342 71.8694 20.464 67.6464C-5.70611 63.4235 -30.3446 81.2152 -34.5675 107.385C-38.7905 133.555 -20.9988 158.194 5.17135 162.417C31.3415 166.64 55.9799 148.848 60.2029 122.678Z" stroke="#E1F1FF" stroke-width="1.75" stroke-miterlimit="10"/>
<path opacity="0.8" d="M12.81 158.967C37.0824 158.967 56.759 139.29 56.759 115.018C56.759 90.7457 37.0824 71.0691 12.81 71.0691C-11.4624 71.0691 -31.139 90.7457 -31.139 115.018C-31.139 139.29 -11.4624 158.967 12.81 158.967Z" stroke="#E1F1FF" stroke-width="1.9063" stroke-miterlimit="10"/>
<path opacity="0.8" d="M41.0196 143.232C56.6007 127.651 56.6007 102.389 41.0196 86.8074C25.4384 71.2262 0.176391 71.2262 -15.4048 86.8074C-30.9859 102.389 -30.9859 127.651 -15.4048 143.232C0.176383 158.813 25.4384 158.813 41.0196 143.232Z" stroke="#E1F1FF" stroke-width="2.0625" stroke-miterlimit="10"/>
<path opacity="0.8" d="M38.1555 140.368C52.1548 126.368 52.1548 103.671 38.1555 89.6715C24.1561 75.6722 1.45877 75.6722 -12.5405 89.6715C-26.5399 103.671 -26.5399 126.368 -12.5405 140.368C1.45877 154.367 24.1561 154.367 38.1555 140.368Z" stroke="#E1F1FF" stroke-width="2.2188" stroke-miterlimit="10"/>
<path opacity="0.8" d="M35.2912 137.503C47.7087 125.086 47.7087 104.953 35.2912 92.5357C22.8737 80.1182 2.74102 80.1182 -9.67646 92.5357C-22.0939 104.953 -22.0939 125.086 -9.67645 137.503C2.74103 149.921 22.8737 149.921 35.2912 137.503Z" stroke="#E1F1FF" stroke-width="2.375" stroke-miterlimit="10"/>
<path opacity="0.8" d="M32.4271 134.639C43.2627 123.804 43.2627 106.236 32.4271 95.3999C21.5914 84.5642 4.0234 84.5642 -6.81223 95.3999C-17.6479 106.236 -17.6479 123.804 -6.81223 134.639C4.0234 145.475 21.5914 145.475 32.4271 134.639Z" stroke="#E1F1FF" stroke-width="2.5313" stroke-miterlimit="10"/>
<path opacity="0.8" d="M36.3323 117.794C37.8661 104.797 28.5736 93.0179 15.5769 91.4841C2.58022 89.9503 -9.19904 99.2428 -10.7328 112.239C-12.2666 125.236 -2.97413 137.015 10.0225 138.549C23.0192 140.083 34.7985 130.79 36.3323 117.794Z" stroke="#E1F1FF" stroke-width="2.6875" stroke-miterlimit="10"/>
</svg>
