<svg width="116" height="237" viewBox="0 0 116 237" fill="none" xmlns="http://www.w3.org/2000/svg">
<g opacity="0.7">
<path opacity="0.81" d="M177.294 177.294C209.749 144.839 209.749 92.2194 177.294 59.7646C144.839 27.3098 92.2195 27.3098 59.7647 59.7646C27.3099 92.2194 27.3098 144.839 59.7647 177.294C92.2195 209.749 144.839 209.749 177.294 177.294Z" stroke="#D7F0FB" stroke-width="1.0531" stroke-linecap="round" stroke-linejoin="round"/>
<path opacity="0.81" d="M118.533 198.458C162.679 198.458 198.466 162.672 198.466 118.526C198.466 74.3809 162.679 38.594 118.533 38.594C74.3881 38.594 38.6012 74.3809 38.6012 118.526C38.6012 162.672 74.3881 198.458 118.533 198.458Z" stroke="#D7F0FB" stroke-width="1.1458" stroke-linecap="round" stroke-linejoin="round"/>
<path opacity="0.81" d="M172.805 172.805C202.78 142.829 202.78 94.2293 172.805 64.2538C142.829 34.2783 94.2293 34.2783 64.2538 64.2538C34.2782 94.2293 34.2782 142.829 64.2538 172.805C94.2293 202.78 142.829 202.78 172.805 172.805Z" stroke="#D7F0FB" stroke-width="1.2385" stroke-linecap="round" stroke-linejoin="round"/>
<path opacity="0.81" d="M118.534 192.11C159.173 192.11 192.117 159.165 192.117 118.526C192.117 77.8873 159.173 44.9429 118.534 44.9429C77.8945 44.9429 44.9501 77.8873 44.9501 118.526C44.9501 159.165 77.8945 192.11 118.534 192.11Z" stroke="#D7F0FB" stroke-width="1.3312" stroke-linecap="round" stroke-linejoin="round"/>
<path opacity="0.81" d="M118.533 188.936C157.419 188.936 188.943 157.413 188.943 118.527C188.943 79.6407 157.419 48.1174 118.533 48.1174C79.6475 48.1174 48.1243 79.6407 48.1243 118.527C48.1243 157.413 79.6475 188.936 118.533 188.936Z" stroke="#D7F0FB" stroke-width="1.4239" stroke-linecap="round" stroke-linejoin="round"/>
<path opacity="0.81" d="M118.534 185.761C155.666 185.761 185.768 155.659 185.768 118.526C185.768 81.3936 155.666 51.2915 118.534 51.2915C81.4008 51.2915 51.2987 81.3936 51.2987 118.526C51.2987 155.659 81.4008 185.761 118.534 185.761Z" stroke="#D7F0FB" stroke-width="1.5166" stroke-linecap="round" stroke-linejoin="round"/>
<path opacity="0.81" d="M118.533 182.587C153.913 182.587 182.594 153.906 182.594 118.527C182.594 83.1469 153.913 54.4661 118.533 54.4661C83.1539 54.4661 54.473 83.1469 54.473 118.527C54.473 153.906 83.1539 182.587 118.533 182.587Z" stroke="#D7F0FB" stroke-width="1.6093" stroke-linecap="round" stroke-linejoin="round"/>
<path opacity="0.81" d="M118.533 179.413C152.16 179.413 179.42 152.153 179.42 118.526C179.42 84.9 152.16 57.6404 118.533 57.6404C84.907 57.6404 57.6473 84.9 57.6473 118.526C57.6473 152.153 84.907 179.413 118.533 179.413Z" stroke="#D7F0FB" stroke-width="1.702" stroke-linecap="round" stroke-linejoin="round"/>
<path opacity="0.81" d="M118.533 176.238C150.407 176.238 176.245 150.4 176.245 118.526C176.245 86.6531 150.407 60.8147 118.533 60.8147C86.6602 60.8147 60.8218 86.6531 60.8218 118.526C60.8218 150.4 86.6602 176.238 118.533 176.238Z" stroke="#D7F0FB" stroke-width="1.7948" stroke-linecap="round" stroke-linejoin="round"/>
<path opacity="0.81" d="M118.534 173.064C148.654 173.064 173.071 148.647 173.071 118.526C173.071 88.4062 148.654 63.989 118.534 63.989C88.4134 63.989 63.9962 88.4062 63.9962 118.526C63.9962 148.647 88.4134 173.064 118.534 173.064Z" stroke="#D7F0FB" stroke-width="1.8875" stroke-linecap="round" stroke-linejoin="round"/>
<path opacity="0.81" d="M118.533 169.89C146.9 169.89 169.896 146.894 169.896 118.527C169.896 90.1596 146.9 67.1636 118.533 67.1636C90.1664 67.1636 67.1704 90.1596 67.1704 118.527C67.1704 146.894 90.1664 169.89 118.533 169.89Z" stroke="#D7F0FB" stroke-width="1.9802" stroke-linecap="round" stroke-linejoin="round"/>
<path opacity="0.81" d="M118.533 166.715C145.147 166.715 166.722 145.14 166.722 118.526C166.722 91.9124 145.147 70.3376 118.533 70.3376C91.9196 70.3376 70.3448 91.9124 70.3448 118.526C70.3448 145.14 91.9196 166.715 118.533 166.715Z" stroke="#D7F0FB" stroke-width="2.0729" stroke-linecap="round" stroke-linejoin="round"/>
<path opacity="0.81" d="M120.151 163.541C144.997 162.656 164.421 141.797 163.536 116.952C162.65 92.1059 141.792 72.6819 116.946 73.5669C92.1 74.452 72.676 95.3109 73.561 120.157C74.446 145.002 95.305 164.427 120.151 163.541Z" stroke="#D7F0FB" stroke-width="2.1656" stroke-linecap="round" stroke-linejoin="round"/>
<path opacity="0.81" d="M118.533 160.366C141.641 160.366 160.373 141.634 160.373 118.526C160.373 95.4189 141.641 76.6865 118.533 76.6865C95.4258 76.6865 76.6935 95.4189 76.6935 118.526C76.6935 141.634 95.4258 160.366 118.533 160.366Z" stroke="#D7F0FB" stroke-width="2.2583" stroke-linecap="round" stroke-linejoin="round"/>
<path opacity="0.81" d="M119.925 157.197C141.266 156.436 157.951 138.519 157.191 117.178C156.43 95.8361 138.513 79.1516 117.172 79.9118C95.8301 80.6721 79.1456 98.5891 79.9058 119.931C80.666 141.272 98.5831 157.957 119.925 157.197Z" stroke="#D7F0FB" stroke-width="2.351" stroke-linecap="round" stroke-linejoin="round"/>
<path opacity="0.81" d="M118.533 154.018C138.135 154.018 154.025 138.128 154.025 118.526C154.025 98.9249 138.135 83.0347 118.533 83.0347C98.9319 83.0347 83.0417 98.9249 83.0417 118.526C83.0417 138.128 98.9319 154.018 118.533 154.018Z" stroke="#D7F0FB" stroke-width="2.4437" stroke-linecap="round" stroke-linejoin="round"/>
<path opacity="0.81" d="M119.699 150.852C137.536 150.217 151.482 135.241 150.846 117.404C150.211 99.5658 135.235 85.6206 117.398 86.256C99.56 86.8914 85.6148 101.867 86.2502 119.704C86.8856 137.542 101.861 151.487 119.699 150.852Z" stroke="#D7F0FB" stroke-width="2.5364" stroke-linecap="round" stroke-linejoin="round"/>
<path opacity="0.81" d="M118.534 147.669C134.629 147.669 147.677 134.622 147.677 118.526C147.677 102.431 134.629 89.3833 118.534 89.3833C102.438 89.3833 89.3905 102.431 89.3905 118.526C89.3905 134.622 102.438 147.669 118.534 147.669Z" stroke="#D7F0FB" stroke-width="2.6292" stroke-linecap="round" stroke-linejoin="round"/>
<path opacity="0.81" d="M119.473 144.507C133.806 143.997 145.012 131.963 144.501 117.63C143.991 103.296 131.957 92.0906 117.624 92.6011C103.29 93.1117 92.0846 105.145 92.5951 119.479C93.1057 133.812 105.139 145.018 119.473 144.507Z" stroke="#D7F0FB" stroke-width="2.7219" stroke-linecap="round" stroke-linejoin="round"/>
<path opacity="0.81" d="M118.533 141.321C131.122 141.321 141.328 131.115 141.328 118.526C141.328 105.938 131.122 95.7322 118.533 95.7322C105.944 95.7322 95.7391 105.938 95.7391 118.526C95.7391 131.115 105.944 141.321 118.533 141.321Z" stroke="#D7F0FB" stroke-width="2.8146" stroke-linecap="round" stroke-linejoin="round"/>
<path opacity="0.81" d="M119.247 138.162C130.076 137.777 138.542 128.685 138.157 117.856C137.771 107.026 128.679 98.5603 117.85 98.9461C107.021 99.3318 98.5544 108.423 98.9402 119.253C99.3259 130.082 108.418 138.548 119.247 138.162Z" stroke="#D7F0FB" stroke-width="2.9073" stroke-linecap="round" stroke-linejoin="round"/>
<path opacity="0.81" d="M118.533 134.972C127.616 134.972 134.979 127.609 134.979 118.526C134.979 109.444 127.616 102.081 118.533 102.081C109.451 102.081 102.088 109.444 102.088 118.526C102.088 127.609 109.451 134.972 118.533 134.972Z" stroke="#D7F0FB" stroke-width="3" stroke-linecap="round" stroke-linejoin="round"/>
</g>
</svg>
