<svg width="82" height="246" viewBox="0 0 82 246" fill="none" xmlns="http://www.w3.org/2000/svg">
<g opacity="0.8">
<path opacity="0.5" d="M55.4089 141.839C55.9527 141.839 56.3935 141.398 56.3935 140.854C56.3935 140.31 55.9527 139.87 55.4089 139.87C54.8651 139.87 54.4243 140.31 54.4243 140.854C54.4243 141.398 54.8651 141.839 55.4089 141.839Z" fill="#FFD9D9"/>
<path opacity="0.5" d="M55.4089 150.323C55.9527 150.323 56.3935 149.883 56.3935 149.339C56.3935 148.795 55.9527 148.354 55.4089 148.354C54.8651 148.354 54.4243 148.795 54.4243 149.339C54.4243 149.883 54.8651 150.323 55.4089 150.323Z" fill="#FFD9D9"/>
<path opacity="0.5" d="M55.4089 158.809C55.9527 158.809 56.3935 158.368 56.3935 157.824C56.3935 157.28 55.9527 156.84 55.4089 156.84C54.8651 156.84 54.4243 157.28 54.4243 157.824C54.4243 158.368 54.8651 158.809 55.4089 158.809Z" fill="#FFD9D9"/>
<path opacity="0.5" d="M55.4089 167.293C55.9527 167.293 56.3935 166.853 56.3935 166.309C56.3935 165.765 55.9527 165.324 55.4089 165.324C54.8651 165.324 54.4243 165.765 54.4243 166.309C54.4243 166.853 54.8651 167.293 55.4089 167.293Z" fill="#FFD9D9"/>
<path opacity="0.5" d="M55.4089 175.779C55.9527 175.779 56.3935 175.338 56.3935 174.794C56.3935 174.25 55.9527 173.81 55.4089 173.81C54.8651 173.81 54.4243 174.25 54.4243 174.794C54.4243 175.338 54.8651 175.779 55.4089 175.779Z" fill="#FFD9D9"/>
<path opacity="0.5" d="M55.4089 184.264C55.9527 184.264 56.3935 183.823 56.3935 183.279C56.3935 182.735 55.9527 182.294 55.4089 182.294C54.8651 182.294 54.4243 182.735 54.4243 183.279C54.4243 183.823 54.8651 184.264 55.4089 184.264Z" fill="#FFD9D9"/>
<path opacity="0.5" d="M55.4089 192.748C55.9527 192.748 56.3935 192.308 56.3935 191.764C56.3935 191.22 55.9527 190.779 55.4089 190.779C54.8651 190.779 54.4243 191.22 54.4243 191.764C54.4243 192.308 54.8651 192.748 55.4089 192.748Z" fill="#FFD9D9"/>
<path opacity="0.5" d="M55.4089 201.233C54.865 201.233 54.4243 200.793 54.4243 200.249C54.4243 199.705 54.865 199.264 55.4089 199.264C55.9527 199.264 56.3935 199.705 56.3935 200.249C56.394 200.792 55.9527 201.233 55.4089 201.233Z" fill="#FFD9D9"/>
<path opacity="0.5" d="M46.924 141.839C46.3802 141.839 45.9395 141.398 45.9395 140.854C45.9395 140.31 46.3802 139.87 46.924 139.87C47.4679 139.87 47.9086 140.31 47.9086 140.854C47.9086 141.398 47.4679 141.839 46.924 141.839Z" fill="#FFD9D9"/>
<path opacity="0.5" d="M46.924 150.324C46.3802 150.324 45.9395 149.883 45.9395 149.339C45.9395 148.795 46.3802 148.355 46.924 148.355C47.4679 148.355 47.9086 148.795 47.9086 149.339C47.9086 149.883 47.4679 150.324 46.924 150.324Z" fill="#FFD9D9"/>
<path opacity="0.5" d="M46.924 158.809C46.3802 158.809 45.9395 158.368 45.9395 157.824C45.9395 157.28 46.3802 156.84 46.924 156.84C47.4679 156.84 47.9086 157.28 47.9086 157.824C47.9086 158.368 47.4679 158.809 46.924 158.809Z" fill="#FFD9D9"/>
<path opacity="0.5" d="M46.924 167.293C46.3802 167.293 45.9395 166.853 45.9395 166.309C45.9395 165.765 46.3802 165.324 46.924 165.324C47.4679 165.324 47.9086 165.765 47.9086 166.309C47.9086 166.853 47.4679 167.293 46.924 167.293Z" fill="#FFD9D9"/>
<path opacity="0.5" d="M46.924 175.779C46.3802 175.779 45.9395 175.338 45.9395 174.794C45.9395 174.25 46.3802 173.81 46.924 173.81C47.4679 173.81 47.9086 174.25 47.9086 174.794C47.9086 175.337 47.4679 175.779 46.924 175.779Z" fill="#FFD9D9"/>
<path opacity="0.5" d="M46.924 184.264C46.3802 184.264 45.9395 183.823 45.9395 183.279C45.9395 182.735 46.3802 182.294 46.924 182.294C47.4679 182.294 47.9086 182.735 47.9086 183.279C47.9086 183.823 47.4679 184.264 46.924 184.264Z" fill="#FFD9D9"/>
<path opacity="0.5" d="M46.924 192.748C46.3802 192.748 45.9395 192.308 45.9395 191.764C45.9395 191.22 46.3802 190.779 46.924 190.779C47.4679 190.779 47.9086 191.22 47.9086 191.764C47.9086 192.308 47.4679 192.748 46.924 192.748Z" fill="#FFD9D9"/>
<path opacity="0.5" d="M46.924 201.233C46.3802 201.233 45.9395 200.793 45.9395 200.249C45.9395 199.705 46.3802 199.264 46.924 199.264C47.4679 199.264 47.9086 199.705 47.9086 200.249C47.9086 200.792 47.4679 201.233 46.924 201.233Z" fill="#FFD9D9"/>
<path opacity="0.5" d="M38.4393 141.839C38.983 141.839 39.4239 141.398 39.4239 140.854C39.4239 140.31 38.983 139.87 38.4393 139.87C37.8955 139.87 37.4547 140.31 37.4547 140.854C37.4547 141.398 37.8955 141.839 38.4393 141.839Z" fill="#FFD9D9"/>
<path opacity="0.5" d="M38.4393 150.323C38.983 150.323 39.4239 149.883 39.4239 149.339C39.4239 148.795 38.983 148.354 38.4393 148.354C37.8955 148.354 37.4547 148.795 37.4547 149.339C37.4547 149.883 37.8955 150.323 38.4393 150.323Z" fill="#FFD9D9"/>
<path opacity="0.5" d="M38.4393 158.809C38.983 158.809 39.4239 158.368 39.4239 157.824C39.4239 157.28 38.983 156.84 38.4393 156.84C37.8955 156.84 37.4547 157.28 37.4547 157.824C37.4547 158.368 37.8955 158.809 38.4393 158.809Z" fill="#FFD9D9"/>
<path opacity="0.5" d="M38.4393 167.293C38.983 167.293 39.4239 166.853 39.4239 166.309C39.4239 165.765 38.983 165.324 38.4393 165.324C37.8955 165.324 37.4547 165.765 37.4547 166.309C37.4547 166.853 37.8955 167.293 38.4393 167.293Z" fill="#FFD9D9"/>
<path opacity="0.5" d="M38.4393 175.779C38.983 175.779 39.4239 175.338 39.4239 174.794C39.4239 174.25 38.983 173.81 38.4393 173.81C37.8955 173.81 37.4547 174.25 37.4547 174.794C37.4547 175.338 37.8955 175.779 38.4393 175.779Z" fill="#FFD9D9"/>
<path opacity="0.5" d="M38.4393 184.264C38.983 184.264 39.4239 183.823 39.4239 183.279C39.4239 182.735 38.983 182.294 38.4393 182.294C37.8955 182.294 37.4547 182.735 37.4547 183.279C37.4547 183.823 37.8955 184.264 38.4393 184.264Z" fill="#FFD9D9"/>
<path opacity="0.5" d="M38.4393 192.748C38.983 192.748 39.4239 192.308 39.4239 191.764C39.4239 191.22 38.983 190.779 38.4393 190.779C37.8955 190.779 37.4547 191.22 37.4547 191.764C37.4547 192.308 37.8955 192.748 38.4393 192.748Z" fill="#FFD9D9"/>
<path opacity="0.5" d="M38.4393 201.233C37.8954 201.233 37.4547 200.793 37.4547 200.249C37.4547 199.705 37.8954 199.264 38.4393 199.264C38.9831 199.264 39.4239 199.705 39.4239 200.249C39.4239 200.792 38.9831 201.233 38.4393 201.233Z" fill="#FFD9D9"/>
<path opacity="0.5" d="M29.9541 141.839C30.4978 141.839 30.9386 141.398 30.9386 140.854C30.9386 140.31 30.4978 139.87 29.9541 139.87C29.4103 139.87 28.9695 140.31 28.9695 140.854C28.9695 141.398 29.4103 141.839 29.9541 141.839Z" fill="#FFD9D9"/>
<path opacity="0.5" d="M29.9541 150.323C30.4978 150.323 30.9386 149.883 30.9386 149.339C30.9386 148.795 30.4978 148.354 29.9541 148.354C29.4103 148.354 28.9695 148.795 28.9695 149.339C28.9695 149.883 29.4103 150.323 29.9541 150.323Z" fill="#FFD9D9"/>
<path opacity="0.5" d="M29.9541 158.809C30.4978 158.809 30.9386 158.368 30.9386 157.824C30.9386 157.28 30.4978 156.84 29.9541 156.84C29.4103 156.84 28.9695 157.28 28.9695 157.824C28.9695 158.368 29.4103 158.809 29.9541 158.809Z" fill="#FFD9D9"/>
<path opacity="0.5" d="M29.9541 167.293C30.4978 167.293 30.9386 166.853 30.9386 166.309C30.9386 165.765 30.4978 165.324 29.9541 165.324C29.4103 165.324 28.9695 165.765 28.9695 166.309C28.9695 166.853 29.4103 167.293 29.9541 167.293Z" fill="#FFD9D9"/>
<path opacity="0.5" d="M29.9541 175.779C30.4978 175.779 30.9386 175.338 30.9386 174.794C30.9386 174.25 30.4978 173.81 29.9541 173.81C29.4103 173.81 28.9695 174.25 28.9695 174.794C28.9695 175.338 29.4103 175.779 29.9541 175.779Z" fill="#FFD9D9"/>
<path opacity="0.5" d="M29.9541 184.264C30.4978 184.264 30.9386 183.823 30.9386 183.279C30.9386 182.735 30.4978 182.294 29.9541 182.294C29.4103 182.294 28.9695 182.735 28.9695 183.279C28.9695 183.823 29.4103 184.264 29.9541 184.264Z" fill="#FFD9D9"/>
<path opacity="0.5" d="M29.9541 192.748C30.4978 192.748 30.9386 192.308 30.9386 191.764C30.9386 191.22 30.4978 190.779 29.9541 190.779C29.4103 190.779 28.9695 191.22 28.9695 191.764C28.9695 192.308 29.4103 192.748 29.9541 192.748Z" fill="#FFD9D9"/>
<path opacity="0.5" d="M29.9541 201.233C29.4102 201.233 28.9695 200.793 28.9695 200.249C28.9695 199.705 29.4102 199.264 29.9541 199.264C30.4979 199.264 30.9386 199.705 30.9386 200.249C30.9392 200.792 30.4979 201.233 29.9541 201.233Z" fill="#FFD9D9"/>
<path opacity="0.5" d="M21.4693 141.839C22.0131 141.839 22.4539 141.398 22.4539 140.854C22.4539 140.31 22.0131 139.87 21.4693 139.87C20.9256 139.87 20.4847 140.31 20.4847 140.854C20.4847 141.398 20.9256 141.839 21.4693 141.839Z" fill="#FFD9D9"/>
<path opacity="0.5" d="M21.4693 150.323C22.0131 150.323 22.4539 149.883 22.4539 149.339C22.4539 148.795 22.0131 148.354 21.4693 148.354C20.9256 148.354 20.4847 148.795 20.4847 149.339C20.4847 149.883 20.9256 150.323 21.4693 150.323Z" fill="#FFD9D9"/>
<path opacity="0.5" d="M21.4693 158.809C22.0131 158.809 22.4539 158.368 22.4539 157.824C22.4539 157.28 22.0131 156.84 21.4693 156.84C20.9256 156.84 20.4847 157.28 20.4847 157.824C20.4847 158.368 20.9256 158.809 21.4693 158.809Z" fill="#FFD9D9"/>
<path opacity="0.5" d="M21.4693 167.293C22.0131 167.293 22.4539 166.853 22.4539 166.309C22.4539 165.765 22.0131 165.324 21.4693 165.324C20.9256 165.324 20.4847 165.765 20.4847 166.309C20.4847 166.853 20.9256 167.293 21.4693 167.293Z" fill="#FFD9D9"/>
<path opacity="0.5" d="M21.4693 175.779C22.0131 175.779 22.4539 175.338 22.4539 174.794C22.4539 174.25 22.0131 173.81 21.4693 173.81C20.9256 173.81 20.4847 174.25 20.4847 174.794C20.4847 175.338 20.9256 175.779 21.4693 175.779Z" fill="#FFD9D9"/>
<path opacity="0.5" d="M21.4693 184.264C22.0131 184.264 22.4539 183.823 22.4539 183.279C22.4539 182.735 22.0131 182.294 21.4693 182.294C20.9256 182.294 20.4847 182.735 20.4847 183.279C20.4847 183.823 20.9256 184.264 21.4693 184.264Z" fill="#FFD9D9"/>
<path opacity="0.5" d="M21.4693 192.748C22.0131 192.748 22.4539 192.308 22.4539 191.764C22.4539 191.22 22.0131 190.779 21.4693 190.779C20.9256 190.779 20.4847 191.22 20.4847 191.764C20.4847 192.308 20.9256 192.748 21.4693 192.748Z" fill="#FFD9D9"/>
<path opacity="0.5" d="M21.4693 201.233C20.9255 201.233 20.4847 200.793 20.4847 200.249C20.4847 199.705 20.9255 199.264 21.4693 199.264C22.0132 199.264 22.4539 199.705 22.4539 200.249C22.4539 200.792 22.0132 201.233 21.4693 201.233Z" fill="#FFD9D9"/>
<path opacity="0.5" d="M12.9846 141.839C13.5283 141.839 13.9691 141.398 13.9691 140.854C13.9691 140.31 13.5283 139.87 12.9846 139.87C12.4408 139.87 12 140.31 12 140.854C12 141.398 12.4408 141.839 12.9846 141.839Z" fill="#FFD9D9"/>
<path opacity="0.5" d="M12.9846 150.323C13.5283 150.323 13.9691 149.883 13.9691 149.339C13.9691 148.795 13.5283 148.354 12.9846 148.354C12.4408 148.354 12 148.795 12 149.339C12 149.883 12.4408 150.323 12.9846 150.323Z" fill="#FFD9D9"/>
<path opacity="0.5" d="M12.9846 158.809C13.5283 158.809 13.9691 158.368 13.9691 157.824C13.9691 157.28 13.5283 156.84 12.9846 156.84C12.4408 156.84 12 157.28 12 157.824C12 158.368 12.4408 158.809 12.9846 158.809Z" fill="#FFD9D9"/>
<path opacity="0.5" d="M12.9846 167.293C13.5283 167.293 13.9691 166.853 13.9691 166.309C13.9691 165.765 13.5283 165.324 12.9846 165.324C12.4408 165.324 12 165.765 12 166.309C12 166.853 12.4408 167.293 12.9846 167.293Z" fill="#FFD9D9"/>
<path opacity="0.5" d="M12.9846 175.779C13.5283 175.779 13.9691 175.338 13.9691 174.794C13.9691 174.25 13.5283 173.81 12.9846 173.81C12.4408 173.81 12 174.25 12 174.794C12 175.338 12.4408 175.779 12.9846 175.779Z" fill="#FFD9D9"/>
<path opacity="0.5" d="M12.9846 184.264C13.5283 184.264 13.9691 183.823 13.9691 183.279C13.9691 182.735 13.5283 182.294 12.9846 182.294C12.4408 182.294 12 182.735 12 183.279C12 183.823 12.4408 184.264 12.9846 184.264Z" fill="#FFD9D9"/>
<path opacity="0.5" d="M12.9846 192.748C13.5283 192.748 13.9691 192.308 13.9691 191.764C13.9691 191.22 13.5283 190.779 12.9846 190.779C12.4408 190.779 12 191.22 12 191.764C12 192.308 12.4408 192.748 12.9846 192.748Z" fill="#FFD9D9"/>
<path opacity="0.5" d="M12.9846 201.233C12.4407 201.233 12 200.793 12 200.249C12 199.705 12.4407 199.264 12.9846 199.264C13.5284 199.264 13.9691 199.705 13.9691 200.249C13.9691 200.792 13.5284 201.233 12.9846 201.233Z" fill="#FFD9D9"/>
<path opacity="0.2" d="M122.72 36L35.6962 123.024L122.72 210.048L209.744 123.024L122.72 36Z" stroke="#D9E3FF" stroke-width="50" stroke-miterlimit="10"/>
</g>
</svg>
