<svg width="15" height="17" viewBox="0 0 15 17" fill="none" xmlns="http://www.w3.org/2000/svg">
<path d="M13.3333 1.83329H12.5V0.166626H10.8333V1.83329H4.16667V0.166626H2.5V1.83329H1.66667C0.741667 1.83329 0 2.58329 0 3.49996V15.1666C0 15.6087 0.175595 16.0326 0.488155 16.3451C0.800716 16.6577 1.22464 16.8333 1.66667 16.8333H13.3333C13.7754 16.8333 14.1993 16.6577 14.5118 16.3451C14.8244 16.0326 15 15.6087 15 15.1666V3.49996C15 3.05793 14.8244 2.63401 14.5118 2.32145C14.1993 2.00889 13.7754 1.83329 13.3333 1.83329ZM13.3333 15.1666H1.66667V6.83329H13.3333V15.1666ZM13.3333 5.16663H1.66667V3.49996H13.3333V5.16663Z" fill="#6D718C"/>
</svg>
