<svg width="26" height="20" viewBox="0 0 26 20" fill="none" xmlns="http://www.w3.org/2000/svg">
<path d="M5.11668 7.95459L2.66668 17.2879V5.62126H22.5C22.5 5.00242 22.2542 4.40893 21.8166 3.97134C21.379 3.53376 20.7855 3.28792 20.1667 3.28792H12L9.66668 0.95459H2.66668C2.04784 0.95459 1.45435 1.20042 1.01676 1.63801C0.579176 2.07559 0.333344 2.66908 0.333344 3.28792V17.2879C0.333344 17.9068 0.579176 18.5003 1.01676 18.9378C1.45435 19.3754 2.04784 19.6213 2.66668 19.6213H20.1667C21.2167 19.6213 22.15 18.9213 22.3833 17.8713L25.0667 7.95459H5.11668ZM20.1667 17.2879H5.00001L6.86668 10.2879H22.0333L20.1667 17.2879Z" fill="black"/>
</svg>
