<svg width="15" height="21" viewBox="0 0 15 21" fill="none" xmlns="http://www.w3.org/2000/svg">
<path d="M7.5 4.60999C8.16304 4.60999 8.79893 4.87338 9.26777 5.34222C9.73661 5.81106 10 6.44694 10 7.10999C10 7.43829 9.93534 7.76338 9.8097 8.06669C9.68406 8.37001 9.49991 8.64561 9.26777 8.87775C9.03562 9.1099 8.76002 9.29405 8.45671 9.41968C8.15339 9.54532 7.8283 9.60999 7.5 9.60999C6.83696 9.60999 6.20107 9.34659 5.73223 8.87775C5.26339 8.40891 5 7.77303 5 7.10999C5 6.44694 5.26339 5.81106 5.73223 5.34222C6.20107 4.87338 6.83696 4.60999 7.5 4.60999ZM7.5 0.109985C9.35652 0.109985 11.137 0.847483 12.4497 2.16024C13.7625 3.47299 14.5 5.25347 14.5 7.10999C14.5 12.36 7.5 20.11 7.5 20.11C7.5 20.11 0.5 12.36 0.5 7.10999C0.5 5.25347 1.2375 3.47299 2.55025 2.16024C3.86301 0.847483 5.64348 0.109985 7.5 0.109985ZM7.5 2.10999C6.17392 2.10999 4.90215 2.63677 3.96447 3.57445C3.02678 4.51213 2.5 5.7839 2.5 7.10999C2.5 8.10999 2.5 10.11 7.5 16.82C12.5 10.11 12.5 8.10999 12.5 7.10999C12.5 5.7839 11.9732 4.51213 11.0355 3.57445C10.0979 2.63677 8.82608 2.10999 7.5 2.10999Z" fill="#27C60D"/>
</svg>
