<svg width="24" height="25" viewBox="0 0 24 25" fill="none" xmlns="http://www.w3.org/2000/svg">
<path fill-rule="evenodd" clip-rule="evenodd" d="M0 12.5C0 5.9 5.4 0.5 12 0.5C18.6 0.5 24 5.9 24 12.5C24 19.1 18.6 24.5 12 24.5C5.4 24.5 0 19.1 0 12.5ZM2.4 12.5C2.4 17.792 6.708 22.1 12 22.1C17.292 22.1 21.6 17.792 21.6 12.5C21.6 7.208 17.292 2.9 12 2.9C6.708 2.9 2.4 7.208 2.4 12.5ZM18.8971 17.9819L13.3342 12.419L18.8976 6.85562L17.4833 5.44141L11.92 11.0047L6.35658 5.44133L4.94236 6.85554L10.5058 12.419L4.94278 17.982L6.35699 19.3962L11.92 13.8332L17.4829 19.3961L18.8971 17.9819Z" fill="#DC2626"/>
</svg>
